<?xml version="1.0" encoding="utf-8"?>
<svg xmlns="http://www.w3.org/2000/svg" xmlns:xlink="http://www.w3.org/1999/xlink" width="600" height="400" viewBox="0 0 2400 1600">
<defs>
  <clipPath id="clip540">
    <rect x="0" y="0" width="2400" height="1600"/>
  </clipPath>
</defs>
<path clip-path="url(#clip540)" d="M0 1600 L2400 1600 L2400 0 L0 0  Z" fill="#ffffff" fill-rule="evenodd" fill-opacity="1"/>
<defs>
  <clipPath id="clip541">
    <rect x="257" y="47" width="2097" height="1377"/>
  </clipPath>
</defs>
<path clip-path="url(#clip540)" d="M257.204 1423.18 L2352.76 1423.18 L2352.76 47.2441 L257.204 47.2441  Z" fill="#ffffff" fill-rule="evenodd" fill-opacity="1"/>
<polyline clip-path="url(#clip541)" style="stroke:#000000; stroke-linecap:round; stroke-linejoin:round; stroke-width:2; stroke-opacity:0.1; fill:none" points="481.257,1423.18 481.257,47.2441 "/>
<polyline clip-path="url(#clip541)" style="stroke:#000000; stroke-linecap:round; stroke-linejoin:round; stroke-width:2; stroke-opacity:0.1; fill:none" points="893.118,1423.18 893.118,47.2441 "/>
<polyline clip-path="url(#clip541)" style="stroke:#000000; stroke-linecap:round; stroke-linejoin:round; stroke-width:2; stroke-opacity:0.1; fill:none" points="1304.98,1423.18 1304.98,47.2441 "/>
<polyline clip-path="url(#clip541)" style="stroke:#000000; stroke-linecap:round; stroke-linejoin:round; stroke-width:2; stroke-opacity:0.1; fill:none" points="1716.84,1423.18 1716.84,47.2441 "/>
<polyline clip-path="url(#clip541)" style="stroke:#000000; stroke-linecap:round; stroke-linejoin:round; stroke-width:2; stroke-opacity:0.1; fill:none" points="2128.7,1423.18 2128.7,47.2441 "/>
<polyline clip-path="url(#clip541)" style="stroke:#000000; stroke-linecap:round; stroke-linejoin:round; stroke-width:2; stroke-opacity:0.1; fill:none" points="257.204,1399.96 2352.76,1399.96 "/>
<polyline clip-path="url(#clip541)" style="stroke:#000000; stroke-linecap:round; stroke-linejoin:round; stroke-width:2; stroke-opacity:0.1; fill:none" points="257.204,1170.86 2352.76,1170.86 "/>
<polyline clip-path="url(#clip541)" style="stroke:#000000; stroke-linecap:round; stroke-linejoin:round; stroke-width:2; stroke-opacity:0.1; fill:none" points="257.204,941.746 2352.76,941.746 "/>
<polyline clip-path="url(#clip541)" style="stroke:#000000; stroke-linecap:round; stroke-linejoin:round; stroke-width:2; stroke-opacity:0.1; fill:none" points="257.204,712.636 2352.76,712.636 "/>
<polyline clip-path="url(#clip541)" style="stroke:#000000; stroke-linecap:round; stroke-linejoin:round; stroke-width:2; stroke-opacity:0.1; fill:none" points="257.204,483.527 2352.76,483.527 "/>
<polyline clip-path="url(#clip541)" style="stroke:#000000; stroke-linecap:round; stroke-linejoin:round; stroke-width:2; stroke-opacity:0.1; fill:none" points="257.204,254.417 2352.76,254.417 "/>
<polyline clip-path="url(#clip540)" style="stroke:#000000; stroke-linecap:round; stroke-linejoin:round; stroke-width:4; stroke-opacity:1; fill:none" points="257.204,1423.18 2352.76,1423.18 "/>
<polyline clip-path="url(#clip540)" style="stroke:#000000; stroke-linecap:round; stroke-linejoin:round; stroke-width:4; stroke-opacity:1; fill:none" points="481.257,1423.18 481.257,1404.28 "/>
<polyline clip-path="url(#clip540)" style="stroke:#000000; stroke-linecap:round; stroke-linejoin:round; stroke-width:4; stroke-opacity:1; fill:none" points="893.118,1423.18 893.118,1404.28 "/>
<polyline clip-path="url(#clip540)" style="stroke:#000000; stroke-linecap:round; stroke-linejoin:round; stroke-width:4; stroke-opacity:1; fill:none" points="1304.98,1423.18 1304.98,1404.28 "/>
<polyline clip-path="url(#clip540)" style="stroke:#000000; stroke-linecap:round; stroke-linejoin:round; stroke-width:4; stroke-opacity:1; fill:none" points="1716.84,1423.18 1716.84,1404.28 "/>
<polyline clip-path="url(#clip540)" style="stroke:#000000; stroke-linecap:round; stroke-linejoin:round; stroke-width:4; stroke-opacity:1; fill:none" points="2128.7,1423.18 2128.7,1404.28 "/>
<path clip-path="url(#clip540)" d="M427.785 1468.75 L457.461 1468.75 L457.461 1472.69 L427.785 1472.69 L427.785 1468.75 Z" fill="#000000" fill-rule="nonzero" fill-opacity="1" /><path clip-path="url(#clip540)" d="M467.599 1451.02 L485.956 1451.02 L485.956 1454.96 L471.882 1454.96 L471.882 1463.43 Q472.9 1463.08 473.919 1462.92 Q474.937 1462.73 475.956 1462.73 Q481.743 1462.73 485.122 1465.9 Q488.502 1469.08 488.502 1474.49 Q488.502 1480.07 485.03 1483.17 Q481.558 1486.25 475.238 1486.25 Q473.062 1486.25 470.794 1485.88 Q468.548 1485.51 466.141 1484.77 L466.141 1480.07 Q468.224 1481.2 470.447 1481.76 Q472.669 1482.32 475.146 1482.32 Q479.15 1482.32 481.488 1480.21 Q483.826 1478.1 483.826 1474.49 Q483.826 1470.88 481.488 1468.77 Q479.15 1466.67 475.146 1466.67 Q473.271 1466.67 471.396 1467.08 Q469.544 1467.5 467.599 1468.38 L467.599 1451.02 Z" fill="#000000" fill-rule="nonzero" fill-opacity="1" /><path clip-path="url(#clip540)" d="M497.715 1479.7 L502.599 1479.7 L502.599 1485.58 L497.715 1485.58 L497.715 1479.7 Z" fill="#000000" fill-rule="nonzero" fill-opacity="1" /><path clip-path="url(#clip540)" d="M522.784 1454.1 Q519.173 1454.1 517.345 1457.66 Q515.539 1461.2 515.539 1468.33 Q515.539 1475.44 517.345 1479.01 Q519.173 1482.55 522.784 1482.55 Q526.419 1482.55 528.224 1479.01 Q530.053 1475.44 530.053 1468.33 Q530.053 1461.2 528.224 1457.66 Q526.419 1454.1 522.784 1454.1 M522.784 1450.39 Q528.594 1450.39 531.65 1455 Q534.729 1459.58 534.729 1468.33 Q534.729 1477.06 531.65 1481.67 Q528.594 1486.25 522.784 1486.25 Q516.974 1486.25 513.895 1481.67 Q510.84 1477.06 510.84 1468.33 Q510.84 1459.58 513.895 1455 Q516.974 1450.39 522.784 1450.39 Z" fill="#000000" fill-rule="nonzero" fill-opacity="1" /><path clip-path="url(#clip540)" d="M840.144 1468.75 L869.82 1468.75 L869.82 1472.69 L840.144 1472.69 L840.144 1468.75 Z" fill="#000000" fill-rule="nonzero" fill-opacity="1" /><path clip-path="url(#clip540)" d="M883.94 1481.64 L900.26 1481.64 L900.26 1485.58 L878.315 1485.58 L878.315 1481.64 Q880.977 1478.89 885.561 1474.26 Q890.167 1469.61 891.348 1468.27 Q893.593 1465.74 894.473 1464.01 Q895.375 1462.25 895.375 1460.56 Q895.375 1457.8 893.431 1456.07 Q891.51 1454.33 888.408 1454.33 Q886.209 1454.33 883.755 1455.09 Q881.324 1455.86 878.547 1457.41 L878.547 1452.69 Q881.371 1451.55 883.824 1450.97 Q886.278 1450.39 888.315 1450.39 Q893.685 1450.39 896.88 1453.08 Q900.074 1455.77 900.074 1460.26 Q900.074 1462.39 899.264 1464.31 Q898.477 1466.2 896.371 1468.8 Q895.792 1469.47 892.69 1472.69 Q889.588 1475.88 883.94 1481.64 Z" fill="#000000" fill-rule="nonzero" fill-opacity="1" /><path clip-path="url(#clip540)" d="M910.074 1479.7 L914.959 1479.7 L914.959 1485.58 L910.074 1485.58 L910.074 1479.7 Z" fill="#000000" fill-rule="nonzero" fill-opacity="1" /><path clip-path="url(#clip540)" d="M925.19 1451.02 L943.546 1451.02 L943.546 1454.96 L929.472 1454.96 L929.472 1463.43 Q930.491 1463.08 931.509 1462.92 Q932.528 1462.73 933.546 1462.73 Q939.333 1462.73 942.713 1465.9 Q946.093 1469.08 946.093 1474.49 Q946.093 1480.07 942.62 1483.17 Q939.148 1486.25 932.829 1486.25 Q930.653 1486.25 928.384 1485.88 Q926.139 1485.51 923.732 1484.77 L923.732 1480.07 Q925.815 1481.2 928.037 1481.76 Q930.259 1482.32 932.736 1482.32 Q936.741 1482.32 939.079 1480.21 Q941.417 1478.1 941.417 1474.49 Q941.417 1470.88 939.079 1468.77 Q936.741 1466.67 932.736 1466.67 Q930.861 1466.67 928.986 1467.08 Q927.134 1467.5 925.19 1468.38 L925.19 1451.02 Z" fill="#000000" fill-rule="nonzero" fill-opacity="1" /><path clip-path="url(#clip540)" d="M1282.36 1454.1 Q1278.75 1454.1 1276.92 1457.66 Q1275.12 1461.2 1275.12 1468.33 Q1275.12 1475.44 1276.92 1479.01 Q1278.75 1482.55 1282.36 1482.55 Q1286 1482.55 1287.8 1479.01 Q1289.63 1475.44 1289.63 1468.33 Q1289.63 1461.2 1287.8 1457.66 Q1286 1454.1 1282.36 1454.1 M1282.36 1450.39 Q1288.17 1450.39 1291.23 1455 Q1294.31 1459.58 1294.31 1468.33 Q1294.31 1477.06 1291.23 1481.67 Q1288.17 1486.25 1282.36 1486.25 Q1276.55 1486.25 1273.48 1481.67 Q1270.42 1477.06 1270.42 1468.33 Q1270.42 1459.58 1273.48 1455 Q1276.55 1450.39 1282.36 1450.39 Z" fill="#000000" fill-rule="nonzero" fill-opacity="1" /><path clip-path="url(#clip540)" d="M1302.53 1479.7 L1307.41 1479.7 L1307.41 1485.58 L1302.53 1485.58 L1302.53 1479.7 Z" fill="#000000" fill-rule="nonzero" fill-opacity="1" /><path clip-path="url(#clip540)" d="M1327.6 1454.1 Q1323.98 1454.1 1322.16 1457.66 Q1320.35 1461.2 1320.35 1468.33 Q1320.35 1475.44 1322.16 1479.01 Q1323.98 1482.55 1327.6 1482.55 Q1331.23 1482.55 1333.04 1479.01 Q1334.86 1475.44 1334.86 1468.33 Q1334.86 1461.2 1333.04 1457.66 Q1331.23 1454.1 1327.6 1454.1 M1327.6 1450.39 Q1333.41 1450.39 1336.46 1455 Q1339.54 1459.58 1339.54 1468.33 Q1339.54 1477.06 1336.46 1481.67 Q1333.41 1486.25 1327.6 1486.25 Q1321.79 1486.25 1318.71 1481.67 Q1315.65 1477.06 1315.65 1468.33 Q1315.65 1459.58 1318.71 1455 Q1321.79 1450.39 1327.6 1450.39 Z" fill="#000000" fill-rule="nonzero" fill-opacity="1" /><path clip-path="url(#clip540)" d="M1688.58 1481.64 L1704.9 1481.64 L1704.9 1485.58 L1682.95 1485.58 L1682.95 1481.64 Q1685.61 1478.89 1690.2 1474.26 Q1694.8 1469.61 1695.99 1468.27 Q1698.23 1465.74 1699.11 1464.01 Q1700.01 1462.25 1700.01 1460.56 Q1700.01 1457.8 1698.07 1456.07 Q1696.15 1454.33 1693.05 1454.33 Q1690.85 1454.33 1688.39 1455.09 Q1685.96 1455.86 1683.18 1457.41 L1683.18 1452.69 Q1686.01 1451.55 1688.46 1450.97 Q1690.92 1450.39 1692.95 1450.39 Q1698.32 1450.39 1701.52 1453.08 Q1704.71 1455.77 1704.71 1460.26 Q1704.71 1462.39 1703.9 1464.31 Q1703.11 1466.2 1701.01 1468.8 Q1700.43 1469.47 1697.33 1472.69 Q1694.23 1475.88 1688.58 1481.64 Z" fill="#000000" fill-rule="nonzero" fill-opacity="1" /><path clip-path="url(#clip540)" d="M1714.71 1479.7 L1719.6 1479.7 L1719.6 1485.58 L1714.71 1485.58 L1714.71 1479.7 Z" fill="#000000" fill-rule="nonzero" fill-opacity="1" /><path clip-path="url(#clip540)" d="M1729.83 1451.02 L1748.18 1451.02 L1748.18 1454.96 L1734.11 1454.96 L1734.11 1463.43 Q1735.13 1463.08 1736.15 1462.92 Q1737.17 1462.73 1738.18 1462.73 Q1743.97 1462.73 1747.35 1465.9 Q1750.73 1469.08 1750.73 1474.49 Q1750.73 1480.07 1747.26 1483.17 Q1743.79 1486.25 1737.47 1486.25 Q1735.29 1486.25 1733.02 1485.88 Q1730.78 1485.51 1728.37 1484.77 L1728.37 1480.07 Q1730.45 1481.2 1732.67 1481.76 Q1734.9 1482.32 1737.37 1482.32 Q1741.38 1482.32 1743.72 1480.21 Q1746.05 1478.1 1746.05 1474.49 Q1746.05 1470.88 1743.72 1468.77 Q1741.38 1466.67 1737.37 1466.67 Q1735.5 1466.67 1733.62 1467.08 Q1731.77 1467.5 1729.83 1468.38 L1729.83 1451.02 Z" fill="#000000" fill-rule="nonzero" fill-opacity="1" /><path clip-path="url(#clip540)" d="M2095.87 1451.02 L2114.22 1451.02 L2114.22 1454.96 L2100.15 1454.96 L2100.15 1463.43 Q2101.17 1463.08 2102.19 1462.92 Q2103.21 1462.73 2104.22 1462.73 Q2110.01 1462.73 2113.39 1465.9 Q2116.77 1469.08 2116.77 1474.49 Q2116.77 1480.07 2113.3 1483.17 Q2109.83 1486.25 2103.51 1486.25 Q2101.33 1486.25 2099.06 1485.88 Q2096.82 1485.51 2094.41 1484.77 L2094.41 1480.07 Q2096.49 1481.2 2098.71 1481.76 Q2100.94 1482.32 2103.41 1482.32 Q2107.42 1482.32 2109.76 1480.21 Q2112.09 1478.1 2112.09 1474.49 Q2112.09 1470.88 2109.76 1468.77 Q2107.42 1466.67 2103.41 1466.67 Q2101.54 1466.67 2099.66 1467.08 Q2097.81 1467.5 2095.87 1468.38 L2095.87 1451.02 Z" fill="#000000" fill-rule="nonzero" fill-opacity="1" /><path clip-path="url(#clip540)" d="M2125.98 1479.7 L2130.87 1479.7 L2130.87 1485.58 L2125.98 1485.58 L2125.98 1479.7 Z" fill="#000000" fill-rule="nonzero" fill-opacity="1" /><path clip-path="url(#clip540)" d="M2151.05 1454.1 Q2147.44 1454.1 2145.61 1457.66 Q2143.81 1461.2 2143.81 1468.33 Q2143.81 1475.44 2145.61 1479.01 Q2147.44 1482.55 2151.05 1482.55 Q2154.69 1482.55 2156.49 1479.01 Q2158.32 1475.44 2158.32 1468.33 Q2158.32 1461.2 2156.49 1457.66 Q2154.69 1454.1 2151.05 1454.1 M2151.05 1450.39 Q2156.86 1450.39 2159.92 1455 Q2163 1459.58 2163 1468.33 Q2163 1477.06 2159.92 1481.67 Q2156.86 1486.25 2151.05 1486.25 Q2145.24 1486.25 2142.16 1481.67 Q2139.11 1477.06 2139.11 1468.33 Q2139.11 1459.58 2142.16 1455 Q2145.24 1450.39 2151.05 1450.39 Z" fill="#000000" fill-rule="nonzero" fill-opacity="1" /><path clip-path="url(#clip540)" d="M1321.59 1532.4 L1308.7 1549.74 L1322.26 1568.04 L1315.36 1568.04 L1304.98 1554.04 L1294.6 1568.04 L1287.7 1568.04 L1301.54 1549.39 L1288.87 1532.4 L1295.78 1532.4 L1305.23 1545.1 L1314.69 1532.4 L1321.59 1532.4 Z" fill="#000000" fill-rule="nonzero" fill-opacity="1" /><polyline clip-path="url(#clip540)" style="stroke:#000000; stroke-linecap:round; stroke-linejoin:round; stroke-width:4; stroke-opacity:1; fill:none" points="257.204,1423.18 257.204,47.2441 "/>
<polyline clip-path="url(#clip540)" style="stroke:#000000; stroke-linecap:round; stroke-linejoin:round; stroke-width:4; stroke-opacity:1; fill:none" points="257.204,1399.96 276.102,1399.96 "/>
<polyline clip-path="url(#clip540)" style="stroke:#000000; stroke-linecap:round; stroke-linejoin:round; stroke-width:4; stroke-opacity:1; fill:none" points="257.204,1170.86 276.102,1170.86 "/>
<polyline clip-path="url(#clip540)" style="stroke:#000000; stroke-linecap:round; stroke-linejoin:round; stroke-width:4; stroke-opacity:1; fill:none" points="257.204,941.746 276.102,941.746 "/>
<polyline clip-path="url(#clip540)" style="stroke:#000000; stroke-linecap:round; stroke-linejoin:round; stroke-width:4; stroke-opacity:1; fill:none" points="257.204,712.636 276.102,712.636 "/>
<polyline clip-path="url(#clip540)" style="stroke:#000000; stroke-linecap:round; stroke-linejoin:round; stroke-width:4; stroke-opacity:1; fill:none" points="257.204,483.527 276.102,483.527 "/>
<polyline clip-path="url(#clip540)" style="stroke:#000000; stroke-linecap:round; stroke-linejoin:round; stroke-width:4; stroke-opacity:1; fill:none" points="257.204,254.417 276.102,254.417 "/>
<path clip-path="url(#clip540)" d="M115.256 1400.42 L144.931 1400.42 L144.931 1404.35 L115.256 1404.35 L115.256 1400.42 Z" fill="#000000" fill-rule="nonzero" fill-opacity="1" /><path clip-path="url(#clip540)" d="M155.834 1413.31 L163.473 1413.31 L163.473 1386.94 L155.163 1388.61 L155.163 1384.35 L163.427 1382.68 L168.102 1382.68 L168.102 1413.31 L175.741 1413.31 L175.741 1417.24 L155.834 1417.24 L155.834 1413.31 Z" fill="#000000" fill-rule="nonzero" fill-opacity="1" /><path clip-path="url(#clip540)" d="M185.186 1411.37 L190.07 1411.37 L190.07 1417.24 L185.186 1417.24 L185.186 1411.37 Z" fill="#000000" fill-rule="nonzero" fill-opacity="1" /><path clip-path="url(#clip540)" d="M200.301 1382.68 L218.658 1382.68 L218.658 1386.62 L204.584 1386.62 L204.584 1395.09 Q205.602 1394.75 206.621 1394.58 Q207.639 1394.4 208.658 1394.4 Q214.445 1394.4 217.824 1397.57 Q221.204 1400.74 221.204 1406.16 Q221.204 1411.74 217.732 1414.84 Q214.26 1417.92 207.94 1417.92 Q205.764 1417.92 203.496 1417.55 Q201.25 1417.18 198.843 1416.43 L198.843 1411.74 Q200.926 1412.87 203.149 1413.43 Q205.371 1413.98 207.848 1413.98 Q211.852 1413.98 214.19 1411.87 Q216.528 1409.77 216.528 1406.16 Q216.528 1402.55 214.19 1400.44 Q211.852 1398.33 207.848 1398.33 Q205.973 1398.33 204.098 1398.75 Q202.246 1399.17 200.301 1400.05 L200.301 1382.68 Z" fill="#000000" fill-rule="nonzero" fill-opacity="1" /><path clip-path="url(#clip540)" d="M114.26 1171.31 L143.936 1171.31 L143.936 1175.24 L114.26 1175.24 L114.26 1171.31 Z" fill="#000000" fill-rule="nonzero" fill-opacity="1" /><path clip-path="url(#clip540)" d="M154.839 1184.2 L162.477 1184.2 L162.477 1157.83 L154.167 1159.5 L154.167 1155.24 L162.431 1153.58 L167.107 1153.58 L167.107 1184.2 L174.746 1184.2 L174.746 1188.14 L154.839 1188.14 L154.839 1184.2 Z" fill="#000000" fill-rule="nonzero" fill-opacity="1" /><path clip-path="url(#clip540)" d="M184.19 1182.26 L189.075 1182.26 L189.075 1188.14 L184.19 1188.14 L184.19 1182.26 Z" fill="#000000" fill-rule="nonzero" fill-opacity="1" /><path clip-path="url(#clip540)" d="M209.26 1156.65 Q205.649 1156.65 203.82 1160.22 Q202.014 1163.76 202.014 1170.89 Q202.014 1178 203.82 1181.56 Q205.649 1185.1 209.26 1185.1 Q212.894 1185.1 214.699 1181.56 Q216.528 1178 216.528 1170.89 Q216.528 1163.76 214.699 1160.22 Q212.894 1156.65 209.26 1156.65 M209.26 1152.95 Q215.07 1152.95 218.125 1157.56 Q221.204 1162.14 221.204 1170.89 Q221.204 1179.62 218.125 1184.22 Q215.07 1188.81 209.26 1188.81 Q203.449 1188.81 200.371 1184.22 Q197.315 1179.62 197.315 1170.89 Q197.315 1162.14 200.371 1157.56 Q203.449 1152.95 209.26 1152.95 Z" fill="#000000" fill-rule="nonzero" fill-opacity="1" /><path clip-path="url(#clip540)" d="M115.256 942.197 L144.931 942.197 L144.931 946.132 L115.256 946.132 L115.256 942.197 Z" fill="#000000" fill-rule="nonzero" fill-opacity="1" /><path clip-path="url(#clip540)" d="M165.024 927.545 Q161.413 927.545 159.584 931.109 Q157.778 934.651 157.778 941.781 Q157.778 948.887 159.584 952.452 Q161.413 955.994 165.024 955.994 Q168.658 955.994 170.464 952.452 Q172.292 948.887 172.292 941.781 Q172.292 934.651 170.464 931.109 Q168.658 927.545 165.024 927.545 M165.024 923.841 Q170.834 923.841 173.889 928.447 Q176.968 933.031 176.968 941.781 Q176.968 950.507 173.889 955.114 Q170.834 959.697 165.024 959.697 Q159.214 959.697 156.135 955.114 Q153.079 950.507 153.079 941.781 Q153.079 933.031 156.135 928.447 Q159.214 923.841 165.024 923.841 Z" fill="#000000" fill-rule="nonzero" fill-opacity="1" /><path clip-path="url(#clip540)" d="M185.186 953.146 L190.07 953.146 L190.07 959.026 L185.186 959.026 L185.186 953.146 Z" fill="#000000" fill-rule="nonzero" fill-opacity="1" /><path clip-path="url(#clip540)" d="M200.301 924.466 L218.658 924.466 L218.658 928.401 L204.584 928.401 L204.584 936.873 Q205.602 936.526 206.621 936.364 Q207.639 936.179 208.658 936.179 Q214.445 936.179 217.824 939.35 Q221.204 942.521 221.204 947.938 Q221.204 953.517 217.732 956.619 Q214.26 959.697 207.94 959.697 Q205.764 959.697 203.496 959.327 Q201.25 958.956 198.843 958.216 L198.843 953.517 Q200.926 954.651 203.149 955.206 Q205.371 955.762 207.848 955.762 Q211.852 955.762 214.19 953.656 Q216.528 951.549 216.528 947.938 Q216.528 944.327 214.19 942.22 Q211.852 940.114 207.848 940.114 Q205.973 940.114 204.098 940.531 Q202.246 940.947 200.301 941.827 L200.301 924.466 Z" fill="#000000" fill-rule="nonzero" fill-opacity="1" /><path clip-path="url(#clip540)" d="M164.028 698.435 Q160.417 698.435 158.589 702 Q156.783 705.541 156.783 712.671 Q156.783 719.778 158.589 723.342 Q160.417 726.884 164.028 726.884 Q167.663 726.884 169.468 723.342 Q171.297 719.778 171.297 712.671 Q171.297 705.541 169.468 702 Q167.663 698.435 164.028 698.435 M164.028 694.731 Q169.839 694.731 172.894 699.338 Q175.973 703.921 175.973 712.671 Q175.973 721.398 172.894 726.004 Q169.839 730.588 164.028 730.588 Q158.218 730.588 155.14 726.004 Q152.084 721.398 152.084 712.671 Q152.084 703.921 155.14 699.338 Q158.218 694.731 164.028 694.731 Z" fill="#000000" fill-rule="nonzero" fill-opacity="1" /><path clip-path="url(#clip540)" d="M184.19 724.037 L189.075 724.037 L189.075 729.916 L184.19 729.916 L184.19 724.037 Z" fill="#000000" fill-rule="nonzero" fill-opacity="1" /><path clip-path="url(#clip540)" d="M209.26 698.435 Q205.649 698.435 203.82 702 Q202.014 705.541 202.014 712.671 Q202.014 719.778 203.82 723.342 Q205.649 726.884 209.26 726.884 Q212.894 726.884 214.699 723.342 Q216.528 719.778 216.528 712.671 Q216.528 705.541 214.699 702 Q212.894 698.435 209.26 698.435 M209.26 694.731 Q215.07 694.731 218.125 699.338 Q221.204 703.921 221.204 712.671 Q221.204 721.398 218.125 726.004 Q215.07 730.588 209.26 730.588 Q203.449 730.588 200.371 726.004 Q197.315 721.398 197.315 712.671 Q197.315 703.921 200.371 699.338 Q203.449 694.731 209.26 694.731 Z" fill="#000000" fill-rule="nonzero" fill-opacity="1" /><path clip-path="url(#clip540)" d="M165.024 469.326 Q161.413 469.326 159.584 472.89 Q157.778 476.432 157.778 483.562 Q157.778 490.668 159.584 494.233 Q161.413 497.774 165.024 497.774 Q168.658 497.774 170.464 494.233 Q172.292 490.668 172.292 483.562 Q172.292 476.432 170.464 472.89 Q168.658 469.326 165.024 469.326 M165.024 465.622 Q170.834 465.622 173.889 470.228 Q176.968 474.812 176.968 483.562 Q176.968 492.288 173.889 496.895 Q170.834 501.478 165.024 501.478 Q159.214 501.478 156.135 496.895 Q153.079 492.288 153.079 483.562 Q153.079 474.812 156.135 470.228 Q159.214 465.622 165.024 465.622 Z" fill="#000000" fill-rule="nonzero" fill-opacity="1" /><path clip-path="url(#clip540)" d="M185.186 494.927 L190.07 494.927 L190.07 500.807 L185.186 500.807 L185.186 494.927 Z" fill="#000000" fill-rule="nonzero" fill-opacity="1" /><path clip-path="url(#clip540)" d="M200.301 466.247 L218.658 466.247 L218.658 470.182 L204.584 470.182 L204.584 478.654 Q205.602 478.307 206.621 478.145 Q207.639 477.96 208.658 477.96 Q214.445 477.96 217.824 481.131 Q221.204 484.302 221.204 489.719 Q221.204 495.298 217.732 498.399 Q214.26 501.478 207.94 501.478 Q205.764 501.478 203.496 501.108 Q201.25 500.737 198.843 499.997 L198.843 495.298 Q200.926 496.432 203.149 496.987 Q205.371 497.543 207.848 497.543 Q211.852 497.543 214.19 495.436 Q216.528 493.33 216.528 489.719 Q216.528 486.108 214.19 484.001 Q211.852 481.895 207.848 481.895 Q205.973 481.895 204.098 482.312 Q202.246 482.728 200.301 483.608 L200.301 466.247 Z" fill="#000000" fill-rule="nonzero" fill-opacity="1" /><path clip-path="url(#clip540)" d="M154.839 267.762 L162.477 267.762 L162.477 241.397 L154.167 243.063 L154.167 238.804 L162.431 237.137 L167.107 237.137 L167.107 267.762 L174.746 267.762 L174.746 271.697 L154.839 271.697 L154.839 267.762 Z" fill="#000000" fill-rule="nonzero" fill-opacity="1" /><path clip-path="url(#clip540)" d="M184.19 265.818 L189.075 265.818 L189.075 271.697 L184.19 271.697 L184.19 265.818 Z" fill="#000000" fill-rule="nonzero" fill-opacity="1" /><path clip-path="url(#clip540)" d="M209.26 240.216 Q205.649 240.216 203.82 243.781 Q202.014 247.322 202.014 254.452 Q202.014 261.558 203.82 265.123 Q205.649 268.665 209.26 268.665 Q212.894 268.665 214.699 265.123 Q216.528 261.558 216.528 254.452 Q216.528 247.322 214.699 243.781 Q212.894 240.216 209.26 240.216 M209.26 236.512 Q215.07 236.512 218.125 241.119 Q221.204 245.702 221.204 254.452 Q221.204 263.179 218.125 267.785 Q215.07 272.369 209.26 272.369 Q203.449 272.369 200.371 267.785 Q197.315 263.179 197.315 254.452 Q197.315 245.702 200.371 241.119 Q203.449 236.512 209.26 236.512 Z" fill="#000000" fill-rule="nonzero" fill-opacity="1" /><path clip-path="url(#clip540)" d="M67.3143 733.525 Q73.68 736.008 75.6216 738.363 Q77.5631 740.718 77.5631 744.665 L77.5631 749.344 L72.6615 749.344 L72.6615 745.906 Q72.6615 743.487 71.5157 742.151 Q70.3699 740.814 66.1048 739.191 L63.4312 738.14 L28.3562 752.559 L28.3562 746.352 L56.238 735.212 L28.3562 724.072 L28.3562 717.865 L67.3143 733.525 Z" fill="#000000" fill-rule="nonzero" fill-opacity="1" /><polyline clip-path="url(#clip541)" style="stroke:#008000; stroke-linecap:round; stroke-linejoin:round; stroke-width:8; stroke-opacity:1; fill:none" points="316.512,712.636 326.446,717.261 336.381,721.812 346.315,726.127 356.25,730.044 366.184,733.415 376.118,736.106 386.053,738.006 395.987,739.031 405.921,739.123 415.856,738.259 425.79,736.448 435.724,733.734 445.659,730.194 455.593,725.935 465.527,721.094 475.462,715.831 485.396,710.325 495.33,704.767 505.265,699.356 515.199,694.29 525.133,689.76 535.068,685.942 545.002,682.992 554.937,681.039 564.871,680.179 574.805,680.472 584.74,681.941 594.674,684.564 604.608,688.281 614.543,692.988 624.477,698.546 634.411,704.781 644.346,711.488 654.28,718.442 664.214,725.4 674.149,732.114 684.083,738.335 694.017,743.823 703.952,748.358 713.886,751.746 723.82,753.827 733.755,754.481 743.689,753.634 753.624,751.263 763.558,747.397 773.492,742.12 783.427,735.567 793.361,727.923 803.295,719.419 813.23,710.323 823.164,700.937 833.098,691.583 843.033,682.596 852.967,674.312 862.901,667.059 872.836,661.14 882.77,656.829 892.704,654.354 902.639,653.895 912.573,655.568 922.507,659.422 932.442,665.437 942.376,673.516 952.311,683.49 962.245,695.115 972.179,708.08 982.114,722.011 992.048,736.48 1001.98,751.017 1011.92,765.119 1021.85,778.268 1031.79,789.939 1041.72,799.62 1051.65,806.826 1061.59,811.113 1071.52,812.091 1081.46,809.439 1091.39,802.915 1101.33,792.368 1111.26,777.739 1121.19,759.073 1131.13,736.518 1141.06,710.322 1151,680.835 1160.93,648.496 1170.87,613.832 1180.8,577.44 1190.73,539.976 1200.67,502.143 1210.6,464.67 1220.54,428.296 1230.47,393.753 1240.41,361.747 1250.34,332.941 1260.28,307.936 1270.21,287.262 1280.14,271.356 1290.08,260.559 1300.01,255.102 1309.95,255.102 1319.88,260.559 1329.82,271.356 1339.75,287.262 1349.68,307.936 1359.62,332.941 1369.55,361.747 1379.49,393.753 1389.42,428.296 1399.36,464.67 1409.29,502.143 1419.22,539.976 1429.16,577.44 1439.09,613.832 1449.03,648.496 1458.96,680.835 1468.9,710.322 1478.83,736.518 1488.77,759.073 1498.7,777.739 1508.63,792.368 1518.57,802.915 1528.5,809.439 1538.44,812.091 1548.37,811.113 1558.31,806.826 1568.24,799.62 1578.17,789.939 1588.11,778.268 1598.04,765.119 1607.98,751.017 1617.91,736.48 1627.85,722.011 1637.78,708.08 1647.72,695.115 1657.65,683.49 1667.58,673.516 1677.52,665.437 1687.45,659.422 1697.39,655.568 1707.32,653.895 1717.26,654.354 1727.19,656.829 1737.12,661.14 1747.06,667.059 1756.99,674.312 1766.93,682.596 1776.86,691.583 1786.8,700.937 1796.73,710.323 1806.66,719.419 1816.6,727.923 1826.53,735.567 1836.47,742.12 1846.4,747.397 1856.34,751.263 1866.27,753.634 1876.21,754.481 1886.14,753.827 1896.07,751.746 1906.01,748.358 1915.94,743.823 1925.88,738.335 1935.81,732.114 1945.75,725.4 1955.68,718.442 1965.61,711.488 1975.55,704.781 1985.48,698.546 1995.42,692.988 2005.35,688.281 2015.29,684.564 2025.22,681.941 2035.15,680.472 2045.09,680.179 2055.02,681.039 2064.96,682.992 2074.89,685.942 2084.83,689.76 2094.76,694.29 2104.7,699.356 2114.63,704.767 2124.56,710.325 2134.5,715.831 2144.43,721.094 2154.37,725.935 2164.3,730.194 2174.24,733.734 2184.17,736.448 2194.1,738.259 2204.04,739.123 2213.97,739.031 2223.91,738.006 2233.84,736.106 2243.78,733.415 2253.71,730.044 2263.64,726.127 2273.58,721.812 2283.51,717.261 2293.45,712.636 "/>
<polyline clip-path="url(#clip541)" style="stroke:#ff00ff; stroke-linecap:round; stroke-linejoin:round; stroke-width:8; stroke-opacity:1; fill:none" points="316.512,789.006 326.446,789.18 336.381,786.606 346.315,781.32 356.25,773.455 366.184,763.238 376.118,750.984 386.053,737.086 395.987,722.006 405.921,706.256 415.856,690.384 425.79,674.952 435.724,660.522 445.659,647.63 455.593,636.773 465.527,628.385 475.462,622.822 485.396,620.352 495.33,621.136 505.265,625.226 515.199,632.56 525.133,642.956 535.068,656.124 545.002,671.665 554.937,689.089 564.871,707.827 574.805,727.247 584.74,746.678 594.674,765.431 604.608,782.821 614.543,798.192 624.477,810.942 634.411,820.543 644.346,826.561 654.28,828.676 664.214,826.695 674.149,820.561 684.083,810.362 694.017,796.327 703.952,778.83 713.886,758.372 723.82,735.577 733.755,711.167 743.689,685.946 753.624,660.771 763.558,636.528 773.492,614.101 783.427,594.342 793.361,578.044 803.295,565.909 813.23,558.522 823.164,556.332 833.098,559.625 843.033,568.515 852.967,582.93 862.901,602.611 872.836,627.112 882.77,655.806 892.704,687.902 902.639,722.46 912.573,758.421 922.507,794.629 932.442,829.869 942.376,862.902 952.311,892.498 962.245,917.48 972.179,936.759 982.114,949.367 992.048,954.496 1001.98,951.524 1011.92,940.042 1021.85,919.868 1031.79,891.068 1041.72,853.955 1051.65,809.091 1061.59,757.277 1071.52,699.54 1081.46,637.107 1091.39,571.381 1101.33,503.9 1111.26,436.307 1121.19,370.297 1131.13,307.581 1141.06,249.835 1151,198.655 1160.93,155.514 1170.87,121.716 1180.8,98.3629 1190.73,86.3193 1200.67,86.1857 1210.6,98.2791 1220.54,122.621 1230.47,158.933 1240.41,206.64 1250.34,264.883 1260.28,332.539 1270.21,408.244 1280.14,490.435 1290.08,577.379 1300.01,667.225 1309.95,758.047 1319.88,847.893 1329.82,934.838 1339.75,1017.03 1349.68,1092.73 1359.62,1160.39 1369.55,1218.63 1379.49,1266.34 1389.42,1302.65 1399.36,1326.99 1409.29,1339.09 1419.22,1338.95 1429.16,1326.91 1439.09,1303.56 1449.03,1269.76 1458.96,1226.62 1468.9,1175.44 1478.83,1117.69 1488.77,1054.98 1498.7,988.966 1508.63,921.372 1518.57,853.892 1528.5,788.166 1538.44,725.733 1548.37,667.996 1558.31,616.182 1568.24,571.317 1578.17,534.204 1588.11,505.404 1598.04,485.231 1607.98,473.748 1617.91,470.777 1627.85,475.906 1637.78,488.514 1647.72,507.792 1657.65,532.775 1667.58,562.371 1677.52,595.404 1687.45,630.644 1697.39,666.852 1707.32,702.813 1717.26,737.371 1727.19,769.467 1737.12,798.161 1747.06,822.661 1756.99,842.343 1766.93,856.758 1776.86,865.648 1786.8,868.941 1796.73,866.75 1806.66,859.364 1816.6,847.229 1826.53,830.931 1836.47,811.172 1846.4,788.745 1856.34,764.502 1866.27,739.327 1876.21,714.105 1886.14,689.696 1896.07,666.9 1906.01,646.443 1915.94,628.945 1925.88,614.911 1935.81,604.712 1945.75,598.578 1955.68,596.597 1965.61,598.712 1975.55,604.73 1985.48,614.33 1995.42,627.08 2005.35,642.452 2015.29,659.842 2025.22,678.595 2035.15,698.026 2045.09,717.446 2055.02,736.184 2064.96,753.608 2074.89,769.149 2084.83,782.317 2094.76,792.713 2104.7,800.046 2114.63,804.137 2124.56,804.921 2134.5,802.45 2144.43,796.888 2154.37,788.5 2164.3,777.642 2174.24,764.751 2184.17,750.321 2194.1,734.889 2204.04,719.016 2213.97,703.266 2223.91,688.186 2233.84,674.289 2243.78,662.035 2253.71,651.817 2263.64,643.952 2273.58,638.667 2283.51,636.093 2293.45,636.267 "/>
<circle clip-path="url(#clip541)" cx="715.873" cy="770.303" r="14.4" fill="#3da44d" fill-rule="evenodd" fill-opacity="1" stroke="#000000" stroke-opacity="1" stroke-width="3.2"/>
<circle clip-path="url(#clip541)" cx="791.45" cy="715.939" r="14.4" fill="#3da44d" fill-rule="evenodd" fill-opacity="1" stroke="#000000" stroke-opacity="1" stroke-width="3.2"/>
<circle clip-path="url(#clip541)" cx="859.886" cy="654.421" r="14.4" fill="#3da44d" fill-rule="evenodd" fill-opacity="1" stroke="#000000" stroke-opacity="1" stroke-width="3.2"/>
<circle clip-path="url(#clip541)" cx="871.331" cy="651.51" r="14.4" fill="#3da44d" fill-rule="evenodd" fill-opacity="1" stroke="#000000" stroke-opacity="1" stroke-width="3.2"/>
<circle clip-path="url(#clip541)" cx="898.049" cy="652.606" r="14.4" fill="#3da44d" fill-rule="evenodd" fill-opacity="1" stroke="#000000" stroke-opacity="1" stroke-width="3.2"/>
<circle clip-path="url(#clip541)" cx="979.583" cy="711.784" r="14.4" fill="#3da44d" fill-rule="evenodd" fill-opacity="1" stroke="#000000" stroke-opacity="1" stroke-width="3.2"/>
<circle clip-path="url(#clip541)" cx="1070.53" cy="798.707" r="14.4" fill="#3da44d" fill-rule="evenodd" fill-opacity="1" stroke="#000000" stroke-opacity="1" stroke-width="3.2"/>
<circle clip-path="url(#clip541)" cx="1116.78" cy="806.671" r="14.4" fill="#3da44d" fill-rule="evenodd" fill-opacity="1" stroke="#000000" stroke-opacity="1" stroke-width="3.2"/>
<circle clip-path="url(#clip541)" cx="1227.28" cy="420.563" r="14.4" fill="#3da44d" fill-rule="evenodd" fill-opacity="1" stroke="#000000" stroke-opacity="1" stroke-width="3.2"/>
<circle clip-path="url(#clip541)" cx="1366.47" cy="359.323" r="14.4" fill="#3da44d" fill-rule="evenodd" fill-opacity="1" stroke="#000000" stroke-opacity="1" stroke-width="3.2"/>
<circle clip-path="url(#clip541)" cx="1411.1" cy="460.884" r="14.4" fill="#3da44d" fill-rule="evenodd" fill-opacity="1" stroke="#000000" stroke-opacity="1" stroke-width="3.2"/>
<circle clip-path="url(#clip541)" cx="1434.82" cy="614.143" r="14.4" fill="#3da44d" fill-rule="evenodd" fill-opacity="1" stroke="#000000" stroke-opacity="1" stroke-width="3.2"/>
<circle clip-path="url(#clip541)" cx="1472.81" cy="737.782" r="14.4" fill="#3da44d" fill-rule="evenodd" fill-opacity="1" stroke="#000000" stroke-opacity="1" stroke-width="3.2"/>
<circle clip-path="url(#clip541)" cx="1486.31" cy="786.308" r="14.4" fill="#3da44d" fill-rule="evenodd" fill-opacity="1" stroke="#000000" stroke-opacity="1" stroke-width="3.2"/>
<circle clip-path="url(#clip541)" cx="1493.93" cy="800.967" r="14.4" fill="#3da44d" fill-rule="evenodd" fill-opacity="1" stroke="#000000" stroke-opacity="1" stroke-width="3.2"/>
<circle clip-path="url(#clip541)" cx="1497.83" cy="748.748" r="14.4" fill="#3da44d" fill-rule="evenodd" fill-opacity="1" stroke="#000000" stroke-opacity="1" stroke-width="3.2"/>
<circle clip-path="url(#clip541)" cx="1574.87" cy="780.204" r="14.4" fill="#3da44d" fill-rule="evenodd" fill-opacity="1" stroke="#000000" stroke-opacity="1" stroke-width="3.2"/>
<circle clip-path="url(#clip541)" cx="1580.2" cy="810.321" r="14.4" fill="#3da44d" fill-rule="evenodd" fill-opacity="1" stroke="#000000" stroke-opacity="1" stroke-width="3.2"/>
<circle clip-path="url(#clip541)" cx="1620.4" cy="718.482" r="14.4" fill="#3da44d" fill-rule="evenodd" fill-opacity="1" stroke="#000000" stroke-opacity="1" stroke-width="3.2"/>
<circle clip-path="url(#clip541)" cx="1625.84" cy="720.635" r="14.4" fill="#3da44d" fill-rule="evenodd" fill-opacity="1" stroke="#000000" stroke-opacity="1" stroke-width="3.2"/>
<circle clip-path="url(#clip541)" cx="1663.97" cy="671.469" r="14.4" fill="#3da44d" fill-rule="evenodd" fill-opacity="1" stroke="#000000" stroke-opacity="1" stroke-width="3.2"/>
<circle clip-path="url(#clip541)" cx="1691.26" cy="687.165" r="14.4" fill="#3da44d" fill-rule="evenodd" fill-opacity="1" stroke="#000000" stroke-opacity="1" stroke-width="3.2"/>
<circle clip-path="url(#clip541)" cx="1696.25" cy="652.528" r="14.4" fill="#3da44d" fill-rule="evenodd" fill-opacity="1" stroke="#000000" stroke-opacity="1" stroke-width="3.2"/>
<circle clip-path="url(#clip541)" cx="1704.06" cy="662.114" r="14.4" fill="#3da44d" fill-rule="evenodd" fill-opacity="1" stroke="#000000" stroke-opacity="1" stroke-width="3.2"/>
<circle clip-path="url(#clip541)" cx="1705.6" cy="610.304" r="14.4" fill="#3da44d" fill-rule="evenodd" fill-opacity="1" stroke="#000000" stroke-opacity="1" stroke-width="3.2"/>
<circle clip-path="url(#clip541)" cx="1805.84" cy="716.554" r="14.4" fill="#3da44d" fill-rule="evenodd" fill-opacity="1" stroke="#000000" stroke-opacity="1" stroke-width="3.2"/>
<circle clip-path="url(#clip541)" cx="1847.1" cy="762.449" r="14.4" fill="#3da44d" fill-rule="evenodd" fill-opacity="1" stroke="#000000" stroke-opacity="1" stroke-width="3.2"/>
<circle clip-path="url(#clip541)" cx="1925.91" cy="721.284" r="14.4" fill="#3da44d" fill-rule="evenodd" fill-opacity="1" stroke="#000000" stroke-opacity="1" stroke-width="3.2"/>
<circle clip-path="url(#clip541)" cx="1952.69" cy="703.94" r="14.4" fill="#3da44d" fill-rule="evenodd" fill-opacity="1" stroke="#000000" stroke-opacity="1" stroke-width="3.2"/>
<circle clip-path="url(#clip541)" cx="1962.32" cy="712.012" r="14.4" fill="#3da44d" fill-rule="evenodd" fill-opacity="1" stroke="#000000" stroke-opacity="1" stroke-width="3.2"/>
<line clip-path="url(#clip541)" x1="715.873" y1="754.168" x2="715.873" y2="738.168" style="stroke:#c271d2; stroke-width:3.2; stroke-opacity:1"/>
<line clip-path="url(#clip541)" x1="715.873" y1="754.168" x2="699.873" y2="754.168" style="stroke:#c271d2; stroke-width:3.2; stroke-opacity:1"/>
<line clip-path="url(#clip541)" x1="715.873" y1="754.168" x2="715.873" y2="770.168" style="stroke:#c271d2; stroke-width:3.2; stroke-opacity:1"/>
<line clip-path="url(#clip541)" x1="715.873" y1="754.168" x2="731.873" y2="754.168" style="stroke:#c271d2; stroke-width:3.2; stroke-opacity:1"/>
<line clip-path="url(#clip541)" x1="791.45" y1="589.358" x2="791.45" y2="573.358" style="stroke:#c271d2; stroke-width:3.2; stroke-opacity:1"/>
<line clip-path="url(#clip541)" x1="791.45" y1="589.358" x2="775.45" y2="589.358" style="stroke:#c271d2; stroke-width:3.2; stroke-opacity:1"/>
<line clip-path="url(#clip541)" x1="791.45" y1="589.358" x2="791.45" y2="605.358" style="stroke:#c271d2; stroke-width:3.2; stroke-opacity:1"/>
<line clip-path="url(#clip541)" x1="791.45" y1="589.358" x2="807.45" y2="589.358" style="stroke:#c271d2; stroke-width:3.2; stroke-opacity:1"/>
<line clip-path="url(#clip541)" x1="859.886" y1="575.759" x2="859.886" y2="559.759" style="stroke:#c271d2; stroke-width:3.2; stroke-opacity:1"/>
<line clip-path="url(#clip541)" x1="859.886" y1="575.759" x2="843.886" y2="575.759" style="stroke:#c271d2; stroke-width:3.2; stroke-opacity:1"/>
<line clip-path="url(#clip541)" x1="859.886" y1="575.759" x2="859.886" y2="591.759" style="stroke:#c271d2; stroke-width:3.2; stroke-opacity:1"/>
<line clip-path="url(#clip541)" x1="859.886" y1="575.759" x2="875.886" y2="575.759" style="stroke:#c271d2; stroke-width:3.2; stroke-opacity:1"/>
<line clip-path="url(#clip541)" x1="871.331" y1="647.315" x2="871.331" y2="631.315" style="stroke:#c271d2; stroke-width:3.2; stroke-opacity:1"/>
<line clip-path="url(#clip541)" x1="871.331" y1="647.315" x2="855.331" y2="647.315" style="stroke:#c271d2; stroke-width:3.2; stroke-opacity:1"/>
<line clip-path="url(#clip541)" x1="871.331" y1="647.315" x2="871.331" y2="663.315" style="stroke:#c271d2; stroke-width:3.2; stroke-opacity:1"/>
<line clip-path="url(#clip541)" x1="871.331" y1="647.315" x2="887.331" y2="647.315" style="stroke:#c271d2; stroke-width:3.2; stroke-opacity:1"/>
<line clip-path="url(#clip541)" x1="898.049" y1="677.803" x2="898.049" y2="661.803" style="stroke:#c271d2; stroke-width:3.2; stroke-opacity:1"/>
<line clip-path="url(#clip541)" x1="898.049" y1="677.803" x2="882.049" y2="677.803" style="stroke:#c271d2; stroke-width:3.2; stroke-opacity:1"/>
<line clip-path="url(#clip541)" x1="898.049" y1="677.803" x2="898.049" y2="693.803" style="stroke:#c271d2; stroke-width:3.2; stroke-opacity:1"/>
<line clip-path="url(#clip541)" x1="898.049" y1="677.803" x2="914.049" y2="677.803" style="stroke:#c271d2; stroke-width:3.2; stroke-opacity:1"/>
<line clip-path="url(#clip541)" x1="979.583" y1="932.438" x2="979.583" y2="916.438" style="stroke:#c271d2; stroke-width:3.2; stroke-opacity:1"/>
<line clip-path="url(#clip541)" x1="979.583" y1="932.438" x2="963.583" y2="932.438" style="stroke:#c271d2; stroke-width:3.2; stroke-opacity:1"/>
<line clip-path="url(#clip541)" x1="979.583" y1="932.438" x2="979.583" y2="948.438" style="stroke:#c271d2; stroke-width:3.2; stroke-opacity:1"/>
<line clip-path="url(#clip541)" x1="979.583" y1="932.438" x2="995.583" y2="932.438" style="stroke:#c271d2; stroke-width:3.2; stroke-opacity:1"/>
<line clip-path="url(#clip541)" x1="1070.53" y1="678.94" x2="1070.53" y2="662.94" style="stroke:#c271d2; stroke-width:3.2; stroke-opacity:1"/>
<line clip-path="url(#clip541)" x1="1070.53" y1="678.94" x2="1054.53" y2="678.94" style="stroke:#c271d2; stroke-width:3.2; stroke-opacity:1"/>
<line clip-path="url(#clip541)" x1="1070.53" y1="678.94" x2="1070.53" y2="694.94" style="stroke:#c271d2; stroke-width:3.2; stroke-opacity:1"/>
<line clip-path="url(#clip541)" x1="1070.53" y1="678.94" x2="1086.53" y2="678.94" style="stroke:#c271d2; stroke-width:3.2; stroke-opacity:1"/>
<line clip-path="url(#clip541)" x1="1116.78" y1="418.798" x2="1116.78" y2="402.798" style="stroke:#c271d2; stroke-width:3.2; stroke-opacity:1"/>
<line clip-path="url(#clip541)" x1="1116.78" y1="418.798" x2="1100.78" y2="418.798" style="stroke:#c271d2; stroke-width:3.2; stroke-opacity:1"/>
<line clip-path="url(#clip541)" x1="1116.78" y1="418.798" x2="1116.78" y2="434.798" style="stroke:#c271d2; stroke-width:3.2; stroke-opacity:1"/>
<line clip-path="url(#clip541)" x1="1116.78" y1="418.798" x2="1132.78" y2="418.798" style="stroke:#c271d2; stroke-width:3.2; stroke-opacity:1"/>
<line clip-path="url(#clip541)" x1="1227.28" y1="155.796" x2="1227.28" y2="139.796" style="stroke:#c271d2; stroke-width:3.2; stroke-opacity:1"/>
<line clip-path="url(#clip541)" x1="1227.28" y1="155.796" x2="1211.28" y2="155.796" style="stroke:#c271d2; stroke-width:3.2; stroke-opacity:1"/>
<line clip-path="url(#clip541)" x1="1227.28" y1="155.796" x2="1227.28" y2="171.796" style="stroke:#c271d2; stroke-width:3.2; stroke-opacity:1"/>
<line clip-path="url(#clip541)" x1="1227.28" y1="155.796" x2="1243.28" y2="155.796" style="stroke:#c271d2; stroke-width:3.2; stroke-opacity:1"/>
<line clip-path="url(#clip541)" x1="1366.47" y1="1199.13" x2="1366.47" y2="1183.13" style="stroke:#c271d2; stroke-width:3.2; stroke-opacity:1"/>
<line clip-path="url(#clip541)" x1="1366.47" y1="1199.13" x2="1350.47" y2="1199.13" style="stroke:#c271d2; stroke-width:3.2; stroke-opacity:1"/>
<line clip-path="url(#clip541)" x1="1366.47" y1="1199.13" x2="1366.47" y2="1215.13" style="stroke:#c271d2; stroke-width:3.2; stroke-opacity:1"/>
<line clip-path="url(#clip541)" x1="1366.47" y1="1199.13" x2="1382.47" y2="1199.13" style="stroke:#c271d2; stroke-width:3.2; stroke-opacity:1"/>
<line clip-path="url(#clip541)" x1="1411.1" y1="1384.24" x2="1411.1" y2="1368.24" style="stroke:#c271d2; stroke-width:3.2; stroke-opacity:1"/>
<line clip-path="url(#clip541)" x1="1411.1" y1="1384.24" x2="1395.1" y2="1384.24" style="stroke:#c271d2; stroke-width:3.2; stroke-opacity:1"/>
<line clip-path="url(#clip541)" x1="1411.1" y1="1384.24" x2="1411.1" y2="1400.24" style="stroke:#c271d2; stroke-width:3.2; stroke-opacity:1"/>
<line clip-path="url(#clip541)" x1="1411.1" y1="1384.24" x2="1427.1" y2="1384.24" style="stroke:#c271d2; stroke-width:3.2; stroke-opacity:1"/>
<line clip-path="url(#clip541)" x1="1434.82" y1="1312.55" x2="1434.82" y2="1296.55" style="stroke:#c271d2; stroke-width:3.2; stroke-opacity:1"/>
<line clip-path="url(#clip541)" x1="1434.82" y1="1312.55" x2="1418.82" y2="1312.55" style="stroke:#c271d2; stroke-width:3.2; stroke-opacity:1"/>
<line clip-path="url(#clip541)" x1="1434.82" y1="1312.55" x2="1434.82" y2="1328.55" style="stroke:#c271d2; stroke-width:3.2; stroke-opacity:1"/>
<line clip-path="url(#clip541)" x1="1434.82" y1="1312.55" x2="1450.82" y2="1312.55" style="stroke:#c271d2; stroke-width:3.2; stroke-opacity:1"/>
<line clip-path="url(#clip541)" x1="1472.81" y1="1153.01" x2="1472.81" y2="1137.01" style="stroke:#c271d2; stroke-width:3.2; stroke-opacity:1"/>
<line clip-path="url(#clip541)" x1="1472.81" y1="1153.01" x2="1456.81" y2="1153.01" style="stroke:#c271d2; stroke-width:3.2; stroke-opacity:1"/>
<line clip-path="url(#clip541)" x1="1472.81" y1="1153.01" x2="1472.81" y2="1169.01" style="stroke:#c271d2; stroke-width:3.2; stroke-opacity:1"/>
<line clip-path="url(#clip541)" x1="1472.81" y1="1153.01" x2="1488.81" y2="1153.01" style="stroke:#c271d2; stroke-width:3.2; stroke-opacity:1"/>
<line clip-path="url(#clip541)" x1="1486.31" y1="1068.44" x2="1486.31" y2="1052.44" style="stroke:#c271d2; stroke-width:3.2; stroke-opacity:1"/>
<line clip-path="url(#clip541)" x1="1486.31" y1="1068.44" x2="1470.31" y2="1068.44" style="stroke:#c271d2; stroke-width:3.2; stroke-opacity:1"/>
<line clip-path="url(#clip541)" x1="1486.31" y1="1068.44" x2="1486.31" y2="1084.44" style="stroke:#c271d2; stroke-width:3.2; stroke-opacity:1"/>
<line clip-path="url(#clip541)" x1="1486.31" y1="1068.44" x2="1502.31" y2="1068.44" style="stroke:#c271d2; stroke-width:3.2; stroke-opacity:1"/>
<line clip-path="url(#clip541)" x1="1493.93" y1="988.079" x2="1493.93" y2="972.079" style="stroke:#c271d2; stroke-width:3.2; stroke-opacity:1"/>
<line clip-path="url(#clip541)" x1="1493.93" y1="988.079" x2="1477.93" y2="988.079" style="stroke:#c271d2; stroke-width:3.2; stroke-opacity:1"/>
<line clip-path="url(#clip541)" x1="1493.93" y1="988.079" x2="1493.93" y2="1004.08" style="stroke:#c271d2; stroke-width:3.2; stroke-opacity:1"/>
<line clip-path="url(#clip541)" x1="1493.93" y1="988.079" x2="1509.93" y2="988.079" style="stroke:#c271d2; stroke-width:3.2; stroke-opacity:1"/>
<line clip-path="url(#clip541)" x1="1497.83" y1="991.623" x2="1497.83" y2="975.623" style="stroke:#c271d2; stroke-width:3.2; stroke-opacity:1"/>
<line clip-path="url(#clip541)" x1="1497.83" y1="991.623" x2="1481.83" y2="991.623" style="stroke:#c271d2; stroke-width:3.2; stroke-opacity:1"/>
<line clip-path="url(#clip541)" x1="1497.83" y1="991.623" x2="1497.83" y2="1007.62" style="stroke:#c271d2; stroke-width:3.2; stroke-opacity:1"/>
<line clip-path="url(#clip541)" x1="1497.83" y1="991.623" x2="1513.83" y2="991.623" style="stroke:#c271d2; stroke-width:3.2; stroke-opacity:1"/>
<line clip-path="url(#clip541)" x1="1574.87" y1="515.986" x2="1574.87" y2="499.986" style="stroke:#c271d2; stroke-width:3.2; stroke-opacity:1"/>
<line clip-path="url(#clip541)" x1="1574.87" y1="515.986" x2="1558.87" y2="515.986" style="stroke:#c271d2; stroke-width:3.2; stroke-opacity:1"/>
<line clip-path="url(#clip541)" x1="1574.87" y1="515.986" x2="1574.87" y2="531.986" style="stroke:#c271d2; stroke-width:3.2; stroke-opacity:1"/>
<line clip-path="url(#clip541)" x1="1574.87" y1="515.986" x2="1590.87" y2="515.986" style="stroke:#c271d2; stroke-width:3.2; stroke-opacity:1"/>
<line clip-path="url(#clip541)" x1="1580.2" y1="548.99" x2="1580.2" y2="532.99" style="stroke:#c271d2; stroke-width:3.2; stroke-opacity:1"/>
<line clip-path="url(#clip541)" x1="1580.2" y1="548.99" x2="1564.2" y2="548.99" style="stroke:#c271d2; stroke-width:3.2; stroke-opacity:1"/>
<line clip-path="url(#clip541)" x1="1580.2" y1="548.99" x2="1580.2" y2="564.99" style="stroke:#c271d2; stroke-width:3.2; stroke-opacity:1"/>
<line clip-path="url(#clip541)" x1="1580.2" y1="548.99" x2="1596.2" y2="548.99" style="stroke:#c271d2; stroke-width:3.2; stroke-opacity:1"/>
<line clip-path="url(#clip541)" x1="1620.4" y1="446.66" x2="1620.4" y2="430.66" style="stroke:#c271d2; stroke-width:3.2; stroke-opacity:1"/>
<line clip-path="url(#clip541)" x1="1620.4" y1="446.66" x2="1604.4" y2="446.66" style="stroke:#c271d2; stroke-width:3.2; stroke-opacity:1"/>
<line clip-path="url(#clip541)" x1="1620.4" y1="446.66" x2="1620.4" y2="462.66" style="stroke:#c271d2; stroke-width:3.2; stroke-opacity:1"/>
<line clip-path="url(#clip541)" x1="1620.4" y1="446.66" x2="1636.4" y2="446.66" style="stroke:#c271d2; stroke-width:3.2; stroke-opacity:1"/>
<line clip-path="url(#clip541)" x1="1625.84" y1="515.451" x2="1625.84" y2="499.451" style="stroke:#c271d2; stroke-width:3.2; stroke-opacity:1"/>
<line clip-path="url(#clip541)" x1="1625.84" y1="515.451" x2="1609.84" y2="515.451" style="stroke:#c271d2; stroke-width:3.2; stroke-opacity:1"/>
<line clip-path="url(#clip541)" x1="1625.84" y1="515.451" x2="1625.84" y2="531.451" style="stroke:#c271d2; stroke-width:3.2; stroke-opacity:1"/>
<line clip-path="url(#clip541)" x1="1625.84" y1="515.451" x2="1641.84" y2="515.451" style="stroke:#c271d2; stroke-width:3.2; stroke-opacity:1"/>
<line clip-path="url(#clip541)" x1="1663.97" y1="569.971" x2="1663.97" y2="553.971" style="stroke:#c271d2; stroke-width:3.2; stroke-opacity:1"/>
<line clip-path="url(#clip541)" x1="1663.97" y1="569.971" x2="1647.97" y2="569.971" style="stroke:#c271d2; stroke-width:3.2; stroke-opacity:1"/>
<line clip-path="url(#clip541)" x1="1663.97" y1="569.971" x2="1663.97" y2="585.971" style="stroke:#c271d2; stroke-width:3.2; stroke-opacity:1"/>
<line clip-path="url(#clip541)" x1="1663.97" y1="569.971" x2="1679.97" y2="569.971" style="stroke:#c271d2; stroke-width:3.2; stroke-opacity:1"/>
<line clip-path="url(#clip541)" x1="1691.26" y1="649.443" x2="1691.26" y2="633.443" style="stroke:#c271d2; stroke-width:3.2; stroke-opacity:1"/>
<line clip-path="url(#clip541)" x1="1691.26" y1="649.443" x2="1675.26" y2="649.443" style="stroke:#c271d2; stroke-width:3.2; stroke-opacity:1"/>
<line clip-path="url(#clip541)" x1="1691.26" y1="649.443" x2="1691.26" y2="665.443" style="stroke:#c271d2; stroke-width:3.2; stroke-opacity:1"/>
<line clip-path="url(#clip541)" x1="1691.26" y1="649.443" x2="1707.26" y2="649.443" style="stroke:#c271d2; stroke-width:3.2; stroke-opacity:1"/>
<line clip-path="url(#clip541)" x1="1696.25" y1="648.008" x2="1696.25" y2="632.008" style="stroke:#c271d2; stroke-width:3.2; stroke-opacity:1"/>
<line clip-path="url(#clip541)" x1="1696.25" y1="648.008" x2="1680.25" y2="648.008" style="stroke:#c271d2; stroke-width:3.2; stroke-opacity:1"/>
<line clip-path="url(#clip541)" x1="1696.25" y1="648.008" x2="1696.25" y2="664.008" style="stroke:#c271d2; stroke-width:3.2; stroke-opacity:1"/>
<line clip-path="url(#clip541)" x1="1696.25" y1="648.008" x2="1712.25" y2="648.008" style="stroke:#c271d2; stroke-width:3.2; stroke-opacity:1"/>
<line clip-path="url(#clip541)" x1="1704.06" y1="727.004" x2="1704.06" y2="711.004" style="stroke:#c271d2; stroke-width:3.2; stroke-opacity:1"/>
<line clip-path="url(#clip541)" x1="1704.06" y1="727.004" x2="1688.06" y2="727.004" style="stroke:#c271d2; stroke-width:3.2; stroke-opacity:1"/>
<line clip-path="url(#clip541)" x1="1704.06" y1="727.004" x2="1704.06" y2="743.004" style="stroke:#c271d2; stroke-width:3.2; stroke-opacity:1"/>
<line clip-path="url(#clip541)" x1="1704.06" y1="727.004" x2="1720.06" y2="727.004" style="stroke:#c271d2; stroke-width:3.2; stroke-opacity:1"/>
<line clip-path="url(#clip541)" x1="1705.6" y1="730.723" x2="1705.6" y2="714.723" style="stroke:#c271d2; stroke-width:3.2; stroke-opacity:1"/>
<line clip-path="url(#clip541)" x1="1705.6" y1="730.723" x2="1689.6" y2="730.723" style="stroke:#c271d2; stroke-width:3.2; stroke-opacity:1"/>
<line clip-path="url(#clip541)" x1="1705.6" y1="730.723" x2="1705.6" y2="746.723" style="stroke:#c271d2; stroke-width:3.2; stroke-opacity:1"/>
<line clip-path="url(#clip541)" x1="1705.6" y1="730.723" x2="1721.6" y2="730.723" style="stroke:#c271d2; stroke-width:3.2; stroke-opacity:1"/>
<line clip-path="url(#clip541)" x1="1805.84" y1="870.468" x2="1805.84" y2="854.468" style="stroke:#c271d2; stroke-width:3.2; stroke-opacity:1"/>
<line clip-path="url(#clip541)" x1="1805.84" y1="870.468" x2="1789.84" y2="870.468" style="stroke:#c271d2; stroke-width:3.2; stroke-opacity:1"/>
<line clip-path="url(#clip541)" x1="1805.84" y1="870.468" x2="1805.84" y2="886.468" style="stroke:#c271d2; stroke-width:3.2; stroke-opacity:1"/>
<line clip-path="url(#clip541)" x1="1805.84" y1="870.468" x2="1821.84" y2="870.468" style="stroke:#c271d2; stroke-width:3.2; stroke-opacity:1"/>
<line clip-path="url(#clip541)" x1="1847.1" y1="808.554" x2="1847.1" y2="792.554" style="stroke:#c271d2; stroke-width:3.2; stroke-opacity:1"/>
<line clip-path="url(#clip541)" x1="1847.1" y1="808.554" x2="1831.1" y2="808.554" style="stroke:#c271d2; stroke-width:3.2; stroke-opacity:1"/>
<line clip-path="url(#clip541)" x1="1847.1" y1="808.554" x2="1847.1" y2="824.554" style="stroke:#c271d2; stroke-width:3.2; stroke-opacity:1"/>
<line clip-path="url(#clip541)" x1="1847.1" y1="808.554" x2="1863.1" y2="808.554" style="stroke:#c271d2; stroke-width:3.2; stroke-opacity:1"/>
<line clip-path="url(#clip541)" x1="1925.91" y1="628.376" x2="1925.91" y2="612.376" style="stroke:#c271d2; stroke-width:3.2; stroke-opacity:1"/>
<line clip-path="url(#clip541)" x1="1925.91" y1="628.376" x2="1909.91" y2="628.376" style="stroke:#c271d2; stroke-width:3.2; stroke-opacity:1"/>
<line clip-path="url(#clip541)" x1="1925.91" y1="628.376" x2="1925.91" y2="644.376" style="stroke:#c271d2; stroke-width:3.2; stroke-opacity:1"/>
<line clip-path="url(#clip541)" x1="1925.91" y1="628.376" x2="1941.91" y2="628.376" style="stroke:#c271d2; stroke-width:3.2; stroke-opacity:1"/>
<line clip-path="url(#clip541)" x1="1952.69" y1="560.739" x2="1952.69" y2="544.739" style="stroke:#c271d2; stroke-width:3.2; stroke-opacity:1"/>
<line clip-path="url(#clip541)" x1="1952.69" y1="560.739" x2="1936.69" y2="560.739" style="stroke:#c271d2; stroke-width:3.2; stroke-opacity:1"/>
<line clip-path="url(#clip541)" x1="1952.69" y1="560.739" x2="1952.69" y2="576.739" style="stroke:#c271d2; stroke-width:3.2; stroke-opacity:1"/>
<line clip-path="url(#clip541)" x1="1952.69" y1="560.739" x2="1968.69" y2="560.739" style="stroke:#c271d2; stroke-width:3.2; stroke-opacity:1"/>
<line clip-path="url(#clip541)" x1="1962.32" y1="602.82" x2="1962.32" y2="586.82" style="stroke:#c271d2; stroke-width:3.2; stroke-opacity:1"/>
<line clip-path="url(#clip541)" x1="1962.32" y1="602.82" x2="1946.32" y2="602.82" style="stroke:#c271d2; stroke-width:3.2; stroke-opacity:1"/>
<line clip-path="url(#clip541)" x1="1962.32" y1="602.82" x2="1962.32" y2="618.82" style="stroke:#c271d2; stroke-width:3.2; stroke-opacity:1"/>
<line clip-path="url(#clip541)" x1="1962.32" y1="602.82" x2="1978.32" y2="602.82" style="stroke:#c271d2; stroke-width:3.2; stroke-opacity:1"/>
<path clip-path="url(#clip540)" d="M1773.12 352.309 L2282.9 352.309 L2282.9 93.1086 L1773.12 93.1086  Z" fill="#ffffff" fill-rule="evenodd" fill-opacity="1"/>
<polyline clip-path="url(#clip540)" style="stroke:#000000; stroke-linecap:round; stroke-linejoin:round; stroke-width:4; stroke-opacity:1; fill:none" points="1773.12,352.309 2282.9,352.309 2282.9,93.1086 1773.12,93.1086 1773.12,352.309 "/>
<polyline clip-path="url(#clip540)" style="stroke:#008000; stroke-linecap:round; stroke-linejoin:round; stroke-width:8; stroke-opacity:1; fill:none" points="1796.4,144.949 1936.11,144.949 "/>
<path clip-path="url(#clip540)" d="M1959.39 127.669 L1988.63 127.669 L1988.63 131.604 L1976.36 131.604 L1976.36 162.229 L1971.66 162.229 L1971.66 131.604 L1959.39 131.604 L1959.39 127.669 Z" fill="#000000" fill-rule="nonzero" fill-opacity="1" /><path clip-path="url(#clip540)" d="M2001.01 140.284 Q2000.29 139.868 1999.44 139.682 Q1998.6 139.474 1997.58 139.474 Q1993.97 139.474 1992.03 141.835 Q1990.11 144.173 1990.11 148.571 L1990.11 162.229 L1985.83 162.229 L1985.83 136.303 L1990.11 136.303 L1990.11 140.331 Q1991.45 137.969 1993.6 136.835 Q1995.76 135.678 1998.83 135.678 Q1999.27 135.678 1999.81 135.747 Q2000.34 135.794 2000.99 135.909 L2001.01 140.284 Z" fill="#000000" fill-rule="nonzero" fill-opacity="1" /><path clip-path="url(#clip540)" d="M2005.04 151.997 L2005.04 136.303 L2009.3 136.303 L2009.3 151.835 Q2009.3 155.516 2010.73 157.368 Q2012.17 159.196 2015.04 159.196 Q2018.49 159.196 2020.48 156.997 Q2022.49 154.798 2022.49 151.002 L2022.49 136.303 L2026.75 136.303 L2026.75 162.229 L2022.49 162.229 L2022.49 158.247 Q2020.94 160.608 2018.88 161.766 Q2016.84 162.9 2014.14 162.9 Q2009.67 162.9 2007.35 160.122 Q2005.04 157.344 2005.04 151.997 M2015.76 135.678 L2015.76 135.678 Z" fill="#000000" fill-rule="nonzero" fill-opacity="1" /><path clip-path="url(#clip540)" d="M2057.7 148.201 L2057.7 150.284 L2038.12 150.284 Q2038.39 154.682 2040.76 156.997 Q2043.14 159.289 2047.38 159.289 Q2049.83 159.289 2052.12 158.687 Q2054.44 158.085 2056.7 156.881 L2056.7 160.909 Q2054.41 161.881 2052.01 162.391 Q2049.6 162.9 2047.12 162.9 Q2040.92 162.9 2037.28 159.289 Q2033.67 155.678 2033.67 149.52 Q2033.67 143.155 2037.1 139.428 Q2040.55 135.678 2046.38 135.678 Q2051.61 135.678 2054.64 139.057 Q2057.7 142.414 2057.7 148.201 M2053.44 146.951 Q2053.39 143.456 2051.47 141.372 Q2049.58 139.289 2046.43 139.289 Q2042.86 139.289 2040.71 141.303 Q2038.58 143.317 2038.26 146.974 L2053.44 146.951 Z" fill="#000000" fill-rule="nonzero" fill-opacity="1" /><path clip-path="url(#clip540)" d="M2096.29 137.067 L2096.29 141.094 Q2094.48 140.169 2092.54 139.706 Q2090.59 139.243 2088.51 139.243 Q2085.34 139.243 2083.74 140.215 Q2082.17 141.187 2082.17 143.131 Q2082.17 144.613 2083.3 145.469 Q2084.44 146.303 2087.86 147.067 L2089.32 147.391 Q2093.86 148.363 2095.76 150.145 Q2097.68 151.905 2097.68 155.076 Q2097.68 158.687 2094.81 160.793 Q2091.96 162.9 2086.96 162.9 Q2084.88 162.9 2082.61 162.483 Q2080.36 162.09 2077.86 161.28 L2077.86 156.881 Q2080.22 158.108 2082.51 158.733 Q2084.81 159.335 2087.05 159.335 Q2090.06 159.335 2091.68 158.317 Q2093.3 157.275 2093.3 155.4 Q2093.3 153.664 2092.12 152.738 Q2090.96 151.812 2087.01 150.956 L2085.52 150.608 Q2081.57 149.775 2079.81 148.062 Q2078.05 146.326 2078.05 143.317 Q2078.05 139.659 2080.64 137.669 Q2083.23 135.678 2088 135.678 Q2090.36 135.678 2092.45 136.025 Q2094.53 136.372 2096.29 137.067 Z" fill="#000000" fill-rule="nonzero" fill-opacity="1" /><path clip-path="url(#clip540)" d="M2104.46 136.303 L2108.72 136.303 L2108.72 162.229 L2104.46 162.229 L2104.46 136.303 M2104.46 126.21 L2108.72 126.21 L2108.72 131.604 L2104.46 131.604 L2104.46 126.21 Z" fill="#000000" fill-rule="nonzero" fill-opacity="1" /><path clip-path="url(#clip540)" d="M2139.18 146.581 L2139.18 162.229 L2134.92 162.229 L2134.92 146.719 Q2134.92 143.039 2133.49 141.21 Q2132.05 139.382 2129.18 139.382 Q2125.73 139.382 2123.74 141.581 Q2121.75 143.78 2121.75 147.576 L2121.75 162.229 L2117.47 162.229 L2117.47 136.303 L2121.75 136.303 L2121.75 140.331 Q2123.28 137.993 2125.34 136.835 Q2127.42 135.678 2130.13 135.678 Q2134.6 135.678 2136.89 138.456 Q2139.18 141.21 2139.18 146.581 Z" fill="#000000" fill-rule="nonzero" fill-opacity="1" /><path clip-path="url(#clip540)" d="M2166.33 137.298 L2166.33 141.28 Q2164.53 140.284 2162.7 139.798 Q2160.89 139.289 2159.04 139.289 Q2154.9 139.289 2152.61 141.928 Q2150.32 144.544 2150.32 149.289 Q2150.32 154.034 2152.61 156.673 Q2154.9 159.289 2159.04 159.289 Q2160.89 159.289 2162.7 158.803 Q2164.53 158.293 2166.33 157.298 L2166.33 161.233 Q2164.55 162.067 2162.63 162.483 Q2160.73 162.9 2158.58 162.9 Q2152.72 162.9 2149.27 159.219 Q2145.82 155.539 2145.82 149.289 Q2145.82 142.946 2149.3 139.312 Q2152.79 135.678 2158.86 135.678 Q2160.82 135.678 2162.7 136.095 Q2164.57 136.488 2166.33 137.298 Z" fill="#000000" fill-rule="nonzero" fill-opacity="1" /><path clip-path="url(#clip540)" d="M2183.97 126.257 Q2180.87 131.581 2179.37 136.789 Q2177.86 141.997 2177.86 147.344 Q2177.86 152.692 2179.37 157.946 Q2180.89 163.178 2183.97 168.479 L2180.27 168.479 Q2176.8 163.039 2175.06 157.784 Q2173.35 152.53 2173.35 147.344 Q2173.35 142.182 2175.06 136.951 Q2176.77 131.72 2180.27 126.257 L2183.97 126.257 Z" fill="#000000" fill-rule="nonzero" fill-opacity="1" /><path clip-path="url(#clip540)" d="M2213.79 136.303 L2204.41 148.919 L2214.27 162.229 L2209.25 162.229 L2201.7 152.043 L2194.16 162.229 L2189.13 162.229 L2199.2 148.664 L2189.99 136.303 L2195.01 136.303 L2201.89 145.539 L2208.76 136.303 L2213.79 136.303 Z" fill="#000000" fill-rule="nonzero" fill-opacity="1" /><path clip-path="url(#clip540)" d="M2219.62 126.257 L2223.32 126.257 Q2226.8 131.72 2228.51 136.951 Q2230.25 142.182 2230.25 147.344 Q2230.25 152.53 2228.51 157.784 Q2226.8 163.039 2223.32 168.479 L2219.62 168.479 Q2222.7 163.178 2224.2 157.946 Q2225.73 152.692 2225.73 147.344 Q2225.73 141.997 2224.2 136.789 Q2222.7 131.581 2219.62 126.257 Z" fill="#000000" fill-rule="nonzero" fill-opacity="1" /><polyline clip-path="url(#clip540)" style="stroke:#ff00ff; stroke-linecap:round; stroke-linejoin:round; stroke-width:8; stroke-opacity:1; fill:none" points="1796.4,196.789 1936.11,196.789 "/>
<path clip-path="url(#clip540)" d="M1959.39 179.509 L1988.63 179.509 L1988.63 183.444 L1976.36 183.444 L1976.36 214.069 L1971.66 214.069 L1971.66 183.444 L1959.39 183.444 L1959.39 179.509 Z" fill="#000000" fill-rule="nonzero" fill-opacity="1" /><path clip-path="url(#clip540)" d="M2001.01 192.124 Q2000.29 191.708 1999.44 191.522 Q1998.6 191.314 1997.58 191.314 Q1993.97 191.314 1992.03 193.675 Q1990.11 196.013 1990.11 200.411 L1990.11 214.069 L1985.83 214.069 L1985.83 188.143 L1990.11 188.143 L1990.11 192.171 Q1991.45 189.809 1993.6 188.675 Q1995.76 187.518 1998.83 187.518 Q1999.27 187.518 1999.81 187.587 Q2000.34 187.634 2000.99 187.749 L2001.01 192.124 Z" fill="#000000" fill-rule="nonzero" fill-opacity="1" /><path clip-path="url(#clip540)" d="M2005.04 203.837 L2005.04 188.143 L2009.3 188.143 L2009.3 203.675 Q2009.3 207.356 2010.73 209.208 Q2012.17 211.036 2015.04 211.036 Q2018.49 211.036 2020.48 208.837 Q2022.49 206.638 2022.49 202.842 L2022.49 188.143 L2026.75 188.143 L2026.75 214.069 L2022.49 214.069 L2022.49 210.087 Q2020.94 212.448 2018.88 213.606 Q2016.84 214.74 2014.14 214.74 Q2009.67 214.74 2007.35 211.962 Q2005.04 209.184 2005.04 203.837 M2015.76 187.518 L2015.76 187.518 Z" fill="#000000" fill-rule="nonzero" fill-opacity="1" /><path clip-path="url(#clip540)" d="M2057.7 200.041 L2057.7 202.124 L2038.12 202.124 Q2038.39 206.522 2040.76 208.837 Q2043.14 211.129 2047.38 211.129 Q2049.83 211.129 2052.12 210.527 Q2054.44 209.925 2056.7 208.721 L2056.7 212.749 Q2054.41 213.721 2052.01 214.231 Q2049.6 214.74 2047.12 214.74 Q2040.92 214.74 2037.28 211.129 Q2033.67 207.518 2033.67 201.36 Q2033.67 194.995 2037.1 191.268 Q2040.55 187.518 2046.38 187.518 Q2051.61 187.518 2054.64 190.897 Q2057.7 194.254 2057.7 200.041 M2053.44 198.791 Q2053.39 195.296 2051.47 193.212 Q2049.58 191.129 2046.43 191.129 Q2042.86 191.129 2040.71 193.143 Q2038.58 195.157 2038.26 198.814 L2053.44 198.791 Z" fill="#000000" fill-rule="nonzero" fill-opacity="1" /><path clip-path="url(#clip540)" d="M2098.42 189.138 L2098.42 193.12 Q2096.61 192.124 2094.78 191.638 Q2092.98 191.129 2091.13 191.129 Q2086.98 191.129 2084.69 193.768 Q2082.4 196.384 2082.4 201.129 Q2082.4 205.874 2084.69 208.513 Q2086.98 211.129 2091.13 211.129 Q2092.98 211.129 2094.78 210.643 Q2096.61 210.133 2098.42 209.138 L2098.42 213.073 Q2096.64 213.907 2094.71 214.323 Q2092.82 214.74 2090.66 214.74 Q2084.81 214.74 2081.36 211.059 Q2077.91 207.379 2077.91 201.129 Q2077.91 194.786 2081.38 191.152 Q2084.88 187.518 2090.94 187.518 Q2092.91 187.518 2094.78 187.935 Q2096.66 188.328 2098.42 189.138 Z" fill="#000000" fill-rule="nonzero" fill-opacity="1" /><path clip-path="url(#clip540)" d="M2115.87 191.129 Q2112.45 191.129 2110.45 193.814 Q2108.46 196.476 2108.46 201.129 Q2108.46 205.782 2110.43 208.467 Q2112.42 211.129 2115.87 211.129 Q2119.27 211.129 2121.26 208.444 Q2123.26 205.758 2123.26 201.129 Q2123.26 196.522 2121.26 193.837 Q2119.27 191.129 2115.87 191.129 M2115.87 187.518 Q2121.43 187.518 2124.6 191.129 Q2127.77 194.74 2127.77 201.129 Q2127.77 207.495 2124.6 211.129 Q2121.43 214.74 2115.87 214.74 Q2110.29 214.74 2107.12 211.129 Q2103.97 207.495 2103.97 201.129 Q2103.97 194.74 2107.12 191.129 Q2110.29 187.518 2115.87 187.518 Z" fill="#000000" fill-rule="nonzero" fill-opacity="1" /><path clip-path="url(#clip540)" d="M2151.36 188.907 L2151.36 192.934 Q2149.55 192.009 2147.61 191.546 Q2145.66 191.083 2143.58 191.083 Q2140.41 191.083 2138.81 192.055 Q2137.24 193.027 2137.24 194.971 Q2137.24 196.453 2138.37 197.309 Q2139.51 198.143 2142.93 198.907 L2144.39 199.231 Q2148.93 200.203 2150.82 201.985 Q2152.75 203.745 2152.75 206.916 Q2152.75 210.527 2149.88 212.633 Q2147.03 214.74 2142.03 214.74 Q2139.94 214.74 2137.68 214.323 Q2135.43 213.93 2132.93 213.12 L2132.93 208.721 Q2135.29 209.948 2137.58 210.573 Q2139.88 211.175 2142.12 211.175 Q2145.13 211.175 2146.75 210.157 Q2148.37 209.115 2148.37 207.24 Q2148.37 205.504 2147.19 204.578 Q2146.03 203.652 2142.07 202.796 L2140.59 202.448 Q2136.63 201.615 2134.88 199.902 Q2133.12 198.166 2133.12 195.157 Q2133.12 191.499 2135.71 189.509 Q2138.3 187.518 2143.07 187.518 Q2145.43 187.518 2147.51 187.865 Q2149.6 188.212 2151.36 188.907 Z" fill="#000000" fill-rule="nonzero" fill-opacity="1" /><path clip-path="url(#clip540)" d="M2178.19 189.138 L2178.19 193.12 Q2176.38 192.124 2174.55 191.638 Q2172.75 191.129 2170.89 191.129 Q2166.75 191.129 2164.46 193.768 Q2162.17 196.384 2162.17 201.129 Q2162.17 205.874 2164.46 208.513 Q2166.75 211.129 2170.89 211.129 Q2172.75 211.129 2174.55 210.643 Q2176.38 210.133 2178.19 209.138 L2178.19 213.073 Q2176.4 213.907 2174.48 214.323 Q2172.58 214.74 2170.43 214.74 Q2164.57 214.74 2161.13 211.059 Q2157.68 207.379 2157.68 201.129 Q2157.68 194.786 2161.15 191.152 Q2164.64 187.518 2170.71 187.518 Q2172.68 187.518 2174.55 187.935 Q2176.43 188.328 2178.19 189.138 Z" fill="#000000" fill-rule="nonzero" fill-opacity="1" /><path clip-path="url(#clip540)" d="M2195.82 178.097 Q2192.72 183.421 2191.22 188.629 Q2189.71 193.837 2189.71 199.184 Q2189.71 204.532 2191.22 209.786 Q2192.75 215.018 2195.82 220.319 L2192.12 220.319 Q2188.65 214.879 2186.91 209.624 Q2185.2 204.37 2185.2 199.184 Q2185.2 194.022 2186.91 188.791 Q2188.63 183.56 2192.12 178.097 L2195.82 178.097 Z" fill="#000000" fill-rule="nonzero" fill-opacity="1" /><path clip-path="url(#clip540)" d="M2225.64 188.143 L2216.26 200.759 L2226.13 214.069 L2221.1 214.069 L2213.56 203.883 L2206.01 214.069 L2200.99 214.069 L2211.06 200.504 L2201.84 188.143 L2206.87 188.143 L2213.74 197.379 L2220.62 188.143 L2225.64 188.143 Z" fill="#000000" fill-rule="nonzero" fill-opacity="1" /><path clip-path="url(#clip540)" d="M2231.47 178.097 L2235.18 178.097 Q2238.65 183.56 2240.36 188.791 Q2242.1 194.022 2242.1 199.184 Q2242.1 204.37 2240.36 209.624 Q2238.65 214.879 2235.18 220.319 L2231.47 220.319 Q2234.55 215.018 2236.06 209.786 Q2237.58 204.532 2237.58 199.184 Q2237.58 193.837 2236.06 188.629 Q2234.55 183.421 2231.47 178.097 Z" fill="#000000" fill-rule="nonzero" fill-opacity="1" /><circle clip-path="url(#clip540)" cx="1866.25" cy="248.629" r="20.48" fill="#3da44d" fill-rule="evenodd" fill-opacity="1" stroke="#000000" stroke-opacity="1" stroke-width="4.55111"/>
<path clip-path="url(#clip540)" d="M1972.58 265.909 L1959.39 231.349 L1964.27 231.349 L1975.22 260.446 L1986.2 231.349 L1991.06 231.349 L1977.89 265.909 L1972.58 265.909 Z" fill="#000000" fill-rule="nonzero" fill-opacity="1" /><path clip-path="url(#clip540)" d="M2004.02 252.876 Q1998.86 252.876 1996.87 254.057 Q1994.88 255.237 1994.88 258.085 Q1994.88 260.353 1996.36 261.696 Q1997.86 263.015 2000.43 263.015 Q2003.97 263.015 2006.1 260.515 Q2008.26 257.992 2008.26 253.825 L2008.26 252.876 L2004.02 252.876 M2012.52 251.117 L2012.52 265.909 L2008.26 265.909 L2008.26 261.973 Q2006.8 264.335 2004.62 265.469 Q2002.45 266.58 1999.3 266.58 Q1995.32 266.58 1992.96 264.358 Q1990.62 262.112 1990.62 258.362 Q1990.62 253.987 1993.53 251.765 Q1996.47 249.543 2002.28 249.543 L2008.26 249.543 L2008.26 249.126 Q2008.26 246.187 2006.31 244.589 Q2004.39 242.969 2000.89 242.969 Q1998.67 242.969 1996.57 243.501 Q1994.46 244.034 1992.52 245.099 L1992.52 241.163 Q1994.85 240.261 1997.05 239.821 Q1999.25 239.358 2001.33 239.358 Q2006.96 239.358 2009.74 242.274 Q2012.52 245.191 2012.52 251.117 Z" fill="#000000" fill-rule="nonzero" fill-opacity="1" /><path clip-path="url(#clip540)" d="M2021.29 229.89 L2025.55 229.89 L2025.55 265.909 L2021.29 265.909 L2021.29 229.89 Z" fill="#000000" fill-rule="nonzero" fill-opacity="1" /><path clip-path="url(#clip540)" d="M2034.02 255.677 L2034.02 239.983 L2038.28 239.983 L2038.28 255.515 Q2038.28 259.196 2039.71 261.048 Q2041.15 262.876 2044.02 262.876 Q2047.47 262.876 2049.46 260.677 Q2051.47 258.478 2051.47 254.682 L2051.47 239.983 L2055.73 239.983 L2055.73 265.909 L2051.47 265.909 L2051.47 261.927 Q2049.92 264.288 2047.86 265.446 Q2045.83 266.58 2043.12 266.58 Q2038.65 266.58 2036.33 263.802 Q2034.02 261.024 2034.02 255.677 M2044.74 239.358 L2044.74 239.358 Z" fill="#000000" fill-rule="nonzero" fill-opacity="1" /><path clip-path="url(#clip540)" d="M2086.68 251.881 L2086.68 253.964 L2067.1 253.964 Q2067.38 258.362 2069.74 260.677 Q2072.12 262.969 2076.36 262.969 Q2078.81 262.969 2081.1 262.367 Q2083.42 261.765 2085.69 260.561 L2085.69 264.589 Q2083.39 265.561 2080.99 266.071 Q2078.58 266.58 2076.1 266.58 Q2069.9 266.58 2066.26 262.969 Q2062.65 259.358 2062.65 253.2 Q2062.65 246.835 2066.08 243.108 Q2069.53 239.358 2075.36 239.358 Q2080.59 239.358 2083.63 242.737 Q2086.68 246.094 2086.68 251.881 M2082.42 250.631 Q2082.38 247.136 2080.45 245.052 Q2078.56 242.969 2075.41 242.969 Q2071.84 242.969 2069.69 244.983 Q2067.56 246.997 2067.24 250.654 L2082.42 250.631 Z" fill="#000000" fill-rule="nonzero" fill-opacity="1" /><path clip-path="url(#clip540)" d="M2118.79 242.969 Q2115.36 242.969 2113.37 245.654 Q2111.38 248.316 2111.38 252.969 Q2111.38 257.622 2113.35 260.307 Q2115.34 262.969 2118.79 262.969 Q2122.19 262.969 2124.18 260.284 Q2126.17 257.598 2126.17 252.969 Q2126.17 248.362 2124.18 245.677 Q2122.19 242.969 2118.79 242.969 M2118.79 239.358 Q2124.34 239.358 2127.51 242.969 Q2130.69 246.58 2130.69 252.969 Q2130.69 259.335 2127.51 262.969 Q2124.34 266.58 2118.79 266.58 Q2113.21 266.58 2110.04 262.969 Q2106.89 259.335 2106.89 252.969 Q2106.89 246.58 2110.04 242.969 Q2113.21 239.358 2118.79 239.358 Z" fill="#000000" fill-rule="nonzero" fill-opacity="1" /><path clip-path="url(#clip540)" d="M2156.36 252.969 Q2156.36 248.27 2154.41 245.608 Q2152.49 242.923 2149.11 242.923 Q2145.73 242.923 2143.79 245.608 Q2141.87 248.27 2141.87 252.969 Q2141.87 257.668 2143.79 260.353 Q2145.73 263.015 2149.11 263.015 Q2152.49 263.015 2154.41 260.353 Q2156.36 257.668 2156.36 252.969 M2141.87 243.918 Q2143.21 241.603 2145.25 240.492 Q2147.31 239.358 2150.15 239.358 Q2154.88 239.358 2157.82 243.108 Q2160.78 246.858 2160.78 252.969 Q2160.78 259.08 2157.82 262.83 Q2154.88 266.58 2150.15 266.58 Q2147.31 266.58 2145.25 265.469 Q2143.21 264.335 2141.87 262.02 L2141.87 265.909 L2137.58 265.909 L2137.58 229.89 L2141.87 229.89 L2141.87 243.918 Z" fill="#000000" fill-rule="nonzero" fill-opacity="1" /><path clip-path="url(#clip540)" d="M2184.37 240.747 L2184.37 244.774 Q2182.56 243.849 2180.62 243.386 Q2178.67 242.923 2176.59 242.923 Q2173.42 242.923 2171.82 243.895 Q2170.25 244.867 2170.25 246.811 Q2170.25 248.293 2171.38 249.149 Q2172.51 249.983 2175.94 250.747 L2177.4 251.071 Q2181.94 252.043 2183.83 253.825 Q2185.75 255.585 2185.75 258.756 Q2185.75 262.367 2182.88 264.473 Q2180.04 266.58 2175.04 266.58 Q2172.95 266.58 2170.69 266.163 Q2168.44 265.77 2165.94 264.96 L2165.94 260.561 Q2168.3 261.788 2170.59 262.413 Q2172.88 263.015 2175.13 263.015 Q2178.14 263.015 2179.76 261.997 Q2181.38 260.955 2181.38 259.08 Q2181.38 257.344 2180.2 256.418 Q2179.04 255.492 2175.08 254.636 L2173.6 254.288 Q2169.64 253.455 2167.88 251.742 Q2166.13 250.006 2166.13 246.997 Q2166.13 243.339 2168.72 241.349 Q2171.31 239.358 2176.08 239.358 Q2178.44 239.358 2180.52 239.705 Q2182.61 240.052 2184.37 240.747 Z" fill="#000000" fill-rule="nonzero" fill-opacity="1" /><line clip-path="url(#clip540)" x1="1866.25" y1="300.469" x2="1866.25" y2="277.713" style="stroke:#c271d2; stroke-width:4.55111; stroke-opacity:1"/>
<line clip-path="url(#clip540)" x1="1866.25" y1="300.469" x2="1843.5" y2="300.469" style="stroke:#c271d2; stroke-width:4.55111; stroke-opacity:1"/>
<line clip-path="url(#clip540)" x1="1866.25" y1="300.469" x2="1866.25" y2="323.224" style="stroke:#c271d2; stroke-width:4.55111; stroke-opacity:1"/>
<line clip-path="url(#clip540)" x1="1866.25" y1="300.469" x2="1889.01" y2="300.469" style="stroke:#c271d2; stroke-width:4.55111; stroke-opacity:1"/>
<path clip-path="url(#clip540)" d="M1984.95 312.818 L1984.95 303.536 L1977.31 303.536 L1977.31 299.693 L1989.58 299.693 L1989.58 314.531 Q1986.87 316.452 1983.6 317.448 Q1980.34 318.42 1976.64 318.42 Q1968.53 318.42 1963.95 313.698 Q1959.39 308.952 1959.39 300.503 Q1959.39 292.031 1963.95 287.309 Q1968.53 282.564 1976.64 282.564 Q1980.02 282.564 1983.05 283.397 Q1986.1 284.23 1988.67 285.851 L1988.67 290.827 Q1986.08 288.628 1983.16 287.517 Q1980.25 286.406 1977.03 286.406 Q1970.69 286.406 1967.49 289.948 Q1964.32 293.489 1964.32 300.503 Q1964.32 307.494 1967.49 311.036 Q1970.69 314.577 1977.03 314.577 Q1979.51 314.577 1981.45 314.161 Q1983.39 313.721 1984.95 312.818 Z" fill="#000000" fill-rule="nonzero" fill-opacity="1" /><path clip-path="url(#clip540)" d="M2012.95 295.804 Q2012.24 295.388 2011.38 295.202 Q2010.55 294.994 2009.53 294.994 Q2005.92 294.994 2003.97 297.355 Q2002.05 299.693 2002.05 304.091 L2002.05 317.749 L1997.77 317.749 L1997.77 291.823 L2002.05 291.823 L2002.05 295.851 Q2003.39 293.489 2005.55 292.355 Q2007.7 291.198 2010.78 291.198 Q2011.22 291.198 2011.75 291.267 Q2012.28 291.314 2012.93 291.429 L2012.95 295.804 Z" fill="#000000" fill-rule="nonzero" fill-opacity="1" /><path clip-path="url(#clip540)" d="M2029.2 304.716 Q2024.04 304.716 2022.05 305.897 Q2020.06 307.077 2020.06 309.925 Q2020.06 312.193 2021.54 313.536 Q2023.05 314.855 2025.62 314.855 Q2029.16 314.855 2031.29 312.355 Q2033.44 309.832 2033.44 305.665 L2033.44 304.716 L2029.2 304.716 M2037.7 302.957 L2037.7 317.749 L2033.44 317.749 L2033.44 313.813 Q2031.98 316.175 2029.81 317.309 Q2027.63 318.42 2024.48 318.42 Q2020.5 318.42 2018.14 316.198 Q2015.8 313.952 2015.8 310.202 Q2015.8 305.827 2018.72 303.605 Q2021.66 301.383 2027.47 301.383 L2033.44 301.383 L2033.44 300.966 Q2033.44 298.027 2031.5 296.429 Q2029.58 294.809 2026.08 294.809 Q2023.86 294.809 2021.75 295.341 Q2019.64 295.874 2017.7 296.939 L2017.7 293.003 Q2020.04 292.101 2022.24 291.661 Q2024.44 291.198 2026.52 291.198 Q2032.14 291.198 2034.92 294.114 Q2037.7 297.031 2037.7 302.957 Z" fill="#000000" fill-rule="nonzero" fill-opacity="1" /><path clip-path="url(#clip540)" d="M2063.53 295.758 L2063.53 281.73 L2067.79 281.73 L2067.79 317.749 L2063.53 317.749 L2063.53 313.86 Q2062.19 316.175 2060.13 317.309 Q2058.09 318.42 2055.22 318.42 Q2050.52 318.42 2047.56 314.67 Q2044.62 310.92 2044.62 304.809 Q2044.62 298.698 2047.56 294.948 Q2050.52 291.198 2055.22 291.198 Q2058.09 291.198 2060.13 292.332 Q2062.19 293.443 2063.53 295.758 M2049.02 304.809 Q2049.02 309.508 2050.94 312.193 Q2052.89 314.855 2056.26 314.855 Q2059.64 314.855 2061.59 312.193 Q2063.53 309.508 2063.53 304.809 Q2063.53 300.11 2061.59 297.448 Q2059.64 294.763 2056.26 294.763 Q2052.89 294.763 2050.94 297.448 Q2049.02 300.11 2049.02 304.809 Z" fill="#000000" fill-rule="nonzero" fill-opacity="1" /><path clip-path="url(#clip540)" d="M2076.57 291.823 L2080.82 291.823 L2080.82 317.749 L2076.57 317.749 L2076.57 291.823 M2076.57 281.73 L2080.82 281.73 L2080.82 287.124 L2076.57 287.124 L2076.57 281.73 Z" fill="#000000" fill-rule="nonzero" fill-opacity="1" /><path clip-path="url(#clip540)" d="M2111.91 303.721 L2111.91 305.804 L2092.33 305.804 Q2092.61 310.202 2094.97 312.517 Q2097.35 314.809 2101.59 314.809 Q2104.04 314.809 2106.33 314.207 Q2108.65 313.605 2110.92 312.401 L2110.92 316.429 Q2108.63 317.401 2106.22 317.911 Q2103.81 318.42 2101.33 318.42 Q2095.13 318.42 2091.5 314.809 Q2087.89 311.198 2087.89 305.04 Q2087.89 298.675 2091.31 294.948 Q2094.76 291.198 2100.59 291.198 Q2105.82 291.198 2108.86 294.577 Q2111.91 297.934 2111.91 303.721 M2107.65 302.471 Q2107.61 298.976 2105.69 296.892 Q2103.79 294.809 2100.64 294.809 Q2097.07 294.809 2094.92 296.823 Q2092.79 298.837 2092.47 302.494 L2107.65 302.471 Z" fill="#000000" fill-rule="nonzero" fill-opacity="1" /><path clip-path="url(#clip540)" d="M2140.45 302.101 L2140.45 317.749 L2136.2 317.749 L2136.2 302.239 Q2136.2 298.559 2134.76 296.73 Q2133.32 294.902 2130.45 294.902 Q2127.01 294.902 2125.01 297.101 Q2123.02 299.3 2123.02 303.096 L2123.02 317.749 L2118.74 317.749 L2118.74 291.823 L2123.02 291.823 L2123.02 295.851 Q2124.55 293.513 2126.61 292.355 Q2128.7 291.198 2131.4 291.198 Q2135.87 291.198 2138.16 293.976 Q2140.45 296.73 2140.45 302.101 Z" fill="#000000" fill-rule="nonzero" fill-opacity="1" /><path clip-path="url(#clip540)" d="M2153.16 284.462 L2153.16 291.823 L2161.94 291.823 L2161.94 295.133 L2153.16 295.133 L2153.16 309.207 Q2153.16 312.378 2154.02 313.281 Q2154.9 314.184 2157.56 314.184 L2161.94 314.184 L2161.94 317.749 L2157.56 317.749 Q2152.63 317.749 2150.76 315.92 Q2148.88 314.068 2148.88 309.207 L2148.88 295.133 L2145.76 295.133 L2145.76 291.823 L2148.88 291.823 L2148.88 284.462 L2153.16 284.462 Z" fill="#000000" fill-rule="nonzero" fill-opacity="1" /><path clip-path="url(#clip540)" d="M2192.65 294.809 Q2189.23 294.809 2187.24 297.494 Q2185.25 300.156 2185.25 304.809 Q2185.25 309.462 2187.21 312.147 Q2189.2 314.809 2192.65 314.809 Q2196.06 314.809 2198.05 312.124 Q2200.04 309.438 2200.04 304.809 Q2200.04 300.202 2198.05 297.517 Q2196.06 294.809 2192.65 294.809 M2192.65 291.198 Q2198.21 291.198 2201.38 294.809 Q2204.55 298.42 2204.55 304.809 Q2204.55 311.175 2201.38 314.809 Q2198.21 318.42 2192.65 318.42 Q2187.07 318.42 2183.9 314.809 Q2180.75 311.175 2180.75 304.809 Q2180.75 298.42 2183.9 294.809 Q2187.07 291.198 2192.65 291.198 Z" fill="#000000" fill-rule="nonzero" fill-opacity="1" /><path clip-path="url(#clip540)" d="M2230.22 304.809 Q2230.22 300.11 2228.28 297.448 Q2226.36 294.763 2222.98 294.763 Q2219.6 294.763 2217.65 297.448 Q2215.73 300.11 2215.73 304.809 Q2215.73 309.508 2217.65 312.193 Q2219.6 314.855 2222.98 314.855 Q2226.36 314.855 2228.28 312.193 Q2230.22 309.508 2230.22 304.809 M2215.73 295.758 Q2217.07 293.443 2219.11 292.332 Q2221.17 291.198 2224.02 291.198 Q2228.74 291.198 2231.68 294.948 Q2234.64 298.698 2234.64 304.809 Q2234.64 310.92 2231.68 314.67 Q2228.74 318.42 2224.02 318.42 Q2221.17 318.42 2219.11 317.309 Q2217.07 316.175 2215.73 313.86 L2215.73 317.749 L2211.45 317.749 L2211.45 281.73 L2215.73 281.73 L2215.73 295.758 Z" fill="#000000" fill-rule="nonzero" fill-opacity="1" /><path clip-path="url(#clip540)" d="M2258.23 292.587 L2258.23 296.614 Q2256.43 295.689 2254.48 295.226 Q2252.54 294.763 2250.45 294.763 Q2247.28 294.763 2245.69 295.735 Q2244.11 296.707 2244.11 298.651 Q2244.11 300.133 2245.25 300.989 Q2246.38 301.823 2249.81 302.587 L2251.26 302.911 Q2255.8 303.883 2257.7 305.665 Q2259.62 307.425 2259.62 310.596 Q2259.62 314.207 2256.75 316.313 Q2253.9 318.42 2248.9 318.42 Q2246.82 318.42 2244.55 318.003 Q2242.31 317.61 2239.81 316.8 L2239.81 312.401 Q2242.17 313.628 2244.46 314.253 Q2246.75 314.855 2249 314.855 Q2252 314.855 2253.62 313.837 Q2255.25 312.795 2255.25 310.92 Q2255.25 309.184 2254.06 308.258 Q2252.91 307.332 2248.95 306.476 L2247.47 306.128 Q2243.51 305.295 2241.75 303.582 Q2239.99 301.846 2239.99 298.837 Q2239.99 295.179 2242.58 293.189 Q2245.18 291.198 2249.94 291.198 Q2252.31 291.198 2254.39 291.545 Q2256.47 291.892 2258.23 292.587 Z" fill="#000000" fill-rule="nonzero" fill-opacity="1" /></svg>
