<?xml version="1.0" encoding="utf-8"?>
<svg xmlns="http://www.w3.org/2000/svg" xmlns:xlink="http://www.w3.org/1999/xlink" width="600" height="400" viewBox="0 0 2400 1600">
<defs>
  <clipPath id="clip510">
    <rect x="0" y="0" width="2400" height="1600"/>
  </clipPath>
</defs>
<path clip-path="url(#clip510)" d="M0 1600 L2400 1600 L2400 8.88178e-14 L0 8.88178e-14  Z" fill="#ffffff" fill-rule="evenodd" fill-opacity="1"/>
<defs>
  <clipPath id="clip511">
    <rect x="205" y="47" width="2149" height="1377"/>
  </clipPath>
</defs>
<path clip-path="url(#clip510)" d="M219.866 1423.18 L2352.76 1423.18 L2352.76 123.472 L219.866 123.472  Z" fill="#ffffff" fill-rule="evenodd" fill-opacity="1"/>
<defs>
  <clipPath id="clip512">
    <rect x="219" y="123" width="2134" height="1301"/>
  </clipPath>
</defs>
<polyline clip-path="url(#clip512)" style="stroke:#000000; stroke-linecap:round; stroke-linejoin:round; stroke-width:2; stroke-opacity:0.1; fill:none" points="703.844,1423.18 703.844,123.472 "/>
<polyline clip-path="url(#clip512)" style="stroke:#000000; stroke-linecap:round; stroke-linejoin:round; stroke-width:2; stroke-opacity:0.1; fill:none" points="1233.36,1423.18 1233.36,123.472 "/>
<polyline clip-path="url(#clip512)" style="stroke:#000000; stroke-linecap:round; stroke-linejoin:round; stroke-width:2; stroke-opacity:0.1; fill:none" points="1762.88,1423.18 1762.88,123.472 "/>
<polyline clip-path="url(#clip512)" style="stroke:#000000; stroke-linecap:round; stroke-linejoin:round; stroke-width:2; stroke-opacity:0.1; fill:none" points="2292.39,1423.18 2292.39,123.472 "/>
<polyline clip-path="url(#clip512)" style="stroke:#000000; stroke-linecap:round; stroke-linejoin:round; stroke-width:2; stroke-opacity:0.1; fill:none" points="219.866,1242.68 2352.76,1242.68 "/>
<polyline clip-path="url(#clip512)" style="stroke:#000000; stroke-linecap:round; stroke-linejoin:round; stroke-width:2; stroke-opacity:0.1; fill:none" points="219.866,1003.37 2352.76,1003.37 "/>
<polyline clip-path="url(#clip512)" style="stroke:#000000; stroke-linecap:round; stroke-linejoin:round; stroke-width:2; stroke-opacity:0.1; fill:none" points="219.866,764.062 2352.76,764.062 "/>
<polyline clip-path="url(#clip512)" style="stroke:#000000; stroke-linecap:round; stroke-linejoin:round; stroke-width:2; stroke-opacity:0.1; fill:none" points="219.866,524.755 2352.76,524.755 "/>
<polyline clip-path="url(#clip512)" style="stroke:#000000; stroke-linecap:round; stroke-linejoin:round; stroke-width:2; stroke-opacity:0.1; fill:none" points="219.866,285.447 2352.76,285.447 "/>
<polyline clip-path="url(#clip510)" style="stroke:#000000; stroke-linecap:round; stroke-linejoin:round; stroke-width:4; stroke-opacity:1; fill:none" points="219.866,1423.18 2352.76,1423.18 "/>
<polyline clip-path="url(#clip510)" style="stroke:#000000; stroke-linecap:round; stroke-linejoin:round; stroke-width:4; stroke-opacity:1; fill:none" points="703.844,1423.18 703.844,1404.28 "/>
<polyline clip-path="url(#clip510)" style="stroke:#000000; stroke-linecap:round; stroke-linejoin:round; stroke-width:4; stroke-opacity:1; fill:none" points="1233.36,1423.18 1233.36,1404.28 "/>
<polyline clip-path="url(#clip510)" style="stroke:#000000; stroke-linecap:round; stroke-linejoin:round; stroke-width:4; stroke-opacity:1; fill:none" points="1762.88,1423.18 1762.88,1404.28 "/>
<polyline clip-path="url(#clip510)" style="stroke:#000000; stroke-linecap:round; stroke-linejoin:round; stroke-width:4; stroke-opacity:1; fill:none" points="2292.39,1423.18 2292.39,1404.28 "/>
<path clip-path="url(#clip510)" d="M694.122 1451.02 L712.478 1451.02 L712.478 1454.96 L698.404 1454.96 L698.404 1463.43 Q699.422 1463.08 700.441 1462.92 Q701.459 1462.73 702.478 1462.73 Q708.265 1462.73 711.645 1465.9 Q715.024 1469.08 715.024 1474.49 Q715.024 1480.07 711.552 1483.17 Q708.08 1486.25 701.76 1486.25 Q699.584 1486.25 697.316 1485.88 Q695.071 1485.51 692.663 1484.77 L692.663 1480.07 Q694.747 1481.2 696.969 1481.76 Q699.191 1482.32 701.668 1482.32 Q705.672 1482.32 708.01 1480.21 Q710.348 1478.1 710.348 1474.49 Q710.348 1470.88 708.01 1468.77 Q705.672 1466.67 701.668 1466.67 Q699.793 1466.67 697.918 1467.08 Q696.066 1467.5 694.122 1468.38 L694.122 1451.02 Z" fill="#000000" fill-rule="nonzero" fill-opacity="1" /><path clip-path="url(#clip510)" d="M1208.05 1481.64 L1215.69 1481.64 L1215.69 1455.28 L1207.38 1456.95 L1207.38 1452.69 L1215.64 1451.02 L1220.32 1451.02 L1220.32 1481.64 L1227.95 1481.64 L1227.95 1485.58 L1208.05 1485.58 L1208.05 1481.64 Z" fill="#000000" fill-rule="nonzero" fill-opacity="1" /><path clip-path="url(#clip510)" d="M1247.4 1454.1 Q1243.79 1454.1 1241.96 1457.66 Q1240.15 1461.2 1240.15 1468.33 Q1240.15 1475.44 1241.96 1479.01 Q1243.79 1482.55 1247.4 1482.55 Q1251.03 1482.55 1252.84 1479.01 Q1254.67 1475.44 1254.67 1468.33 Q1254.67 1461.2 1252.84 1457.66 Q1251.03 1454.1 1247.4 1454.1 M1247.4 1450.39 Q1253.21 1450.39 1256.26 1455 Q1259.34 1459.58 1259.34 1468.33 Q1259.34 1477.06 1256.26 1481.67 Q1253.21 1486.25 1247.4 1486.25 Q1241.59 1486.25 1238.51 1481.67 Q1235.45 1477.06 1235.45 1468.33 Q1235.45 1459.58 1238.51 1455 Q1241.59 1450.39 1247.4 1450.39 Z" fill="#000000" fill-rule="nonzero" fill-opacity="1" /><path clip-path="url(#clip510)" d="M1738.06 1481.64 L1745.7 1481.64 L1745.7 1455.28 L1737.39 1456.95 L1737.39 1452.69 L1745.65 1451.02 L1750.33 1451.02 L1750.33 1481.64 L1757.97 1481.64 L1757.97 1485.58 L1738.06 1485.58 L1738.06 1481.64 Z" fill="#000000" fill-rule="nonzero" fill-opacity="1" /><path clip-path="url(#clip510)" d="M1767.46 1451.02 L1785.81 1451.02 L1785.81 1454.96 L1771.74 1454.96 L1771.74 1463.43 Q1772.76 1463.08 1773.78 1462.92 Q1774.8 1462.73 1775.82 1462.73 Q1781.6 1462.73 1784.98 1465.9 Q1788.36 1469.08 1788.36 1474.49 Q1788.36 1480.07 1784.89 1483.17 Q1781.42 1486.25 1775.1 1486.25 Q1772.92 1486.25 1770.65 1485.88 Q1768.41 1485.51 1766 1484.77 L1766 1480.07 Q1768.08 1481.2 1770.31 1481.76 Q1772.53 1482.32 1775 1482.32 Q1779.01 1482.32 1781.35 1480.21 Q1783.69 1478.1 1783.69 1474.49 Q1783.69 1470.88 1781.35 1468.77 Q1779.01 1466.67 1775 1466.67 Q1773.13 1466.67 1771.25 1467.08 Q1769.4 1467.5 1767.46 1468.38 L1767.46 1451.02 Z" fill="#000000" fill-rule="nonzero" fill-opacity="1" /><path clip-path="url(#clip510)" d="M2271.16 1481.64 L2287.48 1481.64 L2287.48 1485.58 L2265.54 1485.58 L2265.54 1481.64 Q2268.2 1478.89 2272.78 1474.26 Q2277.39 1469.61 2278.57 1468.27 Q2280.82 1465.74 2281.7 1464.01 Q2282.6 1462.25 2282.6 1460.56 Q2282.6 1457.8 2280.66 1456.07 Q2278.73 1454.33 2275.63 1454.33 Q2273.43 1454.33 2270.98 1455.09 Q2268.55 1455.86 2265.77 1457.41 L2265.77 1452.69 Q2268.59 1451.55 2271.05 1450.97 Q2273.5 1450.39 2275.54 1450.39 Q2280.91 1450.39 2284.1 1453.08 Q2287.3 1455.77 2287.3 1460.26 Q2287.3 1462.39 2286.49 1464.31 Q2285.7 1466.2 2283.59 1468.8 Q2283.02 1469.47 2279.91 1472.69 Q2276.81 1475.88 2271.16 1481.64 Z" fill="#000000" fill-rule="nonzero" fill-opacity="1" /><path clip-path="url(#clip510)" d="M2307.3 1454.1 Q2303.69 1454.1 2301.86 1457.66 Q2300.05 1461.2 2300.05 1468.33 Q2300.05 1475.44 2301.86 1479.01 Q2303.69 1482.55 2307.3 1482.55 Q2310.93 1482.55 2312.74 1479.01 Q2314.57 1475.44 2314.57 1468.33 Q2314.57 1461.2 2312.74 1457.66 Q2310.93 1454.1 2307.3 1454.1 M2307.3 1450.39 Q2313.11 1450.39 2316.16 1455 Q2319.24 1459.58 2319.24 1468.33 Q2319.24 1477.06 2316.16 1481.67 Q2313.11 1486.25 2307.3 1486.25 Q2301.49 1486.25 2298.41 1481.67 Q2295.35 1477.06 2295.35 1468.33 Q2295.35 1459.58 2298.41 1455 Q2301.49 1450.39 2307.3 1450.39 Z" fill="#000000" fill-rule="nonzero" fill-opacity="1" /><path clip-path="url(#clip510)" d="M1135.87 1520.52 L1142.3 1520.52 L1142.3 1568.04 L1135.87 1568.04 L1135.87 1520.52 Z" fill="#000000" fill-rule="nonzero" fill-opacity="1" /><path clip-path="url(#clip510)" d="M1160.64 1522.27 L1160.64 1532.4 L1172.7 1532.4 L1172.7 1536.95 L1160.64 1536.95 L1160.64 1556.3 Q1160.64 1560.66 1161.81 1561.9 Q1163.02 1563.14 1166.68 1563.14 L1172.7 1563.14 L1172.7 1568.04 L1166.68 1568.04 Q1159.9 1568.04 1157.33 1565.53 Q1154.75 1562.98 1154.75 1556.3 L1154.75 1536.95 L1150.45 1536.95 L1150.45 1532.4 L1154.75 1532.4 L1154.75 1522.27 L1160.64 1522.27 Z" fill="#000000" fill-rule="nonzero" fill-opacity="1" /><path clip-path="url(#clip510)" d="M1210.89 1548.76 L1210.89 1551.62 L1183.97 1551.62 Q1184.35 1557.67 1187.59 1560.85 Q1190.87 1564 1196.7 1564 Q1200.07 1564 1203.22 1563.17 Q1206.41 1562.35 1209.52 1560.69 L1209.52 1566.23 Q1206.37 1567.57 1203.06 1568.27 Q1199.75 1568.97 1196.35 1568.97 Q1187.82 1568.97 1182.82 1564 Q1177.86 1559.04 1177.86 1550.57 Q1177.86 1541.82 1182.57 1536.69 Q1187.31 1531.54 1195.33 1531.54 Q1202.52 1531.54 1206.69 1536.18 Q1210.89 1540.8 1210.89 1548.76 M1205.04 1547.04 Q1204.97 1542.23 1202.33 1539.37 Q1199.72 1536.5 1195.39 1536.5 Q1190.49 1536.5 1187.53 1539.27 Q1184.6 1542.04 1184.16 1547.07 L1205.04 1547.04 Z" fill="#000000" fill-rule="nonzero" fill-opacity="1" /><path clip-path="url(#clip510)" d="M1241.16 1537.87 Q1240.18 1537.3 1239 1537.04 Q1237.85 1536.76 1236.45 1536.76 Q1231.49 1536.76 1228.81 1540 Q1226.17 1543.22 1226.17 1549.27 L1226.17 1568.04 L1220.28 1568.04 L1220.28 1532.4 L1226.17 1532.4 L1226.17 1537.93 Q1228.02 1534.69 1230.98 1533.13 Q1233.94 1531.54 1238.17 1531.54 Q1238.78 1531.54 1239.51 1531.63 Q1240.24 1531.7 1241.13 1531.85 L1241.16 1537.87 Z" fill="#000000" fill-rule="nonzero" fill-opacity="1" /><path clip-path="url(#clip510)" d="M1263.51 1550.12 Q1256.41 1550.12 1253.67 1551.75 Q1250.93 1553.37 1250.93 1557.29 Q1250.93 1560.4 1252.97 1562.25 Q1255.04 1564.07 1258.57 1564.07 Q1263.44 1564.07 1266.37 1560.63 Q1269.33 1557.16 1269.33 1551.43 L1269.33 1550.12 L1263.51 1550.12 M1275.19 1547.71 L1275.19 1568.04 L1269.33 1568.04 L1269.33 1562.63 Q1267.33 1565.88 1264.33 1567.44 Q1261.34 1568.97 1257.01 1568.97 Q1251.54 1568.97 1248.29 1565.91 Q1245.08 1562.82 1245.08 1557.67 Q1245.08 1551.65 1249.09 1548.6 Q1253.13 1545.54 1261.12 1545.54 L1269.33 1545.54 L1269.33 1544.97 Q1269.33 1540.93 1266.66 1538.73 Q1264.02 1536.5 1259.21 1536.5 Q1256.15 1536.5 1253.26 1537.23 Q1250.36 1537.97 1247.69 1539.43 L1247.69 1534.02 Q1250.9 1532.78 1253.93 1532.17 Q1256.95 1531.54 1259.81 1531.54 Q1267.55 1531.54 1271.37 1535.55 Q1275.19 1539.56 1275.19 1547.71 Z" fill="#000000" fill-rule="nonzero" fill-opacity="1" /><path clip-path="url(#clip510)" d="M1293.04 1522.27 L1293.04 1532.4 L1305.11 1532.4 L1305.11 1536.95 L1293.04 1536.95 L1293.04 1556.3 Q1293.04 1560.66 1294.22 1561.9 Q1295.43 1563.14 1299.09 1563.14 L1305.11 1563.14 L1305.11 1568.04 L1299.09 1568.04 Q1292.31 1568.04 1289.73 1565.53 Q1287.15 1562.98 1287.15 1556.3 L1287.15 1536.95 L1282.86 1536.95 L1282.86 1532.4 L1287.15 1532.4 L1287.15 1522.27 L1293.04 1522.27 Z" fill="#000000" fill-rule="nonzero" fill-opacity="1" /><path clip-path="url(#clip510)" d="M1312.81 1532.4 L1318.66 1532.4 L1318.66 1568.04 L1312.81 1568.04 L1312.81 1532.4 M1312.81 1518.52 L1318.66 1518.52 L1318.66 1525.93 L1312.81 1525.93 L1312.81 1518.52 Z" fill="#000000" fill-rule="nonzero" fill-opacity="1" /><path clip-path="url(#clip510)" d="M1344.73 1536.5 Q1340.02 1536.5 1337.28 1540.19 Q1334.55 1543.85 1334.55 1550.25 Q1334.55 1556.65 1337.25 1560.34 Q1339.99 1564 1344.73 1564 Q1349.41 1564 1352.15 1560.31 Q1354.89 1556.62 1354.89 1550.25 Q1354.89 1543.92 1352.15 1540.23 Q1349.41 1536.5 1344.73 1536.5 M1344.73 1531.54 Q1352.37 1531.54 1356.73 1536.5 Q1361.09 1541.47 1361.09 1550.25 Q1361.09 1559 1356.73 1564 Q1352.37 1568.97 1344.73 1568.97 Q1337.06 1568.97 1332.7 1564 Q1328.37 1559 1328.37 1550.25 Q1328.37 1541.47 1332.7 1536.5 Q1337.06 1531.54 1344.73 1531.54 Z" fill="#000000" fill-rule="nonzero" fill-opacity="1" /><path clip-path="url(#clip510)" d="M1400.43 1546.53 L1400.43 1568.04 L1394.58 1568.04 L1394.58 1546.72 Q1394.58 1541.66 1392.6 1539.14 Q1390.63 1536.63 1386.68 1536.63 Q1381.94 1536.63 1379.2 1539.65 Q1376.47 1542.68 1376.47 1547.9 L1376.47 1568.04 L1370.58 1568.04 L1370.58 1532.4 L1376.47 1532.4 L1376.47 1537.93 Q1378.57 1534.72 1381.4 1533.13 Q1384.26 1531.54 1387.99 1531.54 Q1394.13 1531.54 1397.28 1535.36 Q1400.43 1539.14 1400.43 1546.53 Z" fill="#000000" fill-rule="nonzero" fill-opacity="1" /><path clip-path="url(#clip510)" d="M1434.84 1533.45 L1434.84 1538.98 Q1432.36 1537.71 1429.68 1537.07 Q1427.01 1536.44 1424.14 1536.44 Q1419.78 1536.44 1417.59 1537.77 Q1415.42 1539.11 1415.42 1541.79 Q1415.42 1543.82 1416.98 1545 Q1418.54 1546.15 1423.25 1547.2 L1425.26 1547.64 Q1431.5 1548.98 1434.11 1551.43 Q1436.75 1553.85 1436.75 1558.21 Q1436.75 1563.17 1432.8 1566.07 Q1428.89 1568.97 1422.01 1568.97 Q1419.15 1568.97 1416.03 1568.39 Q1412.94 1567.85 1409.5 1566.74 L1409.5 1560.69 Q1412.75 1562.38 1415.9 1563.24 Q1419.05 1564.07 1422.14 1564.07 Q1426.28 1564.07 1428.51 1562.66 Q1430.73 1561.23 1430.73 1558.65 Q1430.73 1556.27 1429.11 1554.99 Q1427.52 1553.72 1422.08 1552.54 L1420.04 1552.07 Q1414.6 1550.92 1412.18 1548.56 Q1409.76 1546.18 1409.76 1542.04 Q1409.76 1537.01 1413.32 1534.27 Q1416.89 1531.54 1423.44 1531.54 Q1426.69 1531.54 1429.56 1532.01 Q1432.42 1532.49 1434.84 1533.45 Z" fill="#000000" fill-rule="nonzero" fill-opacity="1" /><polyline clip-path="url(#clip510)" style="stroke:#000000; stroke-linecap:round; stroke-linejoin:round; stroke-width:4; stroke-opacity:1; fill:none" points="219.866,1423.18 219.866,123.472 "/>
<polyline clip-path="url(#clip510)" style="stroke:#000000; stroke-linecap:round; stroke-linejoin:round; stroke-width:4; stroke-opacity:1; fill:none" points="219.866,1242.68 238.764,1242.68 "/>
<polyline clip-path="url(#clip510)" style="stroke:#000000; stroke-linecap:round; stroke-linejoin:round; stroke-width:4; stroke-opacity:1; fill:none" points="219.866,1003.37 238.764,1003.37 "/>
<polyline clip-path="url(#clip510)" style="stroke:#000000; stroke-linecap:round; stroke-linejoin:round; stroke-width:4; stroke-opacity:1; fill:none" points="219.866,764.062 238.764,764.062 "/>
<polyline clip-path="url(#clip510)" style="stroke:#000000; stroke-linecap:round; stroke-linejoin:round; stroke-width:4; stroke-opacity:1; fill:none" points="219.866,524.755 238.764,524.755 "/>
<polyline clip-path="url(#clip510)" style="stroke:#000000; stroke-linecap:round; stroke-linejoin:round; stroke-width:4; stroke-opacity:1; fill:none" points="219.866,285.447 238.764,285.447 "/>
<path clip-path="url(#clip510)" d="M128.288 1228.48 Q124.677 1228.48 122.848 1232.04 Q121.043 1235.58 121.043 1242.71 Q121.043 1249.82 122.848 1253.38 Q124.677 1256.93 128.288 1256.93 Q131.922 1256.93 133.728 1253.38 Q135.556 1249.82 135.556 1242.71 Q135.556 1235.58 133.728 1232.04 Q131.922 1228.48 128.288 1228.48 M128.288 1224.77 Q134.098 1224.77 137.154 1229.38 Q140.232 1233.96 140.232 1242.71 Q140.232 1251.44 137.154 1256.05 Q134.098 1260.63 128.288 1260.63 Q122.478 1260.63 119.399 1256.05 Q116.343 1251.44 116.343 1242.71 Q116.343 1233.96 119.399 1229.38 Q122.478 1224.77 128.288 1224.77 Z" fill="#000000" fill-rule="nonzero" fill-opacity="1" /><path clip-path="url(#clip510)" d="M148.45 1254.08 L153.334 1254.08 L153.334 1259.96 L148.45 1259.96 L148.45 1254.08 Z" fill="#000000" fill-rule="nonzero" fill-opacity="1" /><path clip-path="url(#clip510)" d="M167.547 1256.02 L183.866 1256.02 L183.866 1259.96 L161.922 1259.96 L161.922 1256.02 Q164.584 1253.27 169.167 1248.64 Q173.774 1243.99 174.954 1242.64 Q177.2 1240.12 178.079 1238.38 Q178.982 1236.62 178.982 1234.93 Q178.982 1232.18 177.038 1230.44 Q175.116 1228.71 172.014 1228.71 Q169.815 1228.71 167.362 1229.47 Q164.931 1230.24 162.153 1231.79 L162.153 1227.06 Q164.977 1225.93 167.431 1225.35 Q169.885 1224.77 171.922 1224.77 Q177.292 1224.77 180.487 1227.46 Q183.681 1230.14 183.681 1234.63 Q183.681 1236.76 182.871 1238.68 Q182.084 1240.58 179.977 1243.18 Q179.399 1243.85 176.297 1247.06 Q173.195 1250.26 167.547 1256.02 Z" fill="#000000" fill-rule="nonzero" fill-opacity="1" /><path clip-path="url(#clip510)" d="M127.339 989.169 Q123.728 989.169 121.899 992.733 Q120.093 996.275 120.093 1003.4 Q120.093 1010.51 121.899 1014.08 Q123.728 1017.62 127.339 1017.62 Q130.973 1017.62 132.779 1014.08 Q134.607 1010.51 134.607 1003.4 Q134.607 996.275 132.779 992.733 Q130.973 989.169 127.339 989.169 M127.339 985.465 Q133.149 985.465 136.204 990.071 Q139.283 994.655 139.283 1003.4 Q139.283 1012.13 136.204 1016.74 Q133.149 1021.32 127.339 1021.32 Q121.529 1021.32 118.45 1016.74 Q115.394 1012.13 115.394 1003.4 Q115.394 994.655 118.45 990.071 Q121.529 985.465 127.339 985.465 Z" fill="#000000" fill-rule="nonzero" fill-opacity="1" /><path clip-path="url(#clip510)" d="M147.501 1014.77 L152.385 1014.77 L152.385 1020.65 L147.501 1020.65 L147.501 1014.77 Z" fill="#000000" fill-rule="nonzero" fill-opacity="1" /><path clip-path="url(#clip510)" d="M176.737 1002.02 Q180.093 1002.73 181.968 1005 Q183.866 1007.27 183.866 1010.6 Q183.866 1015.72 180.348 1018.52 Q176.829 1021.32 170.348 1021.32 Q168.172 1021.32 165.857 1020.88 Q163.565 1020.46 161.112 1019.61 L161.112 1015.09 Q163.056 1016.23 165.371 1016.81 Q167.686 1017.39 170.209 1017.39 Q174.607 1017.39 176.899 1015.65 Q179.214 1013.91 179.214 1010.6 Q179.214 1007.55 177.061 1005.84 Q174.931 1004.1 171.112 1004.1 L167.084 1004.1 L167.084 1000.26 L171.297 1000.26 Q174.746 1000.26 176.575 998.891 Q178.403 997.502 178.403 994.909 Q178.403 992.247 176.505 990.835 Q174.63 989.4 171.112 989.4 Q169.19 989.4 166.991 989.817 Q164.792 990.233 162.153 991.113 L162.153 986.946 Q164.815 986.206 167.13 985.835 Q169.468 985.465 171.528 985.465 Q176.852 985.465 179.954 987.895 Q183.056 990.303 183.056 994.423 Q183.056 997.294 181.413 999.284 Q179.769 1001.25 176.737 1002.02 Z" fill="#000000" fill-rule="nonzero" fill-opacity="1" /><path clip-path="url(#clip510)" d="M126.205 749.861 Q122.593 749.861 120.765 753.426 Q118.959 756.967 118.959 764.097 Q118.959 771.204 120.765 774.768 Q122.593 778.31 126.205 778.31 Q129.839 778.31 131.644 774.768 Q133.473 771.204 133.473 764.097 Q133.473 756.967 131.644 753.426 Q129.839 749.861 126.205 749.861 M126.205 746.157 Q132.015 746.157 135.07 750.764 Q138.149 755.347 138.149 764.097 Q138.149 772.824 135.07 777.43 Q132.015 782.014 126.205 782.014 Q120.394 782.014 117.316 777.43 Q114.26 772.824 114.26 764.097 Q114.26 755.347 117.316 750.764 Q120.394 746.157 126.205 746.157 Z" fill="#000000" fill-rule="nonzero" fill-opacity="1" /><path clip-path="url(#clip510)" d="M146.366 775.463 L151.251 775.463 L151.251 781.342 L146.366 781.342 L146.366 775.463 Z" fill="#000000" fill-rule="nonzero" fill-opacity="1" /><path clip-path="url(#clip510)" d="M174.283 750.856 L162.477 769.305 L174.283 769.305 L174.283 750.856 M173.056 746.782 L178.936 746.782 L178.936 769.305 L183.866 769.305 L183.866 773.194 L178.936 773.194 L178.936 781.342 L174.283 781.342 L174.283 773.194 L158.681 773.194 L158.681 768.68 L173.056 746.782 Z" fill="#000000" fill-rule="nonzero" fill-opacity="1" /><path clip-path="url(#clip510)" d="M127.686 510.553 Q124.075 510.553 122.246 514.118 Q120.441 517.66 120.441 524.79 Q120.441 531.896 122.246 535.461 Q124.075 539.002 127.686 539.002 Q131.32 539.002 133.126 535.461 Q134.954 531.896 134.954 524.79 Q134.954 517.66 133.126 514.118 Q131.32 510.553 127.686 510.553 M127.686 506.85 Q133.496 506.85 136.552 511.456 Q139.63 516.04 139.63 524.79 Q139.63 533.516 136.552 538.123 Q133.496 542.706 127.686 542.706 Q121.876 542.706 118.797 538.123 Q115.742 533.516 115.742 524.79 Q115.742 516.04 118.797 511.456 Q121.876 506.85 127.686 506.85 Z" fill="#000000" fill-rule="nonzero" fill-opacity="1" /><path clip-path="url(#clip510)" d="M147.848 536.155 L152.732 536.155 L152.732 542.035 L147.848 542.035 L147.848 536.155 Z" fill="#000000" fill-rule="nonzero" fill-opacity="1" /><path clip-path="url(#clip510)" d="M162.964 507.475 L181.32 507.475 L181.32 511.41 L167.246 511.41 L167.246 519.882 Q168.264 519.535 169.283 519.373 Q170.302 519.188 171.32 519.188 Q177.107 519.188 180.487 522.359 Q183.866 525.53 183.866 530.947 Q183.866 536.526 180.394 539.627 Q176.922 542.706 170.602 542.706 Q168.427 542.706 166.158 542.336 Q163.913 541.965 161.505 541.225 L161.505 536.526 Q163.589 537.66 165.811 538.215 Q168.033 538.771 170.51 538.771 Q174.514 538.771 176.852 536.664 Q179.19 534.558 179.19 530.947 Q179.19 527.336 176.852 525.229 Q174.514 523.123 170.51 523.123 Q168.635 523.123 166.76 523.54 Q164.908 523.956 162.964 524.836 L162.964 507.475 Z" fill="#000000" fill-rule="nonzero" fill-opacity="1" /><path clip-path="url(#clip510)" d="M126.529 271.246 Q122.918 271.246 121.089 274.811 Q119.283 278.352 119.283 285.482 Q119.283 292.588 121.089 296.153 Q122.918 299.695 126.529 299.695 Q130.163 299.695 131.968 296.153 Q133.797 292.588 133.797 285.482 Q133.797 278.352 131.968 274.811 Q130.163 271.246 126.529 271.246 M126.529 267.542 Q132.339 267.542 135.394 272.149 Q138.473 276.732 138.473 285.482 Q138.473 294.209 135.394 298.815 Q132.339 303.399 126.529 303.399 Q120.718 303.399 117.64 298.815 Q114.584 294.209 114.584 285.482 Q114.584 276.732 117.64 272.149 Q120.718 267.542 126.529 267.542 Z" fill="#000000" fill-rule="nonzero" fill-opacity="1" /><path clip-path="url(#clip510)" d="M146.691 296.848 L151.575 296.848 L151.575 302.727 L146.691 302.727 L146.691 296.848 Z" fill="#000000" fill-rule="nonzero" fill-opacity="1" /><path clip-path="url(#clip510)" d="M172.339 283.584 Q169.19 283.584 167.339 285.737 Q165.51 287.889 165.51 291.639 Q165.51 295.366 167.339 297.542 Q169.19 299.695 172.339 299.695 Q175.487 299.695 177.315 297.542 Q179.167 295.366 179.167 291.639 Q179.167 287.889 177.315 285.737 Q175.487 283.584 172.339 283.584 M181.621 268.931 L181.621 273.19 Q179.862 272.357 178.056 271.917 Q176.274 271.477 174.514 271.477 Q169.885 271.477 167.431 274.602 Q165.001 277.727 164.653 284.047 Q166.019 282.033 168.079 280.968 Q170.139 279.88 172.616 279.88 Q177.825 279.88 180.834 283.051 Q183.866 286.2 183.866 291.639 Q183.866 296.963 180.718 300.181 Q177.57 303.399 172.339 303.399 Q166.343 303.399 163.172 298.815 Q160.001 294.209 160.001 285.482 Q160.001 277.288 163.89 272.426 Q167.778 267.542 174.329 267.542 Q176.089 267.542 177.871 267.889 Q179.676 268.237 181.621 268.931 Z" fill="#000000" fill-rule="nonzero" fill-opacity="1" /><path clip-path="url(#clip510)" d="M64.0042 842.696 L16.4842 860.839 L16.4842 854.123 L56.4926 839.068 L16.4842 823.981 L16.4842 817.297 L64.0042 835.408 L64.0042 842.696 Z" fill="#000000" fill-rule="nonzero" fill-opacity="1" /><path clip-path="url(#clip510)" d="M46.0847 799.473 Q46.0847 806.571 47.7079 809.308 Q49.3312 812.045 53.2461 812.045 Q56.3653 812.045 58.2114 810.008 Q60.0256 807.94 60.0256 804.407 Q60.0256 799.537 56.5881 796.609 Q53.1188 793.649 47.3897 793.649 L46.0847 793.649 L46.0847 799.473 M43.6657 787.792 L64.0042 787.792 L64.0042 793.649 L58.5933 793.649 Q61.8398 795.654 63.3994 798.646 Q64.9272 801.637 64.9272 805.966 Q64.9272 811.441 61.8716 814.687 Q58.7843 817.902 53.6281 817.902 Q47.6125 817.902 44.5569 813.891 Q41.5014 809.849 41.5014 801.86 L41.5014 793.649 L40.9285 793.649 Q36.8862 793.649 34.6901 796.322 Q32.4621 798.964 32.4621 803.77 Q32.4621 806.826 33.1941 809.722 Q33.9262 812.618 35.3903 815.292 L29.9795 815.292 Q28.7381 812.077 28.1334 809.054 Q27.4968 806.03 27.4968 803.165 Q27.4968 795.431 31.5072 791.611 Q35.5176 787.792 43.6657 787.792 Z" fill="#000000" fill-rule="nonzero" fill-opacity="1" /><path clip-path="url(#clip510)" d="M14.479 775.729 L14.479 769.873 L64.0042 769.873 L64.0042 775.729 L14.479 775.729 Z" fill="#000000" fill-rule="nonzero" fill-opacity="1" /><path clip-path="url(#clip510)" d="M49.9359 758.223 L28.3562 758.223 L28.3562 752.367 L49.7131 752.367 Q54.7739 752.367 57.3202 750.394 Q59.8346 748.42 59.8346 744.473 Q59.8346 739.731 56.8109 736.994 Q53.7872 734.225 48.5673 734.225 L28.3562 734.225 L28.3562 728.368 L64.0042 728.368 L64.0042 734.225 L58.5296 734.225 Q61.7762 736.357 63.3676 739.19 Q64.9272 741.991 64.9272 745.715 Q64.9272 751.858 61.1078 755.04 Q57.2883 758.223 49.9359 758.223 M27.4968 743.487 L27.4968 743.487 Z" fill="#000000" fill-rule="nonzero" fill-opacity="1" /><path clip-path="url(#clip510)" d="M44.7161 685.813 L47.5806 685.813 L47.5806 712.74 Q53.6281 712.358 56.8109 709.112 Q59.9619 705.834 59.9619 700.009 Q59.9619 696.635 59.1344 693.484 Q58.3069 690.301 56.6518 687.182 L62.1899 687.182 Q63.5267 690.333 64.227 693.643 Q64.9272 696.953 64.9272 700.359 Q64.9272 708.889 59.9619 713.886 Q54.9967 718.851 46.5303 718.851 Q37.7774 718.851 32.6531 714.141 Q27.4968 709.398 27.4968 701.378 Q27.4968 694.184 32.1438 690.015 Q36.7589 685.813 44.7161 685.813 M42.9973 691.67 Q38.1912 691.734 35.3266 694.375 Q32.4621 696.985 32.4621 701.314 Q32.4621 706.216 35.2312 709.176 Q38.0002 712.104 43.0292 712.549 L42.9973 691.67 Z" fill="#000000" fill-rule="nonzero" fill-opacity="1" /><path clip-path="url(#clip510)" d="M722.061 12.096 L730.243 12.096 L730.243 36.8875 L759.977 36.8875 L759.977 12.096 L768.16 12.096 L768.16 72.576 L759.977 72.576 L759.977 43.7741 L730.243 43.7741 L730.243 72.576 L722.061 72.576 L722.061 12.096 Z" fill="#000000" fill-rule="nonzero" fill-opacity="1" /><path clip-path="url(#clip510)" d="M802.998 76.7889 Q799.838 84.8907 796.84 87.3618 Q793.843 89.8329 788.82 89.8329 L782.865 89.8329 L782.865 83.5945 L787.24 83.5945 Q790.318 83.5945 792.02 82.1361 Q793.721 80.6778 795.787 75.2496 L797.124 71.8468 L778.773 27.2059 L786.673 27.2059 L800.851 62.6918 L815.029 27.2059 L822.928 27.2059 L802.998 76.7889 Z" fill="#000000" fill-rule="nonzero" fill-opacity="1" /><path clip-path="url(#clip510)" d="M840.428 65.7705 L840.428 89.8329 L832.934 89.8329 L832.934 27.2059 L840.428 27.2059 L840.428 34.0924 Q842.778 30.0415 846.342 28.0971 Q849.948 26.1121 854.93 26.1121 Q863.194 26.1121 868.339 32.6746 Q873.524 39.2371 873.524 49.9314 Q873.524 60.6258 868.339 67.1883 Q863.194 73.7508 854.93 73.7508 Q849.948 73.7508 846.342 71.8063 Q842.778 69.8214 840.428 65.7705 M865.787 49.9314 Q865.787 41.7081 862.384 37.0496 Q859.022 32.3505 853.107 32.3505 Q847.193 32.3505 843.79 37.0496 Q840.428 41.7081 840.428 49.9314 Q840.428 58.1548 843.79 62.8538 Q847.193 67.5124 853.107 67.5124 Q859.022 67.5124 862.384 62.8538 Q865.787 58.1548 865.787 49.9314 Z" fill="#000000" fill-rule="nonzero" fill-opacity="1" /><path clip-path="url(#clip510)" d="M924.687 48.0275 L924.687 51.6733 L890.416 51.6733 Q890.902 59.3701 895.034 63.421 Q899.207 67.4314 906.62 67.4314 Q910.914 67.4314 914.924 66.3781 Q918.975 65.3249 922.945 63.2184 L922.945 70.267 Q918.935 71.9684 914.722 72.8596 Q910.509 73.7508 906.174 73.7508 Q895.318 73.7508 888.958 67.4314 Q882.638 61.1119 882.638 50.3365 Q882.638 39.1965 888.634 32.6746 Q894.67 26.1121 904.878 26.1121 Q914.033 26.1121 919.34 32.0264 Q924.687 37.9003 924.687 48.0275 M917.233 45.84 Q917.152 39.7232 913.79 36.0774 Q910.468 32.4315 904.959 32.4315 Q898.721 32.4315 894.953 35.9558 Q891.226 39.4801 890.659 45.8805 L917.233 45.84 Z" fill="#000000" fill-rule="nonzero" fill-opacity="1" /><path clip-path="url(#clip510)" d="M963.211 34.1734 Q961.955 33.4443 960.456 33.1202 Q958.998 32.7556 957.216 32.7556 Q950.896 32.7556 947.493 36.8875 Q944.131 40.9789 944.131 48.6757 L944.131 72.576 L936.637 72.576 L936.637 27.2059 L944.131 27.2059 L944.131 34.2544 Q946.481 30.1225 950.248 28.1376 Q954.015 26.1121 959.403 26.1121 Q960.173 26.1121 961.104 26.2337 Q962.036 26.3147 963.17 26.5172 L963.211 34.1734 Z" fill="#000000" fill-rule="nonzero" fill-opacity="1" /><path clip-path="url(#clip510)" d="M978.24 65.7705 L978.24 89.8329 L970.746 89.8329 L970.746 27.2059 L978.24 27.2059 L978.24 34.0924 Q980.589 30.0415 984.154 28.0971 Q987.759 26.1121 992.742 26.1121 Q1001.01 26.1121 1006.15 32.6746 Q1011.34 39.2371 1011.34 49.9314 Q1011.34 60.6258 1006.15 67.1883 Q1001.01 73.7508 992.742 73.7508 Q987.759 73.7508 984.154 71.8063 Q980.589 69.8214 978.24 65.7705 M1003.6 49.9314 Q1003.6 41.7081 1000.2 37.0496 Q996.833 32.3505 990.919 32.3505 Q985.005 32.3505 981.602 37.0496 Q978.24 41.7081 978.24 49.9314 Q978.24 58.1548 981.602 62.8538 Q985.005 67.5124 990.919 67.5124 Q996.833 67.5124 1000.2 62.8538 Q1003.6 58.1548 1003.6 49.9314 Z" fill="#000000" fill-rule="nonzero" fill-opacity="1" /><path clip-path="url(#clip510)" d="M1044.31 49.7694 Q1035.28 49.7694 1031.79 51.8354 Q1028.31 53.9013 1028.31 58.8839 Q1028.31 62.8538 1030.9 65.2034 Q1033.53 67.5124 1038.03 67.5124 Q1044.23 67.5124 1047.96 63.1374 Q1051.72 58.7219 1051.72 51.4303 L1051.72 49.7694 L1044.31 49.7694 M1059.18 46.6907 L1059.18 72.576 L1051.72 72.576 L1051.72 65.6895 Q1049.17 69.8214 1045.36 71.8063 Q1041.56 73.7508 1036.05 73.7508 Q1029.08 73.7508 1024.95 69.8619 Q1020.86 65.9325 1020.86 59.3701 Q1020.86 51.7138 1025.96 47.825 Q1031.1 43.9361 1041.27 43.9361 L1051.72 43.9361 L1051.72 43.2069 Q1051.72 38.0623 1048.32 35.2672 Q1044.96 32.4315 1038.84 32.4315 Q1034.95 32.4315 1031.27 33.3632 Q1027.58 34.295 1024.18 36.1584 L1024.18 29.2718 Q1028.27 27.692 1032.12 26.9223 Q1035.97 26.1121 1039.61 26.1121 Q1049.45 26.1121 1054.32 31.2163 Q1059.18 36.3204 1059.18 46.6907 Z" fill="#000000" fill-rule="nonzero" fill-opacity="1" /><path clip-path="url(#clip510)" d="M1100.82 34.1734 Q1099.56 33.4443 1098.07 33.1202 Q1096.61 32.7556 1094.82 32.7556 Q1088.51 32.7556 1085.1 36.8875 Q1081.74 40.9789 1081.74 48.6757 L1081.74 72.576 L1074.25 72.576 L1074.25 27.2059 L1081.74 27.2059 L1081.74 34.2544 Q1084.09 30.1225 1087.86 28.1376 Q1091.62 26.1121 1097.01 26.1121 Q1097.78 26.1121 1098.71 26.2337 Q1099.65 26.3147 1100.78 26.5172 L1100.82 34.1734 Z" fill="#000000" fill-rule="nonzero" fill-opacity="1" /><path clip-path="url(#clip510)" d="M1129.26 49.7694 Q1120.22 49.7694 1116.74 51.8354 Q1113.26 53.9013 1113.26 58.8839 Q1113.26 62.8538 1115.85 65.2034 Q1118.48 67.5124 1122.98 67.5124 Q1129.18 67.5124 1132.9 63.1374 Q1136.67 58.7219 1136.67 51.4303 L1136.67 49.7694 L1129.26 49.7694 M1144.12 46.6907 L1144.12 72.576 L1136.67 72.576 L1136.67 65.6895 Q1134.12 69.8214 1130.31 71.8063 Q1126.5 73.7508 1120.99 73.7508 Q1114.03 73.7508 1109.89 69.8619 Q1105.8 65.9325 1105.8 59.3701 Q1105.8 51.7138 1110.91 47.825 Q1116.05 43.9361 1126.22 43.9361 L1136.67 43.9361 L1136.67 43.2069 Q1136.67 38.0623 1133.27 35.2672 Q1129.91 32.4315 1123.79 32.4315 Q1119.9 32.4315 1116.21 33.3632 Q1112.53 34.295 1109.12 36.1584 L1109.12 29.2718 Q1113.22 27.692 1117.06 26.9223 Q1120.91 26.1121 1124.56 26.1121 Q1134.4 26.1121 1139.26 31.2163 Q1144.12 36.3204 1144.12 46.6907 Z" fill="#000000" fill-rule="nonzero" fill-opacity="1" /><path clip-path="url(#clip510)" d="M1194.8 35.9153 Q1197.6 30.8922 1201.49 28.5022 Q1205.37 26.1121 1210.64 26.1121 Q1217.73 26.1121 1221.58 31.0947 Q1225.43 36.0368 1225.43 45.1919 L1225.43 72.576 L1217.93 72.576 L1217.93 45.4349 Q1217.93 38.913 1215.62 35.7533 Q1213.31 32.5936 1208.57 32.5936 Q1202.78 32.5936 1199.42 36.4419 Q1196.06 40.2903 1196.06 46.9338 L1196.06 72.576 L1188.56 72.576 L1188.56 45.4349 Q1188.56 38.8725 1186.25 35.7533 Q1183.94 32.5936 1179.12 32.5936 Q1173.41 32.5936 1170.05 36.4824 Q1166.69 40.3308 1166.69 46.9338 L1166.69 72.576 L1159.19 72.576 L1159.19 27.2059 L1166.69 27.2059 L1166.69 34.2544 Q1169.24 30.082 1172.8 28.0971 Q1176.37 26.1121 1181.27 26.1121 Q1186.21 26.1121 1189.66 28.6237 Q1193.14 31.1352 1194.8 35.9153 Z" fill="#000000" fill-rule="nonzero" fill-opacity="1" /><path clip-path="url(#clip510)" d="M1279.1 48.0275 L1279.1 51.6733 L1244.83 51.6733 Q1245.32 59.3701 1249.45 63.421 Q1253.62 67.4314 1261.03 67.4314 Q1265.33 67.4314 1269.34 66.3781 Q1273.39 65.3249 1277.36 63.2184 L1277.36 70.267 Q1273.35 71.9684 1269.14 72.8596 Q1264.92 73.7508 1260.59 73.7508 Q1249.73 73.7508 1243.37 67.4314 Q1237.05 61.1119 1237.05 50.3365 Q1237.05 39.1965 1243.05 32.6746 Q1249.08 26.1121 1259.29 26.1121 Q1268.45 26.1121 1273.75 32.0264 Q1279.1 37.9003 1279.1 48.0275 M1271.65 45.84 Q1271.57 39.7232 1268.2 36.0774 Q1264.88 32.4315 1259.37 32.4315 Q1253.13 32.4315 1249.37 35.9558 Q1245.64 39.4801 1245.07 45.8805 L1271.65 45.84 Z" fill="#000000" fill-rule="nonzero" fill-opacity="1" /><path clip-path="url(#clip510)" d="M1298.71 14.324 L1298.71 27.2059 L1314.06 27.2059 L1314.06 32.9987 L1298.71 32.9987 L1298.71 57.6282 Q1298.71 63.1779 1300.21 64.7578 Q1301.75 66.3376 1306.4 66.3376 L1314.06 66.3376 L1314.06 72.576 L1306.4 72.576 Q1297.78 72.576 1294.49 69.3758 Q1291.21 66.1351 1291.21 57.6282 L1291.21 32.9987 L1285.74 32.9987 L1285.74 27.2059 L1291.21 27.2059 L1291.21 14.324 L1298.71 14.324 Z" fill="#000000" fill-rule="nonzero" fill-opacity="1" /><path clip-path="url(#clip510)" d="M1362.67 48.0275 L1362.67 51.6733 L1328.4 51.6733 Q1328.89 59.3701 1333.02 63.421 Q1337.19 67.4314 1344.6 67.4314 Q1348.9 67.4314 1352.91 66.3781 Q1356.96 65.3249 1360.93 63.2184 L1360.93 70.267 Q1356.92 71.9684 1352.71 72.8596 Q1348.49 73.7508 1344.16 73.7508 Q1333.3 73.7508 1326.94 67.4314 Q1320.62 61.1119 1320.62 50.3365 Q1320.62 39.1965 1326.62 32.6746 Q1332.65 26.1121 1342.86 26.1121 Q1352.02 26.1121 1357.32 32.0264 Q1362.67 37.9003 1362.67 48.0275 M1355.22 45.84 Q1355.14 39.7232 1351.77 36.0774 Q1348.45 32.4315 1342.94 32.4315 Q1336.7 32.4315 1332.94 35.9558 Q1329.21 39.4801 1328.64 45.8805 L1355.22 45.84 Z" fill="#000000" fill-rule="nonzero" fill-opacity="1" /><path clip-path="url(#clip510)" d="M1401.19 34.1734 Q1399.94 33.4443 1398.44 33.1202 Q1396.98 32.7556 1395.2 32.7556 Q1388.88 32.7556 1385.48 36.8875 Q1382.11 40.9789 1382.11 48.6757 L1382.11 72.576 L1374.62 72.576 L1374.62 27.2059 L1382.11 27.2059 L1382.11 34.2544 Q1384.46 30.1225 1388.23 28.1376 Q1392 26.1121 1397.39 26.1121 Q1398.16 26.1121 1399.09 26.2337 Q1400.02 26.3147 1401.15 26.5172 L1401.19 34.1734 Z" fill="#000000" fill-rule="nonzero" fill-opacity="1" /><path clip-path="url(#clip510)" d="M1437.94 28.5427 L1437.94 35.5912 Q1434.78 33.9709 1431.37 33.1607 Q1427.97 32.3505 1424.33 32.3505 Q1418.78 32.3505 1415.98 34.0519 Q1413.23 35.7533 1413.23 39.156 Q1413.23 41.7486 1415.21 43.2475 Q1417.2 44.7058 1423.19 46.0426 L1425.74 46.6097 Q1433.68 48.3111 1437 51.4303 Q1440.37 54.509 1440.37 60.0587 Q1440.37 66.3781 1435.34 70.0644 Q1430.36 73.7508 1421.61 73.7508 Q1417.97 73.7508 1414 73.0216 Q1410.07 72.3329 1405.69 70.9151 L1405.69 63.2184 Q1409.82 65.3654 1413.83 66.4591 Q1417.84 67.5124 1421.77 67.5124 Q1427.04 67.5124 1429.88 65.73 Q1432.71 63.9071 1432.71 60.6258 Q1432.71 57.5877 1430.64 55.9673 Q1428.62 54.3469 1421.69 52.8481 L1419.1 52.2405 Q1412.17 50.7821 1409.09 47.7845 Q1406.02 44.7463 1406.02 39.4801 Q1406.02 33.0797 1410.55 29.5959 Q1415.09 26.1121 1423.43 26.1121 Q1427.57 26.1121 1431.21 26.7198 Q1434.86 27.3274 1437.94 28.5427 Z" fill="#000000" fill-rule="nonzero" fill-opacity="1" /><path clip-path="url(#clip510)" d="M1478.93 12.096 L1517.17 12.096 L1517.17 18.9825 L1487.11 18.9825 L1487.11 36.8875 L1515.92 36.8875 L1515.92 43.7741 L1487.11 43.7741 L1487.11 65.6895 L1517.9 65.6895 L1517.9 72.576 L1478.93 72.576 L1478.93 12.096 Z" fill="#000000" fill-rule="nonzero" fill-opacity="1" /><path clip-path="url(#clip510)" d="M1525.68 27.2059 L1533.58 27.2059 L1547.76 65.2844 L1561.93 27.2059 L1569.83 27.2059 L1552.82 72.576 L1542.69 72.576 L1525.68 27.2059 Z" fill="#000000" fill-rule="nonzero" fill-opacity="1" /><path clip-path="url(#clip510)" d="M1597.7 32.4315 Q1591.71 32.4315 1588.22 37.1306 Q1584.74 41.7891 1584.74 49.9314 Q1584.74 58.0738 1588.18 62.7728 Q1591.67 67.4314 1597.7 67.4314 Q1603.66 67.4314 1607.14 62.7323 Q1610.63 58.0333 1610.63 49.9314 Q1610.63 41.8701 1607.14 37.1711 Q1603.66 32.4315 1597.7 32.4315 M1597.7 26.1121 Q1607.43 26.1121 1612.98 32.4315 Q1618.53 38.7509 1618.53 49.9314 Q1618.53 61.0714 1612.98 67.4314 Q1607.43 73.7508 1597.7 73.7508 Q1587.94 73.7508 1582.39 67.4314 Q1576.88 61.0714 1576.88 49.9314 Q1576.88 38.7509 1582.39 32.4315 Q1587.94 26.1121 1597.7 26.1121 Z" fill="#000000" fill-rule="nonzero" fill-opacity="1" /><path clip-path="url(#clip510)" d="M1630.88 9.54393 L1638.33 9.54393 L1638.33 72.576 L1630.88 72.576 L1630.88 9.54393 Z" fill="#000000" fill-rule="nonzero" fill-opacity="1" /><path clip-path="url(#clip510)" d="M1653.16 54.671 L1653.16 27.2059 L1660.61 27.2059 L1660.61 54.3874 Q1660.61 60.8284 1663.13 64.0691 Q1665.64 67.2693 1670.66 67.2693 Q1676.7 67.2693 1680.18 63.421 Q1683.7 59.5726 1683.7 52.9291 L1683.7 27.2059 L1691.16 27.2059 L1691.16 72.576 L1683.7 72.576 L1683.7 65.6084 Q1680.99 69.7404 1677.39 71.7658 Q1673.82 73.7508 1669.08 73.7508 Q1661.26 73.7508 1657.21 68.8897 Q1653.16 64.0286 1653.16 54.671 M1671.92 26.1121 L1671.92 26.1121 Z" fill="#000000" fill-rule="nonzero" fill-opacity="1" /><path clip-path="url(#clip510)" d="M1713.88 14.324 L1713.88 27.2059 L1729.24 27.2059 L1729.24 32.9987 L1713.88 32.9987 L1713.88 57.6282 Q1713.88 63.1779 1715.38 64.7578 Q1716.92 66.3376 1721.58 66.3376 L1729.24 66.3376 L1729.24 72.576 L1721.58 72.576 Q1712.95 72.576 1709.67 69.3758 Q1706.39 66.1351 1706.39 57.6282 L1706.39 32.9987 L1700.92 32.9987 L1700.92 27.2059 L1706.39 27.2059 L1706.39 14.324 L1713.88 14.324 Z" fill="#000000" fill-rule="nonzero" fill-opacity="1" /><path clip-path="url(#clip510)" d="M1739.04 27.2059 L1746.49 27.2059 L1746.49 72.576 L1739.04 72.576 L1739.04 27.2059 M1739.04 9.54393 L1746.49 9.54393 L1746.49 18.9825 L1739.04 18.9825 L1739.04 9.54393 Z" fill="#000000" fill-rule="nonzero" fill-opacity="1" /><path clip-path="url(#clip510)" d="M1779.67 32.4315 Q1773.68 32.4315 1770.19 37.1306 Q1766.71 41.7891 1766.71 49.9314 Q1766.71 58.0738 1770.15 62.7728 Q1773.63 67.4314 1779.67 67.4314 Q1785.63 67.4314 1789.11 62.7323 Q1792.59 58.0333 1792.59 49.9314 Q1792.59 41.8701 1789.11 37.1711 Q1785.63 32.4315 1779.67 32.4315 M1779.67 26.1121 Q1789.39 26.1121 1794.94 32.4315 Q1800.49 38.7509 1800.49 49.9314 Q1800.49 61.0714 1794.94 67.4314 Q1789.39 73.7508 1779.67 73.7508 Q1769.91 73.7508 1764.36 67.4314 Q1758.85 61.0714 1758.85 49.9314 Q1758.85 38.7509 1764.36 32.4315 Q1769.91 26.1121 1779.67 26.1121 Z" fill="#000000" fill-rule="nonzero" fill-opacity="1" /><path clip-path="url(#clip510)" d="M1850.56 45.1919 L1850.56 72.576 L1843.11 72.576 L1843.11 45.4349 Q1843.11 38.994 1840.6 35.7938 Q1838.08 32.5936 1833.06 32.5936 Q1827.03 32.5936 1823.54 36.4419 Q1820.06 40.2903 1820.06 46.9338 L1820.06 72.576 L1812.56 72.576 L1812.56 27.2059 L1820.06 27.2059 L1820.06 34.2544 Q1822.73 30.163 1826.34 28.1376 Q1829.98 26.1121 1834.72 26.1121 Q1842.54 26.1121 1846.55 30.9732 Q1850.56 35.7938 1850.56 45.1919 Z" fill="#000000" fill-rule="nonzero" fill-opacity="1" /><polyline clip-path="url(#clip512)" style="stroke:#009af9; stroke-linecap:round; stroke-linejoin:round; stroke-width:4; stroke-opacity:1; fill:none" points="280.231,970.031 386.134,401.207 492.037,209.379 597.941,171.182 703.844,160.471 809.747,160.256 915.65,163.242 1021.55,167.288 1127.46,171.755 1233.36,176.494 1339.26,181.487 1445.17,186.592 1551.07,191.548 1656.97,196.204 1762.88,200.562 1868.78,204.662 1974.68,208.562 2080.58,212.349 2186.49,216.118 2292.39,219.894 "/>
<polyline clip-path="url(#clip512)" style="stroke:#e26f46; stroke-linecap:round; stroke-linejoin:round; stroke-width:4; stroke-opacity:1; fill:none" points="280.231,832.498 386.134,1268.37 492.037,1345.77 597.941,1378.3 703.844,1386.4 809.747,1382.34 915.65,1375.05 1021.55,1367.01 1127.46,1358.9 1233.36,1350.81 1339.26,1342.7 1445.17,1334.75 1551.07,1327.3 1656.97,1320.54 1762.88,1314.4 1868.78,1308.79 1974.68,1303.58 2080.58,1298.62 2186.49,1293.74 2292.39,1288.91 "/>
<path clip-path="url(#clip510)" d="M2016.19 322.316 L2281.66 322.316 L2281.66 166.796 L2016.19 166.796  Z" fill="#ffffff" fill-rule="evenodd" fill-opacity="1"/>
<polyline clip-path="url(#clip510)" style="stroke:#000000; stroke-linecap:round; stroke-linejoin:round; stroke-width:4; stroke-opacity:1; fill:none" points="2016.19,322.316 2281.66,322.316 2281.66,166.796 2016.19,166.796 2016.19,322.316 "/>
<polyline clip-path="url(#clip510)" style="stroke:#009af9; stroke-linecap:round; stroke-linejoin:round; stroke-width:4; stroke-opacity:1; fill:none" points="2039.89,218.636 2182.09,218.636 "/>
<path clip-path="url(#clip510)" d="M2225.04 219.481 L2210.3 219.481 Q2210.65 226.402 2212.24 229.342 Q2214.23 232.953 2217.68 232.953 Q2221.16 232.953 2223.08 229.319 Q2224.77 226.124 2225.04 219.481 M2224.97 215.545 Q2224.33 208.971 2223.08 206.657 Q2221.09 202.999 2217.68 202.999 Q2214.14 202.999 2212.27 206.61 Q2210.79 209.527 2210.35 215.545 L2224.97 215.545 M2217.68 199.527 Q2223.24 199.527 2226.41 204.434 Q2229.58 209.319 2229.58 217.976 Q2229.58 226.61 2226.41 231.518 Q2223.24 236.448 2217.68 236.448 Q2212.1 236.448 2208.96 231.518 Q2205.79 226.61 2205.79 217.976 Q2205.79 209.319 2208.96 204.434 Q2212.1 199.527 2217.68 199.527 Z" fill="#000000" fill-rule="nonzero" fill-opacity="1" /><path clip-path="url(#clip510)" d="M2238.05 231.981 L2245.69 231.981 L2245.69 205.615 L2237.38 207.282 L2237.38 203.022 L2245.65 201.356 L2250.32 201.356 L2250.32 231.981 L2257.96 231.981 L2257.96 235.916 L2238.05 235.916 L2238.05 231.981 Z" fill="#000000" fill-rule="nonzero" fill-opacity="1" /><polyline clip-path="url(#clip510)" style="stroke:#e26f46; stroke-linecap:round; stroke-linejoin:round; stroke-width:4; stroke-opacity:1; fill:none" points="2039.89,270.476 2182.09,270.476 "/>
<path clip-path="url(#clip510)" d="M2225.04 271.321 L2210.3 271.321 Q2210.65 278.242 2212.24 281.182 Q2214.23 284.793 2217.68 284.793 Q2221.16 284.793 2223.08 281.159 Q2224.77 277.964 2225.04 271.321 M2224.97 267.385 Q2224.33 260.811 2223.08 258.497 Q2221.09 254.839 2217.68 254.839 Q2214.14 254.839 2212.27 258.45 Q2210.79 261.367 2210.35 267.385 L2224.97 267.385 M2217.68 251.367 Q2223.24 251.367 2226.41 256.274 Q2229.58 261.159 2229.58 269.816 Q2229.58 278.45 2226.41 283.358 Q2223.24 288.288 2217.68 288.288 Q2212.1 288.288 2208.96 283.358 Q2205.79 278.45 2205.79 269.816 Q2205.79 261.159 2208.96 256.274 Q2212.1 251.367 2217.68 251.367 Z" fill="#000000" fill-rule="nonzero" fill-opacity="1" /><path clip-path="url(#clip510)" d="M2241.27 283.821 L2257.59 283.821 L2257.59 287.756 L2235.65 287.756 L2235.65 283.821 Q2238.31 281.066 2242.89 276.436 Q2247.5 271.784 2248.68 270.441 Q2250.92 267.918 2251.8 266.182 Q2252.71 264.423 2252.71 262.733 Q2252.71 259.978 2250.76 258.242 Q2248.84 256.506 2245.74 256.506 Q2243.54 256.506 2241.09 257.27 Q2238.66 258.034 2235.88 259.585 L2235.88 254.862 Q2238.7 253.728 2241.16 253.149 Q2243.61 252.571 2245.65 252.571 Q2251.02 252.571 2254.21 255.256 Q2257.41 257.941 2257.41 262.432 Q2257.41 264.561 2256.6 266.483 Q2255.81 268.381 2253.7 270.973 Q2253.12 271.645 2250.02 274.862 Q2246.92 278.057 2241.27 283.821 Z" fill="#000000" fill-rule="nonzero" fill-opacity="1" /></svg>
