<?xml version="1.0" encoding="utf-8"?>
<svg xmlns="http://www.w3.org/2000/svg" xmlns:xlink="http://www.w3.org/1999/xlink" width="600" height="400" viewBox="0 0 2400 1600">
<defs>
  <clipPath id="clip420">
    <rect x="0" y="0" width="2400" height="1600"/>
  </clipPath>
</defs>
<path clip-path="url(#clip420)" d="M0 1600 L2400 1600 L2400 8.88178e-14 L0 8.88178e-14  Z" fill="#ffffff" fill-rule="evenodd" fill-opacity="1"/>
<defs>
  <clipPath id="clip421">
    <rect x="257" y="47" width="2097" height="1377"/>
  </clipPath>
</defs>
<path clip-path="url(#clip420)" d="M205.121 1423.18 L2352.76 1423.18 L2352.76 47.2441 L205.121 47.2441  Z" fill="#ffffff" fill-rule="evenodd" fill-opacity="1"/>
<defs>
  <clipPath id="clip422">
    <rect x="205" y="47" width="2149" height="1377"/>
  </clipPath>
</defs>
<polyline clip-path="url(#clip422)" style="stroke:#000000; stroke-linecap:round; stroke-linejoin:round; stroke-width:2; stroke-opacity:0.1; fill:none" points="692.444,1423.18 692.444,47.2441 "/>
<polyline clip-path="url(#clip422)" style="stroke:#000000; stroke-linecap:round; stroke-linejoin:round; stroke-width:2; stroke-opacity:0.1; fill:none" points="1225.62,1423.18 1225.62,47.2441 "/>
<polyline clip-path="url(#clip422)" style="stroke:#000000; stroke-linecap:round; stroke-linejoin:round; stroke-width:2; stroke-opacity:0.1; fill:none" points="1758.8,1423.18 1758.8,47.2441 "/>
<polyline clip-path="url(#clip422)" style="stroke:#000000; stroke-linecap:round; stroke-linejoin:round; stroke-width:2; stroke-opacity:0.1; fill:none" points="2291.97,1423.18 2291.97,47.2441 "/>
<polyline clip-path="url(#clip422)" style="stroke:#000000; stroke-linecap:round; stroke-linejoin:round; stroke-width:2; stroke-opacity:0.1; fill:none" points="205.121,1416.32 2352.76,1416.32 "/>
<polyline clip-path="url(#clip422)" style="stroke:#000000; stroke-linecap:round; stroke-linejoin:round; stroke-width:2; stroke-opacity:0.1; fill:none" points="205.121,1128.6 2352.76,1128.6 "/>
<polyline clip-path="url(#clip422)" style="stroke:#000000; stroke-linecap:round; stroke-linejoin:round; stroke-width:2; stroke-opacity:0.1; fill:none" points="205.121,840.874 2352.76,840.874 "/>
<polyline clip-path="url(#clip422)" style="stroke:#000000; stroke-linecap:round; stroke-linejoin:round; stroke-width:2; stroke-opacity:0.1; fill:none" points="205.121,553.15 2352.76,553.15 "/>
<polyline clip-path="url(#clip422)" style="stroke:#000000; stroke-linecap:round; stroke-linejoin:round; stroke-width:2; stroke-opacity:0.1; fill:none" points="205.121,265.425 2352.76,265.425 "/>
<polyline clip-path="url(#clip420)" style="stroke:#000000; stroke-linecap:round; stroke-linejoin:round; stroke-width:4; stroke-opacity:1; fill:none" points="205.121,1423.18 2352.76,1423.18 "/>
<polyline clip-path="url(#clip420)" style="stroke:#000000; stroke-linecap:round; stroke-linejoin:round; stroke-width:4; stroke-opacity:1; fill:none" points="692.444,1423.18 692.444,1404.28 "/>
<polyline clip-path="url(#clip420)" style="stroke:#000000; stroke-linecap:round; stroke-linejoin:round; stroke-width:4; stroke-opacity:1; fill:none" points="1225.62,1423.18 1225.62,1404.28 "/>
<polyline clip-path="url(#clip420)" style="stroke:#000000; stroke-linecap:round; stroke-linejoin:round; stroke-width:4; stroke-opacity:1; fill:none" points="1758.8,1423.18 1758.8,1404.28 "/>
<polyline clip-path="url(#clip420)" style="stroke:#000000; stroke-linecap:round; stroke-linejoin:round; stroke-width:4; stroke-opacity:1; fill:none" points="2291.97,1423.18 2291.97,1404.28 "/>
<path clip-path="url(#clip420)" d="M682.722 1451.02 L701.079 1451.02 L701.079 1454.96 L687.005 1454.96 L687.005 1463.43 Q688.023 1463.08 689.042 1462.92 Q690.06 1462.73 691.079 1462.73 Q696.866 1462.73 700.245 1465.9 Q703.625 1469.08 703.625 1474.49 Q703.625 1480.07 700.153 1483.17 Q696.68 1486.25 690.361 1486.25 Q688.185 1486.25 685.917 1485.88 Q683.671 1485.51 681.264 1484.77 L681.264 1480.07 Q683.347 1481.2 685.569 1481.76 Q687.792 1482.32 690.268 1482.32 Q694.273 1482.32 696.611 1480.21 Q698.949 1478.1 698.949 1474.49 Q698.949 1470.88 696.611 1468.77 Q694.273 1466.67 690.268 1466.67 Q688.393 1466.67 686.518 1467.08 Q684.667 1467.5 682.722 1468.38 L682.722 1451.02 Z" fill="#000000" fill-rule="nonzero" fill-opacity="1" /><path clip-path="url(#clip420)" d="M1200.31 1481.64 L1207.95 1481.64 L1207.95 1455.28 L1199.64 1456.95 L1199.64 1452.69 L1207.9 1451.02 L1212.58 1451.02 L1212.58 1481.64 L1220.22 1481.64 L1220.22 1485.58 L1200.31 1485.58 L1200.31 1481.64 Z" fill="#000000" fill-rule="nonzero" fill-opacity="1" /><path clip-path="url(#clip420)" d="M1239.66 1454.1 Q1236.05 1454.1 1234.22 1457.66 Q1232.41 1461.2 1232.41 1468.33 Q1232.41 1475.44 1234.22 1479.01 Q1236.05 1482.55 1239.66 1482.55 Q1243.29 1482.55 1245.1 1479.01 Q1246.93 1475.44 1246.93 1468.33 Q1246.93 1461.2 1245.1 1457.66 Q1243.29 1454.1 1239.66 1454.1 M1239.66 1450.39 Q1245.47 1450.39 1248.53 1455 Q1251.6 1459.58 1251.6 1468.33 Q1251.6 1477.06 1248.53 1481.67 Q1245.47 1486.25 1239.66 1486.25 Q1233.85 1486.25 1230.77 1481.67 Q1227.72 1477.06 1227.72 1468.33 Q1227.72 1459.58 1230.77 1455 Q1233.85 1450.39 1239.66 1450.39 Z" fill="#000000" fill-rule="nonzero" fill-opacity="1" /><path clip-path="url(#clip420)" d="M1733.98 1481.64 L1741.62 1481.64 L1741.62 1455.28 L1733.31 1456.95 L1733.31 1452.69 L1741.58 1451.02 L1746.25 1451.02 L1746.25 1481.64 L1753.89 1481.64 L1753.89 1485.58 L1733.98 1485.58 L1733.98 1481.64 Z" fill="#000000" fill-rule="nonzero" fill-opacity="1" /><path clip-path="url(#clip420)" d="M1763.38 1451.02 L1781.74 1451.02 L1781.74 1454.96 L1767.66 1454.96 L1767.66 1463.43 Q1768.68 1463.08 1769.7 1462.92 Q1770.72 1462.73 1771.74 1462.73 Q1777.52 1462.73 1780.9 1465.9 Q1784.28 1469.08 1784.28 1474.49 Q1784.28 1480.07 1780.81 1483.17 Q1777.34 1486.25 1771.02 1486.25 Q1768.84 1486.25 1766.58 1485.88 Q1764.33 1485.51 1761.92 1484.77 L1761.92 1480.07 Q1764.01 1481.2 1766.23 1481.76 Q1768.45 1482.32 1770.93 1482.32 Q1774.93 1482.32 1777.27 1480.21 Q1779.61 1478.1 1779.61 1474.49 Q1779.61 1470.88 1777.27 1468.77 Q1774.93 1466.67 1770.93 1466.67 Q1769.05 1466.67 1767.18 1467.08 Q1765.33 1467.5 1763.38 1468.38 L1763.38 1451.02 Z" fill="#000000" fill-rule="nonzero" fill-opacity="1" /><path clip-path="url(#clip420)" d="M2270.75 1481.64 L2287.07 1481.64 L2287.07 1485.58 L2265.12 1485.58 L2265.12 1481.64 Q2267.78 1478.89 2272.37 1474.26 Q2276.97 1469.61 2278.15 1468.27 Q2280.4 1465.74 2281.28 1464.01 Q2282.18 1462.25 2282.18 1460.56 Q2282.18 1457.8 2280.24 1456.07 Q2278.32 1454.33 2275.21 1454.33 Q2273.02 1454.33 2270.56 1455.09 Q2268.13 1455.86 2265.35 1457.41 L2265.35 1452.69 Q2268.18 1451.55 2270.63 1450.97 Q2273.08 1450.39 2275.12 1450.39 Q2280.49 1450.39 2283.69 1453.08 Q2286.88 1455.77 2286.88 1460.26 Q2286.88 1462.39 2286.07 1464.31 Q2285.28 1466.2 2283.18 1468.8 Q2282.6 1469.47 2279.5 1472.69 Q2276.4 1475.88 2270.75 1481.64 Z" fill="#000000" fill-rule="nonzero" fill-opacity="1" /><path clip-path="url(#clip420)" d="M2306.88 1454.1 Q2303.27 1454.1 2301.44 1457.66 Q2299.64 1461.2 2299.64 1468.33 Q2299.64 1475.44 2301.44 1479.01 Q2303.27 1482.55 2306.88 1482.55 Q2310.52 1482.55 2312.32 1479.01 Q2314.15 1475.44 2314.15 1468.33 Q2314.15 1461.2 2312.32 1457.66 Q2310.52 1454.1 2306.88 1454.1 M2306.88 1450.39 Q2312.69 1450.39 2315.75 1455 Q2318.83 1459.58 2318.83 1468.33 Q2318.83 1477.06 2315.75 1481.67 Q2312.69 1486.25 2306.88 1486.25 Q2301.07 1486.25 2297.99 1481.67 Q2294.94 1477.06 2294.94 1468.33 Q2294.94 1459.58 2297.99 1455 Q2301.07 1450.39 2306.88 1450.39 Z" fill="#000000" fill-rule="nonzero" fill-opacity="1" /><path clip-path="url(#clip420)" d="M1128.5 1520.52 L1134.93 1520.52 L1134.93 1568.04 L1128.5 1568.04 L1128.5 1520.52 Z" fill="#000000" fill-rule="nonzero" fill-opacity="1" /><path clip-path="url(#clip420)" d="M1153.26 1522.27 L1153.26 1532.4 L1165.33 1532.4 L1165.33 1536.95 L1153.26 1536.95 L1153.26 1556.3 Q1153.26 1560.66 1154.44 1561.9 Q1155.65 1563.14 1159.31 1563.14 L1165.33 1563.14 L1165.33 1568.04 L1159.31 1568.04 Q1152.53 1568.04 1149.95 1565.53 Q1147.38 1562.98 1147.38 1556.3 L1147.38 1536.95 L1143.08 1536.95 L1143.08 1532.4 L1147.38 1532.4 L1147.38 1522.27 L1153.26 1522.27 Z" fill="#000000" fill-rule="nonzero" fill-opacity="1" /><path clip-path="url(#clip420)" d="M1203.52 1548.76 L1203.52 1551.62 L1176.59 1551.62 Q1176.98 1557.67 1180.22 1560.85 Q1183.5 1564 1189.33 1564 Q1192.7 1564 1195.85 1563.17 Q1199.03 1562.35 1202.15 1560.69 L1202.15 1566.23 Q1199 1567.57 1195.69 1568.27 Q1192.38 1568.97 1188.98 1568.97 Q1180.45 1568.97 1175.45 1564 Q1170.48 1559.04 1170.48 1550.57 Q1170.48 1541.82 1175.19 1536.69 Q1179.94 1531.54 1187.96 1531.54 Q1195.15 1531.54 1199.32 1536.18 Q1203.52 1540.8 1203.52 1548.76 M1197.66 1547.04 Q1197.6 1542.23 1194.96 1539.37 Q1192.35 1536.5 1188.02 1536.5 Q1183.12 1536.5 1180.16 1539.27 Q1177.23 1542.04 1176.78 1547.07 L1197.66 1547.04 Z" fill="#000000" fill-rule="nonzero" fill-opacity="1" /><path clip-path="url(#clip420)" d="M1233.79 1537.87 Q1232.8 1537.3 1231.63 1537.04 Q1230.48 1536.76 1229.08 1536.76 Q1224.11 1536.76 1221.44 1540 Q1218.8 1543.22 1218.8 1549.27 L1218.8 1568.04 L1212.91 1568.04 L1212.91 1532.4 L1218.8 1532.4 L1218.8 1537.93 Q1220.64 1534.69 1223.6 1533.13 Q1226.56 1531.54 1230.8 1531.54 Q1231.4 1531.54 1232.13 1531.63 Q1232.87 1531.7 1233.76 1531.85 L1233.79 1537.87 Z" fill="#000000" fill-rule="nonzero" fill-opacity="1" /><path clip-path="url(#clip420)" d="M1256.13 1550.12 Q1249.04 1550.12 1246.3 1551.75 Q1243.56 1553.37 1243.56 1557.29 Q1243.56 1560.4 1245.6 1562.25 Q1247.67 1564.07 1251.2 1564.07 Q1256.07 1564.07 1259 1560.63 Q1261.96 1557.16 1261.96 1551.43 L1261.96 1550.12 L1256.13 1550.12 M1267.81 1547.71 L1267.81 1568.04 L1261.96 1568.04 L1261.96 1562.63 Q1259.95 1565.88 1256.96 1567.44 Q1253.97 1568.97 1249.64 1568.97 Q1244.17 1568.97 1240.92 1565.91 Q1237.7 1562.82 1237.7 1557.67 Q1237.7 1551.65 1241.71 1548.6 Q1245.76 1545.54 1253.75 1545.54 L1261.96 1545.54 L1261.96 1544.97 Q1261.96 1540.93 1259.28 1538.73 Q1256.64 1536.5 1251.84 1536.5 Q1248.78 1536.5 1245.88 1537.23 Q1242.99 1537.97 1240.31 1539.43 L1240.31 1534.02 Q1243.53 1532.78 1246.55 1532.17 Q1249.58 1531.54 1252.44 1531.54 Q1260.18 1531.54 1263.99 1535.55 Q1267.81 1539.56 1267.81 1547.71 Z" fill="#000000" fill-rule="nonzero" fill-opacity="1" /><path clip-path="url(#clip420)" d="M1285.67 1522.27 L1285.67 1532.4 L1297.73 1532.4 L1297.73 1536.95 L1285.67 1536.95 L1285.67 1556.3 Q1285.67 1560.66 1286.85 1561.9 Q1288.06 1563.14 1291.72 1563.14 L1297.73 1563.14 L1297.73 1568.04 L1291.72 1568.04 Q1284.94 1568.04 1282.36 1565.53 Q1279.78 1562.98 1279.78 1556.3 L1279.78 1536.95 L1275.49 1536.95 L1275.49 1532.4 L1279.78 1532.4 L1279.78 1522.27 L1285.67 1522.27 Z" fill="#000000" fill-rule="nonzero" fill-opacity="1" /><path clip-path="url(#clip420)" d="M1305.44 1532.4 L1311.29 1532.4 L1311.29 1568.04 L1305.44 1568.04 L1305.44 1532.4 M1305.44 1518.52 L1311.29 1518.52 L1311.29 1525.93 L1305.44 1525.93 L1305.44 1518.52 Z" fill="#000000" fill-rule="nonzero" fill-opacity="1" /><path clip-path="url(#clip420)" d="M1337.36 1536.5 Q1332.65 1536.5 1329.91 1540.19 Q1327.17 1543.85 1327.17 1550.25 Q1327.17 1556.65 1329.88 1560.34 Q1332.62 1564 1337.36 1564 Q1342.04 1564 1344.78 1560.31 Q1347.51 1556.62 1347.51 1550.25 Q1347.51 1543.92 1344.78 1540.23 Q1342.04 1536.5 1337.36 1536.5 M1337.36 1531.54 Q1345 1531.54 1349.36 1536.5 Q1353.72 1541.47 1353.72 1550.25 Q1353.72 1559 1349.36 1564 Q1345 1568.97 1337.36 1568.97 Q1329.69 1568.97 1325.33 1564 Q1321 1559 1321 1550.25 Q1321 1541.47 1325.33 1536.5 Q1329.69 1531.54 1337.36 1531.54 Z" fill="#000000" fill-rule="nonzero" fill-opacity="1" /><path clip-path="url(#clip420)" d="M1393.06 1546.53 L1393.06 1568.04 L1387.2 1568.04 L1387.2 1546.72 Q1387.2 1541.66 1385.23 1539.14 Q1383.26 1536.63 1379.31 1536.63 Q1374.57 1536.63 1371.83 1539.65 Q1369.09 1542.68 1369.09 1547.9 L1369.09 1568.04 L1363.2 1568.04 L1363.2 1532.4 L1369.09 1532.4 L1369.09 1537.93 Q1371.19 1534.72 1374.03 1533.13 Q1376.89 1531.54 1380.61 1531.54 Q1386.76 1531.54 1389.91 1535.36 Q1393.06 1539.14 1393.06 1546.53 Z" fill="#000000" fill-rule="nonzero" fill-opacity="1" /><path clip-path="url(#clip420)" d="M1427.47 1533.45 L1427.47 1538.98 Q1424.98 1537.71 1422.31 1537.07 Q1419.64 1536.44 1416.77 1536.44 Q1412.41 1536.44 1410.22 1537.77 Q1408.05 1539.11 1408.05 1541.79 Q1408.05 1543.82 1409.61 1545 Q1411.17 1546.15 1415.88 1547.2 L1417.89 1547.64 Q1424.12 1548.98 1426.73 1551.43 Q1429.38 1553.85 1429.38 1558.21 Q1429.38 1563.17 1425.43 1566.07 Q1421.51 1568.97 1414.64 1568.97 Q1411.77 1568.97 1408.66 1568.39 Q1405.57 1567.85 1402.13 1566.74 L1402.13 1560.69 Q1405.38 1562.38 1408.53 1563.24 Q1411.68 1564.07 1414.77 1564.07 Q1418.9 1564.07 1421.13 1562.66 Q1423.36 1561.23 1423.36 1558.65 Q1423.36 1556.27 1421.74 1554.99 Q1420.15 1553.72 1414.7 1552.54 L1412.67 1552.07 Q1407.22 1550.92 1404.8 1548.56 Q1402.39 1546.18 1402.39 1542.04 Q1402.39 1537.01 1405.95 1534.27 Q1409.51 1531.54 1416.07 1531.54 Q1419.32 1531.54 1422.18 1532.01 Q1425.05 1532.49 1427.47 1533.45 Z" fill="#000000" fill-rule="nonzero" fill-opacity="1" /><polyline clip-path="url(#clip420)" style="stroke:#000000; stroke-linecap:round; stroke-linejoin:round; stroke-width:4; stroke-opacity:1; fill:none" points="205.121,1423.18 205.121,47.2441 "/>
<polyline clip-path="url(#clip420)" style="stroke:#000000; stroke-linecap:round; stroke-linejoin:round; stroke-width:4; stroke-opacity:1; fill:none" points="205.121,1416.32 224.019,1416.32 "/>
<polyline clip-path="url(#clip420)" style="stroke:#000000; stroke-linecap:round; stroke-linejoin:round; stroke-width:4; stroke-opacity:1; fill:none" points="205.121,1128.6 224.019,1128.6 "/>
<polyline clip-path="url(#clip420)" style="stroke:#000000; stroke-linecap:round; stroke-linejoin:round; stroke-width:4; stroke-opacity:1; fill:none" points="205.121,840.874 224.019,840.874 "/>
<polyline clip-path="url(#clip420)" style="stroke:#000000; stroke-linecap:round; stroke-linejoin:round; stroke-width:4; stroke-opacity:1; fill:none" points="205.121,553.15 224.019,553.15 "/>
<polyline clip-path="url(#clip420)" style="stroke:#000000; stroke-linecap:round; stroke-linejoin:round; stroke-width:4; stroke-opacity:1; fill:none" points="205.121,265.425 224.019,265.425 "/>
<path clip-path="url(#clip420)" d="M157.177 1402.12 Q153.566 1402.12 151.737 1405.69 Q149.931 1409.23 149.931 1416.36 Q149.931 1423.46 151.737 1427.03 Q153.566 1430.57 157.177 1430.57 Q160.811 1430.57 162.616 1427.03 Q164.445 1423.46 164.445 1416.36 Q164.445 1409.23 162.616 1405.69 Q160.811 1402.12 157.177 1402.12 M157.177 1398.42 Q162.987 1398.42 166.042 1403.03 Q169.121 1407.61 169.121 1416.36 Q169.121 1425.09 166.042 1429.69 Q162.987 1434.27 157.177 1434.27 Q151.366 1434.27 148.288 1429.69 Q145.232 1425.09 145.232 1416.36 Q145.232 1407.61 148.288 1403.03 Q151.366 1398.42 157.177 1398.42 Z" fill="#000000" fill-rule="nonzero" fill-opacity="1" /><path clip-path="url(#clip420)" d="M117.825 1141.94 L125.464 1141.94 L125.464 1115.58 L117.154 1117.24 L117.154 1112.99 L125.418 1111.32 L130.093 1111.32 L130.093 1141.94 L137.732 1141.94 L137.732 1145.88 L117.825 1145.88 L117.825 1141.94 Z" fill="#000000" fill-rule="nonzero" fill-opacity="1" /><path clip-path="url(#clip420)" d="M157.177 1114.4 Q153.566 1114.4 151.737 1117.96 Q149.931 1121.5 149.931 1128.63 Q149.931 1135.74 151.737 1139.31 Q153.566 1142.85 157.177 1142.85 Q160.811 1142.85 162.616 1139.31 Q164.445 1135.74 164.445 1128.63 Q164.445 1121.5 162.616 1117.96 Q160.811 1114.4 157.177 1114.4 M157.177 1110.69 Q162.987 1110.69 166.042 1115.3 Q169.121 1119.88 169.121 1128.63 Q169.121 1137.36 166.042 1141.97 Q162.987 1146.55 157.177 1146.55 Q151.366 1146.55 148.288 1141.97 Q145.232 1137.36 145.232 1128.63 Q145.232 1119.88 148.288 1115.3 Q151.366 1110.69 157.177 1110.69 Z" fill="#000000" fill-rule="nonzero" fill-opacity="1" /><path clip-path="url(#clip420)" d="M121.043 854.219 L137.362 854.219 L137.362 858.154 L115.418 858.154 L115.418 854.219 Q118.08 851.465 122.663 846.835 Q127.269 842.182 128.45 840.84 Q130.695 838.317 131.575 836.58 Q132.478 834.821 132.478 833.131 Q132.478 830.377 130.533 828.641 Q128.612 826.905 125.51 826.905 Q123.311 826.905 120.857 827.668 Q118.427 828.432 115.649 829.983 L115.649 825.261 Q118.473 824.127 120.927 823.548 Q123.38 822.969 125.418 822.969 Q130.788 822.969 133.982 825.655 Q137.177 828.34 137.177 832.83 Q137.177 834.96 136.367 836.881 Q135.579 838.779 133.473 841.372 Q132.894 842.043 129.792 845.261 Q126.691 848.455 121.043 854.219 Z" fill="#000000" fill-rule="nonzero" fill-opacity="1" /><path clip-path="url(#clip420)" d="M157.177 826.673 Q153.566 826.673 151.737 830.238 Q149.931 833.78 149.931 840.909 Q149.931 848.016 151.737 851.58 Q153.566 855.122 157.177 855.122 Q160.811 855.122 162.616 851.58 Q164.445 848.016 164.445 840.909 Q164.445 833.78 162.616 830.238 Q160.811 826.673 157.177 826.673 M157.177 822.969 Q162.987 822.969 166.042 827.576 Q169.121 832.159 169.121 840.909 Q169.121 849.636 166.042 854.242 Q162.987 858.826 157.177 858.826 Q151.366 858.826 148.288 854.242 Q145.232 849.636 145.232 840.909 Q145.232 832.159 148.288 827.576 Q151.366 822.969 157.177 822.969 Z" fill="#000000" fill-rule="nonzero" fill-opacity="1" /><path clip-path="url(#clip420)" d="M131.181 551.796 Q134.538 552.513 136.413 554.782 Q138.311 557.05 138.311 560.384 Q138.311 565.499 134.792 568.3 Q131.274 571.101 124.793 571.101 Q122.617 571.101 120.302 570.661 Q118.01 570.245 115.556 569.388 L115.556 564.874 Q117.501 566.008 119.816 566.587 Q122.13 567.166 124.654 567.166 Q129.052 567.166 131.343 565.43 Q133.658 563.694 133.658 560.384 Q133.658 557.328 131.505 555.615 Q129.376 553.879 125.556 553.879 L121.529 553.879 L121.529 550.036 L125.742 550.036 Q129.191 550.036 131.019 548.671 Q132.848 547.282 132.848 544.689 Q132.848 542.027 130.95 540.615 Q129.075 539.18 125.556 539.18 Q123.635 539.18 121.436 539.597 Q119.237 540.013 116.598 540.893 L116.598 536.726 Q119.26 535.985 121.575 535.615 Q123.913 535.245 125.973 535.245 Q131.297 535.245 134.399 537.675 Q137.501 540.083 137.501 544.203 Q137.501 547.073 135.857 549.064 Q134.214 551.032 131.181 551.796 Z" fill="#000000" fill-rule="nonzero" fill-opacity="1" /><path clip-path="url(#clip420)" d="M157.177 538.948 Q153.566 538.948 151.737 542.513 Q149.931 546.055 149.931 553.184 Q149.931 560.291 151.737 563.856 Q153.566 567.397 157.177 567.397 Q160.811 567.397 162.616 563.856 Q164.445 560.291 164.445 553.184 Q164.445 546.055 162.616 542.513 Q160.811 538.948 157.177 538.948 M157.177 535.245 Q162.987 535.245 166.042 539.851 Q169.121 544.435 169.121 553.184 Q169.121 561.911 166.042 566.518 Q162.987 571.101 157.177 571.101 Q151.366 571.101 148.288 566.518 Q145.232 561.911 145.232 553.184 Q145.232 544.435 148.288 539.851 Q151.366 535.245 157.177 535.245 Z" fill="#000000" fill-rule="nonzero" fill-opacity="1" /><path clip-path="url(#clip420)" d="M129.862 252.219 L118.056 270.668 L129.862 270.668 L129.862 252.219 M128.635 248.145 L134.515 248.145 L134.515 270.668 L139.445 270.668 L139.445 274.557 L134.515 274.557 L134.515 282.705 L129.862 282.705 L129.862 274.557 L114.26 274.557 L114.26 270.043 L128.635 248.145 Z" fill="#000000" fill-rule="nonzero" fill-opacity="1" /><path clip-path="url(#clip420)" d="M157.177 251.224 Q153.566 251.224 151.737 254.789 Q149.931 258.33 149.931 265.46 Q149.931 272.566 151.737 276.131 Q153.566 279.673 157.177 279.673 Q160.811 279.673 162.616 276.131 Q164.445 272.566 164.445 265.46 Q164.445 258.33 162.616 254.789 Q160.811 251.224 157.177 251.224 M157.177 247.52 Q162.987 247.52 166.042 252.127 Q169.121 256.71 169.121 265.46 Q169.121 274.187 166.042 278.793 Q162.987 283.376 157.177 283.376 Q151.366 283.376 148.288 278.793 Q145.232 274.187 145.232 265.46 Q145.232 256.71 148.288 252.127 Q151.366 247.52 157.177 247.52 Z" fill="#000000" fill-rule="nonzero" fill-opacity="1" /><path clip-path="url(#clip420)" d="M16.4842 769.268 L16.4842 741.96 L21.895 741.96 L21.895 762.839 L35.8996 762.839 L35.8996 743.997 L41.3104 743.997 L41.3104 762.839 L64.0042 762.839 L64.0042 769.268 L16.4842 769.268 Z" fill="#000000" fill-rule="nonzero" fill-opacity="1" /><path clip-path="url(#clip420)" d="M16.4842 731.774 L16.4842 701.728 L21.895 701.728 L21.895 725.345 L35.9632 725.345 L35.9632 702.715 L41.3741 702.715 L41.3741 725.345 L58.5933 725.345 L58.5933 701.155 L64.0042 701.155 L64.0042 731.774 L16.4842 731.774 Z" fill="#000000" fill-rule="nonzero" fill-opacity="1" /><polyline clip-path="url(#clip422)" style="stroke:#009af9; stroke-linecap:round; stroke-linejoin:round; stroke-width:4; stroke-opacity:1; fill:none" points="265.903,86.1857 372.538,579.779 479.174,785.223 585.809,931.894 692.444,1027.94 799.08,1095.42 905.715,1146.13 1012.35,1185.77 1118.99,1217.87 1225.62,1244.6 1332.26,1267.34 1438.89,1287.04 1545.53,1304.32 1652.16,1319.6 1758.8,1333.22 1865.43,1345.44 1972.07,1356.48 2078.7,1366.52 2185.34,1375.73 2291.97,1384.24 "/>
<path clip-path="url(#clip420)" d="M1790.83 196.789 L2281.17 196.789 L2281.17 93.1086 L1790.83 93.1086  Z" fill="#ffffff" fill-rule="evenodd" fill-opacity="1"/>
<polyline clip-path="url(#clip420)" style="stroke:#000000; stroke-linecap:round; stroke-linejoin:round; stroke-width:4; stroke-opacity:1; fill:none" points="1790.83,196.789 2281.17,196.789 2281.17,93.1086 1790.83,93.1086 1790.83,196.789 "/>
<polyline clip-path="url(#clip420)" style="stroke:#009af9; stroke-linecap:round; stroke-linejoin:round; stroke-width:4; stroke-opacity:1; fill:none" points="1814.69,144.949 1957.87,144.949 "/>
<path clip-path="url(#clip420)" d="M1981.73 127.669 L2001.59 127.669 L2001.59 131.604 L1986.4 131.604 L1986.4 141.789 L2000.11 141.789 L2000.11 145.724 L1986.4 145.724 L1986.4 162.229 L1981.73 162.229 L1981.73 127.669 Z" fill="#000000" fill-rule="nonzero" fill-opacity="1" /><path clip-path="url(#clip420)" d="M2020.39 140.284 Q2019.67 139.868 2018.81 139.682 Q2017.98 139.474 2016.96 139.474 Q2013.35 139.474 2011.4 141.835 Q2009.48 144.173 2009.48 148.571 L2009.48 162.229 L2005.2 162.229 L2005.2 136.303 L2009.48 136.303 L2009.48 140.331 Q2010.83 137.969 2012.98 136.835 Q2015.13 135.678 2018.21 135.678 Q2018.65 135.678 2019.18 135.747 Q2019.71 135.794 2020.36 135.909 L2020.39 140.284 Z" fill="#000000" fill-rule="nonzero" fill-opacity="1" /><path clip-path="url(#clip420)" d="M2045.99 148.201 L2045.99 150.284 L2026.4 150.284 Q2026.68 154.682 2029.04 156.997 Q2031.43 159.289 2035.66 159.289 Q2038.12 159.289 2040.41 158.687 Q2042.72 158.085 2044.99 156.881 L2044.99 160.909 Q2042.7 161.881 2040.29 162.391 Q2037.89 162.9 2035.41 162.9 Q2029.2 162.9 2025.57 159.289 Q2021.96 155.678 2021.96 149.52 Q2021.96 143.155 2025.39 139.428 Q2028.83 135.678 2034.67 135.678 Q2039.9 135.678 2042.93 139.057 Q2045.99 142.414 2045.99 148.201 M2041.73 146.951 Q2041.68 143.456 2039.76 141.372 Q2037.86 139.289 2034.71 139.289 Q2031.15 139.289 2029 141.303 Q2026.87 143.317 2026.54 146.974 L2041.73 146.951 Z" fill="#000000" fill-rule="nonzero" fill-opacity="1" /><path clip-path="url(#clip420)" d="M2075.15 148.201 L2075.15 150.284 L2055.57 150.284 Q2055.85 154.682 2058.21 156.997 Q2060.59 159.289 2064.83 159.289 Q2067.28 159.289 2069.57 158.687 Q2071.89 158.085 2074.16 156.881 L2074.16 160.909 Q2071.87 161.881 2069.46 162.391 Q2067.05 162.9 2064.58 162.9 Q2058.37 162.9 2054.74 159.289 Q2051.13 155.678 2051.13 149.52 Q2051.13 143.155 2054.55 139.428 Q2058 135.678 2063.83 135.678 Q2069.07 135.678 2072.1 139.057 Q2075.15 142.414 2075.15 148.201 M2070.89 146.951 Q2070.85 143.456 2068.93 141.372 Q2067.03 139.289 2063.88 139.289 Q2060.32 139.289 2058.16 141.303 Q2056.03 143.317 2055.71 146.974 L2070.89 146.951 Z" fill="#000000" fill-rule="nonzero" fill-opacity="1" /><path clip-path="url(#clip420)" d="M2097.4 127.669 L2119.25 127.669 L2119.25 131.604 L2102.07 131.604 L2102.07 141.835 L2118.53 141.835 L2118.53 145.77 L2102.07 145.77 L2102.07 158.293 L2119.67 158.293 L2119.67 162.229 L2097.4 162.229 L2097.4 127.669 Z" fill="#000000" fill-rule="nonzero" fill-opacity="1" /><path clip-path="url(#clip420)" d="M2148.72 146.581 L2148.72 162.229 L2144.46 162.229 L2144.46 146.719 Q2144.46 143.039 2143.02 141.21 Q2141.59 139.382 2138.72 139.382 Q2135.27 139.382 2133.28 141.581 Q2131.29 143.78 2131.29 147.576 L2131.29 162.229 L2127.01 162.229 L2127.01 136.303 L2131.29 136.303 L2131.29 140.331 Q2132.82 137.993 2134.88 136.835 Q2136.96 135.678 2139.67 135.678 Q2144.13 135.678 2146.43 138.456 Q2148.72 141.21 2148.72 146.581 Z" fill="#000000" fill-rule="nonzero" fill-opacity="1" /><path clip-path="url(#clip420)" d="M2179.39 148.201 L2179.39 150.284 L2159.81 150.284 Q2160.08 154.682 2162.44 156.997 Q2164.83 159.289 2169.07 159.289 Q2171.52 159.289 2173.81 158.687 Q2176.13 158.085 2178.39 156.881 L2178.39 160.909 Q2176.1 161.881 2173.69 162.391 Q2171.29 162.9 2168.81 162.9 Q2162.61 162.9 2158.97 159.289 Q2155.36 155.678 2155.36 149.52 Q2155.36 143.155 2158.79 139.428 Q2162.24 135.678 2168.07 135.678 Q2173.3 135.678 2176.33 139.057 Q2179.39 142.414 2179.39 148.201 M2175.13 146.951 Q2175.08 143.456 2173.16 141.372 Q2171.26 139.289 2168.12 139.289 Q2164.55 139.289 2162.4 141.303 Q2160.27 143.317 2159.94 146.974 L2175.13 146.951 Z" fill="#000000" fill-rule="nonzero" fill-opacity="1" /><path clip-path="url(#clip420)" d="M2201.4 140.284 Q2200.69 139.868 2199.83 139.682 Q2199 139.474 2197.98 139.474 Q2194.37 139.474 2192.42 141.835 Q2190.5 144.173 2190.5 148.571 L2190.5 162.229 L2186.22 162.229 L2186.22 136.303 L2190.5 136.303 L2190.5 140.331 Q2191.84 137.969 2194 136.835 Q2196.15 135.678 2199.23 135.678 Q2199.67 135.678 2200.2 135.747 Q2200.73 135.794 2201.38 135.909 L2201.4 140.284 Z" fill="#000000" fill-rule="nonzero" fill-opacity="1" /><path clip-path="url(#clip420)" d="M2222.1 148.965 Q2222.1 144.335 2220.18 141.789 Q2218.28 139.243 2214.83 139.243 Q2211.4 139.243 2209.48 141.789 Q2207.58 144.335 2207.58 148.965 Q2207.58 153.571 2209.48 156.118 Q2211.4 158.664 2214.83 158.664 Q2218.28 158.664 2220.18 156.118 Q2222.1 153.571 2222.1 148.965 M2226.36 159.011 Q2226.36 165.631 2223.42 168.849 Q2220.48 172.09 2214.41 172.09 Q2212.17 172.09 2210.18 171.742 Q2208.19 171.418 2206.31 170.724 L2206.31 166.58 Q2208.19 167.599 2210.01 168.085 Q2211.84 168.571 2213.74 168.571 Q2217.93 168.571 2220.01 166.372 Q2222.1 164.196 2222.1 159.775 L2222.1 157.668 Q2220.78 159.96 2218.72 161.094 Q2216.66 162.229 2213.79 162.229 Q2209.02 162.229 2206.1 158.594 Q2203.19 154.96 2203.19 148.965 Q2203.19 142.946 2206.1 139.312 Q2209.02 135.678 2213.79 135.678 Q2216.66 135.678 2218.72 136.812 Q2220.78 137.946 2222.1 140.238 L2222.1 136.303 L2226.36 136.303 L2226.36 159.011 Z" fill="#000000" fill-rule="nonzero" fill-opacity="1" /><path clip-path="url(#clip420)" d="M2245.92 164.636 Q2244.11 169.266 2242.4 170.678 Q2240.69 172.09 2237.81 172.09 L2234.41 172.09 L2234.41 168.525 L2236.91 168.525 Q2238.67 168.525 2239.64 167.692 Q2240.62 166.858 2241.8 163.756 L2242.56 161.812 L2232.07 136.303 L2236.59 136.303 L2244.69 156.581 L2252.79 136.303 L2257.31 136.303 L2245.92 164.636 Z" fill="#000000" fill-rule="nonzero" fill-opacity="1" /></svg>
