<?xml version="1.0" encoding="utf-8"?>
<svg xmlns="http://www.w3.org/2000/svg" xmlns:xlink="http://www.w3.org/1999/xlink" width="600" height="400" viewBox="0 0 2400 1600">
<defs>
  <clipPath id="clip800">
    <rect x="0" y="0" width="2400" height="1600"/>
  </clipPath>
</defs>
<path clip-path="url(#clip800)" d="M0 1600 L2400 1600 L2400 8.88178e-14 L0 8.88178e-14  Z" fill="#ffffff" fill-rule="evenodd" fill-opacity="1"/>
<defs>
  <clipPath id="clip801">
    <rect x="480" y="0" width="1681" height="1600"/>
  </clipPath>
</defs>
<path clip-path="url(#clip800)" d="M255.607 1423.18 L2352.76 1423.18 L2352.76 47.2441 L255.607 47.2441  Z" fill="#ffffff" fill-rule="evenodd" fill-opacity="1"/>
<defs>
  <clipPath id="clip802">
    <rect x="255" y="47" width="2098" height="1377"/>
  </clipPath>
</defs>
<polyline clip-path="url(#clip802)" style="stroke:#000000; stroke-linecap:round; stroke-linejoin:round; stroke-width:2; stroke-opacity:0.1; fill:none" points="339.087,1423.18 339.087,47.2441 "/>
<polyline clip-path="url(#clip802)" style="stroke:#000000; stroke-linecap:round; stroke-linejoin:round; stroke-width:2; stroke-opacity:0.1; fill:none" points="821.634,1423.18 821.634,47.2441 "/>
<polyline clip-path="url(#clip802)" style="stroke:#000000; stroke-linecap:round; stroke-linejoin:round; stroke-width:2; stroke-opacity:0.1; fill:none" points="1304.18,1423.18 1304.18,47.2441 "/>
<polyline clip-path="url(#clip802)" style="stroke:#000000; stroke-linecap:round; stroke-linejoin:round; stroke-width:2; stroke-opacity:0.1; fill:none" points="1786.73,1423.18 1786.73,47.2441 "/>
<polyline clip-path="url(#clip802)" style="stroke:#000000; stroke-linecap:round; stroke-linejoin:round; stroke-width:2; stroke-opacity:0.1; fill:none" points="2269.28,1423.18 2269.28,47.2441 "/>
<polyline clip-path="url(#clip802)" style="stroke:#000000; stroke-linecap:round; stroke-linejoin:round; stroke-width:2; stroke-opacity:0.1; fill:none" points="255.607,1305.35 2352.76,1305.35 "/>
<polyline clip-path="url(#clip802)" style="stroke:#000000; stroke-linecap:round; stroke-linejoin:round; stroke-width:2; stroke-opacity:0.1; fill:none" points="255.607,1119.42 2352.76,1119.42 "/>
<polyline clip-path="url(#clip802)" style="stroke:#000000; stroke-linecap:round; stroke-linejoin:round; stroke-width:2; stroke-opacity:0.1; fill:none" points="255.607,933.48 2352.76,933.48 "/>
<polyline clip-path="url(#clip802)" style="stroke:#000000; stroke-linecap:round; stroke-linejoin:round; stroke-width:2; stroke-opacity:0.1; fill:none" points="255.607,747.544 2352.76,747.544 "/>
<polyline clip-path="url(#clip802)" style="stroke:#000000; stroke-linecap:round; stroke-linejoin:round; stroke-width:2; stroke-opacity:0.1; fill:none" points="255.607,561.607 2352.76,561.607 "/>
<polyline clip-path="url(#clip802)" style="stroke:#000000; stroke-linecap:round; stroke-linejoin:round; stroke-width:2; stroke-opacity:0.1; fill:none" points="255.607,375.67 2352.76,375.67 "/>
<polyline clip-path="url(#clip802)" style="stroke:#000000; stroke-linecap:round; stroke-linejoin:round; stroke-width:2; stroke-opacity:0.1; fill:none" points="255.607,189.734 2352.76,189.734 "/>
<polyline clip-path="url(#clip800)" style="stroke:#000000; stroke-linecap:round; stroke-linejoin:round; stroke-width:4; stroke-opacity:1; fill:none" points="255.607,1423.18 2352.76,1423.18 "/>
<polyline clip-path="url(#clip800)" style="stroke:#000000; stroke-linecap:round; stroke-linejoin:round; stroke-width:4; stroke-opacity:1; fill:none" points="339.087,1423.18 339.087,1404.28 "/>
<polyline clip-path="url(#clip800)" style="stroke:#000000; stroke-linecap:round; stroke-linejoin:round; stroke-width:4; stroke-opacity:1; fill:none" points="821.634,1423.18 821.634,1404.28 "/>
<polyline clip-path="url(#clip800)" style="stroke:#000000; stroke-linecap:round; stroke-linejoin:round; stroke-width:4; stroke-opacity:1; fill:none" points="1304.18,1423.18 1304.18,1404.28 "/>
<polyline clip-path="url(#clip800)" style="stroke:#000000; stroke-linecap:round; stroke-linejoin:round; stroke-width:4; stroke-opacity:1; fill:none" points="1786.73,1423.18 1786.73,1404.28 "/>
<polyline clip-path="url(#clip800)" style="stroke:#000000; stroke-linecap:round; stroke-linejoin:round; stroke-width:4; stroke-opacity:1; fill:none" points="2269.28,1423.18 2269.28,1404.28 "/>
<path clip-path="url(#clip800)" d="M307.988 1468.75 L337.664 1468.75 L337.664 1472.69 L307.988 1472.69 L307.988 1468.75 Z" fill="#000000" fill-rule="nonzero" fill-opacity="1" /><path clip-path="url(#clip800)" d="M360.604 1455.09 L348.798 1473.54 L360.604 1473.54 L360.604 1455.09 M359.377 1451.02 L365.256 1451.02 L365.256 1473.54 L370.187 1473.54 L370.187 1477.43 L365.256 1477.43 L365.256 1485.58 L360.604 1485.58 L360.604 1477.43 L345.002 1477.43 L345.002 1472.92 L359.377 1451.02 Z" fill="#000000" fill-rule="nonzero" fill-opacity="1" /><path clip-path="url(#clip800)" d="M791.577 1468.75 L821.252 1468.75 L821.252 1472.69 L791.577 1472.69 L791.577 1468.75 Z" fill="#000000" fill-rule="nonzero" fill-opacity="1" /><path clip-path="url(#clip800)" d="M835.373 1481.64 L851.692 1481.64 L851.692 1485.58 L829.748 1485.58 L829.748 1481.64 Q832.41 1478.89 836.993 1474.26 Q841.6 1469.61 842.78 1468.27 Q845.025 1465.74 845.905 1464.01 Q846.808 1462.25 846.808 1460.56 Q846.808 1457.8 844.863 1456.07 Q842.942 1454.33 839.84 1454.33 Q837.641 1454.33 835.188 1455.09 Q832.757 1455.86 829.979 1457.41 L829.979 1452.69 Q832.803 1451.55 835.257 1450.97 Q837.711 1450.39 839.748 1450.39 Q845.118 1450.39 848.312 1453.08 Q851.507 1455.77 851.507 1460.26 Q851.507 1462.39 850.697 1464.31 Q849.91 1466.2 847.803 1468.8 Q847.225 1469.47 844.123 1472.69 Q841.021 1475.88 835.373 1481.64 Z" fill="#000000" fill-rule="nonzero" fill-opacity="1" /><path clip-path="url(#clip800)" d="M1304.18 1454.1 Q1300.57 1454.1 1298.74 1457.66 Q1296.94 1461.2 1296.94 1468.33 Q1296.94 1475.44 1298.74 1479.01 Q1300.57 1482.55 1304.18 1482.55 Q1307.82 1482.55 1309.62 1479.01 Q1311.45 1475.44 1311.45 1468.33 Q1311.45 1461.2 1309.62 1457.66 Q1307.82 1454.1 1304.18 1454.1 M1304.18 1450.39 Q1309.99 1450.39 1313.05 1455 Q1316.13 1459.58 1316.13 1468.33 Q1316.13 1477.06 1313.05 1481.67 Q1309.99 1486.25 1304.18 1486.25 Q1298.37 1486.25 1295.29 1481.67 Q1292.24 1477.06 1292.24 1468.33 Q1292.24 1459.58 1295.29 1455 Q1298.37 1450.39 1304.18 1450.39 Z" fill="#000000" fill-rule="nonzero" fill-opacity="1" /><path clip-path="url(#clip800)" d="M1781.38 1481.64 L1797.7 1481.64 L1797.7 1485.58 L1775.76 1485.58 L1775.76 1481.64 Q1778.42 1478.89 1783 1474.26 Q1787.61 1469.61 1788.79 1468.27 Q1791.03 1465.74 1791.91 1464.01 Q1792.82 1462.25 1792.82 1460.56 Q1792.82 1457.8 1790.87 1456.07 Q1788.95 1454.33 1785.85 1454.33 Q1783.65 1454.33 1781.2 1455.09 Q1778.77 1455.86 1775.99 1457.41 L1775.99 1452.69 Q1778.81 1451.55 1781.27 1450.97 Q1783.72 1450.39 1785.76 1450.39 Q1791.13 1450.39 1794.32 1453.08 Q1797.52 1455.77 1797.52 1460.26 Q1797.52 1462.39 1796.71 1464.31 Q1795.92 1466.2 1793.81 1468.8 Q1793.23 1469.47 1790.13 1472.69 Q1787.03 1475.88 1781.38 1481.64 Z" fill="#000000" fill-rule="nonzero" fill-opacity="1" /><path clip-path="url(#clip800)" d="M2272.28 1455.09 L2260.48 1473.54 L2272.28 1473.54 L2272.28 1455.09 M2271.06 1451.02 L2276.94 1451.02 L2276.94 1473.54 L2281.87 1473.54 L2281.87 1477.43 L2276.94 1477.43 L2276.94 1485.58 L2272.28 1485.58 L2272.28 1477.43 L2256.68 1477.43 L2256.68 1472.92 L2271.06 1451.02 Z" fill="#000000" fill-rule="nonzero" fill-opacity="1" /><path clip-path="url(#clip800)" d="M1320.8 1532.4 L1307.91 1549.74 L1321.46 1568.04 L1314.56 1568.04 L1304.18 1554.04 L1293.81 1568.04 L1286.9 1568.04 L1300.74 1549.39 L1288.08 1532.4 L1294.98 1532.4 L1304.44 1545.1 L1313.89 1532.4 L1320.8 1532.4 Z" fill="#000000" fill-rule="nonzero" fill-opacity="1" /><polyline clip-path="url(#clip800)" style="stroke:#000000; stroke-linecap:round; stroke-linejoin:round; stroke-width:4; stroke-opacity:1; fill:none" points="255.607,1423.18 255.607,47.2441 "/>
<polyline clip-path="url(#clip800)" style="stroke:#000000; stroke-linecap:round; stroke-linejoin:round; stroke-width:4; stroke-opacity:1; fill:none" points="255.607,1305.35 274.504,1305.35 "/>
<polyline clip-path="url(#clip800)" style="stroke:#000000; stroke-linecap:round; stroke-linejoin:round; stroke-width:4; stroke-opacity:1; fill:none" points="255.607,1119.42 274.504,1119.42 "/>
<polyline clip-path="url(#clip800)" style="stroke:#000000; stroke-linecap:round; stroke-linejoin:round; stroke-width:4; stroke-opacity:1; fill:none" points="255.607,933.48 274.504,933.48 "/>
<polyline clip-path="url(#clip800)" style="stroke:#000000; stroke-linecap:round; stroke-linejoin:round; stroke-width:4; stroke-opacity:1; fill:none" points="255.607,747.544 274.504,747.544 "/>
<polyline clip-path="url(#clip800)" style="stroke:#000000; stroke-linecap:round; stroke-linejoin:round; stroke-width:4; stroke-opacity:1; fill:none" points="255.607,561.607 274.504,561.607 "/>
<polyline clip-path="url(#clip800)" style="stroke:#000000; stroke-linecap:round; stroke-linejoin:round; stroke-width:4; stroke-opacity:1; fill:none" points="255.607,375.67 274.504,375.67 "/>
<polyline clip-path="url(#clip800)" style="stroke:#000000; stroke-linecap:round; stroke-linejoin:round; stroke-width:4; stroke-opacity:1; fill:none" points="255.607,189.734 274.504,189.734 "/>
<path clip-path="url(#clip800)" d="M114.26 1305.8 L143.936 1305.8 L143.936 1309.74 L114.26 1309.74 L114.26 1305.8 Z" fill="#000000" fill-rule="nonzero" fill-opacity="1" /><path clip-path="url(#clip800)" d="M164.028 1291.15 Q160.417 1291.15 158.589 1294.72 Q156.783 1298.26 156.783 1305.39 Q156.783 1312.49 158.589 1316.06 Q160.417 1319.6 164.028 1319.6 Q167.663 1319.6 169.468 1316.06 Q171.297 1312.49 171.297 1305.39 Q171.297 1298.26 169.468 1294.72 Q167.663 1291.15 164.028 1291.15 M164.028 1287.45 Q169.839 1287.45 172.894 1292.06 Q175.973 1296.64 175.973 1305.39 Q175.973 1314.12 172.894 1318.72 Q169.839 1323.3 164.028 1323.3 Q158.218 1323.3 155.14 1318.72 Q152.084 1314.12 152.084 1305.39 Q152.084 1296.64 155.14 1292.06 Q158.218 1287.45 164.028 1287.45 Z" fill="#000000" fill-rule="nonzero" fill-opacity="1" /><path clip-path="url(#clip800)" d="M184.19 1316.75 L189.075 1316.75 L189.075 1322.63 L184.19 1322.63 L184.19 1316.75 Z" fill="#000000" fill-rule="nonzero" fill-opacity="1" /><path clip-path="url(#clip800)" d="M203.287 1318.7 L219.607 1318.7 L219.607 1322.63 L197.662 1322.63 L197.662 1318.7 Q200.325 1315.94 204.908 1311.31 Q209.514 1306.66 210.695 1305.32 Q212.94 1302.8 213.82 1301.06 Q214.723 1299.3 214.723 1297.61 Q214.723 1294.86 212.778 1293.12 Q210.857 1291.38 207.755 1291.38 Q205.556 1291.38 203.102 1292.15 Q200.672 1292.91 197.894 1294.46 L197.894 1289.74 Q200.718 1288.61 203.172 1288.03 Q205.625 1287.45 207.662 1287.45 Q213.033 1287.45 216.227 1290.13 Q219.422 1292.82 219.422 1297.31 Q219.422 1299.44 218.611 1301.36 Q217.824 1303.26 215.718 1305.85 Q215.139 1306.52 212.037 1309.74 Q208.936 1312.93 203.287 1318.7 Z" fill="#000000" fill-rule="nonzero" fill-opacity="1" /><path clip-path="url(#clip800)" d="M162.431 1105.22 Q158.82 1105.22 156.991 1108.78 Q155.186 1112.32 155.186 1119.45 Q155.186 1126.56 156.991 1130.12 Q158.82 1133.66 162.431 1133.66 Q166.065 1133.66 167.871 1130.12 Q169.7 1126.56 169.7 1119.45 Q169.7 1112.32 167.871 1108.78 Q166.065 1105.22 162.431 1105.22 M162.431 1101.51 Q168.241 1101.51 171.297 1106.12 Q174.376 1110.7 174.376 1119.45 Q174.376 1128.18 171.297 1132.78 Q168.241 1137.37 162.431 1137.37 Q156.621 1137.37 153.542 1132.78 Q150.487 1128.18 150.487 1119.45 Q150.487 1110.7 153.542 1106.12 Q156.621 1101.51 162.431 1101.51 Z" fill="#000000" fill-rule="nonzero" fill-opacity="1" /><path clip-path="url(#clip800)" d="M182.593 1130.82 L187.477 1130.82 L187.477 1136.7 L182.593 1136.7 L182.593 1130.82 Z" fill="#000000" fill-rule="nonzero" fill-opacity="1" /><path clip-path="url(#clip800)" d="M207.662 1105.22 Q204.051 1105.22 202.223 1108.78 Q200.417 1112.32 200.417 1119.45 Q200.417 1126.56 202.223 1130.12 Q204.051 1133.66 207.662 1133.66 Q211.297 1133.66 213.102 1130.12 Q214.931 1126.56 214.931 1119.45 Q214.931 1112.32 213.102 1108.78 Q211.297 1105.22 207.662 1105.22 M207.662 1101.51 Q213.473 1101.51 216.528 1106.12 Q219.607 1110.7 219.607 1119.45 Q219.607 1128.18 216.528 1132.78 Q213.473 1137.37 207.662 1137.37 Q201.852 1137.37 198.774 1132.78 Q195.718 1128.18 195.718 1119.45 Q195.718 1110.7 198.774 1106.12 Q201.852 1101.51 207.662 1101.51 Z" fill="#000000" fill-rule="nonzero" fill-opacity="1" /><path clip-path="url(#clip800)" d="M164.028 919.279 Q160.417 919.279 158.589 922.844 Q156.783 926.385 156.783 933.515 Q156.783 940.621 158.589 944.186 Q160.417 947.728 164.028 947.728 Q167.663 947.728 169.468 944.186 Q171.297 940.621 171.297 933.515 Q171.297 926.385 169.468 922.844 Q167.663 919.279 164.028 919.279 M164.028 915.575 Q169.839 915.575 172.894 920.182 Q175.973 924.765 175.973 933.515 Q175.973 942.242 172.894 946.848 Q169.839 951.432 164.028 951.432 Q158.218 951.432 155.14 946.848 Q152.084 942.242 152.084 933.515 Q152.084 924.765 155.14 920.182 Q158.218 915.575 164.028 915.575 Z" fill="#000000" fill-rule="nonzero" fill-opacity="1" /><path clip-path="url(#clip800)" d="M184.19 944.881 L189.075 944.881 L189.075 950.76 L184.19 950.76 L184.19 944.881 Z" fill="#000000" fill-rule="nonzero" fill-opacity="1" /><path clip-path="url(#clip800)" d="M203.287 946.825 L219.607 946.825 L219.607 950.76 L197.662 950.76 L197.662 946.825 Q200.325 944.07 204.908 939.441 Q209.514 934.788 210.695 933.446 Q212.94 930.922 213.82 929.186 Q214.723 927.427 214.723 925.737 Q214.723 922.983 212.778 921.247 Q210.857 919.51 207.755 919.51 Q205.556 919.51 203.102 920.274 Q200.672 921.038 197.894 922.589 L197.894 917.867 Q200.718 916.733 203.172 916.154 Q205.625 915.575 207.662 915.575 Q213.033 915.575 216.227 918.26 Q219.422 920.946 219.422 925.436 Q219.422 927.566 218.611 929.487 Q217.824 931.385 215.718 933.978 Q215.139 934.649 212.037 937.867 Q208.936 941.061 203.287 946.825 Z" fill="#000000" fill-rule="nonzero" fill-opacity="1" /><path clip-path="url(#clip800)" d="M161.945 733.342 Q158.334 733.342 156.505 736.907 Q154.7 740.449 154.7 747.578 Q154.7 754.685 156.505 758.25 Q158.334 761.791 161.945 761.791 Q165.579 761.791 167.385 758.25 Q169.214 754.685 169.214 747.578 Q169.214 740.449 167.385 736.907 Q165.579 733.342 161.945 733.342 M161.945 729.639 Q167.755 729.639 170.811 734.245 Q173.889 738.828 173.889 747.578 Q173.889 756.305 170.811 760.912 Q167.755 765.495 161.945 765.495 Q156.135 765.495 153.056 760.912 Q150.001 756.305 150.001 747.578 Q150.001 738.828 153.056 734.245 Q156.135 729.639 161.945 729.639 Z" fill="#000000" fill-rule="nonzero" fill-opacity="1" /><path clip-path="url(#clip800)" d="M182.107 758.944 L186.991 758.944 L186.991 764.824 L182.107 764.824 L182.107 758.944 Z" fill="#000000" fill-rule="nonzero" fill-opacity="1" /><path clip-path="url(#clip800)" d="M210.024 734.338 L198.218 752.787 L210.024 752.787 L210.024 734.338 M208.797 730.264 L214.676 730.264 L214.676 752.787 L219.607 752.787 L219.607 756.676 L214.676 756.676 L214.676 764.824 L210.024 764.824 L210.024 756.676 L194.422 756.676 L194.422 752.162 L208.797 730.264 Z" fill="#000000" fill-rule="nonzero" fill-opacity="1" /><path clip-path="url(#clip800)" d="M162.269 547.406 Q158.658 547.406 156.829 550.97 Q155.024 554.512 155.024 561.642 Q155.024 568.748 156.829 572.313 Q158.658 575.855 162.269 575.855 Q165.903 575.855 167.709 572.313 Q169.538 568.748 169.538 561.642 Q169.538 554.512 167.709 550.97 Q165.903 547.406 162.269 547.406 M162.269 543.702 Q168.079 543.702 171.135 548.308 Q174.214 552.892 174.214 561.642 Q174.214 570.369 171.135 574.975 Q168.079 579.558 162.269 579.558 Q156.459 579.558 153.38 574.975 Q150.325 570.369 150.325 561.642 Q150.325 552.892 153.38 548.308 Q156.459 543.702 162.269 543.702 Z" fill="#000000" fill-rule="nonzero" fill-opacity="1" /><path clip-path="url(#clip800)" d="M182.431 573.007 L187.315 573.007 L187.315 578.887 L182.431 578.887 L182.431 573.007 Z" fill="#000000" fill-rule="nonzero" fill-opacity="1" /><path clip-path="url(#clip800)" d="M208.079 559.744 Q204.931 559.744 203.079 561.896 Q201.25 564.049 201.25 567.799 Q201.25 571.526 203.079 573.702 Q204.931 575.855 208.079 575.855 Q211.227 575.855 213.056 573.702 Q214.908 571.526 214.908 567.799 Q214.908 564.049 213.056 561.896 Q211.227 559.744 208.079 559.744 M217.361 545.091 L217.361 549.35 Q215.602 548.517 213.797 548.077 Q212.014 547.637 210.255 547.637 Q205.625 547.637 203.172 550.762 Q200.741 553.887 200.394 560.207 Q201.76 558.193 203.82 557.128 Q205.88 556.04 208.357 556.04 Q213.565 556.04 216.574 559.211 Q219.607 562.359 219.607 567.799 Q219.607 573.123 216.459 576.341 Q213.311 579.558 208.079 579.558 Q202.084 579.558 198.912 574.975 Q195.741 570.369 195.741 561.642 Q195.741 553.447 199.63 548.586 Q203.519 543.702 210.07 543.702 Q211.829 543.702 213.611 544.049 Q215.417 544.396 217.361 545.091 Z" fill="#000000" fill-rule="nonzero" fill-opacity="1" /><path clip-path="url(#clip800)" d="M162.524 361.469 Q158.913 361.469 157.084 365.034 Q155.278 368.575 155.278 375.705 Q155.278 382.812 157.084 386.376 Q158.913 389.918 162.524 389.918 Q166.158 389.918 167.964 386.376 Q169.792 382.812 169.792 375.705 Q169.792 368.575 167.964 365.034 Q166.158 361.469 162.524 361.469 M162.524 357.765 Q168.334 357.765 171.389 362.372 Q174.468 366.955 174.468 375.705 Q174.468 384.432 171.389 389.038 Q168.334 393.622 162.524 393.622 Q156.714 393.622 153.635 389.038 Q150.579 384.432 150.579 375.705 Q150.579 366.955 153.635 362.372 Q156.714 357.765 162.524 357.765 Z" fill="#000000" fill-rule="nonzero" fill-opacity="1" /><path clip-path="url(#clip800)" d="M182.686 387.071 L187.57 387.071 L187.57 392.95 L182.686 392.95 L182.686 387.071 Z" fill="#000000" fill-rule="nonzero" fill-opacity="1" /><path clip-path="url(#clip800)" d="M207.755 376.538 Q204.422 376.538 202.5 378.321 Q200.602 380.103 200.602 383.228 Q200.602 386.353 202.5 388.136 Q204.422 389.918 207.755 389.918 Q211.088 389.918 213.01 388.136 Q214.931 386.33 214.931 383.228 Q214.931 380.103 213.01 378.321 Q211.111 376.538 207.755 376.538 M203.079 374.548 Q200.07 373.807 198.38 371.747 Q196.713 369.687 196.713 366.724 Q196.713 362.58 199.653 360.173 Q202.616 357.765 207.755 357.765 Q212.917 357.765 215.857 360.173 Q218.797 362.58 218.797 366.724 Q218.797 369.687 217.107 371.747 Q215.44 373.807 212.454 374.548 Q215.834 375.335 217.709 377.626 Q219.607 379.918 219.607 383.228 Q219.607 388.251 216.528 390.936 Q213.473 393.622 207.755 393.622 Q202.037 393.622 198.959 390.936 Q195.903 388.251 195.903 383.228 Q195.903 379.918 197.801 377.626 Q199.7 375.335 203.079 374.548 M201.366 367.163 Q201.366 369.849 203.033 371.353 Q204.723 372.858 207.755 372.858 Q210.764 372.858 212.454 371.353 Q214.167 369.849 214.167 367.163 Q214.167 364.478 212.454 362.974 Q210.764 361.469 207.755 361.469 Q204.723 361.469 203.033 362.974 Q201.366 364.478 201.366 367.163 Z" fill="#000000" fill-rule="nonzero" fill-opacity="1" /><path clip-path="url(#clip800)" d="M153.241 203.079 L160.88 203.079 L160.88 176.713 L152.57 178.38 L152.57 174.12 L160.834 172.454 L165.51 172.454 L165.51 203.079 L173.149 203.079 L173.149 207.014 L153.241 207.014 L153.241 203.079 Z" fill="#000000" fill-rule="nonzero" fill-opacity="1" /><path clip-path="url(#clip800)" d="M182.593 201.134 L187.477 201.134 L187.477 207.014 L182.593 207.014 L182.593 201.134 Z" fill="#000000" fill-rule="nonzero" fill-opacity="1" /><path clip-path="url(#clip800)" d="M207.662 175.532 Q204.051 175.532 202.223 179.097 Q200.417 182.639 200.417 189.768 Q200.417 196.875 202.223 200.44 Q204.051 203.981 207.662 203.981 Q211.297 203.981 213.102 200.44 Q214.931 196.875 214.931 189.768 Q214.931 182.639 213.102 179.097 Q211.297 175.532 207.662 175.532 M207.662 171.829 Q213.473 171.829 216.528 176.435 Q219.607 181.018 219.607 189.768 Q219.607 198.495 216.528 203.102 Q213.473 207.685 207.662 207.685 Q201.852 207.685 198.774 203.102 Q195.718 198.495 195.718 189.768 Q195.718 181.018 198.774 176.435 Q201.852 171.829 207.662 171.829 Z" fill="#000000" fill-rule="nonzero" fill-opacity="1" /><path clip-path="url(#clip800)" d="M14.479 765.163 L19.3487 765.163 L19.3487 770.764 Q19.3487 773.915 20.6219 775.157 Q21.895 776.366 25.2052 776.366 L28.3562 776.366 L28.3562 766.722 L32.9077 766.722 L32.9077 776.366 L64.0042 776.366 L64.0042 782.255 L32.9077 782.255 L32.9077 787.856 L28.3562 787.856 L28.3562 782.255 L25.8736 782.255 Q19.9216 782.255 17.2162 779.485 Q14.479 776.716 14.479 770.701 L14.479 765.163 Z" fill="#000000" fill-rule="nonzero" fill-opacity="1" /><path clip-path="url(#clip800)" d="M14.5426 746.193 Q21.8632 750.458 29.0246 752.527 Q36.186 754.596 43.5384 754.596 Q50.8908 754.596 58.1159 752.527 Q65.3091 750.426 72.5979 746.193 L72.5979 751.285 Q65.1182 756.06 57.8931 758.447 Q50.668 760.802 43.5384 760.802 Q36.4406 760.802 29.2474 758.447 Q22.0542 756.091 14.5426 751.285 L14.5426 746.193 Z" fill="#000000" fill-rule="nonzero" fill-opacity="1" /><path clip-path="url(#clip800)" d="M28.3562 705.198 L45.7028 718.088 L64.0042 704.529 L64.0042 711.436 L49.9996 721.812 L64.0042 732.188 L64.0042 739.095 L45.3526 725.25 L28.3562 737.917 L28.3562 731.011 L41.0558 721.558 L28.3562 712.104 L28.3562 705.198 Z" fill="#000000" fill-rule="nonzero" fill-opacity="1" /><path clip-path="url(#clip800)" d="M14.5426 697.177 L14.5426 692.084 Q22.0542 687.31 29.2474 684.955 Q36.4406 682.568 43.5384 682.568 Q50.668 682.568 57.8931 684.955 Q65.1182 687.31 72.5979 692.084 L72.5979 697.177 Q65.3091 692.944 58.1159 690.875 Q50.8908 688.774 43.5384 688.774 Q36.186 688.774 29.0246 690.875 Q21.8632 692.944 14.5426 697.177 Z" fill="#000000" fill-rule="nonzero" fill-opacity="1" /><polyline clip-path="url(#clip802)" style="stroke:#0000ff; stroke-linecap:round; stroke-linejoin:round; stroke-width:6; stroke-opacity:1; fill:none" points="314.96,1097.11 318.263,1100.02 321.566,1102.98 324.869,1106 328.172,1109.05 331.475,1112.15 334.778,1115.29 338.08,1118.45 341.383,1121.63 344.686,1124.84 347.989,1128.05 351.292,1131.27 354.595,1134.5 357.898,1137.71 361.201,1140.92 364.504,1144.11 367.807,1147.27 371.11,1150.41 374.412,1153.51 377.715,1156.57 381.018,1159.58 384.321,1162.54 387.624,1165.44 390.927,1168.27 394.23,1171.04 397.533,1173.73 400.836,1176.34 404.139,1178.86 407.442,1181.29 410.744,1183.62 414.047,1185.86 417.35,1187.98 420.653,1189.99 423.956,1191.89 427.259,1193.67 430.562,1195.32 433.865,1196.85 437.168,1198.24 440.471,1199.5 443.774,1200.62 447.076,1201.59 450.379,1202.42 453.682,1203.11 456.985,1203.64 460.288,1204.02 463.591,1204.25 466.894,1204.32 470.197,1204.23 473.5,1203.99 476.803,1203.59 480.106,1203.03 483.408,1202.3 486.711,1201.42 490.014,1200.38 493.317,1199.18 496.62,1197.82 499.923,1196.31 503.226,1194.64 506.529,1192.81 509.832,1190.84 513.135,1188.71 516.438,1186.44 519.74,1184.03 523.043,1181.48 526.346,1178.78 529.649,1175.96 532.952,1173.01 536.255,1169.93 539.558,1166.73 542.861,1163.41 546.164,1159.99 549.467,1156.46 552.77,1152.82 556.072,1149.1 559.375,1145.29 562.678,1141.39 565.981,1137.42 569.284,1133.38 572.587,1129.28 575.89,1125.12 579.193,1120.91 582.496,1116.67 585.799,1112.39 589.102,1108.08 592.404,1103.75 595.707,1099.41 599.01,1095.07 602.313,1090.73 605.616,1086.41 608.919,1082.1 612.222,1077.83 615.525,1073.59 618.828,1069.39 622.131,1065.25 625.434,1061.16 628.736,1057.15 632.039,1053.21 635.342,1049.36 638.645,1045.59 641.948,1041.93 645.251,1038.37 648.554,1034.93 651.857,1031.62 655.16,1028.43 658.463,1025.37 661.766,1022.46 665.068,1019.7 668.371,1017.1 671.674,1014.66 674.977,1012.39 678.28,1010.3 681.583,1008.38 684.886,1006.65 688.189,1005.12 691.492,1003.77 694.795,1002.63 698.098,1001.7 701.4,1000.97 704.703,1000.45 708.006,1000.15 711.309,1000.07 714.612,1000.21 717.915,1000.57 721.218,1001.16 724.521,1001.98 727.824,1003.02 731.127,1004.29 734.43,1005.79 737.732,1007.52 741.035,1009.47 744.338,1011.66 747.641,1014.07 750.944,1016.7 754.247,1019.56 757.55,1022.64 760.853,1025.94 764.156,1029.45 767.459,1033.17 770.762,1037.1 774.064,1041.23 777.367,1045.55 780.67,1050.07 783.973,1054.78 787.276,1059.66 790.579,1064.72 793.882,1069.95 797.185,1075.34 800.488,1080.88 803.791,1086.56 807.094,1092.38 810.396,1098.33 813.699,1104.4 817.002,1110.58 820.305,1116.86 823.608,1123.23 826.911,1129.69 830.214,1136.21 833.517,1142.79 836.82,1149.43 840.123,1156.1 843.426,1162.8 846.728,1169.51 850.031,1176.23 853.334,1182.94 856.637,1189.64 859.94,1196.3 863.243,1202.92 866.546,1209.48 869.849,1215.97 873.152,1222.39 876.455,1228.71 879.758,1234.92 883.06,1241.02 886.363,1246.99 889.666,1252.81 892.969,1258.48 896.272,1263.99 899.575,1269.31 902.878,1274.44 906.181,1279.37 909.484,1284.08 912.787,1288.56 916.09,1292.81 919.392,1296.8 922.695,1300.53 925.998,1303.99 929.301,1307.17 932.604,1310.05 935.907,1312.63 939.21,1314.89 942.513,1316.83 945.816,1318.44 949.119,1319.71 952.422,1320.62 955.724,1321.18 959.027,1321.38 962.33,1321.19 965.633,1320.63 968.936,1319.69 972.239,1318.34 975.542,1316.6 978.845,1314.46 982.148,1311.91 985.451,1308.95 988.754,1305.57 992.056,1301.77 995.359,1297.54 998.662,1292.9 1001.97,1287.83 1005.27,1282.33 1008.57,1276.4 1011.87,1270.05 1015.18,1263.26 1018.48,1256.06 1021.78,1248.43 1025.09,1240.37 1028.39,1231.9 1031.69,1223.01 1034.99,1213.71 1038.3,1204 1041.6,1193.89 1044.9,1183.39 1048.21,1172.49 1051.51,1161.2 1054.81,1149.54 1058.11,1137.51 1061.42,1125.12 1064.72,1112.38 1068.02,1099.29 1071.33,1085.87 1074.63,1072.13 1077.93,1058.07 1081.23,1043.72 1084.54,1029.07 1087.84,1014.14 1091.14,998.955 1094.45,983.513 1097.75,967.832 1101.05,951.926 1104.36,935.809 1107.66,919.496 1110.96,903.001 1114.26,886.34 1117.57,869.527 1120.87,852.579 1124.17,835.511 1127.48,818.341 1130.78,801.083 1134.08,783.756 1137.38,766.375 1140.69,748.958 1143.99,731.522 1147.29,714.085 1150.6,696.663 1153.9,679.274 1157.2,661.936 1160.5,644.666 1163.81,627.483 1167.11,610.402 1170.41,593.443 1173.72,576.623 1177.02,559.958 1180.32,543.467 1183.63,527.167 1186.93,511.074 1190.23,495.207 1193.53,479.58 1196.84,464.212 1200.14,449.118 1203.44,434.314 1206.75,419.817 1210.05,405.642 1213.35,391.803 1216.65,378.317 1219.96,365.197 1223.26,352.457 1226.56,340.113 1229.87,328.176 1233.17,316.66 1236.47,305.577 1239.77,294.94 1243.08,284.76 1246.38,275.049 1249.68,265.816 1252.99,257.073 1256.29,248.828 1259.59,241.091 1262.89,233.87 1266.2,227.174 1269.5,221.009 1272.8,215.383 1276.11,210.302 1279.41,205.771 1282.71,201.795 1286.02,198.379 1289.32,195.526 1292.62,193.24 1295.92,191.524 1299.23,190.378 1302.53,189.805 1305.83,189.805 1309.14,190.378 1312.44,191.524 1315.74,193.24 1319.04,195.526 1322.35,198.379 1325.65,201.795 1328.95,205.771 1332.26,210.302 1335.56,215.383 1338.86,221.009 1342.16,227.174 1345.47,233.87 1348.77,241.091 1352.07,248.828 1355.38,257.073 1358.68,265.816 1361.98,275.049 1365.29,284.76 1368.59,294.94 1371.89,305.577 1375.19,316.66 1378.5,328.176 1381.8,340.113 1385.1,352.457 1388.41,365.197 1391.71,378.317 1395.01,391.803 1398.31,405.642 1401.62,419.817 1404.92,434.314 1408.22,449.118 1411.53,464.212 1414.83,479.58 1418.13,495.207 1421.43,511.074 1424.74,527.167 1428.04,543.467 1431.34,559.958 1434.65,576.623 1437.95,593.443 1441.25,610.402 1444.55,627.483 1447.86,644.666 1451.16,661.936 1454.46,679.274 1457.77,696.663 1461.07,714.085 1464.37,731.522 1467.68,748.958 1470.98,766.375 1474.28,783.756 1477.58,801.083 1480.89,818.341 1484.19,835.511 1487.49,852.579 1490.8,869.527 1494.1,886.34 1497.4,903.001 1500.7,919.496 1504.01,935.809 1507.31,951.926 1510.61,967.832 1513.92,983.513 1517.22,998.955 1520.52,1014.14 1523.82,1029.07 1527.13,1043.72 1530.43,1058.07 1533.73,1072.13 1537.04,1085.87 1540.34,1099.29 1543.64,1112.38 1546.95,1125.12 1550.25,1137.51 1553.55,1149.54 1556.85,1161.2 1560.16,1172.49 1563.46,1183.39 1566.76,1193.89 1570.07,1204 1573.37,1213.71 1576.67,1223.01 1579.97,1231.9 1583.28,1240.37 1586.58,1248.43 1589.88,1256.06 1593.19,1263.26 1596.49,1270.05 1599.79,1276.4 1603.09,1282.33 1606.4,1287.83 1609.7,1292.9 1613,1297.54 1616.31,1301.77 1619.61,1305.57 1622.91,1308.95 1626.21,1311.91 1629.52,1314.46 1632.82,1316.6 1636.12,1318.34 1639.43,1319.69 1642.73,1320.63 1646.03,1321.19 1649.34,1321.38 1652.64,1321.18 1655.94,1320.62 1659.24,1319.71 1662.55,1318.44 1665.85,1316.83 1669.15,1314.89 1672.46,1312.63 1675.76,1310.05 1679.06,1307.17 1682.36,1303.99 1685.67,1300.53 1688.97,1296.8 1692.27,1292.81 1695.58,1288.56 1698.88,1284.08 1702.18,1279.37 1705.48,1274.44 1708.79,1269.31 1712.09,1263.99 1715.39,1258.48 1718.7,1252.81 1722,1246.99 1725.3,1241.02 1728.61,1234.92 1731.91,1228.71 1735.21,1222.39 1738.51,1215.97 1741.82,1209.48 1745.12,1202.92 1748.42,1196.3 1751.73,1189.64 1755.03,1182.94 1758.33,1176.23 1761.63,1169.51 1764.94,1162.8 1768.24,1156.1 1771.54,1149.43 1774.85,1142.79 1778.15,1136.21 1781.45,1129.69 1784.75,1123.23 1788.06,1116.86 1791.36,1110.58 1794.66,1104.4 1797.97,1098.33 1801.27,1092.38 1804.57,1086.56 1807.87,1080.88 1811.18,1075.34 1814.48,1069.95 1817.78,1064.72 1821.09,1059.66 1824.39,1054.78 1827.69,1050.07 1831,1045.55 1834.3,1041.23 1837.6,1037.1 1840.9,1033.17 1844.21,1029.45 1847.51,1025.94 1850.81,1022.64 1854.12,1019.56 1857.42,1016.7 1860.72,1014.07 1864.02,1011.66 1867.33,1009.47 1870.63,1007.52 1873.93,1005.79 1877.24,1004.29 1880.54,1003.02 1883.84,1001.98 1887.14,1001.16 1890.45,1000.57 1893.75,1000.21 1897.05,1000.07 1900.36,1000.15 1903.66,1000.45 1906.96,1000.97 1910.27,1001.7 1913.57,1002.63 1916.87,1003.77 1920.17,1005.12 1923.48,1006.65 1926.78,1008.38 1930.08,1010.3 1933.39,1012.39 1936.69,1014.66 1939.99,1017.1 1943.29,1019.7 1946.6,1022.46 1949.9,1025.37 1953.2,1028.43 1956.51,1031.62 1959.81,1034.93 1963.11,1038.37 1966.41,1041.93 1969.72,1045.59 1973.02,1049.36 1976.32,1053.21 1979.63,1057.15 1982.93,1061.16 1986.23,1065.25 1989.53,1069.39 1992.84,1073.59 1996.14,1077.83 1999.44,1082.1 2002.75,1086.41 2006.05,1090.73 2009.35,1095.07 2012.66,1099.41 2015.96,1103.75 2019.26,1108.08 2022.56,1112.39 2025.87,1116.67 2029.17,1120.91 2032.47,1125.12 2035.78,1129.28 2039.08,1133.38 2042.38,1137.42 2045.68,1141.39 2048.99,1145.29 2052.29,1149.1 2055.59,1152.82 2058.9,1156.46 2062.2,1159.99 2065.5,1163.41 2068.8,1166.73 2072.11,1169.93 2075.41,1173.01 2078.71,1175.96 2082.02,1178.78 2085.32,1181.48 2088.62,1184.03 2091.93,1186.44 2095.23,1188.71 2098.53,1190.84 2101.83,1192.81 2105.14,1194.64 2108.44,1196.31 2111.74,1197.82 2115.05,1199.18 2118.35,1200.38 2121.65,1201.42 2124.95,1202.3 2128.26,1203.03 2131.56,1203.59 2134.86,1203.99 2138.17,1204.23 2141.47,1204.32 2144.77,1204.25 2148.07,1204.02 2151.38,1203.64 2154.68,1203.11 2157.98,1202.42 2161.29,1201.59 2164.59,1200.62 2167.89,1199.5 2171.19,1198.24 2174.5,1196.85 2177.8,1195.32 2181.1,1193.67 2184.41,1191.89 2187.71,1189.99 2191.01,1187.98 2194.32,1185.86 2197.62,1183.62 2200.92,1181.29 2204.22,1178.86 2207.53,1176.34 2210.83,1173.73 2214.13,1171.04 2217.44,1168.27 2220.74,1165.44 2224.04,1162.54 2227.34,1159.58 2230.65,1156.57 2233.95,1153.51 2237.25,1150.41 2240.56,1147.27 2243.86,1144.11 2247.16,1140.92 2250.46,1137.71 2253.77,1134.5 2257.07,1131.27 2260.37,1128.05 2263.68,1124.84 2266.98,1121.63 2270.28,1118.45 2273.59,1115.29 2276.89,1112.15 2280.19,1109.05 2283.49,1106 2286.8,1102.98 2290.1,1100.02 2293.4,1097.11 "/>
<line clip-path="url(#clip802)" x1="385.72" y1="1262.93" x2="385.72" y2="1248.93" style="stroke:#e26f46; stroke-width:3.2; stroke-opacity:1"/>
<line clip-path="url(#clip802)" x1="385.72" y1="1262.93" x2="371.72" y2="1262.93" style="stroke:#e26f46; stroke-width:3.2; stroke-opacity:1"/>
<line clip-path="url(#clip802)" x1="385.72" y1="1262.93" x2="385.72" y2="1276.93" style="stroke:#e26f46; stroke-width:3.2; stroke-opacity:1"/>
<line clip-path="url(#clip802)" x1="385.72" y1="1262.93" x2="399.72" y2="1262.93" style="stroke:#e26f46; stroke-width:3.2; stroke-opacity:1"/>
<line clip-path="url(#clip802)" x1="389.232" y1="1095.27" x2="389.232" y2="1081.27" style="stroke:#e26f46; stroke-width:3.2; stroke-opacity:1"/>
<line clip-path="url(#clip802)" x1="389.232" y1="1095.27" x2="375.232" y2="1095.27" style="stroke:#e26f46; stroke-width:3.2; stroke-opacity:1"/>
<line clip-path="url(#clip802)" x1="389.232" y1="1095.27" x2="389.232" y2="1109.27" style="stroke:#e26f46; stroke-width:3.2; stroke-opacity:1"/>
<line clip-path="url(#clip802)" x1="389.232" y1="1095.27" x2="403.232" y2="1095.27" style="stroke:#e26f46; stroke-width:3.2; stroke-opacity:1"/>
<line clip-path="url(#clip802)" x1="417.172" y1="1128.89" x2="417.172" y2="1114.89" style="stroke:#e26f46; stroke-width:3.2; stroke-opacity:1"/>
<line clip-path="url(#clip802)" x1="417.172" y1="1128.89" x2="403.172" y2="1128.89" style="stroke:#e26f46; stroke-width:3.2; stroke-opacity:1"/>
<line clip-path="url(#clip802)" x1="417.172" y1="1128.89" x2="417.172" y2="1142.89" style="stroke:#e26f46; stroke-width:3.2; stroke-opacity:1"/>
<line clip-path="url(#clip802)" x1="417.172" y1="1128.89" x2="431.172" y2="1128.89" style="stroke:#e26f46; stroke-width:3.2; stroke-opacity:1"/>
<line clip-path="url(#clip802)" x1="448.681" y1="1247.69" x2="448.681" y2="1233.69" style="stroke:#e26f46; stroke-width:3.2; stroke-opacity:1"/>
<line clip-path="url(#clip802)" x1="448.681" y1="1247.69" x2="434.681" y2="1247.69" style="stroke:#e26f46; stroke-width:3.2; stroke-opacity:1"/>
<line clip-path="url(#clip802)" x1="448.681" y1="1247.69" x2="448.681" y2="1261.69" style="stroke:#e26f46; stroke-width:3.2; stroke-opacity:1"/>
<line clip-path="url(#clip802)" x1="448.681" y1="1247.69" x2="462.681" y2="1247.69" style="stroke:#e26f46; stroke-width:3.2; stroke-opacity:1"/>
<line clip-path="url(#clip802)" x1="454.497" y1="1216.51" x2="454.497" y2="1202.51" style="stroke:#e26f46; stroke-width:3.2; stroke-opacity:1"/>
<line clip-path="url(#clip802)" x1="454.497" y1="1216.51" x2="440.497" y2="1216.51" style="stroke:#e26f46; stroke-width:3.2; stroke-opacity:1"/>
<line clip-path="url(#clip802)" x1="454.497" y1="1216.51" x2="454.497" y2="1230.51" style="stroke:#e26f46; stroke-width:3.2; stroke-opacity:1"/>
<line clip-path="url(#clip802)" x1="454.497" y1="1216.51" x2="468.497" y2="1216.51" style="stroke:#e26f46; stroke-width:3.2; stroke-opacity:1"/>
<line clip-path="url(#clip802)" x1="484.934" y1="1236.77" x2="484.934" y2="1222.77" style="stroke:#e26f46; stroke-width:3.2; stroke-opacity:1"/>
<line clip-path="url(#clip802)" x1="484.934" y1="1236.77" x2="470.934" y2="1236.77" style="stroke:#e26f46; stroke-width:3.2; stroke-opacity:1"/>
<line clip-path="url(#clip802)" x1="484.934" y1="1236.77" x2="484.934" y2="1250.77" style="stroke:#e26f46; stroke-width:3.2; stroke-opacity:1"/>
<line clip-path="url(#clip802)" x1="484.934" y1="1236.77" x2="498.934" y2="1236.77" style="stroke:#e26f46; stroke-width:3.2; stroke-opacity:1"/>
<line clip-path="url(#clip802)" x1="535.983" y1="1154.33" x2="535.983" y2="1140.33" style="stroke:#e26f46; stroke-width:3.2; stroke-opacity:1"/>
<line clip-path="url(#clip802)" x1="535.983" y1="1154.33" x2="521.983" y2="1154.33" style="stroke:#e26f46; stroke-width:3.2; stroke-opacity:1"/>
<line clip-path="url(#clip802)" x1="535.983" y1="1154.33" x2="535.983" y2="1168.33" style="stroke:#e26f46; stroke-width:3.2; stroke-opacity:1"/>
<line clip-path="url(#clip802)" x1="535.983" y1="1154.33" x2="549.983" y2="1154.33" style="stroke:#e26f46; stroke-width:3.2; stroke-opacity:1"/>
<line clip-path="url(#clip802)" x1="552.146" y1="1072.89" x2="552.146" y2="1058.89" style="stroke:#e26f46; stroke-width:3.2; stroke-opacity:1"/>
<line clip-path="url(#clip802)" x1="552.146" y1="1072.89" x2="538.146" y2="1072.89" style="stroke:#e26f46; stroke-width:3.2; stroke-opacity:1"/>
<line clip-path="url(#clip802)" x1="552.146" y1="1072.89" x2="552.146" y2="1086.89" style="stroke:#e26f46; stroke-width:3.2; stroke-opacity:1"/>
<line clip-path="url(#clip802)" x1="552.146" y1="1072.89" x2="566.146" y2="1072.89" style="stroke:#e26f46; stroke-width:3.2; stroke-opacity:1"/>
<line clip-path="url(#clip802)" x1="681.509" y1="973.003" x2="681.509" y2="959.003" style="stroke:#e26f46; stroke-width:3.2; stroke-opacity:1"/>
<line clip-path="url(#clip802)" x1="681.509" y1="973.003" x2="667.509" y2="973.003" style="stroke:#e26f46; stroke-width:3.2; stroke-opacity:1"/>
<line clip-path="url(#clip802)" x1="681.509" y1="973.003" x2="681.509" y2="987.003" style="stroke:#e26f46; stroke-width:3.2; stroke-opacity:1"/>
<line clip-path="url(#clip802)" x1="681.509" y1="973.003" x2="695.509" y2="973.003" style="stroke:#e26f46; stroke-width:3.2; stroke-opacity:1"/>
<line clip-path="url(#clip802)" x1="708.629" y1="967.126" x2="708.629" y2="953.126" style="stroke:#e26f46; stroke-width:3.2; stroke-opacity:1"/>
<line clip-path="url(#clip802)" x1="708.629" y1="967.126" x2="694.629" y2="967.126" style="stroke:#e26f46; stroke-width:3.2; stroke-opacity:1"/>
<line clip-path="url(#clip802)" x1="708.629" y1="967.126" x2="708.629" y2="981.126" style="stroke:#e26f46; stroke-width:3.2; stroke-opacity:1"/>
<line clip-path="url(#clip802)" x1="708.629" y1="967.126" x2="722.629" y2="967.126" style="stroke:#e26f46; stroke-width:3.2; stroke-opacity:1"/>
<line clip-path="url(#clip802)" x1="736.7" y1="1124.55" x2="736.7" y2="1110.55" style="stroke:#e26f46; stroke-width:3.2; stroke-opacity:1"/>
<line clip-path="url(#clip802)" x1="736.7" y1="1124.55" x2="722.7" y2="1124.55" style="stroke:#e26f46; stroke-width:3.2; stroke-opacity:1"/>
<line clip-path="url(#clip802)" x1="736.7" y1="1124.55" x2="736.7" y2="1138.55" style="stroke:#e26f46; stroke-width:3.2; stroke-opacity:1"/>
<line clip-path="url(#clip802)" x1="736.7" y1="1124.55" x2="750.7" y2="1124.55" style="stroke:#e26f46; stroke-width:3.2; stroke-opacity:1"/>
<line clip-path="url(#clip802)" x1="777.544" y1="944.921" x2="777.544" y2="930.921" style="stroke:#e26f46; stroke-width:3.2; stroke-opacity:1"/>
<line clip-path="url(#clip802)" x1="777.544" y1="944.921" x2="763.544" y2="944.921" style="stroke:#e26f46; stroke-width:3.2; stroke-opacity:1"/>
<line clip-path="url(#clip802)" x1="777.544" y1="944.921" x2="777.544" y2="958.921" style="stroke:#e26f46; stroke-width:3.2; stroke-opacity:1"/>
<line clip-path="url(#clip802)" x1="777.544" y1="944.921" x2="791.544" y2="944.921" style="stroke:#e26f46; stroke-width:3.2; stroke-opacity:1"/>
<line clip-path="url(#clip802)" x1="905.966" y1="1225.45" x2="905.966" y2="1211.45" style="stroke:#e26f46; stroke-width:3.2; stroke-opacity:1"/>
<line clip-path="url(#clip802)" x1="905.966" y1="1225.45" x2="891.966" y2="1225.45" style="stroke:#e26f46; stroke-width:3.2; stroke-opacity:1"/>
<line clip-path="url(#clip802)" x1="905.966" y1="1225.45" x2="905.966" y2="1239.45" style="stroke:#e26f46; stroke-width:3.2; stroke-opacity:1"/>
<line clip-path="url(#clip802)" x1="905.966" y1="1225.45" x2="919.966" y2="1225.45" style="stroke:#e26f46; stroke-width:3.2; stroke-opacity:1"/>
<line clip-path="url(#clip802)" x1="948.58" y1="1325.16" x2="948.58" y2="1311.16" style="stroke:#e26f46; stroke-width:3.2; stroke-opacity:1"/>
<line clip-path="url(#clip802)" x1="948.58" y1="1325.16" x2="934.58" y2="1325.16" style="stroke:#e26f46; stroke-width:3.2; stroke-opacity:1"/>
<line clip-path="url(#clip802)" x1="948.58" y1="1325.16" x2="948.58" y2="1339.16" style="stroke:#e26f46; stroke-width:3.2; stroke-opacity:1"/>
<line clip-path="url(#clip802)" x1="948.58" y1="1325.16" x2="962.58" y2="1325.16" style="stroke:#e26f46; stroke-width:3.2; stroke-opacity:1"/>
<line clip-path="url(#clip802)" x1="962.557" y1="1300.78" x2="962.557" y2="1286.78" style="stroke:#e26f46; stroke-width:3.2; stroke-opacity:1"/>
<line clip-path="url(#clip802)" x1="962.557" y1="1300.78" x2="948.557" y2="1300.78" style="stroke:#e26f46; stroke-width:3.2; stroke-opacity:1"/>
<line clip-path="url(#clip802)" x1="962.557" y1="1300.78" x2="962.557" y2="1314.78" style="stroke:#e26f46; stroke-width:3.2; stroke-opacity:1"/>
<line clip-path="url(#clip802)" x1="962.557" y1="1300.78" x2="976.557" y2="1300.78" style="stroke:#e26f46; stroke-width:3.2; stroke-opacity:1"/>
<line clip-path="url(#clip802)" x1="1007.79" y1="1384.24" x2="1007.79" y2="1370.24" style="stroke:#e26f46; stroke-width:3.2; stroke-opacity:1"/>
<line clip-path="url(#clip802)" x1="1007.79" y1="1384.24" x2="993.787" y2="1384.24" style="stroke:#e26f46; stroke-width:3.2; stroke-opacity:1"/>
<line clip-path="url(#clip802)" x1="1007.79" y1="1384.24" x2="1007.79" y2="1398.24" style="stroke:#e26f46; stroke-width:3.2; stroke-opacity:1"/>
<line clip-path="url(#clip802)" x1="1007.79" y1="1384.24" x2="1021.79" y2="1384.24" style="stroke:#e26f46; stroke-width:3.2; stroke-opacity:1"/>
<line clip-path="url(#clip802)" x1="1048.74" y1="1107.45" x2="1048.74" y2="1093.45" style="stroke:#e26f46; stroke-width:3.2; stroke-opacity:1"/>
<line clip-path="url(#clip802)" x1="1048.74" y1="1107.45" x2="1034.74" y2="1107.45" style="stroke:#e26f46; stroke-width:3.2; stroke-opacity:1"/>
<line clip-path="url(#clip802)" x1="1048.74" y1="1107.45" x2="1048.74" y2="1121.45" style="stroke:#e26f46; stroke-width:3.2; stroke-opacity:1"/>
<line clip-path="url(#clip802)" x1="1048.74" y1="1107.45" x2="1062.74" y2="1107.45" style="stroke:#e26f46; stroke-width:3.2; stroke-opacity:1"/>
<line clip-path="url(#clip802)" x1="1049.75" y1="1080.14" x2="1049.75" y2="1066.14" style="stroke:#e26f46; stroke-width:3.2; stroke-opacity:1"/>
<line clip-path="url(#clip802)" x1="1049.75" y1="1080.14" x2="1035.75" y2="1080.14" style="stroke:#e26f46; stroke-width:3.2; stroke-opacity:1"/>
<line clip-path="url(#clip802)" x1="1049.75" y1="1080.14" x2="1049.75" y2="1094.14" style="stroke:#e26f46; stroke-width:3.2; stroke-opacity:1"/>
<line clip-path="url(#clip802)" x1="1049.75" y1="1080.14" x2="1063.75" y2="1080.14" style="stroke:#e26f46; stroke-width:3.2; stroke-opacity:1"/>
<line clip-path="url(#clip802)" x1="1050.55" y1="1262.1" x2="1050.55" y2="1248.1" style="stroke:#e26f46; stroke-width:3.2; stroke-opacity:1"/>
<line clip-path="url(#clip802)" x1="1050.55" y1="1262.1" x2="1036.55" y2="1262.1" style="stroke:#e26f46; stroke-width:3.2; stroke-opacity:1"/>
<line clip-path="url(#clip802)" x1="1050.55" y1="1262.1" x2="1050.55" y2="1276.1" style="stroke:#e26f46; stroke-width:3.2; stroke-opacity:1"/>
<line clip-path="url(#clip802)" x1="1050.55" y1="1262.1" x2="1064.55" y2="1262.1" style="stroke:#e26f46; stroke-width:3.2; stroke-opacity:1"/>
<line clip-path="url(#clip802)" x1="1074.08" y1="1050.89" x2="1074.08" y2="1036.89" style="stroke:#e26f46; stroke-width:3.2; stroke-opacity:1"/>
<line clip-path="url(#clip802)" x1="1074.08" y1="1050.89" x2="1060.08" y2="1050.89" style="stroke:#e26f46; stroke-width:3.2; stroke-opacity:1"/>
<line clip-path="url(#clip802)" x1="1074.08" y1="1050.89" x2="1074.08" y2="1064.89" style="stroke:#e26f46; stroke-width:3.2; stroke-opacity:1"/>
<line clip-path="url(#clip802)" x1="1074.08" y1="1050.89" x2="1088.08" y2="1050.89" style="stroke:#e26f46; stroke-width:3.2; stroke-opacity:1"/>
<line clip-path="url(#clip802)" x1="1089.28" y1="1085.24" x2="1089.28" y2="1071.24" style="stroke:#e26f46; stroke-width:3.2; stroke-opacity:1"/>
<line clip-path="url(#clip802)" x1="1089.28" y1="1085.24" x2="1075.28" y2="1085.24" style="stroke:#e26f46; stroke-width:3.2; stroke-opacity:1"/>
<line clip-path="url(#clip802)" x1="1089.28" y1="1085.24" x2="1089.28" y2="1099.24" style="stroke:#e26f46; stroke-width:3.2; stroke-opacity:1"/>
<line clip-path="url(#clip802)" x1="1089.28" y1="1085.24" x2="1103.28" y2="1085.24" style="stroke:#e26f46; stroke-width:3.2; stroke-opacity:1"/>
<line clip-path="url(#clip802)" x1="1094.39" y1="951.462" x2="1094.39" y2="937.462" style="stroke:#e26f46; stroke-width:3.2; stroke-opacity:1"/>
<line clip-path="url(#clip802)" x1="1094.39" y1="951.462" x2="1080.39" y2="951.462" style="stroke:#e26f46; stroke-width:3.2; stroke-opacity:1"/>
<line clip-path="url(#clip802)" x1="1094.39" y1="951.462" x2="1094.39" y2="965.462" style="stroke:#e26f46; stroke-width:3.2; stroke-opacity:1"/>
<line clip-path="url(#clip802)" x1="1094.39" y1="951.462" x2="1108.39" y2="951.462" style="stroke:#e26f46; stroke-width:3.2; stroke-opacity:1"/>
<line clip-path="url(#clip802)" x1="1220.56" y1="497.215" x2="1220.56" y2="483.215" style="stroke:#e26f46; stroke-width:3.2; stroke-opacity:1"/>
<line clip-path="url(#clip802)" x1="1220.56" y1="497.215" x2="1206.56" y2="497.215" style="stroke:#e26f46; stroke-width:3.2; stroke-opacity:1"/>
<line clip-path="url(#clip802)" x1="1220.56" y1="497.215" x2="1220.56" y2="511.215" style="stroke:#e26f46; stroke-width:3.2; stroke-opacity:1"/>
<line clip-path="url(#clip802)" x1="1220.56" y1="497.215" x2="1234.56" y2="497.215" style="stroke:#e26f46; stroke-width:3.2; stroke-opacity:1"/>
<line clip-path="url(#clip802)" x1="1336.82" y1="86.1857" x2="1336.82" y2="72.1857" style="stroke:#e26f46; stroke-width:3.2; stroke-opacity:1"/>
<line clip-path="url(#clip802)" x1="1336.82" y1="86.1857" x2="1322.82" y2="86.1857" style="stroke:#e26f46; stroke-width:3.2; stroke-opacity:1"/>
<line clip-path="url(#clip802)" x1="1336.82" y1="86.1857" x2="1336.82" y2="100.186" style="stroke:#e26f46; stroke-width:3.2; stroke-opacity:1"/>
<line clip-path="url(#clip802)" x1="1336.82" y1="86.1857" x2="1350.82" y2="86.1857" style="stroke:#e26f46; stroke-width:3.2; stroke-opacity:1"/>
<line clip-path="url(#clip802)" x1="1390.06" y1="296.286" x2="1390.06" y2="282.286" style="stroke:#e26f46; stroke-width:3.2; stroke-opacity:1"/>
<line clip-path="url(#clip802)" x1="1390.06" y1="296.286" x2="1376.06" y2="296.286" style="stroke:#e26f46; stroke-width:3.2; stroke-opacity:1"/>
<line clip-path="url(#clip802)" x1="1390.06" y1="296.286" x2="1390.06" y2="310.286" style="stroke:#e26f46; stroke-width:3.2; stroke-opacity:1"/>
<line clip-path="url(#clip802)" x1="1390.06" y1="296.286" x2="1404.06" y2="296.286" style="stroke:#e26f46; stroke-width:3.2; stroke-opacity:1"/>
<line clip-path="url(#clip802)" x1="1440.93" y1="748.493" x2="1440.93" y2="734.493" style="stroke:#e26f46; stroke-width:3.2; stroke-opacity:1"/>
<line clip-path="url(#clip802)" x1="1440.93" y1="748.493" x2="1426.93" y2="748.493" style="stroke:#e26f46; stroke-width:3.2; stroke-opacity:1"/>
<line clip-path="url(#clip802)" x1="1440.93" y1="748.493" x2="1440.93" y2="762.493" style="stroke:#e26f46; stroke-width:3.2; stroke-opacity:1"/>
<line clip-path="url(#clip802)" x1="1440.93" y1="748.493" x2="1454.93" y2="748.493" style="stroke:#e26f46; stroke-width:3.2; stroke-opacity:1"/>
<line clip-path="url(#clip802)" x1="1524.24" y1="1035.32" x2="1524.24" y2="1021.32" style="stroke:#e26f46; stroke-width:3.2; stroke-opacity:1"/>
<line clip-path="url(#clip802)" x1="1524.24" y1="1035.32" x2="1510.24" y2="1035.32" style="stroke:#e26f46; stroke-width:3.2; stroke-opacity:1"/>
<line clip-path="url(#clip802)" x1="1524.24" y1="1035.32" x2="1524.24" y2="1049.32" style="stroke:#e26f46; stroke-width:3.2; stroke-opacity:1"/>
<line clip-path="url(#clip802)" x1="1524.24" y1="1035.32" x2="1538.24" y2="1035.32" style="stroke:#e26f46; stroke-width:3.2; stroke-opacity:1"/>
<line clip-path="url(#clip802)" x1="1542.78" y1="1152.21" x2="1542.78" y2="1138.21" style="stroke:#e26f46; stroke-width:3.2; stroke-opacity:1"/>
<line clip-path="url(#clip802)" x1="1542.78" y1="1152.21" x2="1528.78" y2="1152.21" style="stroke:#e26f46; stroke-width:3.2; stroke-opacity:1"/>
<line clip-path="url(#clip802)" x1="1542.78" y1="1152.21" x2="1542.78" y2="1166.21" style="stroke:#e26f46; stroke-width:3.2; stroke-opacity:1"/>
<line clip-path="url(#clip802)" x1="1542.78" y1="1152.21" x2="1556.78" y2="1152.21" style="stroke:#e26f46; stroke-width:3.2; stroke-opacity:1"/>
<line clip-path="url(#clip802)" x1="1568.93" y1="1195.48" x2="1568.93" y2="1181.48" style="stroke:#e26f46; stroke-width:3.2; stroke-opacity:1"/>
<line clip-path="url(#clip802)" x1="1568.93" y1="1195.48" x2="1554.93" y2="1195.48" style="stroke:#e26f46; stroke-width:3.2; stroke-opacity:1"/>
<line clip-path="url(#clip802)" x1="1568.93" y1="1195.48" x2="1568.93" y2="1209.48" style="stroke:#e26f46; stroke-width:3.2; stroke-opacity:1"/>
<line clip-path="url(#clip802)" x1="1568.93" y1="1195.48" x2="1582.93" y2="1195.48" style="stroke:#e26f46; stroke-width:3.2; stroke-opacity:1"/>
<line clip-path="url(#clip802)" x1="1569.45" y1="1085.13" x2="1569.45" y2="1071.13" style="stroke:#e26f46; stroke-width:3.2; stroke-opacity:1"/>
<line clip-path="url(#clip802)" x1="1569.45" y1="1085.13" x2="1555.45" y2="1085.13" style="stroke:#e26f46; stroke-width:3.2; stroke-opacity:1"/>
<line clip-path="url(#clip802)" x1="1569.45" y1="1085.13" x2="1569.45" y2="1099.13" style="stroke:#e26f46; stroke-width:3.2; stroke-opacity:1"/>
<line clip-path="url(#clip802)" x1="1569.45" y1="1085.13" x2="1583.45" y2="1085.13" style="stroke:#e26f46; stroke-width:3.2; stroke-opacity:1"/>
<line clip-path="url(#clip802)" x1="1596.67" y1="1149.39" x2="1596.67" y2="1135.39" style="stroke:#e26f46; stroke-width:3.2; stroke-opacity:1"/>
<line clip-path="url(#clip802)" x1="1596.67" y1="1149.39" x2="1582.67" y2="1149.39" style="stroke:#e26f46; stroke-width:3.2; stroke-opacity:1"/>
<line clip-path="url(#clip802)" x1="1596.67" y1="1149.39" x2="1596.67" y2="1163.39" style="stroke:#e26f46; stroke-width:3.2; stroke-opacity:1"/>
<line clip-path="url(#clip802)" x1="1596.67" y1="1149.39" x2="1610.67" y2="1149.39" style="stroke:#e26f46; stroke-width:3.2; stroke-opacity:1"/>
<line clip-path="url(#clip802)" x1="1605.91" y1="1295.66" x2="1605.91" y2="1281.66" style="stroke:#e26f46; stroke-width:3.2; stroke-opacity:1"/>
<line clip-path="url(#clip802)" x1="1605.91" y1="1295.66" x2="1591.91" y2="1295.66" style="stroke:#e26f46; stroke-width:3.2; stroke-opacity:1"/>
<line clip-path="url(#clip802)" x1="1605.91" y1="1295.66" x2="1605.91" y2="1309.66" style="stroke:#e26f46; stroke-width:3.2; stroke-opacity:1"/>
<line clip-path="url(#clip802)" x1="1605.91" y1="1295.66" x2="1619.91" y2="1295.66" style="stroke:#e26f46; stroke-width:3.2; stroke-opacity:1"/>
<line clip-path="url(#clip802)" x1="1622.61" y1="1336.7" x2="1622.61" y2="1322.7" style="stroke:#e26f46; stroke-width:3.2; stroke-opacity:1"/>
<line clip-path="url(#clip802)" x1="1622.61" y1="1336.7" x2="1608.61" y2="1336.7" style="stroke:#e26f46; stroke-width:3.2; stroke-opacity:1"/>
<line clip-path="url(#clip802)" x1="1622.61" y1="1336.7" x2="1622.61" y2="1350.7" style="stroke:#e26f46; stroke-width:3.2; stroke-opacity:1"/>
<line clip-path="url(#clip802)" x1="1622.61" y1="1336.7" x2="1636.61" y2="1336.7" style="stroke:#e26f46; stroke-width:3.2; stroke-opacity:1"/>
<line clip-path="url(#clip802)" x1="1727.33" y1="1263.09" x2="1727.33" y2="1249.09" style="stroke:#e26f46; stroke-width:3.2; stroke-opacity:1"/>
<line clip-path="url(#clip802)" x1="1727.33" y1="1263.09" x2="1713.33" y2="1263.09" style="stroke:#e26f46; stroke-width:3.2; stroke-opacity:1"/>
<line clip-path="url(#clip802)" x1="1727.33" y1="1263.09" x2="1727.33" y2="1277.09" style="stroke:#e26f46; stroke-width:3.2; stroke-opacity:1"/>
<line clip-path="url(#clip802)" x1="1727.33" y1="1263.09" x2="1741.33" y2="1263.09" style="stroke:#e26f46; stroke-width:3.2; stroke-opacity:1"/>
<line clip-path="url(#clip802)" x1="1729.66" y1="1136.18" x2="1729.66" y2="1122.18" style="stroke:#e26f46; stroke-width:3.2; stroke-opacity:1"/>
<line clip-path="url(#clip802)" x1="1729.66" y1="1136.18" x2="1715.66" y2="1136.18" style="stroke:#e26f46; stroke-width:3.2; stroke-opacity:1"/>
<line clip-path="url(#clip802)" x1="1729.66" y1="1136.18" x2="1729.66" y2="1150.18" style="stroke:#e26f46; stroke-width:3.2; stroke-opacity:1"/>
<line clip-path="url(#clip802)" x1="1729.66" y1="1136.18" x2="1743.66" y2="1136.18" style="stroke:#e26f46; stroke-width:3.2; stroke-opacity:1"/>
<line clip-path="url(#clip802)" x1="1770.98" y1="1133.68" x2="1770.98" y2="1119.68" style="stroke:#e26f46; stroke-width:3.2; stroke-opacity:1"/>
<line clip-path="url(#clip802)" x1="1770.98" y1="1133.68" x2="1756.98" y2="1133.68" style="stroke:#e26f46; stroke-width:3.2; stroke-opacity:1"/>
<line clip-path="url(#clip802)" x1="1770.98" y1="1133.68" x2="1770.98" y2="1147.68" style="stroke:#e26f46; stroke-width:3.2; stroke-opacity:1"/>
<line clip-path="url(#clip802)" x1="1770.98" y1="1133.68" x2="1784.98" y2="1133.68" style="stroke:#e26f46; stroke-width:3.2; stroke-opacity:1"/>
<line clip-path="url(#clip802)" x1="1776" y1="1170.83" x2="1776" y2="1156.83" style="stroke:#e26f46; stroke-width:3.2; stroke-opacity:1"/>
<line clip-path="url(#clip802)" x1="1776" y1="1170.83" x2="1762" y2="1170.83" style="stroke:#e26f46; stroke-width:3.2; stroke-opacity:1"/>
<line clip-path="url(#clip802)" x1="1776" y1="1170.83" x2="1776" y2="1184.83" style="stroke:#e26f46; stroke-width:3.2; stroke-opacity:1"/>
<line clip-path="url(#clip802)" x1="1776" y1="1170.83" x2="1790" y2="1170.83" style="stroke:#e26f46; stroke-width:3.2; stroke-opacity:1"/>
<line clip-path="url(#clip802)" x1="1799.67" y1="1146.84" x2="1799.67" y2="1132.84" style="stroke:#e26f46; stroke-width:3.2; stroke-opacity:1"/>
<line clip-path="url(#clip802)" x1="1799.67" y1="1146.84" x2="1785.67" y2="1146.84" style="stroke:#e26f46; stroke-width:3.2; stroke-opacity:1"/>
<line clip-path="url(#clip802)" x1="1799.67" y1="1146.84" x2="1799.67" y2="1160.84" style="stroke:#e26f46; stroke-width:3.2; stroke-opacity:1"/>
<line clip-path="url(#clip802)" x1="1799.67" y1="1146.84" x2="1813.67" y2="1146.84" style="stroke:#e26f46; stroke-width:3.2; stroke-opacity:1"/>
<line clip-path="url(#clip802)" x1="1862.73" y1="921.096" x2="1862.73" y2="907.096" style="stroke:#e26f46; stroke-width:3.2; stroke-opacity:1"/>
<line clip-path="url(#clip802)" x1="1862.73" y1="921.096" x2="1848.73" y2="921.096" style="stroke:#e26f46; stroke-width:3.2; stroke-opacity:1"/>
<line clip-path="url(#clip802)" x1="1862.73" y1="921.096" x2="1862.73" y2="935.096" style="stroke:#e26f46; stroke-width:3.2; stroke-opacity:1"/>
<line clip-path="url(#clip802)" x1="1862.73" y1="921.096" x2="1876.73" y2="921.096" style="stroke:#e26f46; stroke-width:3.2; stroke-opacity:1"/>
<line clip-path="url(#clip802)" x1="1903.83" y1="1011.43" x2="1903.83" y2="997.434" style="stroke:#e26f46; stroke-width:3.2; stroke-opacity:1"/>
<line clip-path="url(#clip802)" x1="1903.83" y1="1011.43" x2="1889.83" y2="1011.43" style="stroke:#e26f46; stroke-width:3.2; stroke-opacity:1"/>
<line clip-path="url(#clip802)" x1="1903.83" y1="1011.43" x2="1903.83" y2="1025.43" style="stroke:#e26f46; stroke-width:3.2; stroke-opacity:1"/>
<line clip-path="url(#clip802)" x1="1903.83" y1="1011.43" x2="1917.83" y2="1011.43" style="stroke:#e26f46; stroke-width:3.2; stroke-opacity:1"/>
<line clip-path="url(#clip802)" x1="1947.83" y1="1023.38" x2="1947.83" y2="1009.38" style="stroke:#e26f46; stroke-width:3.2; stroke-opacity:1"/>
<line clip-path="url(#clip802)" x1="1947.83" y1="1023.38" x2="1933.83" y2="1023.38" style="stroke:#e26f46; stroke-width:3.2; stroke-opacity:1"/>
<line clip-path="url(#clip802)" x1="1947.83" y1="1023.38" x2="1947.83" y2="1037.38" style="stroke:#e26f46; stroke-width:3.2; stroke-opacity:1"/>
<line clip-path="url(#clip802)" x1="1947.83" y1="1023.38" x2="1961.83" y2="1023.38" style="stroke:#e26f46; stroke-width:3.2; stroke-opacity:1"/>
<line clip-path="url(#clip802)" x1="1967.5" y1="1062.27" x2="1967.5" y2="1048.27" style="stroke:#e26f46; stroke-width:3.2; stroke-opacity:1"/>
<line clip-path="url(#clip802)" x1="1967.5" y1="1062.27" x2="1953.5" y2="1062.27" style="stroke:#e26f46; stroke-width:3.2; stroke-opacity:1"/>
<line clip-path="url(#clip802)" x1="1967.5" y1="1062.27" x2="1967.5" y2="1076.27" style="stroke:#e26f46; stroke-width:3.2; stroke-opacity:1"/>
<line clip-path="url(#clip802)" x1="1967.5" y1="1062.27" x2="1981.5" y2="1062.27" style="stroke:#e26f46; stroke-width:3.2; stroke-opacity:1"/>
<line clip-path="url(#clip802)" x1="1978.65" y1="1303.42" x2="1978.65" y2="1289.42" style="stroke:#e26f46; stroke-width:3.2; stroke-opacity:1"/>
<line clip-path="url(#clip802)" x1="1978.65" y1="1303.42" x2="1964.65" y2="1303.42" style="stroke:#e26f46; stroke-width:3.2; stroke-opacity:1"/>
<line clip-path="url(#clip802)" x1="1978.65" y1="1303.42" x2="1978.65" y2="1317.42" style="stroke:#e26f46; stroke-width:3.2; stroke-opacity:1"/>
<line clip-path="url(#clip802)" x1="1978.65" y1="1303.42" x2="1992.65" y2="1303.42" style="stroke:#e26f46; stroke-width:3.2; stroke-opacity:1"/>
<line clip-path="url(#clip802)" x1="2025.01" y1="1037.47" x2="2025.01" y2="1023.47" style="stroke:#e26f46; stroke-width:3.2; stroke-opacity:1"/>
<line clip-path="url(#clip802)" x1="2025.01" y1="1037.47" x2="2011.01" y2="1037.47" style="stroke:#e26f46; stroke-width:3.2; stroke-opacity:1"/>
<line clip-path="url(#clip802)" x1="2025.01" y1="1037.47" x2="2025.01" y2="1051.47" style="stroke:#e26f46; stroke-width:3.2; stroke-opacity:1"/>
<line clip-path="url(#clip802)" x1="2025.01" y1="1037.47" x2="2039.01" y2="1037.47" style="stroke:#e26f46; stroke-width:3.2; stroke-opacity:1"/>
<line clip-path="url(#clip802)" x1="2046.92" y1="1110.17" x2="2046.92" y2="1096.17" style="stroke:#e26f46; stroke-width:3.2; stroke-opacity:1"/>
<line clip-path="url(#clip802)" x1="2046.92" y1="1110.17" x2="2032.92" y2="1110.17" style="stroke:#e26f46; stroke-width:3.2; stroke-opacity:1"/>
<line clip-path="url(#clip802)" x1="2046.92" y1="1110.17" x2="2046.92" y2="1124.17" style="stroke:#e26f46; stroke-width:3.2; stroke-opacity:1"/>
<line clip-path="url(#clip802)" x1="2046.92" y1="1110.17" x2="2060.92" y2="1110.17" style="stroke:#e26f46; stroke-width:3.2; stroke-opacity:1"/>
<line clip-path="url(#clip802)" x1="2093.82" y1="1161.26" x2="2093.82" y2="1147.26" style="stroke:#e26f46; stroke-width:3.2; stroke-opacity:1"/>
<line clip-path="url(#clip802)" x1="2093.82" y1="1161.26" x2="2079.82" y2="1161.26" style="stroke:#e26f46; stroke-width:3.2; stroke-opacity:1"/>
<line clip-path="url(#clip802)" x1="2093.82" y1="1161.26" x2="2093.82" y2="1175.26" style="stroke:#e26f46; stroke-width:3.2; stroke-opacity:1"/>
<line clip-path="url(#clip802)" x1="2093.82" y1="1161.26" x2="2107.82" y2="1161.26" style="stroke:#e26f46; stroke-width:3.2; stroke-opacity:1"/>
<line clip-path="url(#clip802)" x1="2236.78" y1="1091.61" x2="2236.78" y2="1077.61" style="stroke:#e26f46; stroke-width:3.2; stroke-opacity:1"/>
<line clip-path="url(#clip802)" x1="2236.78" y1="1091.61" x2="2222.78" y2="1091.61" style="stroke:#e26f46; stroke-width:3.2; stroke-opacity:1"/>
<line clip-path="url(#clip802)" x1="2236.78" y1="1091.61" x2="2236.78" y2="1105.61" style="stroke:#e26f46; stroke-width:3.2; stroke-opacity:1"/>
<line clip-path="url(#clip802)" x1="2236.78" y1="1091.61" x2="2250.78" y2="1091.61" style="stroke:#e26f46; stroke-width:3.2; stroke-opacity:1"/>
<line clip-path="url(#clip802)" x1="2246.38" y1="1177.1" x2="2246.38" y2="1163.1" style="stroke:#e26f46; stroke-width:3.2; stroke-opacity:1"/>
<line clip-path="url(#clip802)" x1="2246.38" y1="1177.1" x2="2232.38" y2="1177.1" style="stroke:#e26f46; stroke-width:3.2; stroke-opacity:1"/>
<line clip-path="url(#clip802)" x1="2246.38" y1="1177.1" x2="2246.38" y2="1191.1" style="stroke:#e26f46; stroke-width:3.2; stroke-opacity:1"/>
<line clip-path="url(#clip802)" x1="2246.38" y1="1177.1" x2="2260.38" y2="1177.1" style="stroke:#e26f46; stroke-width:3.2; stroke-opacity:1"/>
<line clip-path="url(#clip802)" x1="2254.69" y1="1127.72" x2="2254.69" y2="1113.72" style="stroke:#e26f46; stroke-width:3.2; stroke-opacity:1"/>
<line clip-path="url(#clip802)" x1="2254.69" y1="1127.72" x2="2240.69" y2="1127.72" style="stroke:#e26f46; stroke-width:3.2; stroke-opacity:1"/>
<line clip-path="url(#clip802)" x1="2254.69" y1="1127.72" x2="2254.69" y2="1141.72" style="stroke:#e26f46; stroke-width:3.2; stroke-opacity:1"/>
<line clip-path="url(#clip802)" x1="2254.69" y1="1127.72" x2="2268.69" y2="1127.72" style="stroke:#e26f46; stroke-width:3.2; stroke-opacity:1"/>
<line clip-path="url(#clip802)" x1="2259.52" y1="1149.21" x2="2259.52" y2="1135.21" style="stroke:#e26f46; stroke-width:3.2; stroke-opacity:1"/>
<line clip-path="url(#clip802)" x1="2259.52" y1="1149.21" x2="2245.52" y2="1149.21" style="stroke:#e26f46; stroke-width:3.2; stroke-opacity:1"/>
<line clip-path="url(#clip802)" x1="2259.52" y1="1149.21" x2="2259.52" y2="1163.21" style="stroke:#e26f46; stroke-width:3.2; stroke-opacity:1"/>
<line clip-path="url(#clip802)" x1="2259.52" y1="1149.21" x2="2273.52" y2="1149.21" style="stroke:#e26f46; stroke-width:3.2; stroke-opacity:1"/>
<path clip-path="url(#clip800)" d="M1772.42 248.629 L2282.85 248.629 L2282.85 93.1086 L1772.42 93.1086  Z" fill="#ffffff" fill-rule="evenodd" fill-opacity="1"/>
<polyline clip-path="url(#clip800)" style="stroke:#000000; stroke-linecap:round; stroke-linejoin:round; stroke-width:4; stroke-opacity:1; fill:none" points="1772.42,248.629 2282.85,248.629 2282.85,93.1086 1772.42,93.1086 1772.42,248.629 "/>
<polyline clip-path="url(#clip800)" style="stroke:#0000ff; stroke-linecap:round; stroke-linejoin:round; stroke-width:6; stroke-opacity:1; fill:none" points="1795.72,144.949 1935.53,144.949 "/>
<path clip-path="url(#clip800)" d="M1966.24 128.942 L1966.24 136.303 L1975.01 136.303 L1975.01 139.613 L1966.24 139.613 L1966.24 153.687 Q1966.24 156.858 1967.1 157.761 Q1967.98 158.664 1970.64 158.664 L1975.01 158.664 L1975.01 162.229 L1970.64 162.229 Q1965.71 162.229 1963.83 160.4 Q1961.96 158.548 1961.96 153.687 L1961.96 139.613 L1958.83 139.613 L1958.83 136.303 L1961.96 136.303 L1961.96 128.942 L1966.24 128.942 Z" fill="#000000" fill-rule="nonzero" fill-opacity="1" /><path clip-path="url(#clip800)" d="M1995.64 140.284 Q1994.92 139.868 1994.06 139.682 Q1993.23 139.474 1992.21 139.474 Q1988.6 139.474 1986.66 141.835 Q1984.74 144.173 1984.74 148.571 L1984.74 162.229 L1980.45 162.229 L1980.45 136.303 L1984.74 136.303 L1984.74 140.331 Q1986.08 137.969 1988.23 136.835 Q1990.38 135.678 1993.46 135.678 Q1993.9 135.678 1994.43 135.747 Q1994.97 135.794 1995.62 135.909 L1995.64 140.284 Z" fill="#000000" fill-rule="nonzero" fill-opacity="1" /><path clip-path="url(#clip800)" d="M1999.67 151.997 L1999.67 136.303 L2003.93 136.303 L2003.93 151.835 Q2003.93 155.516 2005.36 157.368 Q2006.8 159.196 2009.67 159.196 Q2013.12 159.196 2015.11 156.997 Q2017.12 154.798 2017.12 151.002 L2017.12 136.303 L2021.38 136.303 L2021.38 162.229 L2017.12 162.229 L2017.12 158.247 Q2015.57 160.608 2013.51 161.766 Q2011.47 162.9 2008.76 162.9 Q2004.3 162.9 2001.98 160.122 Q1999.67 157.344 1999.67 151.997 M2010.38 135.678 L2010.38 135.678 Z" fill="#000000" fill-rule="nonzero" fill-opacity="1" /><path clip-path="url(#clip800)" d="M2052.33 148.201 L2052.33 150.284 L2032.74 150.284 Q2033.02 154.682 2035.38 156.997 Q2037.77 159.289 2042 159.289 Q2044.46 159.289 2046.75 158.687 Q2049.06 158.085 2051.33 156.881 L2051.33 160.909 Q2049.04 161.881 2046.63 162.391 Q2044.23 162.9 2041.75 162.9 Q2035.55 162.9 2031.91 159.289 Q2028.3 155.678 2028.3 149.52 Q2028.3 143.155 2031.73 139.428 Q2035.18 135.678 2041.01 135.678 Q2046.24 135.678 2049.27 139.057 Q2052.33 142.414 2052.33 148.201 M2048.07 146.951 Q2048.02 143.456 2046.1 141.372 Q2044.2 139.289 2041.06 139.289 Q2037.49 139.289 2035.34 141.303 Q2033.21 143.317 2032.88 146.974 L2048.07 146.951 Z" fill="#000000" fill-rule="nonzero" fill-opacity="1" /><path clip-path="url(#clip800)" d="M2087.51 126.21 L2087.51 129.752 L2083.44 129.752 Q2081.15 129.752 2080.24 130.678 Q2079.37 131.604 2079.37 134.011 L2079.37 136.303 L2086.38 136.303 L2086.38 139.613 L2079.37 139.613 L2079.37 162.229 L2075.08 162.229 L2075.08 139.613 L2071.01 139.613 L2071.01 136.303 L2075.08 136.303 L2075.08 134.497 Q2075.08 130.169 2077.1 128.201 Q2079.11 126.21 2083.49 126.21 L2087.51 126.21 Z" fill="#000000" fill-rule="nonzero" fill-opacity="1" /><path clip-path="url(#clip800)" d="M2090.64 151.997 L2090.64 136.303 L2094.9 136.303 L2094.9 151.835 Q2094.9 155.516 2096.33 157.368 Q2097.77 159.196 2100.64 159.196 Q2104.09 159.196 2106.08 156.997 Q2108.09 154.798 2108.09 151.002 L2108.09 136.303 L2112.35 136.303 L2112.35 162.229 L2108.09 162.229 L2108.09 158.247 Q2106.54 160.608 2104.48 161.766 Q2102.44 162.9 2099.74 162.9 Q2095.27 162.9 2092.95 160.122 Q2090.64 157.344 2090.64 151.997 M2101.36 135.678 L2101.36 135.678 Z" fill="#000000" fill-rule="nonzero" fill-opacity="1" /><path clip-path="url(#clip800)" d="M2142.67 146.581 L2142.67 162.229 L2138.42 162.229 L2138.42 146.719 Q2138.42 143.039 2136.98 141.21 Q2135.55 139.382 2132.67 139.382 Q2129.23 139.382 2127.24 141.581 Q2125.24 143.78 2125.24 147.576 L2125.24 162.229 L2120.96 162.229 L2120.96 136.303 L2125.24 136.303 L2125.24 140.331 Q2126.77 137.993 2128.83 136.835 Q2130.92 135.678 2133.62 135.678 Q2138.09 135.678 2140.38 138.456 Q2142.67 141.21 2142.67 146.581 Z" fill="#000000" fill-rule="nonzero" fill-opacity="1" /><path clip-path="url(#clip800)" d="M2169.83 137.298 L2169.83 141.28 Q2168.02 140.284 2166.19 139.798 Q2164.39 139.289 2162.54 139.289 Q2158.39 139.289 2156.1 141.928 Q2153.81 144.544 2153.81 149.289 Q2153.81 154.034 2156.1 156.673 Q2158.39 159.289 2162.54 159.289 Q2164.39 159.289 2166.19 158.803 Q2168.02 158.293 2169.83 157.298 L2169.83 161.233 Q2168.05 162.067 2166.12 162.483 Q2164.23 162.9 2162.07 162.9 Q2156.22 162.9 2152.77 159.219 Q2149.32 155.539 2149.32 149.289 Q2149.32 142.946 2152.79 139.312 Q2156.29 135.678 2162.35 135.678 Q2164.32 135.678 2166.19 136.095 Q2168.07 136.488 2169.83 137.298 Z" fill="#000000" fill-rule="nonzero" fill-opacity="1" /><path clip-path="url(#clip800)" d="M2181.45 128.942 L2181.45 136.303 L2190.22 136.303 L2190.22 139.613 L2181.45 139.613 L2181.45 153.687 Q2181.45 156.858 2182.3 157.761 Q2183.18 158.664 2185.85 158.664 L2190.22 158.664 L2190.22 162.229 L2185.85 162.229 Q2180.92 162.229 2179.04 160.4 Q2177.17 158.548 2177.17 153.687 L2177.17 139.613 L2174.04 139.613 L2174.04 136.303 L2177.17 136.303 L2177.17 128.942 L2181.45 128.942 Z" fill="#000000" fill-rule="nonzero" fill-opacity="1" /><path clip-path="url(#clip800)" d="M2195.82 136.303 L2200.08 136.303 L2200.08 162.229 L2195.82 162.229 L2195.82 136.303 M2195.82 126.21 L2200.08 126.21 L2200.08 131.604 L2195.82 131.604 L2195.82 126.21 Z" fill="#000000" fill-rule="nonzero" fill-opacity="1" /><path clip-path="url(#clip800)" d="M2219.04 139.289 Q2215.61 139.289 2213.62 141.974 Q2211.63 144.636 2211.63 149.289 Q2211.63 153.942 2213.6 156.627 Q2215.59 159.289 2219.04 159.289 Q2222.44 159.289 2224.43 156.604 Q2226.42 153.918 2226.42 149.289 Q2226.42 144.682 2224.43 141.997 Q2222.44 139.289 2219.04 139.289 M2219.04 135.678 Q2224.6 135.678 2227.77 139.289 Q2230.94 142.9 2230.94 149.289 Q2230.94 155.655 2227.77 159.289 Q2224.6 162.9 2219.04 162.9 Q2213.46 162.9 2210.29 159.289 Q2207.14 155.655 2207.14 149.289 Q2207.14 142.9 2210.29 139.289 Q2213.46 135.678 2219.04 135.678 Z" fill="#000000" fill-rule="nonzero" fill-opacity="1" /><path clip-path="url(#clip800)" d="M2259.55 146.581 L2259.55 162.229 L2255.29 162.229 L2255.29 146.719 Q2255.29 143.039 2253.85 141.21 Q2252.42 139.382 2249.55 139.382 Q2246.1 139.382 2244.11 141.581 Q2242.12 143.78 2242.12 147.576 L2242.12 162.229 L2237.84 162.229 L2237.84 136.303 L2242.12 136.303 L2242.12 140.331 Q2243.65 137.993 2245.71 136.835 Q2247.79 135.678 2250.5 135.678 Q2254.97 135.678 2257.26 138.456 Q2259.55 141.21 2259.55 146.581 Z" fill="#000000" fill-rule="nonzero" fill-opacity="1" /><line clip-path="url(#clip800)" x1="1865.63" y1="196.789" x2="1865.63" y2="174.389" style="stroke:#e26f46; stroke-width:5.12; stroke-opacity:1"/>
<line clip-path="url(#clip800)" x1="1865.63" y1="196.789" x2="1843.23" y2="196.789" style="stroke:#e26f46; stroke-width:5.12; stroke-opacity:1"/>
<line clip-path="url(#clip800)" x1="1865.63" y1="196.789" x2="1865.63" y2="219.189" style="stroke:#e26f46; stroke-width:5.12; stroke-opacity:1"/>
<line clip-path="url(#clip800)" x1="1865.63" y1="196.789" x2="1888.03" y2="196.789" style="stroke:#e26f46; stroke-width:5.12; stroke-opacity:1"/>
<path clip-path="url(#clip800)" d="M1970.73 191.129 Q1967.31 191.129 1965.31 193.814 Q1963.32 196.476 1963.32 201.129 Q1963.32 205.782 1965.29 208.467 Q1967.28 211.129 1970.73 211.129 Q1974.13 211.129 1976.12 208.444 Q1978.12 205.758 1978.12 201.129 Q1978.12 196.522 1976.12 193.837 Q1974.13 191.129 1970.73 191.129 M1970.73 187.518 Q1976.29 187.518 1979.46 191.129 Q1982.63 194.74 1982.63 201.129 Q1982.63 207.495 1979.46 211.129 Q1976.29 214.74 1970.73 214.74 Q1965.15 214.74 1961.98 211.129 Q1958.83 207.495 1958.83 201.129 Q1958.83 194.74 1961.98 191.129 Q1965.15 187.518 1970.73 187.518 Z" fill="#000000" fill-rule="nonzero" fill-opacity="1" /><path clip-path="url(#clip800)" d="M2008.3 201.129 Q2008.3 196.43 2006.36 193.768 Q2004.43 191.083 2001.06 191.083 Q1997.68 191.083 1995.73 193.768 Q1993.81 196.43 1993.81 201.129 Q1993.81 205.828 1995.73 208.513 Q1997.68 211.175 2001.06 211.175 Q2004.43 211.175 2006.36 208.513 Q2008.3 205.828 2008.3 201.129 M1993.81 192.078 Q1995.15 189.763 1997.19 188.652 Q1999.25 187.518 2002.1 187.518 Q2006.82 187.518 2009.76 191.268 Q2012.72 195.018 2012.72 201.129 Q2012.72 207.24 2009.76 210.99 Q2006.82 214.74 2002.1 214.74 Q1999.25 214.74 1997.19 213.629 Q1995.15 212.495 1993.81 210.18 L1993.81 214.069 L1989.53 214.069 L1989.53 178.05 L1993.81 178.05 L1993.81 192.078 Z" fill="#000000" fill-rule="nonzero" fill-opacity="1" /><path clip-path="url(#clip800)" d="M2036.31 188.907 L2036.31 192.934 Q2034.5 192.009 2032.56 191.546 Q2030.62 191.083 2028.53 191.083 Q2025.36 191.083 2023.76 192.055 Q2022.19 193.027 2022.19 194.971 Q2022.19 196.453 2023.32 197.309 Q2024.46 198.143 2027.88 198.907 L2029.34 199.231 Q2033.88 200.203 2035.78 201.985 Q2037.7 203.745 2037.7 206.916 Q2037.7 210.527 2034.83 212.633 Q2031.98 214.74 2026.98 214.74 Q2024.9 214.74 2022.63 214.323 Q2020.38 213.93 2017.88 213.12 L2017.88 208.721 Q2020.25 209.948 2022.54 210.573 Q2024.83 211.175 2027.07 211.175 Q2030.08 211.175 2031.7 210.157 Q2033.32 209.115 2033.32 207.24 Q2033.32 205.504 2032.14 204.578 Q2030.99 203.652 2027.03 202.796 L2025.55 202.448 Q2021.59 201.615 2019.83 199.902 Q2018.07 198.166 2018.07 195.157 Q2018.07 191.499 2020.66 189.509 Q2023.25 187.518 2028.02 187.518 Q2030.38 187.518 2032.47 187.865 Q2034.55 188.212 2036.31 188.907 Z" fill="#000000" fill-rule="nonzero" fill-opacity="1" /><path clip-path="url(#clip800)" d="M2066.66 200.041 L2066.66 202.124 L2047.07 202.124 Q2047.35 206.522 2049.71 208.837 Q2052.1 211.129 2056.33 211.129 Q2058.79 211.129 2061.08 210.527 Q2063.39 209.925 2065.66 208.721 L2065.66 212.749 Q2063.37 213.721 2060.96 214.231 Q2058.55 214.74 2056.08 214.74 Q2049.87 214.74 2046.24 211.129 Q2042.63 207.518 2042.63 201.36 Q2042.63 194.995 2046.06 191.268 Q2049.5 187.518 2055.34 187.518 Q2060.57 187.518 2063.6 190.897 Q2066.66 194.254 2066.66 200.041 M2062.4 198.791 Q2062.35 195.296 2060.43 193.212 Q2058.53 191.129 2055.38 191.129 Q2051.82 191.129 2049.67 193.143 Q2047.54 195.157 2047.21 198.814 L2062.4 198.791 Z" fill="#000000" fill-rule="nonzero" fill-opacity="1" /><path clip-path="url(#clip800)" d="M2088.67 192.124 Q2087.95 191.708 2087.1 191.522 Q2086.26 191.314 2085.24 191.314 Q2081.63 191.314 2079.69 193.675 Q2077.77 196.013 2077.77 200.411 L2077.77 214.069 L2073.49 214.069 L2073.49 188.143 L2077.77 188.143 L2077.77 192.171 Q2079.11 189.809 2081.26 188.675 Q2083.42 187.518 2086.49 187.518 Q2086.93 187.518 2087.47 187.587 Q2088 187.634 2088.65 187.749 L2088.67 192.124 Z" fill="#000000" fill-rule="nonzero" fill-opacity="1" /><path clip-path="url(#clip800)" d="M2090.08 188.143 L2094.6 188.143 L2102.7 209.902 L2110.8 188.143 L2115.31 188.143 L2105.59 214.069 L2099.8 214.069 L2090.08 188.143 Z" fill="#000000" fill-rule="nonzero" fill-opacity="1" /><path clip-path="url(#clip800)" d="M2132.98 201.036 Q2127.81 201.036 2125.82 202.217 Q2123.83 203.397 2123.83 206.245 Q2123.83 208.513 2125.31 209.856 Q2126.82 211.175 2129.39 211.175 Q2132.93 211.175 2135.06 208.675 Q2137.21 206.152 2137.21 201.985 L2137.21 201.036 L2132.98 201.036 M2141.47 199.277 L2141.47 214.069 L2137.21 214.069 L2137.21 210.133 Q2135.75 212.495 2133.58 213.629 Q2131.4 214.74 2128.25 214.74 Q2124.27 214.74 2121.91 212.518 Q2119.57 210.272 2119.57 206.522 Q2119.57 202.147 2122.49 199.925 Q2125.43 197.703 2131.24 197.703 L2137.21 197.703 L2137.21 197.286 Q2137.21 194.347 2135.27 192.749 Q2133.35 191.129 2129.85 191.129 Q2127.63 191.129 2125.52 191.661 Q2123.42 192.194 2121.47 193.259 L2121.47 189.323 Q2123.81 188.421 2126.01 187.981 Q2128.21 187.518 2130.29 187.518 Q2135.92 187.518 2138.69 190.434 Q2141.47 193.351 2141.47 199.277 Z" fill="#000000" fill-rule="nonzero" fill-opacity="1" /><path clip-path="url(#clip800)" d="M2154.46 180.782 L2154.46 188.143 L2163.23 188.143 L2163.23 191.453 L2154.46 191.453 L2154.46 205.527 Q2154.46 208.698 2155.31 209.601 Q2156.19 210.504 2158.86 210.504 L2163.23 210.504 L2163.23 214.069 L2158.86 214.069 Q2153.92 214.069 2152.05 212.24 Q2150.17 210.388 2150.17 205.527 L2150.17 191.453 L2147.05 191.453 L2147.05 188.143 L2150.17 188.143 L2150.17 180.782 L2154.46 180.782 Z" fill="#000000" fill-rule="nonzero" fill-opacity="1" /><path clip-path="url(#clip800)" d="M2168.83 188.143 L2173.09 188.143 L2173.09 214.069 L2168.83 214.069 L2168.83 188.143 M2168.83 178.05 L2173.09 178.05 L2173.09 183.444 L2168.83 183.444 L2168.83 178.05 Z" fill="#000000" fill-rule="nonzero" fill-opacity="1" /><path clip-path="url(#clip800)" d="M2192.05 191.129 Q2188.62 191.129 2186.63 193.814 Q2184.64 196.476 2184.64 201.129 Q2184.64 205.782 2186.61 208.467 Q2188.6 211.129 2192.05 211.129 Q2195.45 211.129 2197.44 208.444 Q2199.43 205.758 2199.43 201.129 Q2199.43 196.522 2197.44 193.837 Q2195.45 191.129 2192.05 191.129 M2192.05 187.518 Q2197.61 187.518 2200.78 191.129 Q2203.95 194.74 2203.95 201.129 Q2203.95 207.495 2200.78 211.129 Q2197.61 214.74 2192.05 214.74 Q2186.47 214.74 2183.3 211.129 Q2180.15 207.495 2180.15 201.129 Q2180.15 194.74 2183.3 191.129 Q2186.47 187.518 2192.05 187.518 Z" fill="#000000" fill-rule="nonzero" fill-opacity="1" /><path clip-path="url(#clip800)" d="M2232.56 198.421 L2232.56 214.069 L2228.3 214.069 L2228.3 198.559 Q2228.3 194.879 2226.86 193.05 Q2225.43 191.222 2222.56 191.222 Q2219.11 191.222 2217.12 193.421 Q2215.13 195.62 2215.13 199.416 L2215.13 214.069 L2210.85 214.069 L2210.85 188.143 L2215.13 188.143 L2215.13 192.171 Q2216.66 189.833 2218.72 188.675 Q2220.8 187.518 2223.51 187.518 Q2227.98 187.518 2230.27 190.296 Q2232.56 193.05 2232.56 198.421 Z" fill="#000000" fill-rule="nonzero" fill-opacity="1" /><path clip-path="url(#clip800)" d="M2257.58 188.907 L2257.58 192.934 Q2255.78 192.009 2253.83 191.546 Q2251.89 191.083 2249.8 191.083 Q2246.63 191.083 2245.04 192.055 Q2243.46 193.027 2243.46 194.971 Q2243.46 196.453 2244.6 197.309 Q2245.73 198.143 2249.16 198.907 L2250.61 199.231 Q2255.15 200.203 2257.05 201.985 Q2258.97 203.745 2258.97 206.916 Q2258.97 210.527 2256.1 212.633 Q2253.25 214.74 2248.25 214.74 Q2246.17 214.74 2243.9 214.323 Q2241.66 213.93 2239.16 213.12 L2239.16 208.721 Q2241.52 209.948 2243.81 210.573 Q2246.1 211.175 2248.35 211.175 Q2251.35 211.175 2252.98 210.157 Q2254.6 209.115 2254.6 207.24 Q2254.6 205.504 2253.42 204.578 Q2252.26 203.652 2248.3 202.796 L2246.82 202.448 Q2242.86 201.615 2241.1 199.902 Q2239.34 198.166 2239.34 195.157 Q2239.34 191.499 2241.93 189.509 Q2244.53 187.518 2249.29 187.518 Q2251.66 187.518 2253.74 187.865 Q2255.82 188.212 2257.58 188.907 Z" fill="#000000" fill-rule="nonzero" fill-opacity="1" /></svg>
