<?xml version="1.0" encoding="utf-8"?>
<svg xmlns="http://www.w3.org/2000/svg" xmlns:xlink="http://www.w3.org/1999/xlink" width="600" height="400" viewBox="0 0 2400 1600">
<defs>
  <clipPath id="clip810">
    <rect x="0" y="0" width="2400" height="1600"/>
  </clipPath>
</defs>
<path clip-path="url(#clip810)" d="M0 1600 L2400 1600 L2400 8.88178e-14 L0 8.88178e-14  Z" fill="#ffffff" fill-rule="evenodd" fill-opacity="1"/>
<defs>
  <clipPath id="clip811">
    <rect x="480" y="0" width="1681" height="1600"/>
  </clipPath>
</defs>
<path clip-path="url(#clip810)" d="M149.191 1486.45 L2352.76 1486.45 L2352.76 47.2441 L149.191 47.2441  Z" fill="#ffffff" fill-rule="evenodd" fill-opacity="1"/>
<defs>
  <clipPath id="clip812">
    <rect x="149" y="47" width="2205" height="1440"/>
  </clipPath>
</defs>
<polyline clip-path="url(#clip812)" style="stroke:#000000; stroke-linecap:round; stroke-linejoin:round; stroke-width:2; stroke-opacity:0.1; fill:none" points="204.603,1486.45 204.603,47.2441 "/>
<polyline clip-path="url(#clip812)" style="stroke:#000000; stroke-linecap:round; stroke-linejoin:round; stroke-width:2; stroke-opacity:0.1; fill:none" points="899.866,1486.45 899.866,47.2441 "/>
<polyline clip-path="url(#clip812)" style="stroke:#000000; stroke-linecap:round; stroke-linejoin:round; stroke-width:2; stroke-opacity:0.1; fill:none" points="1595.13,1486.45 1595.13,47.2441 "/>
<polyline clip-path="url(#clip812)" style="stroke:#000000; stroke-linecap:round; stroke-linejoin:round; stroke-width:2; stroke-opacity:0.1; fill:none" points="2290.39,1486.45 2290.39,47.2441 "/>
<polyline clip-path="url(#clip812)" style="stroke:#000000; stroke-linecap:round; stroke-linejoin:round; stroke-width:2; stroke-opacity:0.1; fill:none" points="149.191,1307.81 2352.76,1307.81 "/>
<polyline clip-path="url(#clip812)" style="stroke:#000000; stroke-linecap:round; stroke-linejoin:round; stroke-width:2; stroke-opacity:0.1; fill:none" points="149.191,1034.77 2352.76,1034.77 "/>
<polyline clip-path="url(#clip812)" style="stroke:#000000; stroke-linecap:round; stroke-linejoin:round; stroke-width:2; stroke-opacity:0.1; fill:none" points="149.191,761.728 2352.76,761.728 "/>
<polyline clip-path="url(#clip812)" style="stroke:#000000; stroke-linecap:round; stroke-linejoin:round; stroke-width:2; stroke-opacity:0.1; fill:none" points="149.191,488.685 2352.76,488.685 "/>
<polyline clip-path="url(#clip812)" style="stroke:#000000; stroke-linecap:round; stroke-linejoin:round; stroke-width:2; stroke-opacity:0.1; fill:none" points="149.191,215.643 2352.76,215.643 "/>
<polyline clip-path="url(#clip810)" style="stroke:#000000; stroke-linecap:round; stroke-linejoin:round; stroke-width:4; stroke-opacity:1; fill:none" points="149.191,1486.45 2352.76,1486.45 "/>
<polyline clip-path="url(#clip810)" style="stroke:#000000; stroke-linecap:round; stroke-linejoin:round; stroke-width:4; stroke-opacity:1; fill:none" points="204.603,1486.45 204.603,1467.55 "/>
<polyline clip-path="url(#clip810)" style="stroke:#000000; stroke-linecap:round; stroke-linejoin:round; stroke-width:4; stroke-opacity:1; fill:none" points="899.866,1486.45 899.866,1467.55 "/>
<polyline clip-path="url(#clip810)" style="stroke:#000000; stroke-linecap:round; stroke-linejoin:round; stroke-width:4; stroke-opacity:1; fill:none" points="1595.13,1486.45 1595.13,1467.55 "/>
<polyline clip-path="url(#clip810)" style="stroke:#000000; stroke-linecap:round; stroke-linejoin:round; stroke-width:4; stroke-opacity:1; fill:none" points="2290.39,1486.45 2290.39,1467.55 "/>
<path clip-path="url(#clip810)" d="M204.603 1517.37 Q200.992 1517.37 199.164 1520.93 Q197.358 1524.47 197.358 1531.6 Q197.358 1538.71 199.164 1542.27 Q200.992 1545.82 204.603 1545.82 Q208.238 1545.82 210.043 1542.27 Q211.872 1538.71 211.872 1531.6 Q211.872 1524.47 210.043 1520.93 Q208.238 1517.37 204.603 1517.37 M204.603 1513.66 Q210.413 1513.66 213.469 1518.27 Q216.548 1522.85 216.548 1531.6 Q216.548 1540.33 213.469 1544.94 Q210.413 1549.52 204.603 1549.52 Q198.793 1549.52 195.714 1544.94 Q192.659 1540.33 192.659 1531.6 Q192.659 1522.85 195.714 1518.27 Q198.793 1513.66 204.603 1513.66 Z" fill="#000000" fill-rule="nonzero" fill-opacity="1" /><path clip-path="url(#clip810)" d="M859.473 1544.91 L867.111 1544.91 L867.111 1518.55 L858.801 1520.21 L858.801 1515.95 L867.065 1514.29 L871.741 1514.29 L871.741 1544.91 L879.38 1544.91 L879.38 1548.85 L859.473 1548.85 L859.473 1544.91 Z" fill="#000000" fill-rule="nonzero" fill-opacity="1" /><path clip-path="url(#clip810)" d="M898.824 1517.37 Q895.213 1517.37 893.384 1520.93 Q891.579 1524.47 891.579 1531.6 Q891.579 1538.71 893.384 1542.27 Q895.213 1545.82 898.824 1545.82 Q902.458 1545.82 904.264 1542.27 Q906.093 1538.71 906.093 1531.6 Q906.093 1524.47 904.264 1520.93 Q902.458 1517.37 898.824 1517.37 M898.824 1513.66 Q904.634 1513.66 907.69 1518.27 Q910.769 1522.85 910.769 1531.6 Q910.769 1540.33 907.69 1544.94 Q904.634 1549.52 898.824 1549.52 Q893.014 1549.52 889.935 1544.94 Q886.88 1540.33 886.88 1531.6 Q886.88 1522.85 889.935 1518.27 Q893.014 1513.66 898.824 1513.66 Z" fill="#000000" fill-rule="nonzero" fill-opacity="1" /><path clip-path="url(#clip810)" d="M928.986 1517.37 Q925.375 1517.37 923.546 1520.93 Q921.741 1524.47 921.741 1531.6 Q921.741 1538.71 923.546 1542.27 Q925.375 1545.82 928.986 1545.82 Q932.62 1545.82 934.426 1542.27 Q936.255 1538.71 936.255 1531.6 Q936.255 1524.47 934.426 1520.93 Q932.62 1517.37 928.986 1517.37 M928.986 1513.66 Q934.796 1513.66 937.852 1518.27 Q940.93 1522.85 940.93 1531.6 Q940.93 1540.33 937.852 1544.94 Q934.796 1549.52 928.986 1549.52 Q923.176 1549.52 920.097 1544.94 Q917.042 1540.33 917.042 1531.6 Q917.042 1522.85 920.097 1518.27 Q923.176 1513.66 928.986 1513.66 Z" fill="#000000" fill-rule="nonzero" fill-opacity="1" /><path clip-path="url(#clip810)" d="M1558.82 1544.91 L1575.14 1544.91 L1575.14 1548.85 L1553.2 1548.85 L1553.2 1544.91 Q1555.86 1542.16 1560.44 1537.53 Q1565.05 1532.88 1566.23 1531.53 Q1568.47 1529.01 1569.35 1527.27 Q1570.26 1525.51 1570.26 1523.82 Q1570.26 1521.07 1568.31 1519.33 Q1566.39 1517.6 1563.29 1517.6 Q1561.09 1517.6 1558.64 1518.36 Q1556.2 1519.13 1553.43 1520.68 L1553.43 1515.95 Q1556.25 1514.82 1558.7 1514.24 Q1561.16 1513.66 1563.2 1513.66 Q1568.57 1513.66 1571.76 1516.35 Q1574.95 1519.03 1574.95 1523.52 Q1574.95 1525.65 1574.14 1527.57 Q1573.36 1529.47 1571.25 1532.07 Q1570.67 1532.74 1567.57 1535.95 Q1564.47 1539.15 1558.82 1544.91 Z" fill="#000000" fill-rule="nonzero" fill-opacity="1" /><path clip-path="url(#clip810)" d="M1594.95 1517.37 Q1591.34 1517.37 1589.51 1520.93 Q1587.71 1524.47 1587.71 1531.6 Q1587.71 1538.71 1589.51 1542.27 Q1591.34 1545.82 1594.95 1545.82 Q1598.59 1545.82 1600.39 1542.27 Q1602.22 1538.71 1602.22 1531.6 Q1602.22 1524.47 1600.39 1520.93 Q1598.59 1517.37 1594.95 1517.37 M1594.95 1513.66 Q1600.76 1513.66 1603.82 1518.27 Q1606.9 1522.85 1606.9 1531.6 Q1606.9 1540.33 1603.82 1544.94 Q1600.76 1549.52 1594.95 1549.52 Q1589.14 1549.52 1586.07 1544.94 Q1583.01 1540.33 1583.01 1531.6 Q1583.01 1522.85 1586.07 1518.27 Q1589.14 1513.66 1594.95 1513.66 Z" fill="#000000" fill-rule="nonzero" fill-opacity="1" /><path clip-path="url(#clip810)" d="M1625.12 1517.37 Q1621.51 1517.37 1619.68 1520.93 Q1617.87 1524.47 1617.87 1531.6 Q1617.87 1538.71 1619.68 1542.27 Q1621.51 1545.82 1625.12 1545.82 Q1628.75 1545.82 1630.56 1542.27 Q1632.39 1538.71 1632.39 1531.6 Q1632.39 1524.47 1630.56 1520.93 Q1628.75 1517.37 1625.12 1517.37 M1625.12 1513.66 Q1630.93 1513.66 1633.98 1518.27 Q1637.06 1522.85 1637.06 1531.6 Q1637.06 1540.33 1633.98 1544.94 Q1630.93 1549.52 1625.12 1549.52 Q1619.31 1549.52 1616.23 1544.94 Q1613.17 1540.33 1613.17 1531.6 Q1613.17 1522.85 1616.23 1518.27 Q1619.31 1513.66 1625.12 1513.66 Z" fill="#000000" fill-rule="nonzero" fill-opacity="1" /><path clip-path="url(#clip810)" d="M2264.15 1530.21 Q2267.51 1530.93 2269.38 1533.2 Q2271.28 1535.47 2271.28 1538.8 Q2271.28 1543.92 2267.76 1546.72 Q2264.25 1549.52 2257.76 1549.52 Q2255.59 1549.52 2253.27 1549.08 Q2250.98 1548.66 2248.53 1547.81 L2248.53 1543.29 Q2250.47 1544.43 2252.79 1545.01 Q2255.1 1545.58 2257.62 1545.58 Q2262.02 1545.58 2264.31 1543.85 Q2266.63 1542.11 2266.63 1538.8 Q2266.63 1535.75 2264.48 1534.03 Q2262.35 1532.3 2258.53 1532.3 L2254.5 1532.3 L2254.5 1528.45 L2258.71 1528.45 Q2262.16 1528.45 2263.99 1527.09 Q2265.82 1525.7 2265.82 1523.11 Q2265.82 1520.45 2263.92 1519.03 Q2262.05 1517.6 2258.53 1517.6 Q2256.61 1517.6 2254.41 1518.01 Q2252.21 1518.43 2249.57 1519.31 L2249.57 1515.14 Q2252.23 1514.4 2254.55 1514.03 Q2256.88 1513.66 2258.94 1513.66 Q2264.27 1513.66 2267.37 1516.09 Q2270.47 1518.5 2270.47 1522.62 Q2270.47 1525.49 2268.83 1527.48 Q2267.18 1529.45 2264.15 1530.21 Z" fill="#000000" fill-rule="nonzero" fill-opacity="1" /><path clip-path="url(#clip810)" d="M2290.15 1517.37 Q2286.54 1517.37 2284.71 1520.93 Q2282.9 1524.47 2282.9 1531.6 Q2282.9 1538.71 2284.71 1542.27 Q2286.54 1545.82 2290.15 1545.82 Q2293.78 1545.82 2295.59 1542.27 Q2297.42 1538.71 2297.42 1531.6 Q2297.42 1524.47 2295.59 1520.93 Q2293.78 1517.37 2290.15 1517.37 M2290.15 1513.66 Q2295.96 1513.66 2299.01 1518.27 Q2302.09 1522.85 2302.09 1531.6 Q2302.09 1540.33 2299.01 1544.94 Q2295.96 1549.52 2290.15 1549.52 Q2284.34 1549.52 2281.26 1544.94 Q2278.2 1540.33 2278.2 1531.6 Q2278.2 1522.85 2281.26 1518.27 Q2284.34 1513.66 2290.15 1513.66 Z" fill="#000000" fill-rule="nonzero" fill-opacity="1" /><path clip-path="url(#clip810)" d="M2320.31 1517.37 Q2316.7 1517.37 2314.87 1520.93 Q2313.06 1524.47 2313.06 1531.6 Q2313.06 1538.71 2314.87 1542.27 Q2316.7 1545.82 2320.31 1545.82 Q2323.94 1545.82 2325.75 1542.27 Q2327.58 1538.71 2327.58 1531.6 Q2327.58 1524.47 2325.75 1520.93 Q2323.94 1517.37 2320.31 1517.37 M2320.31 1513.66 Q2326.12 1513.66 2329.18 1518.27 Q2332.25 1522.85 2332.25 1531.6 Q2332.25 1540.33 2329.18 1544.94 Q2326.12 1549.52 2320.31 1549.52 Q2314.5 1549.52 2311.42 1544.94 Q2308.37 1540.33 2308.37 1531.6 Q2308.37 1522.85 2311.42 1518.27 Q2314.5 1513.66 2320.31 1513.66 Z" fill="#000000" fill-rule="nonzero" fill-opacity="1" /><polyline clip-path="url(#clip810)" style="stroke:#000000; stroke-linecap:round; stroke-linejoin:round; stroke-width:4; stroke-opacity:1; fill:none" points="149.191,1486.45 149.191,47.2441 "/>
<polyline clip-path="url(#clip810)" style="stroke:#000000; stroke-linecap:round; stroke-linejoin:round; stroke-width:4; stroke-opacity:1; fill:none" points="149.191,1307.81 168.089,1307.81 "/>
<polyline clip-path="url(#clip810)" style="stroke:#000000; stroke-linecap:round; stroke-linejoin:round; stroke-width:4; stroke-opacity:1; fill:none" points="149.191,1034.77 168.089,1034.77 "/>
<polyline clip-path="url(#clip810)" style="stroke:#000000; stroke-linecap:round; stroke-linejoin:round; stroke-width:4; stroke-opacity:1; fill:none" points="149.191,761.728 168.089,761.728 "/>
<polyline clip-path="url(#clip810)" style="stroke:#000000; stroke-linecap:round; stroke-linejoin:round; stroke-width:4; stroke-opacity:1; fill:none" points="149.191,488.685 168.089,488.685 "/>
<polyline clip-path="url(#clip810)" style="stroke:#000000; stroke-linecap:round; stroke-linejoin:round; stroke-width:4; stroke-opacity:1; fill:none" points="149.191,215.643 168.089,215.643 "/>
<path clip-path="url(#clip810)" d="M50.9921 1308.26 L80.6679 1308.26 L80.6679 1312.2 L50.9921 1312.2 L50.9921 1308.26 Z" fill="#000000" fill-rule="nonzero" fill-opacity="1" /><path clip-path="url(#clip810)" d="M103.608 1294.61 L91.8021 1313.05 L103.608 1313.05 L103.608 1294.61 M102.381 1290.53 L108.26 1290.53 L108.26 1313.05 L113.191 1313.05 L113.191 1316.94 L108.26 1316.94 L108.26 1325.09 L103.608 1325.09 L103.608 1316.94 L88.0058 1316.94 L88.0058 1312.43 L102.381 1290.53 Z" fill="#000000" fill-rule="nonzero" fill-opacity="1" /><path clip-path="url(#clip810)" d="M53.0754 1035.22 L82.7512 1035.22 L82.7512 1039.16 L53.0754 1039.16 L53.0754 1035.22 Z" fill="#000000" fill-rule="nonzero" fill-opacity="1" /><path clip-path="url(#clip810)" d="M96.8715 1048.11 L113.191 1048.11 L113.191 1052.05 L91.2465 1052.05 L91.2465 1048.11 Q93.9086 1045.36 98.4919 1040.73 Q103.098 1036.08 104.279 1034.74 Q106.524 1032.21 107.404 1030.48 Q108.307 1028.72 108.307 1027.03 Q108.307 1024.27 106.362 1022.54 Q104.441 1020.8 101.339 1020.8 Q99.14 1020.8 96.6863 1021.56 Q94.2558 1022.33 91.478 1023.88 L91.478 1019.16 Q94.3021 1018.02 96.7558 1017.44 Q99.2095 1016.86 101.246 1016.86 Q106.617 1016.86 109.811 1019.55 Q113.006 1022.24 113.006 1026.73 Q113.006 1028.86 112.196 1030.78 Q111.408 1032.67 109.302 1035.27 Q108.723 1035.94 105.621 1039.16 Q102.52 1042.35 96.8715 1048.11 Z" fill="#000000" fill-rule="nonzero" fill-opacity="1" /><path clip-path="url(#clip810)" d="M101.246 747.526 Q97.6354 747.526 95.8067 751.091 Q94.0012 754.633 94.0012 761.762 Q94.0012 768.869 95.8067 772.434 Q97.6354 775.975 101.246 775.975 Q104.881 775.975 106.686 772.434 Q108.515 768.869 108.515 761.762 Q108.515 754.633 106.686 751.091 Q104.881 747.526 101.246 747.526 M101.246 743.823 Q107.057 743.823 110.112 748.429 Q113.191 753.012 113.191 761.762 Q113.191 770.489 110.112 775.096 Q107.057 779.679 101.246 779.679 Q95.4363 779.679 92.3576 775.096 Q89.3021 770.489 89.3021 761.762 Q89.3021 753.012 92.3576 748.429 Q95.4363 743.823 101.246 743.823 Z" fill="#000000" fill-rule="nonzero" fill-opacity="1" /><path clip-path="url(#clip810)" d="M96.8715 502.03 L113.191 502.03 L113.191 505.965 L91.2465 505.965 L91.2465 502.03 Q93.9086 499.276 98.4919 494.646 Q103.098 489.993 104.279 488.651 Q106.524 486.128 107.404 484.392 Q108.307 482.632 108.307 480.942 Q108.307 478.188 106.362 476.452 Q104.441 474.716 101.339 474.716 Q99.14 474.716 96.6863 475.48 Q94.2558 476.243 91.478 477.794 L91.478 473.072 Q94.3021 471.938 96.7558 471.359 Q99.2095 470.78 101.246 470.78 Q106.617 470.78 109.811 473.466 Q113.006 476.151 113.006 480.642 Q113.006 482.771 112.196 484.692 Q111.408 486.591 109.302 489.183 Q108.723 489.854 105.621 493.072 Q102.52 496.266 96.8715 502.03 Z" fill="#000000" fill-rule="nonzero" fill-opacity="1" /><path clip-path="url(#clip810)" d="M103.608 202.437 L91.8021 220.886 L103.608 220.886 L103.608 202.437 M102.381 198.363 L108.26 198.363 L108.26 220.886 L113.191 220.886 L113.191 224.775 L108.26 224.775 L108.26 232.923 L103.608 232.923 L103.608 224.775 L88.0058 224.775 L88.0058 220.261 L102.381 198.363 Z" fill="#000000" fill-rule="nonzero" fill-opacity="1" /><path clip-path="url(#clip812)" d="M211.556 795.792 L218.509 820.423 L225.461 822.438 L232.414 836.018 L239.366 844.223 L246.319 864.499 L253.272 878.392 L260.224 902.345 L267.177 908.022 L274.13 934.4 L281.082 935.795 L288.035 959.595 L294.987 958.343 L301.94 955.923 L308.893 981.43 L315.845 992.966 L322.798 998.567 L329.751 1008.44 L336.703 1029.75 L343.656 1048.16 L350.608 1050 L357.561 1052.98 L364.514 1092.12 L371.466 1087.15 L378.419 1088.55 L385.372 1112.58 L392.324 1122.29 L399.277 1148.42 L406.229 1168.08 L413.182 1183.05 L420.135 1217.21 L427.087 1220.89 L434.04 1220.74 L440.993 1217.82 L447.945 1216.54 L454.898 1211.96 L461.85 1227.66 L468.803 1227.64 L475.756 1278.57 L482.708 1264.7 L489.661 1273.7 L496.614 1279.64 L503.566 1296.39 L510.519 1314.94 L517.471 1298.42 L524.424 1339.45 L531.377 1384.02 L538.329 1379.24 L545.282 1351.95 L552.235 1365.6 L559.187 1393.72 L566.14 1379.5 L573.092 1374.88 L580.045 1378.89 L586.998 1359.74 L593.95 1378.34 L600.903 1396.16 L607.856 1376.23 L614.808 1384.54 L621.761 1371.62 L628.713 1368.45 L635.666 1377.04 L642.619 1355.55 L649.571 1361.57 L656.524 1374.7 L663.477 1383.08 L670.429 1358.95 L677.382 1392.71 L684.334 1315.62 L691.287 1320.06 L698.24 1295.49 L705.192 1319.71 L712.145 1329.97 L719.098 1331.61 L726.05 1295.93 L733.003 1290.71 L739.955 1279.7 L746.908 1260.48 L753.861 1228.56 L760.813 1265.78 L767.766 1267.92 L774.719 1238.32 L781.671 1219.57 L788.624 1199.59 L795.576 1171.13 L802.529 1150.81 L809.482 1128.16 L816.434 1132.64 L823.387 1138.13 L830.34 1137.28 L837.292 1130.58 L844.245 1108.02 L851.197 1104.02 L858.15 1085.19 L865.103 1074.01 L872.055 1063.58 L879.008 1052.86 L885.961 1032.93 L892.913 1014.37 L899.866 982.913 L906.818 964.341 L913.771 952.84 L920.724 937.888 L927.676 936.962 L934.629 934.422 L941.582 919.942 L948.534 915.807 L955.487 919.028 L962.439 901.944 L969.392 884.289 L976.345 881.499 L983.297 888.022 L990.25 864.746 L997.203 865.584 L1004.16 835.127 L1011.11 819.949 L1018.06 781.269 L1025.01 769.263 L1031.97 762.366 L1038.92 745.244 L1045.87 709.27 L1052.82 706.453 L1059.78 702.714 L1066.73 698.082 L1073.68 695.958 L1080.63 694.361 L1087.59 678.909 L1094.54 680.213 L1101.49 647.135 L1108.44 622.909 L1115.4 610.178 L1122.35 595.178 L1129.3 581.323 L1136.26 571.425 L1143.21 567.39 L1150.16 562.154 L1157.11 547.626 L1164.07 526.87 L1171.02 523.903 L1177.97 505.065 L1184.92 493.985 L1191.88 477.788 L1198.83 451.849 L1205.78 443.977 L1212.73 421.193 L1219.69 431.733 L1226.64 422.39 L1233.59 431.98 L1240.54 429.45 L1247.5 386.848 L1254.45 375.685 L1261.4 366.753 L1268.35 331.174 L1275.31 309.86 L1282.26 294.305 L1289.21 290.022 L1296.17 293.827 L1303.12 279.081 L1310.07 279.982 L1317.02 289.058 L1323.98 278.135 L1330.93 290.038 L1337.88 259.705 L1344.83 231.899 L1351.79 233.146 L1358.74 194.079 L1365.69 208.156 L1372.64 209.065 L1379.6 201.215 L1386.55 212.54 L1393.5 226.243 L1400.45 213.063 L1407.41 196.047 L1414.36 206.237 L1421.31 200.935 L1428.27 193.184 L1435.22 184.229 L1442.17 190.779 L1449.12 206.216 L1456.08 208.978 L1463.03 214.319 L1469.98 207.466 L1476.93 207.434 L1483.89 202.048 L1490.84 204.887 L1497.79 207.261 L1504.74 224.958 L1511.7 222.952 L1518.65 250.314 L1525.6 240.607 L1532.55 230.358 L1539.51 250.68 L1546.46 257.989 L1553.41 269.292 L1560.37 275.455 L1567.32 285.731 L1574.27 284.393 L1581.22 303.355 L1588.18 325.938 L1595.13 353.093 L1602.08 354.198 L1609.03 342.721 L1615.99 371.576 L1622.94 397.332 L1629.89 381.816 L1636.84 375.638 L1643.8 380.703 L1650.75 400.134 L1657.7 405.347 L1664.65 441.641 L1671.61 456.012 L1678.56 461.982 L1685.51 481.63 L1692.47 499.886 L1699.42 513.813 L1706.37 522.012 L1713.32 527.086 L1720.28 541.833 L1727.23 556.759 L1734.18 551.54 L1741.13 565.822 L1748.09 573.649 L1755.04 593.016 L1761.99 607.278 L1768.94 627.559 L1775.9 650.172 L1782.85 644.887 L1789.8 652.394 L1796.75 653.698 L1803.71 657.755 L1810.66 665.99 L1817.61 681.651 L1824.56 703.762 L1831.52 746.464 L1838.47 762.741 L1845.42 790.558 L1852.38 777.699 L1859.33 775.717 L1866.28 793.148 L1873.23 791.994 L1880.19 798.542 L1887.14 795.014 L1894.09 831.368 L1901.04 846.035 L1908 866.901 L1914.95 895.007 L1921.9 908.741 L1928.85 923.346 L1935.81 948.879 L1942.76 943.601 L1949.71 928.166 L1956.66 947.564 L1963.62 951.226 L1970.57 969.843 L1977.52 1004.92 L1984.48 994.309 L1991.43 995.565 L1998.38 1008.32 L2005.33 1016.49 L2012.29 1029.93 L2019.24 1070.28 L2026.19 1081.9 L2033.14 1110.53 L2040.1 1112.66 L2047.05 1128.98 L2054 1137.78 L2060.95 1153.48 L2067.91 1108.64 L2074.86 1189.44 L2081.81 1195.04 L2088.76 1193.94 L2095.72 1180.2 L2102.67 1202.71 L2109.62 1228.59 L2116.58 1234.48 L2123.53 1245.87 L2130.48 1247.79 L2137.43 1261.25 L2144.39 1253.63 L2151.34 1255.58 L2158.29 1281.27 L2165.24 1328.14 L2172.2 1350.86 L2179.15 1368.91 L2186.1 1366.63 L2193.05 1363.35 L2200.01 1394.78 L2206.96 1384.05 L2213.91 1392.95 L2220.86 1393.06 L2227.82 1378.2 L2234.77 1373.82 L2241.72 1367.89 L2248.68 1391.54 L2255.63 1380.07 L2262.58 1388.69 L2269.53 1392.98 L2276.49 1385.1 L2283.44 1390.19 L2290.39 1394.82 L2290.39 1343.79 L2283.44 1347.93 L2276.49 1347.95 L2269.53 1352.31 L2262.58 1350.29 L2255.63 1336.71 L2248.68 1351.42 L2241.72 1320.39 L2234.77 1328.45 L2227.82 1327.13 L2220.86 1354.43 L2213.91 1352.04 L2206.96 1343.19 L2200.01 1353.89 L2193.05 1317.3 L2186.1 1310.27 L2179.15 1311.38 L2172.2 1307.33 L2165.24 1278.16 L2158.29 1239.47 L2151.34 1220.08 L2144.39 1204.69 L2137.43 1215.67 L2130.48 1197.92 L2123.53 1195.3 L2116.58 1190.96 L2109.62 1177.71 L2102.67 1161.83 L2095.72 1131.37 L2088.76 1144.24 L2081.81 1144.57 L2074.86 1149.71 L2067.91 1089.12 L2060.95 1108.58 L2054 1087.59 L2047.05 1079.12 L2040.1 1063.21 L2033.14 1063.12 L2026.19 1044.23 L2019.24 1029.2 L2012.29 1004.44 L2005.33 989.179 L1998.38 968.492 L1991.43 955.692 L1984.48 952.061 L1977.52 959.408 L1970.57 934.679 L1963.62 912.324 L1956.66 905.434 L1949.71 887.686 L1942.76 898.508 L1935.81 904.848 L1928.85 884.562 L1921.9 870.663 L1914.95 858.023 L1908 826.751 L1901.04 809.08 L1894.09 795.225 L1887.14 749.944 L1880.19 754.722 L1873.23 752.231 L1866.28 751.954 L1859.33 738.853 L1852.38 735.794 L1845.42 745.71 L1838.47 723.809 L1831.52 708.438 L1824.56 658.921 L1817.61 644.892 L1810.66 631.266 L1803.71 621.269 L1796.75 615.666 L1789.8 612.797 L1782.85 606.313 L1775.9 606.639 L1768.94 589.324 L1761.99 568.422 L1755.04 554.166 L1748.09 528.409 L1741.13 527.72 L1734.18 514.455 L1727.23 516.869 L1720.28 498.991 L1713.32 494.134 L1706.37 478.7 L1699.42 471.764 L1692.47 454.011 L1685.51 435.697 L1678.56 416.368 L1671.61 413.125 L1664.65 396.123 L1657.7 359.83 L1650.75 355.549 L1643.8 330.199 L1636.84 340.278 L1629.89 346.543 L1622.94 354.735 L1615.99 322.413 L1609.03 299.876 L1602.08 324.31 L1595.13 303.411 L1588.18 298.228 L1581.22 249.429 L1574.27 230.483 L1567.32 239.379 L1560.37 228.19 L1553.41 217.399 L1546.46 204.186 L1539.51 190.311 L1532.55 167.629 L1525.6 185.83 L1518.65 192.016 L1511.7 159.175 L1504.74 166.553 L1497.79 152.719 L1490.84 155.202 L1483.89 152.32 L1476.93 156.709 L1469.98 154.477 L1463.03 164.303 L1456.08 153.546 L1449.12 154.213 L1442.17 148.743 L1435.22 142.429 L1428.27 152.9 L1421.31 153.505 L1414.36 155.117 L1407.41 150.086 L1400.45 161.2 L1393.5 169.089 L1386.55 153.017 L1379.6 154.072 L1372.64 158.26 L1365.69 157.236 L1358.74 150.026 L1351.79 184.518 L1344.83 179.355 L1337.88 216.552 L1330.93 240.614 L1323.98 220.731 L1317.02 236.634 L1310.07 231.812 L1303.12 225.536 L1296.17 251.098 L1289.21 240.276 L1282.26 240.614 L1275.31 258.463 L1268.35 282.775 L1261.4 316.444 L1254.45 337.335 L1247.5 335.316 L1240.54 389.376 L1233.59 380.897 L1226.64 373.163 L1219.69 380.441 L1212.73 373.827 L1205.78 398.697 L1198.83 423.456 L1191.88 433.638 L1184.92 449.931 L1177.97 468.816 L1171.02 482.422 L1164.07 482.504 L1157.11 510.059 L1150.16 524.697 L1143.21 527.819 L1136.26 528.149 L1129.3 542.079 L1122.35 559.032 L1115.4 573.031 L1108.44 588.331 L1101.49 608.725 L1094.54 635.849 L1087.59 639.406 L1080.63 656.476 L1073.68 655.234 L1066.73 659.419 L1059.78 664.154 L1052.82 665.151 L1045.87 669.766 L1038.92 700.736 L1031.97 722.934 L1025.01 727.921 L1018.06 743.7 L1011.11 777.314 L1004.16 800.965 L997.203 828.752 L990.25 828.63 L983.297 846.354 L976.345 838.217 L969.392 845.803 L962.439 862.494 L955.487 877.056 L948.534 874.562 L941.582 882.833 L934.629 894.531 L927.676 897.915 L920.724 898.7 L913.771 912.908 L906.818 923.19 L899.866 941.259 L892.913 969.702 L885.961 990.734 L879.008 1010.28 L872.055 1022.92 L865.103 1039.18 L858.15 1044.82 L851.197 1059.51 L844.245 1076.6 L837.292 1080.54 L830.34 1085.55 L823.387 1099.86 L816.434 1103.88 L809.482 1085.38 L802.529 1107.38 L795.576 1121.21 L788.624 1148.62 L781.671 1165.81 L774.719 1193.92 L767.766 1229.25 L760.813 1223.96 L753.861 1195.58 L746.908 1208.87 L739.955 1227.41 L733.003 1239.39 L726.05 1245.36 L719.098 1274.42 L712.145 1285.7 L705.192 1272.08 L698.24 1248.09 L691.287 1270.36 L684.334 1274.78 L677.382 1343.43 L670.429 1309.93 L663.477 1329.92 L656.524 1323.74 L649.571 1308.19 L642.619 1299.24 L635.666 1317.45 L628.713 1313.93 L621.761 1317.88 L614.808 1333.23 L607.856 1324.27 L600.903 1357.17 L593.95 1337.49 L586.998 1307.82 L580.045 1317.88 L573.092 1317.67 L566.14 1325.39 L559.187 1354.04 L552.235 1315.78 L545.282 1296.63 L538.329 1316.79 L531.377 1330.76 L524.424 1294.39 L517.471 1255.86 L510.519 1260.88 L503.566 1246.98 L496.614 1231.51 L489.661 1225.14 L482.708 1215.77 L475.756 1233.87 L468.803 1194.38 L461.85 1181.65 L454.898 1159.82 L447.945 1166 L440.993 1166.74 L434.04 1173.41 L427.087 1170.13 L420.135 1177.71 L413.182 1140.57 L406.229 1123.96 L399.277 1116.65 L392.324 1087.1 L385.372 1063.56 L378.419 1046.29 L371.466 1039.32 L364.514 1049.54 L357.561 1022.52 L350.608 1006.95 L343.656 1001.62 L336.703 990.592 L329.751 973 L322.798 958.732 L315.845 952.554 L308.893 941.706 L301.94 915.052 L294.987 914.236 L288.035 916.671 L281.082 896.406 L274.13 891.37 L267.177 867.468 L260.224 863.526 L253.272 838.203 L246.319 827.519 L239.366 805.439 L232.414 798.705 L225.461 785.809 L218.509 780.021 L211.556 762.877  Z" fill="#0000ff" fill-rule="evenodd" fill-opacity="0.5"/>
<polyline clip-path="url(#clip812)" style="stroke:#0000ff; stroke-linecap:round; stroke-linejoin:round; stroke-width:8; stroke-opacity:1; fill:none" points="211.556,779.335 218.509,800.222 225.461,804.124 232.414,817.361 239.366,824.831 246.319,846.009 253.272,858.297 260.224,882.935 267.177,887.745 274.13,912.885 281.082,916.101 288.035,938.133 294.987,936.29 301.94,935.487 308.893,961.568 315.845,972.76 322.798,978.649 329.751,990.722 336.703,1010.17 343.656,1024.89 350.608,1028.48 357.561,1037.75 364.514,1070.83 371.466,1063.23 378.419,1067.42 385.372,1088.07 392.324,1104.7 399.277,1132.54 406.229,1146.02 413.182,1161.81 420.135,1197.46 427.087,1195.51 434.04,1197.08 440.993,1192.28 447.945,1191.27 454.898,1185.89 461.85,1204.65 468.803,1211.01 475.756,1256.22 482.708,1240.23 489.661,1249.42 496.614,1255.57 503.566,1271.68 510.519,1287.91 517.471,1277.14 524.424,1316.92 531.377,1357.39 538.329,1348.02 545.282,1324.29 552.235,1340.69 559.187,1373.88 566.14,1352.45 573.092,1346.28 580.045,1348.38 586.998,1333.78 593.95,1357.92 600.903,1376.67 607.856,1350.25 614.808,1358.89 621.761,1344.75 628.713,1341.19 635.666,1347.24 642.619,1327.39 649.571,1334.88 656.524,1349.22 663.477,1356.5 670.429,1334.44 677.382,1368.07 684.334,1295.2 691.287,1295.21 698.24,1271.79 705.192,1295.9 712.145,1307.83 719.098,1303.02 726.05,1270.64 733.003,1265.05 739.955,1253.55 746.908,1234.67 753.861,1212.07 760.813,1244.87 767.766,1248.59 774.719,1216.12 781.671,1192.69 788.624,1174.11 795.576,1146.17 802.529,1129.1 809.482,1106.77 816.434,1118.26 823.387,1118.99 830.34,1111.41 837.292,1105.56 844.245,1092.31 851.197,1081.77 858.15,1065.01 865.103,1056.59 872.055,1043.25 879.008,1031.57 885.961,1011.83 892.913,992.034 899.866,962.086 906.818,943.766 913.771,932.874 920.724,918.294 927.676,917.438 934.629,914.477 941.582,901.387 948.534,895.185 955.487,898.042 962.439,882.219 969.392,865.046 976.345,859.858 983.297,867.188 990.25,846.688 997.203,847.168 1004.16,818.046 1011.11,798.632 1018.06,762.485 1025.01,748.592 1031.97,742.65 1038.92,722.99 1045.87,689.518 1052.82,685.802 1059.78,683.434 1066.73,678.75 1073.68,675.596 1080.63,675.419 1087.59,659.157 1094.54,658.031 1101.49,627.93 1108.44,605.62 1115.4,591.605 1122.35,577.105 1129.3,561.701 1136.26,549.787 1143.21,547.605 1150.16,543.426 1157.11,528.843 1164.07,504.687 1171.02,503.162 1177.97,486.941 1184.92,471.958 1191.88,455.713 1198.83,437.653 1205.78,421.337 1212.73,397.51 1219.69,406.087 1226.64,397.777 1233.59,406.439 1240.54,409.413 1247.5,361.082 1254.45,356.51 1261.4,341.599 1268.35,306.974 1275.31,284.162 1282.26,267.46 1289.21,265.149 1296.17,272.462 1303.12,252.308 1310.07,255.897 1317.02,262.846 1323.98,249.433 1330.93,265.326 1337.88,238.129 1344.83,205.627 1351.79,208.832 1358.74,172.052 1365.69,182.696 1372.64,183.662 1379.6,177.644 1386.55,182.778 1393.5,197.666 1400.45,187.132 1407.41,173.067 1414.36,180.677 1421.31,177.22 1428.27,173.042 1435.22,163.329 1442.17,169.761 1449.12,180.214 1456.08,181.262 1463.03,189.311 1469.98,180.971 1476.93,182.071 1483.89,177.184 1490.84,180.044 1497.79,179.99 1504.74,195.755 1511.7,191.063 1518.65,221.165 1525.6,213.219 1532.55,198.993 1539.51,220.496 1546.46,231.087 1553.41,243.346 1560.37,251.822 1567.32,262.555 1574.27,257.438 1581.22,276.392 1588.18,312.083 1595.13,328.252 1602.08,339.254 1609.03,321.299 1615.99,346.995 1622.94,376.033 1629.89,364.18 1636.84,357.958 1643.8,355.451 1650.75,377.841 1657.7,382.588 1664.65,418.882 1671.61,434.569 1678.56,439.175 1685.51,458.663 1692.47,476.949 1699.42,492.789 1706.37,500.356 1713.32,510.61 1720.28,520.412 1727.23,536.814 1734.18,532.997 1741.13,546.771 1748.09,551.029 1755.04,573.591 1761.99,587.85 1768.94,608.442 1775.9,628.406 1782.85,625.6 1789.8,632.596 1796.75,634.682 1803.71,639.512 1810.66,648.628 1817.61,663.271 1824.56,681.342 1831.52,727.451 1838.47,743.275 1845.42,768.134 1852.38,756.746 1859.33,757.285 1866.28,772.551 1873.23,772.112 1880.19,776.632 1887.14,772.479 1894.09,813.296 1901.04,827.558 1908,846.826 1914.95,876.515 1921.9,889.702 1928.85,903.954 1935.81,926.864 1942.76,921.055 1949.71,907.926 1956.66,926.499 1963.62,931.775 1970.57,952.261 1977.52,982.164 1984.48,973.185 1991.43,975.629 1998.38,988.405 2005.33,1002.83 2012.29,1017.18 2019.24,1049.74 2026.19,1063.06 2033.14,1086.83 2040.1,1087.93 2047.05,1104.05 2054,1112.69 2060.95,1131.03 2067.91,1098.88 2074.86,1169.58 2081.81,1169.8 2088.76,1169.09 2095.72,1155.79 2102.67,1182.27 2109.62,1203.15 2116.58,1212.72 2123.53,1220.59 2130.48,1222.86 2137.43,1238.46 2144.39,1229.16 2151.34,1237.83 2158.29,1260.37 2165.24,1303.15 2172.2,1329.1 2179.15,1340.15 2186.1,1338.45 2193.05,1340.32 2200.01,1374.34 2206.96,1363.62 2213.91,1372.49 2220.86,1373.75 2227.82,1352.67 2234.77,1351.14 2241.72,1344.14 2248.68,1371.48 2255.63,1358.39 2262.58,1369.49 2269.53,1372.65 2276.49,1366.53 2283.44,1369.06 2290.39,1369.3 "/>
<path clip-path="url(#clip812)" d="M211.556 792.838 L218.509 806.947 L225.461 817.333 L232.414 829.573 L239.366 840.74 L246.319 855.819 L253.272 869.277 L260.224 886.051 L267.177 899.444 L274.13 916.891 L281.082 928.965 L288.035 944.881 L294.987 954.73 L301.94 965.037 L308.893 982.02 L315.845 995.361 L322.798 1007.47 L329.751 1021.43 L336.703 1038.36 L343.656 1054.55 L350.608 1067.06 L357.561 1081.97 L364.514 1101.02 L371.466 1109.13 L378.419 1116.01 L385.372 1128.17 L392.324 1140.48 L399.277 1156.57 L406.229 1172.04 L413.182 1187.35 L420.135 1203.67 L427.087 1214.49 L434.04 1222.45 L440.993 1225.57 L447.945 1229.99 L454.898 1234.3 L461.85 1242.18 L468.803 1251.64 L475.756 1266.08 L482.708 1272.93 L489.661 1280.98 L496.614 1288.08 L503.566 1295.72 L510.519 1302.9 L517.471 1307.65 L524.424 1320.76 L531.377 1333.29 L538.329 1336.89 L545.282 1338.67 L552.235 1346.6 L559.187 1356.55 L566.14 1356.95 L573.092 1356.54 L580.045 1358.39 L586.998 1361.13 L593.95 1370.99 L600.903 1377.83 L607.856 1375.88 L614.808 1373.21 L621.761 1367.74 L628.713 1363.02 L635.666 1359.28 L642.619 1353.48 L649.571 1351.36 L656.524 1352.2 L663.477 1348.99 L670.429 1340.32 L677.382 1333.96 L684.334 1320.55 L691.287 1313.71 L698.24 1304.24 L705.192 1305.82 L712.145 1305.95 L719.098 1303.29 L726.05 1292.4 L733.003 1284.42 L739.955 1275.44 L746.908 1266.9 L753.861 1257.86 L760.813 1256.48 L767.766 1250.57 L774.719 1238.83 L781.671 1226.67 L788.624 1212.26 L795.576 1195.89 L802.529 1178.25 L809.482 1161.24 L816.434 1152.76 L823.387 1144.84 L830.34 1136.95 L837.292 1127.81 L844.245 1115.79 L851.197 1104.03 L858.15 1089.98 L865.103 1076.94 L872.055 1064.05 L879.008 1051.04 L885.961 1036.1 L892.913 1019.24 L899.866 999.078 L906.818 982.343 L913.771 968.395 L920.724 954.685 L927.676 945.076 L934.629 935.41 L941.582 923.016 L948.534 911.967 L955.487 903.553 L962.439 890.469 L969.392 877.489 L976.345 867.702 L983.297 861.49 L990.25 847.945 L997.203 836.615 L1004.16 819.326 L1011.11 802.146 L1018.06 782.801 L1025.01 768.327 L1031.97 756.004 L1038.92 740.411 L1045.87 721.579 L1052.82 710.396 L1059.78 701.6 L1066.73 691.898 L1073.68 682.817 L1080.63 673.605 L1087.59 660.586 L1094.54 649.301 L1101.49 629.637 L1108.44 611.682 L1115.4 596.03 L1122.35 581.543 L1129.3 567.277 L1136.26 555.146 L1143.21 546.065 L1150.16 535.579 L1157.11 521.081 L1164.07 503.468 L1171.02 490.783 L1177.97 475.587 L1184.92 458.779 L1191.88 442.636 L1198.83 426.857 L1205.78 410.277 L1212.73 395.222 L1219.69 387.076 L1226.64 379.889 L1233.59 376.379 L1240.54 369.891 L1247.5 352.828 L1254.45 342.317 L1261.4 329.149 L1268.35 312.542 L1275.31 296.931 L1282.26 284.245 L1289.21 276.774 L1296.17 269.643 L1303.12 259.273 L1310.07 257.124 L1317.02 250.63 L1323.98 245.416 L1330.93 241.121 L1337.88 229.303 L1344.83 213.952 L1351.79 202.318 L1358.74 188.391 L1365.69 183.783 L1372.64 182.143 L1379.6 181.364 L1386.55 181.741 L1393.5 182.368 L1400.45 177.494 L1407.41 170.35 L1414.36 165.68 L1421.31 160.086 L1428.27 154.78 L1435.22 151.695 L1442.17 154.826 L1449.12 161.893 L1456.08 168.413 L1463.03 173.846 L1469.98 175.47 L1476.93 177.155 L1483.89 178.721 L1490.84 182.512 L1497.79 189.007 L1504.74 198.462 L1511.7 206.848 L1518.65 216.582 L1525.6 221.048 L1532.55 223.026 L1539.51 230.121 L1546.46 238.699 L1553.41 246.133 L1560.37 254.003 L1567.32 261.647 L1574.27 267.573 L1581.22 278.481 L1588.18 295.368 L1595.13 308.309 L1602.08 318.373 L1609.03 324.134 L1615.99 334.816 L1622.94 346.179 L1629.89 349.697 L1636.84 351.833 L1643.8 354.292 L1650.75 362.518 L1657.7 371.185 L1664.65 387.867 L1671.61 402.879 L1678.56 416.213 L1685.51 433.29 L1692.47 451.85 L1699.42 469.804 L1706.37 484.17 L1713.32 498.189 L1720.28 511.241 L1727.23 525.249 L1734.18 533.87 L1741.13 546.656 L1748.09 559.106 L1755.04 578.132 L1761.99 595.208 L1768.94 612.369 L1775.9 627.382 L1782.85 634.698 L1789.8 643.119 L1796.75 650.49 L1803.71 658.825 L1810.66 670.238 L1817.61 683.658 L1824.56 699.622 L1831.52 723.178 L1838.47 738.743 L1845.42 754.422 L1852.38 760.207 L1859.33 768.126 L1866.28 779.109 L1873.23 787.366 L1880.19 797.364 L1887.14 806.002 L1894.09 826.589 L1901.04 842.29 L1908 859.128 L1914.95 877.889 L1921.9 893.791 L1928.85 908.619 L1935.81 924.004 L1942.76 931.643 L1949.71 935.984 L1956.66 949.482 L1963.62 961.405 L1970.57 977.585 L1977.52 995.211 L1984.48 1002.02 L1991.43 1012.87 L1998.38 1027.97 L2005.33 1044.35 L2012.29 1062.66 L2019.24 1083.6 L2026.19 1100.59 L2033.14 1119.26 L2040.1 1130.86 L2047.05 1144.13 L2054 1155.21 L2060.95 1166.06 L2067.91 1170.15 L2074.86 1188.9 L2081.81 1199.27 L2088.76 1205.22 L2095.72 1209.96 L2102.67 1220.55 L2109.62 1232.23 L2116.58 1241.41 L2123.53 1251.01 L2130.48 1257.67 L2137.43 1266.32 L2144.39 1273.3 L2151.34 1282.06 L2158.29 1297.02 L2165.24 1316.83 L2172.2 1332.63 L2179.15 1348.33 L2186.1 1359.93 L2193.05 1372.76 L2200.01 1389.53 L2206.96 1397.85 L2213.91 1403.17 L2220.86 1402.71 L2227.82 1397.92 L2234.77 1396.21 L2241.72 1399.84 L2248.68 1407.9 L2255.63 1412.02 L2262.58 1418.18 L2269.53 1423.99 L2276.49 1425.64 L2283.44 1427.64 L2290.39 1432.77 L2290.39 1405.48 L2283.44 1407.76 L2276.49 1405.76 L2269.53 1404.11 L2262.58 1398.31 L2255.63 1392.14 L2248.68 1388.02 L2241.72 1379.96 L2234.77 1376.34 L2227.82 1378.04 L2220.86 1382.83 L2213.91 1383.29 L2206.96 1377.98 L2200.01 1369.66 L2193.05 1352.89 L2186.1 1340.07 L2179.15 1328.47 L2172.2 1312.77 L2165.24 1296.97 L2158.29 1277.16 L2151.34 1262.21 L2144.39 1253.45 L2137.43 1246.47 L2130.48 1237.82 L2123.53 1231.16 L2116.58 1221.57 L2109.62 1212.38 L2102.67 1200.7 L2095.72 1190.12 L2088.76 1185.38 L2081.81 1179.43 L2074.86 1169.06 L2067.91 1150.31 L2060.95 1146.22 L2054 1135.37 L2047.05 1124.29 L2040.1 1111.03 L2033.14 1099.43 L2026.19 1080.76 L2019.24 1063.77 L2012.29 1042.83 L2005.33 1024.52 L1998.38 1008.15 L1991.43 993.041 L1984.48 982.191 L1977.52 975.38 L1970.57 957.759 L1963.62 941.579 L1956.66 929.655 L1949.71 916.158 L1942.76 911.817 L1935.81 904.18 L1928.85 888.793 L1921.9 873.965 L1914.95 858.068 L1908 839.308 L1901.04 822.471 L1894.09 806.772 L1887.14 786.185 L1880.19 777.545 L1873.23 767.547 L1866.28 759.291 L1859.33 748.306 L1852.38 740.388 L1845.42 734.601 L1838.47 718.92 L1831.52 703.355 L1824.56 679.799 L1817.61 663.833 L1810.66 650.414 L1803.71 638.998 L1796.75 630.662 L1789.8 623.289 L1782.85 614.868 L1775.9 607.551 L1768.94 592.536 L1761.99 575.377 L1755.04 558.304 L1748.09 539.277 L1741.13 526.829 L1734.18 514.043 L1727.23 505.419 L1720.28 491.411 L1713.32 478.36 L1706.37 464.338 L1699.42 449.972 L1692.47 432.02 L1685.51 413.461 L1678.56 396.383 L1671.61 383.047 L1664.65 368.035 L1657.7 351.35 L1650.75 342.681 L1643.8 334.453 L1636.84 331.993 L1629.89 329.855 L1622.94 326.336 L1615.99 314.975 L1609.03 304.294 L1602.08 298.53 L1595.13 288.464 L1588.18 275.524 L1581.22 258.633 L1574.27 247.722 L1567.32 241.795 L1560.37 234.148 L1553.41 226.276 L1546.46 218.839 L1539.51 210.257 L1532.55 203.158 L1525.6 201.178 L1518.65 196.71 L1511.7 186.975 L1504.74 178.589 L1497.79 169.133 L1490.84 162.636 L1483.89 158.845 L1476.93 157.278 L1469.98 155.593 L1463.03 153.97 L1456.08 148.536 L1449.12 142.016 L1442.17 134.949 L1435.22 131.817 L1428.27 134.902 L1421.31 140.207 L1414.36 145.802 L1407.41 150.471 L1400.45 157.615 L1393.5 162.489 L1386.55 161.862 L1379.6 161.488 L1372.64 162.267 L1365.69 163.908 L1358.74 168.519 L1351.79 182.448 L1344.83 194.086 L1337.88 209.438 L1330.93 221.256 L1323.98 225.552 L1317.02 230.767 L1310.07 237.266 L1303.12 239.411 L1296.17 249.785 L1289.21 256.916 L1282.26 264.385 L1275.31 277.071 L1268.35 292.683 L1261.4 309.291 L1254.45 322.465 L1247.5 332.977 L1240.54 350.044 L1233.59 356.534 L1226.64 360.046 L1219.69 367.238 L1212.73 375.388 L1205.78 390.444 L1198.83 407.027 L1191.88 422.804 L1184.92 438.948 L1177.97 455.756 L1171.02 470.949 L1164.07 483.636 L1157.11 501.248 L1150.16 515.744 L1143.21 526.234 L1136.26 535.317 L1129.3 547.449 L1122.35 561.718 L1115.4 576.206 L1108.44 591.859 L1101.49 609.813 L1094.54 629.479 L1087.59 640.765 L1080.63 653.782 L1073.68 662.993 L1066.73 672.073 L1059.78 681.778 L1052.82 690.572 L1045.87 701.755 L1038.92 720.588 L1031.97 736.184 L1025.01 748.509 L1018.06 762.982 L1011.11 782.327 L1004.16 799.503 L997.203 816.796 L990.25 828.123 L983.297 841.666 L976.345 847.878 L969.392 857.665 L962.439 870.645 L955.487 883.727 L948.534 892.143 L941.582 903.193 L934.629 915.586 L927.676 925.251 L920.724 934.861 L913.771 948.569 L906.818 962.515 L899.866 979.25 L892.913 999.414 L885.961 1016.27 L879.008 1031.21 L872.055 1044.21 L865.103 1057.11 L858.15 1070.15 L851.197 1084.2 L844.245 1095.96 L837.292 1107.97 L830.34 1117.11 L823.387 1125.01 L816.434 1132.92 L809.482 1141.39 L802.529 1158.41 L795.576 1176.05 L788.624 1192.42 L781.671 1206.82 L774.719 1218.99 L767.766 1230.72 L760.813 1236.63 L753.861 1238 L746.908 1247.04 L739.955 1255.58 L733.003 1264.55 L726.05 1272.53 L719.098 1283.42 L712.145 1286.08 L705.192 1285.95 L698.24 1284.37 L691.287 1293.83 L684.334 1300.67 L677.382 1314.08 L670.429 1320.45 L663.477 1329.11 L656.524 1332.32 L649.571 1331.48 L642.619 1333.6 L635.666 1339.41 L628.713 1343.14 L621.761 1347.86 L614.808 1353.33 L607.856 1356 L600.903 1357.96 L593.95 1351.11 L586.998 1341.26 L580.045 1338.51 L573.092 1336.66 L566.14 1337.07 L559.187 1336.67 L552.235 1326.72 L545.282 1318.8 L538.329 1317.01 L531.377 1313.42 L524.424 1300.89 L517.471 1287.78 L510.519 1283.03 L503.566 1275.86 L496.614 1268.22 L489.661 1261.12 L482.708 1253.08 L475.756 1246.23 L468.803 1231.79 L461.85 1222.33 L454.898 1214.45 L447.945 1210.14 L440.993 1205.72 L434.04 1202.6 L427.087 1194.64 L420.135 1183.83 L413.182 1167.51 L406.229 1152.2 L399.277 1136.74 L392.324 1120.64 L385.372 1108.34 L378.419 1096.17 L371.466 1089.29 L364.514 1081.19 L357.561 1062.14 L350.608 1047.23 L343.656 1034.72 L336.703 1018.53 L329.751 1001.6 L322.798 987.642 L315.845 975.533 L308.893 962.192 L301.94 945.21 L294.987 934.902 L288.035 925.052 L281.082 909.139 L274.13 897.064 L267.177 879.616 L260.224 866.225 L253.272 849.453 L246.319 835.996 L239.366 820.92 L232.414 809.754 L225.461 797.516 L218.509 787.129 L211.556 773.015  Z" fill="#008000" fill-rule="evenodd" fill-opacity="0.5"/>
<polyline clip-path="url(#clip812)" style="stroke:#008000; stroke-linecap:round; stroke-linejoin:round; stroke-width:8; stroke-opacity:1; fill:none" points="211.556,782.927 218.509,797.038 225.461,807.425 232.414,819.663 239.366,830.83 246.319,845.908 253.272,859.365 260.224,876.138 267.177,889.53 274.13,906.977 281.082,919.052 288.035,934.966 294.987,944.816 301.94,955.123 308.893,972.106 315.845,985.447 322.798,997.557 329.751,1011.52 336.703,1028.44 343.656,1044.64 350.608,1057.14 357.561,1072.06 364.514,1091.11 371.466,1099.21 378.419,1106.09 385.372,1118.26 392.324,1130.56 399.277,1146.65 406.229,1162.12 413.182,1177.43 420.135,1193.75 427.087,1204.56 434.04,1212.52 440.993,1215.65 447.945,1220.06 454.898,1224.38 461.85,1232.26 468.803,1241.72 475.756,1256.16 482.708,1263 489.661,1271.05 496.614,1278.15 503.566,1285.79 510.519,1292.96 517.471,1297.72 524.424,1310.83 531.377,1323.36 538.329,1326.95 545.282,1328.73 552.235,1336.66 559.187,1346.61 566.14,1347.01 573.092,1346.6 580.045,1348.45 586.998,1351.19 593.95,1361.05 600.903,1367.89 607.856,1365.94 614.808,1363.27 621.761,1357.8 628.713,1353.08 635.666,1349.35 642.619,1343.54 649.571,1341.42 656.524,1342.26 663.477,1339.05 670.429,1330.38 677.382,1324.02 684.334,1310.61 691.287,1303.77 698.24,1294.3 705.192,1295.88 712.145,1296.01 719.098,1293.35 726.05,1282.47 733.003,1274.49 739.955,1265.51 746.908,1256.97 753.861,1247.93 760.813,1246.55 767.766,1240.64 774.719,1228.91 781.671,1216.75 788.624,1202.34 795.576,1185.97 802.529,1168.33 809.482,1151.31 816.434,1142.84 823.387,1134.92 830.34,1127.03 837.292,1117.89 844.245,1105.87 851.197,1094.11 858.15,1080.06 865.103,1067.02 872.055,1054.13 879.008,1041.12 885.961,1026.19 892.913,1009.33 899.866,989.164 906.818,972.429 913.771,958.482 920.724,944.773 927.676,935.163 934.629,925.498 941.582,913.104 948.534,902.055 955.487,893.64 962.439,880.557 969.392,867.577 976.345,857.79 983.297,851.578 990.25,838.034 997.203,826.706 1004.16,809.415 1011.11,792.236 1018.06,772.891 1025.01,758.418 1031.97,746.094 1038.92,730.5 1045.87,711.667 1052.82,700.484 1059.78,691.689 1066.73,681.985 1073.68,672.905 1080.63,663.693 1087.59,650.675 1094.54,639.39 1101.49,619.725 1108.44,601.77 1115.4,586.118 1122.35,571.631 1129.3,557.363 1136.26,545.231 1143.21,536.149 1150.16,525.661 1157.11,511.164 1164.07,493.552 1171.02,480.866 1177.97,465.672 1184.92,448.864 1191.88,432.72 1198.83,416.942 1205.78,400.36 1212.73,385.305 1219.69,377.157 1226.64,369.968 1233.59,366.456 1240.54,359.967 1247.5,342.903 1254.45,332.391 1261.4,319.22 1268.35,302.612 1275.31,287.001 1282.26,274.315 1289.21,266.845 1296.17,259.714 1303.12,249.342 1310.07,247.195 1317.02,240.698 1323.98,235.484 1330.93,231.189 1337.88,219.37 1344.83,204.019 1351.79,192.383 1358.74,178.455 1365.69,173.845 1372.64,172.205 1379.6,171.426 1386.55,171.802 1393.5,172.428 1400.45,167.555 1407.41,160.411 1414.36,155.741 1421.31,150.146 1428.27,144.841 1435.22,141.756 1442.17,144.887 1449.12,151.954 1456.08,158.475 1463.03,163.908 1469.98,165.532 1476.93,167.217 1483.89,168.783 1490.84,172.574 1497.79,179.07 1504.74,188.525 1511.7,196.912 1518.65,206.646 1525.6,211.113 1532.55,213.092 1539.51,220.189 1546.46,228.769 1553.41,236.204 1560.37,244.076 1567.32,251.721 1574.27,257.647 1581.22,268.557 1588.18,285.446 1595.13,298.386 1602.08,308.451 1609.03,314.214 1615.99,324.895 1622.94,336.257 1629.89,339.776 1636.84,341.913 1643.8,344.373 1650.75,352.6 1657.7,361.268 1664.65,377.951 1671.61,392.963 1678.56,406.298 1685.51,423.376 1692.47,441.935 1699.42,459.888 1706.37,474.254 1713.32,488.274 1720.28,501.326 1727.23,515.334 1734.18,523.957 1741.13,536.743 1748.09,549.191 1755.04,568.218 1761.99,585.292 1768.94,602.453 1775.9,617.467 1782.85,624.783 1789.8,633.204 1796.75,640.576 1803.71,648.912 1810.66,660.326 1817.61,673.745 1824.56,689.711 1831.52,713.267 1838.47,728.832 1845.42,744.512 1852.38,750.298 1859.33,758.216 1866.28,769.2 1873.23,777.456 1880.19,787.454 1887.14,796.094 1894.09,816.68 1901.04,832.38 1908,849.218 1914.95,867.979 1921.9,883.878 1928.85,898.706 1935.81,914.092 1942.76,921.73 1949.71,926.071 1956.66,939.569 1963.62,951.492 1970.57,967.672 1977.52,985.295 1984.48,992.105 1991.43,1002.96 1998.38,1018.06 2005.33,1034.44 2012.29,1052.75 2019.24,1073.68 2026.19,1090.68 2033.14,1109.35 2040.1,1120.94 2047.05,1134.21 2054,1145.29 2060.95,1156.14 2067.91,1160.23 2074.86,1178.98 2081.81,1189.35 2088.76,1195.3 2095.72,1200.04 2102.67,1210.62 2109.62,1222.31 2116.58,1231.49 2123.53,1241.08 2130.48,1247.74 2137.43,1256.39 2144.39,1263.38 2151.34,1272.14 2158.29,1287.09 2165.24,1306.9 2172.2,1322.7 2179.15,1338.4 2186.1,1350 2193.05,1362.82 2200.01,1379.6 2206.96,1387.92 2213.91,1393.23 2220.86,1392.77 2227.82,1387.98 2234.77,1386.28 2241.72,1389.9 2248.68,1397.96 2255.63,1402.08 2262.58,1408.24 2269.53,1414.05 2276.49,1415.7 2283.44,1417.7 2290.39,1419.13 "/>
<circle clip-path="url(#clip812)" cx="211.556" cy="780.559" r="5.4" fill="#000000" fill-rule="evenodd" fill-opacity="1" stroke="none"/>
<circle clip-path="url(#clip812)" cx="218.509" cy="833.524" r="5.4" fill="#000000" fill-rule="evenodd" fill-opacity="1" stroke="none"/>
<circle clip-path="url(#clip812)" cx="225.461" cy="793.42" r="5.4" fill="#000000" fill-rule="evenodd" fill-opacity="1" stroke="none"/>
<circle clip-path="url(#clip812)" cx="232.414" cy="829.938" r="5.4" fill="#000000" fill-rule="evenodd" fill-opacity="1" stroke="none"/>
<circle clip-path="url(#clip812)" cx="239.366" cy="796.335" r="5.4" fill="#000000" fill-rule="evenodd" fill-opacity="1" stroke="none"/>
<circle clip-path="url(#clip812)" cx="246.319" cy="858.888" r="5.4" fill="#000000" fill-rule="evenodd" fill-opacity="1" stroke="none"/>
<circle clip-path="url(#clip812)" cx="253.272" cy="829.222" r="5.4" fill="#000000" fill-rule="evenodd" fill-opacity="1" stroke="none"/>
<circle clip-path="url(#clip812)" cx="260.224" cy="905.142" r="5.4" fill="#000000" fill-rule="evenodd" fill-opacity="1" stroke="none"/>
<circle clip-path="url(#clip812)" cx="267.177" cy="851.23" r="5.4" fill="#000000" fill-rule="evenodd" fill-opacity="1" stroke="none"/>
<circle clip-path="url(#clip812)" cx="274.13" cy="956.754" r="5.4" fill="#000000" fill-rule="evenodd" fill-opacity="1" stroke="none"/>
<circle clip-path="url(#clip812)" cx="281.082" cy="886.303" r="5.4" fill="#000000" fill-rule="evenodd" fill-opacity="1" stroke="none"/>
<circle clip-path="url(#clip812)" cx="288.035" cy="986.676" r="5.4" fill="#000000" fill-rule="evenodd" fill-opacity="1" stroke="none"/>
<circle clip-path="url(#clip812)" cx="294.987" cy="942.109" r="5.4" fill="#000000" fill-rule="evenodd" fill-opacity="1" stroke="none"/>
<circle clip-path="url(#clip812)" cx="301.94" cy="896.413" r="5.4" fill="#000000" fill-rule="evenodd" fill-opacity="1" stroke="none"/>
<circle clip-path="url(#clip812)" cx="308.893" cy="1005.35" r="5.4" fill="#000000" fill-rule="evenodd" fill-opacity="1" stroke="none"/>
<circle clip-path="url(#clip812)" cx="315.845" cy="996.952" r="5.4" fill="#000000" fill-rule="evenodd" fill-opacity="1" stroke="none"/>
<circle clip-path="url(#clip812)" cx="322.798" cy="979.09" r="5.4" fill="#000000" fill-rule="evenodd" fill-opacity="1" stroke="none"/>
<circle clip-path="url(#clip812)" cx="329.751" cy="985.967" r="5.4" fill="#000000" fill-rule="evenodd" fill-opacity="1" stroke="none"/>
<circle clip-path="url(#clip812)" cx="336.703" cy="1031.7" r="5.4" fill="#000000" fill-rule="evenodd" fill-opacity="1" stroke="none"/>
<circle clip-path="url(#clip812)" cx="343.656" cy="1077.69" r="5.4" fill="#000000" fill-rule="evenodd" fill-opacity="1" stroke="none"/>
<circle clip-path="url(#clip812)" cx="350.608" cy="1037.17" r="5.4" fill="#000000" fill-rule="evenodd" fill-opacity="1" stroke="none"/>
<circle clip-path="url(#clip812)" cx="357.561" cy="1037.27" r="5.4" fill="#000000" fill-rule="evenodd" fill-opacity="1" stroke="none"/>
<circle clip-path="url(#clip812)" cx="364.514" cy="1190.29" r="5.4" fill="#000000" fill-rule="evenodd" fill-opacity="1" stroke="none"/>
<circle clip-path="url(#clip812)" cx="371.466" cy="1108.99" r="5.4" fill="#000000" fill-rule="evenodd" fill-opacity="1" stroke="none"/>
<circle clip-path="url(#clip812)" cx="378.419" cy="1056" r="5.4" fill="#000000" fill-rule="evenodd" fill-opacity="1" stroke="none"/>
<circle clip-path="url(#clip812)" cx="385.372" cy="1114.44" r="5.4" fill="#000000" fill-rule="evenodd" fill-opacity="1" stroke="none"/>
<circle clip-path="url(#clip812)" cx="392.324" cy="1098.77" r="5.4" fill="#000000" fill-rule="evenodd" fill-opacity="1" stroke="none"/>
<circle clip-path="url(#clip812)" cx="399.277" cy="1154.21" r="5.4" fill="#000000" fill-rule="evenodd" fill-opacity="1" stroke="none"/>
<circle clip-path="url(#clip812)" cx="406.229" cy="1160.86" r="5.4" fill="#000000" fill-rule="evenodd" fill-opacity="1" stroke="none"/>
<circle clip-path="url(#clip812)" cx="413.182" cy="1164.67" r="5.4" fill="#000000" fill-rule="evenodd" fill-opacity="1" stroke="none"/>
<circle clip-path="url(#clip812)" cx="420.135" cy="1242.74" r="5.4" fill="#000000" fill-rule="evenodd" fill-opacity="1" stroke="none"/>
<circle clip-path="url(#clip812)" cx="427.087" cy="1224.58" r="5.4" fill="#000000" fill-rule="evenodd" fill-opacity="1" stroke="none"/>
<circle clip-path="url(#clip812)" cx="434.04" cy="1249.44" r="5.4" fill="#000000" fill-rule="evenodd" fill-opacity="1" stroke="none"/>
<circle clip-path="url(#clip812)" cx="440.993" cy="1205.82" r="5.4" fill="#000000" fill-rule="evenodd" fill-opacity="1" stroke="none"/>
<circle clip-path="url(#clip812)" cx="447.945" cy="1221.31" r="5.4" fill="#000000" fill-rule="evenodd" fill-opacity="1" stroke="none"/>
<circle clip-path="url(#clip812)" cx="454.898" cy="1190.07" r="5.4" fill="#000000" fill-rule="evenodd" fill-opacity="1" stroke="none"/>
<circle clip-path="url(#clip812)" cx="461.85" cy="1221.05" r="5.4" fill="#000000" fill-rule="evenodd" fill-opacity="1" stroke="none"/>
<circle clip-path="url(#clip812)" cx="468.803" cy="1199.42" r="5.4" fill="#000000" fill-rule="evenodd" fill-opacity="1" stroke="none"/>
<circle clip-path="url(#clip812)" cx="475.756" cy="1324.81" r="5.4" fill="#000000" fill-rule="evenodd" fill-opacity="1" stroke="none"/>
<circle clip-path="url(#clip812)" cx="482.708" cy="1245.22" r="5.4" fill="#000000" fill-rule="evenodd" fill-opacity="1" stroke="none"/>
<circle clip-path="url(#clip812)" cx="489.661" cy="1273.3" r="5.4" fill="#000000" fill-rule="evenodd" fill-opacity="1" stroke="none"/>
<circle clip-path="url(#clip812)" cx="496.614" cy="1266.71" r="5.4" fill="#000000" fill-rule="evenodd" fill-opacity="1" stroke="none"/>
<circle clip-path="url(#clip812)" cx="503.566" cy="1286.58" r="5.4" fill="#000000" fill-rule="evenodd" fill-opacity="1" stroke="none"/>
<circle clip-path="url(#clip812)" cx="510.519" cy="1313.21" r="5.4" fill="#000000" fill-rule="evenodd" fill-opacity="1" stroke="none"/>
<circle clip-path="url(#clip812)" cx="517.471" cy="1215.2" r="5.4" fill="#000000" fill-rule="evenodd" fill-opacity="1" stroke="none"/>
<circle clip-path="url(#clip812)" cx="524.424" cy="1308.46" r="5.4" fill="#000000" fill-rule="evenodd" fill-opacity="1" stroke="none"/>
<circle clip-path="url(#clip812)" cx="531.377" cy="1394.31" r="5.4" fill="#000000" fill-rule="evenodd" fill-opacity="1" stroke="none"/>
<circle clip-path="url(#clip812)" cx="538.329" cy="1340.42" r="5.4" fill="#000000" fill-rule="evenodd" fill-opacity="1" stroke="none"/>
<circle clip-path="url(#clip812)" cx="545.282" cy="1272.75" r="5.4" fill="#000000" fill-rule="evenodd" fill-opacity="1" stroke="none"/>
<circle clip-path="url(#clip812)" cx="552.235" cy="1313.09" r="5.4" fill="#000000" fill-rule="evenodd" fill-opacity="1" stroke="none"/>
<circle clip-path="url(#clip812)" cx="559.187" cy="1427.73" r="5.4" fill="#000000" fill-rule="evenodd" fill-opacity="1" stroke="none"/>
<circle clip-path="url(#clip812)" cx="566.14" cy="1348.96" r="5.4" fill="#000000" fill-rule="evenodd" fill-opacity="1" stroke="none"/>
<circle clip-path="url(#clip812)" cx="573.092" cy="1330.88" r="5.4" fill="#000000" fill-rule="evenodd" fill-opacity="1" stroke="none"/>
<circle clip-path="url(#clip812)" cx="580.045" cy="1340.38" r="5.4" fill="#000000" fill-rule="evenodd" fill-opacity="1" stroke="none"/>
<circle clip-path="url(#clip812)" cx="586.998" cy="1286.14" r="5.4" fill="#000000" fill-rule="evenodd" fill-opacity="1" stroke="none"/>
<circle clip-path="url(#clip812)" cx="593.95" cy="1380.92" r="5.4" fill="#000000" fill-rule="evenodd" fill-opacity="1" stroke="none"/>
<circle clip-path="url(#clip812)" cx="600.903" cy="1433.06" r="5.4" fill="#000000" fill-rule="evenodd" fill-opacity="1" stroke="none"/>
<circle clip-path="url(#clip812)" cx="607.856" cy="1361.29" r="5.4" fill="#000000" fill-rule="evenodd" fill-opacity="1" stroke="none"/>
<circle clip-path="url(#clip812)" cx="614.808" cy="1383.87" r="5.4" fill="#000000" fill-rule="evenodd" fill-opacity="1" stroke="none"/>
<circle clip-path="url(#clip812)" cx="621.761" cy="1345.78" r="5.4" fill="#000000" fill-rule="evenodd" fill-opacity="1" stroke="none"/>
<circle clip-path="url(#clip812)" cx="628.713" cy="1335.07" r="5.4" fill="#000000" fill-rule="evenodd" fill-opacity="1" stroke="none"/>
<circle clip-path="url(#clip812)" cx="635.666" cy="1365.27" r="5.4" fill="#000000" fill-rule="evenodd" fill-opacity="1" stroke="none"/>
<circle clip-path="url(#clip812)" cx="642.619" cy="1312.34" r="5.4" fill="#000000" fill-rule="evenodd" fill-opacity="1" stroke="none"/>
<circle clip-path="url(#clip812)" cx="649.571" cy="1314.75" r="5.4" fill="#000000" fill-rule="evenodd" fill-opacity="1" stroke="none"/>
<circle clip-path="url(#clip812)" cx="656.524" cy="1378.69" r="5.4" fill="#000000" fill-rule="evenodd" fill-opacity="1" stroke="none"/>
<circle clip-path="url(#clip812)" cx="663.477" cy="1383.55" r="5.4" fill="#000000" fill-rule="evenodd" fill-opacity="1" stroke="none"/>
<circle clip-path="url(#clip812)" cx="670.429" cy="1314.07" r="5.4" fill="#000000" fill-rule="evenodd" fill-opacity="1" stroke="none"/>
<circle clip-path="url(#clip812)" cx="677.382" cy="1390.36" r="5.4" fill="#000000" fill-rule="evenodd" fill-opacity="1" stroke="none"/>
<circle clip-path="url(#clip812)" cx="684.334" cy="1249.96" r="5.4" fill="#000000" fill-rule="evenodd" fill-opacity="1" stroke="none"/>
<circle clip-path="url(#clip812)" cx="691.287" cy="1317.84" r="5.4" fill="#000000" fill-rule="evenodd" fill-opacity="1" stroke="none"/>
<circle clip-path="url(#clip812)" cx="698.24" cy="1186.07" r="5.4" fill="#000000" fill-rule="evenodd" fill-opacity="1" stroke="none"/>
<circle clip-path="url(#clip812)" cx="705.192" cy="1303.08" r="5.4" fill="#000000" fill-rule="evenodd" fill-opacity="1" stroke="none"/>
<circle clip-path="url(#clip812)" cx="712.145" cy="1312.9" r="5.4" fill="#000000" fill-rule="evenodd" fill-opacity="1" stroke="none"/>
<circle clip-path="url(#clip812)" cx="719.098" cy="1366.09" r="5.4" fill="#000000" fill-rule="evenodd" fill-opacity="1" stroke="none"/>
<circle clip-path="url(#clip812)" cx="726.05" cy="1255.75" r="5.4" fill="#000000" fill-rule="evenodd" fill-opacity="1" stroke="none"/>
<circle clip-path="url(#clip812)" cx="733.003" cy="1281.67" r="5.4" fill="#000000" fill-rule="evenodd" fill-opacity="1" stroke="none"/>
<circle clip-path="url(#clip812)" cx="739.955" cy="1257.71" r="5.4" fill="#000000" fill-rule="evenodd" fill-opacity="1" stroke="none"/>
<circle clip-path="url(#clip812)" cx="746.908" cy="1258.95" r="5.4" fill="#000000" fill-rule="evenodd" fill-opacity="1" stroke="none"/>
<circle clip-path="url(#clip812)" cx="753.861" cy="1170.12" r="5.4" fill="#000000" fill-rule="evenodd" fill-opacity="1" stroke="none"/>
<circle clip-path="url(#clip812)" cx="760.813" cy="1280.22" r="5.4" fill="#000000" fill-rule="evenodd" fill-opacity="1" stroke="none"/>
<circle clip-path="url(#clip812)" cx="767.766" cy="1284.91" r="5.4" fill="#000000" fill-rule="evenodd" fill-opacity="1" stroke="none"/>
<circle clip-path="url(#clip812)" cx="774.719" cy="1229.63" r="5.4" fill="#000000" fill-rule="evenodd" fill-opacity="1" stroke="none"/>
<circle clip-path="url(#clip812)" cx="781.671" cy="1239.62" r="5.4" fill="#000000" fill-rule="evenodd" fill-opacity="1" stroke="none"/>
<circle clip-path="url(#clip812)" cx="788.624" cy="1216.25" r="5.4" fill="#000000" fill-rule="evenodd" fill-opacity="1" stroke="none"/>
<circle clip-path="url(#clip812)" cx="795.576" cy="1196.14" r="5.4" fill="#000000" fill-rule="evenodd" fill-opacity="1" stroke="none"/>
<circle clip-path="url(#clip812)" cx="802.529" cy="1160.87" r="5.4" fill="#000000" fill-rule="evenodd" fill-opacity="1" stroke="none"/>
<circle clip-path="url(#clip812)" cx="809.482" cy="1078.26" r="5.4" fill="#000000" fill-rule="evenodd" fill-opacity="1" stroke="none"/>
<circle clip-path="url(#clip812)" cx="816.434" cy="1135.57" r="5.4" fill="#000000" fill-rule="evenodd" fill-opacity="1" stroke="none"/>
<circle clip-path="url(#clip812)" cx="823.387" cy="1134.38" r="5.4" fill="#000000" fill-rule="evenodd" fill-opacity="1" stroke="none"/>
<circle clip-path="url(#clip812)" cx="830.34" cy="1141.77" r="5.4" fill="#000000" fill-rule="evenodd" fill-opacity="1" stroke="none"/>
<circle clip-path="url(#clip812)" cx="837.292" cy="1141.68" r="5.4" fill="#000000" fill-rule="evenodd" fill-opacity="1" stroke="none"/>
<circle clip-path="url(#clip812)" cx="844.245" cy="1098.33" r="5.4" fill="#000000" fill-rule="evenodd" fill-opacity="1" stroke="none"/>
<circle clip-path="url(#clip812)" cx="851.197" cy="1113.88" r="5.4" fill="#000000" fill-rule="evenodd" fill-opacity="1" stroke="none"/>
<circle clip-path="url(#clip812)" cx="858.15" cy="1072.21" r="5.4" fill="#000000" fill-rule="evenodd" fill-opacity="1" stroke="none"/>
<circle clip-path="url(#clip812)" cx="865.103" cy="1064.9" r="5.4" fill="#000000" fill-rule="evenodd" fill-opacity="1" stroke="none"/>
<circle clip-path="url(#clip812)" cx="872.055" cy="1057.71" r="5.4" fill="#000000" fill-rule="evenodd" fill-opacity="1" stroke="none"/>
<circle clip-path="url(#clip812)" cx="879.008" cy="1056.4" r="5.4" fill="#000000" fill-rule="evenodd" fill-opacity="1" stroke="none"/>
<circle clip-path="url(#clip812)" cx="885.961" cy="1042.44" r="5.4" fill="#000000" fill-rule="evenodd" fill-opacity="1" stroke="none"/>
<circle clip-path="url(#clip812)" cx="892.913" cy="1038.58" r="5.4" fill="#000000" fill-rule="evenodd" fill-opacity="1" stroke="none"/>
<circle clip-path="url(#clip812)" cx="899.866" cy="959.069" r="5.4" fill="#000000" fill-rule="evenodd" fill-opacity="1" stroke="none"/>
<circle clip-path="url(#clip812)" cx="906.818" cy="947.81" r="5.4" fill="#000000" fill-rule="evenodd" fill-opacity="1" stroke="none"/>
<circle clip-path="url(#clip812)" cx="913.771" cy="955.42" r="5.4" fill="#000000" fill-rule="evenodd" fill-opacity="1" stroke="none"/>
<circle clip-path="url(#clip812)" cx="920.724" cy="907.962" r="5.4" fill="#000000" fill-rule="evenodd" fill-opacity="1" stroke="none"/>
<circle clip-path="url(#clip812)" cx="927.676" cy="936.53" r="5.4" fill="#000000" fill-rule="evenodd" fill-opacity="1" stroke="none"/>
<circle clip-path="url(#clip812)" cx="934.629" cy="949.089" r="5.4" fill="#000000" fill-rule="evenodd" fill-opacity="1" stroke="none"/>
<circle clip-path="url(#clip812)" cx="941.582" cy="900.083" r="5.4" fill="#000000" fill-rule="evenodd" fill-opacity="1" stroke="none"/>
<circle clip-path="url(#clip812)" cx="948.534" cy="878.865" r="5.4" fill="#000000" fill-rule="evenodd" fill-opacity="1" stroke="none"/>
<circle clip-path="url(#clip812)" cx="955.487" cy="937.847" r="5.4" fill="#000000" fill-rule="evenodd" fill-opacity="1" stroke="none"/>
<circle clip-path="url(#clip812)" cx="962.439" cy="878.271" r="5.4" fill="#000000" fill-rule="evenodd" fill-opacity="1" stroke="none"/>
<circle clip-path="url(#clip812)" cx="969.392" cy="838.806" r="5.4" fill="#000000" fill-rule="evenodd" fill-opacity="1" stroke="none"/>
<circle clip-path="url(#clip812)" cx="976.345" cy="825.882" r="5.4" fill="#000000" fill-rule="evenodd" fill-opacity="1" stroke="none"/>
<circle clip-path="url(#clip812)" cx="983.297" cy="917.963" r="5.4" fill="#000000" fill-rule="evenodd" fill-opacity="1" stroke="none"/>
<circle clip-path="url(#clip812)" cx="990.25" cy="816.462" r="5.4" fill="#000000" fill-rule="evenodd" fill-opacity="1" stroke="none"/>
<circle clip-path="url(#clip812)" cx="997.203" cy="877.86" r="5.4" fill="#000000" fill-rule="evenodd" fill-opacity="1" stroke="none"/>
<circle clip-path="url(#clip812)" cx="1004.16" cy="812.229" r="5.4" fill="#000000" fill-rule="evenodd" fill-opacity="1" stroke="none"/>
<circle clip-path="url(#clip812)" cx="1011.11" cy="808.95" r="5.4" fill="#000000" fill-rule="evenodd" fill-opacity="1" stroke="none"/>
<circle clip-path="url(#clip812)" cx="1018.06" cy="729.127" r="5.4" fill="#000000" fill-rule="evenodd" fill-opacity="1" stroke="none"/>
<circle clip-path="url(#clip812)" cx="1025.01" cy="737.147" r="5.4" fill="#000000" fill-rule="evenodd" fill-opacity="1" stroke="none"/>
<circle clip-path="url(#clip812)" cx="1031.97" cy="776.479" r="5.4" fill="#000000" fill-rule="evenodd" fill-opacity="1" stroke="none"/>
<circle clip-path="url(#clip812)" cx="1038.92" cy="761.924" r="5.4" fill="#000000" fill-rule="evenodd" fill-opacity="1" stroke="none"/>
<circle clip-path="url(#clip812)" cx="1045.87" cy="643.831" r="5.4" fill="#000000" fill-rule="evenodd" fill-opacity="1" stroke="none"/>
<circle clip-path="url(#clip812)" cx="1052.82" cy="678.864" r="5.4" fill="#000000" fill-rule="evenodd" fill-opacity="1" stroke="none"/>
<circle clip-path="url(#clip812)" cx="1059.78" cy="697.721" r="5.4" fill="#000000" fill-rule="evenodd" fill-opacity="1" stroke="none"/>
<circle clip-path="url(#clip812)" cx="1066.73" cy="678.032" r="5.4" fill="#000000" fill-rule="evenodd" fill-opacity="1" stroke="none"/>
<circle clip-path="url(#clip812)" cx="1073.68" cy="673.799" r="5.4" fill="#000000" fill-rule="evenodd" fill-opacity="1" stroke="none"/>
<circle clip-path="url(#clip812)" cx="1080.63" cy="696.737" r="5.4" fill="#000000" fill-rule="evenodd" fill-opacity="1" stroke="none"/>
<circle clip-path="url(#clip812)" cx="1087.59" cy="632.921" r="5.4" fill="#000000" fill-rule="evenodd" fill-opacity="1" stroke="none"/>
<circle clip-path="url(#clip812)" cx="1094.54" cy="714.121" r="5.4" fill="#000000" fill-rule="evenodd" fill-opacity="1" stroke="none"/>
<circle clip-path="url(#clip812)" cx="1101.49" cy="605.508" r="5.4" fill="#000000" fill-rule="evenodd" fill-opacity="1" stroke="none"/>
<circle clip-path="url(#clip812)" cx="1108.44" cy="579.296" r="5.4" fill="#000000" fill-rule="evenodd" fill-opacity="1" stroke="none"/>
<circle clip-path="url(#clip812)" cx="1115.4" cy="575.906" r="5.4" fill="#000000" fill-rule="evenodd" fill-opacity="1" stroke="none"/>
<circle clip-path="url(#clip812)" cx="1122.35" cy="569.503" r="5.4" fill="#000000" fill-rule="evenodd" fill-opacity="1" stroke="none"/>
<circle clip-path="url(#clip812)" cx="1129.3" cy="540.141" r="5.4" fill="#000000" fill-rule="evenodd" fill-opacity="1" stroke="none"/>
<circle clip-path="url(#clip812)" cx="1136.26" cy="517.21" r="5.4" fill="#000000" fill-rule="evenodd" fill-opacity="1" stroke="none"/>
<circle clip-path="url(#clip812)" cx="1143.21" cy="549.867" r="5.4" fill="#000000" fill-rule="evenodd" fill-opacity="1" stroke="none"/>
<circle clip-path="url(#clip812)" cx="1150.16" cy="564.84" r="5.4" fill="#000000" fill-rule="evenodd" fill-opacity="1" stroke="none"/>
<circle clip-path="url(#clip812)" cx="1157.11" cy="537.784" r="5.4" fill="#000000" fill-rule="evenodd" fill-opacity="1" stroke="none"/>
<circle clip-path="url(#clip812)" cx="1164.07" cy="447.391" r="5.4" fill="#000000" fill-rule="evenodd" fill-opacity="1" stroke="none"/>
<circle clip-path="url(#clip812)" cx="1171.02" cy="504.88" r="5.4" fill="#000000" fill-rule="evenodd" fill-opacity="1" stroke="none"/>
<circle clip-path="url(#clip812)" cx="1177.97" cy="476.722" r="5.4" fill="#000000" fill-rule="evenodd" fill-opacity="1" stroke="none"/>
<circle clip-path="url(#clip812)" cx="1184.92" cy="443.422" r="5.4" fill="#000000" fill-rule="evenodd" fill-opacity="1" stroke="none"/>
<circle clip-path="url(#clip812)" cx="1191.88" cy="429.403" r="5.4" fill="#000000" fill-rule="evenodd" fill-opacity="1" stroke="none"/>
<circle clip-path="url(#clip812)" cx="1198.83" cy="421.193" r="5.4" fill="#000000" fill-rule="evenodd" fill-opacity="1" stroke="none"/>
<circle clip-path="url(#clip812)" cx="1205.78" cy="388.637" r="5.4" fill="#000000" fill-rule="evenodd" fill-opacity="1" stroke="none"/>
<circle clip-path="url(#clip812)" cx="1212.73" cy="323.788" r="5.4" fill="#000000" fill-rule="evenodd" fill-opacity="1" stroke="none"/>
<circle clip-path="url(#clip812)" cx="1219.69" cy="373.563" r="5.4" fill="#000000" fill-rule="evenodd" fill-opacity="1" stroke="none"/>
<circle clip-path="url(#clip812)" cx="1226.64" cy="341.357" r="5.4" fill="#000000" fill-rule="evenodd" fill-opacity="1" stroke="none"/>
<circle clip-path="url(#clip812)" cx="1233.59" cy="394.901" r="5.4" fill="#000000" fill-rule="evenodd" fill-opacity="1" stroke="none"/>
<circle clip-path="url(#clip812)" cx="1240.54" cy="458.144" r="5.4" fill="#000000" fill-rule="evenodd" fill-opacity="1" stroke="none"/>
<circle clip-path="url(#clip812)" cx="1247.5" cy="288.888" r="5.4" fill="#000000" fill-rule="evenodd" fill-opacity="1" stroke="none"/>
<circle clip-path="url(#clip812)" cx="1254.45" cy="357.661" r="5.4" fill="#000000" fill-rule="evenodd" fill-opacity="1" stroke="none"/>
<circle clip-path="url(#clip812)" cx="1261.4" cy="358.297" r="5.4" fill="#000000" fill-rule="evenodd" fill-opacity="1" stroke="none"/>
<circle clip-path="url(#clip812)" cx="1268.35" cy="295.144" r="5.4" fill="#000000" fill-rule="evenodd" fill-opacity="1" stroke="none"/>
<circle clip-path="url(#clip812)" cx="1275.31" cy="262.341" r="5.4" fill="#000000" fill-rule="evenodd" fill-opacity="1" stroke="none"/>
<circle clip-path="url(#clip812)" cx="1282.26" cy="226.678" r="5.4" fill="#000000" fill-rule="evenodd" fill-opacity="1" stroke="none"/>
<circle clip-path="url(#clip812)" cx="1289.21" cy="259.959" r="5.4" fill="#000000" fill-rule="evenodd" fill-opacity="1" stroke="none"/>
<circle clip-path="url(#clip812)" cx="1296.17" cy="289.127" r="5.4" fill="#000000" fill-rule="evenodd" fill-opacity="1" stroke="none"/>
<circle clip-path="url(#clip812)" cx="1303.12" cy="179.432" r="5.4" fill="#000000" fill-rule="evenodd" fill-opacity="1" stroke="none"/>
<circle clip-path="url(#clip812)" cx="1310.07" cy="282.138" r="5.4" fill="#000000" fill-rule="evenodd" fill-opacity="1" stroke="none"/>
<circle clip-path="url(#clip812)" cx="1317.02" cy="236.113" r="5.4" fill="#000000" fill-rule="evenodd" fill-opacity="1" stroke="none"/>
<circle clip-path="url(#clip812)" cx="1323.98" cy="226.301" r="5.4" fill="#000000" fill-rule="evenodd" fill-opacity="1" stroke="none"/>
<circle clip-path="url(#clip812)" cx="1330.93" cy="302.858" r="5.4" fill="#000000" fill-rule="evenodd" fill-opacity="1" stroke="none"/>
<circle clip-path="url(#clip812)" cx="1337.88" cy="251.053" r="5.4" fill="#000000" fill-rule="evenodd" fill-opacity="1" stroke="none"/>
<circle clip-path="url(#clip812)" cx="1344.83" cy="175.05" r="5.4" fill="#000000" fill-rule="evenodd" fill-opacity="1" stroke="none"/>
<circle clip-path="url(#clip812)" cx="1351.79" cy="222.724" r="5.4" fill="#000000" fill-rule="evenodd" fill-opacity="1" stroke="none"/>
<circle clip-path="url(#clip812)" cx="1358.74" cy="102.598" r="5.4" fill="#000000" fill-rule="evenodd" fill-opacity="1" stroke="none"/>
<circle clip-path="url(#clip812)" cx="1365.69" cy="156.461" r="5.4" fill="#000000" fill-rule="evenodd" fill-opacity="1" stroke="none"/>
<circle clip-path="url(#clip812)" cx="1372.64" cy="166.864" r="5.4" fill="#000000" fill-rule="evenodd" fill-opacity="1" stroke="none"/>
<circle clip-path="url(#clip812)" cx="1379.6" cy="167.822" r="5.4" fill="#000000" fill-rule="evenodd" fill-opacity="1" stroke="none"/>
<circle clip-path="url(#clip812)" cx="1386.55" cy="186.199" r="5.4" fill="#000000" fill-rule="evenodd" fill-opacity="1" stroke="none"/>
<circle clip-path="url(#clip812)" cx="1393.5" cy="228.941" r="5.4" fill="#000000" fill-rule="evenodd" fill-opacity="1" stroke="none"/>
<circle clip-path="url(#clip812)" cx="1400.45" cy="191.586" r="5.4" fill="#000000" fill-rule="evenodd" fill-opacity="1" stroke="none"/>
<circle clip-path="url(#clip812)" cx="1407.41" cy="141.625" r="5.4" fill="#000000" fill-rule="evenodd" fill-opacity="1" stroke="none"/>
<circle clip-path="url(#clip812)" cx="1414.36" cy="166.547" r="5.4" fill="#000000" fill-rule="evenodd" fill-opacity="1" stroke="none"/>
<circle clip-path="url(#clip812)" cx="1421.31" cy="151.978" r="5.4" fill="#000000" fill-rule="evenodd" fill-opacity="1" stroke="none"/>
<circle clip-path="url(#clip812)" cx="1428.27" cy="132.958" r="5.4" fill="#000000" fill-rule="evenodd" fill-opacity="1" stroke="none"/>
<circle clip-path="url(#clip812)" cx="1435.22" cy="87.9763" r="5.4" fill="#000000" fill-rule="evenodd" fill-opacity="1" stroke="none"/>
<circle clip-path="url(#clip812)" cx="1442.17" cy="113.528" r="5.4" fill="#000000" fill-rule="evenodd" fill-opacity="1" stroke="none"/>
<circle clip-path="url(#clip812)" cx="1449.12" cy="155.168" r="5.4" fill="#000000" fill-rule="evenodd" fill-opacity="1" stroke="none"/>
<circle clip-path="url(#clip812)" cx="1456.08" cy="169.136" r="5.4" fill="#000000" fill-rule="evenodd" fill-opacity="1" stroke="none"/>
<circle clip-path="url(#clip812)" cx="1463.03" cy="199.553" r="5.4" fill="#000000" fill-rule="evenodd" fill-opacity="1" stroke="none"/>
<circle clip-path="url(#clip812)" cx="1469.98" cy="160.169" r="5.4" fill="#000000" fill-rule="evenodd" fill-opacity="1" stroke="none"/>
<circle clip-path="url(#clip812)" cx="1476.93" cy="170.048" r="5.4" fill="#000000" fill-rule="evenodd" fill-opacity="1" stroke="none"/>
<circle clip-path="url(#clip812)" cx="1483.89" cy="149.858" r="5.4" fill="#000000" fill-rule="evenodd" fill-opacity="1" stroke="none"/>
<circle clip-path="url(#clip812)" cx="1490.84" cy="154.188" r="5.4" fill="#000000" fill-rule="evenodd" fill-opacity="1" stroke="none"/>
<circle clip-path="url(#clip812)" cx="1497.79" cy="156.987" r="5.4" fill="#000000" fill-rule="evenodd" fill-opacity="1" stroke="none"/>
<circle clip-path="url(#clip812)" cx="1504.74" cy="198.897" r="5.4" fill="#000000" fill-rule="evenodd" fill-opacity="1" stroke="none"/>
<circle clip-path="url(#clip812)" cx="1511.7" cy="187.185" r="5.4" fill="#000000" fill-rule="evenodd" fill-opacity="1" stroke="none"/>
<circle clip-path="url(#clip812)" cx="1518.65" cy="259.045" r="5.4" fill="#000000" fill-rule="evenodd" fill-opacity="1" stroke="none"/>
<circle clip-path="url(#clip812)" cx="1525.6" cy="239.171" r="5.4" fill="#000000" fill-rule="evenodd" fill-opacity="1" stroke="none"/>
<circle clip-path="url(#clip812)" cx="1532.55" cy="173.853" r="5.4" fill="#000000" fill-rule="evenodd" fill-opacity="1" stroke="none"/>
<circle clip-path="url(#clip812)" cx="1539.51" cy="215.113" r="5.4" fill="#000000" fill-rule="evenodd" fill-opacity="1" stroke="none"/>
<circle clip-path="url(#clip812)" cx="1546.46" cy="248.304" r="5.4" fill="#000000" fill-rule="evenodd" fill-opacity="1" stroke="none"/>
<circle clip-path="url(#clip812)" cx="1553.41" cy="236.495" r="5.4" fill="#000000" fill-rule="evenodd" fill-opacity="1" stroke="none"/>
<circle clip-path="url(#clip812)" cx="1560.37" cy="250.472" r="5.4" fill="#000000" fill-rule="evenodd" fill-opacity="1" stroke="none"/>
<circle clip-path="url(#clip812)" cx="1567.32" cy="269.735" r="5.4" fill="#000000" fill-rule="evenodd" fill-opacity="1" stroke="none"/>
<circle clip-path="url(#clip812)" cx="1574.27" cy="215.515" r="5.4" fill="#000000" fill-rule="evenodd" fill-opacity="1" stroke="none"/>
<circle clip-path="url(#clip812)" cx="1581.22" cy="216.707" r="5.4" fill="#000000" fill-rule="evenodd" fill-opacity="1" stroke="none"/>
<circle clip-path="url(#clip812)" cx="1588.18" cy="325.934" r="5.4" fill="#000000" fill-rule="evenodd" fill-opacity="1" stroke="none"/>
<circle clip-path="url(#clip812)" cx="1595.13" cy="321.763" r="5.4" fill="#000000" fill-rule="evenodd" fill-opacity="1" stroke="none"/>
<circle clip-path="url(#clip812)" cx="1602.08" cy="348.507" r="5.4" fill="#000000" fill-rule="evenodd" fill-opacity="1" stroke="none"/>
<circle clip-path="url(#clip812)" cx="1609.03" cy="271.912" r="5.4" fill="#000000" fill-rule="evenodd" fill-opacity="1" stroke="none"/>
<circle clip-path="url(#clip812)" cx="1615.99" cy="317.763" r="5.4" fill="#000000" fill-rule="evenodd" fill-opacity="1" stroke="none"/>
<circle clip-path="url(#clip812)" cx="1622.94" cy="403.603" r="5.4" fill="#000000" fill-rule="evenodd" fill-opacity="1" stroke="none"/>
<circle clip-path="url(#clip812)" cx="1629.89" cy="353.101" r="5.4" fill="#000000" fill-rule="evenodd" fill-opacity="1" stroke="none"/>
<circle clip-path="url(#clip812)" cx="1636.84" cy="341.708" r="5.4" fill="#000000" fill-rule="evenodd" fill-opacity="1" stroke="none"/>
<circle clip-path="url(#clip812)" cx="1643.8" cy="293.732" r="5.4" fill="#000000" fill-rule="evenodd" fill-opacity="1" stroke="none"/>
<circle clip-path="url(#clip812)" cx="1650.75" cy="351.673" r="5.4" fill="#000000" fill-rule="evenodd" fill-opacity="1" stroke="none"/>
<circle clip-path="url(#clip812)" cx="1657.7" cy="291.246" r="5.4" fill="#000000" fill-rule="evenodd" fill-opacity="1" stroke="none"/>
<circle clip-path="url(#clip812)" cx="1664.65" cy="395.699" r="5.4" fill="#000000" fill-rule="evenodd" fill-opacity="1" stroke="none"/>
<circle clip-path="url(#clip812)" cx="1671.61" cy="408.993" r="5.4" fill="#000000" fill-rule="evenodd" fill-opacity="1" stroke="none"/>
<circle clip-path="url(#clip812)" cx="1678.56" cy="373.591" r="5.4" fill="#000000" fill-rule="evenodd" fill-opacity="1" stroke="none"/>
<circle clip-path="url(#clip812)" cx="1685.51" cy="410.248" r="5.4" fill="#000000" fill-rule="evenodd" fill-opacity="1" stroke="none"/>
<circle clip-path="url(#clip812)" cx="1692.47" cy="445.772" r="5.4" fill="#000000" fill-rule="evenodd" fill-opacity="1" stroke="none"/>
<circle clip-path="url(#clip812)" cx="1699.42" cy="489.903" r="5.4" fill="#000000" fill-rule="evenodd" fill-opacity="1" stroke="none"/>
<circle clip-path="url(#clip812)" cx="1706.37" cy="477.082" r="5.4" fill="#000000" fill-rule="evenodd" fill-opacity="1" stroke="none"/>
<circle clip-path="url(#clip812)" cx="1713.32" cy="499.807" r="5.4" fill="#000000" fill-rule="evenodd" fill-opacity="1" stroke="none"/>
<circle clip-path="url(#clip812)" cx="1720.28" cy="490.527" r="5.4" fill="#000000" fill-rule="evenodd" fill-opacity="1" stroke="none"/>
<circle clip-path="url(#clip812)" cx="1727.23" cy="562.982" r="5.4" fill="#000000" fill-rule="evenodd" fill-opacity="1" stroke="none"/>
<circle clip-path="url(#clip812)" cx="1734.18" cy="488.778" r="5.4" fill="#000000" fill-rule="evenodd" fill-opacity="1" stroke="none"/>
<circle clip-path="url(#clip812)" cx="1741.13" cy="539.224" r="5.4" fill="#000000" fill-rule="evenodd" fill-opacity="1" stroke="none"/>
<circle clip-path="url(#clip812)" cx="1748.09" cy="489.36" r="5.4" fill="#000000" fill-rule="evenodd" fill-opacity="1" stroke="none"/>
<circle clip-path="url(#clip812)" cx="1755.04" cy="585.276" r="5.4" fill="#000000" fill-rule="evenodd" fill-opacity="1" stroke="none"/>
<circle clip-path="url(#clip812)" cx="1761.99" cy="580.837" r="5.4" fill="#000000" fill-rule="evenodd" fill-opacity="1" stroke="none"/>
<circle clip-path="url(#clip812)" cx="1768.94" cy="620.394" r="5.4" fill="#000000" fill-rule="evenodd" fill-opacity="1" stroke="none"/>
<circle clip-path="url(#clip812)" cx="1775.9" cy="687.896" r="5.4" fill="#000000" fill-rule="evenodd" fill-opacity="1" stroke="none"/>
<circle clip-path="url(#clip812)" cx="1782.85" cy="614.726" r="5.4" fill="#000000" fill-rule="evenodd" fill-opacity="1" stroke="none"/>
<circle clip-path="url(#clip812)" cx="1789.8" cy="642.743" r="5.4" fill="#000000" fill-rule="evenodd" fill-opacity="1" stroke="none"/>
<circle clip-path="url(#clip812)" cx="1796.75" cy="633.368" r="5.4" fill="#000000" fill-rule="evenodd" fill-opacity="1" stroke="none"/>
<circle clip-path="url(#clip812)" cx="1803.71" cy="621.345" r="5.4" fill="#000000" fill-rule="evenodd" fill-opacity="1" stroke="none"/>
<circle clip-path="url(#clip812)" cx="1810.66" cy="644.683" r="5.4" fill="#000000" fill-rule="evenodd" fill-opacity="1" stroke="none"/>
<circle clip-path="url(#clip812)" cx="1817.61" cy="649.702" r="5.4" fill="#000000" fill-rule="evenodd" fill-opacity="1" stroke="none"/>
<circle clip-path="url(#clip812)" cx="1824.56" cy="621.922" r="5.4" fill="#000000" fill-rule="evenodd" fill-opacity="1" stroke="none"/>
<circle clip-path="url(#clip812)" cx="1831.52" cy="785.208" r="5.4" fill="#000000" fill-rule="evenodd" fill-opacity="1" stroke="none"/>
<circle clip-path="url(#clip812)" cx="1838.47" cy="726.792" r="5.4" fill="#000000" fill-rule="evenodd" fill-opacity="1" stroke="none"/>
<circle clip-path="url(#clip812)" cx="1845.42" cy="834.72" r="5.4" fill="#000000" fill-rule="evenodd" fill-opacity="1" stroke="none"/>
<circle clip-path="url(#clip812)" cx="1852.38" cy="732.137" r="5.4" fill="#000000" fill-rule="evenodd" fill-opacity="1" stroke="none"/>
<circle clip-path="url(#clip812)" cx="1859.33" cy="729.517" r="5.4" fill="#000000" fill-rule="evenodd" fill-opacity="1" stroke="none"/>
<circle clip-path="url(#clip812)" cx="1866.28" cy="795.115" r="5.4" fill="#000000" fill-rule="evenodd" fill-opacity="1" stroke="none"/>
<circle clip-path="url(#clip812)" cx="1873.23" cy="761.756" r="5.4" fill="#000000" fill-rule="evenodd" fill-opacity="1" stroke="none"/>
<circle clip-path="url(#clip812)" cx="1880.19" cy="799.711" r="5.4" fill="#000000" fill-rule="evenodd" fill-opacity="1" stroke="none"/>
<circle clip-path="url(#clip812)" cx="1887.14" cy="691.02" r="5.4" fill="#000000" fill-rule="evenodd" fill-opacity="1" stroke="none"/>
<circle clip-path="url(#clip812)" cx="1894.09" cy="861.816" r="5.4" fill="#000000" fill-rule="evenodd" fill-opacity="1" stroke="none"/>
<circle clip-path="url(#clip812)" cx="1901.04" cy="822.565" r="5.4" fill="#000000" fill-rule="evenodd" fill-opacity="1" stroke="none"/>
<circle clip-path="url(#clip812)" cx="1908" cy="831.962" r="5.4" fill="#000000" fill-rule="evenodd" fill-opacity="1" stroke="none"/>
<circle clip-path="url(#clip812)" cx="1914.95" cy="893.739" r="5.4" fill="#000000" fill-rule="evenodd" fill-opacity="1" stroke="none"/>
<circle clip-path="url(#clip812)" cx="1921.9" cy="889.31" r="5.4" fill="#000000" fill-rule="evenodd" fill-opacity="1" stroke="none"/>
<circle clip-path="url(#clip812)" cx="1928.85" cy="894.284" r="5.4" fill="#000000" fill-rule="evenodd" fill-opacity="1" stroke="none"/>
<circle clip-path="url(#clip812)" cx="1935.81" cy="985.78" r="5.4" fill="#000000" fill-rule="evenodd" fill-opacity="1" stroke="none"/>
<circle clip-path="url(#clip812)" cx="1942.76" cy="949.845" r="5.4" fill="#000000" fill-rule="evenodd" fill-opacity="1" stroke="none"/>
<circle clip-path="url(#clip812)" cx="1949.71" cy="844.779" r="5.4" fill="#000000" fill-rule="evenodd" fill-opacity="1" stroke="none"/>
<circle clip-path="url(#clip812)" cx="1956.66" cy="953.432" r="5.4" fill="#000000" fill-rule="evenodd" fill-opacity="1" stroke="none"/>
<circle clip-path="url(#clip812)" cx="1963.62" cy="914.907" r="5.4" fill="#000000" fill-rule="evenodd" fill-opacity="1" stroke="none"/>
<circle clip-path="url(#clip812)" cx="1970.57" cy="956.682" r="5.4" fill="#000000" fill-rule="evenodd" fill-opacity="1" stroke="none"/>
<circle clip-path="url(#clip812)" cx="1977.52" cy="1078.89" r="5.4" fill="#000000" fill-rule="evenodd" fill-opacity="1" stroke="none"/>
<circle clip-path="url(#clip812)" cx="1984.48" cy="956.746" r="5.4" fill="#000000" fill-rule="evenodd" fill-opacity="1" stroke="none"/>
<circle clip-path="url(#clip812)" cx="1991.43" cy="965.949" r="5.4" fill="#000000" fill-rule="evenodd" fill-opacity="1" stroke="none"/>
<circle clip-path="url(#clip812)" cx="1998.38" cy="1007.74" r="5.4" fill="#000000" fill-rule="evenodd" fill-opacity="1" stroke="none"/>
<circle clip-path="url(#clip812)" cx="2005.33" cy="1020.98" r="5.4" fill="#000000" fill-rule="evenodd" fill-opacity="1" stroke="none"/>
<circle clip-path="url(#clip812)" cx="2012.29" cy="1030.08" r="5.4" fill="#000000" fill-rule="evenodd" fill-opacity="1" stroke="none"/>
<circle clip-path="url(#clip812)" cx="2019.24" cy="1106.77" r="5.4" fill="#000000" fill-rule="evenodd" fill-opacity="1" stroke="none"/>
<circle clip-path="url(#clip812)" cx="2026.19" cy="1073.86" r="5.4" fill="#000000" fill-rule="evenodd" fill-opacity="1" stroke="none"/>
<circle clip-path="url(#clip812)" cx="2033.14" cy="1169.3" r="5.4" fill="#000000" fill-rule="evenodd" fill-opacity="1" stroke="none"/>
<circle clip-path="url(#clip812)" cx="2040.1" cy="1102.74" r="5.4" fill="#000000" fill-rule="evenodd" fill-opacity="1" stroke="none"/>
<circle clip-path="url(#clip812)" cx="2047.05" cy="1151.95" r="5.4" fill="#000000" fill-rule="evenodd" fill-opacity="1" stroke="none"/>
<circle clip-path="url(#clip812)" cx="2054" cy="1147.02" r="5.4" fill="#000000" fill-rule="evenodd" fill-opacity="1" stroke="none"/>
<circle clip-path="url(#clip812)" cx="2060.95" cy="1218.31" r="5.4" fill="#000000" fill-rule="evenodd" fill-opacity="1" stroke="none"/>
<circle clip-path="url(#clip812)" cx="2067.91" cy="1031.29" r="5.4" fill="#000000" fill-rule="evenodd" fill-opacity="1" stroke="none"/>
<circle clip-path="url(#clip812)" cx="2074.86" cy="1253.55" r="5.4" fill="#000000" fill-rule="evenodd" fill-opacity="1" stroke="none"/>
<circle clip-path="url(#clip812)" cx="2081.81" cy="1225.43" r="5.4" fill="#000000" fill-rule="evenodd" fill-opacity="1" stroke="none"/>
<circle clip-path="url(#clip812)" cx="2088.76" cy="1206.66" r="5.4" fill="#000000" fill-rule="evenodd" fill-opacity="1" stroke="none"/>
<circle clip-path="url(#clip812)" cx="2095.72" cy="1144.05" r="5.4" fill="#000000" fill-rule="evenodd" fill-opacity="1" stroke="none"/>
<circle clip-path="url(#clip812)" cx="2102.67" cy="1200.61" r="5.4" fill="#000000" fill-rule="evenodd" fill-opacity="1" stroke="none"/>
<circle clip-path="url(#clip812)" cx="2109.62" cy="1242.79" r="5.4" fill="#000000" fill-rule="evenodd" fill-opacity="1" stroke="none"/>
<circle clip-path="url(#clip812)" cx="2116.58" cy="1229.08" r="5.4" fill="#000000" fill-rule="evenodd" fill-opacity="1" stroke="none"/>
<circle clip-path="url(#clip812)" cx="2123.53" cy="1265.07" r="5.4" fill="#000000" fill-rule="evenodd" fill-opacity="1" stroke="none"/>
<circle clip-path="url(#clip812)" cx="2130.48" cy="1229.87" r="5.4" fill="#000000" fill-rule="evenodd" fill-opacity="1" stroke="none"/>
<circle clip-path="url(#clip812)" cx="2137.43" cy="1273.18" r="5.4" fill="#000000" fill-rule="evenodd" fill-opacity="1" stroke="none"/>
<circle clip-path="url(#clip812)" cx="2144.39" cy="1243.66" r="5.4" fill="#000000" fill-rule="evenodd" fill-opacity="1" stroke="none"/>
<circle clip-path="url(#clip812)" cx="2151.34" cy="1218.31" r="5.4" fill="#000000" fill-rule="evenodd" fill-opacity="1" stroke="none"/>
<circle clip-path="url(#clip812)" cx="2158.29" cy="1241.02" r="5.4" fill="#000000" fill-rule="evenodd" fill-opacity="1" stroke="none"/>
<circle clip-path="url(#clip812)" cx="2165.24" cy="1337.86" r="5.4" fill="#000000" fill-rule="evenodd" fill-opacity="1" stroke="none"/>
<circle clip-path="url(#clip812)" cx="2172.2" cy="1325.13" r="5.4" fill="#000000" fill-rule="evenodd" fill-opacity="1" stroke="none"/>
<circle clip-path="url(#clip812)" cx="2179.15" cy="1368.19" r="5.4" fill="#000000" fill-rule="evenodd" fill-opacity="1" stroke="none"/>
<circle clip-path="url(#clip812)" cx="2186.1" cy="1332.35" r="5.4" fill="#000000" fill-rule="evenodd" fill-opacity="1" stroke="none"/>
<circle clip-path="url(#clip812)" cx="2193.05" cy="1318.16" r="5.4" fill="#000000" fill-rule="evenodd" fill-opacity="1" stroke="none"/>
<circle clip-path="url(#clip812)" cx="2200.01" cy="1445.72" r="5.4" fill="#000000" fill-rule="evenodd" fill-opacity="1" stroke="none"/>
<circle clip-path="url(#clip812)" cx="2206.96" cy="1411.29" r="5.4" fill="#000000" fill-rule="evenodd" fill-opacity="1" stroke="none"/>
<circle clip-path="url(#clip812)" cx="2213.91" cy="1436.61" r="5.4" fill="#000000" fill-rule="evenodd" fill-opacity="1" stroke="none"/>
<circle clip-path="url(#clip812)" cx="2220.86" cy="1432.71" r="5.4" fill="#000000" fill-rule="evenodd" fill-opacity="1" stroke="none"/>
<circle clip-path="url(#clip812)" cx="2227.82" cy="1365.47" r="5.4" fill="#000000" fill-rule="evenodd" fill-opacity="1" stroke="none"/>
<circle clip-path="url(#clip812)" cx="2234.77" cy="1348.62" r="5.4" fill="#000000" fill-rule="evenodd" fill-opacity="1" stroke="none"/>
<circle clip-path="url(#clip812)" cx="2241.72" cy="1341.97" r="5.4" fill="#000000" fill-rule="evenodd" fill-opacity="1" stroke="none"/>
<circle clip-path="url(#clip812)" cx="2248.68" cy="1425.21" r="5.4" fill="#000000" fill-rule="evenodd" fill-opacity="1" stroke="none"/>
<circle clip-path="url(#clip812)" cx="2255.63" cy="1382.4" r="5.4" fill="#000000" fill-rule="evenodd" fill-opacity="1" stroke="none"/>
<circle clip-path="url(#clip812)" cx="2262.58" cy="1417.94" r="5.4" fill="#000000" fill-rule="evenodd" fill-opacity="1" stroke="none"/>
<circle clip-path="url(#clip812)" cx="2269.53" cy="1443.38" r="5.4" fill="#000000" fill-rule="evenodd" fill-opacity="1" stroke="none"/>
<circle clip-path="url(#clip812)" cx="2276.49" cy="1407.64" r="5.4" fill="#000000" fill-rule="evenodd" fill-opacity="1" stroke="none"/>
<circle clip-path="url(#clip812)" cx="2283.44" cy="1431.09" r="5.4" fill="#000000" fill-rule="evenodd" fill-opacity="1" stroke="none"/>
<circle clip-path="url(#clip812)" cx="2290.39" cy="1397.87" r="5.4" fill="#000000" fill-rule="evenodd" fill-opacity="1" stroke="none"/>
<path clip-path="url(#clip810)" d="M1605.99 274.724 L2134.75 274.724 L2134.75 67.3643 L1605.99 67.3643  Z" fill="#ffffff" fill-rule="evenodd" fill-opacity="1"/>
<polyline clip-path="url(#clip810)" style="stroke:#000000; stroke-linecap:round; stroke-linejoin:round; stroke-width:4; stroke-opacity:1; fill:none" points="1605.99,274.724 2134.75,274.724 2134.75,67.3643 1605.99,67.3643 1605.99,274.724 "/>
<polyline clip-path="url(#clip810)" style="stroke:#0000ff; stroke-linecap:round; stroke-linejoin:round; stroke-width:8; stroke-opacity:1; fill:none" points="1630.48,119.204 1777.38,119.204 "/>
<path clip-path="url(#clip810)" d="M1824.11 103.059 L1824.11 107.619 Q1821.45 106.346 1819.09 105.721 Q1816.73 105.096 1814.53 105.096 Q1810.71 105.096 1808.62 106.577 Q1806.56 108.059 1806.56 110.79 Q1806.56 113.082 1807.93 114.262 Q1809.32 115.42 1813.16 116.137 L1815.98 116.716 Q1821.22 117.711 1823.69 120.234 Q1826.19 122.734 1826.19 126.947 Q1826.19 131.97 1822.81 134.563 Q1819.46 137.156 1812.95 137.156 Q1810.5 137.156 1807.72 136.6 Q1804.97 136.044 1802 134.957 L1802 130.142 Q1804.85 131.739 1807.58 132.549 Q1810.31 133.359 1812.95 133.359 Q1816.96 133.359 1819.13 131.785 Q1821.31 130.211 1821.31 127.295 Q1821.31 124.748 1819.73 123.313 Q1818.18 121.878 1814.62 121.16 L1811.77 120.605 Q1806.54 119.563 1804.2 117.341 Q1801.86 115.119 1801.86 111.16 Q1801.86 106.577 1805.08 103.938 Q1808.32 101.299 1813.99 101.299 Q1816.42 101.299 1818.95 101.739 Q1821.47 102.179 1824.11 103.059 Z" fill="#000000" fill-rule="nonzero" fill-opacity="1" /><path clip-path="url(#clip810)" d="M1857.05 131.554 L1857.05 122.271 L1849.41 122.271 L1849.41 118.429 L1861.68 118.429 L1861.68 133.267 Q1858.97 135.188 1855.71 136.183 Q1852.44 137.156 1848.74 137.156 Q1840.64 137.156 1836.05 132.433 Q1831.49 127.688 1831.49 119.239 Q1831.49 110.767 1836.05 106.045 Q1840.64 101.299 1848.74 101.299 Q1852.12 101.299 1855.15 102.133 Q1858.21 102.966 1860.78 104.586 L1860.78 109.563 Q1858.18 107.364 1855.27 106.253 Q1852.35 105.142 1849.13 105.142 Q1842.79 105.142 1839.6 108.684 Q1836.42 112.225 1836.42 119.239 Q1836.42 126.23 1839.6 129.771 Q1842.79 133.313 1849.13 133.313 Q1851.61 133.313 1853.55 132.896 Q1855.5 132.457 1857.05 131.554 Z" fill="#000000" fill-rule="nonzero" fill-opacity="1" /><path clip-path="url(#clip810)" d="M1874.9 105.767 L1874.9 118.753 L1880.78 118.753 Q1884.04 118.753 1885.82 117.063 Q1887.6 115.373 1887.6 112.248 Q1887.6 109.146 1885.82 107.457 Q1884.04 105.767 1880.78 105.767 L1874.9 105.767 M1870.22 101.924 L1880.78 101.924 Q1886.59 101.924 1889.55 104.563 Q1892.54 107.179 1892.54 112.248 Q1892.54 117.364 1889.55 119.98 Q1886.59 122.595 1880.78 122.595 L1874.9 122.595 L1874.9 136.484 L1870.22 136.484 L1870.22 101.924 Z" fill="#000000" fill-rule="nonzero" fill-opacity="1" /><polyline clip-path="url(#clip810)" style="stroke:#008000; stroke-linecap:round; stroke-linejoin:round; stroke-width:8; stroke-opacity:1; fill:none" points="1630.48,171.044 1777.38,171.044 "/>
<path clip-path="url(#clip810)" d="M1801.86 153.764 L1806.56 153.764 L1806.56 174.76 Q1806.56 180.315 1808.58 182.769 Q1810.59 185.199 1815.11 185.199 Q1819.6 185.199 1821.61 182.769 Q1823.62 180.315 1823.62 174.76 L1823.62 153.764 L1828.32 153.764 L1828.32 175.338 Q1828.32 182.097 1824.97 185.547 Q1821.63 188.996 1815.11 188.996 Q1808.55 188.996 1805.2 185.547 Q1801.86 182.097 1801.86 175.338 L1801.86 153.764 Z" fill="#000000" fill-rule="nonzero" fill-opacity="1" /><path clip-path="url(#clip810)" d="M1832.3 153.764 L1861.54 153.764 L1861.54 157.699 L1849.27 157.699 L1849.27 188.324 L1844.57 188.324 L1844.57 157.699 L1832.3 157.699 L1832.3 153.764 Z" fill="#000000" fill-rule="nonzero" fill-opacity="1" /><circle clip-path="url(#clip810)" cx="1703.93" cy="222.884" r="17.28" fill="#000000" fill-rule="evenodd" fill-opacity="1" stroke="none"/>
<path clip-path="url(#clip810)" d="M1817.88 208.776 Q1812.79 208.776 1809.78 212.572 Q1806.8 216.368 1806.8 222.919 Q1806.8 229.447 1809.78 233.243 Q1812.79 237.039 1817.88 237.039 Q1822.98 237.039 1825.94 233.243 Q1828.92 229.447 1828.92 222.919 Q1828.92 216.368 1825.94 212.572 Q1822.98 208.776 1817.88 208.776 M1817.88 204.979 Q1825.15 204.979 1829.5 209.864 Q1833.86 214.725 1833.86 222.919 Q1833.86 231.09 1829.5 235.974 Q1825.15 240.836 1817.88 240.836 Q1810.59 240.836 1806.22 235.974 Q1801.86 231.113 1801.86 222.919 Q1801.86 214.725 1806.22 209.864 Q1810.59 204.979 1817.88 204.979 Z" fill="#000000" fill-rule="nonzero" fill-opacity="1" /><path clip-path="url(#clip810)" d="M1859.6 227.225 Q1859.6 222.525 1857.65 219.863 Q1855.73 217.178 1852.35 217.178 Q1848.97 217.178 1847.03 219.863 Q1845.11 222.525 1845.11 227.225 Q1845.11 231.924 1847.03 234.609 Q1848.97 237.271 1852.35 237.271 Q1855.73 237.271 1857.65 234.609 Q1859.6 231.924 1859.6 227.225 M1845.11 218.174 Q1846.45 215.859 1848.48 214.748 Q1850.54 213.613 1853.39 213.613 Q1858.11 213.613 1861.05 217.363 Q1864.02 221.113 1864.02 227.225 Q1864.02 233.336 1861.05 237.086 Q1858.11 240.836 1853.39 240.836 Q1850.54 240.836 1848.48 239.724 Q1846.45 238.59 1845.11 236.275 L1845.11 240.164 L1840.82 240.164 L1840.82 204.146 L1845.11 204.146 L1845.11 218.174 Z" fill="#000000" fill-rule="nonzero" fill-opacity="1" /><path clip-path="url(#clip810)" d="M1887.6 215.002 L1887.6 219.03 Q1885.8 218.104 1883.85 217.641 Q1881.91 217.178 1879.83 217.178 Q1876.66 217.178 1875.06 218.151 Q1873.48 219.123 1873.48 221.067 Q1873.48 222.549 1874.62 223.405 Q1875.75 224.238 1879.18 225.002 L1880.64 225.326 Q1885.17 226.299 1887.07 228.081 Q1888.99 229.84 1888.99 233.012 Q1888.99 236.623 1886.12 238.729 Q1883.28 240.836 1878.28 240.836 Q1876.19 240.836 1873.92 240.419 Q1871.68 240.025 1869.18 239.215 L1869.18 234.817 Q1871.54 236.044 1873.83 236.669 Q1876.12 237.271 1878.37 237.271 Q1881.38 237.271 1883 236.252 Q1884.62 235.211 1884.62 233.336 Q1884.62 231.6 1883.44 230.674 Q1882.28 229.748 1878.32 228.891 L1876.84 228.544 Q1872.88 227.711 1871.12 225.998 Q1869.36 224.262 1869.36 221.252 Q1869.36 217.595 1871.96 215.604 Q1874.55 213.613 1879.32 213.613 Q1881.68 213.613 1883.76 213.961 Q1885.85 214.308 1887.6 215.002 Z" fill="#000000" fill-rule="nonzero" fill-opacity="1" /><path clip-path="url(#clip810)" d="M1917.95 226.137 L1917.95 228.22 L1898.37 228.22 Q1898.65 232.618 1901.01 234.933 Q1903.39 237.224 1907.63 237.224 Q1910.08 237.224 1912.37 236.623 Q1914.69 236.021 1916.96 234.817 L1916.96 238.845 Q1914.66 239.817 1912.26 240.326 Q1909.85 240.836 1907.37 240.836 Q1901.17 240.836 1897.54 237.224 Q1893.92 233.613 1893.92 227.456 Q1893.92 221.09 1897.35 217.363 Q1900.8 213.613 1906.63 213.613 Q1911.86 213.613 1914.9 216.993 Q1917.95 220.35 1917.95 226.137 M1913.69 224.887 Q1913.65 221.391 1911.73 219.308 Q1909.83 217.225 1906.68 217.225 Q1903.11 217.225 1900.96 219.238 Q1898.83 221.252 1898.51 224.91 L1913.69 224.887 Z" fill="#000000" fill-rule="nonzero" fill-opacity="1" /><path clip-path="url(#clip810)" d="M1939.97 218.22 Q1939.25 217.803 1938.39 217.618 Q1937.56 217.41 1936.54 217.41 Q1932.93 217.41 1930.98 219.771 Q1929.06 222.109 1929.06 226.507 L1929.06 240.164 L1924.78 240.164 L1924.78 214.238 L1929.06 214.238 L1929.06 218.266 Q1930.41 215.905 1932.56 214.771 Q1934.71 213.613 1937.79 213.613 Q1938.23 213.613 1938.76 213.683 Q1939.29 213.729 1939.94 213.845 L1939.97 218.22 Z" fill="#000000" fill-rule="nonzero" fill-opacity="1" /><path clip-path="url(#clip810)" d="M1941.38 214.238 L1945.89 214.238 L1953.99 235.998 L1962.1 214.238 L1966.61 214.238 L1956.89 240.164 L1951.1 240.164 L1941.38 214.238 Z" fill="#000000" fill-rule="nonzero" fill-opacity="1" /><path clip-path="url(#clip810)" d="M1984.27 227.132 Q1979.11 227.132 1977.12 228.312 Q1975.13 229.493 1975.13 232.34 Q1975.13 234.609 1976.61 235.951 Q1978.11 237.271 1980.68 237.271 Q1984.22 237.271 1986.35 234.771 Q1988.51 232.248 1988.51 228.081 L1988.51 227.132 L1984.27 227.132 M1992.77 225.373 L1992.77 240.164 L1988.51 240.164 L1988.51 236.229 Q1987.05 238.59 1984.87 239.724 Q1982.7 240.836 1979.55 240.836 Q1975.57 240.836 1973.21 238.613 Q1970.87 236.368 1970.87 232.618 Q1970.87 228.243 1973.79 226.021 Q1976.72 223.799 1982.53 223.799 L1988.51 223.799 L1988.51 223.382 Q1988.51 220.442 1986.56 218.845 Q1984.64 217.225 1981.15 217.225 Q1978.92 217.225 1976.82 217.757 Q1974.71 218.289 1972.77 219.354 L1972.77 215.419 Q1975.1 214.516 1977.3 214.076 Q1979.5 213.613 1981.59 213.613 Q1987.21 213.613 1989.99 216.53 Q1992.77 219.447 1992.77 225.373 Z" fill="#000000" fill-rule="nonzero" fill-opacity="1" /><path clip-path="url(#clip810)" d="M2005.75 206.877 L2005.75 214.238 L2014.53 214.238 L2014.53 217.549 L2005.75 217.549 L2005.75 231.623 Q2005.75 234.794 2006.61 235.697 Q2007.49 236.599 2010.15 236.599 L2014.53 236.599 L2014.53 240.164 L2010.15 240.164 Q2005.22 240.164 2003.35 238.336 Q2001.47 236.484 2001.47 231.623 L2001.47 217.549 L1998.35 217.549 L1998.35 214.238 L2001.47 214.238 L2001.47 206.877 L2005.75 206.877 Z" fill="#000000" fill-rule="nonzero" fill-opacity="1" /><path clip-path="url(#clip810)" d="M2020.13 214.238 L2024.39 214.238 L2024.39 240.164 L2020.13 240.164 L2020.13 214.238 M2020.13 204.146 L2024.39 204.146 L2024.39 209.539 L2020.13 209.539 L2020.13 204.146 Z" fill="#000000" fill-rule="nonzero" fill-opacity="1" /><path clip-path="url(#clip810)" d="M2043.34 217.225 Q2039.92 217.225 2037.93 219.91 Q2035.94 222.572 2035.94 227.225 Q2035.94 231.877 2037.91 234.562 Q2039.9 237.224 2043.34 237.224 Q2046.75 237.224 2048.74 234.539 Q2050.73 231.854 2050.73 227.225 Q2050.73 222.618 2048.74 219.933 Q2046.75 217.225 2043.34 217.225 M2043.34 213.613 Q2048.9 213.613 2052.07 217.225 Q2055.24 220.836 2055.24 227.225 Q2055.24 233.59 2052.07 237.224 Q2048.9 240.836 2043.34 240.836 Q2037.77 240.836 2034.59 237.224 Q2031.45 233.59 2031.45 227.225 Q2031.45 220.836 2034.59 217.225 Q2037.77 213.613 2043.34 213.613 Z" fill="#000000" fill-rule="nonzero" fill-opacity="1" /><path clip-path="url(#clip810)" d="M2083.85 224.516 L2083.85 240.164 L2079.59 240.164 L2079.59 224.655 Q2079.59 220.975 2078.16 219.146 Q2076.72 217.317 2073.85 217.317 Q2070.4 217.317 2068.41 219.516 Q2066.42 221.715 2066.42 225.512 L2066.42 240.164 L2062.14 240.164 L2062.14 214.238 L2066.42 214.238 L2066.42 218.266 Q2067.95 215.928 2070.01 214.771 Q2072.09 213.613 2074.8 213.613 Q2079.27 213.613 2081.56 216.391 Q2083.85 219.146 2083.85 224.516 Z" fill="#000000" fill-rule="nonzero" fill-opacity="1" /><path clip-path="url(#clip810)" d="M2108.88 215.002 L2108.88 219.03 Q2107.07 218.104 2105.13 217.641 Q2103.18 217.178 2101.1 217.178 Q2097.93 217.178 2096.33 218.151 Q2094.76 219.123 2094.76 221.067 Q2094.76 222.549 2095.89 223.405 Q2097.03 224.238 2100.45 225.002 L2101.91 225.326 Q2106.45 226.299 2108.34 228.081 Q2110.27 229.84 2110.27 233.012 Q2110.27 236.623 2107.4 238.729 Q2104.55 240.836 2099.55 240.836 Q2097.46 240.836 2095.2 240.419 Q2092.95 240.025 2090.45 239.215 L2090.45 234.817 Q2092.81 236.044 2095.1 236.669 Q2097.4 237.271 2099.64 237.271 Q2102.65 237.271 2104.27 236.252 Q2105.89 235.211 2105.89 233.336 Q2105.89 231.6 2104.71 230.674 Q2103.55 229.748 2099.59 228.891 L2098.11 228.544 Q2094.15 227.711 2092.4 225.998 Q2090.64 224.262 2090.64 221.252 Q2090.64 217.595 2093.23 215.604 Q2095.82 213.613 2100.59 213.613 Q2102.95 213.613 2105.03 213.961 Q2107.12 214.308 2108.88 215.002 Z" fill="#000000" fill-rule="nonzero" fill-opacity="1" /></svg>
