<?xml version="1.0" encoding="utf-8"?>
<svg xmlns="http://www.w3.org/2000/svg" xmlns:xlink="http://www.w3.org/1999/xlink" width="600" height="400" viewBox="0 0 2400 1600">
<defs>
  <clipPath id="clip990">
    <rect x="0" y="0" width="2400" height="1600"/>
  </clipPath>
</defs>
<path clip-path="url(#clip990)" d="M0 1600 L2400 1600 L2400 8.88178e-14 L0 8.88178e-14  Z" fill="#ffffff" fill-rule="evenodd" fill-opacity="1"/>
<defs>
  <clipPath id="clip991">
    <rect x="480" y="0" width="1681" height="1600"/>
  </clipPath>
</defs>
<path clip-path="url(#clip990)" d="M147.478 1486.45 L2352.76 1486.45 L2352.76 47.2441 L147.478 47.2441  Z" fill="#ffffff" fill-rule="evenodd" fill-opacity="1"/>
<defs>
  <clipPath id="clip992">
    <rect x="147" y="47" width="2206" height="1440"/>
  </clipPath>
</defs>
<polyline clip-path="url(#clip992)" style="stroke:#000000; stroke-linecap:round; stroke-linejoin:round; stroke-width:2; stroke-opacity:0.1; fill:none" points="204.677,1486.45 204.677,47.2441 "/>
<polyline clip-path="url(#clip992)" style="stroke:#000000; stroke-linecap:round; stroke-linejoin:round; stroke-width:2; stroke-opacity:0.1; fill:none" points="726.094,1486.45 726.094,47.2441 "/>
<polyline clip-path="url(#clip992)" style="stroke:#000000; stroke-linecap:round; stroke-linejoin:round; stroke-width:2; stroke-opacity:0.1; fill:none" points="1247.51,1486.45 1247.51,47.2441 "/>
<polyline clip-path="url(#clip992)" style="stroke:#000000; stroke-linecap:round; stroke-linejoin:round; stroke-width:2; stroke-opacity:0.1; fill:none" points="1768.93,1486.45 1768.93,47.2441 "/>
<polyline clip-path="url(#clip992)" style="stroke:#000000; stroke-linecap:round; stroke-linejoin:round; stroke-width:2; stroke-opacity:0.1; fill:none" points="2290.34,1486.45 2290.34,47.2441 "/>
<polyline clip-path="url(#clip992)" style="stroke:#000000; stroke-linecap:round; stroke-linejoin:round; stroke-width:2; stroke-opacity:0.1; fill:none" points="147.478,1472.27 2352.76,1472.27 "/>
<polyline clip-path="url(#clip992)" style="stroke:#000000; stroke-linecap:round; stroke-linejoin:round; stroke-width:2; stroke-opacity:0.1; fill:none" points="147.478,1124.87 2352.76,1124.87 "/>
<polyline clip-path="url(#clip992)" style="stroke:#000000; stroke-linecap:round; stroke-linejoin:round; stroke-width:2; stroke-opacity:0.1; fill:none" points="147.478,777.467 2352.76,777.467 "/>
<polyline clip-path="url(#clip992)" style="stroke:#000000; stroke-linecap:round; stroke-linejoin:round; stroke-width:2; stroke-opacity:0.1; fill:none" points="147.478,430.065 2352.76,430.065 "/>
<polyline clip-path="url(#clip992)" style="stroke:#000000; stroke-linecap:round; stroke-linejoin:round; stroke-width:2; stroke-opacity:0.1; fill:none" points="147.478,82.6631 2352.76,82.6631 "/>
<polyline clip-path="url(#clip990)" style="stroke:#000000; stroke-linecap:round; stroke-linejoin:round; stroke-width:4; stroke-opacity:1; fill:none" points="147.478,1486.45 2352.76,1486.45 "/>
<polyline clip-path="url(#clip990)" style="stroke:#000000; stroke-linecap:round; stroke-linejoin:round; stroke-width:4; stroke-opacity:1; fill:none" points="204.677,1486.45 204.677,1467.55 "/>
<polyline clip-path="url(#clip990)" style="stroke:#000000; stroke-linecap:round; stroke-linejoin:round; stroke-width:4; stroke-opacity:1; fill:none" points="726.094,1486.45 726.094,1467.55 "/>
<polyline clip-path="url(#clip990)" style="stroke:#000000; stroke-linecap:round; stroke-linejoin:round; stroke-width:4; stroke-opacity:1; fill:none" points="1247.51,1486.45 1247.51,1467.55 "/>
<polyline clip-path="url(#clip990)" style="stroke:#000000; stroke-linecap:round; stroke-linejoin:round; stroke-width:4; stroke-opacity:1; fill:none" points="1768.93,1486.45 1768.93,1467.55 "/>
<polyline clip-path="url(#clip990)" style="stroke:#000000; stroke-linecap:round; stroke-linejoin:round; stroke-width:4; stroke-opacity:1; fill:none" points="2290.34,1486.45 2290.34,1467.55 "/>
<path clip-path="url(#clip990)" d="M204.677 1517.37 Q201.066 1517.37 199.237 1520.93 Q197.432 1524.47 197.432 1531.6 Q197.432 1538.71 199.237 1542.27 Q201.066 1545.82 204.677 1545.82 Q208.312 1545.82 210.117 1542.27 Q211.946 1538.71 211.946 1531.6 Q211.946 1524.47 210.117 1520.93 Q208.312 1517.37 204.677 1517.37 M204.677 1513.66 Q210.487 1513.66 213.543 1518.27 Q216.622 1522.85 216.622 1531.6 Q216.622 1540.33 213.543 1544.94 Q210.487 1549.52 204.677 1549.52 Q198.867 1549.52 195.788 1544.94 Q192.733 1540.33 192.733 1531.6 Q192.733 1522.85 195.788 1518.27 Q198.867 1513.66 204.677 1513.66 Z" fill="#000000" fill-rule="nonzero" fill-opacity="1" /><path clip-path="url(#clip990)" d="M685.7 1544.91 L693.339 1544.91 L693.339 1518.55 L685.029 1520.21 L685.029 1515.95 L693.293 1514.29 L697.969 1514.29 L697.969 1544.91 L705.608 1544.91 L705.608 1548.85 L685.7 1548.85 L685.7 1544.91 Z" fill="#000000" fill-rule="nonzero" fill-opacity="1" /><path clip-path="url(#clip990)" d="M725.052 1517.37 Q721.441 1517.37 719.612 1520.93 Q717.807 1524.47 717.807 1531.6 Q717.807 1538.71 719.612 1542.27 Q721.441 1545.82 725.052 1545.82 Q728.686 1545.82 730.492 1542.27 Q732.32 1538.71 732.32 1531.6 Q732.32 1524.47 730.492 1520.93 Q728.686 1517.37 725.052 1517.37 M725.052 1513.66 Q730.862 1513.66 733.918 1518.27 Q736.996 1522.85 736.996 1531.6 Q736.996 1540.33 733.918 1544.94 Q730.862 1549.52 725.052 1549.52 Q719.242 1549.52 716.163 1544.94 Q713.108 1540.33 713.108 1531.6 Q713.108 1522.85 716.163 1518.27 Q719.242 1513.66 725.052 1513.66 Z" fill="#000000" fill-rule="nonzero" fill-opacity="1" /><path clip-path="url(#clip990)" d="M755.214 1517.37 Q751.603 1517.37 749.774 1520.93 Q747.968 1524.47 747.968 1531.6 Q747.968 1538.71 749.774 1542.27 Q751.603 1545.82 755.214 1545.82 Q758.848 1545.82 760.654 1542.27 Q762.482 1538.71 762.482 1531.6 Q762.482 1524.47 760.654 1520.93 Q758.848 1517.37 755.214 1517.37 M755.214 1513.66 Q761.024 1513.66 764.079 1518.27 Q767.158 1522.85 767.158 1531.6 Q767.158 1540.33 764.079 1544.94 Q761.024 1549.52 755.214 1549.52 Q749.404 1549.52 746.325 1544.94 Q743.269 1540.33 743.269 1531.6 Q743.269 1522.85 746.325 1518.27 Q749.404 1513.66 755.214 1513.66 Z" fill="#000000" fill-rule="nonzero" fill-opacity="1" /><path clip-path="url(#clip990)" d="M1211.2 1544.91 L1227.52 1544.91 L1227.52 1548.85 L1205.58 1548.85 L1205.58 1544.91 Q1208.24 1542.16 1212.82 1537.53 Q1217.43 1532.88 1218.61 1531.53 Q1220.85 1529.01 1221.73 1527.27 Q1222.64 1525.51 1222.64 1523.82 Q1222.64 1521.07 1220.69 1519.33 Q1218.77 1517.6 1215.67 1517.6 Q1213.47 1517.6 1211.02 1518.36 Q1208.59 1519.13 1205.81 1520.68 L1205.81 1515.95 Q1208.63 1514.82 1211.09 1514.24 Q1213.54 1513.66 1215.58 1513.66 Q1220.95 1513.66 1224.14 1516.35 Q1227.34 1519.03 1227.34 1523.52 Q1227.34 1525.65 1226.53 1527.57 Q1225.74 1529.47 1223.63 1532.07 Q1223.05 1532.74 1219.95 1535.95 Q1216.85 1539.15 1211.2 1544.91 Z" fill="#000000" fill-rule="nonzero" fill-opacity="1" /><path clip-path="url(#clip990)" d="M1247.34 1517.37 Q1243.73 1517.37 1241.9 1520.93 Q1240.09 1524.47 1240.09 1531.6 Q1240.09 1538.71 1241.9 1542.27 Q1243.73 1545.82 1247.34 1545.82 Q1250.97 1545.82 1252.78 1542.27 Q1254.6 1538.71 1254.6 1531.6 Q1254.6 1524.47 1252.78 1520.93 Q1250.97 1517.37 1247.34 1517.37 M1247.34 1513.66 Q1253.15 1513.66 1256.2 1518.27 Q1259.28 1522.85 1259.28 1531.6 Q1259.28 1540.33 1256.2 1544.94 Q1253.15 1549.52 1247.34 1549.52 Q1241.53 1549.52 1238.45 1544.94 Q1235.39 1540.33 1235.39 1531.6 Q1235.39 1522.85 1238.45 1518.27 Q1241.53 1513.66 1247.34 1513.66 Z" fill="#000000" fill-rule="nonzero" fill-opacity="1" /><path clip-path="url(#clip990)" d="M1277.5 1517.37 Q1273.89 1517.37 1272.06 1520.93 Q1270.25 1524.47 1270.25 1531.6 Q1270.25 1538.71 1272.06 1542.27 Q1273.89 1545.82 1277.5 1545.82 Q1281.13 1545.82 1282.94 1542.27 Q1284.77 1538.71 1284.77 1531.6 Q1284.77 1524.47 1282.94 1520.93 Q1281.13 1517.37 1277.5 1517.37 M1277.5 1513.66 Q1283.31 1513.66 1286.36 1518.27 Q1289.44 1522.85 1289.44 1531.6 Q1289.44 1540.33 1286.36 1544.94 Q1283.31 1549.52 1277.5 1549.52 Q1271.69 1549.52 1268.61 1544.94 Q1265.55 1540.33 1265.55 1531.6 Q1265.55 1522.85 1268.61 1518.27 Q1271.69 1513.66 1277.5 1513.66 Z" fill="#000000" fill-rule="nonzero" fill-opacity="1" /><path clip-path="url(#clip990)" d="M1742.69 1530.21 Q1746.04 1530.93 1747.92 1533.2 Q1749.82 1535.47 1749.82 1538.8 Q1749.82 1543.92 1746.3 1546.72 Q1742.78 1549.52 1736.3 1549.52 Q1734.12 1549.52 1731.81 1549.08 Q1729.52 1548.66 1727.06 1547.81 L1727.06 1543.29 Q1729.01 1544.43 1731.32 1545.01 Q1733.64 1545.58 1736.16 1545.58 Q1740.56 1545.58 1742.85 1543.85 Q1745.16 1542.11 1745.16 1538.8 Q1745.16 1535.75 1743.01 1534.03 Q1740.88 1532.3 1737.06 1532.3 L1733.04 1532.3 L1733.04 1528.45 L1737.25 1528.45 Q1740.7 1528.45 1742.53 1527.09 Q1744.35 1525.7 1744.35 1523.11 Q1744.35 1520.45 1742.46 1519.03 Q1740.58 1517.6 1737.06 1517.6 Q1735.14 1517.6 1732.94 1518.01 Q1730.74 1518.43 1728.1 1519.31 L1728.1 1515.14 Q1730.77 1514.4 1733.08 1514.03 Q1735.42 1513.66 1737.48 1513.66 Q1742.8 1513.66 1745.91 1516.09 Q1749.01 1518.5 1749.01 1522.62 Q1749.01 1525.49 1747.36 1527.48 Q1745.72 1529.45 1742.69 1530.21 Z" fill="#000000" fill-rule="nonzero" fill-opacity="1" /><path clip-path="url(#clip990)" d="M1768.68 1517.37 Q1765.07 1517.37 1763.24 1520.93 Q1761.44 1524.47 1761.44 1531.6 Q1761.44 1538.71 1763.24 1542.27 Q1765.07 1545.82 1768.68 1545.82 Q1772.32 1545.82 1774.12 1542.27 Q1775.95 1538.71 1775.95 1531.6 Q1775.95 1524.47 1774.12 1520.93 Q1772.32 1517.37 1768.68 1517.37 M1768.68 1513.66 Q1774.49 1513.66 1777.55 1518.27 Q1780.63 1522.85 1780.63 1531.6 Q1780.63 1540.33 1777.55 1544.94 Q1774.49 1549.52 1768.68 1549.52 Q1762.87 1549.52 1759.79 1544.94 Q1756.74 1540.33 1756.74 1531.6 Q1756.74 1522.85 1759.79 1518.27 Q1762.87 1513.66 1768.68 1513.66 Z" fill="#000000" fill-rule="nonzero" fill-opacity="1" /><path clip-path="url(#clip990)" d="M1798.84 1517.37 Q1795.23 1517.37 1793.41 1520.93 Q1791.6 1524.47 1791.6 1531.6 Q1791.6 1538.71 1793.41 1542.27 Q1795.23 1545.82 1798.84 1545.82 Q1802.48 1545.82 1804.28 1542.27 Q1806.11 1538.71 1806.11 1531.6 Q1806.11 1524.47 1804.28 1520.93 Q1802.48 1517.37 1798.84 1517.37 M1798.84 1513.66 Q1804.66 1513.66 1807.71 1518.27 Q1810.79 1522.85 1810.79 1531.6 Q1810.79 1540.33 1807.71 1544.94 Q1804.66 1549.52 1798.84 1549.52 Q1793.03 1549.52 1789.96 1544.94 Q1786.9 1540.33 1786.9 1531.6 Q1786.9 1522.85 1789.96 1518.27 Q1793.03 1513.66 1798.84 1513.66 Z" fill="#000000" fill-rule="nonzero" fill-opacity="1" /><path clip-path="url(#clip990)" d="M2263.43 1518.36 L2251.63 1536.81 L2263.43 1536.81 L2263.43 1518.36 M2262.21 1514.29 L2268.09 1514.29 L2268.09 1536.81 L2273.02 1536.81 L2273.02 1540.7 L2268.09 1540.7 L2268.09 1548.85 L2263.43 1548.85 L2263.43 1540.7 L2247.83 1540.7 L2247.83 1536.19 L2262.21 1514.29 Z" fill="#000000" fill-rule="nonzero" fill-opacity="1" /><path clip-path="url(#clip990)" d="M2290.75 1517.37 Q2287.14 1517.37 2285.31 1520.93 Q2283.5 1524.47 2283.5 1531.6 Q2283.5 1538.71 2285.31 1542.27 Q2287.14 1545.82 2290.75 1545.82 Q2294.38 1545.82 2296.19 1542.27 Q2298.02 1538.71 2298.02 1531.6 Q2298.02 1524.47 2296.19 1520.93 Q2294.38 1517.37 2290.75 1517.37 M2290.75 1513.66 Q2296.56 1513.66 2299.61 1518.27 Q2302.69 1522.85 2302.69 1531.6 Q2302.69 1540.33 2299.61 1544.94 Q2296.56 1549.52 2290.75 1549.52 Q2284.94 1549.52 2281.86 1544.94 Q2278.8 1540.33 2278.8 1531.6 Q2278.8 1522.85 2281.86 1518.27 Q2284.94 1513.66 2290.75 1513.66 Z" fill="#000000" fill-rule="nonzero" fill-opacity="1" /><path clip-path="url(#clip990)" d="M2320.91 1517.37 Q2317.3 1517.37 2315.47 1520.93 Q2313.66 1524.47 2313.66 1531.6 Q2313.66 1538.71 2315.47 1542.27 Q2317.3 1545.82 2320.91 1545.82 Q2324.54 1545.82 2326.35 1542.27 Q2328.18 1538.71 2328.18 1531.6 Q2328.18 1524.47 2326.35 1520.93 Q2324.54 1517.37 2320.91 1517.37 M2320.91 1513.66 Q2326.72 1513.66 2329.78 1518.27 Q2332.85 1522.85 2332.85 1531.6 Q2332.85 1540.33 2329.78 1544.94 Q2326.72 1549.52 2320.91 1549.52 Q2315.1 1549.52 2312.02 1544.94 Q2308.96 1540.33 2308.96 1531.6 Q2308.96 1522.85 2312.02 1518.27 Q2315.1 1513.66 2320.91 1513.66 Z" fill="#000000" fill-rule="nonzero" fill-opacity="1" /><polyline clip-path="url(#clip990)" style="stroke:#000000; stroke-linecap:round; stroke-linejoin:round; stroke-width:4; stroke-opacity:1; fill:none" points="147.478,1486.45 147.478,47.2441 "/>
<polyline clip-path="url(#clip990)" style="stroke:#000000; stroke-linecap:round; stroke-linejoin:round; stroke-width:4; stroke-opacity:1; fill:none" points="147.478,1472.27 166.376,1472.27 "/>
<polyline clip-path="url(#clip990)" style="stroke:#000000; stroke-linecap:round; stroke-linejoin:round; stroke-width:4; stroke-opacity:1; fill:none" points="147.478,1124.87 166.376,1124.87 "/>
<polyline clip-path="url(#clip990)" style="stroke:#000000; stroke-linecap:round; stroke-linejoin:round; stroke-width:4; stroke-opacity:1; fill:none" points="147.478,777.467 166.376,777.467 "/>
<polyline clip-path="url(#clip990)" style="stroke:#000000; stroke-linecap:round; stroke-linejoin:round; stroke-width:4; stroke-opacity:1; fill:none" points="147.478,430.065 166.376,430.065 "/>
<polyline clip-path="url(#clip990)" style="stroke:#000000; stroke-linecap:round; stroke-linejoin:round; stroke-width:4; stroke-opacity:1; fill:none" points="147.478,82.6631 166.376,82.6631 "/>
<path clip-path="url(#clip990)" d="M51.3625 1472.72 L81.0383 1472.72 L81.0383 1476.66 L51.3625 1476.66 L51.3625 1472.72 Z" fill="#000000" fill-rule="nonzero" fill-opacity="1" /><path clip-path="url(#clip990)" d="M95.1586 1485.62 L111.478 1485.62 L111.478 1489.55 L89.5336 1489.55 L89.5336 1485.62 Q92.1956 1482.86 96.7789 1478.23 Q101.385 1473.58 102.566 1472.24 Q104.811 1469.71 105.691 1467.98 Q106.594 1466.22 106.594 1464.53 Q106.594 1461.77 104.649 1460.04 Q102.728 1458.3 99.6261 1458.3 Q97.4271 1458.3 94.9734 1459.06 Q92.5428 1459.83 89.7651 1461.38 L89.7651 1456.66 Q92.5891 1455.52 95.0428 1454.94 Q97.4965 1454.37 99.5335 1454.37 Q104.904 1454.37 108.098 1457.05 Q111.293 1459.74 111.293 1464.23 Q111.293 1466.36 110.483 1468.28 Q109.696 1470.18 107.589 1472.77 Q107.01 1473.44 103.909 1476.66 Q100.807 1479.85 95.1586 1485.62 Z" fill="#000000" fill-rule="nonzero" fill-opacity="1" /><path clip-path="url(#clip990)" d="M50.9921 1125.32 L80.6679 1125.32 L80.6679 1129.26 L50.9921 1129.26 L50.9921 1125.32 Z" fill="#000000" fill-rule="nonzero" fill-opacity="1" /><path clip-path="url(#clip990)" d="M91.5706 1138.21 L99.2095 1138.21 L99.2095 1111.85 L90.8993 1113.51 L90.8993 1109.26 L99.1632 1107.59 L103.839 1107.59 L103.839 1138.21 L111.478 1138.21 L111.478 1142.15 L91.5706 1142.15 L91.5706 1138.21 Z" fill="#000000" fill-rule="nonzero" fill-opacity="1" /><path clip-path="url(#clip990)" d="M99.5335 763.266 Q95.9224 763.266 94.0937 766.83 Q92.2882 770.372 92.2882 777.502 Q92.2882 784.608 94.0937 788.173 Q95.9224 791.715 99.5335 791.715 Q103.168 791.715 104.973 788.173 Q106.802 784.608 106.802 777.502 Q106.802 770.372 104.973 766.83 Q103.168 763.266 99.5335 763.266 M99.5335 759.562 Q105.344 759.562 108.399 764.168 Q111.478 768.752 111.478 777.502 Q111.478 786.228 108.399 790.835 Q105.344 795.418 99.5335 795.418 Q93.7234 795.418 90.6447 790.835 Q87.5892 786.228 87.5892 777.502 Q87.5892 768.752 90.6447 764.168 Q93.7234 759.562 99.5335 759.562 Z" fill="#000000" fill-rule="nonzero" fill-opacity="1" /><path clip-path="url(#clip990)" d="M91.5706 443.41 L99.2095 443.41 L99.2095 417.044 L90.8993 418.711 L90.8993 414.452 L99.1632 412.785 L103.839 412.785 L103.839 443.41 L111.478 443.41 L111.478 447.345 L91.5706 447.345 L91.5706 443.41 Z" fill="#000000" fill-rule="nonzero" fill-opacity="1" /><path clip-path="url(#clip990)" d="M95.1586 96.0079 L111.478 96.0079 L111.478 99.9431 L89.5336 99.9431 L89.5336 96.0079 Q92.1956 93.2533 96.7789 88.6237 Q101.385 83.971 102.566 82.6284 Q104.811 80.1052 105.691 78.3691 Q106.594 76.6099 106.594 74.9201 Q106.594 72.1655 104.649 70.4294 Q102.728 68.6933 99.6261 68.6933 Q97.4271 68.6933 94.9734 69.4571 Q92.5428 70.221 89.7651 71.772 L89.7651 67.0498 Q92.5891 65.9155 95.0428 65.3368 Q97.4965 64.7581 99.5335 64.7581 Q104.904 64.7581 108.098 67.4433 Q111.293 70.1284 111.293 74.6192 Q111.293 76.7488 110.483 78.6701 Q109.696 80.5682 107.589 83.1608 Q107.01 83.8321 103.909 87.0496 Q100.807 90.2441 95.1586 96.0079 Z" fill="#000000" fill-rule="nonzero" fill-opacity="1" /><path clip-path="url(#clip992)" d="M209.891 771.882 L215.106 785.837 L220.32 815.009 L225.534 823.213 L230.748 818.734 L235.962 842.397 L241.176 830.596 L246.391 841.16 L251.605 854.305 L256.819 876.616 L262.033 888.174 L267.247 877.122 L272.461 923.858 L277.676 908.092 L282.89 927.403 L288.104 960.588 L293.318 970.989 L298.532 1020.48 L303.746 1059.9 L308.961 1091.93 L314.175 1080.71 L319.389 1126.41 L324.603 1118.49 L329.817 1109.87 L335.031 1100.72 L340.246 1114.21 L345.46 1122.72 L350.674 1151.14 L355.888 1156.65 L361.102 1159.63 L366.316 1150.31 L371.53 1162.26 L376.745 1157.35 L381.959 1176.73 L387.173 1169.39 L392.387 1181.72 L397.601 1187.74 L402.815 1202.88 L408.03 1225.14 L413.244 1228.63 L418.458 1229.3 L423.672 1261.99 L428.886 1304.7 L434.1 1327.02 L439.315 1335.22 L444.529 1348.55 L449.743 1350.03 L454.957 1344.46 L460.171 1350.67 L465.385 1383.44 L470.6 1397.24 L475.814 1410.14 L481.028 1418.32 L486.242 1411.35 L491.456 1443.23 L496.67 1444 L501.885 1445.72 L507.099 1442.75 L512.313 1442.75 L517.527 1442.35 L522.741 1444.52 L527.955 1444.57 L533.17 1431.59 L538.384 1430.74 L543.598 1415.31 L548.812 1417.83 L554.026 1419.19 L559.24 1400.32 L564.455 1398.57 L569.669 1356.57 L574.883 1363.83 L580.097 1333.68 L585.311 1324.58 L590.525 1300.36 L595.739 1303 L600.954 1290.08 L606.168 1265.83 L611.382 1266.37 L616.596 1248.91 L621.81 1231.06 L627.024 1224.78 L632.239 1243.53 L637.453 1191.81 L642.667 1197.34 L647.881 1174.52 L653.095 1141.79 L658.309 1131.12 L663.524 1134.86 L668.738 1141.56 L673.952 1130.9 L679.166 1137.71 L684.38 1115.21 L689.594 1110.14 L694.809 1118.1 L700.023 1103.7 L705.237 1095.4 L710.451 1080.88 L715.665 1071.86 L720.879 1060.37 L726.094 1053.57 L731.308 1036.68 L736.522 1025.69 L741.736 1020.99 L746.95 1005.27 L752.164 998.032 L757.379 984.123 L762.593 957.378 L767.807 912.083 L773.021 913.163 L778.235 886.294 L783.449 842.026 L788.664 841.058 L793.878 821.425 L799.092 819.066 L804.306 833.24 L809.52 806.395 L814.734 787.902 L819.948 795.243 L825.163 797.179 L830.377 806.974 L835.591 783.172 L840.805 787.978 L846.019 815.108 L851.233 792.591 L856.448 783.847 L861.662 787.079 L866.876 797.353 L872.09 757.984 L877.304 768.747 L882.518 747.572 L887.733 724.445 L892.947 737.783 L898.161 726.097 L903.375 732.294 L908.589 718.886 L913.803 743.117 L919.018 709.928 L924.232 682.284 L929.446 678.41 L934.66 663.836 L939.874 664.326 L945.088 640.944 L950.303 615.852 L955.517 590.169 L960.731 592.463 L965.945 575.022 L971.159 557.658 L976.373 560.266 L981.588 552.214 L986.802 531.375 L992.016 530.855 L997.23 506.078 L1002.44 514.118 L1007.66 525.98 L1012.87 488.665 L1018.09 466.635 L1023.3 463.547 L1028.51 447.382 L1033.73 450.003 L1038.94 422.949 L1044.16 416.967 L1049.37 400.917 L1054.59 375.604 L1059.8 351.864 L1065.01 343.117 L1070.23 338.466 L1075.44 327.414 L1080.66 314.81 L1085.87 319.526 L1091.08 312.603 L1096.3 281.262 L1101.51 283.908 L1106.73 277.365 L1111.94 240.639 L1117.16 235.854 L1122.37 224.208 L1127.58 217.718 L1132.8 209.372 L1138.01 201.994 L1143.23 201.888 L1148.44 203.375 L1153.65 205.386 L1158.87 205.103 L1164.08 205.203 L1169.3 214.385 L1174.51 215.195 L1179.73 251.233 L1184.94 272.518 L1190.15 282.441 L1195.37 281.193 L1200.58 288.215 L1205.8 327.37 L1211.01 318.024 L1216.22 334.243 L1221.44 328.742 L1226.65 362.086 L1231.87 357.717 L1237.08 364.776 L1242.3 384.241 L1247.51 395.668 L1252.72 407.209 L1257.94 428.005 L1263.15 411.813 L1268.37 441.904 L1273.58 462.067 L1278.79 470.738 L1284.01 466.419 L1289.22 500.271 L1294.44 515.817 L1299.65 512.861 L1304.87 536.667 L1310.08 553.67 L1315.29 588.189 L1320.51 601.952 L1325.72 602.392 L1330.94 607.752 L1336.15 597.832 L1341.36 581.391 L1346.58 578.195 L1351.79 583.29 L1357.01 602.019 L1362.22 602.295 L1367.44 615.029 L1372.65 608.553 L1377.86 637.067 L1383.08 635.248 L1388.29 656.866 L1393.51 692.882 L1398.72 718.601 L1403.93 747.925 L1409.15 757.389 L1414.36 773.861 L1419.58 738.968 L1424.79 761.128 L1430.01 761.014 L1435.22 773.617 L1440.43 801.619 L1445.65 801.173 L1450.86 810.794 L1456.08 810.211 L1461.29 808.093 L1466.5 811.189 L1471.72 788.67 L1476.93 802.802 L1482.15 806.128 L1487.36 786.014 L1492.58 813.933 L1497.79 832.684 L1503 817.804 L1508.22 831.415 L1513.43 831.837 L1518.65 862.628 L1523.86 872.477 L1529.07 869.9 L1534.29 861.338 L1539.5 846.822 L1544.72 854.735 L1549.93 870.348 L1555.15 889.555 L1560.36 919.131 L1565.57 945.985 L1570.79 931.245 L1576 967.856 L1581.22 1004.55 L1586.43 1015.31 L1591.64 1042.43 L1596.86 1049.26 L1602.07 1068.02 L1607.29 1091.1 L1612.5 1118.48 L1617.72 1120.83 L1622.93 1141.37 L1628.14 1139.67 L1633.36 1173.36 L1638.57 1173.87 L1643.79 1161.17 L1649 1192.54 L1654.21 1188.78 L1659.43 1206.17 L1664.64 1206.4 L1669.86 1225.41 L1675.07 1224.85 L1680.29 1242.36 L1685.5 1229.38 L1690.71 1249.74 L1695.93 1269.95 L1701.14 1310.75 L1706.36 1316.31 L1711.57 1326.52 L1716.78 1336.25 L1722 1339.74 L1727.21 1351.44 L1732.43 1352.05 L1737.64 1378.6 L1742.86 1390.27 L1748.07 1367.69 L1753.28 1379.47 L1758.5 1392.99 L1763.71 1409.72 L1768.93 1400.21 L1774.14 1425.75 L1779.35 1437.65 L1784.57 1437.53 L1789.78 1443.42 L1795 1436.39 L1800.21 1441.85 L1805.43 1443.99 L1810.64 1442.41 L1815.85 1440.12 L1821.07 1431.75 L1826.28 1432.38 L1831.5 1419.63 L1836.71 1421.15 L1841.92 1380.83 L1847.14 1364.03 L1852.35 1369.93 L1857.57 1352.89 L1862.78 1347.09 L1868 1330.04 L1873.21 1320.37 L1878.42 1305.21 L1883.64 1318.69 L1888.85 1300.64 L1894.07 1286 L1899.28 1269.66 L1904.49 1251.18 L1909.71 1228 L1914.92 1233.25 L1920.14 1213.95 L1925.35 1213.33 L1930.57 1207.64 L1935.78 1176.18 L1940.99 1159.31 L1946.21 1141.84 L1951.42 1167.99 L1956.64 1169.91 L1961.85 1139.71 L1967.06 1146.49 L1972.28 1128.06 L1977.49 1096.86 L1982.71 1092.23 L1987.92 1105.18 L1993.14 1110.4 L1998.35 1103.87 L2003.56 1097.89 L2008.78 1062.74 L2013.99 1056.63 L2019.21 1039.38 L2024.42 1032.91 L2029.63 1033.27 L2034.85 1024.74 L2040.06 1037.83 L2045.28 1039.79 L2050.49 1021.29 L2055.71 1001.83 L2060.92 967.175 L2066.13 989.22 L2071.35 943.19 L2076.56 937.334 L2081.78 868.62 L2086.99 858.505 L2092.2 849.661 L2097.42 841.584 L2102.63 820.699 L2107.85 811.783 L2113.06 820.221 L2118.28 815.632 L2123.49 816.554 L2128.7 812.815 L2133.92 811.415 L2139.13 784.176 L2144.35 777.722 L2149.56 759.01 L2154.77 744.168 L2159.99 738.56 L2165.2 752.678 L2170.42 758.042 L2175.63 761.166 L2180.84 742.777 L2186.06 751.082 L2191.27 744.386 L2196.49 716.424 L2201.7 732.369 L2206.92 728.766 L2212.13 707.633 L2217.34 711.951 L2222.56 689.311 L2227.77 696.97 L2232.99 670.361 L2238.2 637.64 L2243.41 643.38 L2248.63 642.095 L2253.84 616.898 L2259.06 596.803 L2264.27 612.837 L2269.49 618.727 L2274.7 630.167 L2279.91 604.193 L2285.13 554.755 L2290.34 522.604 L2290.34 408.692 L2285.13 440.844 L2279.91 490.281 L2274.7 516.256 L2269.49 504.815 L2264.27 498.925 L2259.06 482.891 L2253.84 502.987 L2248.63 528.183 L2243.41 529.469 L2238.2 523.728 L2232.99 556.449 L2227.77 583.058 L2222.56 575.399 L2217.34 598.039 L2212.13 593.722 L2206.92 614.854 L2201.7 618.457 L2196.49 602.512 L2191.27 630.474 L2186.06 637.17 L2180.84 628.865 L2175.63 647.255 L2170.42 644.13 L2165.2 638.766 L2159.99 624.649 L2154.77 630.256 L2149.56 645.099 L2144.35 663.81 L2139.13 670.264 L2133.92 697.504 L2128.7 698.903 L2123.49 702.642 L2118.28 701.721 L2113.06 706.309 L2107.85 697.871 L2102.63 706.787 L2097.42 727.672 L2092.2 735.75 L2086.99 744.593 L2081.78 754.709 L2076.56 823.422 L2071.35 829.278 L2066.13 875.308 L2060.92 853.263 L2055.71 887.913 L2050.49 907.379 L2045.28 925.881 L2040.06 923.918 L2034.85 910.826 L2029.63 919.358 L2024.42 918.995 L2019.21 925.472 L2013.99 942.722 L2008.78 948.823 L2003.56 983.976 L1998.35 989.961 L1993.14 996.488 L1987.92 991.266 L1982.71 978.314 L1977.49 982.953 L1972.28 1014.14 L1967.06 1032.58 L1961.85 1025.8 L1956.64 1056 L1951.42 1054.08 L1946.21 1027.93 L1940.99 1045.4 L1935.78 1062.27 L1930.57 1093.73 L1925.35 1099.42 L1920.14 1100.04 L1914.92 1119.34 L1909.71 1114.09 L1904.49 1137.27 L1899.28 1155.74 L1894.07 1172.09 L1888.85 1186.73 L1883.64 1204.78 L1878.42 1191.3 L1873.21 1206.46 L1868 1216.13 L1862.78 1233.18 L1857.57 1238.97 L1852.35 1256.01 L1847.14 1250.11 L1841.92 1266.92 L1836.71 1307.24 L1831.5 1305.72 L1826.28 1318.46 L1821.07 1317.84 L1815.85 1326.21 L1810.64 1328.49 L1805.43 1330.08 L1800.21 1327.94 L1795 1322.47 L1789.78 1329.51 L1784.57 1323.62 L1779.35 1323.74 L1774.14 1311.84 L1768.93 1286.29 L1763.71 1295.81 L1758.5 1279.08 L1753.28 1265.56 L1748.07 1253.78 L1742.86 1276.36 L1737.64 1264.69 L1732.43 1238.14 L1727.21 1237.53 L1722 1225.83 L1716.78 1222.34 L1711.57 1212.61 L1706.36 1202.39 L1701.14 1196.84 L1695.93 1156.04 L1690.71 1135.82 L1685.5 1115.47 L1680.29 1128.45 L1675.07 1110.93 L1669.86 1111.5 L1664.64 1092.49 L1659.43 1092.26 L1654.21 1074.87 L1649 1078.62 L1643.79 1047.25 L1638.57 1059.95 L1633.36 1059.45 L1628.14 1025.76 L1622.93 1027.46 L1617.72 1006.92 L1612.5 1004.56 L1607.29 977.185 L1602.07 954.104 L1596.86 935.344 L1591.64 928.514 L1586.43 901.401 L1581.22 890.635 L1576 853.945 L1570.79 817.333 L1565.57 832.073 L1560.36 805.22 L1555.15 775.643 L1549.93 756.436 L1544.72 740.823 L1539.5 732.91 L1534.29 747.426 L1529.07 755.989 L1523.86 758.565 L1518.65 748.717 L1513.43 717.925 L1508.22 717.503 L1503 703.893 L1497.79 718.773 L1492.58 700.021 L1487.36 672.102 L1482.15 692.216 L1476.93 688.89 L1471.72 674.758 L1466.5 697.277 L1461.29 694.181 L1456.08 696.299 L1450.86 696.882 L1445.65 687.261 L1440.43 687.708 L1435.22 659.705 L1430.01 647.102 L1424.79 647.216 L1419.58 625.057 L1414.36 659.949 L1409.15 643.478 L1403.93 634.013 L1398.72 604.689 L1393.51 578.97 L1388.29 542.955 L1383.08 521.336 L1377.86 523.155 L1372.65 494.641 L1367.44 501.118 L1362.22 488.383 L1357.01 488.108 L1351.79 469.378 L1346.58 464.284 L1341.36 467.48 L1336.15 483.92 L1330.94 493.841 L1325.72 488.48 L1320.51 488.04 L1315.29 474.277 L1310.08 439.758 L1304.87 422.756 L1299.65 398.949 L1294.44 401.905 L1289.22 386.359 L1284.01 352.507 L1278.79 356.827 L1273.58 348.156 L1268.37 327.992 L1263.15 297.901 L1257.94 314.093 L1252.72 293.297 L1247.51 281.757 L1242.3 270.329 L1237.08 250.864 L1231.87 243.805 L1226.65 248.174 L1221.44 214.83 L1216.22 220.332 L1211.01 204.112 L1205.8 213.458 L1200.58 174.303 L1195.37 167.281 L1190.15 168.529 L1184.94 158.606 L1179.73 137.321 L1174.51 101.283 L1169.3 100.474 L1164.08 91.2912 L1158.87 91.191 L1153.65 91.4739 L1148.44 89.4632 L1143.23 87.9763 L1138.01 88.0822 L1132.8 95.4599 L1127.58 103.806 L1122.37 110.296 L1117.16 121.942 L1111.94 126.727 L1106.73 163.453 L1101.51 169.996 L1096.3 167.35 L1091.08 198.691 L1085.87 205.614 L1080.66 200.898 L1075.44 213.502 L1070.23 224.554 L1065.01 229.206 L1059.8 237.953 L1054.59 261.692 L1049.37 287.005 L1044.16 303.056 L1038.94 309.038 L1033.73 336.091 L1028.51 333.47 L1023.3 349.635 L1018.09 352.724 L1012.87 374.754 L1007.66 412.068 L1002.44 400.206 L997.23 392.167 L992.016 416.943 L986.802 417.464 L981.588 438.303 L976.373 446.354 L971.159 443.746 L965.945 461.11 L960.731 478.551 L955.517 476.257 L950.303 501.94 L945.088 527.032 L939.874 550.414 L934.66 549.925 L929.446 564.498 L924.232 568.372 L919.018 596.016 L913.803 629.206 L908.589 604.975 L903.375 618.382 L898.161 612.185 L892.947 623.871 L887.733 610.533 L882.518 633.66 L877.304 654.835 L872.09 644.072 L866.876 683.442 L861.662 673.167 L856.448 669.936 L851.233 678.68 L846.019 701.197 L840.805 674.066 L835.591 669.26 L830.377 693.063 L825.163 683.267 L819.948 681.331 L814.734 673.99 L809.52 692.483 L804.306 719.328 L799.092 705.155 L793.878 707.513 L788.664 727.146 L783.449 728.114 L778.235 772.382 L773.021 799.251 L767.807 798.172 L762.593 843.466 L757.379 870.211 L752.164 884.121 L746.95 891.355 L741.736 907.079 L736.522 911.781 L731.308 922.768 L726.094 939.654 L720.879 946.459 L715.665 957.952 L710.451 966.968 L705.237 981.49 L700.023 989.79 L694.809 1004.19 L689.594 996.225 L684.38 1001.3 L679.166 1023.79 L673.952 1016.98 L668.738 1027.65 L663.524 1020.95 L658.309 1017.2 L653.095 1027.87 L647.881 1060.6 L642.667 1083.42 L637.453 1077.9 L632.239 1129.62 L627.024 1110.87 L621.81 1117.14 L616.596 1135 L611.382 1152.45 L606.168 1151.91 L600.954 1176.17 L595.739 1189.09 L590.525 1186.45 L585.311 1210.67 L580.097 1219.76 L574.883 1249.92 L569.669 1242.66 L564.455 1284.66 L559.24 1286.41 L554.026 1305.28 L548.812 1303.92 L543.598 1301.4 L538.384 1316.83 L533.17 1317.68 L527.955 1330.65 L522.741 1330.61 L517.527 1328.44 L512.313 1328.84 L507.099 1328.84 L501.885 1331.8 L496.67 1330.09 L491.456 1329.32 L486.242 1297.44 L481.028 1304.41 L475.814 1296.23 L470.6 1283.32 L465.385 1269.53 L460.171 1236.76 L454.957 1230.54 L449.743 1236.11 L444.529 1234.64 L439.315 1221.31 L434.1 1213.11 L428.886 1190.79 L423.672 1148.08 L418.458 1115.39 L413.244 1114.72 L408.03 1111.23 L402.815 1088.96 L397.601 1073.83 L392.387 1067.81 L387.173 1055.47 L381.959 1062.82 L376.745 1043.44 L371.53 1048.34 L366.316 1036.4 L361.102 1045.72 L355.888 1042.74 L350.674 1037.23 L345.46 1008.81 L340.246 1000.3 L335.031 986.811 L329.817 995.962 L324.603 1004.58 L319.389 1012.5 L314.175 966.795 L308.961 978.023 L303.746 945.992 L298.532 906.571 L293.318 857.078 L288.104 846.677 L282.89 813.491 L277.676 794.18 L272.461 809.946 L267.247 763.21 L262.033 774.262 L256.819 762.705 L251.605 740.394 L246.391 727.248 L241.176 716.684 L235.962 728.486 L230.748 704.823 L225.534 709.301 L220.32 701.097 L215.106 671.925 L209.891 657.97  Z" fill="#0000ff" fill-rule="evenodd" fill-opacity="0.5"/>
<polyline clip-path="url(#clip992)" style="stroke:#0000ff; stroke-linecap:round; stroke-linejoin:round; stroke-width:8; stroke-opacity:1; fill:none" points="209.891,714.926 215.106,728.881 220.32,758.053 225.534,766.257 230.748,761.778 235.962,785.441 241.176,773.64 246.391,784.204 251.605,797.35 256.819,819.66 262.033,831.218 267.247,820.166 272.461,866.902 277.676,851.136 282.89,870.447 288.104,903.632 293.318,914.034 298.532,963.527 303.746,1002.95 308.961,1034.98 314.175,1023.75 319.389,1069.45 324.603,1061.53 329.817,1052.92 335.031,1043.77 340.246,1057.26 345.46,1065.77 350.674,1094.19 355.888,1099.7 361.102,1102.68 366.316,1093.35 371.53,1105.3 376.745,1100.39 381.959,1119.78 387.173,1112.43 392.387,1124.76 397.601,1130.79 402.815,1145.92 408.03,1168.18 413.244,1171.68 418.458,1172.34 423.672,1205.04 428.886,1247.74 434.1,1270.06 439.315,1278.27 444.529,1291.6 449.743,1293.07 454.957,1287.5 460.171,1293.71 465.385,1326.49 470.6,1340.28 475.814,1353.19 481.028,1361.36 486.242,1354.39 491.456,1386.27 496.67,1387.05 501.885,1388.76 507.099,1385.8 512.313,1385.8 517.527,1385.4 522.741,1387.56 527.955,1387.61 533.17,1374.64 538.384,1373.78 543.598,1358.36 548.812,1360.87 554.026,1362.23 559.24,1343.36 564.455,1341.61 569.669,1299.62 574.883,1306.88 580.097,1276.72 585.311,1267.63 590.525,1243.41 595.739,1246.05 600.954,1233.13 606.168,1208.87 611.382,1209.41 616.596,1191.96 621.81,1174.1 627.024,1167.82 632.239,1186.58 637.453,1134.85 642.667,1140.38 647.881,1117.56 653.095,1084.83 658.309,1074.16 663.524,1077.9 668.738,1084.61 673.952,1073.94 679.166,1080.75 684.38,1058.26 689.594,1053.18 694.809,1061.14 700.023,1046.75 705.237,1038.45 710.451,1023.92 715.665,1014.91 720.879,1003.42 726.094,996.61 731.308,979.724 736.522,968.737 741.736,964.035 746.95,948.311 752.164,941.077 757.379,927.167 762.593,900.422 767.807,855.127 773.021,856.207 778.235,829.338 783.449,785.07 788.664,784.102 793.878,764.469 799.092,762.111 804.306,776.284 809.52,749.439 814.734,730.946 819.948,738.287 825.163,740.223 830.377,750.019 835.591,726.216 840.805,731.022 846.019,758.152 851.233,735.635 856.448,726.891 861.662,730.123 866.876,740.398 872.09,701.028 877.304,711.791 882.518,690.616 887.733,667.489 892.947,680.827 898.161,669.141 903.375,675.338 908.589,661.931 913.803,686.162 919.018,652.972 924.232,625.328 929.446,621.454 934.66,606.88 939.874,607.37 945.088,583.988 950.303,558.896 955.517,533.213 960.731,535.507 965.945,518.066 971.159,500.702 976.373,503.31 981.588,495.259 986.802,474.42 992.016,473.899 997.23,449.122 1002.44,457.162 1007.66,469.024 1012.87,431.709 1018.09,409.68 1023.3,406.591 1028.51,390.426 1033.73,393.047 1038.94,365.993 1044.16,360.012 1049.37,343.961 1054.59,318.648 1059.8,294.908 1065.01,286.161 1070.23,281.51 1075.44,270.458 1080.66,257.854 1085.87,262.57 1091.08,255.647 1096.3,224.306 1101.51,226.952 1106.73,220.409 1111.94,183.683 1117.16,178.898 1122.37,167.252 1127.58,160.762 1132.8,152.416 1138.01,145.038 1143.23,144.932 1148.44,146.419 1153.65,148.43 1158.87,148.147 1164.08,148.247 1169.3,157.429 1174.51,158.239 1179.73,194.277 1184.94,215.562 1190.15,225.485 1195.37,224.237 1200.58,231.259 1205.8,270.414 1211.01,261.068 1216.22,277.287 1221.44,271.786 1226.65,305.13 1231.87,300.761 1237.08,307.82 1242.3,327.285 1247.51,338.712 1252.72,350.253 1257.94,371.049 1263.15,354.857 1268.37,384.948 1273.58,405.112 1278.79,413.783 1284.01,409.463 1289.22,443.315 1294.44,458.861 1299.65,455.905 1304.87,479.712 1310.08,496.714 1315.29,531.233 1320.51,544.996 1325.72,545.436 1330.94,550.797 1336.15,540.876 1341.36,524.436 1346.58,521.24 1351.79,526.334 1357.01,545.063 1362.22,545.339 1367.44,558.073 1372.65,551.597 1377.86,580.111 1383.08,578.292 1388.29,599.91 1393.51,635.926 1398.72,661.645 1403.93,690.969 1409.15,700.433 1414.36,716.905 1419.58,682.013 1424.79,704.172 1430.01,704.058 1435.22,716.661 1440.43,744.663 1445.65,744.217 1450.86,753.838 1456.08,753.255 1461.29,751.137 1466.5,754.233 1471.72,731.714 1476.93,745.846 1482.15,749.172 1487.36,729.058 1492.58,756.977 1497.79,775.729 1503,760.848 1508.22,774.459 1513.43,774.881 1518.65,805.672 1523.86,815.521 1529.07,812.944 1534.29,804.382 1539.5,789.866 1544.72,797.779 1549.93,813.392 1555.15,832.599 1560.36,862.175 1565.57,889.029 1570.79,874.289 1576,910.901 1581.22,947.591 1586.43,958.357 1591.64,985.47 1596.86,992.3 1602.07,1011.06 1607.29,1034.14 1612.5,1061.52 1617.72,1063.88 1622.93,1084.41 1628.14,1082.71 1633.36,1116.4 1638.57,1116.91 1643.79,1104.21 1649,1135.58 1654.21,1131.82 1659.43,1149.21 1664.64,1149.44 1669.86,1168.46 1675.07,1167.89 1680.29,1185.41 1685.5,1172.42 1690.71,1192.78 1695.93,1213 1701.14,1253.79 1706.36,1259.35 1711.57,1269.56 1716.78,1279.29 1722,1282.79 1727.21,1294.48 1732.43,1295.09 1737.64,1321.65 1742.86,1333.32 1748.07,1310.73 1753.28,1322.52 1758.5,1336.03 1763.71,1352.77 1768.93,1343.25 1774.14,1368.79 1779.35,1380.7 1784.57,1380.57 1789.78,1386.46 1795,1379.43 1800.21,1384.9 1805.43,1387.03 1810.64,1385.45 1815.85,1383.17 1821.07,1374.8 1826.28,1375.42 1831.5,1362.68 1836.71,1364.19 1841.92,1323.88 1847.14,1307.07 1852.35,1312.97 1857.57,1295.93 1862.78,1290.13 1868,1273.09 1873.21,1263.42 1878.42,1248.25 1883.64,1261.73 1888.85,1243.68 1894.07,1229.04 1899.28,1212.7 1904.49,1194.23 1909.71,1171.05 1914.92,1176.29 1920.14,1156.99 1925.35,1156.37 1930.57,1150.69 1935.78,1119.22 1940.99,1102.35 1946.21,1084.89 1951.42,1111.04 1956.64,1112.96 1961.85,1082.76 1967.06,1089.53 1972.28,1071.1 1977.49,1039.91 1982.71,1035.27 1987.92,1048.22 1993.14,1053.44 1998.35,1046.92 2003.56,1040.93 2008.78,1005.78 2013.99,999.678 2019.21,982.428 2024.42,975.951 2029.63,976.314 2034.85,967.782 2040.06,980.874 2045.28,982.837 2050.49,964.335 2055.71,944.869 2060.92,910.219 2066.13,932.264 2071.35,886.234 2076.56,880.378 2081.78,811.664 2086.99,801.549 2092.2,792.706 2097.42,784.628 2102.63,763.743 2107.85,754.827 2113.06,763.265 2118.28,758.676 2123.49,759.598 2128.7,755.859 2133.92,754.459 2139.13,727.22 2144.35,720.766 2149.56,702.054 2154.77,687.212 2159.99,681.604 2165.2,695.722 2170.42,701.086 2175.63,704.21 2180.84,685.821 2186.06,694.126 2191.27,687.43 2196.49,659.468 2201.7,675.413 2206.92,671.81 2212.13,650.677 2217.34,654.995 2222.56,632.355 2227.77,640.014 2232.99,613.405 2238.2,580.684 2243.41,586.425 2248.63,585.139 2253.84,559.942 2259.06,539.847 2264.27,555.881 2269.49,561.771 2274.7,573.212 2279.91,547.237 2285.13,497.8 2290.34,465.648 "/>
<polyline clip-path="url(#clip992)" style="stroke:#000000; stroke-linecap:round; stroke-linejoin:round; stroke-width:8; stroke-opacity:1; fill:none" stroke-dasharray="32, 20" points="209.891,815.579 215.106,831.895 220.32,848.188 225.534,864.409 230.748,880.518 235.962,896.501 241.176,912.418 246.391,928.273 251.605,943.936 256.819,959.486 262.033,974.915 267.247,990.164 272.461,1005.21 277.676,1020.06 282.89,1034.71 288.104,1049.14 293.318,1063.32 298.532,1077.26 303.746,1090.92 308.961,1104.31 314.175,1117.43 319.389,1130.21 324.603,1142.75 329.817,1155.02 335.031,1166.96 340.246,1178.57 345.46,1189.86 350.674,1200.84 355.888,1211.49 361.102,1221.8 366.316,1231.77 371.53,1241.43 376.745,1250.84 381.959,1259.92 387.173,1268.7 392.387,1277.15 397.601,1285.22 402.815,1292.96 408.03,1300.39 413.244,1307.48 418.458,1314.2 423.672,1320.52 428.886,1326.45 434.1,1332.01 439.315,1337.25 444.529,1342.14 449.743,1346.71 454.957,1350.96 460.171,1354.84 465.385,1358.39 470.6,1361.56 475.814,1364.39 481.028,1366.88 486.242,1369 491.456,1370.81 496.67,1372.28 501.885,1373.42 507.099,1374.24 512.313,1374.7 517.527,1374.82 522.741,1374.6 527.955,1374.04 533.17,1373.14 538.384,1371.84 543.598,1370.19 548.812,1368.15 554.026,1365.75 559.24,1363.03 564.455,1359.95 569.669,1356.5 574.883,1352.68 580.097,1348.49 585.311,1343.97 590.525,1339.11 595.739,1333.88 600.954,1328.33 606.168,1322.47 611.382,1316.3 616.596,1309.77 621.81,1302.82 627.024,1295.5 632.239,1287.85 637.453,1279.81 642.667,1271.45 647.881,1262.71 653.095,1253.65 658.309,1244.25 663.524,1234.5 668.738,1224.4 673.952,1214.01 679.166,1203.34 684.38,1192.37 689.594,1181.05 694.809,1169.45 700.023,1157.56 705.237,1145.34 710.451,1132.81 715.665,1120 720.879,1106.87 726.094,1093.41 731.308,1079.68 736.522,1065.71 741.736,1051.51 746.95,1037.04 752.164,1022.29 757.379,1007.36 762.593,992.244 767.807,976.916 773.021,961.407 778.235,945.699 783.449,929.807 788.664,913.769 793.878,897.544 799.092,881.196 804.306,864.766 809.52,848.259 814.734,831.682 819.948,815.007 825.163,798.304 830.377,781.558 835.591,764.79 840.805,748.038 846.019,731.321 851.233,714.662 856.448,698.065 861.662,681.499 866.876,664.949 872.09,648.521 877.304,632.196 882.518,615.975 887.733,599.963 892.947,584.148 898.161,568.557 903.375,553.162 908.589,537.971 913.803,522.968 919.018,508.14 924.232,493.526 929.446,479.162 934.66,465.051 939.874,451.208 945.088,437.669 950.303,424.421 955.517,411.489 960.731,398.857 965.945,386.526 971.159,374.506 976.373,362.8 981.588,351.384 986.802,340.301 992.016,329.514 997.23,319.038 1002.44,308.883 1007.66,299.076 1012.87,289.641 1018.09,280.585 1023.3,271.876 1028.51,263.536 1033.73,255.547 1038.94,247.966 1044.16,240.693 1049.37,233.729 1054.59,227.095 1059.8,220.798 1065.01,214.856 1070.23,209.288 1075.44,204.101 1080.66,199.227 1085.87,194.67 1091.08,190.461 1096.3,186.6 1101.51,183.068 1106.73,179.878 1111.94,176.999 1117.16,174.458 1122.37,172.248 1127.58,170.393 1132.8,168.91 1138.01,167.791 1143.23,167.028 1148.44,166.599 1153.65,166.486 1158.87,166.684 1164.08,167.25 1169.3,168.266 1174.51,169.663 1179.73,171.384 1184.94,173.377 1190.15,175.676 1195.37,178.319 1200.58,181.254 1205.8,184.534 1211.01,188.177 1216.22,192.193 1221.44,196.516 1226.65,201.165 1231.87,206.122 1237.08,211.445 1242.3,217.097 1247.51,223.047 1252.72,229.327 1257.94,235.88 1263.15,242.746 1268.37,250.011 1273.58,257.629 1278.79,265.589 1284.01,273.893 1289.22,282.514 1294.44,291.431 1299.65,300.733 1304.87,310.417 1310.08,320.484 1315.29,330.86 1320.51,341.551 1325.72,352.573 1330.94,363.922 1336.15,375.583 1341.36,387.576 1346.58,399.85 1351.79,412.44 1357.01,425.385 1362.22,438.669 1367.44,452.249 1372.65,466.085 1377.86,480.249 1383.08,494.687 1388.29,509.384 1393.51,524.322 1398.72,539.521 1403.93,554.925 1409.15,570.545 1414.36,586.341 1419.58,602.306 1424.79,618.451 1430.01,634.757 1435.22,651.194 1440.43,667.798 1445.65,684.527 1450.86,701.34 1456.08,718.241 1461.29,735.268 1466.5,752.388 1471.72,769.571 1476.93,786.804 1482.15,804.037 1487.36,821.285 1492.58,838.515 1497.79,855.718 1503,872.836 1508.22,889.845 1513.43,906.747 1518.65,923.506 1523.86,940.171 1529.07,956.72 1534.29,973.144 1539.5,989.342 1544.72,1005.34 1549.93,1021.15 1555.15,1036.75 1560.36,1052.13 1565.57,1067.23 1570.79,1082.08 1576,1096.7 1581.22,1111.14 1586.43,1125.28 1591.64,1139.12 1596.86,1152.65 1602.07,1165.88 1607.29,1178.79 1612.5,1191.36 1617.72,1203.57 1622.93,1215.4 1628.14,1226.86 1633.36,1238 1638.57,1248.81 1643.79,1259.25 1649,1269.32 1654.21,1279.08 1659.43,1288.51 1664.64,1297.61 1669.86,1306.35 1675.07,1314.77 1680.29,1322.83 1685.5,1330.54 1690.71,1337.88 1695.93,1344.85 1701.14,1351.48 1706.36,1357.77 1711.57,1363.72 1716.78,1369.38 1722,1374.7 1727.21,1379.73 1732.43,1384.4 1737.64,1388.7 1742.86,1392.65 1748.07,1396.25 1753.28,1399.53 1758.5,1402.46 1763.71,1405.01 1768.93,1407.23 1774.14,1409.1 1779.35,1410.71 1784.57,1412.01 1789.78,1412.98 1795,1413.66 1800.21,1414.04 1805.43,1414.08 1810.64,1413.79 1815.85,1413.16 1821.07,1412.17 1826.28,1410.83 1831.5,1409.09 1836.71,1407.04 1841.92,1404.68 1847.14,1401.99 1852.35,1398.95 1857.57,1395.63 1862.78,1392.02 1868,1388.08 1873.21,1383.86 1878.42,1379.37 1883.64,1374.55 1888.85,1369.44 1894.07,1364.06 1899.28,1358.38 1904.49,1352.37 1909.71,1345.98 1914.92,1339.32 1920.14,1332.35 1925.35,1325.01 1930.57,1317.31 1935.78,1309.22 1940.99,1300.72 1946.21,1291.85 1951.42,1282.57 1956.64,1272.9 1961.85,1262.86 1967.06,1252.46 1972.28,1241.7 1977.49,1230.59 1982.71,1219.18 1987.92,1207.49 1993.14,1195.47 1998.35,1183.13 2003.56,1170.5 2008.78,1157.54 2013.99,1144.27 2019.21,1130.68 2024.42,1116.76 2029.63,1102.55 2034.85,1088.11 2040.06,1073.34 2045.28,1058.3 2050.49,1043 2055.71,1027.48 2060.92,1011.77 2066.13,995.867 2071.35,979.76 2076.56,963.45 2081.78,946.866 2086.99,930.096 2092.2,913.145 2097.42,896.052 2102.63,878.858 2107.85,861.587 2113.06,844.202 2118.28,826.736 2123.49,809.267 2128.7,791.77 2133.92,774.275 2139.13,756.775 2144.35,739.281 2149.56,721.839 2154.77,704.415 2159.99,687.049 2165.2,669.742 2170.42,652.551 2175.63,635.474 2180.84,618.539 2186.06,601.769 2191.27,585.218 2196.49,568.839 2201.7,552.606 2206.92,536.579 2212.13,520.742 2217.34,505.143 2222.56,489.795 2227.77,474.72 2232.99,459.891 2238.2,445.292 2243.41,430.969 2248.63,416.907 2253.84,403.185 2259.06,389.751 2264.27,376.598 2269.49,363.753 2274.7,351.242 2279.91,339.054 2285.13,327.16 2290.34,315.577 "/>
<path clip-path="url(#clip990)" d="M1384.88 222.884 L1863.79 222.884 L1863.79 67.3643 L1384.88 67.3643  Z" fill="#ffffff" fill-rule="evenodd" fill-opacity="1"/>
<polyline clip-path="url(#clip990)" style="stroke:#000000; stroke-linecap:round; stroke-linejoin:round; stroke-width:4; stroke-opacity:1; fill:none" points="1384.88,222.884 1863.79,222.884 1863.79,67.3643 1384.88,67.3643 1384.88,222.884 "/>
<polyline clip-path="url(#clip990)" style="stroke:#0000ff; stroke-linecap:round; stroke-linejoin:round; stroke-width:8; stroke-opacity:1; fill:none" points="1409.39,119.204 1556.41,119.204 "/>
<path clip-path="url(#clip990)" d="M1603.15 103.059 L1603.15 107.619 Q1600.49 106.346 1598.13 105.721 Q1595.77 105.096 1593.57 105.096 Q1589.75 105.096 1587.67 106.577 Q1585.61 108.059 1585.61 110.79 Q1585.61 113.082 1586.97 114.262 Q1588.36 115.42 1592.2 116.137 L1595.03 116.716 Q1600.26 117.711 1602.74 120.234 Q1605.24 122.734 1605.24 126.947 Q1605.24 131.97 1601.86 134.563 Q1598.5 137.156 1592 137.156 Q1589.54 137.156 1586.77 136.6 Q1584.01 136.044 1581.05 134.957 L1581.05 130.142 Q1583.89 131.739 1586.63 132.549 Q1589.36 133.359 1592 133.359 Q1596 133.359 1598.18 131.785 Q1600.35 130.211 1600.35 127.295 Q1600.35 124.748 1598.78 123.313 Q1597.23 121.878 1593.66 121.16 L1590.82 120.605 Q1585.58 119.563 1583.25 117.341 Q1580.91 115.119 1580.91 111.16 Q1580.91 106.577 1584.13 103.938 Q1587.37 101.299 1593.04 101.299 Q1595.47 101.299 1597.99 101.739 Q1600.51 102.179 1603.15 103.059 Z" fill="#000000" fill-rule="nonzero" fill-opacity="1" /><path clip-path="url(#clip990)" d="M1636.09 131.554 L1636.09 122.271 L1628.45 122.271 L1628.45 118.429 L1640.72 118.429 L1640.72 133.267 Q1638.01 135.188 1634.75 136.183 Q1631.49 137.156 1627.78 137.156 Q1619.68 137.156 1615.1 132.433 Q1610.54 127.688 1610.54 119.239 Q1610.54 110.767 1615.1 106.045 Q1619.68 101.299 1627.78 101.299 Q1631.16 101.299 1634.2 102.133 Q1637.25 102.966 1639.82 104.586 L1639.82 109.563 Q1637.23 107.364 1634.31 106.253 Q1631.39 105.142 1628.18 105.142 Q1621.83 105.142 1618.64 108.684 Q1615.47 112.225 1615.47 119.239 Q1615.47 126.23 1618.64 129.771 Q1621.83 133.313 1628.18 133.313 Q1630.65 133.313 1632.6 132.896 Q1634.54 132.457 1636.09 131.554 Z" fill="#000000" fill-rule="nonzero" fill-opacity="1" /><path clip-path="url(#clip990)" d="M1653.94 105.767 L1653.94 118.753 L1659.82 118.753 Q1663.08 118.753 1664.87 117.063 Q1666.65 115.373 1666.65 112.248 Q1666.65 109.146 1664.87 107.457 Q1663.08 105.767 1659.82 105.767 L1653.94 105.767 M1649.26 101.924 L1659.82 101.924 Q1665.63 101.924 1668.59 104.563 Q1671.58 107.179 1671.58 112.248 Q1671.58 117.364 1668.59 119.98 Q1665.63 122.595 1659.82 122.595 L1653.94 122.595 L1653.94 136.484 L1649.26 136.484 L1649.26 101.924 Z" fill="#000000" fill-rule="nonzero" fill-opacity="1" /><polyline clip-path="url(#clip990)" style="stroke:#000000; stroke-linecap:round; stroke-linejoin:round; stroke-width:8; stroke-opacity:1; fill:none" stroke-dasharray="32, 20" points="1409.39,171.044 1556.41,171.044 "/>
<path clip-path="url(#clip990)" d="M1580.91 153.764 L1610.14 153.764 L1610.14 157.699 L1597.88 157.699 L1597.88 188.324 L1593.18 188.324 L1593.18 157.699 L1580.91 157.699 L1580.91 153.764 Z" fill="#000000" fill-rule="nonzero" fill-opacity="1" /><path clip-path="url(#clip990)" d="M1622.53 166.38 Q1621.81 165.963 1620.95 165.778 Q1620.12 165.57 1619.1 165.57 Q1615.49 165.57 1613.55 167.931 Q1611.63 170.269 1611.63 174.667 L1611.63 188.324 L1607.34 188.324 L1607.34 162.398 L1611.63 162.398 L1611.63 166.426 Q1612.97 164.065 1615.12 162.931 Q1617.27 161.773 1620.35 161.773 Q1620.79 161.773 1621.33 161.843 Q1621.86 161.889 1622.51 162.005 L1622.53 166.38 Z" fill="#000000" fill-rule="nonzero" fill-opacity="1" /><path clip-path="url(#clip990)" d="M1626.56 178.093 L1626.56 162.398 L1630.82 162.398 L1630.82 177.931 Q1630.82 181.611 1632.25 183.463 Q1633.69 185.292 1636.56 185.292 Q1640.01 185.292 1642 183.093 Q1644.01 180.894 1644.01 177.097 L1644.01 162.398 L1648.27 162.398 L1648.27 188.324 L1644.01 188.324 L1644.01 184.343 Q1642.46 186.704 1640.4 187.861 Q1638.36 188.996 1635.65 188.996 Q1631.19 188.996 1628.87 186.218 Q1626.56 183.44 1626.56 178.093 M1637.27 161.773 L1637.27 161.773 Z" fill="#000000" fill-rule="nonzero" fill-opacity="1" /><path clip-path="url(#clip990)" d="M1679.22 174.297 L1679.22 176.38 L1659.64 176.38 Q1659.91 180.778 1662.27 183.093 Q1664.66 185.384 1668.89 185.384 Q1671.35 185.384 1673.64 184.783 Q1675.95 184.181 1678.22 182.977 L1678.22 187.005 Q1675.93 187.977 1673.52 188.486 Q1671.12 188.996 1668.64 188.996 Q1662.44 188.996 1658.8 185.384 Q1655.19 181.773 1655.19 175.616 Q1655.19 169.25 1658.62 165.523 Q1662.07 161.773 1667.9 161.773 Q1673.13 161.773 1676.16 165.153 Q1679.22 168.51 1679.22 174.297 M1674.96 173.047 Q1674.91 169.551 1672.99 167.468 Q1671.09 165.385 1667.95 165.385 Q1664.38 165.385 1662.23 167.398 Q1660.1 169.412 1659.77 173.07 L1674.96 173.047 Z" fill="#000000" fill-rule="nonzero" fill-opacity="1" /><path clip-path="url(#clip990)" d="M1717.81 163.162 L1717.81 167.19 Q1716 166.264 1714.06 165.801 Q1712.11 165.338 1710.03 165.338 Q1706.86 165.338 1705.26 166.311 Q1703.69 167.283 1703.69 169.227 Q1703.69 170.709 1704.82 171.565 Q1705.95 172.398 1709.38 173.162 L1710.84 173.486 Q1715.38 174.459 1717.27 176.241 Q1719.19 178 1719.19 181.172 Q1719.19 184.783 1716.32 186.889 Q1713.48 188.996 1708.48 188.996 Q1706.39 188.996 1704.13 188.579 Q1701.88 188.185 1699.38 187.375 L1699.38 182.977 Q1701.74 184.204 1704.03 184.829 Q1706.32 185.431 1708.57 185.431 Q1711.58 185.431 1713.2 184.412 Q1714.82 183.371 1714.82 181.496 Q1714.82 179.76 1713.64 178.834 Q1712.48 177.908 1708.52 177.051 L1707.04 176.704 Q1703.08 175.871 1701.32 174.158 Q1699.57 172.422 1699.57 169.412 Q1699.57 165.755 1702.16 163.764 Q1704.75 161.773 1709.52 161.773 Q1711.88 161.773 1713.96 162.121 Q1716.05 162.468 1717.81 163.162 Z" fill="#000000" fill-rule="nonzero" fill-opacity="1" /><path clip-path="url(#clip990)" d="M1730.19 155.037 L1730.19 162.398 L1738.96 162.398 L1738.96 165.709 L1730.19 165.709 L1730.19 179.783 Q1730.19 182.954 1731.05 183.857 Q1731.93 184.759 1734.59 184.759 L1738.96 184.759 L1738.96 188.324 L1734.59 188.324 Q1729.66 188.324 1727.78 186.496 Q1725.91 184.644 1725.91 179.783 L1725.91 165.709 L1722.78 165.709 L1722.78 162.398 L1725.91 162.398 L1725.91 155.037 L1730.19 155.037 Z" fill="#000000" fill-rule="nonzero" fill-opacity="1" /><path clip-path="url(#clip990)" d="M1756.35 175.292 Q1751.19 175.292 1749.19 176.472 Q1747.2 177.653 1747.2 180.5 Q1747.2 182.769 1748.69 184.111 Q1750.19 185.431 1752.76 185.431 Q1756.3 185.431 1758.43 182.931 Q1760.58 180.408 1760.58 176.241 L1760.58 175.292 L1756.35 175.292 M1764.84 173.533 L1764.84 188.324 L1760.58 188.324 L1760.58 184.389 Q1759.13 186.75 1756.95 187.884 Q1754.77 188.996 1751.63 188.996 Q1747.64 188.996 1745.28 186.773 Q1742.94 184.528 1742.94 180.778 Q1742.94 176.403 1745.86 174.181 Q1748.8 171.959 1754.61 171.959 L1760.58 171.959 L1760.58 171.542 Q1760.58 168.602 1758.64 167.005 Q1756.72 165.385 1753.22 165.385 Q1751 165.385 1748.89 165.917 Q1746.79 166.449 1744.84 167.514 L1744.84 163.579 Q1747.18 162.676 1749.38 162.236 Q1751.58 161.773 1753.66 161.773 Q1759.29 161.773 1762.07 164.69 Q1764.84 167.607 1764.84 173.533 Z" fill="#000000" fill-rule="nonzero" fill-opacity="1" /><path clip-path="url(#clip990)" d="M1777.83 155.037 L1777.83 162.398 L1786.6 162.398 L1786.6 165.709 L1777.83 165.709 L1777.83 179.783 Q1777.83 182.954 1778.69 183.857 Q1779.56 184.759 1782.23 184.759 L1786.6 184.759 L1786.6 188.324 L1782.23 188.324 Q1777.3 188.324 1775.42 186.496 Q1773.55 184.644 1773.55 179.783 L1773.55 165.709 L1770.42 165.709 L1770.42 162.398 L1773.55 162.398 L1773.55 155.037 L1777.83 155.037 Z" fill="#000000" fill-rule="nonzero" fill-opacity="1" /><path clip-path="url(#clip990)" d="M1814.38 174.297 L1814.38 176.38 L1794.8 176.38 Q1795.07 180.778 1797.44 183.093 Q1799.82 185.384 1804.06 185.384 Q1806.51 185.384 1808.8 184.783 Q1811.12 184.181 1813.38 182.977 L1813.38 187.005 Q1811.09 187.977 1808.69 188.486 Q1806.28 188.996 1803.8 188.996 Q1797.6 188.996 1793.96 185.384 Q1790.35 181.773 1790.35 175.616 Q1790.35 169.25 1793.78 165.523 Q1797.23 161.773 1803.06 161.773 Q1808.29 161.773 1811.32 165.153 Q1814.38 168.51 1814.38 174.297 M1810.12 173.047 Q1810.07 169.551 1808.15 167.468 Q1806.25 165.385 1803.11 165.385 Q1799.54 165.385 1797.39 167.398 Q1795.26 169.412 1794.94 173.07 L1810.12 173.047 Z" fill="#000000" fill-rule="nonzero" fill-opacity="1" /><path clip-path="url(#clip990)" d="M1837.9 163.162 L1837.9 167.19 Q1836.09 166.264 1834.15 165.801 Q1832.2 165.338 1830.12 165.338 Q1826.95 165.338 1825.35 166.311 Q1823.78 167.283 1823.78 169.227 Q1823.78 170.709 1824.91 171.565 Q1826.05 172.398 1829.47 173.162 L1830.93 173.486 Q1835.47 174.459 1837.37 176.241 Q1839.29 178 1839.29 181.172 Q1839.29 184.783 1836.42 186.889 Q1833.57 188.996 1828.57 188.996 Q1826.49 188.996 1824.22 188.579 Q1821.97 188.185 1819.47 187.375 L1819.47 182.977 Q1821.83 184.204 1824.12 184.829 Q1826.42 185.431 1828.66 185.431 Q1831.67 185.431 1833.29 184.412 Q1834.91 183.371 1834.91 181.496 Q1834.91 179.76 1833.73 178.834 Q1832.57 177.908 1828.62 177.051 L1827.13 176.704 Q1823.18 175.871 1821.42 174.158 Q1819.66 172.422 1819.66 169.412 Q1819.66 165.755 1822.25 163.764 Q1824.84 161.773 1829.61 161.773 Q1831.97 161.773 1834.06 162.121 Q1836.14 162.468 1837.9 163.162 Z" fill="#000000" fill-rule="nonzero" fill-opacity="1" /></svg>
