<?xml version="1.0" encoding="utf-8"?>
<svg xmlns="http://www.w3.org/2000/svg" xmlns:xlink="http://www.w3.org/1999/xlink" width="600" height="400" viewBox="0 0 2400 1600">
<defs>
  <clipPath id="clip720">
    <rect x="0" y="0" width="2400" height="1600"/>
  </clipPath>
</defs>
<path clip-path="url(#clip720)" d="M0 1600 L2400 1600 L2400 8.88178e-14 L0 8.88178e-14  Z" fill="#ffffff" fill-rule="evenodd" fill-opacity="1"/>
<defs>
  <clipPath id="clip721">
    <rect x="480" y="0" width="1681" height="1600"/>
  </clipPath>
</defs>
<path clip-path="url(#clip720)" d="M147.478 1486.45 L2352.76 1486.45 L2352.76 47.2441 L147.478 47.2441  Z" fill="#ffffff" fill-rule="evenodd" fill-opacity="1"/>
<defs>
  <clipPath id="clip722">
    <rect x="147" y="47" width="2206" height="1440"/>
  </clipPath>
</defs>
<polyline clip-path="url(#clip722)" style="stroke:#000000; stroke-linecap:round; stroke-linejoin:round; stroke-width:2; stroke-opacity:0.1; fill:none" points="202.933,1486.45 202.933,47.2441 "/>
<polyline clip-path="url(#clip722)" style="stroke:#000000; stroke-linecap:round; stroke-linejoin:round; stroke-width:2; stroke-opacity:0.1; fill:none" points="898.736,1486.45 898.736,47.2441 "/>
<polyline clip-path="url(#clip722)" style="stroke:#000000; stroke-linecap:round; stroke-linejoin:round; stroke-width:2; stroke-opacity:0.1; fill:none" points="1594.54,1486.45 1594.54,47.2441 "/>
<polyline clip-path="url(#clip722)" style="stroke:#000000; stroke-linecap:round; stroke-linejoin:round; stroke-width:2; stroke-opacity:0.1; fill:none" points="2290.34,1486.45 2290.34,47.2441 "/>
<polyline clip-path="url(#clip722)" style="stroke:#000000; stroke-linecap:round; stroke-linejoin:round; stroke-width:2; stroke-opacity:0.1; fill:none" points="147.478,1346.44 2352.76,1346.44 "/>
<polyline clip-path="url(#clip722)" style="stroke:#000000; stroke-linecap:round; stroke-linejoin:round; stroke-width:2; stroke-opacity:0.1; fill:none" points="147.478,1062.64 2352.76,1062.64 "/>
<polyline clip-path="url(#clip722)" style="stroke:#000000; stroke-linecap:round; stroke-linejoin:round; stroke-width:2; stroke-opacity:0.1; fill:none" points="147.478,778.843 2352.76,778.843 "/>
<polyline clip-path="url(#clip722)" style="stroke:#000000; stroke-linecap:round; stroke-linejoin:round; stroke-width:2; stroke-opacity:0.1; fill:none" points="147.478,495.047 2352.76,495.047 "/>
<polyline clip-path="url(#clip722)" style="stroke:#000000; stroke-linecap:round; stroke-linejoin:round; stroke-width:2; stroke-opacity:0.1; fill:none" points="147.478,211.251 2352.76,211.251 "/>
<polyline clip-path="url(#clip720)" style="stroke:#000000; stroke-linecap:round; stroke-linejoin:round; stroke-width:4; stroke-opacity:1; fill:none" points="147.478,1486.45 2352.76,1486.45 "/>
<polyline clip-path="url(#clip720)" style="stroke:#000000; stroke-linecap:round; stroke-linejoin:round; stroke-width:4; stroke-opacity:1; fill:none" points="202.933,1486.45 202.933,1467.55 "/>
<polyline clip-path="url(#clip720)" style="stroke:#000000; stroke-linecap:round; stroke-linejoin:round; stroke-width:4; stroke-opacity:1; fill:none" points="898.736,1486.45 898.736,1467.55 "/>
<polyline clip-path="url(#clip720)" style="stroke:#000000; stroke-linecap:round; stroke-linejoin:round; stroke-width:4; stroke-opacity:1; fill:none" points="1594.54,1486.45 1594.54,1467.55 "/>
<polyline clip-path="url(#clip720)" style="stroke:#000000; stroke-linecap:round; stroke-linejoin:round; stroke-width:4; stroke-opacity:1; fill:none" points="2290.34,1486.45 2290.34,1467.55 "/>
<path clip-path="url(#clip720)" d="M202.933 1517.37 Q199.322 1517.37 197.494 1520.93 Q195.688 1524.47 195.688 1531.6 Q195.688 1538.71 197.494 1542.27 Q199.322 1545.82 202.933 1545.82 Q206.568 1545.82 208.373 1542.27 Q210.202 1538.71 210.202 1531.6 Q210.202 1524.47 208.373 1520.93 Q206.568 1517.37 202.933 1517.37 M202.933 1513.66 Q208.744 1513.66 211.799 1518.27 Q214.878 1522.85 214.878 1531.6 Q214.878 1540.33 211.799 1544.94 Q208.744 1549.52 202.933 1549.52 Q197.123 1549.52 194.045 1544.94 Q190.989 1540.33 190.989 1531.6 Q190.989 1522.85 194.045 1518.27 Q197.123 1513.66 202.933 1513.66 Z" fill="#000000" fill-rule="nonzero" fill-opacity="1" /><path clip-path="url(#clip720)" d="M858.343 1544.91 L865.982 1544.91 L865.982 1518.55 L857.672 1520.21 L857.672 1515.95 L865.936 1514.29 L870.612 1514.29 L870.612 1544.91 L878.25 1544.91 L878.25 1548.85 L858.343 1548.85 L858.343 1544.91 Z" fill="#000000" fill-rule="nonzero" fill-opacity="1" /><path clip-path="url(#clip720)" d="M897.695 1517.37 Q894.084 1517.37 892.255 1520.93 Q890.449 1524.47 890.449 1531.6 Q890.449 1538.71 892.255 1542.27 Q894.084 1545.82 897.695 1545.82 Q901.329 1545.82 903.135 1542.27 Q904.963 1538.71 904.963 1531.6 Q904.963 1524.47 903.135 1520.93 Q901.329 1517.37 897.695 1517.37 M897.695 1513.66 Q903.505 1513.66 906.56 1518.27 Q909.639 1522.85 909.639 1531.6 Q909.639 1540.33 906.56 1544.94 Q903.505 1549.52 897.695 1549.52 Q891.885 1549.52 888.806 1544.94 Q885.75 1540.33 885.75 1531.6 Q885.75 1522.85 888.806 1518.27 Q891.885 1513.66 897.695 1513.66 Z" fill="#000000" fill-rule="nonzero" fill-opacity="1" /><path clip-path="url(#clip720)" d="M927.857 1517.37 Q924.246 1517.37 922.417 1520.93 Q920.611 1524.47 920.611 1531.6 Q920.611 1538.71 922.417 1542.27 Q924.246 1545.82 927.857 1545.82 Q931.491 1545.82 933.296 1542.27 Q935.125 1538.71 935.125 1531.6 Q935.125 1524.47 933.296 1520.93 Q931.491 1517.37 927.857 1517.37 M927.857 1513.66 Q933.667 1513.66 936.722 1518.27 Q939.801 1522.85 939.801 1531.6 Q939.801 1540.33 936.722 1544.94 Q933.667 1549.52 927.857 1549.52 Q922.046 1549.52 918.968 1544.94 Q915.912 1540.33 915.912 1531.6 Q915.912 1522.85 918.968 1518.27 Q922.046 1513.66 927.857 1513.66 Z" fill="#000000" fill-rule="nonzero" fill-opacity="1" /><path clip-path="url(#clip720)" d="M1558.23 1544.91 L1574.55 1544.91 L1574.55 1548.85 L1552.61 1548.85 L1552.61 1544.91 Q1555.27 1542.16 1559.85 1537.53 Q1564.46 1532.88 1565.64 1531.53 Q1567.88 1529.01 1568.76 1527.27 Q1569.67 1525.51 1569.67 1523.82 Q1569.67 1521.07 1567.72 1519.33 Q1565.8 1517.6 1562.7 1517.6 Q1560.5 1517.6 1558.05 1518.36 Q1555.62 1519.13 1552.84 1520.68 L1552.84 1515.95 Q1555.66 1514.82 1558.12 1514.24 Q1560.57 1513.66 1562.61 1513.66 Q1567.98 1513.66 1571.17 1516.35 Q1574.37 1519.03 1574.37 1523.52 Q1574.37 1525.65 1573.56 1527.57 Q1572.77 1529.47 1570.66 1532.07 Q1570.08 1532.74 1566.98 1535.95 Q1563.88 1539.15 1558.23 1544.91 Z" fill="#000000" fill-rule="nonzero" fill-opacity="1" /><path clip-path="url(#clip720)" d="M1594.37 1517.37 Q1590.75 1517.37 1588.93 1520.93 Q1587.12 1524.47 1587.12 1531.6 Q1587.12 1538.71 1588.93 1542.27 Q1590.75 1545.82 1594.37 1545.82 Q1598 1545.82 1599.81 1542.27 Q1601.63 1538.71 1601.63 1531.6 Q1601.63 1524.47 1599.81 1520.93 Q1598 1517.37 1594.37 1517.37 M1594.37 1513.66 Q1600.18 1513.66 1603.23 1518.27 Q1606.31 1522.85 1606.31 1531.6 Q1606.31 1540.33 1603.23 1544.94 Q1600.18 1549.52 1594.37 1549.52 Q1588.56 1549.52 1585.48 1544.94 Q1582.42 1540.33 1582.42 1531.6 Q1582.42 1522.85 1585.48 1518.27 Q1588.56 1513.66 1594.37 1513.66 Z" fill="#000000" fill-rule="nonzero" fill-opacity="1" /><path clip-path="url(#clip720)" d="M1624.53 1517.37 Q1620.92 1517.37 1619.09 1520.93 Q1617.28 1524.47 1617.28 1531.6 Q1617.28 1538.71 1619.09 1542.27 Q1620.92 1545.82 1624.53 1545.82 Q1628.16 1545.82 1629.97 1542.27 Q1631.8 1538.71 1631.8 1531.6 Q1631.8 1524.47 1629.97 1520.93 Q1628.16 1517.37 1624.53 1517.37 M1624.53 1513.66 Q1630.34 1513.66 1633.39 1518.27 Q1636.47 1522.85 1636.47 1531.6 Q1636.47 1540.33 1633.39 1544.94 Q1630.34 1549.52 1624.53 1549.52 Q1618.72 1549.52 1615.64 1544.94 Q1612.58 1540.33 1612.58 1531.6 Q1612.58 1522.85 1615.64 1518.27 Q1618.72 1513.66 1624.53 1513.66 Z" fill="#000000" fill-rule="nonzero" fill-opacity="1" /><path clip-path="url(#clip720)" d="M2264.1 1530.21 Q2267.46 1530.93 2269.34 1533.2 Q2271.23 1535.47 2271.23 1538.8 Q2271.23 1543.92 2267.72 1546.72 Q2264.2 1549.52 2257.72 1549.52 Q2255.54 1549.52 2253.22 1549.08 Q2250.93 1548.66 2248.48 1547.81 L2248.48 1543.29 Q2250.42 1544.43 2252.74 1545.01 Q2255.05 1545.58 2257.58 1545.58 Q2261.97 1545.58 2264.27 1543.85 Q2266.58 1542.11 2266.58 1538.8 Q2266.58 1535.75 2264.43 1534.03 Q2262.3 1532.3 2258.48 1532.3 L2254.45 1532.3 L2254.45 1528.45 L2258.66 1528.45 Q2262.11 1528.45 2263.94 1527.09 Q2265.77 1525.7 2265.77 1523.11 Q2265.77 1520.45 2263.87 1519.03 Q2262 1517.6 2258.48 1517.6 Q2256.56 1517.6 2254.36 1518.01 Q2252.16 1518.43 2249.52 1519.31 L2249.52 1515.14 Q2252.18 1514.4 2254.5 1514.03 Q2256.84 1513.66 2258.9 1513.66 Q2264.22 1513.66 2267.32 1516.09 Q2270.42 1518.5 2270.42 1522.62 Q2270.42 1525.49 2268.78 1527.48 Q2267.14 1529.45 2264.1 1530.21 Z" fill="#000000" fill-rule="nonzero" fill-opacity="1" /><path clip-path="url(#clip720)" d="M2290.1 1517.37 Q2286.49 1517.37 2284.66 1520.93 Q2282.85 1524.47 2282.85 1531.6 Q2282.85 1538.71 2284.66 1542.27 Q2286.49 1545.82 2290.1 1545.82 Q2293.73 1545.82 2295.54 1542.27 Q2297.37 1538.71 2297.37 1531.6 Q2297.37 1524.47 2295.54 1520.93 Q2293.73 1517.37 2290.1 1517.37 M2290.1 1513.66 Q2295.91 1513.66 2298.97 1518.27 Q2302.04 1522.85 2302.04 1531.6 Q2302.04 1540.33 2298.97 1544.94 Q2295.91 1549.52 2290.1 1549.52 Q2284.29 1549.52 2281.21 1544.94 Q2278.15 1540.33 2278.15 1531.6 Q2278.15 1522.85 2281.21 1518.27 Q2284.29 1513.66 2290.1 1513.66 Z" fill="#000000" fill-rule="nonzero" fill-opacity="1" /><path clip-path="url(#clip720)" d="M2320.26 1517.37 Q2316.65 1517.37 2314.82 1520.93 Q2313.02 1524.47 2313.02 1531.6 Q2313.02 1538.71 2314.82 1542.27 Q2316.65 1545.82 2320.26 1545.82 Q2323.9 1545.82 2325.7 1542.27 Q2327.53 1538.71 2327.53 1531.6 Q2327.53 1524.47 2325.7 1520.93 Q2323.9 1517.37 2320.26 1517.37 M2320.26 1513.66 Q2326.07 1513.66 2329.13 1518.27 Q2332.21 1522.85 2332.21 1531.6 Q2332.21 1540.33 2329.13 1544.94 Q2326.07 1549.52 2320.26 1549.52 Q2314.45 1549.52 2311.37 1544.94 Q2308.32 1540.33 2308.32 1531.6 Q2308.32 1522.85 2311.37 1518.27 Q2314.45 1513.66 2320.26 1513.66 Z" fill="#000000" fill-rule="nonzero" fill-opacity="1" /><polyline clip-path="url(#clip720)" style="stroke:#000000; stroke-linecap:round; stroke-linejoin:round; stroke-width:4; stroke-opacity:1; fill:none" points="147.478,1486.45 147.478,47.2441 "/>
<polyline clip-path="url(#clip720)" style="stroke:#000000; stroke-linecap:round; stroke-linejoin:round; stroke-width:4; stroke-opacity:1; fill:none" points="147.478,1346.44 166.376,1346.44 "/>
<polyline clip-path="url(#clip720)" style="stroke:#000000; stroke-linecap:round; stroke-linejoin:round; stroke-width:4; stroke-opacity:1; fill:none" points="147.478,1062.64 166.376,1062.64 "/>
<polyline clip-path="url(#clip720)" style="stroke:#000000; stroke-linecap:round; stroke-linejoin:round; stroke-width:4; stroke-opacity:1; fill:none" points="147.478,778.843 166.376,778.843 "/>
<polyline clip-path="url(#clip720)" style="stroke:#000000; stroke-linecap:round; stroke-linejoin:round; stroke-width:4; stroke-opacity:1; fill:none" points="147.478,495.047 166.376,495.047 "/>
<polyline clip-path="url(#clip720)" style="stroke:#000000; stroke-linecap:round; stroke-linejoin:round; stroke-width:4; stroke-opacity:1; fill:none" points="147.478,211.251 166.376,211.251 "/>
<path clip-path="url(#clip720)" d="M51.3625 1346.89 L81.0383 1346.89 L81.0383 1350.82 L51.3625 1350.82 L51.3625 1346.89 Z" fill="#000000" fill-rule="nonzero" fill-opacity="1" /><path clip-path="url(#clip720)" d="M95.1586 1359.78 L111.478 1359.78 L111.478 1363.72 L89.5336 1363.72 L89.5336 1359.78 Q92.1956 1357.03 96.7789 1352.4 Q101.385 1347.74 102.566 1346.4 Q104.811 1343.88 105.691 1342.14 Q106.594 1340.38 106.594 1338.69 Q106.594 1335.94 104.649 1334.2 Q102.728 1332.47 99.6261 1332.47 Q97.4271 1332.47 94.9734 1333.23 Q92.5428 1333.99 89.7651 1335.54 L89.7651 1330.82 Q92.5891 1329.69 95.0428 1329.11 Q97.4965 1328.53 99.5335 1328.53 Q104.904 1328.53 108.098 1331.22 Q111.293 1333.9 111.293 1338.39 Q111.293 1340.52 110.483 1342.44 Q109.696 1344.34 107.589 1346.93 Q107.01 1347.61 103.909 1350.82 Q100.807 1354.02 95.1586 1359.78 Z" fill="#000000" fill-rule="nonzero" fill-opacity="1" /><path clip-path="url(#clip720)" d="M50.9921 1063.09 L80.6679 1063.09 L80.6679 1067.03 L50.9921 1067.03 L50.9921 1063.09 Z" fill="#000000" fill-rule="nonzero" fill-opacity="1" /><path clip-path="url(#clip720)" d="M91.5706 1075.98 L99.2095 1075.98 L99.2095 1049.62 L90.8993 1051.29 L90.8993 1047.03 L99.1632 1045.36 L103.839 1045.36 L103.839 1075.98 L111.478 1075.98 L111.478 1079.92 L91.5706 1079.92 L91.5706 1075.98 Z" fill="#000000" fill-rule="nonzero" fill-opacity="1" /><path clip-path="url(#clip720)" d="M99.5335 764.642 Q95.9224 764.642 94.0937 768.207 Q92.2882 771.748 92.2882 778.878 Q92.2882 785.984 94.0937 789.549 Q95.9224 793.091 99.5335 793.091 Q103.168 793.091 104.973 789.549 Q106.802 785.984 106.802 778.878 Q106.802 771.748 104.973 768.207 Q103.168 764.642 99.5335 764.642 M99.5335 760.938 Q105.344 760.938 108.399 765.545 Q111.478 770.128 111.478 778.878 Q111.478 787.605 108.399 792.211 Q105.344 796.795 99.5335 796.795 Q93.7234 796.795 90.6447 792.211 Q87.5892 787.605 87.5892 778.878 Q87.5892 770.128 90.6447 765.545 Q93.7234 760.938 99.5335 760.938 Z" fill="#000000" fill-rule="nonzero" fill-opacity="1" /><path clip-path="url(#clip720)" d="M91.5706 508.392 L99.2095 508.392 L99.2095 482.026 L90.8993 483.693 L90.8993 479.434 L99.1632 477.767 L103.839 477.767 L103.839 508.392 L111.478 508.392 L111.478 512.327 L91.5706 512.327 L91.5706 508.392 Z" fill="#000000" fill-rule="nonzero" fill-opacity="1" /><path clip-path="url(#clip720)" d="M95.1586 224.595 L111.478 224.595 L111.478 228.531 L89.5336 228.531 L89.5336 224.595 Q92.1956 221.841 96.7789 217.211 Q101.385 212.558 102.566 211.216 Q104.811 208.693 105.691 206.957 Q106.594 205.197 106.594 203.508 Q106.594 200.753 104.649 199.017 Q102.728 197.281 99.6261 197.281 Q97.4271 197.281 94.9734 198.045 Q92.5428 198.808 89.7651 200.359 L89.7651 195.637 Q92.5891 194.503 95.0428 193.924 Q97.4965 193.346 99.5335 193.346 Q104.904 193.346 108.098 196.031 Q111.293 198.716 111.293 203.207 Q111.293 205.336 110.483 207.257 Q109.696 209.156 107.589 211.748 Q107.01 212.42 103.909 215.637 Q100.807 218.832 95.1586 224.595 Z" fill="#000000" fill-rule="nonzero" fill-opacity="1" /><path clip-path="url(#clip722)" d="M209.891 329.162 L216.849 272.816 L223.808 292.083 L230.766 314.218 L237.724 325.015 L244.682 343.987 L251.64 351.449 L258.598 368.09 L265.556 387.568 L272.514 376.9 L279.472 390.037 L286.43 420.254 L293.388 406.624 L300.346 409.886 L307.304 424.743 L314.262 435.645 L321.22 451.558 L328.178 460.813 L335.136 480.078 L342.094 474.09 L349.052 481.317 L356.01 503.453 L362.968 478.959 L369.926 498.774 L376.884 524.2 L383.842 536.385 L390.8 561.893 L397.758 571.769 L404.716 593.557 L411.674 618.119 L418.632 618.548 L425.59 619.855 L432.548 625.984 L439.506 603.34 L446.464 609.241 L453.422 625.754 L460.381 638.607 L467.339 655.844 L474.297 640.225 L481.255 652.596 L488.213 659.055 L495.171 670.605 L502.129 668.694 L509.087 662.411 L516.045 716.15 L523.003 733.522 L529.961 758.321 L536.919 751.182 L543.877 745.262 L550.835 763.581 L557.793 782.395 L564.751 790.312 L571.709 758.471 L578.667 752.182 L585.625 751.344 L592.583 775.606 L599.541 811.756 L606.499 821.44 L613.457 829.591 L620.415 838.494 L627.373 848.211 L634.331 855.463 L641.289 840.482 L648.247 836.92 L655.205 838.228 L662.163 854.587 L669.121 828.816 L676.079 861.796 L683.037 866.023 L689.996 897.138 L696.954 897.289 L703.912 899.792 L710.87 922.107 L717.828 903.845 L724.786 903.278 L731.744 912.297 L738.702 933.129 L745.66 925.02 L752.618 929.647 L759.576 946.291 L766.534 971.001 L773.492 986.1 L780.45 970.803 L787.408 1027.23 L794.366 1044.89 L801.324 1065.36 L808.282 1039.15 L815.24 1051.89 L822.198 1059.2 L829.156 1030.56 L836.114 1059.76 L843.072 1088.03 L850.03 1097.7 L856.988 1092.48 L863.946 1110.96 L870.904 1093.29 L877.862 1133.31 L884.82 1148.82 L891.778 1167.27 L898.736 1183.43 L905.694 1205.66 L912.652 1232.4 L919.61 1239.08 L926.569 1237.69 L933.527 1253.93 L940.485 1264 L947.443 1256.84 L954.401 1244.62 L961.359 1277.4 L968.317 1276.2 L975.275 1270.67 L982.233 1277.77 L989.191 1297.01 L996.149 1332.72 L1003.11 1273.2 L1010.06 1345.44 L1017.02 1318.24 L1023.98 1340.53 L1030.94 1311.84 L1037.9 1291.49 L1044.86 1299.34 L1051.81 1295.08 L1058.77 1315.4 L1065.73 1277.07 L1072.69 1286.22 L1079.65 1293.44 L1086.6 1303.68 L1093.56 1274.29 L1100.52 1252.8 L1107.48 1252.96 L1114.44 1223.39 L1121.39 1211.91 L1128.35 1183.07 L1135.31 1185.77 L1142.27 1171.14 L1149.23 1149.98 L1156.18 1155.17 L1163.14 1154.54 L1170.1 1116.52 L1177.06 1137.11 L1184.02 1111.04 L1190.97 1100.58 L1197.93 1089.13 L1204.89 1074.27 L1211.85 1078.13 L1218.81 1042.98 L1225.76 1031.69 L1232.72 1044.4 L1239.68 1036.01 L1246.64 1013.5 L1253.6 1002.83 L1260.55 960.254 L1267.51 961.909 L1274.47 946.75 L1281.43 942.814 L1288.39 967.108 L1295.34 948.905 L1302.3 923.432 L1309.26 960.314 L1316.22 916.243 L1323.18 937.169 L1330.13 918.063 L1337.09 925.538 L1344.05 914.695 L1351.01 874.748 L1357.97 862.946 L1364.92 851.149 L1371.88 854.145 L1378.84 846.821 L1385.8 791.747 L1392.76 781.756 L1399.71 788.401 L1406.67 794.086 L1413.63 795.651 L1420.59 790.789 L1427.55 777.033 L1434.5 778.387 L1441.46 769.139 L1448.42 773.153 L1455.38 762.963 L1462.34 761.347 L1469.29 780.54 L1476.25 775.739 L1483.21 776.926 L1490.17 754.946 L1497.13 739.465 L1504.09 741.69 L1511.04 736.176 L1518 722.018 L1524.96 713.513 L1531.92 699.661 L1538.88 682.255 L1545.83 660.209 L1552.79 660.495 L1559.75 664.626 L1566.71 666.532 L1573.67 634.525 L1580.62 614.468 L1587.58 632.76 L1594.54 628.394 L1601.5 638.056 L1608.46 613.484 L1615.41 595.754 L1622.37 615.405 L1629.33 618.852 L1636.29 612.205 L1643.25 578.698 L1650.2 579.364 L1657.16 536.339 L1664.12 537.104 L1671.08 532.667 L1678.04 509.307 L1684.99 498.307 L1691.95 492.22 L1698.91 489.891 L1705.87 477.195 L1712.83 471.457 L1719.78 464.085 L1726.74 456.664 L1733.7 446.59 L1740.66 443.009 L1747.62 426.794 L1754.57 421.271 L1761.53 425.783 L1768.49 409.057 L1775.45 383.902 L1782.41 382.889 L1789.36 381.22 L1796.32 370.911 L1803.28 369.78 L1810.24 350.499 L1817.2 357.6 L1824.15 327.407 L1831.11 324.882 L1838.07 314.234 L1845.03 284.551 L1851.99 295.484 L1858.94 313.363 L1865.9 289.82 L1872.86 305.943 L1879.82 298.074 L1886.78 275.159 L1893.73 301.268 L1900.69 322.482 L1907.65 335.313 L1914.61 352.524 L1921.57 393.906 L1928.52 380.166 L1935.48 377.878 L1942.44 407.371 L1949.4 394.135 L1956.36 401.252 L1963.31 403.731 L1970.27 422.415 L1977.23 452.049 L1984.19 444.75 L1991.15 444.136 L1998.11 450.94 L2005.06 457.113 L2012.02 486.756 L2018.98 501.044 L2025.94 520.032 L2032.9 512.614 L2039.85 530.978 L2046.81 535.008 L2053.77 543.221 L2060.73 528.601 L2067.69 575.999 L2074.64 592.915 L2081.6 581.413 L2088.56 579.972 L2095.52 608.209 L2102.48 627.572 L2109.43 626.325 L2116.39 638.062 L2123.35 629.601 L2130.31 640.936 L2137.27 641.456 L2144.22 654.23 L2151.18 677.467 L2158.14 696.213 L2165.1 690.514 L2172.06 688.758 L2179.01 695.327 L2185.97 711.193 L2192.93 743.658 L2199.89 765.172 L2206.85 762.889 L2213.8 781.988 L2220.76 770.761 L2227.72 742.909 L2234.68 706.731 L2241.64 754.194 L2248.59 783.842 L2255.55 775.81 L2262.51 749.016 L2269.47 780.628 L2276.43 790.76 L2283.38 747.119 L2290.34 747.222 L2290.34 664.619 L2283.38 690.331 L2276.43 717.163 L2269.47 712.973 L2262.51 680.745 L2255.55 704.526 L2248.59 710.365 L2241.64 689.603 L2234.68 639.944 L2227.72 672.774 L2220.76 694.485 L2213.8 717.118 L2206.85 696.622 L2199.89 700.412 L2192.93 681.109 L2185.97 657.777 L2179.01 649.842 L2172.06 621.36 L2165.1 649.773 L2158.14 624.697 L2151.18 608.547 L2144.22 605.61 L2137.27 572.27 L2130.31 581.416 L2123.35 584.566 L2116.39 566.604 L2109.43 569.893 L2102.48 556.049 L2095.52 547.935 L2088.56 521.439 L2081.6 547.573 L2074.64 522.807 L2067.69 523.306 L2060.73 496.709 L2053.77 501.4 L2046.81 498.481 L2039.85 491.362 L2032.9 477.037 L2025.94 451.801 L2018.98 436.056 L2012.02 417.968 L2005.06 389.378 L1998.11 391.274 L1991.15 386.338 L1984.19 390.892 L1977.23 405.553 L1970.27 347.781 L1963.31 336.338 L1956.36 338.861 L1949.4 327.496 L1942.44 347.241 L1935.48 311.841 L1928.52 312.432 L1921.57 323.799 L1914.61 270.493 L1907.65 258.801 L1900.69 240.332 L1893.73 215.535 L1886.78 201.255 L1879.82 227.659 L1872.86 225.877 L1865.9 207.202 L1858.94 235.835 L1851.99 211.96 L1845.03 213.27 L1838.07 238.711 L1831.11 245.907 L1824.15 267.598 L1817.2 285.952 L1810.24 271.177 L1803.28 300.883 L1796.32 299.465 L1789.36 315.157 L1782.41 314.176 L1775.45 322.556 L1768.49 341.202 L1761.53 360.295 L1754.57 358.394 L1747.62 375.875 L1740.66 381.84 L1733.7 375.016 L1726.74 402.489 L1719.78 413.678 L1712.83 399.102 L1705.87 424.568 L1698.91 440.61 L1691.95 440.03 L1684.99 438.605 L1678.04 446.776 L1671.08 464.211 L1664.12 471.033 L1657.16 496.09 L1650.2 509.919 L1643.25 529.218 L1636.29 542.498 L1629.33 548.305 L1622.37 547.218 L1615.41 533.511 L1608.46 541.941 L1601.5 574.537 L1594.54 569.284 L1587.58 574.354 L1580.62 587.228 L1573.67 591.341 L1566.71 600.318 L1559.75 598.91 L1552.79 609.688 L1545.83 614.721 L1538.88 651.746 L1531.92 663.509 L1524.96 672.625 L1518 679.817 L1511.04 678.535 L1504.09 694.379 L1497.13 688.237 L1490.17 701.377 L1483.21 715.104 L1476.25 715.267 L1469.29 719.016 L1462.34 697.724 L1455.38 705.686 L1448.42 713.56 L1441.46 705.839 L1434.5 719.428 L1427.55 712.174 L1420.59 727.529 L1413.63 731.372 L1406.67 726.539 L1399.71 726.403 L1392.76 722.448 L1385.8 726.483 L1378.84 776.96 L1371.88 797.808 L1364.92 782.807 L1357.97 806.936 L1351.01 821.362 L1344.05 859.377 L1337.09 856.496 L1330.13 869.55 L1323.18 904.578 L1316.22 882.388 L1309.26 894.207 L1302.3 889.117 L1295.34 877.873 L1288.39 904.01 L1281.43 911.039 L1274.47 899.91 L1267.51 898.165 L1260.55 911.146 L1253.6 931.601 L1246.64 959.956 L1239.68 968.497 L1232.72 1005.97 L1225.76 1003.93 L1218.81 1003.46 L1211.85 1012.73 L1204.89 1009.29 L1197.93 1026.3 L1190.97 1039.53 L1184.02 1054.36 L1177.06 1065.26 L1170.1 1069.67 L1163.14 1092.34 L1156.18 1096.95 L1149.23 1090.43 L1142.27 1112.47 L1135.31 1128.08 L1128.35 1126.02 L1121.39 1142.46 L1114.44 1155.56 L1107.48 1176.85 L1100.52 1182.78 L1093.56 1205.85 L1086.6 1225.69 L1079.65 1218.9 L1072.69 1213.66 L1065.73 1203.89 L1058.77 1232.64 L1051.81 1223.36 L1044.86 1223.18 L1037.9 1223.51 L1030.94 1232.23 L1023.98 1258.4 L1017.02 1242.07 L1010.06 1270.2 L1003.11 1200.53 L996.149 1247.56 L989.191 1223.6 L982.233 1207.14 L975.275 1203.09 L968.317 1200.95 L961.359 1202.49 L954.401 1177.83 L947.443 1184.65 L940.485 1187.92 L933.527 1182.67 L926.569 1168.62 L919.61 1167.42 L912.652 1162.53 L905.694 1143.51 L898.736 1125.07 L891.778 1114.04 L884.82 1091.77 L877.862 1076.76 L870.904 1052.25 L863.946 1042.02 L856.988 1040.61 L850.03 1037.26 L843.072 1018.74 L836.114 1022.85 L829.156 999.127 L822.198 987.839 L815.24 984.248 L808.282 989.876 L801.324 994.978 L794.366 991.017 L787.408 975.656 L780.45 944.514 L773.492 914.566 L766.534 901.149 L759.576 875 L752.618 867.023 L745.66 887.892 L738.702 887.364 L731.744 880.391 L724.786 868.053 L717.828 876.387 L710.87 855.273 L703.912 848.842 L696.954 834.764 L689.996 832.755 L683.037 795.426 L676.079 788.438 L669.121 779.386 L662.163 803.665 L655.205 779.878 L648.247 785.091 L641.289 787.055 L634.331 806.174 L627.373 800.847 L620.415 766.227 L613.457 757.162 L606.499 758.809 L599.541 734.443 L592.583 705.101 L585.625 690.996 L578.667 685.793 L571.709 692.759 L564.751 718.197 L557.793 706.712 L550.835 704.15 L543.877 685.695 L536.919 682.539 L529.961 688.8 L523.003 672.341 L516.045 647.699 L509.087 615.411 L502.129 630.269 L495.171 627.861 L488.213 609.434 L481.255 600.56 L474.297 570.318 L467.339 590.909 L460.381 569.008 L453.422 579.517 L446.464 553.108 L439.506 563.37 L432.548 591.404 L425.59 565.05 L418.632 548.303 L411.674 547.116 L404.716 523.334 L397.758 506.9 L390.8 490.22 L383.842 496.272 L376.884 473.007 L369.926 458.407 L362.968 432.571 L356.01 431.556 L349.052 427.598 L342.094 436.315 L335.136 429.884 L328.178 390.327 L321.22 396.254 L314.262 372.427 L307.304 359.309 L300.346 345.862 L293.388 348.414 L286.43 359.598 L279.472 317.515 L272.514 311.633 L265.556 321.059 L258.598 293.416 L251.64 277.212 L244.682 266.93 L237.724 243.224 L230.766 232.744 L223.808 205.936 L216.849 193.702 L209.891 255.862  Z" fill="#0000ff" fill-rule="evenodd" fill-opacity="0.5"/>
<polyline clip-path="url(#clip722)" style="stroke:#0000ff; stroke-linecap:round; stroke-linejoin:round; stroke-width:8; stroke-opacity:1; fill:none" points="209.891,292.512 216.849,233.259 223.808,249.01 230.766,273.481 237.724,284.12 244.682,305.459 251.64,314.331 258.598,330.753 265.556,354.313 272.514,344.267 279.472,353.776 286.43,389.926 293.388,377.519 300.346,377.874 307.304,392.026 314.262,404.036 321.22,423.906 328.178,425.57 335.136,454.981 342.094,455.203 349.052,454.457 356.01,467.504 362.968,455.765 369.926,478.591 376.884,498.604 383.842,516.329 390.8,526.057 397.758,539.334 404.716,558.446 411.674,582.617 418.632,583.426 425.59,592.453 432.548,608.694 439.506,583.355 446.464,581.174 453.422,602.636 460.381,603.808 467.339,623.377 474.297,605.272 481.255,626.578 488.213,634.245 495.171,649.233 502.129,649.482 509.087,638.911 516.045,681.924 523.003,702.931 529.961,723.56 536.919,716.861 543.877,715.479 550.835,733.866 557.793,744.554 564.751,754.255 571.709,725.615 578.667,718.988 585.625,721.17 592.583,740.354 599.541,773.099 606.499,790.125 613.457,793.377 620.415,802.361 627.373,824.529 634.331,830.819 641.289,813.768 648.247,811.005 655.205,809.053 662.163,829.126 669.121,804.101 676.079,825.117 683.037,830.724 689.996,864.946 696.954,866.027 703.912,874.317 710.87,888.69 717.828,890.116 724.786,885.666 731.744,896.344 738.702,910.246 745.66,906.456 752.618,898.335 759.576,910.645 766.534,936.075 773.492,950.333 780.45,957.658 787.408,1001.44 794.366,1017.96 801.324,1030.17 808.282,1014.51 815.24,1018.07 822.198,1023.52 829.156,1014.84 836.114,1041.3 843.072,1053.39 850.03,1067.48 856.988,1066.54 863.946,1076.49 870.904,1072.77 877.862,1105.04 884.82,1120.29 891.778,1140.66 898.736,1154.25 905.694,1174.59 912.652,1197.46 919.61,1203.25 926.569,1203.15 933.527,1218.3 940.485,1225.96 947.443,1220.74 954.401,1211.23 961.359,1239.95 968.317,1238.57 975.275,1236.88 982.233,1242.46 989.191,1260.3 996.149,1290.14 1003.11,1236.87 1010.06,1307.82 1017.02,1280.16 1023.98,1299.46 1030.94,1272.03 1037.9,1257.5 1044.86,1261.26 1051.81,1259.22 1058.77,1274.02 1065.73,1240.48 1072.69,1249.94 1079.65,1256.17 1086.6,1264.68 1093.56,1240.07 1100.52,1217.79 1107.48,1214.9 1114.44,1189.47 1121.39,1177.18 1128.35,1154.55 1135.31,1156.93 1142.27,1141.8 1149.23,1120.21 1156.18,1126.06 1163.14,1123.44 1170.1,1093.09 1177.06,1101.19 1184.02,1082.7 1190.97,1070.06 1197.93,1057.71 1204.89,1041.78 1211.85,1045.43 1218.81,1023.22 1225.76,1017.81 1232.72,1025.18 1239.68,1002.25 1246.64,986.727 1253.6,967.214 1260.55,935.7 1267.51,930.037 1274.47,923.33 1281.43,926.927 1288.39,935.559 1295.34,913.389 1302.3,906.275 1309.26,927.261 1316.22,899.315 1323.18,920.873 1330.13,893.806 1337.09,891.017 1344.05,887.036 1351.01,848.055 1357.97,834.941 1364.92,816.978 1371.88,825.976 1378.84,811.89 1385.8,759.115 1392.76,752.102 1399.71,757.402 1406.67,760.312 1413.63,763.511 1420.59,759.159 1427.55,744.603 1434.5,748.908 1441.46,737.489 1448.42,743.357 1455.38,734.325 1462.34,729.535 1469.29,749.778 1476.25,745.503 1483.21,746.015 1490.17,728.161 1497.13,713.851 1504.09,718.035 1511.04,707.355 1518,700.917 1524.96,693.069 1531.92,681.585 1538.88,667 1545.83,637.465 1552.79,635.091 1559.75,631.768 1566.71,633.425 1573.67,612.933 1580.62,600.848 1587.58,603.557 1594.54,598.839 1601.5,606.296 1608.46,577.712 1615.41,564.632 1622.37,581.312 1629.33,583.578 1636.29,577.351 1643.25,553.958 1650.2,544.641 1657.16,516.215 1664.12,504.069 1671.08,498.439 1678.04,478.042 1684.99,468.456 1691.95,466.125 1698.91,465.25 1705.87,450.881 1712.83,435.28 1719.78,438.881 1726.74,429.577 1733.7,410.803 1740.66,412.424 1747.62,401.334 1754.57,389.833 1761.53,393.039 1768.49,375.129 1775.45,353.229 1782.41,348.533 1789.36,348.189 1796.32,335.188 1803.28,335.331 1810.24,310.838 1817.2,321.776 1824.15,297.502 1831.11,285.394 1838.07,276.472 1845.03,248.911 1851.99,253.722 1858.94,274.599 1865.9,248.511 1872.86,265.91 1879.82,262.866 1886.78,238.207 1893.73,258.401 1900.69,281.407 1907.65,297.057 1914.61,311.509 1921.57,358.853 1928.52,346.299 1935.48,344.86 1942.44,377.306 1949.4,360.815 1956.36,370.057 1963.31,370.035 1970.27,385.098 1977.23,428.801 1984.19,417.821 1991.15,415.237 1998.11,421.107 2005.06,423.246 2012.02,452.362 2018.98,468.55 2025.94,485.916 2032.9,494.825 2039.85,511.17 2046.81,516.745 2053.77,522.31 2060.73,512.655 2067.69,549.653 2074.64,557.861 2081.6,564.493 2088.56,550.706 2095.52,578.072 2102.48,591.811 2109.43,598.109 2116.39,602.333 2123.35,607.084 2130.31,611.176 2137.27,606.863 2144.22,629.92 2151.18,643.007 2158.14,660.455 2165.1,670.144 2172.06,655.059 2179.01,672.585 2185.97,684.485 2192.93,712.384 2199.89,732.792 2206.85,729.756 2213.8,749.553 2220.76,732.623 2227.72,707.842 2234.68,673.337 2241.64,721.899 2248.59,747.104 2255.55,740.168 2262.51,714.881 2269.47,746.801 2276.43,753.961 2283.38,718.725 2290.34,705.921 "/>
<path clip-path="url(#clip722)" d="M209.891 325.678 L216.849 304.363 L223.808 304.812 L230.766 320.117 L237.724 335.674 L244.682 354.309 L251.64 365.256 L258.598 376.648 L265.556 382.616 L272.514 378.199 L279.472 378.985 L286.43 390.006 L293.388 385.612 L300.346 384.515 L307.304 388.753 L314.262 395.644 L321.22 406.6 L328.178 410.789 L335.136 423.121 L342.094 421.945 L349.052 415.419 L356.01 411.07 L362.968 417.263 L369.926 429.997 L376.884 443.133 L383.842 450.449 L390.8 445.392 L397.758 447.423 L404.716 462.711 L411.674 477.66 L418.632 488.782 L425.59 510.26 L432.548 527.291 L439.506 526.699 L446.464 530.625 L453.422 537.182 L460.381 533.129 L467.339 533.217 L474.297 543.195 L481.255 567.032 L488.213 587.774 L495.171 606.218 L502.129 618.005 L509.087 628.936 L516.045 649.624 L523.003 670.055 L529.961 690.218 L536.919 698.566 L543.877 704.873 L550.835 718.398 L557.793 730.293 L564.751 739.704 L571.709 734.702 L578.667 738.074 L585.625 745.948 L592.583 765.978 L599.541 795.2 L606.499 817.503 L613.457 830.033 L620.415 844.457 L627.373 862.742 L634.331 868.78 L641.289 868.004 L648.247 870.592 L655.205 874.502 L662.163 882.882 L669.121 877.785 L676.079 878.062 L683.037 889.006 L689.996 913.138 L696.954 935.008 L703.912 951.928 L710.87 970.044 L717.828 975.597 L724.786 980.764 L731.744 989.389 L738.702 1002.62 L745.66 1016.61 L752.618 1043.77 L759.576 1068.41 L766.534 1092.52 L773.492 1102.19 L780.45 1103.3 L787.408 1118.53 L794.366 1127.08 L801.324 1132.92 L808.282 1128.34 L815.24 1136.93 L822.198 1137.91 L829.156 1134.95 L836.114 1149.94 L843.072 1168.46 L850.03 1171.38 L856.988 1170.22 L863.946 1173.95 L870.904 1173.91 L877.862 1188.4 L884.82 1198.97 L891.778 1206.92 L898.736 1211.93 L905.694 1219.74 L912.652 1230.04 L919.61 1234.27 L926.569 1236.98 L933.527 1243.8 L940.485 1244.43 L947.443 1238.08 L954.401 1232.67 L961.359 1239.76 L968.317 1240.99 L975.275 1243.57 L982.233 1251 L989.191 1265.67 L996.149 1273.1 L1003.11 1265.12 L1010.06 1282.88 L1017.02 1280 L1023.98 1276.55 L1030.94 1260.17 L1037.9 1247.34 L1044.86 1244.87 L1051.81 1247.96 L1058.77 1251.92 L1065.73 1244.39 L1072.69 1248.6 L1079.65 1255.77 L1086.6 1259.87 L1093.56 1253.77 L1100.52 1244.88 L1107.48 1243.62 L1114.44 1232.59 L1121.39 1221.65 L1128.35 1207.25 L1135.31 1200.21 L1142.27 1188.33 L1149.23 1178.07 L1156.18 1183.4 L1163.14 1187.37 L1170.1 1185.41 L1177.06 1195.15 L1184.02 1191.23 L1190.97 1190.05 L1197.93 1190.21 L1204.89 1173.13 L1211.85 1156.51 L1218.81 1131.13 L1225.76 1111.41 L1232.72 1098.5 L1239.68 1082.74 L1246.64 1065.4 L1253.6 1053.84 L1260.55 1033.4 L1267.51 1027.73 L1274.47 1023.31 L1281.43 1024.42 L1288.39 1028.81 L1295.34 1023.1 L1302.3 1012.57 L1309.26 1013.33 L1316.22 995.931 L1323.18 991.806 L1330.13 980.164 L1337.09 973.859 L1344.05 957.254 L1351.01 932.957 L1357.97 912.097 L1364.92 891.423 L1371.88 879.888 L1378.84 858.241 L1385.8 825.092 L1392.76 809.379 L1399.71 799.687 L1406.67 790.624 L1413.63 782.456 L1420.59 770.392 L1427.55 754.569 L1434.5 747.939 L1441.46 739.932 L1448.42 740.182 L1455.38 736.343 L1462.34 733.612 L1469.29 738.301 L1476.25 732.014 L1483.21 724.943 L1490.17 710.398 L1497.13 699.194 L1504.09 693.199 L1511.04 683.008 L1518 667.789 L1524.96 650.446 L1531.92 629.695 L1538.88 605.29 L1545.83 580.441 L1552.79 564.972 L1559.75 549.551 L1566.71 537.315 L1573.67 524.143 L1580.62 511.061 L1587.58 495.584 L1594.54 495.412 L1601.5 486.845 L1608.46 480.342 L1615.41 482.594 L1622.37 486.742 L1629.33 479.592 L1636.29 468.652 L1643.25 459.492 L1650.2 445.309 L1657.16 432.735 L1664.12 420.059 L1671.08 413.634 L1678.04 408.971 L1684.99 409.057 L1691.95 413.73 L1698.91 416.017 L1705.87 409.631 L1712.83 399.565 L1719.78 403.614 L1726.74 400.112 L1733.7 391.253 L1740.66 393.962 L1747.62 397.653 L1754.57 403.281 L1761.53 413.422 L1768.49 412.34 L1775.45 404.717 L1782.41 400.686 L1789.36 393.799 L1796.32 382.511 L1803.28 373.563 L1810.24 360.114 L1817.2 357.699 L1824.15 347.481 L1831.11 340.244 L1838.07 333.975 L1845.03 321.444 L1851.99 316.775 L1858.94 317.986 L1865.9 309.42 L1872.86 308.343 L1879.82 303.976 L1886.78 296.932 L1893.73 305.729 L1900.69 318.88 L1907.65 332.928 L1914.61 348.011 L1921.57 365.99 L1928.52 362.867 L1935.48 362.142 L1942.44 372.165 L1949.4 372.41 L1956.36 375.966 L1963.31 374.305 L1970.27 378.767 L1977.23 394.243 L1984.19 389.435 L1991.15 382.354 L1998.11 374.404 L2005.06 365.256 L2012.02 376.186 L2018.98 396.658 L2025.94 413.625 L2032.9 432.6 L2039.85 445.898 L2046.81 452.425 L2053.77 452.772 L2060.73 449.149 L2067.69 446.408 L2074.64 457.593 L2081.6 472.928 L2088.56 480.378 L2095.52 494.578 L2102.48 501.493 L2109.43 511.346 L2116.39 515.598 L2123.35 526.575 L2130.31 531.574 L2137.27 535.38 L2144.22 547.907 L2151.18 550.249 L2158.14 561.652 L2165.1 575.22 L2172.06 579.475 L2179.01 600.151 L2185.97 620.046 L2192.93 642.849 L2199.89 664.189 L2206.85 675.521 L2213.8 691.059 L2220.76 688.814 L2227.72 679.067 L2234.68 668.289 L2241.64 688.07 L2248.59 704.355 L2255.55 706.747 L2262.51 701.231 L2269.47 717.814 L2276.43 724.581 L2283.38 712.785 L2290.34 723.404 L2290.34 666.784 L2283.38 671.742 L2276.43 683.54 L2269.47 676.771 L2262.51 660.185 L2255.55 665.704 L2248.59 663.311 L2241.64 647.022 L2234.68 627.238 L2227.72 638.021 L2220.76 647.769 L2213.8 650.014 L2206.85 634.471 L2199.89 623.138 L2192.93 601.793 L2185.97 578.985 L2179.01 559.086 L2172.06 538.407 L2165.1 534.154 L2158.14 520.581 L2151.18 509.175 L2144.22 506.835 L2137.27 494.303 L2130.31 490.498 L2123.35 485.498 L2116.39 474.517 L2109.43 470.266 L2102.48 460.41 L2095.52 453.494 L2088.56 439.29 L2081.6 431.84 L2074.64 416.501 L2067.69 405.315 L2060.73 408.059 L2053.77 411.682 L2046.81 411.335 L2039.85 404.805 L2032.9 391.505 L2025.94 372.527 L2018.98 355.558 L2012.02 335.085 L2005.06 324.154 L1998.11 333.304 L1991.15 341.255 L1984.19 348.337 L1977.23 353.145 L1970.27 337.666 L1963.31 333.205 L1956.36 334.866 L1949.4 331.309 L1942.44 331.064 L1935.48 321.04 L1928.52 321.765 L1921.57 324.889 L1914.61 306.908 L1907.65 291.826 L1900.69 277.778 L1893.73 264.626 L1886.78 255.829 L1879.82 262.873 L1872.86 267.24 L1865.9 268.317 L1858.94 276.883 L1851.99 275.672 L1845.03 280.341 L1838.07 292.873 L1831.11 299.142 L1824.15 306.379 L1817.2 316.597 L1810.24 319.013 L1803.28 332.463 L1796.32 341.412 L1789.36 352.701 L1782.41 359.588 L1775.45 363.619 L1768.49 371.243 L1761.53 372.325 L1754.57 362.182 L1747.62 356.554 L1740.66 352.862 L1733.7 350.153 L1726.74 359.014 L1719.78 362.515 L1712.83 358.466 L1705.87 368.534 L1698.91 374.92 L1691.95 372.633 L1684.99 367.958 L1678.04 367.873 L1671.08 372.537 L1664.12 378.963 L1657.16 391.642 L1650.2 404.217 L1643.25 418.402 L1636.29 427.563 L1629.33 438.506 L1622.37 445.656 L1615.41 441.505 L1608.46 439.253 L1601.5 445.759 L1594.54 454.328 L1587.58 454.499 L1580.62 469.98 L1573.67 483.065 L1566.71 496.239 L1559.75 508.477 L1552.79 523.903 L1545.83 539.375 L1538.88 564.231 L1531.92 588.64 L1524.96 609.394 L1518 626.74 L1511.04 641.96 L1504.09 652.153 L1497.13 658.148 L1490.17 669.353 L1483.21 683.9 L1476.25 690.971 L1469.29 697.259 L1462.34 692.569 L1455.38 695.301 L1448.42 699.14 L1441.46 698.889 L1434.5 706.898 L1427.55 713.528 L1420.59 729.352 L1413.63 741.416 L1406.67 749.584 L1399.71 758.648 L1392.76 768.34 L1385.8 784.052 L1378.84 817.198 L1371.88 838.843 L1364.92 850.378 L1357.97 871.048 L1351.01 891.905 L1344.05 916.197 L1337.09 932.8 L1330.13 939.105 L1323.18 950.744 L1316.22 954.87 L1309.26 972.267 L1302.3 971.502 L1295.34 982.033 L1288.39 987.739 L1281.43 983.352 L1274.47 982.24 L1267.51 986.661 L1260.55 992.329 L1253.6 1012.77 L1246.64 1024.32 L1239.68 1041.66 L1232.72 1057.41 L1225.76 1070.33 L1218.81 1090.04 L1211.85 1115.41 L1204.89 1132.03 L1197.93 1149.11 L1190.97 1148.95 L1184.02 1150.14 L1177.06 1154.06 L1170.1 1144.32 L1163.14 1146.27 L1156.18 1142.31 L1149.23 1136.97 L1142.27 1147.23 L1135.31 1159.11 L1128.35 1166.15 L1121.39 1180.55 L1114.44 1191.49 L1107.48 1202.51 L1100.52 1203.78 L1093.56 1212.66 L1086.6 1218.77 L1079.65 1214.67 L1072.69 1207.5 L1065.73 1203.29 L1058.77 1210.82 L1051.81 1206.85 L1044.86 1203.76 L1037.9 1206.24 L1030.94 1219.06 L1023.98 1235.44 L1017.02 1238.9 L1010.06 1241.78 L1003.11 1224.02 L996.149 1232 L989.191 1224.57 L982.233 1209.9 L975.275 1202.47 L968.317 1199.88 L961.359 1198.66 L954.401 1191.57 L947.443 1196.98 L940.485 1203.33 L933.527 1202.69 L926.569 1195.88 L919.61 1193.17 L912.652 1188.94 L905.694 1178.64 L898.736 1170.83 L891.778 1165.82 L884.82 1157.87 L877.862 1147.3 L870.904 1132.81 L863.946 1132.86 L856.988 1129.12 L850.03 1130.28 L843.072 1127.36 L836.114 1108.85 L829.156 1093.86 L822.198 1096.82 L815.24 1095.84 L808.282 1087.25 L801.324 1091.83 L794.366 1086 L787.408 1077.44 L780.45 1062.21 L773.492 1061.11 L766.534 1051.44 L759.576 1027.34 L752.618 1002.7 L745.66 975.55 L738.702 961.561 L731.744 948.329 L724.786 939.704 L717.828 934.538 L710.87 928.985 L703.912 910.875 L696.954 893.957 L689.996 872.092 L683.037 847.962 L676.079 837.019 L669.121 836.741 L662.163 841.837 L655.205 833.459 L648.247 829.548 L641.289 826.961 L634.331 827.737 L627.373 821.7 L620.415 803.417 L613.457 788.994 L606.499 776.464 L599.541 754.16 L592.583 724.937 L585.625 704.907 L578.667 697.032 L571.709 693.66 L564.751 698.664 L557.793 689.25 L550.835 677.354 L543.877 663.828 L536.919 657.52 L529.961 649.172 L523.003 629.004 L516.045 608.569 L509.087 587.877 L502.129 576.945 L495.171 565.156 L488.213 546.707 L481.255 525.96 L474.297 502.117 L467.339 492.141 L460.381 492.054 L453.422 496.109 L446.464 489.548 L439.506 485.622 L432.548 486.215 L425.59 469.178 L418.632 447.694 L411.674 436.572 L404.716 421.62 L397.758 406.33 L390.8 404.301 L383.842 409.359 L376.884 402.04 L369.926 388.902 L362.968 376.166 L356.01 369.973 L349.052 374.323 L342.094 380.85 L335.136 382.026 L328.178 369.691 L321.22 365.502 L314.262 354.544 L307.304 347.654 L300.346 343.415 L293.388 344.513 L286.43 348.907 L279.472 337.884 L272.514 337.099 L265.556 341.516 L258.598 335.547 L251.64 324.155 L244.682 313.206 L237.724 294.571 L230.766 279.014 L223.808 263.709 L216.849 263.26 L209.891 284.576  Z" fill="#008000" fill-rule="evenodd" fill-opacity="0.5"/>
<polyline clip-path="url(#clip722)" style="stroke:#008000; stroke-linecap:round; stroke-linejoin:round; stroke-width:8; stroke-opacity:1; fill:none" points="209.891,305.127 216.849,283.811 223.808,284.261 230.766,299.565 237.724,315.122 244.682,333.757 251.64,344.705 258.598,356.097 265.556,362.066 272.514,357.649 279.472,358.434 286.43,369.456 293.388,365.063 300.346,363.965 307.304,368.204 314.262,375.094 321.22,386.051 328.178,390.24 335.136,402.573 342.094,401.397 349.052,394.871 356.01,390.522 362.968,396.714 369.926,409.449 376.884,422.587 383.842,429.904 390.8,424.847 397.758,426.877 404.716,442.166 411.674,457.116 418.632,468.238 425.59,489.719 432.548,506.753 439.506,506.161 446.464,510.086 453.422,516.646 460.381,512.592 467.339,512.679 474.297,522.656 481.255,546.496 488.213,567.241 495.171,585.687 502.129,597.475 509.087,608.407 516.045,629.097 523.003,649.53 529.961,669.695 536.919,678.043 543.877,684.35 550.835,697.876 557.793,709.771 564.751,719.184 571.709,714.181 578.667,717.553 585.625,725.427 592.583,745.458 599.541,774.68 606.499,796.983 613.457,809.514 620.415,823.937 627.373,842.221 634.331,848.258 641.289,847.483 648.247,850.07 655.205,853.981 662.163,862.359 669.121,857.263 676.079,857.541 683.037,868.484 689.996,892.615 696.954,914.483 703.912,931.401 710.87,949.514 717.828,955.067 724.786,960.234 731.744,968.859 738.702,982.093 745.66,996.082 752.618,1023.24 759.576,1047.87 766.534,1071.98 773.492,1081.65 780.45,1082.75 787.408,1097.99 794.366,1106.54 801.324,1112.37 808.282,1107.79 815.24,1116.38 822.198,1117.37 829.156,1114.41 836.114,1129.39 843.072,1147.91 850.03,1150.83 856.988,1149.67 863.946,1153.41 870.904,1153.36 877.862,1167.85 884.82,1178.42 891.778,1186.37 898.736,1191.38 905.694,1199.19 912.652,1209.49 919.61,1213.72 926.569,1216.43 933.527,1223.25 940.485,1223.88 947.443,1217.53 954.401,1212.12 961.359,1219.21 968.317,1220.44 975.275,1223.02 982.233,1230.45 989.191,1245.12 996.149,1252.55 1003.11,1244.57 1010.06,1262.33 1017.02,1259.45 1023.98,1255.99 1030.94,1239.61 1037.9,1226.79 1044.86,1224.31 1051.81,1227.4 1058.77,1231.37 1065.73,1223.84 1072.69,1228.05 1079.65,1235.22 1086.6,1239.32 1093.56,1233.21 1100.52,1224.33 1107.48,1223.06 1114.44,1212.04 1121.39,1201.1 1128.35,1186.7 1135.31,1179.66 1142.27,1167.78 1149.23,1157.52 1156.18,1162.86 1163.14,1166.82 1170.1,1164.86 1177.06,1174.6 1184.02,1170.68 1190.97,1169.5 1197.93,1169.66 1204.89,1152.58 1211.85,1135.96 1218.81,1110.58 1225.76,1090.87 1232.72,1077.95 1239.68,1062.2 1246.64,1044.86 1253.6,1033.3 1260.55,1012.86 1267.51,1007.2 1274.47,1002.77 1281.43,1003.88 1288.39,1008.27 1295.34,1002.57 1302.3,992.034 1309.26,992.8 1316.22,975.4 1323.18,971.275 1330.13,959.635 1337.09,953.33 1344.05,936.725 1351.01,912.431 1357.97,891.573 1364.92,870.9 1371.88,859.365 1378.84,837.72 1385.8,804.572 1392.76,788.859 1399.71,779.167 1406.67,770.104 1413.63,761.936 1420.59,749.872 1427.55,734.048 1434.5,727.419 1441.46,719.41 1448.42,719.661 1455.38,715.822 1462.34,713.09 1469.29,717.78 1476.25,711.493 1483.21,704.422 1490.17,689.876 1497.13,678.671 1504.09,672.676 1511.04,662.484 1518,647.264 1524.96,629.92 1531.92,609.168 1538.88,584.761 1545.83,559.908 1552.79,544.438 1559.75,529.014 1566.71,516.777 1573.67,503.604 1580.62,490.521 1587.58,475.041 1594.54,474.87 1601.5,466.302 1608.46,459.797 1615.41,462.05 1622.37,466.199 1629.33,459.049 1636.29,448.108 1643.25,438.947 1650.2,424.763 1657.16,412.189 1664.12,399.511 1671.08,393.085 1678.04,388.422 1684.99,388.507 1691.95,393.181 1698.91,395.468 1705.87,389.083 1712.83,379.016 1719.78,383.065 1726.74,379.563 1733.7,370.703 1740.66,373.412 1747.62,377.103 1754.57,382.731 1761.53,392.873 1768.49,391.791 1775.45,384.168 1782.41,380.137 1789.36,373.25 1796.32,361.961 1803.28,353.013 1810.24,339.564 1817.2,337.148 1824.15,326.93 1831.11,319.693 1838.07,313.424 1845.03,300.893 1851.99,296.224 1858.94,297.434 1865.9,288.868 1872.86,287.791 1879.82,283.425 1886.78,276.38 1893.73,285.178 1900.69,298.329 1907.65,312.377 1914.61,327.46 1921.57,345.439 1928.52,342.316 1935.48,341.591 1942.44,351.614 1949.4,351.859 1956.36,355.416 1963.31,353.755 1970.27,358.217 1977.23,373.694 1984.19,368.886 1991.15,361.805 1998.11,353.854 2005.06,344.705 2012.02,355.636 2018.98,376.108 2025.94,393.076 2032.9,412.053 2039.85,425.352 2046.81,431.88 2053.77,432.227 2060.73,428.604 2067.69,425.862 2074.64,437.047 2081.6,452.384 2088.56,459.834 2095.52,474.036 2102.48,480.952 2109.43,490.806 2116.39,495.057 2123.35,506.037 2130.31,511.036 2137.27,514.841 2144.22,527.371 2151.18,529.712 2158.14,541.117 2165.1,554.687 2172.06,558.941 2179.01,579.619 2185.97,599.516 2192.93,622.321 2199.89,643.663 2206.85,654.996 2213.8,670.536 2220.76,668.291 2227.72,658.544 2234.68,647.764 2241.64,667.546 2248.59,683.833 2255.55,686.226 2262.51,680.708 2269.47,697.293 2276.43,704.06 2283.38,692.263 2290.34,695.094 "/>
<circle clip-path="url(#clip722)" cx="209.891" cy="485.858" r="5.4" fill="#000000" fill-rule="evenodd" fill-opacity="1" stroke="none"/>
<circle clip-path="url(#clip722)" cx="216.849" cy="87.9763" r="5.4" fill="#000000" fill-rule="evenodd" fill-opacity="1" stroke="none"/>
<circle clip-path="url(#clip722)" cx="223.808" cy="153.89" r="5.4" fill="#000000" fill-rule="evenodd" fill-opacity="1" stroke="none"/>
<circle clip-path="url(#clip722)" cx="230.766" cy="298.939" r="5.4" fill="#000000" fill-rule="evenodd" fill-opacity="1" stroke="none"/>
<circle clip-path="url(#clip722)" cx="237.724" cy="291.442" r="5.4" fill="#000000" fill-rule="evenodd" fill-opacity="1" stroke="none"/>
<circle clip-path="url(#clip722)" cx="244.682" cy="403.716" r="5.4" fill="#000000" fill-rule="evenodd" fill-opacity="1" stroke="none"/>
<circle clip-path="url(#clip722)" cx="251.64" cy="344.804" r="5.4" fill="#000000" fill-rule="evenodd" fill-opacity="1" stroke="none"/>
<circle clip-path="url(#clip722)" cx="258.598" cy="404.24" r="5.4" fill="#000000" fill-rule="evenodd" fill-opacity="1" stroke="none"/>
<circle clip-path="url(#clip722)" cx="265.556" cy="461.828" r="5.4" fill="#000000" fill-rule="evenodd" fill-opacity="1" stroke="none"/>
<circle clip-path="url(#clip722)" cx="272.514" cy="308.114" r="5.4" fill="#000000" fill-rule="evenodd" fill-opacity="1" stroke="none"/>
<circle clip-path="url(#clip722)" cx="279.472" cy="270.432" r="5.4" fill="#000000" fill-rule="evenodd" fill-opacity="1" stroke="none"/>
<circle clip-path="url(#clip722)" cx="286.43" cy="505.066" r="5.4" fill="#000000" fill-rule="evenodd" fill-opacity="1" stroke="none"/>
<circle clip-path="url(#clip722)" cx="293.388" cy="335.985" r="5.4" fill="#000000" fill-rule="evenodd" fill-opacity="1" stroke="none"/>
<circle clip-path="url(#clip722)" cx="300.346" cy="323.113" r="5.4" fill="#000000" fill-rule="evenodd" fill-opacity="1" stroke="none"/>
<circle clip-path="url(#clip722)" cx="307.304" cy="343.51" r="5.4" fill="#000000" fill-rule="evenodd" fill-opacity="1" stroke="none"/>
<circle clip-path="url(#clip722)" cx="314.262" cy="338.579" r="5.4" fill="#000000" fill-rule="evenodd" fill-opacity="1" stroke="none"/>
<circle clip-path="url(#clip722)" cx="321.22" cy="450.618" r="5.4" fill="#000000" fill-rule="evenodd" fill-opacity="1" stroke="none"/>
<circle clip-path="url(#clip722)" cx="328.178" cy="321.942" r="5.4" fill="#000000" fill-rule="evenodd" fill-opacity="1" stroke="none"/>
<circle clip-path="url(#clip722)" cx="335.136" cy="528.387" r="5.4" fill="#000000" fill-rule="evenodd" fill-opacity="1" stroke="none"/>
<circle clip-path="url(#clip722)" cx="342.094" cy="449.217" r="5.4" fill="#000000" fill-rule="evenodd" fill-opacity="1" stroke="none"/>
<circle clip-path="url(#clip722)" cx="349.052" cy="380.214" r="5.4" fill="#000000" fill-rule="evenodd" fill-opacity="1" stroke="none"/>
<circle clip-path="url(#clip722)" cx="356.01" cy="303.34" r="5.4" fill="#000000" fill-rule="evenodd" fill-opacity="1" stroke="none"/>
<circle clip-path="url(#clip722)" cx="362.968" cy="329.757" r="5.4" fill="#000000" fill-rule="evenodd" fill-opacity="1" stroke="none"/>
<circle clip-path="url(#clip722)" cx="369.926" cy="403.255" r="5.4" fill="#000000" fill-rule="evenodd" fill-opacity="1" stroke="none"/>
<circle clip-path="url(#clip722)" cx="376.884" cy="480.419" r="5.4" fill="#000000" fill-rule="evenodd" fill-opacity="1" stroke="none"/>
<circle clip-path="url(#clip722)" cx="383.842" cy="544.144" r="5.4" fill="#000000" fill-rule="evenodd" fill-opacity="1" stroke="none"/>
<circle clip-path="url(#clip722)" cx="390.8" cy="368.128" r="5.4" fill="#000000" fill-rule="evenodd" fill-opacity="1" stroke="none"/>
<circle clip-path="url(#clip722)" cx="397.758" cy="310.471" r="5.4" fill="#000000" fill-rule="evenodd" fill-opacity="1" stroke="none"/>
<circle clip-path="url(#clip722)" cx="404.716" cy="449.361" r="5.4" fill="#000000" fill-rule="evenodd" fill-opacity="1" stroke="none"/>
<circle clip-path="url(#clip722)" cx="411.674" cy="498.156" r="5.4" fill="#000000" fill-rule="evenodd" fill-opacity="1" stroke="none"/>
<circle clip-path="url(#clip722)" cx="418.632" cy="371.136" r="5.4" fill="#000000" fill-rule="evenodd" fill-opacity="1" stroke="none"/>
<circle clip-path="url(#clip722)" cx="425.59" cy="525.715" r="5.4" fill="#000000" fill-rule="evenodd" fill-opacity="1" stroke="none"/>
<circle clip-path="url(#clip722)" cx="432.548" cy="655.072" r="5.4" fill="#000000" fill-rule="evenodd" fill-opacity="1" stroke="none"/>
<circle clip-path="url(#clip722)" cx="439.506" cy="459.639" r="5.4" fill="#000000" fill-rule="evenodd" fill-opacity="1" stroke="none"/>
<circle clip-path="url(#clip722)" cx="446.464" cy="479.856" r="5.4" fill="#000000" fill-rule="evenodd" fill-opacity="1" stroke="none"/>
<circle clip-path="url(#clip722)" cx="453.422" cy="613.739" r="5.4" fill="#000000" fill-rule="evenodd" fill-opacity="1" stroke="none"/>
<circle clip-path="url(#clip722)" cx="460.381" cy="476.72" r="5.4" fill="#000000" fill-rule="evenodd" fill-opacity="1" stroke="none"/>
<circle clip-path="url(#clip722)" cx="467.339" cy="433.117" r="5.4" fill="#000000" fill-rule="evenodd" fill-opacity="1" stroke="none"/>
<circle clip-path="url(#clip722)" cx="474.297" cy="389.142" r="5.4" fill="#000000" fill-rule="evenodd" fill-opacity="1" stroke="none"/>
<circle clip-path="url(#clip722)" cx="481.255" cy="574.308" r="5.4" fill="#000000" fill-rule="evenodd" fill-opacity="1" stroke="none"/>
<circle clip-path="url(#clip722)" cx="488.213" cy="585.489" r="5.4" fill="#000000" fill-rule="evenodd" fill-opacity="1" stroke="none"/>
<circle clip-path="url(#clip722)" cx="495.171" cy="645.997" r="5.4" fill="#000000" fill-rule="evenodd" fill-opacity="1" stroke="none"/>
<circle clip-path="url(#clip722)" cx="502.129" cy="604.248" r="5.4" fill="#000000" fill-rule="evenodd" fill-opacity="1" stroke="none"/>
<circle clip-path="url(#clip722)" cx="509.087" cy="513.911" r="5.4" fill="#000000" fill-rule="evenodd" fill-opacity="1" stroke="none"/>
<circle clip-path="url(#clip722)" cx="516.045" cy="648.088" r="5.4" fill="#000000" fill-rule="evenodd" fill-opacity="1" stroke="none"/>
<circle clip-path="url(#clip722)" cx="523.003" cy="663.493" r="5.4" fill="#000000" fill-rule="evenodd" fill-opacity="1" stroke="none"/>
<circle clip-path="url(#clip722)" cx="529.961" cy="768.456" r="5.4" fill="#000000" fill-rule="evenodd" fill-opacity="1" stroke="none"/>
<circle clip-path="url(#clip722)" cx="536.919" cy="690.015" r="5.4" fill="#000000" fill-rule="evenodd" fill-opacity="1" stroke="none"/>
<circle clip-path="url(#clip722)" cx="543.877" cy="629.79" r="5.4" fill="#000000" fill-rule="evenodd" fill-opacity="1" stroke="none"/>
<circle clip-path="url(#clip722)" cx="550.835" cy="726.303" r="5.4" fill="#000000" fill-rule="evenodd" fill-opacity="1" stroke="none"/>
<circle clip-path="url(#clip722)" cx="557.793" cy="720.876" r="5.4" fill="#000000" fill-rule="evenodd" fill-opacity="1" stroke="none"/>
<circle clip-path="url(#clip722)" cx="564.751" cy="843.841" r="5.4" fill="#000000" fill-rule="evenodd" fill-opacity="1" stroke="none"/>
<circle clip-path="url(#clip722)" cx="571.709" cy="637.972" r="5.4" fill="#000000" fill-rule="evenodd" fill-opacity="1" stroke="none"/>
<circle clip-path="url(#clip722)" cx="578.667" cy="677.693" r="5.4" fill="#000000" fill-rule="evenodd" fill-opacity="1" stroke="none"/>
<circle clip-path="url(#clip722)" cx="585.625" cy="634.499" r="5.4" fill="#000000" fill-rule="evenodd" fill-opacity="1" stroke="none"/>
<circle clip-path="url(#clip722)" cx="592.583" cy="670.201" r="5.4" fill="#000000" fill-rule="evenodd" fill-opacity="1" stroke="none"/>
<circle clip-path="url(#clip722)" cx="599.541" cy="826.71" r="5.4" fill="#000000" fill-rule="evenodd" fill-opacity="1" stroke="none"/>
<circle clip-path="url(#clip722)" cx="606.499" cy="880.69" r="5.4" fill="#000000" fill-rule="evenodd" fill-opacity="1" stroke="none"/>
<circle clip-path="url(#clip722)" cx="613.457" cy="781.318" r="5.4" fill="#000000" fill-rule="evenodd" fill-opacity="1" stroke="none"/>
<circle clip-path="url(#clip722)" cx="620.415" cy="782.995" r="5.4" fill="#000000" fill-rule="evenodd" fill-opacity="1" stroke="none"/>
<circle clip-path="url(#clip722)" cx="627.373" cy="951.58" r="5.4" fill="#000000" fill-rule="evenodd" fill-opacity="1" stroke="none"/>
<circle clip-path="url(#clip722)" cx="634.331" cy="903.105" r="5.4" fill="#000000" fill-rule="evenodd" fill-opacity="1" stroke="none"/>
<circle clip-path="url(#clip722)" cx="641.289" cy="820.98" r="5.4" fill="#000000" fill-rule="evenodd" fill-opacity="1" stroke="none"/>
<circle clip-path="url(#clip722)" cx="648.247" cy="847.824" r="5.4" fill="#000000" fill-rule="evenodd" fill-opacity="1" stroke="none"/>
<circle clip-path="url(#clip722)" cx="655.205" cy="811.062" r="5.4" fill="#000000" fill-rule="evenodd" fill-opacity="1" stroke="none"/>
<circle clip-path="url(#clip722)" cx="662.163" cy="972.048" r="5.4" fill="#000000" fill-rule="evenodd" fill-opacity="1" stroke="none"/>
<circle clip-path="url(#clip722)" cx="669.121" cy="804.815" r="5.4" fill="#000000" fill-rule="evenodd" fill-opacity="1" stroke="none"/>
<circle clip-path="url(#clip722)" cx="676.079" cy="737.078" r="5.4" fill="#000000" fill-rule="evenodd" fill-opacity="1" stroke="none"/>
<circle clip-path="url(#clip722)" cx="683.037" cy="747.401" r="5.4" fill="#000000" fill-rule="evenodd" fill-opacity="1" stroke="none"/>
<circle clip-path="url(#clip722)" cx="689.996" cy="902.739" r="5.4" fill="#000000" fill-rule="evenodd" fill-opacity="1" stroke="none"/>
<circle clip-path="url(#clip722)" cx="696.954" cy="979.827" r="5.4" fill="#000000" fill-rule="evenodd" fill-opacity="1" stroke="none"/>
<circle clip-path="url(#clip722)" cx="703.912" cy="930.888" r="5.4" fill="#000000" fill-rule="evenodd" fill-opacity="1" stroke="none"/>
<circle clip-path="url(#clip722)" cx="710.87" cy="1068.85" r="5.4" fill="#000000" fill-rule="evenodd" fill-opacity="1" stroke="none"/>
<circle clip-path="url(#clip722)" cx="717.828" cy="946.988" r="5.4" fill="#000000" fill-rule="evenodd" fill-opacity="1" stroke="none"/>
<circle clip-path="url(#clip722)" cx="724.786" cy="929.609" r="5.4" fill="#000000" fill-rule="evenodd" fill-opacity="1" stroke="none"/>
<circle clip-path="url(#clip722)" cx="731.744" cy="923.989" r="5.4" fill="#000000" fill-rule="evenodd" fill-opacity="1" stroke="none"/>
<circle clip-path="url(#clip722)" cx="738.702" cy="974.329" r="5.4" fill="#000000" fill-rule="evenodd" fill-opacity="1" stroke="none"/>
<circle clip-path="url(#clip722)" cx="745.66" cy="874.548" r="5.4" fill="#000000" fill-rule="evenodd" fill-opacity="1" stroke="none"/>
<circle clip-path="url(#clip722)" cx="752.618" cy="1061.19" r="5.4" fill="#000000" fill-rule="evenodd" fill-opacity="1" stroke="none"/>
<circle clip-path="url(#clip722)" cx="759.576" cy="1053.27" r="5.4" fill="#000000" fill-rule="evenodd" fill-opacity="1" stroke="none"/>
<circle clip-path="url(#clip722)" cx="766.534" cy="1195.71" r="5.4" fill="#000000" fill-rule="evenodd" fill-opacity="1" stroke="none"/>
<circle clip-path="url(#clip722)" cx="773.492" cy="1155.73" r="5.4" fill="#000000" fill-rule="evenodd" fill-opacity="1" stroke="none"/>
<circle clip-path="url(#clip722)" cx="780.45" cy="947.42" r="5.4" fill="#000000" fill-rule="evenodd" fill-opacity="1" stroke="none"/>
<circle clip-path="url(#clip722)" cx="787.408" cy="1150.33" r="5.4" fill="#000000" fill-rule="evenodd" fill-opacity="1" stroke="none"/>
<circle clip-path="url(#clip722)" cx="794.366" cy="1122.97" r="5.4" fill="#000000" fill-rule="evenodd" fill-opacity="1" stroke="none"/>
<circle clip-path="url(#clip722)" cx="801.324" cy="1201.18" r="5.4" fill="#000000" fill-rule="evenodd" fill-opacity="1" stroke="none"/>
<circle clip-path="url(#clip722)" cx="808.282" cy="995.576" r="5.4" fill="#000000" fill-rule="evenodd" fill-opacity="1" stroke="none"/>
<circle clip-path="url(#clip722)" cx="815.24" cy="1187.62" r="5.4" fill="#000000" fill-rule="evenodd" fill-opacity="1" stroke="none"/>
<circle clip-path="url(#clip722)" cx="822.198" cy="1155.23" r="5.4" fill="#000000" fill-rule="evenodd" fill-opacity="1" stroke="none"/>
<circle clip-path="url(#clip722)" cx="829.156" cy="952.27" r="5.4" fill="#000000" fill-rule="evenodd" fill-opacity="1" stroke="none"/>
<circle clip-path="url(#clip722)" cx="836.114" cy="1094.16" r="5.4" fill="#000000" fill-rule="evenodd" fill-opacity="1" stroke="none"/>
<circle clip-path="url(#clip722)" cx="843.072" cy="1288.26" r="5.4" fill="#000000" fill-rule="evenodd" fill-opacity="1" stroke="none"/>
<circle clip-path="url(#clip722)" cx="850.03" cy="1183.9" r="5.4" fill="#000000" fill-rule="evenodd" fill-opacity="1" stroke="none"/>
<circle clip-path="url(#clip722)" cx="856.988" cy="1104.13" r="5.4" fill="#000000" fill-rule="evenodd" fill-opacity="1" stroke="none"/>
<circle clip-path="url(#clip722)" cx="863.946" cy="1186.05" r="5.4" fill="#000000" fill-rule="evenodd" fill-opacity="1" stroke="none"/>
<circle clip-path="url(#clip722)" cx="870.904" cy="1019.53" r="5.4" fill="#000000" fill-rule="evenodd" fill-opacity="1" stroke="none"/>
<circle clip-path="url(#clip722)" cx="877.862" cy="1198.79" r="5.4" fill="#000000" fill-rule="evenodd" fill-opacity="1" stroke="none"/>
<circle clip-path="url(#clip722)" cx="884.82" cy="1196.76" r="5.4" fill="#000000" fill-rule="evenodd" fill-opacity="1" stroke="none"/>
<circle clip-path="url(#clip722)" cx="891.778" cy="1205.52" r="5.4" fill="#000000" fill-rule="evenodd" fill-opacity="1" stroke="none"/>
<circle clip-path="url(#clip722)" cx="898.736" cy="1164.51" r="5.4" fill="#000000" fill-rule="evenodd" fill-opacity="1" stroke="none"/>
<circle clip-path="url(#clip722)" cx="905.694" cy="1175.78" r="5.4" fill="#000000" fill-rule="evenodd" fill-opacity="1" stroke="none"/>
<circle clip-path="url(#clip722)" cx="912.652" cy="1262.19" r="5.4" fill="#000000" fill-rule="evenodd" fill-opacity="1" stroke="none"/>
<circle clip-path="url(#clip722)" cx="919.61" cy="1228.98" r="5.4" fill="#000000" fill-rule="evenodd" fill-opacity="1" stroke="none"/>
<circle clip-path="url(#clip722)" cx="926.569" cy="1178.09" r="5.4" fill="#000000" fill-rule="evenodd" fill-opacity="1" stroke="none"/>
<circle clip-path="url(#clip722)" cx="933.527" cy="1275.61" r="5.4" fill="#000000" fill-rule="evenodd" fill-opacity="1" stroke="none"/>
<circle clip-path="url(#clip722)" cx="940.485" cy="1286.58" r="5.4" fill="#000000" fill-rule="evenodd" fill-opacity="1" stroke="none"/>
<circle clip-path="url(#clip722)" cx="947.443" cy="1210.06" r="5.4" fill="#000000" fill-rule="evenodd" fill-opacity="1" stroke="none"/>
<circle clip-path="url(#clip722)" cx="954.401" cy="1094.27" r="5.4" fill="#000000" fill-rule="evenodd" fill-opacity="1" stroke="none"/>
<circle clip-path="url(#clip722)" cx="961.359" cy="1270.67" r="5.4" fill="#000000" fill-rule="evenodd" fill-opacity="1" stroke="none"/>
<circle clip-path="url(#clip722)" cx="968.317" cy="1209.03" r="5.4" fill="#000000" fill-rule="evenodd" fill-opacity="1" stroke="none"/>
<circle clip-path="url(#clip722)" cx="975.275" cy="1180.9" r="5.4" fill="#000000" fill-rule="evenodd" fill-opacity="1" stroke="none"/>
<circle clip-path="url(#clip722)" cx="982.233" cy="1157.59" r="5.4" fill="#000000" fill-rule="evenodd" fill-opacity="1" stroke="none"/>
<circle clip-path="url(#clip722)" cx="989.191" cy="1309.55" r="5.4" fill="#000000" fill-rule="evenodd" fill-opacity="1" stroke="none"/>
<circle clip-path="url(#clip722)" cx="996.149" cy="1385.91" r="5.4" fill="#000000" fill-rule="evenodd" fill-opacity="1" stroke="none"/>
<circle clip-path="url(#clip722)" cx="1003.11" cy="1008.55" r="5.4" fill="#000000" fill-rule="evenodd" fill-opacity="1" stroke="none"/>
<circle clip-path="url(#clip722)" cx="1010.06" cy="1445.72" r="5.4" fill="#000000" fill-rule="evenodd" fill-opacity="1" stroke="none"/>
<circle clip-path="url(#clip722)" cx="1017.02" cy="1265.79" r="5.4" fill="#000000" fill-rule="evenodd" fill-opacity="1" stroke="none"/>
<circle clip-path="url(#clip722)" cx="1023.98" cy="1372.39" r="5.4" fill="#000000" fill-rule="evenodd" fill-opacity="1" stroke="none"/>
<circle clip-path="url(#clip722)" cx="1030.94" cy="1203.74" r="5.4" fill="#000000" fill-rule="evenodd" fill-opacity="1" stroke="none"/>
<circle clip-path="url(#clip722)" cx="1037.9" cy="1128.68" r="5.4" fill="#000000" fill-rule="evenodd" fill-opacity="1" stroke="none"/>
<circle clip-path="url(#clip722)" cx="1044.86" cy="1177.64" r="5.4" fill="#000000" fill-rule="evenodd" fill-opacity="1" stroke="none"/>
<circle clip-path="url(#clip722)" cx="1051.81" cy="1219.94" r="5.4" fill="#000000" fill-rule="evenodd" fill-opacity="1" stroke="none"/>
<circle clip-path="url(#clip722)" cx="1058.77" cy="1333.24" r="5.4" fill="#000000" fill-rule="evenodd" fill-opacity="1" stroke="none"/>
<circle clip-path="url(#clip722)" cx="1065.73" cy="1116.68" r="5.4" fill="#000000" fill-rule="evenodd" fill-opacity="1" stroke="none"/>
<circle clip-path="url(#clip722)" cx="1072.69" cy="1199.61" r="5.4" fill="#000000" fill-rule="evenodd" fill-opacity="1" stroke="none"/>
<circle clip-path="url(#clip722)" cx="1079.65" cy="1258.15" r="5.4" fill="#000000" fill-rule="evenodd" fill-opacity="1" stroke="none"/>
<circle clip-path="url(#clip722)" cx="1086.6" cy="1330.49" r="5.4" fill="#000000" fill-rule="evenodd" fill-opacity="1" stroke="none"/>
<circle clip-path="url(#clip722)" cx="1093.56" cy="1250.29" r="5.4" fill="#000000" fill-rule="evenodd" fill-opacity="1" stroke="none"/>
<circle clip-path="url(#clip722)" cx="1100.52" cy="1153.78" r="5.4" fill="#000000" fill-rule="evenodd" fill-opacity="1" stroke="none"/>
<circle clip-path="url(#clip722)" cx="1107.48" cy="1310.93" r="5.4" fill="#000000" fill-rule="evenodd" fill-opacity="1" stroke="none"/>
<circle clip-path="url(#clip722)" cx="1114.44" cy="1210.55" r="5.4" fill="#000000" fill-rule="evenodd" fill-opacity="1" stroke="none"/>
<circle clip-path="url(#clip722)" cx="1121.39" cy="1231.2" r="5.4" fill="#000000" fill-rule="evenodd" fill-opacity="1" stroke="none"/>
<circle clip-path="url(#clip722)" cx="1128.35" cy="1120.8" r="5.4" fill="#000000" fill-rule="evenodd" fill-opacity="1" stroke="none"/>
<circle clip-path="url(#clip722)" cx="1135.31" cy="1226.05" r="5.4" fill="#000000" fill-rule="evenodd" fill-opacity="1" stroke="none"/>
<circle clip-path="url(#clip722)" cx="1142.27" cy="1152.21" r="5.4" fill="#000000" fill-rule="evenodd" fill-opacity="1" stroke="none"/>
<circle clip-path="url(#clip722)" cx="1149.23" cy="1010.8" r="5.4" fill="#000000" fill-rule="evenodd" fill-opacity="1" stroke="none"/>
<circle clip-path="url(#clip722)" cx="1156.18" cy="1168.06" r="5.4" fill="#000000" fill-rule="evenodd" fill-opacity="1" stroke="none"/>
<circle clip-path="url(#clip722)" cx="1163.14" cy="1221.33" r="5.4" fill="#000000" fill-rule="evenodd" fill-opacity="1" stroke="none"/>
<circle clip-path="url(#clip722)" cx="1170.1" cy="1052.91" r="5.4" fill="#000000" fill-rule="evenodd" fill-opacity="1" stroke="none"/>
<circle clip-path="url(#clip722)" cx="1177.06" cy="1292.31" r="5.4" fill="#000000" fill-rule="evenodd" fill-opacity="1" stroke="none"/>
<circle clip-path="url(#clip722)" cx="1184.02" cy="1141.6" r="5.4" fill="#000000" fill-rule="evenodd" fill-opacity="1" stroke="none"/>
<circle clip-path="url(#clip722)" cx="1190.97" cy="1153.16" r="5.4" fill="#000000" fill-rule="evenodd" fill-opacity="1" stroke="none"/>
<circle clip-path="url(#clip722)" cx="1197.93" cy="1321.05" r="5.4" fill="#000000" fill-rule="evenodd" fill-opacity="1" stroke="none"/>
<circle clip-path="url(#clip722)" cx="1204.89" cy="1146.16" r="5.4" fill="#000000" fill-rule="evenodd" fill-opacity="1" stroke="none"/>
<circle clip-path="url(#clip722)" cx="1211.85" cy="1221.34" r="5.4" fill="#000000" fill-rule="evenodd" fill-opacity="1" stroke="none"/>
<circle clip-path="url(#clip722)" cx="1218.81" cy="1063.1" r="5.4" fill="#000000" fill-rule="evenodd" fill-opacity="1" stroke="none"/>
<circle clip-path="url(#clip722)" cx="1225.76" cy="1039.09" r="5.4" fill="#000000" fill-rule="evenodd" fill-opacity="1" stroke="none"/>
<circle clip-path="url(#clip722)" cx="1232.72" cy="1106.46" r="5.4" fill="#000000" fill-rule="evenodd" fill-opacity="1" stroke="none"/>
<circle clip-path="url(#clip722)" cx="1239.68" cy="1062.54" r="5.4" fill="#000000" fill-rule="evenodd" fill-opacity="1" stroke="none"/>
<circle clip-path="url(#clip722)" cx="1246.64" cy="996.456" r="5.4" fill="#000000" fill-rule="evenodd" fill-opacity="1" stroke="none"/>
<circle clip-path="url(#clip722)" cx="1253.6" cy="1108.34" r="5.4" fill="#000000" fill-rule="evenodd" fill-opacity="1" stroke="none"/>
<circle clip-path="url(#clip722)" cx="1260.55" cy="866.205" r="5.4" fill="#000000" fill-rule="evenodd" fill-opacity="1" stroke="none"/>
<circle clip-path="url(#clip722)" cx="1267.51" cy="986.912" r="5.4" fill="#000000" fill-rule="evenodd" fill-opacity="1" stroke="none"/>
<circle clip-path="url(#clip722)" cx="1274.47" cy="948.497" r="5.4" fill="#000000" fill-rule="evenodd" fill-opacity="1" stroke="none"/>
<circle clip-path="url(#clip722)" cx="1281.43" cy="979.201" r="5.4" fill="#000000" fill-rule="evenodd" fill-opacity="1" stroke="none"/>
<circle clip-path="url(#clip722)" cx="1288.39" cy="1102.13" r="5.4" fill="#000000" fill-rule="evenodd" fill-opacity="1" stroke="none"/>
<circle clip-path="url(#clip722)" cx="1295.34" cy="1041.18" r="5.4" fill="#000000" fill-rule="evenodd" fill-opacity="1" stroke="none"/>
<circle clip-path="url(#clip722)" cx="1302.3" cy="903.761" r="5.4" fill="#000000" fill-rule="evenodd" fill-opacity="1" stroke="none"/>
<circle clip-path="url(#clip722)" cx="1309.26" cy="1156.89" r="5.4" fill="#000000" fill-rule="evenodd" fill-opacity="1" stroke="none"/>
<circle clip-path="url(#clip722)" cx="1316.22" cy="859.145" r="5.4" fill="#000000" fill-rule="evenodd" fill-opacity="1" stroke="none"/>
<circle clip-path="url(#clip722)" cx="1323.18" cy="1044.79" r="5.4" fill="#000000" fill-rule="evenodd" fill-opacity="1" stroke="none"/>
<circle clip-path="url(#clip722)" cx="1330.13" cy="898.03" r="5.4" fill="#000000" fill-rule="evenodd" fill-opacity="1" stroke="none"/>
<circle clip-path="url(#clip722)" cx="1337.09" cy="1030.34" r="5.4" fill="#000000" fill-rule="evenodd" fill-opacity="1" stroke="none"/>
<circle clip-path="url(#clip722)" cx="1344.05" cy="1000.32" r="5.4" fill="#000000" fill-rule="evenodd" fill-opacity="1" stroke="none"/>
<circle clip-path="url(#clip722)" cx="1351.01" cy="865.278" r="5.4" fill="#000000" fill-rule="evenodd" fill-opacity="1" stroke="none"/>
<circle clip-path="url(#clip722)" cx="1357.97" cy="897.193" r="5.4" fill="#000000" fill-rule="evenodd" fill-opacity="1" stroke="none"/>
<circle clip-path="url(#clip722)" cx="1364.92" cy="795.348" r="5.4" fill="#000000" fill-rule="evenodd" fill-opacity="1" stroke="none"/>
<circle clip-path="url(#clip722)" cx="1371.88" cy="958.335" r="5.4" fill="#000000" fill-rule="evenodd" fill-opacity="1" stroke="none"/>
<circle clip-path="url(#clip722)" cx="1378.84" cy="950.461" r="5.4" fill="#000000" fill-rule="evenodd" fill-opacity="1" stroke="none"/>
<circle clip-path="url(#clip722)" cx="1385.8" cy="651.596" r="5.4" fill="#000000" fill-rule="evenodd" fill-opacity="1" stroke="none"/>
<circle clip-path="url(#clip722)" cx="1392.76" cy="723.246" r="5.4" fill="#000000" fill-rule="evenodd" fill-opacity="1" stroke="none"/>
<circle clip-path="url(#clip722)" cx="1399.71" cy="759.046" r="5.4" fill="#000000" fill-rule="evenodd" fill-opacity="1" stroke="none"/>
<circle clip-path="url(#clip722)" cx="1406.67" cy="754.687" r="5.4" fill="#000000" fill-rule="evenodd" fill-opacity="1" stroke="none"/>
<circle clip-path="url(#clip722)" cx="1413.63" cy="785.168" r="5.4" fill="#000000" fill-rule="evenodd" fill-opacity="1" stroke="none"/>
<circle clip-path="url(#clip722)" cx="1420.59" cy="772.16" r="5.4" fill="#000000" fill-rule="evenodd" fill-opacity="1" stroke="none"/>
<circle clip-path="url(#clip722)" cx="1427.55" cy="642.851" r="5.4" fill="#000000" fill-rule="evenodd" fill-opacity="1" stroke="none"/>
<circle clip-path="url(#clip722)" cx="1434.5" cy="746.463" r="5.4" fill="#000000" fill-rule="evenodd" fill-opacity="1" stroke="none"/>
<circle clip-path="url(#clip722)" cx="1441.46" cy="656.036" r="5.4" fill="#000000" fill-rule="evenodd" fill-opacity="1" stroke="none"/>
<circle clip-path="url(#clip722)" cx="1448.42" cy="764.223" r="5.4" fill="#000000" fill-rule="evenodd" fill-opacity="1" stroke="none"/>
<circle clip-path="url(#clip722)" cx="1455.38" cy="709.994" r="5.4" fill="#000000" fill-rule="evenodd" fill-opacity="1" stroke="none"/>
<circle clip-path="url(#clip722)" cx="1462.34" cy="640.047" r="5.4" fill="#000000" fill-rule="evenodd" fill-opacity="1" stroke="none"/>
<circle clip-path="url(#clip722)" cx="1469.29" cy="814.79" r="5.4" fill="#000000" fill-rule="evenodd" fill-opacity="1" stroke="none"/>
<circle clip-path="url(#clip722)" cx="1476.25" cy="714.95" r="5.4" fill="#000000" fill-rule="evenodd" fill-opacity="1" stroke="none"/>
<circle clip-path="url(#clip722)" cx="1483.21" cy="774.099" r="5.4" fill="#000000" fill-rule="evenodd" fill-opacity="1" stroke="none"/>
<circle clip-path="url(#clip722)" cx="1490.17" cy="665.696" r="5.4" fill="#000000" fill-rule="evenodd" fill-opacity="1" stroke="none"/>
<circle clip-path="url(#clip722)" cx="1497.13" cy="642.346" r="5.4" fill="#000000" fill-rule="evenodd" fill-opacity="1" stroke="none"/>
<circle clip-path="url(#clip722)" cx="1504.09" cy="716.778" r="5.4" fill="#000000" fill-rule="evenodd" fill-opacity="1" stroke="none"/>
<circle clip-path="url(#clip722)" cx="1511.04" cy="717.636" r="5.4" fill="#000000" fill-rule="evenodd" fill-opacity="1" stroke="none"/>
<circle clip-path="url(#clip722)" cx="1518" cy="661.07" r="5.4" fill="#000000" fill-rule="evenodd" fill-opacity="1" stroke="none"/>
<circle clip-path="url(#clip722)" cx="1524.96" cy="651.977" r="5.4" fill="#000000" fill-rule="evenodd" fill-opacity="1" stroke="none"/>
<circle clip-path="url(#clip722)" cx="1531.92" cy="646.714" r="5.4" fill="#000000" fill-rule="evenodd" fill-opacity="1" stroke="none"/>
<circle clip-path="url(#clip722)" cx="1538.88" cy="592.315" r="5.4" fill="#000000" fill-rule="evenodd" fill-opacity="1" stroke="none"/>
<circle clip-path="url(#clip722)" cx="1545.83" cy="473.81" r="5.4" fill="#000000" fill-rule="evenodd" fill-opacity="1" stroke="none"/>
<circle clip-path="url(#clip722)" cx="1552.79" cy="544.373" r="5.4" fill="#000000" fill-rule="evenodd" fill-opacity="1" stroke="none"/>
<circle clip-path="url(#clip722)" cx="1559.75" cy="499.369" r="5.4" fill="#000000" fill-rule="evenodd" fill-opacity="1" stroke="none"/>
<circle clip-path="url(#clip722)" cx="1566.71" cy="521.098" r="5.4" fill="#000000" fill-rule="evenodd" fill-opacity="1" stroke="none"/>
<circle clip-path="url(#clip722)" cx="1573.67" cy="509.021" r="5.4" fill="#000000" fill-rule="evenodd" fill-opacity="1" stroke="none"/>
<circle clip-path="url(#clip722)" cx="1580.62" cy="525.758" r="5.4" fill="#000000" fill-rule="evenodd" fill-opacity="1" stroke="none"/>
<circle clip-path="url(#clip722)" cx="1587.58" cy="337.658" r="5.4" fill="#000000" fill-rule="evenodd" fill-opacity="1" stroke="none"/>
<circle clip-path="url(#clip722)" cx="1594.54" cy="549.893" r="5.4" fill="#000000" fill-rule="evenodd" fill-opacity="1" stroke="none"/>
<circle clip-path="url(#clip722)" cx="1601.5" cy="440.971" r="5.4" fill="#000000" fill-rule="evenodd" fill-opacity="1" stroke="none"/>
<circle clip-path="url(#clip722)" cx="1608.46" cy="384.328" r="5.4" fill="#000000" fill-rule="evenodd" fill-opacity="1" stroke="none"/>
<circle clip-path="url(#clip722)" cx="1615.41" cy="446.358" r="5.4" fill="#000000" fill-rule="evenodd" fill-opacity="1" stroke="none"/>
<circle clip-path="url(#clip722)" cx="1622.37" cy="556.756" r="5.4" fill="#000000" fill-rule="evenodd" fill-opacity="1" stroke="none"/>
<circle clip-path="url(#clip722)" cx="1629.33" cy="484.593" r="5.4" fill="#000000" fill-rule="evenodd" fill-opacity="1" stroke="none"/>
<circle clip-path="url(#clip722)" cx="1636.29" cy="425.269" r="5.4" fill="#000000" fill-rule="evenodd" fill-opacity="1" stroke="none"/>
<circle clip-path="url(#clip722)" cx="1643.25" cy="486.789" r="5.4" fill="#000000" fill-rule="evenodd" fill-opacity="1" stroke="none"/>
<circle clip-path="url(#clip722)" cx="1650.2" cy="409.808" r="5.4" fill="#000000" fill-rule="evenodd" fill-opacity="1" stroke="none"/>
<circle clip-path="url(#clip722)" cx="1657.16" cy="423.759" r="5.4" fill="#000000" fill-rule="evenodd" fill-opacity="1" stroke="none"/>
<circle clip-path="url(#clip722)" cx="1664.12" cy="345.71" r="5.4" fill="#000000" fill-rule="evenodd" fill-opacity="1" stroke="none"/>
<circle clip-path="url(#clip722)" cx="1671.08" cy="378.839" r="5.4" fill="#000000" fill-rule="evenodd" fill-opacity="1" stroke="none"/>
<circle clip-path="url(#clip722)" cx="1678.04" cy="352.364" r="5.4" fill="#000000" fill-rule="evenodd" fill-opacity="1" stroke="none"/>
<circle clip-path="url(#clip722)" cx="1684.99" cy="352.81" r="5.4" fill="#000000" fill-rule="evenodd" fill-opacity="1" stroke="none"/>
<circle clip-path="url(#clip722)" cx="1691.95" cy="419.106" r="5.4" fill="#000000" fill-rule="evenodd" fill-opacity="1" stroke="none"/>
<circle clip-path="url(#clip722)" cx="1698.91" cy="474.636" r="5.4" fill="#000000" fill-rule="evenodd" fill-opacity="1" stroke="none"/>
<circle clip-path="url(#clip722)" cx="1705.87" cy="424.987" r="5.4" fill="#000000" fill-rule="evenodd" fill-opacity="1" stroke="none"/>
<circle clip-path="url(#clip722)" cx="1712.83" cy="252.594" r="5.4" fill="#000000" fill-rule="evenodd" fill-opacity="1" stroke="none"/>
<circle clip-path="url(#clip722)" cx="1719.78" cy="454.483" r="5.4" fill="#000000" fill-rule="evenodd" fill-opacity="1" stroke="none"/>
<circle clip-path="url(#clip722)" cx="1726.74" cy="424.303" r="5.4" fill="#000000" fill-rule="evenodd" fill-opacity="1" stroke="none"/>
<circle clip-path="url(#clip722)" cx="1733.7" cy="270.262" r="5.4" fill="#000000" fill-rule="evenodd" fill-opacity="1" stroke="none"/>
<circle clip-path="url(#clip722)" cx="1740.66" cy="365.502" r="5.4" fill="#000000" fill-rule="evenodd" fill-opacity="1" stroke="none"/>
<circle clip-path="url(#clip722)" cx="1747.62" cy="367.413" r="5.4" fill="#000000" fill-rule="evenodd" fill-opacity="1" stroke="none"/>
<circle clip-path="url(#clip722)" cx="1754.57" cy="343.064" r="5.4" fill="#000000" fill-rule="evenodd" fill-opacity="1" stroke="none"/>
<circle clip-path="url(#clip722)" cx="1761.53" cy="497.568" r="5.4" fill="#000000" fill-rule="evenodd" fill-opacity="1" stroke="none"/>
<circle clip-path="url(#clip722)" cx="1768.49" cy="451.567" r="5.4" fill="#000000" fill-rule="evenodd" fill-opacity="1" stroke="none"/>
<circle clip-path="url(#clip722)" cx="1775.45" cy="344.53" r="5.4" fill="#000000" fill-rule="evenodd" fill-opacity="1" stroke="none"/>
<circle clip-path="url(#clip722)" cx="1782.41" cy="405.386" r="5.4" fill="#000000" fill-rule="evenodd" fill-opacity="1" stroke="none"/>
<circle clip-path="url(#clip722)" cx="1789.36" cy="410.945" r="5.4" fill="#000000" fill-rule="evenodd" fill-opacity="1" stroke="none"/>
<circle clip-path="url(#clip722)" cx="1796.32" cy="341.045" r="5.4" fill="#000000" fill-rule="evenodd" fill-opacity="1" stroke="none"/>
<circle clip-path="url(#clip722)" cx="1803.28" cy="397.009" r="5.4" fill="#000000" fill-rule="evenodd" fill-opacity="1" stroke="none"/>
<circle clip-path="url(#clip722)" cx="1810.24" cy="243.09" r="5.4" fill="#000000" fill-rule="evenodd" fill-opacity="1" stroke="none"/>
<circle clip-path="url(#clip722)" cx="1817.2" cy="412.357" r="5.4" fill="#000000" fill-rule="evenodd" fill-opacity="1" stroke="none"/>
<circle clip-path="url(#clip722)" cx="1824.15" cy="309.097" r="5.4" fill="#000000" fill-rule="evenodd" fill-opacity="1" stroke="none"/>
<circle clip-path="url(#clip722)" cx="1831.11" cy="308.53" r="5.4" fill="#000000" fill-rule="evenodd" fill-opacity="1" stroke="none"/>
<circle clip-path="url(#clip722)" cx="1838.07" cy="373.191" r="5.4" fill="#000000" fill-rule="evenodd" fill-opacity="1" stroke="none"/>
<circle clip-path="url(#clip722)" cx="1845.03" cy="226.212" r="5.4" fill="#000000" fill-rule="evenodd" fill-opacity="1" stroke="none"/>
<circle clip-path="url(#clip722)" cx="1851.99" cy="247.663" r="5.4" fill="#000000" fill-rule="evenodd" fill-opacity="1" stroke="none"/>
<circle clip-path="url(#clip722)" cx="1858.94" cy="390.908" r="5.4" fill="#000000" fill-rule="evenodd" fill-opacity="1" stroke="none"/>
<circle clip-path="url(#clip722)" cx="1865.9" cy="222.889" r="5.4" fill="#000000" fill-rule="evenodd" fill-opacity="1" stroke="none"/>
<circle clip-path="url(#clip722)" cx="1872.86" cy="321.982" r="5.4" fill="#000000" fill-rule="evenodd" fill-opacity="1" stroke="none"/>
<circle clip-path="url(#clip722)" cx="1879.82" cy="310.21" r="5.4" fill="#000000" fill-rule="evenodd" fill-opacity="1" stroke="none"/>
<circle clip-path="url(#clip722)" cx="1886.78" cy="141.853" r="5.4" fill="#000000" fill-rule="evenodd" fill-opacity="1" stroke="none"/>
<circle clip-path="url(#clip722)" cx="1893.73" cy="244.331" r="5.4" fill="#000000" fill-rule="evenodd" fill-opacity="1" stroke="none"/>
<circle clip-path="url(#clip722)" cx="1900.69" cy="292.313" r="5.4" fill="#000000" fill-rule="evenodd" fill-opacity="1" stroke="none"/>
<circle clip-path="url(#clip722)" cx="1907.65" cy="305.48" r="5.4" fill="#000000" fill-rule="evenodd" fill-opacity="1" stroke="none"/>
<circle clip-path="url(#clip722)" cx="1914.61" cy="300.534" r="5.4" fill="#000000" fill-rule="evenodd" fill-opacity="1" stroke="none"/>
<circle clip-path="url(#clip722)" cx="1921.57" cy="537.244" r="5.4" fill="#000000" fill-rule="evenodd" fill-opacity="1" stroke="none"/>
<circle clip-path="url(#clip722)" cx="1928.52" cy="322.648" r="5.4" fill="#000000" fill-rule="evenodd" fill-opacity="1" stroke="none"/>
<circle clip-path="url(#clip722)" cx="1935.48" cy="239.22" r="5.4" fill="#000000" fill-rule="evenodd" fill-opacity="1" stroke="none"/>
<circle clip-path="url(#clip722)" cx="1942.44" cy="436.359" r="5.4" fill="#000000" fill-rule="evenodd" fill-opacity="1" stroke="none"/>
<circle clip-path="url(#clip722)" cx="1949.4" cy="329.271" r="5.4" fill="#000000" fill-rule="evenodd" fill-opacity="1" stroke="none"/>
<circle clip-path="url(#clip722)" cx="1956.36" cy="402.723" r="5.4" fill="#000000" fill-rule="evenodd" fill-opacity="1" stroke="none"/>
<circle clip-path="url(#clip722)" cx="1963.31" cy="303.698" r="5.4" fill="#000000" fill-rule="evenodd" fill-opacity="1" stroke="none"/>
<circle clip-path="url(#clip722)" cx="1970.27" cy="262.279" r="5.4" fill="#000000" fill-rule="evenodd" fill-opacity="1" stroke="none"/>
<circle clip-path="url(#clip722)" cx="1977.23" cy="549.053" r="5.4" fill="#000000" fill-rule="evenodd" fill-opacity="1" stroke="none"/>
<circle clip-path="url(#clip722)" cx="1984.19" cy="393.223" r="5.4" fill="#000000" fill-rule="evenodd" fill-opacity="1" stroke="none"/>
<circle clip-path="url(#clip722)" cx="1991.15" cy="375.8" r="5.4" fill="#000000" fill-rule="evenodd" fill-opacity="1" stroke="none"/>
<circle clip-path="url(#clip722)" cx="1998.11" cy="369.483" r="5.4" fill="#000000" fill-rule="evenodd" fill-opacity="1" stroke="none"/>
<circle clip-path="url(#clip722)" cx="2005.06" cy="167.836" r="5.4" fill="#000000" fill-rule="evenodd" fill-opacity="1" stroke="none"/>
<circle clip-path="url(#clip722)" cx="2012.02" cy="274.881" r="5.4" fill="#000000" fill-rule="evenodd" fill-opacity="1" stroke="none"/>
<circle clip-path="url(#clip722)" cx="2018.98" cy="408.519" r="5.4" fill="#000000" fill-rule="evenodd" fill-opacity="1" stroke="none"/>
<circle clip-path="url(#clip722)" cx="2025.94" cy="380.237" r="5.4" fill="#000000" fill-rule="evenodd" fill-opacity="1" stroke="none"/>
<circle clip-path="url(#clip722)" cx="2032.9" cy="459.445" r="5.4" fill="#000000" fill-rule="evenodd" fill-opacity="1" stroke="none"/>
<circle clip-path="url(#clip722)" cx="2039.85" cy="489.701" r="5.4" fill="#000000" fill-rule="evenodd" fill-opacity="1" stroke="none"/>
<circle clip-path="url(#clip722)" cx="2046.81" cy="486.879" r="5.4" fill="#000000" fill-rule="evenodd" fill-opacity="1" stroke="none"/>
<circle clip-path="url(#clip722)" cx="2053.77" cy="468.472" r="5.4" fill="#000000" fill-rule="evenodd" fill-opacity="1" stroke="none"/>
<circle clip-path="url(#clip722)" cx="2060.73" cy="411.106" r="5.4" fill="#000000" fill-rule="evenodd" fill-opacity="1" stroke="none"/>
<circle clip-path="url(#clip722)" cx="2067.69" cy="315.763" r="5.4" fill="#000000" fill-rule="evenodd" fill-opacity="1" stroke="none"/>
<circle clip-path="url(#clip722)" cx="2074.64" cy="393.935" r="5.4" fill="#000000" fill-rule="evenodd" fill-opacity="1" stroke="none"/>
<circle clip-path="url(#clip722)" cx="2081.6" cy="516.72" r="5.4" fill="#000000" fill-rule="evenodd" fill-opacity="1" stroke="none"/>
<circle clip-path="url(#clip722)" cx="2088.56" cy="392.311" r="5.4" fill="#000000" fill-rule="evenodd" fill-opacity="1" stroke="none"/>
<circle clip-path="url(#clip722)" cx="2095.52" cy="543.982" r="5.4" fill="#000000" fill-rule="evenodd" fill-opacity="1" stroke="none"/>
<circle clip-path="url(#clip722)" cx="2102.48" cy="456.391" r="5.4" fill="#000000" fill-rule="evenodd" fill-opacity="1" stroke="none"/>
<circle clip-path="url(#clip722)" cx="2109.43" cy="538.732" r="5.4" fill="#000000" fill-rule="evenodd" fill-opacity="1" stroke="none"/>
<circle clip-path="url(#clip722)" cx="2116.39" cy="433.633" r="5.4" fill="#000000" fill-rule="evenodd" fill-opacity="1" stroke="none"/>
<circle clip-path="url(#clip722)" cx="2123.35" cy="554.323" r="5.4" fill="#000000" fill-rule="evenodd" fill-opacity="1" stroke="none"/>
<circle clip-path="url(#clip722)" cx="2130.31" cy="521.833" r="5.4" fill="#000000" fill-rule="evenodd" fill-opacity="1" stroke="none"/>
<circle clip-path="url(#clip722)" cx="2137.27" cy="431.353" r="5.4" fill="#000000" fill-rule="evenodd" fill-opacity="1" stroke="none"/>
<circle clip-path="url(#clip722)" cx="2144.22" cy="620.333" r="5.4" fill="#000000" fill-rule="evenodd" fill-opacity="1" stroke="none"/>
<circle clip-path="url(#clip722)" cx="2151.18" cy="459.359" r="5.4" fill="#000000" fill-rule="evenodd" fill-opacity="1" stroke="none"/>
<circle clip-path="url(#clip722)" cx="2158.14" cy="539.852" r="5.4" fill="#000000" fill-rule="evenodd" fill-opacity="1" stroke="none"/>
<circle clip-path="url(#clip722)" cx="2165.1" cy="647.378" r="5.4" fill="#000000" fill-rule="evenodd" fill-opacity="1" stroke="none"/>
<circle clip-path="url(#clip722)" cx="2172.06" cy="419.98" r="5.4" fill="#000000" fill-rule="evenodd" fill-opacity="1" stroke="none"/>
<circle clip-path="url(#clip722)" cx="2179.01" cy="589.132" r="5.4" fill="#000000" fill-rule="evenodd" fill-opacity="1" stroke="none"/>
<circle clip-path="url(#clip722)" cx="2185.97" cy="581.996" r="5.4" fill="#000000" fill-rule="evenodd" fill-opacity="1" stroke="none"/>
<circle clip-path="url(#clip722)" cx="2192.93" cy="654.749" r="5.4" fill="#000000" fill-rule="evenodd" fill-opacity="1" stroke="none"/>
<circle clip-path="url(#clip722)" cx="2199.89" cy="732.673" r="5.4" fill="#000000" fill-rule="evenodd" fill-opacity="1" stroke="none"/>
<circle clip-path="url(#clip722)" cx="2206.85" cy="613.759" r="5.4" fill="#000000" fill-rule="evenodd" fill-opacity="1" stroke="none"/>
<circle clip-path="url(#clip722)" cx="2213.8" cy="817.8" r="5.4" fill="#000000" fill-rule="evenodd" fill-opacity="1" stroke="none"/>
<circle clip-path="url(#clip722)" cx="2220.76" cy="715.109" r="5.4" fill="#000000" fill-rule="evenodd" fill-opacity="1" stroke="none"/>
<circle clip-path="url(#clip722)" cx="2227.72" cy="657.328" r="5.4" fill="#000000" fill-rule="evenodd" fill-opacity="1" stroke="none"/>
<circle clip-path="url(#clip722)" cx="2234.68" cy="370.61" r="5.4" fill="#000000" fill-rule="evenodd" fill-opacity="1" stroke="none"/>
<circle clip-path="url(#clip722)" cx="2241.64" cy="708.884" r="5.4" fill="#000000" fill-rule="evenodd" fill-opacity="1" stroke="none"/>
<circle clip-path="url(#clip722)" cx="2248.59" cy="808.338" r="5.4" fill="#000000" fill-rule="evenodd" fill-opacity="1" stroke="none"/>
<circle clip-path="url(#clip722)" cx="2255.55" cy="764.888" r="5.4" fill="#000000" fill-rule="evenodd" fill-opacity="1" stroke="none"/>
<circle clip-path="url(#clip722)" cx="2262.51" cy="483.951" r="5.4" fill="#000000" fill-rule="evenodd" fill-opacity="1" stroke="none"/>
<circle clip-path="url(#clip722)" cx="2269.47" cy="781.479" r="5.4" fill="#000000" fill-rule="evenodd" fill-opacity="1" stroke="none"/>
<circle clip-path="url(#clip722)" cx="2276.43" cy="872.259" r="5.4" fill="#000000" fill-rule="evenodd" fill-opacity="1" stroke="none"/>
<circle clip-path="url(#clip722)" cx="2283.38" cy="556.358" r="5.4" fill="#000000" fill-rule="evenodd" fill-opacity="1" stroke="none"/>
<circle clip-path="url(#clip722)" cx="2290.34" cy="599.11" r="5.4" fill="#000000" fill-rule="evenodd" fill-opacity="1" stroke="none"/>
<path clip-path="url(#clip720)" d="M1495.15 1138.25 L2024.08 1138.25 L2024.08 930.887 L1495.15 930.887  Z" fill="#ffffff" fill-rule="evenodd" fill-opacity="1"/>
<polyline clip-path="url(#clip720)" style="stroke:#000000; stroke-linecap:round; stroke-linejoin:round; stroke-width:4; stroke-opacity:1; fill:none" points="1495.15,1138.25 2024.08,1138.25 2024.08,930.887 1495.15,930.887 1495.15,1138.25 "/>
<polyline clip-path="url(#clip720)" style="stroke:#0000ff; stroke-linecap:round; stroke-linejoin:round; stroke-width:8; stroke-opacity:1; fill:none" points="1519.65,982.727 1666.67,982.727 "/>
<path clip-path="url(#clip720)" d="M1713.42 966.581 L1713.42 971.141 Q1710.76 969.868 1708.39 969.243 Q1706.03 968.618 1703.83 968.618 Q1700.02 968.618 1697.93 970.099 Q1695.87 971.581 1695.87 974.312 Q1695.87 976.604 1697.24 977.784 Q1698.63 978.942 1702.47 979.659 L1705.29 980.238 Q1710.52 981.234 1713 983.757 Q1715.5 986.257 1715.5 990.47 Q1715.5 995.493 1712.12 998.085 Q1708.77 1000.68 1702.26 1000.68 Q1699.81 1000.68 1697.03 1000.12 Q1694.27 999.567 1691.31 998.479 L1691.31 993.664 Q1694.16 995.261 1696.89 996.071 Q1699.62 996.882 1702.26 996.882 Q1706.27 996.882 1708.44 995.308 Q1710.62 993.733 1710.62 990.817 Q1710.62 988.271 1709.04 986.835 Q1707.49 985.4 1703.93 984.683 L1701.08 984.127 Q1695.85 983.085 1693.51 980.863 Q1691.17 978.641 1691.17 974.683 Q1691.17 970.099 1694.39 967.46 Q1697.63 964.822 1703.3 964.822 Q1705.73 964.822 1708.26 965.261 Q1710.78 965.701 1713.42 966.581 Z" fill="#000000" fill-rule="nonzero" fill-opacity="1" /><path clip-path="url(#clip720)" d="M1746.36 995.076 L1746.36 985.794 L1738.72 985.794 L1738.72 981.951 L1750.99 981.951 L1750.99 996.789 Q1748.28 998.71 1745.01 999.706 Q1741.75 1000.68 1738.05 1000.68 Q1729.95 1000.68 1725.36 995.956 Q1720.8 991.21 1720.8 982.761 Q1720.8 974.289 1725.36 969.567 Q1729.95 964.822 1738.05 964.822 Q1741.43 964.822 1744.46 965.655 Q1747.51 966.488 1750.08 968.109 L1750.08 973.085 Q1747.49 970.886 1744.57 969.775 Q1741.66 968.664 1738.44 968.664 Q1732.1 968.664 1728.9 972.206 Q1725.73 975.747 1725.73 982.761 Q1725.73 989.752 1728.9 993.294 Q1732.1 996.835 1738.44 996.835 Q1740.92 996.835 1742.86 996.419 Q1744.81 995.979 1746.36 995.076 Z" fill="#000000" fill-rule="nonzero" fill-opacity="1" /><path clip-path="url(#clip720)" d="M1764.2 969.289 L1764.2 982.275 L1770.08 982.275 Q1773.35 982.275 1775.13 980.585 Q1776.91 978.896 1776.91 975.771 Q1776.91 972.669 1775.13 970.979 Q1773.35 969.289 1770.08 969.289 L1764.2 969.289 M1759.53 965.447 L1770.08 965.447 Q1775.89 965.447 1778.86 968.085 Q1781.84 970.701 1781.84 975.771 Q1781.84 980.886 1778.86 983.502 Q1775.89 986.118 1770.08 986.118 L1764.2 986.118 L1764.2 1000.01 L1759.53 1000.01 L1759.53 965.447 Z" fill="#000000" fill-rule="nonzero" fill-opacity="1" /><polyline clip-path="url(#clip720)" style="stroke:#008000; stroke-linecap:round; stroke-linejoin:round; stroke-width:8; stroke-opacity:1; fill:none" points="1519.65,1034.57 1666.67,1034.57 "/>
<path clip-path="url(#clip720)" d="M1691.17 1017.29 L1695.87 1017.29 L1695.87 1038.28 Q1695.87 1043.84 1697.89 1046.29 Q1699.9 1048.72 1704.41 1048.72 Q1708.9 1048.72 1710.92 1046.29 Q1712.93 1043.84 1712.93 1038.28 L1712.93 1017.29 L1717.63 1017.29 L1717.63 1038.86 Q1717.63 1045.62 1714.27 1049.07 Q1710.94 1052.52 1704.41 1052.52 Q1697.86 1052.52 1694.51 1049.07 Q1691.17 1045.62 1691.17 1038.86 L1691.17 1017.29 Z" fill="#000000" fill-rule="nonzero" fill-opacity="1" /><path clip-path="url(#clip720)" d="M1721.61 1017.29 L1750.85 1017.29 L1750.85 1021.22 L1738.58 1021.22 L1738.58 1051.85 L1733.88 1051.85 L1733.88 1021.22 L1721.61 1021.22 L1721.61 1017.29 Z" fill="#000000" fill-rule="nonzero" fill-opacity="1" /><circle clip-path="url(#clip720)" cx="1593.16" cy="1086.41" r="17.28" fill="#000000" fill-rule="evenodd" fill-opacity="1" stroke="none"/>
<path clip-path="url(#clip720)" d="M1707.19 1072.3 Q1702.1 1072.3 1699.09 1076.09 Q1696.1 1079.89 1696.1 1086.44 Q1696.1 1092.97 1699.09 1096.77 Q1702.1 1100.56 1707.19 1100.56 Q1712.28 1100.56 1715.25 1096.77 Q1718.23 1092.97 1718.23 1086.44 Q1718.23 1079.89 1715.25 1076.09 Q1712.28 1072.3 1707.19 1072.3 M1707.19 1068.5 Q1714.46 1068.5 1718.81 1073.39 Q1723.16 1078.25 1723.16 1086.44 Q1723.16 1094.61 1718.81 1099.5 Q1714.46 1104.36 1707.19 1104.36 Q1699.9 1104.36 1695.52 1099.5 Q1691.17 1094.64 1691.17 1086.44 Q1691.17 1078.25 1695.52 1073.39 Q1699.9 1068.5 1707.19 1068.5 Z" fill="#000000" fill-rule="nonzero" fill-opacity="1" /><path clip-path="url(#clip720)" d="M1748.9 1090.75 Q1748.9 1086.05 1746.96 1083.39 Q1745.04 1080.7 1741.66 1080.7 Q1738.28 1080.7 1736.33 1083.39 Q1734.41 1086.05 1734.41 1090.75 Q1734.41 1095.45 1736.33 1098.13 Q1738.28 1100.79 1741.66 1100.79 Q1745.04 1100.79 1746.96 1098.13 Q1748.9 1095.45 1748.9 1090.75 M1734.41 1081.7 Q1735.76 1079.38 1737.79 1078.27 Q1739.85 1077.14 1742.7 1077.14 Q1747.42 1077.14 1750.36 1080.89 Q1753.32 1084.64 1753.32 1090.75 Q1753.32 1096.86 1750.36 1100.61 Q1747.42 1104.36 1742.7 1104.36 Q1739.85 1104.36 1737.79 1103.25 Q1735.76 1102.11 1734.41 1099.8 L1734.41 1103.69 L1730.13 1103.69 L1730.13 1067.67 L1734.41 1067.67 L1734.41 1081.7 Z" fill="#000000" fill-rule="nonzero" fill-opacity="1" /><path clip-path="url(#clip720)" d="M1776.91 1078.52 L1776.91 1082.55 Q1775.11 1081.63 1773.16 1081.16 Q1771.22 1080.7 1769.14 1080.7 Q1765.96 1080.7 1764.37 1081.67 Q1762.79 1082.64 1762.79 1084.59 Q1762.79 1086.07 1763.93 1086.93 Q1765.06 1087.76 1768.49 1088.52 L1769.95 1088.85 Q1774.48 1089.82 1776.38 1091.6 Q1778.3 1093.36 1778.3 1096.53 Q1778.3 1100.14 1775.43 1102.25 Q1772.58 1104.36 1767.58 1104.36 Q1765.5 1104.36 1763.23 1103.94 Q1760.99 1103.55 1758.49 1102.74 L1758.49 1098.34 Q1760.85 1099.57 1763.14 1100.19 Q1765.43 1100.79 1767.68 1100.79 Q1770.69 1100.79 1772.31 1099.77 Q1773.93 1098.73 1773.93 1096.86 Q1773.93 1095.12 1772.75 1094.2 Q1771.59 1093.27 1767.63 1092.41 L1766.15 1092.07 Q1762.19 1091.23 1760.43 1089.52 Q1758.67 1087.78 1758.67 1084.77 Q1758.67 1081.12 1761.26 1079.13 Q1763.86 1077.14 1768.63 1077.14 Q1770.99 1077.14 1773.07 1077.48 Q1775.15 1077.83 1776.91 1078.52 Z" fill="#000000" fill-rule="nonzero" fill-opacity="1" /><path clip-path="url(#clip720)" d="M1807.26 1089.66 L1807.26 1091.74 L1787.68 1091.74 Q1787.95 1096.14 1790.32 1098.46 Q1792.7 1100.75 1796.94 1100.75 Q1799.39 1100.75 1801.68 1100.14 Q1804 1099.54 1806.26 1098.34 L1806.26 1102.37 Q1803.97 1103.34 1801.57 1103.85 Q1799.16 1104.36 1796.68 1104.36 Q1790.48 1104.36 1786.84 1100.75 Q1783.23 1097.14 1783.23 1090.98 Q1783.23 1084.61 1786.66 1080.89 Q1790.11 1077.14 1795.94 1077.14 Q1801.17 1077.14 1804.2 1080.52 Q1807.26 1083.87 1807.26 1089.66 M1803 1088.41 Q1802.95 1084.91 1801.03 1082.83 Q1799.13 1080.75 1795.99 1080.75 Q1792.42 1080.75 1790.27 1082.76 Q1788.14 1084.77 1787.82 1088.43 L1803 1088.41 Z" fill="#000000" fill-rule="nonzero" fill-opacity="1" /><path clip-path="url(#clip720)" d="M1829.27 1081.74 Q1828.56 1081.33 1827.7 1081.14 Q1826.87 1080.93 1825.85 1080.93 Q1822.24 1080.93 1820.29 1083.29 Q1818.37 1085.63 1818.37 1090.03 L1818.37 1103.69 L1814.09 1103.69 L1814.09 1077.76 L1818.37 1077.76 L1818.37 1081.79 Q1819.71 1079.43 1821.87 1078.29 Q1824.02 1077.14 1827.1 1077.14 Q1827.54 1077.14 1828.07 1077.21 Q1828.6 1077.25 1829.25 1077.37 L1829.27 1081.74 Z" fill="#000000" fill-rule="nonzero" fill-opacity="1" /><path clip-path="url(#clip720)" d="M1830.69 1077.76 L1835.2 1077.76 L1843.3 1099.52 L1851.4 1077.76 L1855.92 1077.76 L1846.19 1103.69 L1840.41 1103.69 L1830.69 1077.76 Z" fill="#000000" fill-rule="nonzero" fill-opacity="1" /><path clip-path="url(#clip720)" d="M1873.58 1090.65 Q1868.42 1090.65 1866.43 1091.83 Q1864.44 1093.02 1864.44 1095.86 Q1864.44 1098.13 1865.92 1099.47 Q1867.42 1100.79 1869.99 1100.79 Q1873.53 1100.79 1875.66 1098.29 Q1877.82 1095.77 1877.82 1091.6 L1877.82 1090.65 L1873.58 1090.65 M1882.07 1088.89 L1882.07 1103.69 L1877.82 1103.69 L1877.82 1099.75 Q1876.36 1102.11 1874.18 1103.25 Q1872 1104.36 1868.86 1104.36 Q1864.88 1104.36 1862.51 1102.14 Q1860.18 1099.89 1860.18 1096.14 Q1860.18 1091.77 1863.09 1089.54 Q1866.03 1087.32 1871.84 1087.32 L1877.82 1087.32 L1877.82 1086.9 Q1877.82 1083.96 1875.87 1082.37 Q1873.95 1080.75 1870.45 1080.75 Q1868.23 1080.75 1866.13 1081.28 Q1864.02 1081.81 1862.07 1082.88 L1862.07 1078.94 Q1864.41 1078.04 1866.61 1077.6 Q1868.81 1077.14 1870.89 1077.14 Q1876.52 1077.14 1879.3 1080.05 Q1882.07 1082.97 1882.07 1088.89 Z" fill="#000000" fill-rule="nonzero" fill-opacity="1" /><path clip-path="url(#clip720)" d="M1895.06 1070.4 L1895.06 1077.76 L1903.83 1077.76 L1903.83 1081.07 L1895.06 1081.07 L1895.06 1095.14 Q1895.06 1098.32 1895.92 1099.22 Q1896.8 1100.12 1899.46 1100.12 L1903.83 1100.12 L1903.83 1103.69 L1899.46 1103.69 Q1894.53 1103.69 1892.65 1101.86 Q1890.78 1100.01 1890.78 1095.14 L1890.78 1081.07 L1887.65 1081.07 L1887.65 1077.76 L1890.78 1077.76 L1890.78 1070.4 L1895.06 1070.4 Z" fill="#000000" fill-rule="nonzero" fill-opacity="1" /><path clip-path="url(#clip720)" d="M1909.44 1077.76 L1913.69 1077.76 L1913.69 1103.69 L1909.44 1103.69 L1909.44 1077.76 M1909.44 1067.67 L1913.69 1067.67 L1913.69 1073.06 L1909.44 1073.06 L1909.44 1067.67 Z" fill="#000000" fill-rule="nonzero" fill-opacity="1" /><path clip-path="url(#clip720)" d="M1932.65 1080.75 Q1929.23 1080.75 1927.24 1083.43 Q1925.25 1086.09 1925.25 1090.75 Q1925.25 1095.4 1927.21 1098.08 Q1929.2 1100.75 1932.65 1100.75 Q1936.06 1100.75 1938.05 1098.06 Q1940.04 1095.38 1940.04 1090.75 Q1940.04 1086.14 1938.05 1083.46 Q1936.06 1080.75 1932.65 1080.75 M1932.65 1077.14 Q1938.21 1077.14 1941.38 1080.75 Q1944.55 1084.36 1944.55 1090.75 Q1944.55 1097.11 1941.38 1100.75 Q1938.21 1104.36 1932.65 1104.36 Q1927.07 1104.36 1923.9 1100.75 Q1920.75 1097.11 1920.75 1090.75 Q1920.75 1084.36 1923.9 1080.75 Q1927.07 1077.14 1932.65 1077.14 Z" fill="#000000" fill-rule="nonzero" fill-opacity="1" /><path clip-path="url(#clip720)" d="M1973.16 1088.04 L1973.16 1103.69 L1968.9 1103.69 L1968.9 1088.18 Q1968.9 1084.5 1967.47 1082.67 Q1966.03 1080.84 1963.16 1080.84 Q1959.71 1080.84 1957.72 1083.04 Q1955.73 1085.24 1955.73 1089.03 L1955.73 1103.69 L1951.45 1103.69 L1951.45 1077.76 L1955.73 1077.76 L1955.73 1081.79 Q1957.26 1079.45 1959.32 1078.29 Q1961.4 1077.14 1964.11 1077.14 Q1968.58 1077.14 1970.87 1079.91 Q1973.16 1082.67 1973.16 1088.04 Z" fill="#000000" fill-rule="nonzero" fill-opacity="1" /><path clip-path="url(#clip720)" d="M1998.18 1078.52 L1998.18 1082.55 Q1996.38 1081.63 1994.43 1081.16 Q1992.49 1080.7 1990.41 1080.7 Q1987.24 1080.7 1985.64 1081.67 Q1984.06 1082.64 1984.06 1084.59 Q1984.06 1086.07 1985.2 1086.93 Q1986.33 1087.76 1989.76 1088.52 L1991.22 1088.85 Q1995.75 1089.82 1997.65 1091.6 Q1999.57 1093.36 1999.57 1096.53 Q1999.57 1100.14 1996.7 1102.25 Q1993.86 1104.36 1988.86 1104.36 Q1986.77 1104.36 1984.5 1103.94 Q1982.26 1103.55 1979.76 1102.74 L1979.76 1098.34 Q1982.12 1099.57 1984.41 1100.19 Q1986.7 1100.79 1988.95 1100.79 Q1991.96 1100.79 1993.58 1099.77 Q1995.2 1098.73 1995.2 1096.86 Q1995.2 1095.12 1994.02 1094.2 Q1992.86 1093.27 1988.9 1092.41 L1987.42 1092.07 Q1983.46 1091.23 1981.7 1089.52 Q1979.94 1087.78 1979.94 1084.77 Q1979.94 1081.12 1982.54 1079.13 Q1985.13 1077.14 1989.9 1077.14 Q1992.26 1077.14 1994.34 1077.48 Q1996.43 1077.83 1998.18 1078.52 Z" fill="#000000" fill-rule="nonzero" fill-opacity="1" /></svg>
