<?xml version="1.0" encoding="utf-8"?>
<svg xmlns="http://www.w3.org/2000/svg" xmlns:xlink="http://www.w3.org/1999/xlink" width="600" height="400" viewBox="0 0 2400 1600">
<defs>
  <clipPath id="clip080">
    <rect x="0" y="0" width="2400" height="1600"/>
  </clipPath>
</defs>
<path clip-path="url(#clip080)" d="M0 1600 L2400 1600 L2400 8.88178e-14 L0 8.88178e-14  Z" fill="#ffffff" fill-rule="evenodd" fill-opacity="1"/>
<defs>
  <clipPath id="clip081">
    <rect x="480" y="0" width="1681" height="1600"/>
  </clipPath>
</defs>
<path clip-path="url(#clip080)" d="M147.478 1486.45 L2352.76 1486.45 L2352.76 47.2441 L147.478 47.2441  Z" fill="#ffffff" fill-rule="evenodd" fill-opacity="1"/>
<defs>
  <clipPath id="clip082">
    <rect x="147" y="47" width="2206" height="1440"/>
  </clipPath>
</defs>
<polyline clip-path="url(#clip082)" style="stroke:#000000; stroke-linecap:round; stroke-linejoin:round; stroke-width:2; stroke-opacity:0.1; fill:none" points="202.933,1486.45 202.933,47.2441 "/>
<polyline clip-path="url(#clip082)" style="stroke:#000000; stroke-linecap:round; stroke-linejoin:round; stroke-width:2; stroke-opacity:0.1; fill:none" points="898.736,1486.45 898.736,47.2441 "/>
<polyline clip-path="url(#clip082)" style="stroke:#000000; stroke-linecap:round; stroke-linejoin:round; stroke-width:2; stroke-opacity:0.1; fill:none" points="1594.54,1486.45 1594.54,47.2441 "/>
<polyline clip-path="url(#clip082)" style="stroke:#000000; stroke-linecap:round; stroke-linejoin:round; stroke-width:2; stroke-opacity:0.1; fill:none" points="2290.34,1486.45 2290.34,47.2441 "/>
<polyline clip-path="url(#clip082)" style="stroke:#000000; stroke-linecap:round; stroke-linejoin:round; stroke-width:2; stroke-opacity:0.1; fill:none" points="147.478,1346.44 2352.76,1346.44 "/>
<polyline clip-path="url(#clip082)" style="stroke:#000000; stroke-linecap:round; stroke-linejoin:round; stroke-width:2; stroke-opacity:0.1; fill:none" points="147.478,1062.64 2352.76,1062.64 "/>
<polyline clip-path="url(#clip082)" style="stroke:#000000; stroke-linecap:round; stroke-linejoin:round; stroke-width:2; stroke-opacity:0.1; fill:none" points="147.478,778.843 2352.76,778.843 "/>
<polyline clip-path="url(#clip082)" style="stroke:#000000; stroke-linecap:round; stroke-linejoin:round; stroke-width:2; stroke-opacity:0.1; fill:none" points="147.478,495.047 2352.76,495.047 "/>
<polyline clip-path="url(#clip082)" style="stroke:#000000; stroke-linecap:round; stroke-linejoin:round; stroke-width:2; stroke-opacity:0.1; fill:none" points="147.478,211.251 2352.76,211.251 "/>
<polyline clip-path="url(#clip080)" style="stroke:#000000; stroke-linecap:round; stroke-linejoin:round; stroke-width:4; stroke-opacity:1; fill:none" points="147.478,1486.45 2352.76,1486.45 "/>
<polyline clip-path="url(#clip080)" style="stroke:#000000; stroke-linecap:round; stroke-linejoin:round; stroke-width:4; stroke-opacity:1; fill:none" points="202.933,1486.45 202.933,1467.55 "/>
<polyline clip-path="url(#clip080)" style="stroke:#000000; stroke-linecap:round; stroke-linejoin:round; stroke-width:4; stroke-opacity:1; fill:none" points="898.736,1486.45 898.736,1467.55 "/>
<polyline clip-path="url(#clip080)" style="stroke:#000000; stroke-linecap:round; stroke-linejoin:round; stroke-width:4; stroke-opacity:1; fill:none" points="1594.54,1486.45 1594.54,1467.55 "/>
<polyline clip-path="url(#clip080)" style="stroke:#000000; stroke-linecap:round; stroke-linejoin:round; stroke-width:4; stroke-opacity:1; fill:none" points="2290.34,1486.45 2290.34,1467.55 "/>
<path clip-path="url(#clip080)" d="M202.933 1517.37 Q199.322 1517.37 197.494 1520.93 Q195.688 1524.47 195.688 1531.6 Q195.688 1538.71 197.494 1542.27 Q199.322 1545.82 202.933 1545.82 Q206.568 1545.82 208.373 1542.27 Q210.202 1538.71 210.202 1531.6 Q210.202 1524.47 208.373 1520.93 Q206.568 1517.37 202.933 1517.37 M202.933 1513.66 Q208.744 1513.66 211.799 1518.27 Q214.878 1522.85 214.878 1531.6 Q214.878 1540.33 211.799 1544.94 Q208.744 1549.52 202.933 1549.52 Q197.123 1549.52 194.045 1544.94 Q190.989 1540.33 190.989 1531.6 Q190.989 1522.85 194.045 1518.27 Q197.123 1513.66 202.933 1513.66 Z" fill="#000000" fill-rule="nonzero" fill-opacity="1" /><path clip-path="url(#clip080)" d="M858.343 1544.91 L865.982 1544.91 L865.982 1518.55 L857.672 1520.21 L857.672 1515.95 L865.936 1514.29 L870.612 1514.29 L870.612 1544.91 L878.25 1544.91 L878.25 1548.85 L858.343 1548.85 L858.343 1544.91 Z" fill="#000000" fill-rule="nonzero" fill-opacity="1" /><path clip-path="url(#clip080)" d="M897.695 1517.37 Q894.084 1517.37 892.255 1520.93 Q890.449 1524.47 890.449 1531.6 Q890.449 1538.71 892.255 1542.27 Q894.084 1545.82 897.695 1545.82 Q901.329 1545.82 903.135 1542.27 Q904.963 1538.71 904.963 1531.6 Q904.963 1524.47 903.135 1520.93 Q901.329 1517.37 897.695 1517.37 M897.695 1513.66 Q903.505 1513.66 906.56 1518.27 Q909.639 1522.85 909.639 1531.6 Q909.639 1540.33 906.56 1544.94 Q903.505 1549.52 897.695 1549.52 Q891.885 1549.52 888.806 1544.94 Q885.75 1540.33 885.75 1531.6 Q885.75 1522.85 888.806 1518.27 Q891.885 1513.66 897.695 1513.66 Z" fill="#000000" fill-rule="nonzero" fill-opacity="1" /><path clip-path="url(#clip080)" d="M927.857 1517.37 Q924.246 1517.37 922.417 1520.93 Q920.611 1524.47 920.611 1531.6 Q920.611 1538.71 922.417 1542.27 Q924.246 1545.82 927.857 1545.82 Q931.491 1545.82 933.296 1542.27 Q935.125 1538.71 935.125 1531.6 Q935.125 1524.47 933.296 1520.93 Q931.491 1517.37 927.857 1517.37 M927.857 1513.66 Q933.667 1513.66 936.722 1518.27 Q939.801 1522.85 939.801 1531.6 Q939.801 1540.33 936.722 1544.94 Q933.667 1549.52 927.857 1549.52 Q922.046 1549.52 918.968 1544.94 Q915.912 1540.33 915.912 1531.6 Q915.912 1522.85 918.968 1518.27 Q922.046 1513.66 927.857 1513.66 Z" fill="#000000" fill-rule="nonzero" fill-opacity="1" /><path clip-path="url(#clip080)" d="M1558.23 1544.91 L1574.55 1544.91 L1574.55 1548.85 L1552.61 1548.85 L1552.61 1544.91 Q1555.27 1542.16 1559.85 1537.53 Q1564.46 1532.88 1565.64 1531.53 Q1567.88 1529.01 1568.76 1527.27 Q1569.67 1525.51 1569.67 1523.82 Q1569.67 1521.07 1567.72 1519.33 Q1565.8 1517.6 1562.7 1517.6 Q1560.5 1517.6 1558.05 1518.36 Q1555.62 1519.13 1552.84 1520.68 L1552.84 1515.95 Q1555.66 1514.82 1558.12 1514.24 Q1560.57 1513.66 1562.61 1513.66 Q1567.98 1513.66 1571.17 1516.35 Q1574.37 1519.03 1574.37 1523.52 Q1574.37 1525.65 1573.56 1527.57 Q1572.77 1529.47 1570.66 1532.07 Q1570.08 1532.74 1566.98 1535.95 Q1563.88 1539.15 1558.23 1544.91 Z" fill="#000000" fill-rule="nonzero" fill-opacity="1" /><path clip-path="url(#clip080)" d="M1594.37 1517.37 Q1590.75 1517.37 1588.93 1520.93 Q1587.12 1524.47 1587.12 1531.6 Q1587.12 1538.71 1588.93 1542.27 Q1590.75 1545.82 1594.37 1545.82 Q1598 1545.82 1599.81 1542.27 Q1601.63 1538.71 1601.63 1531.6 Q1601.63 1524.47 1599.81 1520.93 Q1598 1517.37 1594.37 1517.37 M1594.37 1513.66 Q1600.18 1513.66 1603.23 1518.27 Q1606.31 1522.85 1606.31 1531.6 Q1606.31 1540.33 1603.23 1544.94 Q1600.18 1549.52 1594.37 1549.52 Q1588.56 1549.52 1585.48 1544.94 Q1582.42 1540.33 1582.42 1531.6 Q1582.42 1522.85 1585.48 1518.27 Q1588.56 1513.66 1594.37 1513.66 Z" fill="#000000" fill-rule="nonzero" fill-opacity="1" /><path clip-path="url(#clip080)" d="M1624.53 1517.37 Q1620.92 1517.37 1619.09 1520.93 Q1617.28 1524.47 1617.28 1531.6 Q1617.28 1538.71 1619.09 1542.27 Q1620.92 1545.82 1624.53 1545.82 Q1628.16 1545.82 1629.97 1542.27 Q1631.8 1538.71 1631.8 1531.6 Q1631.8 1524.47 1629.97 1520.93 Q1628.16 1517.37 1624.53 1517.37 M1624.53 1513.66 Q1630.34 1513.66 1633.39 1518.27 Q1636.47 1522.85 1636.47 1531.6 Q1636.47 1540.33 1633.39 1544.94 Q1630.34 1549.52 1624.53 1549.52 Q1618.72 1549.52 1615.64 1544.94 Q1612.58 1540.33 1612.58 1531.6 Q1612.58 1522.85 1615.64 1518.27 Q1618.72 1513.66 1624.53 1513.66 Z" fill="#000000" fill-rule="nonzero" fill-opacity="1" /><path clip-path="url(#clip080)" d="M2264.1 1530.21 Q2267.46 1530.93 2269.34 1533.2 Q2271.23 1535.47 2271.23 1538.8 Q2271.23 1543.92 2267.72 1546.72 Q2264.2 1549.52 2257.72 1549.52 Q2255.54 1549.52 2253.22 1549.08 Q2250.93 1548.66 2248.48 1547.81 L2248.48 1543.29 Q2250.42 1544.43 2252.74 1545.01 Q2255.05 1545.58 2257.58 1545.58 Q2261.97 1545.58 2264.27 1543.85 Q2266.58 1542.11 2266.58 1538.8 Q2266.58 1535.75 2264.43 1534.03 Q2262.3 1532.3 2258.48 1532.3 L2254.45 1532.3 L2254.45 1528.45 L2258.66 1528.45 Q2262.11 1528.45 2263.94 1527.09 Q2265.77 1525.7 2265.77 1523.11 Q2265.77 1520.45 2263.87 1519.03 Q2262 1517.6 2258.48 1517.6 Q2256.56 1517.6 2254.36 1518.01 Q2252.16 1518.43 2249.52 1519.31 L2249.52 1515.14 Q2252.18 1514.4 2254.5 1514.03 Q2256.84 1513.66 2258.9 1513.66 Q2264.22 1513.66 2267.32 1516.09 Q2270.42 1518.5 2270.42 1522.62 Q2270.42 1525.49 2268.78 1527.48 Q2267.14 1529.45 2264.1 1530.21 Z" fill="#000000" fill-rule="nonzero" fill-opacity="1" /><path clip-path="url(#clip080)" d="M2290.1 1517.37 Q2286.49 1517.37 2284.66 1520.93 Q2282.85 1524.47 2282.85 1531.6 Q2282.85 1538.71 2284.66 1542.27 Q2286.49 1545.82 2290.1 1545.82 Q2293.73 1545.82 2295.54 1542.27 Q2297.37 1538.71 2297.37 1531.6 Q2297.37 1524.47 2295.54 1520.93 Q2293.73 1517.37 2290.1 1517.37 M2290.1 1513.66 Q2295.91 1513.66 2298.97 1518.27 Q2302.04 1522.85 2302.04 1531.6 Q2302.04 1540.33 2298.97 1544.94 Q2295.91 1549.52 2290.1 1549.52 Q2284.29 1549.52 2281.21 1544.94 Q2278.15 1540.33 2278.15 1531.6 Q2278.15 1522.85 2281.21 1518.27 Q2284.29 1513.66 2290.1 1513.66 Z" fill="#000000" fill-rule="nonzero" fill-opacity="1" /><path clip-path="url(#clip080)" d="M2320.26 1517.37 Q2316.65 1517.37 2314.82 1520.93 Q2313.02 1524.47 2313.02 1531.6 Q2313.02 1538.71 2314.82 1542.27 Q2316.65 1545.82 2320.26 1545.82 Q2323.9 1545.82 2325.7 1542.27 Q2327.53 1538.71 2327.53 1531.6 Q2327.53 1524.47 2325.7 1520.93 Q2323.9 1517.37 2320.26 1517.37 M2320.26 1513.66 Q2326.07 1513.66 2329.13 1518.27 Q2332.21 1522.85 2332.21 1531.6 Q2332.21 1540.33 2329.13 1544.94 Q2326.07 1549.52 2320.26 1549.52 Q2314.45 1549.52 2311.37 1544.94 Q2308.32 1540.33 2308.32 1531.6 Q2308.32 1522.85 2311.37 1518.27 Q2314.45 1513.66 2320.26 1513.66 Z" fill="#000000" fill-rule="nonzero" fill-opacity="1" /><polyline clip-path="url(#clip080)" style="stroke:#000000; stroke-linecap:round; stroke-linejoin:round; stroke-width:4; stroke-opacity:1; fill:none" points="147.478,1486.45 147.478,47.2441 "/>
<polyline clip-path="url(#clip080)" style="stroke:#000000; stroke-linecap:round; stroke-linejoin:round; stroke-width:4; stroke-opacity:1; fill:none" points="147.478,1346.44 166.376,1346.44 "/>
<polyline clip-path="url(#clip080)" style="stroke:#000000; stroke-linecap:round; stroke-linejoin:round; stroke-width:4; stroke-opacity:1; fill:none" points="147.478,1062.64 166.376,1062.64 "/>
<polyline clip-path="url(#clip080)" style="stroke:#000000; stroke-linecap:round; stroke-linejoin:round; stroke-width:4; stroke-opacity:1; fill:none" points="147.478,778.843 166.376,778.843 "/>
<polyline clip-path="url(#clip080)" style="stroke:#000000; stroke-linecap:round; stroke-linejoin:round; stroke-width:4; stroke-opacity:1; fill:none" points="147.478,495.047 166.376,495.047 "/>
<polyline clip-path="url(#clip080)" style="stroke:#000000; stroke-linecap:round; stroke-linejoin:round; stroke-width:4; stroke-opacity:1; fill:none" points="147.478,211.251 166.376,211.251 "/>
<path clip-path="url(#clip080)" d="M51.3625 1346.89 L81.0383 1346.89 L81.0383 1350.82 L51.3625 1350.82 L51.3625 1346.89 Z" fill="#000000" fill-rule="nonzero" fill-opacity="1" /><path clip-path="url(#clip080)" d="M95.1586 1359.78 L111.478 1359.78 L111.478 1363.72 L89.5336 1363.72 L89.5336 1359.78 Q92.1956 1357.03 96.7789 1352.4 Q101.385 1347.74 102.566 1346.4 Q104.811 1343.88 105.691 1342.14 Q106.594 1340.38 106.594 1338.69 Q106.594 1335.94 104.649 1334.2 Q102.728 1332.47 99.6261 1332.47 Q97.4271 1332.47 94.9734 1333.23 Q92.5428 1333.99 89.7651 1335.54 L89.7651 1330.82 Q92.5891 1329.69 95.0428 1329.11 Q97.4965 1328.53 99.5335 1328.53 Q104.904 1328.53 108.098 1331.22 Q111.293 1333.9 111.293 1338.39 Q111.293 1340.52 110.483 1342.44 Q109.696 1344.34 107.589 1346.93 Q107.01 1347.61 103.909 1350.82 Q100.807 1354.02 95.1586 1359.78 Z" fill="#000000" fill-rule="nonzero" fill-opacity="1" /><path clip-path="url(#clip080)" d="M50.9921 1063.09 L80.6679 1063.09 L80.6679 1067.03 L50.9921 1067.03 L50.9921 1063.09 Z" fill="#000000" fill-rule="nonzero" fill-opacity="1" /><path clip-path="url(#clip080)" d="M91.5706 1075.98 L99.2095 1075.98 L99.2095 1049.62 L90.8993 1051.29 L90.8993 1047.03 L99.1632 1045.36 L103.839 1045.36 L103.839 1075.98 L111.478 1075.98 L111.478 1079.92 L91.5706 1079.92 L91.5706 1075.98 Z" fill="#000000" fill-rule="nonzero" fill-opacity="1" /><path clip-path="url(#clip080)" d="M99.5335 764.642 Q95.9224 764.642 94.0937 768.207 Q92.2882 771.748 92.2882 778.878 Q92.2882 785.984 94.0937 789.549 Q95.9224 793.091 99.5335 793.091 Q103.168 793.091 104.973 789.549 Q106.802 785.984 106.802 778.878 Q106.802 771.748 104.973 768.207 Q103.168 764.642 99.5335 764.642 M99.5335 760.938 Q105.344 760.938 108.399 765.545 Q111.478 770.128 111.478 778.878 Q111.478 787.605 108.399 792.211 Q105.344 796.795 99.5335 796.795 Q93.7234 796.795 90.6447 792.211 Q87.5892 787.605 87.5892 778.878 Q87.5892 770.128 90.6447 765.545 Q93.7234 760.938 99.5335 760.938 Z" fill="#000000" fill-rule="nonzero" fill-opacity="1" /><path clip-path="url(#clip080)" d="M91.5706 508.392 L99.2095 508.392 L99.2095 482.026 L90.8993 483.693 L90.8993 479.434 L99.1632 477.767 L103.839 477.767 L103.839 508.392 L111.478 508.392 L111.478 512.327 L91.5706 512.327 L91.5706 508.392 Z" fill="#000000" fill-rule="nonzero" fill-opacity="1" /><path clip-path="url(#clip080)" d="M95.1586 224.595 L111.478 224.595 L111.478 228.531 L89.5336 228.531 L89.5336 224.595 Q92.1956 221.841 96.7789 217.211 Q101.385 212.558 102.566 211.216 Q104.811 208.693 105.691 206.957 Q106.594 205.197 106.594 203.508 Q106.594 200.753 104.649 199.017 Q102.728 197.281 99.6261 197.281 Q97.4271 197.281 94.9734 198.045 Q92.5428 198.808 89.7651 200.359 L89.7651 195.637 Q92.5891 194.503 95.0428 193.924 Q97.4965 193.346 99.5335 193.346 Q104.904 193.346 108.098 196.031 Q111.293 198.716 111.293 203.207 Q111.293 205.336 110.483 207.257 Q109.696 209.156 107.589 211.748 Q107.01 212.42 103.909 215.637 Q100.807 218.832 95.1586 224.595 Z" fill="#000000" fill-rule="nonzero" fill-opacity="1" /><path clip-path="url(#clip082)" d="M209.891 356.236 L216.849 326.72 L223.808 331.615 L230.766 347.049 L237.724 354.632 L244.682 366.536 L251.64 368.159 L258.598 374.566 L265.556 378.664 L272.514 363.404 L279.472 366.834 L286.43 376.118 L293.388 368.813 L300.346 376.501 L307.304 376.09 L314.262 380.197 L321.22 395.469 L328.178 398.496 L335.136 411.322 L342.094 404.376 L349.052 405.886 L356.01 404.999 L362.968 396.153 L369.926 410.399 L376.884 434.836 L383.842 443.754 L390.8 442.339 L397.758 443.816 L404.716 459.675 L411.674 470.365 L418.632 465.741 L425.59 481.237 L432.548 493.81 L439.506 487.105 L446.464 490.845 L453.422 509.129 L460.381 510.802 L467.339 517.166 L474.297 519.747 L481.255 546.213 L488.213 562.99 L495.171 580.562 L502.129 590.554 L509.087 601.523 L516.045 634.264 L523.003 653.431 L529.961 670.278 L536.919 680.637 L543.877 691.18 L550.835 705.6 L557.793 718.312 L564.751 735.672 L571.709 728.533 L578.667 728.941 L585.625 733.186 L592.583 752.764 L599.541 779.346 L606.499 800.009 L613.457 815.274 L620.415 835.501 L627.373 854.129 L634.331 865.912 L641.289 867.341 L648.247 870.233 L655.205 874.915 L662.163 890.501 L669.121 887.01 L676.079 893.61 L683.037 909.79 L689.996 931.733 L696.954 941.146 L703.912 956.424 L710.87 976.042 L717.828 989.657 L724.786 994.189 L731.744 1003.85 L738.702 1012.42 L745.66 1019.56 L752.618 1030.4 L759.576 1050.25 L766.534 1075.93 L773.492 1087.38 L780.45 1091.04 L787.408 1109.63 L794.366 1121.36 L801.324 1131.76 L808.282 1117.46 L815.24 1130.02 L822.198 1134.52 L829.156 1130.37 L836.114 1150.33 L843.072 1171.32 L850.03 1177.71 L856.988 1176.86 L863.946 1185.43 L870.904 1186 L877.862 1206.61 L884.82 1220.35 L891.778 1229.62 L898.736 1227.35 L905.694 1228.82 L912.652 1237.1 L919.61 1233.74 L926.569 1235.15 L933.527 1248.21 L940.485 1248.97 L947.443 1239.87 L954.401 1238.97 L961.359 1250.97 L968.317 1247.58 L975.275 1244.31 L982.233 1255.98 L989.191 1271.6 L996.149 1280.32 L1003.11 1260.05 L1010.06 1286.14 L1017.02 1280.68 L1023.98 1280.45 L1030.94 1259.02 L1037.9 1244.48 L1044.86 1254.8 L1051.81 1262.58 L1058.77 1269.3 L1065.73 1254.27 L1072.69 1257.19 L1079.65 1259.55 L1086.6 1262.17 L1093.56 1241.55 L1100.52 1231.14 L1107.48 1239.38 L1114.44 1232.39 L1121.39 1228.36 L1128.35 1221.21 L1135.31 1224.14 L1142.27 1209.3 L1149.23 1188.34 L1156.18 1189.66 L1163.14 1197.13 L1170.1 1181.24 L1177.06 1186.4 L1184.02 1174.95 L1190.97 1170.85 L1197.93 1175.36 L1204.89 1164.42 L1211.85 1168.75 L1218.81 1153.13 L1225.76 1144.77 L1232.72 1132.19 L1239.68 1110.92 L1246.64 1098.04 L1253.6 1088.34 L1260.55 1056.31 L1267.51 1047.44 L1274.47 1042.93 L1281.43 1047.22 L1288.39 1044.54 L1295.34 1032.74 L1302.3 1035.03 L1309.26 1028.65 L1316.22 1011.1 L1323.18 1003.65 L1330.13 981.457 L1337.09 972.762 L1344.05 957.257 L1351.01 927.396 L1357.97 909.071 L1364.92 888.815 L1371.88 881.519 L1378.84 866.65 L1385.8 825.486 L1392.76 803.923 L1399.71 790.398 L1406.67 780.6 L1413.63 773.402 L1420.59 763.204 L1427.55 748.644 L1434.5 742.402 L1441.46 735.029 L1448.42 733.755 L1455.38 728.924 L1462.34 730.36 L1469.29 730.945 L1476.25 725.895 L1483.21 720.117 L1490.17 704.691 L1497.13 689.773 L1504.09 682.401 L1511.04 671.385 L1518 656.164 L1524.96 641.414 L1531.92 624.725 L1538.88 604.286 L1545.83 580.431 L1552.79 569.821 L1559.75 558.637 L1566.71 550.743 L1573.67 536.57 L1580.62 523.368 L1587.58 508.572 L1594.54 512.254 L1601.5 504.86 L1608.46 488.63 L1615.41 489.783 L1622.37 503.425 L1629.33 493.797 L1636.29 481.063 L1643.25 468.872 L1650.2 455.435 L1657.16 438.392 L1664.12 427.968 L1671.08 422.932 L1678.04 408.724 L1684.99 401.906 L1691.95 404.68 L1698.91 410.19 L1705.87 400.556 L1712.83 388.14 L1719.78 394.949 L1726.74 395.808 L1733.7 375.052 L1740.66 375.522 L1747.62 361.982 L1754.57 365.02 L1761.53 374.119 L1768.49 374.775 L1775.45 376.478 L1782.41 379.754 L1789.36 378.156 L1796.32 369.217 L1803.28 363.125 L1810.24 349.564 L1817.2 353.881 L1824.15 337.595 L1831.11 347.269 L1838.07 348.928 L1845.03 340.055 L1851.99 343.872 L1858.94 353.593 L1865.9 342.242 L1872.86 347.998 L1879.82 342.654 L1886.78 329.132 L1893.73 341.473 L1900.69 350.696 L1907.65 355.84 L1914.61 363.869 L1921.57 380.632 L1928.52 364.134 L1935.48 348.948 L1942.44 361.922 L1949.4 371.339 L1956.36 374.118 L1963.31 374.488 L1970.27 376.676 L1977.23 385.242 L1984.19 385.534 L1991.15 391.207 L1998.11 391.352 L2005.06 384.877 L2012.02 399.833 L2018.98 413.64 L2025.94 421.163 L2032.9 422.474 L2039.85 434.317 L2046.81 436.606 L2053.77 438.711 L2060.73 433.087 L2067.69 446.648 L2074.64 445.874 L2081.6 457.175 L2088.56 457.999 L2095.52 481.115 L2102.48 485.708 L2109.43 494.374 L2116.39 497.311 L2123.35 509.824 L2130.31 518.743 L2137.27 522.525 L2144.22 545.69 L2151.18 561.728 L2158.14 583.122 L2165.1 596.413 L2172.06 604.354 L2179.01 624.687 L2185.97 647.694 L2192.93 670.242 L2199.89 686.888 L2206.85 695.765 L2213.8 713.66 L2220.76 707.098 L2227.72 695.886 L2234.68 680.61 L2241.64 703.044 L2248.59 721.919 L2255.55 730.171 L2262.51 716.781 L2269.47 734.411 L2276.43 745.329 L2283.38 727.71 L2290.34 736.405 L2290.34 679.016 L2283.38 686.424 L2276.43 695.148 L2269.47 695.967 L2262.51 679.891 L2255.55 684.48 L2248.59 683.669 L2241.64 663.283 L2234.68 638.288 L2227.72 645.773 L2220.76 656.796 L2213.8 665.883 L2206.85 659.188 L2199.89 650.652 L2192.93 628.676 L2185.97 603.19 L2179.01 582.796 L2172.06 560.28 L2165.1 558.129 L2158.14 536.228 L2151.18 514.227 L2144.22 503.794 L2137.27 479.416 L2130.31 475.5 L2123.35 465.366 L2116.39 453.362 L2109.43 448.933 L2102.48 440.721 L2095.52 435.506 L2088.56 411.747 L2081.6 408.49 L2074.64 398.55 L2067.69 400.628 L2060.73 385.2 L2053.77 389.604 L2046.81 387.638 L2039.85 384.528 L2032.9 372.996 L2025.94 369.768 L2018.98 360.386 L2012.02 347.809 L2005.06 330.272 L1998.11 336.328 L1991.15 333.688 L1984.19 329.497 L1977.23 335.355 L1970.27 319.041 L1963.31 315.235 L1956.36 314.81 L1949.4 310.35 L1942.44 312.12 L1935.48 291.811 L1928.52 305.103 L1921.57 320.07 L1914.61 300.849 L1907.65 295.619 L1900.69 287.716 L1893.73 278.135 L1886.78 271.347 L1879.82 286.39 L1872.86 286.637 L1865.9 280.755 L1858.94 291.369 L1851.99 282.186 L1845.03 281.515 L1838.07 289.423 L1831.11 285.097 L1824.15 290.673 L1817.2 295.341 L1810.24 287.846 L1803.28 303.721 L1796.32 309.61 L1789.36 319.121 L1782.41 319.725 L1775.45 318.385 L1768.49 317.091 L1761.53 319.171 L1754.57 308.383 L1747.62 309.907 L1740.66 321.049 L1733.7 320.214 L1726.74 343.818 L1719.78 341.501 L1712.83 334.52 L1705.87 349.538 L1698.91 359.207 L1691.95 354.818 L1684.99 353.482 L1678.04 361.336 L1671.08 377.416 L1664.12 382.749 L1657.16 391.159 L1650.2 412.848 L1643.25 425.705 L1636.29 438.5 L1629.33 450.267 L1622.37 456.91 L1615.41 445.027 L1608.46 446.715 L1601.5 462.551 L1594.54 471.026 L1587.58 465.229 L1580.62 478.689 L1573.67 497.55 L1566.71 513.443 L1559.75 520.587 L1552.79 532.506 L1545.83 543.443 L1538.88 561.033 L1531.92 581.388 L1524.96 604.312 L1518 619.06 L1511.04 631.294 L1504.09 645.155 L1497.13 653.42 L1490.17 668.212 L1483.21 684.047 L1476.25 687.951 L1469.29 693.232 L1462.34 683.604 L1455.38 690.598 L1448.42 696.598 L1441.46 695.55 L1434.5 706.828 L1427.55 711.699 L1420.59 728.738 L1413.63 737.864 L1406.67 743.932 L1399.71 755.24 L1392.76 768.713 L1385.8 788.359 L1378.84 818.195 L1371.88 844.447 L1364.92 851.953 L1357.97 872.068 L1351.01 889.741 L1344.05 914.316 L1337.09 934.096 L1330.13 946.637 L1323.18 967.728 L1316.22 969.356 L1309.26 992.352 L1302.3 985.761 L1295.34 996.9 L1288.39 1004.68 L1281.43 999.347 L1274.47 1000.6 L1267.51 1010.64 L1260.55 1019.06 L1253.6 1044.13 L1246.64 1058.95 L1239.68 1065.73 L1232.72 1091.21 L1225.76 1099.93 L1218.81 1109.12 L1211.85 1125.08 L1204.89 1122.39 L1197.93 1131.36 L1190.97 1127.68 L1184.02 1130.61 L1177.06 1139.08 L1170.1 1135.01 L1163.14 1148.84 L1156.18 1142.96 L1149.23 1139.46 L1142.27 1157.46 L1135.31 1173.22 L1128.35 1170.12 L1121.39 1175.45 L1114.44 1179.4 L1107.48 1185.27 L1100.52 1180.19 L1093.56 1190.42 L1086.6 1203.99 L1079.65 1203.1 L1072.69 1201.68 L1065.73 1198.52 L1058.77 1210.47 L1051.81 1207.01 L1044.86 1198.22 L1037.9 1193.14 L1030.94 1199.53 L1023.98 1219.25 L1017.02 1221.73 L1010.06 1230.75 L1003.11 1205.36 L996.149 1220.41 L989.191 1215.03 L982.233 1200.15 L975.275 1193.33 L968.317 1190.31 L961.359 1192.85 L954.401 1183.45 L947.443 1185.18 L940.485 1191.74 L933.527 1192.06 L926.569 1181.89 L919.61 1180.19 L912.652 1181.53 L905.694 1175.36 L898.736 1174.49 L891.778 1179.35 L884.82 1170.28 L877.862 1157.99 L870.904 1138.65 L863.946 1137.44 L856.988 1130.96 L850.03 1131.65 L843.072 1126.75 L836.114 1106.28 L829.156 1088.92 L822.198 1087.44 L815.24 1083.88 L808.282 1074.11 L801.324 1086.19 L794.366 1081.94 L787.408 1070.21 L780.45 1048.69 L773.492 1049.67 L766.534 1039.65 L759.576 1013.51 L752.618 996.76 L745.66 979.718 L738.702 977.674 L731.744 966.092 L724.786 958.307 L717.828 951.603 L710.87 942.607 L703.912 920.281 L696.954 907.788 L689.996 885.679 L683.037 860.755 L676.079 851.574 L669.121 852.246 L662.163 854.266 L655.205 840.117 L648.247 835.376 L641.289 832.344 L634.331 830.915 L627.373 818.69 L620.415 790.801 L613.457 775.756 L606.499 763.718 L599.541 736.595 L592.583 707.346 L585.625 695.632 L578.667 691.044 L571.709 688.977 L564.751 691.654 L557.793 680.494 L550.835 668.705 L543.877 651.344 L536.919 642.329 L529.961 631.572 L523.003 609.342 L516.045 586.65 L509.087 557.732 L502.129 550.518 L495.171 539.88 L488.213 521.134 L481.255 503.423 L474.297 476.312 L467.339 475.828 L460.381 467.504 L453.422 464.486 L446.464 446.19 L439.506 439.599 L432.548 444.303 L425.59 435.601 L418.632 419.94 L411.674 425.082 L404.716 411.777 L397.758 394.141 L390.8 393.725 L383.842 393.891 L376.884 382.63 L369.926 360.342 L362.968 345.898 L356.01 355.316 L349.052 352.203 L342.094 351.715 L335.136 356.594 L328.178 341.137 L321.22 337.769 L314.262 321.844 L307.304 317.878 L300.346 318.697 L293.388 311.206 L286.43 320.252 L279.472 306.282 L272.514 302.936 L265.556 319.661 L258.598 311.597 L251.64 306.249 L244.682 303.468 L237.724 291.084 L230.766 284.205 L223.808 268.06 L216.849 264.806 L209.891 297.154  Z" fill="#0000ff" fill-rule="evenodd" fill-opacity="0.5"/>
<polyline clip-path="url(#clip082)" style="stroke:#0000ff; stroke-linecap:round; stroke-linejoin:round; stroke-width:8; stroke-opacity:1; fill:none" points="209.891,326.695 216.849,295.763 223.808,299.838 230.766,315.627 237.724,322.858 244.682,335.002 251.64,337.204 258.598,343.082 265.556,349.163 272.514,333.17 279.472,336.558 286.43,348.185 293.388,340.009 300.346,347.599 307.304,346.984 314.262,351.021 321.22,366.619 328.178,369.816 335.136,383.958 342.094,378.046 349.052,379.044 356.01,380.158 362.968,371.026 369.926,385.37 376.884,408.733 383.842,418.822 390.8,418.032 397.758,418.978 404.716,435.726 411.674,447.724 418.632,442.841 425.59,458.419 432.548,469.056 439.506,463.352 446.464,468.518 453.422,486.807 460.381,489.153 467.339,496.497 474.297,498.03 481.255,524.818 488.213,542.062 495.171,560.221 502.129,570.536 509.087,579.627 516.045,610.457 523.003,631.387 529.961,650.925 536.919,661.483 543.877,671.262 550.835,687.153 557.793,699.403 564.751,713.663 571.709,708.755 578.667,709.992 585.625,714.409 592.583,730.055 599.541,757.971 606.499,781.863 613.457,795.515 620.415,813.151 627.373,836.409 634.331,848.413 641.289,849.843 648.247,852.804 655.205,857.516 662.163,872.384 669.121,869.628 676.079,872.592 683.037,885.272 689.996,908.706 696.954,924.467 703.912,938.352 710.87,959.325 717.828,970.63 724.786,976.248 731.744,984.97 738.702,995.048 745.66,999.637 752.618,1013.58 759.576,1031.88 766.534,1057.79 773.492,1068.53 780.45,1069.87 787.408,1089.92 794.366,1101.65 801.324,1108.98 808.282,1095.79 815.24,1106.95 822.198,1110.98 829.156,1109.65 836.114,1128.3 843.072,1149.04 850.03,1154.68 856.988,1153.91 863.946,1161.44 870.904,1162.33 877.862,1182.3 884.82,1195.32 891.778,1204.48 898.736,1200.92 905.694,1202.09 912.652,1209.32 919.61,1206.97 926.569,1208.52 933.527,1220.14 940.485,1220.35 947.443,1212.53 954.401,1211.21 961.359,1221.91 968.317,1218.95 975.275,1218.82 982.233,1228.06 989.191,1243.32 996.149,1250.37 1003.11,1232.71 1010.06,1258.45 1017.02,1251.2 1023.98,1249.85 1030.94,1229.28 1037.9,1218.81 1044.86,1226.51 1051.81,1234.8 1058.77,1239.88 1065.73,1226.39 1072.69,1229.44 1079.65,1231.33 1086.6,1233.08 1093.56,1215.99 1100.52,1205.67 1107.48,1212.33 1114.44,1205.9 1121.39,1201.9 1128.35,1195.67 1135.31,1198.68 1142.27,1183.38 1149.23,1163.9 1156.18,1166.31 1163.14,1172.99 1170.1,1158.13 1177.06,1162.74 1184.02,1152.78 1190.97,1149.26 1197.93,1153.36 1204.89,1143.4 1211.85,1146.91 1218.81,1131.13 1225.76,1122.35 1232.72,1111.7 1239.68,1088.33 1246.64,1078.49 1253.6,1066.24 1260.55,1037.69 1267.51,1029.04 1274.47,1021.76 1281.43,1023.28 1288.39,1024.61 1295.34,1014.82 1302.3,1010.39 1309.26,1010.5 1316.22,990.226 1323.18,985.69 1330.13,964.047 1337.09,953.429 1344.05,935.786 1351.01,908.569 1357.97,890.569 1364.92,870.384 1371.88,862.983 1378.84,842.423 1385.8,806.923 1392.76,786.318 1399.71,772.819 1406.67,762.266 1413.63,755.633 1420.59,745.971 1427.55,730.172 1434.5,724.615 1441.46,715.289 1448.42,715.176 1455.38,709.761 1462.34,706.982 1469.29,712.089 1476.25,706.923 1483.21,702.082 1490.17,686.452 1497.13,671.596 1504.09,663.778 1511.04,651.34 1518,637.612 1524.96,622.863 1531.92,603.056 1538.88,582.659 1545.83,561.937 1552.79,551.163 1559.75,539.612 1566.71,532.093 1573.67,517.06 1580.62,501.029 1587.58,486.9 1594.54,491.64 1601.5,483.705 1608.46,467.672 1615.41,467.405 1622.37,480.167 1629.33,472.032 1636.29,459.782 1643.25,447.288 1650.2,434.142 1657.16,414.775 1664.12,405.358 1671.08,400.174 1678.04,385.03 1684.99,377.694 1691.95,379.749 1698.91,384.698 1705.87,375.047 1712.83,361.33 1719.78,368.225 1726.74,369.813 1733.7,347.633 1740.66,348.285 1747.62,335.944 1754.57,336.702 1761.53,346.645 1768.49,345.933 1775.45,347.432 1782.41,349.739 1789.36,348.638 1796.32,339.413 1803.28,333.423 1810.24,318.705 1817.2,324.611 1824.15,314.134 1831.11,316.183 1838.07,319.176 1845.03,310.785 1851.99,313.029 1858.94,322.481 1865.9,311.498 1872.86,317.318 1879.82,314.522 1886.78,300.239 1893.73,309.804 1900.69,319.206 1907.65,325.729 1914.61,332.359 1921.57,350.351 1928.52,334.618 1935.48,320.38 1942.44,337.021 1949.4,340.844 1956.36,344.464 1963.31,344.862 1970.27,347.859 1977.23,360.299 1984.19,357.515 1991.15,362.447 1998.11,363.84 2005.06,357.575 2012.02,373.821 2018.98,387.013 2025.94,395.465 2032.9,397.735 2039.85,409.423 2046.81,412.122 2053.77,414.158 2060.73,409.144 2067.69,423.638 2074.64,422.212 2081.6,432.833 2088.56,434.873 2095.52,458.311 2102.48,463.214 2109.43,471.654 2116.39,475.336 2123.35,487.595 2130.31,497.122 2137.27,500.971 2144.22,524.742 2151.18,537.977 2158.14,559.675 2165.1,577.271 2172.06,582.317 2179.01,603.742 2185.97,625.442 2192.93,649.459 2199.89,668.77 2206.85,677.476 2213.8,689.772 2220.76,681.947 2227.72,670.829 2234.68,659.449 2241.64,683.163 2248.59,702.794 2255.55,707.326 2262.51,698.336 2269.47,715.189 2276.43,720.238 2283.38,707.067 2290.34,707.711 "/>
<path clip-path="url(#clip082)" d="M209.891 325.678 L216.849 304.363 L223.808 304.812 L230.766 320.117 L237.724 335.674 L244.682 354.309 L251.64 365.256 L258.598 376.648 L265.556 382.616 L272.514 378.199 L279.472 378.985 L286.43 390.006 L293.388 385.612 L300.346 384.515 L307.304 388.753 L314.262 395.644 L321.22 406.6 L328.178 410.789 L335.136 423.121 L342.094 421.945 L349.052 415.419 L356.01 411.07 L362.968 417.263 L369.926 429.997 L376.884 443.133 L383.842 450.449 L390.8 445.392 L397.758 447.423 L404.716 462.711 L411.674 477.66 L418.632 488.782 L425.59 510.26 L432.548 527.291 L439.506 526.699 L446.464 530.625 L453.422 537.182 L460.381 533.129 L467.339 533.217 L474.297 543.195 L481.255 567.032 L488.213 587.774 L495.171 606.218 L502.129 618.005 L509.087 628.936 L516.045 649.624 L523.003 670.055 L529.961 690.218 L536.919 698.566 L543.877 704.873 L550.835 718.398 L557.793 730.293 L564.751 739.704 L571.709 734.702 L578.667 738.074 L585.625 745.948 L592.583 765.978 L599.541 795.2 L606.499 817.503 L613.457 830.033 L620.415 844.457 L627.373 862.742 L634.331 868.78 L641.289 868.004 L648.247 870.592 L655.205 874.502 L662.163 882.882 L669.121 877.785 L676.079 878.062 L683.037 889.006 L689.996 913.138 L696.954 935.008 L703.912 951.928 L710.87 970.044 L717.828 975.597 L724.786 980.764 L731.744 989.389 L738.702 1002.62 L745.66 1016.61 L752.618 1043.77 L759.576 1068.41 L766.534 1092.52 L773.492 1102.19 L780.45 1103.3 L787.408 1118.53 L794.366 1127.08 L801.324 1132.92 L808.282 1128.34 L815.24 1136.93 L822.198 1137.91 L829.156 1134.95 L836.114 1149.94 L843.072 1168.46 L850.03 1171.38 L856.988 1170.22 L863.946 1173.95 L870.904 1173.91 L877.862 1188.4 L884.82 1198.97 L891.778 1206.92 L898.736 1211.93 L905.694 1219.74 L912.652 1230.04 L919.61 1234.27 L926.569 1236.98 L933.527 1243.8 L940.485 1244.43 L947.443 1238.08 L954.401 1232.67 L961.359 1239.76 L968.317 1240.99 L975.275 1243.57 L982.233 1251 L989.191 1265.67 L996.149 1273.1 L1003.11 1265.12 L1010.06 1282.88 L1017.02 1280 L1023.98 1276.55 L1030.94 1260.17 L1037.9 1247.34 L1044.86 1244.87 L1051.81 1247.96 L1058.77 1251.92 L1065.73 1244.39 L1072.69 1248.6 L1079.65 1255.77 L1086.6 1259.87 L1093.56 1253.77 L1100.52 1244.88 L1107.48 1243.62 L1114.44 1232.59 L1121.39 1221.65 L1128.35 1207.25 L1135.31 1200.21 L1142.27 1188.33 L1149.23 1178.07 L1156.18 1183.4 L1163.14 1187.37 L1170.1 1185.41 L1177.06 1195.15 L1184.02 1191.23 L1190.97 1190.05 L1197.93 1190.21 L1204.89 1173.13 L1211.85 1156.51 L1218.81 1131.13 L1225.76 1111.41 L1232.72 1098.5 L1239.68 1082.74 L1246.64 1065.4 L1253.6 1053.84 L1260.55 1033.4 L1267.51 1027.73 L1274.47 1023.31 L1281.43 1024.42 L1288.39 1028.81 L1295.34 1023.1 L1302.3 1012.57 L1309.26 1013.33 L1316.22 995.931 L1323.18 991.806 L1330.13 980.164 L1337.09 973.859 L1344.05 957.254 L1351.01 932.957 L1357.97 912.097 L1364.92 891.423 L1371.88 879.888 L1378.84 858.241 L1385.8 825.092 L1392.76 809.379 L1399.71 799.687 L1406.67 790.624 L1413.63 782.456 L1420.59 770.392 L1427.55 754.569 L1434.5 747.939 L1441.46 739.932 L1448.42 740.182 L1455.38 736.343 L1462.34 733.612 L1469.29 738.301 L1476.25 732.014 L1483.21 724.943 L1490.17 710.398 L1497.13 699.194 L1504.09 693.199 L1511.04 683.008 L1518 667.789 L1524.96 650.446 L1531.92 629.695 L1538.88 605.29 L1545.83 580.441 L1552.79 564.972 L1559.75 549.551 L1566.71 537.315 L1573.67 524.143 L1580.62 511.061 L1587.58 495.584 L1594.54 495.412 L1601.5 486.845 L1608.46 480.342 L1615.41 482.594 L1622.37 486.742 L1629.33 479.592 L1636.29 468.652 L1643.25 459.492 L1650.2 445.309 L1657.16 432.735 L1664.12 420.059 L1671.08 413.634 L1678.04 408.971 L1684.99 409.057 L1691.95 413.73 L1698.91 416.017 L1705.87 409.631 L1712.83 399.565 L1719.78 403.614 L1726.74 400.112 L1733.7 391.253 L1740.66 393.962 L1747.62 397.653 L1754.57 403.281 L1761.53 413.422 L1768.49 412.34 L1775.45 404.717 L1782.41 400.686 L1789.36 393.799 L1796.32 382.511 L1803.28 373.563 L1810.24 360.114 L1817.2 357.699 L1824.15 347.481 L1831.11 340.244 L1838.07 333.975 L1845.03 321.444 L1851.99 316.775 L1858.94 317.986 L1865.9 309.42 L1872.86 308.343 L1879.82 303.976 L1886.78 296.932 L1893.73 305.729 L1900.69 318.88 L1907.65 332.928 L1914.61 348.011 L1921.57 365.99 L1928.52 362.867 L1935.48 362.142 L1942.44 372.165 L1949.4 372.41 L1956.36 375.966 L1963.31 374.305 L1970.27 378.767 L1977.23 394.243 L1984.19 389.435 L1991.15 382.354 L1998.11 374.404 L2005.06 365.256 L2012.02 376.186 L2018.98 396.658 L2025.94 413.625 L2032.9 432.6 L2039.85 445.898 L2046.81 452.425 L2053.77 452.772 L2060.73 449.149 L2067.69 446.408 L2074.64 457.593 L2081.6 472.928 L2088.56 480.378 L2095.52 494.578 L2102.48 501.493 L2109.43 511.346 L2116.39 515.598 L2123.35 526.575 L2130.31 531.574 L2137.27 535.38 L2144.22 547.907 L2151.18 550.249 L2158.14 561.652 L2165.1 575.22 L2172.06 579.475 L2179.01 600.151 L2185.97 620.046 L2192.93 642.849 L2199.89 664.189 L2206.85 675.521 L2213.8 691.059 L2220.76 688.814 L2227.72 679.067 L2234.68 668.289 L2241.64 688.07 L2248.59 704.355 L2255.55 706.747 L2262.51 701.231 L2269.47 717.814 L2276.43 724.581 L2283.38 712.785 L2290.34 723.404 L2290.34 666.784 L2283.38 671.742 L2276.43 683.54 L2269.47 676.771 L2262.51 660.185 L2255.55 665.704 L2248.59 663.311 L2241.64 647.022 L2234.68 627.238 L2227.72 638.021 L2220.76 647.769 L2213.8 650.014 L2206.85 634.471 L2199.89 623.138 L2192.93 601.793 L2185.97 578.985 L2179.01 559.086 L2172.06 538.407 L2165.1 534.154 L2158.14 520.581 L2151.18 509.175 L2144.22 506.835 L2137.27 494.303 L2130.31 490.498 L2123.35 485.498 L2116.39 474.517 L2109.43 470.266 L2102.48 460.41 L2095.52 453.494 L2088.56 439.29 L2081.6 431.84 L2074.64 416.501 L2067.69 405.315 L2060.73 408.059 L2053.77 411.682 L2046.81 411.335 L2039.85 404.805 L2032.9 391.505 L2025.94 372.527 L2018.98 355.558 L2012.02 335.085 L2005.06 324.154 L1998.11 333.304 L1991.15 341.255 L1984.19 348.337 L1977.23 353.145 L1970.27 337.666 L1963.31 333.205 L1956.36 334.866 L1949.4 331.309 L1942.44 331.064 L1935.48 321.04 L1928.52 321.765 L1921.57 324.889 L1914.61 306.908 L1907.65 291.826 L1900.69 277.778 L1893.73 264.626 L1886.78 255.829 L1879.82 262.873 L1872.86 267.24 L1865.9 268.317 L1858.94 276.883 L1851.99 275.672 L1845.03 280.341 L1838.07 292.873 L1831.11 299.142 L1824.15 306.379 L1817.2 316.597 L1810.24 319.013 L1803.28 332.463 L1796.32 341.412 L1789.36 352.701 L1782.41 359.588 L1775.45 363.619 L1768.49 371.243 L1761.53 372.325 L1754.57 362.182 L1747.62 356.554 L1740.66 352.862 L1733.7 350.153 L1726.74 359.014 L1719.78 362.515 L1712.83 358.466 L1705.87 368.534 L1698.91 374.92 L1691.95 372.633 L1684.99 367.958 L1678.04 367.873 L1671.08 372.537 L1664.12 378.963 L1657.16 391.642 L1650.2 404.217 L1643.25 418.402 L1636.29 427.563 L1629.33 438.506 L1622.37 445.656 L1615.41 441.505 L1608.46 439.253 L1601.5 445.759 L1594.54 454.328 L1587.58 454.499 L1580.62 469.98 L1573.67 483.065 L1566.71 496.239 L1559.75 508.477 L1552.79 523.903 L1545.83 539.375 L1538.88 564.231 L1531.92 588.64 L1524.96 609.394 L1518 626.74 L1511.04 641.96 L1504.09 652.153 L1497.13 658.148 L1490.17 669.353 L1483.21 683.9 L1476.25 690.971 L1469.29 697.259 L1462.34 692.569 L1455.38 695.301 L1448.42 699.14 L1441.46 698.889 L1434.5 706.898 L1427.55 713.528 L1420.59 729.352 L1413.63 741.416 L1406.67 749.584 L1399.71 758.648 L1392.76 768.34 L1385.8 784.052 L1378.84 817.198 L1371.88 838.843 L1364.92 850.378 L1357.97 871.048 L1351.01 891.905 L1344.05 916.197 L1337.09 932.8 L1330.13 939.105 L1323.18 950.744 L1316.22 954.87 L1309.26 972.267 L1302.3 971.502 L1295.34 982.033 L1288.39 987.739 L1281.43 983.352 L1274.47 982.24 L1267.51 986.661 L1260.55 992.329 L1253.6 1012.77 L1246.64 1024.32 L1239.68 1041.66 L1232.72 1057.41 L1225.76 1070.33 L1218.81 1090.04 L1211.85 1115.41 L1204.89 1132.03 L1197.93 1149.11 L1190.97 1148.95 L1184.02 1150.14 L1177.06 1154.06 L1170.1 1144.32 L1163.14 1146.27 L1156.18 1142.31 L1149.23 1136.97 L1142.27 1147.23 L1135.31 1159.11 L1128.35 1166.15 L1121.39 1180.55 L1114.44 1191.49 L1107.48 1202.51 L1100.52 1203.78 L1093.56 1212.66 L1086.6 1218.77 L1079.65 1214.67 L1072.69 1207.5 L1065.73 1203.29 L1058.77 1210.82 L1051.81 1206.85 L1044.86 1203.76 L1037.9 1206.24 L1030.94 1219.06 L1023.98 1235.44 L1017.02 1238.9 L1010.06 1241.78 L1003.11 1224.02 L996.149 1232 L989.191 1224.57 L982.233 1209.9 L975.275 1202.47 L968.317 1199.88 L961.359 1198.66 L954.401 1191.57 L947.443 1196.98 L940.485 1203.33 L933.527 1202.69 L926.569 1195.88 L919.61 1193.17 L912.652 1188.94 L905.694 1178.64 L898.736 1170.83 L891.778 1165.82 L884.82 1157.87 L877.862 1147.3 L870.904 1132.81 L863.946 1132.86 L856.988 1129.12 L850.03 1130.28 L843.072 1127.36 L836.114 1108.85 L829.156 1093.86 L822.198 1096.82 L815.24 1095.84 L808.282 1087.25 L801.324 1091.83 L794.366 1086 L787.408 1077.44 L780.45 1062.21 L773.492 1061.11 L766.534 1051.44 L759.576 1027.34 L752.618 1002.7 L745.66 975.55 L738.702 961.561 L731.744 948.329 L724.786 939.704 L717.828 934.538 L710.87 928.985 L703.912 910.875 L696.954 893.957 L689.996 872.092 L683.037 847.962 L676.079 837.019 L669.121 836.741 L662.163 841.837 L655.205 833.459 L648.247 829.548 L641.289 826.961 L634.331 827.737 L627.373 821.7 L620.415 803.417 L613.457 788.994 L606.499 776.464 L599.541 754.16 L592.583 724.937 L585.625 704.907 L578.667 697.032 L571.709 693.66 L564.751 698.664 L557.793 689.25 L550.835 677.354 L543.877 663.828 L536.919 657.52 L529.961 649.172 L523.003 629.004 L516.045 608.569 L509.087 587.877 L502.129 576.945 L495.171 565.156 L488.213 546.707 L481.255 525.96 L474.297 502.117 L467.339 492.141 L460.381 492.054 L453.422 496.109 L446.464 489.548 L439.506 485.622 L432.548 486.215 L425.59 469.178 L418.632 447.694 L411.674 436.572 L404.716 421.62 L397.758 406.33 L390.8 404.301 L383.842 409.359 L376.884 402.04 L369.926 388.902 L362.968 376.166 L356.01 369.973 L349.052 374.323 L342.094 380.85 L335.136 382.026 L328.178 369.691 L321.22 365.502 L314.262 354.544 L307.304 347.654 L300.346 343.415 L293.388 344.513 L286.43 348.907 L279.472 337.884 L272.514 337.099 L265.556 341.516 L258.598 335.547 L251.64 324.155 L244.682 313.206 L237.724 294.571 L230.766 279.014 L223.808 263.709 L216.849 263.26 L209.891 284.576  Z" fill="#008000" fill-rule="evenodd" fill-opacity="0.5"/>
<polyline clip-path="url(#clip082)" style="stroke:#008000; stroke-linecap:round; stroke-linejoin:round; stroke-width:8; stroke-opacity:1; fill:none" points="209.891,305.127 216.849,283.811 223.808,284.261 230.766,299.565 237.724,315.122 244.682,333.757 251.64,344.705 258.598,356.097 265.556,362.066 272.514,357.649 279.472,358.434 286.43,369.456 293.388,365.063 300.346,363.965 307.304,368.204 314.262,375.094 321.22,386.051 328.178,390.24 335.136,402.573 342.094,401.397 349.052,394.871 356.01,390.522 362.968,396.714 369.926,409.449 376.884,422.587 383.842,429.904 390.8,424.847 397.758,426.877 404.716,442.166 411.674,457.116 418.632,468.238 425.59,489.719 432.548,506.753 439.506,506.161 446.464,510.086 453.422,516.646 460.381,512.592 467.339,512.679 474.297,522.656 481.255,546.496 488.213,567.241 495.171,585.687 502.129,597.475 509.087,608.407 516.045,629.097 523.003,649.53 529.961,669.695 536.919,678.043 543.877,684.35 550.835,697.876 557.793,709.771 564.751,719.184 571.709,714.181 578.667,717.553 585.625,725.427 592.583,745.458 599.541,774.68 606.499,796.983 613.457,809.514 620.415,823.937 627.373,842.221 634.331,848.258 641.289,847.483 648.247,850.07 655.205,853.981 662.163,862.359 669.121,857.263 676.079,857.541 683.037,868.484 689.996,892.615 696.954,914.483 703.912,931.401 710.87,949.514 717.828,955.067 724.786,960.234 731.744,968.859 738.702,982.093 745.66,996.082 752.618,1023.24 759.576,1047.87 766.534,1071.98 773.492,1081.65 780.45,1082.75 787.408,1097.99 794.366,1106.54 801.324,1112.37 808.282,1107.79 815.24,1116.38 822.198,1117.37 829.156,1114.41 836.114,1129.39 843.072,1147.91 850.03,1150.83 856.988,1149.67 863.946,1153.41 870.904,1153.36 877.862,1167.85 884.82,1178.42 891.778,1186.37 898.736,1191.38 905.694,1199.19 912.652,1209.49 919.61,1213.72 926.569,1216.43 933.527,1223.25 940.485,1223.88 947.443,1217.53 954.401,1212.12 961.359,1219.21 968.317,1220.44 975.275,1223.02 982.233,1230.45 989.191,1245.12 996.149,1252.55 1003.11,1244.57 1010.06,1262.33 1017.02,1259.45 1023.98,1255.99 1030.94,1239.61 1037.9,1226.79 1044.86,1224.31 1051.81,1227.4 1058.77,1231.37 1065.73,1223.84 1072.69,1228.05 1079.65,1235.22 1086.6,1239.32 1093.56,1233.21 1100.52,1224.33 1107.48,1223.06 1114.44,1212.04 1121.39,1201.1 1128.35,1186.7 1135.31,1179.66 1142.27,1167.78 1149.23,1157.52 1156.18,1162.86 1163.14,1166.82 1170.1,1164.86 1177.06,1174.6 1184.02,1170.68 1190.97,1169.5 1197.93,1169.66 1204.89,1152.58 1211.85,1135.96 1218.81,1110.58 1225.76,1090.87 1232.72,1077.95 1239.68,1062.2 1246.64,1044.86 1253.6,1033.3 1260.55,1012.86 1267.51,1007.2 1274.47,1002.77 1281.43,1003.88 1288.39,1008.27 1295.34,1002.57 1302.3,992.034 1309.26,992.8 1316.22,975.4 1323.18,971.275 1330.13,959.635 1337.09,953.33 1344.05,936.725 1351.01,912.431 1357.97,891.573 1364.92,870.9 1371.88,859.365 1378.84,837.72 1385.8,804.572 1392.76,788.859 1399.71,779.167 1406.67,770.104 1413.63,761.936 1420.59,749.872 1427.55,734.048 1434.5,727.419 1441.46,719.41 1448.42,719.661 1455.38,715.822 1462.34,713.09 1469.29,717.78 1476.25,711.493 1483.21,704.422 1490.17,689.876 1497.13,678.671 1504.09,672.676 1511.04,662.484 1518,647.264 1524.96,629.92 1531.92,609.168 1538.88,584.761 1545.83,559.908 1552.79,544.438 1559.75,529.014 1566.71,516.777 1573.67,503.604 1580.62,490.521 1587.58,475.041 1594.54,474.87 1601.5,466.302 1608.46,459.797 1615.41,462.05 1622.37,466.199 1629.33,459.049 1636.29,448.108 1643.25,438.947 1650.2,424.763 1657.16,412.189 1664.12,399.511 1671.08,393.085 1678.04,388.422 1684.99,388.507 1691.95,393.181 1698.91,395.468 1705.87,389.083 1712.83,379.016 1719.78,383.065 1726.74,379.563 1733.7,370.703 1740.66,373.412 1747.62,377.103 1754.57,382.731 1761.53,392.873 1768.49,391.791 1775.45,384.168 1782.41,380.137 1789.36,373.25 1796.32,361.961 1803.28,353.013 1810.24,339.564 1817.2,337.148 1824.15,326.93 1831.11,319.693 1838.07,313.424 1845.03,300.893 1851.99,296.224 1858.94,297.434 1865.9,288.868 1872.86,287.791 1879.82,283.425 1886.78,276.38 1893.73,285.178 1900.69,298.329 1907.65,312.377 1914.61,327.46 1921.57,345.439 1928.52,342.316 1935.48,341.591 1942.44,351.614 1949.4,351.859 1956.36,355.416 1963.31,353.755 1970.27,358.217 1977.23,373.694 1984.19,368.886 1991.15,361.805 1998.11,353.854 2005.06,344.705 2012.02,355.636 2018.98,376.108 2025.94,393.076 2032.9,412.053 2039.85,425.352 2046.81,431.88 2053.77,432.227 2060.73,428.604 2067.69,425.862 2074.64,437.047 2081.6,452.384 2088.56,459.834 2095.52,474.036 2102.48,480.952 2109.43,490.806 2116.39,495.057 2123.35,506.037 2130.31,511.036 2137.27,514.841 2144.22,527.371 2151.18,529.712 2158.14,541.117 2165.1,554.687 2172.06,558.941 2179.01,579.619 2185.97,599.516 2192.93,622.321 2199.89,643.663 2206.85,654.996 2213.8,670.536 2220.76,668.291 2227.72,658.544 2234.68,647.764 2241.64,667.546 2248.59,683.833 2255.55,686.226 2262.51,680.708 2269.47,697.293 2276.43,704.06 2283.38,692.263 2290.34,695.094 "/>
<circle clip-path="url(#clip082)" cx="209.891" cy="485.858" r="5.4" fill="#000000" fill-rule="evenodd" fill-opacity="1" stroke="none"/>
<circle clip-path="url(#clip082)" cx="216.849" cy="87.9763" r="5.4" fill="#000000" fill-rule="evenodd" fill-opacity="1" stroke="none"/>
<circle clip-path="url(#clip082)" cx="223.808" cy="153.89" r="5.4" fill="#000000" fill-rule="evenodd" fill-opacity="1" stroke="none"/>
<circle clip-path="url(#clip082)" cx="230.766" cy="298.939" r="5.4" fill="#000000" fill-rule="evenodd" fill-opacity="1" stroke="none"/>
<circle clip-path="url(#clip082)" cx="237.724" cy="291.442" r="5.4" fill="#000000" fill-rule="evenodd" fill-opacity="1" stroke="none"/>
<circle clip-path="url(#clip082)" cx="244.682" cy="403.716" r="5.4" fill="#000000" fill-rule="evenodd" fill-opacity="1" stroke="none"/>
<circle clip-path="url(#clip082)" cx="251.64" cy="344.804" r="5.4" fill="#000000" fill-rule="evenodd" fill-opacity="1" stroke="none"/>
<circle clip-path="url(#clip082)" cx="258.598" cy="404.24" r="5.4" fill="#000000" fill-rule="evenodd" fill-opacity="1" stroke="none"/>
<circle clip-path="url(#clip082)" cx="265.556" cy="461.828" r="5.4" fill="#000000" fill-rule="evenodd" fill-opacity="1" stroke="none"/>
<circle clip-path="url(#clip082)" cx="272.514" cy="308.114" r="5.4" fill="#000000" fill-rule="evenodd" fill-opacity="1" stroke="none"/>
<circle clip-path="url(#clip082)" cx="279.472" cy="270.432" r="5.4" fill="#000000" fill-rule="evenodd" fill-opacity="1" stroke="none"/>
<circle clip-path="url(#clip082)" cx="286.43" cy="505.066" r="5.4" fill="#000000" fill-rule="evenodd" fill-opacity="1" stroke="none"/>
<circle clip-path="url(#clip082)" cx="293.388" cy="335.985" r="5.4" fill="#000000" fill-rule="evenodd" fill-opacity="1" stroke="none"/>
<circle clip-path="url(#clip082)" cx="300.346" cy="323.113" r="5.4" fill="#000000" fill-rule="evenodd" fill-opacity="1" stroke="none"/>
<circle clip-path="url(#clip082)" cx="307.304" cy="343.51" r="5.4" fill="#000000" fill-rule="evenodd" fill-opacity="1" stroke="none"/>
<circle clip-path="url(#clip082)" cx="314.262" cy="338.579" r="5.4" fill="#000000" fill-rule="evenodd" fill-opacity="1" stroke="none"/>
<circle clip-path="url(#clip082)" cx="321.22" cy="450.618" r="5.4" fill="#000000" fill-rule="evenodd" fill-opacity="1" stroke="none"/>
<circle clip-path="url(#clip082)" cx="328.178" cy="321.942" r="5.4" fill="#000000" fill-rule="evenodd" fill-opacity="1" stroke="none"/>
<circle clip-path="url(#clip082)" cx="335.136" cy="528.387" r="5.4" fill="#000000" fill-rule="evenodd" fill-opacity="1" stroke="none"/>
<circle clip-path="url(#clip082)" cx="342.094" cy="449.217" r="5.4" fill="#000000" fill-rule="evenodd" fill-opacity="1" stroke="none"/>
<circle clip-path="url(#clip082)" cx="349.052" cy="380.214" r="5.4" fill="#000000" fill-rule="evenodd" fill-opacity="1" stroke="none"/>
<circle clip-path="url(#clip082)" cx="356.01" cy="303.34" r="5.4" fill="#000000" fill-rule="evenodd" fill-opacity="1" stroke="none"/>
<circle clip-path="url(#clip082)" cx="362.968" cy="329.757" r="5.4" fill="#000000" fill-rule="evenodd" fill-opacity="1" stroke="none"/>
<circle clip-path="url(#clip082)" cx="369.926" cy="403.255" r="5.4" fill="#000000" fill-rule="evenodd" fill-opacity="1" stroke="none"/>
<circle clip-path="url(#clip082)" cx="376.884" cy="480.419" r="5.4" fill="#000000" fill-rule="evenodd" fill-opacity="1" stroke="none"/>
<circle clip-path="url(#clip082)" cx="383.842" cy="544.144" r="5.4" fill="#000000" fill-rule="evenodd" fill-opacity="1" stroke="none"/>
<circle clip-path="url(#clip082)" cx="390.8" cy="368.128" r="5.4" fill="#000000" fill-rule="evenodd" fill-opacity="1" stroke="none"/>
<circle clip-path="url(#clip082)" cx="397.758" cy="310.471" r="5.4" fill="#000000" fill-rule="evenodd" fill-opacity="1" stroke="none"/>
<circle clip-path="url(#clip082)" cx="404.716" cy="449.361" r="5.4" fill="#000000" fill-rule="evenodd" fill-opacity="1" stroke="none"/>
<circle clip-path="url(#clip082)" cx="411.674" cy="498.156" r="5.4" fill="#000000" fill-rule="evenodd" fill-opacity="1" stroke="none"/>
<circle clip-path="url(#clip082)" cx="418.632" cy="371.136" r="5.4" fill="#000000" fill-rule="evenodd" fill-opacity="1" stroke="none"/>
<circle clip-path="url(#clip082)" cx="425.59" cy="525.715" r="5.4" fill="#000000" fill-rule="evenodd" fill-opacity="1" stroke="none"/>
<circle clip-path="url(#clip082)" cx="432.548" cy="655.072" r="5.4" fill="#000000" fill-rule="evenodd" fill-opacity="1" stroke="none"/>
<circle clip-path="url(#clip082)" cx="439.506" cy="459.639" r="5.4" fill="#000000" fill-rule="evenodd" fill-opacity="1" stroke="none"/>
<circle clip-path="url(#clip082)" cx="446.464" cy="479.856" r="5.4" fill="#000000" fill-rule="evenodd" fill-opacity="1" stroke="none"/>
<circle clip-path="url(#clip082)" cx="453.422" cy="613.739" r="5.4" fill="#000000" fill-rule="evenodd" fill-opacity="1" stroke="none"/>
<circle clip-path="url(#clip082)" cx="460.381" cy="476.72" r="5.4" fill="#000000" fill-rule="evenodd" fill-opacity="1" stroke="none"/>
<circle clip-path="url(#clip082)" cx="467.339" cy="433.117" r="5.4" fill="#000000" fill-rule="evenodd" fill-opacity="1" stroke="none"/>
<circle clip-path="url(#clip082)" cx="474.297" cy="389.142" r="5.4" fill="#000000" fill-rule="evenodd" fill-opacity="1" stroke="none"/>
<circle clip-path="url(#clip082)" cx="481.255" cy="574.308" r="5.4" fill="#000000" fill-rule="evenodd" fill-opacity="1" stroke="none"/>
<circle clip-path="url(#clip082)" cx="488.213" cy="585.489" r="5.4" fill="#000000" fill-rule="evenodd" fill-opacity="1" stroke="none"/>
<circle clip-path="url(#clip082)" cx="495.171" cy="645.997" r="5.4" fill="#000000" fill-rule="evenodd" fill-opacity="1" stroke="none"/>
<circle clip-path="url(#clip082)" cx="502.129" cy="604.248" r="5.4" fill="#000000" fill-rule="evenodd" fill-opacity="1" stroke="none"/>
<circle clip-path="url(#clip082)" cx="509.087" cy="513.911" r="5.4" fill="#000000" fill-rule="evenodd" fill-opacity="1" stroke="none"/>
<circle clip-path="url(#clip082)" cx="516.045" cy="648.088" r="5.4" fill="#000000" fill-rule="evenodd" fill-opacity="1" stroke="none"/>
<circle clip-path="url(#clip082)" cx="523.003" cy="663.493" r="5.4" fill="#000000" fill-rule="evenodd" fill-opacity="1" stroke="none"/>
<circle clip-path="url(#clip082)" cx="529.961" cy="768.456" r="5.4" fill="#000000" fill-rule="evenodd" fill-opacity="1" stroke="none"/>
<circle clip-path="url(#clip082)" cx="536.919" cy="690.015" r="5.4" fill="#000000" fill-rule="evenodd" fill-opacity="1" stroke="none"/>
<circle clip-path="url(#clip082)" cx="543.877" cy="629.79" r="5.4" fill="#000000" fill-rule="evenodd" fill-opacity="1" stroke="none"/>
<circle clip-path="url(#clip082)" cx="550.835" cy="726.303" r="5.4" fill="#000000" fill-rule="evenodd" fill-opacity="1" stroke="none"/>
<circle clip-path="url(#clip082)" cx="557.793" cy="720.876" r="5.4" fill="#000000" fill-rule="evenodd" fill-opacity="1" stroke="none"/>
<circle clip-path="url(#clip082)" cx="564.751" cy="843.841" r="5.4" fill="#000000" fill-rule="evenodd" fill-opacity="1" stroke="none"/>
<circle clip-path="url(#clip082)" cx="571.709" cy="637.972" r="5.4" fill="#000000" fill-rule="evenodd" fill-opacity="1" stroke="none"/>
<circle clip-path="url(#clip082)" cx="578.667" cy="677.693" r="5.4" fill="#000000" fill-rule="evenodd" fill-opacity="1" stroke="none"/>
<circle clip-path="url(#clip082)" cx="585.625" cy="634.499" r="5.4" fill="#000000" fill-rule="evenodd" fill-opacity="1" stroke="none"/>
<circle clip-path="url(#clip082)" cx="592.583" cy="670.201" r="5.4" fill="#000000" fill-rule="evenodd" fill-opacity="1" stroke="none"/>
<circle clip-path="url(#clip082)" cx="599.541" cy="826.71" r="5.4" fill="#000000" fill-rule="evenodd" fill-opacity="1" stroke="none"/>
<circle clip-path="url(#clip082)" cx="606.499" cy="880.69" r="5.4" fill="#000000" fill-rule="evenodd" fill-opacity="1" stroke="none"/>
<circle clip-path="url(#clip082)" cx="613.457" cy="781.318" r="5.4" fill="#000000" fill-rule="evenodd" fill-opacity="1" stroke="none"/>
<circle clip-path="url(#clip082)" cx="620.415" cy="782.995" r="5.4" fill="#000000" fill-rule="evenodd" fill-opacity="1" stroke="none"/>
<circle clip-path="url(#clip082)" cx="627.373" cy="951.58" r="5.4" fill="#000000" fill-rule="evenodd" fill-opacity="1" stroke="none"/>
<circle clip-path="url(#clip082)" cx="634.331" cy="903.105" r="5.4" fill="#000000" fill-rule="evenodd" fill-opacity="1" stroke="none"/>
<circle clip-path="url(#clip082)" cx="641.289" cy="820.98" r="5.4" fill="#000000" fill-rule="evenodd" fill-opacity="1" stroke="none"/>
<circle clip-path="url(#clip082)" cx="648.247" cy="847.824" r="5.4" fill="#000000" fill-rule="evenodd" fill-opacity="1" stroke="none"/>
<circle clip-path="url(#clip082)" cx="655.205" cy="811.062" r="5.4" fill="#000000" fill-rule="evenodd" fill-opacity="1" stroke="none"/>
<circle clip-path="url(#clip082)" cx="662.163" cy="972.048" r="5.4" fill="#000000" fill-rule="evenodd" fill-opacity="1" stroke="none"/>
<circle clip-path="url(#clip082)" cx="669.121" cy="804.815" r="5.4" fill="#000000" fill-rule="evenodd" fill-opacity="1" stroke="none"/>
<circle clip-path="url(#clip082)" cx="676.079" cy="737.078" r="5.4" fill="#000000" fill-rule="evenodd" fill-opacity="1" stroke="none"/>
<circle clip-path="url(#clip082)" cx="683.037" cy="747.401" r="5.4" fill="#000000" fill-rule="evenodd" fill-opacity="1" stroke="none"/>
<circle clip-path="url(#clip082)" cx="689.996" cy="902.739" r="5.4" fill="#000000" fill-rule="evenodd" fill-opacity="1" stroke="none"/>
<circle clip-path="url(#clip082)" cx="696.954" cy="979.827" r="5.4" fill="#000000" fill-rule="evenodd" fill-opacity="1" stroke="none"/>
<circle clip-path="url(#clip082)" cx="703.912" cy="930.888" r="5.4" fill="#000000" fill-rule="evenodd" fill-opacity="1" stroke="none"/>
<circle clip-path="url(#clip082)" cx="710.87" cy="1068.85" r="5.4" fill="#000000" fill-rule="evenodd" fill-opacity="1" stroke="none"/>
<circle clip-path="url(#clip082)" cx="717.828" cy="946.988" r="5.4" fill="#000000" fill-rule="evenodd" fill-opacity="1" stroke="none"/>
<circle clip-path="url(#clip082)" cx="724.786" cy="929.609" r="5.4" fill="#000000" fill-rule="evenodd" fill-opacity="1" stroke="none"/>
<circle clip-path="url(#clip082)" cx="731.744" cy="923.989" r="5.4" fill="#000000" fill-rule="evenodd" fill-opacity="1" stroke="none"/>
<circle clip-path="url(#clip082)" cx="738.702" cy="974.329" r="5.4" fill="#000000" fill-rule="evenodd" fill-opacity="1" stroke="none"/>
<circle clip-path="url(#clip082)" cx="745.66" cy="874.548" r="5.4" fill="#000000" fill-rule="evenodd" fill-opacity="1" stroke="none"/>
<circle clip-path="url(#clip082)" cx="752.618" cy="1061.19" r="5.4" fill="#000000" fill-rule="evenodd" fill-opacity="1" stroke="none"/>
<circle clip-path="url(#clip082)" cx="759.576" cy="1053.27" r="5.4" fill="#000000" fill-rule="evenodd" fill-opacity="1" stroke="none"/>
<circle clip-path="url(#clip082)" cx="766.534" cy="1195.71" r="5.4" fill="#000000" fill-rule="evenodd" fill-opacity="1" stroke="none"/>
<circle clip-path="url(#clip082)" cx="773.492" cy="1155.73" r="5.4" fill="#000000" fill-rule="evenodd" fill-opacity="1" stroke="none"/>
<circle clip-path="url(#clip082)" cx="780.45" cy="947.42" r="5.4" fill="#000000" fill-rule="evenodd" fill-opacity="1" stroke="none"/>
<circle clip-path="url(#clip082)" cx="787.408" cy="1150.33" r="5.4" fill="#000000" fill-rule="evenodd" fill-opacity="1" stroke="none"/>
<circle clip-path="url(#clip082)" cx="794.366" cy="1122.97" r="5.4" fill="#000000" fill-rule="evenodd" fill-opacity="1" stroke="none"/>
<circle clip-path="url(#clip082)" cx="801.324" cy="1201.18" r="5.4" fill="#000000" fill-rule="evenodd" fill-opacity="1" stroke="none"/>
<circle clip-path="url(#clip082)" cx="808.282" cy="995.576" r="5.4" fill="#000000" fill-rule="evenodd" fill-opacity="1" stroke="none"/>
<circle clip-path="url(#clip082)" cx="815.24" cy="1187.62" r="5.4" fill="#000000" fill-rule="evenodd" fill-opacity="1" stroke="none"/>
<circle clip-path="url(#clip082)" cx="822.198" cy="1155.23" r="5.4" fill="#000000" fill-rule="evenodd" fill-opacity="1" stroke="none"/>
<circle clip-path="url(#clip082)" cx="829.156" cy="952.27" r="5.4" fill="#000000" fill-rule="evenodd" fill-opacity="1" stroke="none"/>
<circle clip-path="url(#clip082)" cx="836.114" cy="1094.16" r="5.4" fill="#000000" fill-rule="evenodd" fill-opacity="1" stroke="none"/>
<circle clip-path="url(#clip082)" cx="843.072" cy="1288.26" r="5.4" fill="#000000" fill-rule="evenodd" fill-opacity="1" stroke="none"/>
<circle clip-path="url(#clip082)" cx="850.03" cy="1183.9" r="5.4" fill="#000000" fill-rule="evenodd" fill-opacity="1" stroke="none"/>
<circle clip-path="url(#clip082)" cx="856.988" cy="1104.13" r="5.4" fill="#000000" fill-rule="evenodd" fill-opacity="1" stroke="none"/>
<circle clip-path="url(#clip082)" cx="863.946" cy="1186.05" r="5.4" fill="#000000" fill-rule="evenodd" fill-opacity="1" stroke="none"/>
<circle clip-path="url(#clip082)" cx="870.904" cy="1019.53" r="5.4" fill="#000000" fill-rule="evenodd" fill-opacity="1" stroke="none"/>
<circle clip-path="url(#clip082)" cx="877.862" cy="1198.79" r="5.4" fill="#000000" fill-rule="evenodd" fill-opacity="1" stroke="none"/>
<circle clip-path="url(#clip082)" cx="884.82" cy="1196.76" r="5.4" fill="#000000" fill-rule="evenodd" fill-opacity="1" stroke="none"/>
<circle clip-path="url(#clip082)" cx="891.778" cy="1205.52" r="5.4" fill="#000000" fill-rule="evenodd" fill-opacity="1" stroke="none"/>
<circle clip-path="url(#clip082)" cx="898.736" cy="1164.51" r="5.4" fill="#000000" fill-rule="evenodd" fill-opacity="1" stroke="none"/>
<circle clip-path="url(#clip082)" cx="905.694" cy="1175.78" r="5.4" fill="#000000" fill-rule="evenodd" fill-opacity="1" stroke="none"/>
<circle clip-path="url(#clip082)" cx="912.652" cy="1262.19" r="5.4" fill="#000000" fill-rule="evenodd" fill-opacity="1" stroke="none"/>
<circle clip-path="url(#clip082)" cx="919.61" cy="1228.98" r="5.4" fill="#000000" fill-rule="evenodd" fill-opacity="1" stroke="none"/>
<circle clip-path="url(#clip082)" cx="926.569" cy="1178.09" r="5.4" fill="#000000" fill-rule="evenodd" fill-opacity="1" stroke="none"/>
<circle clip-path="url(#clip082)" cx="933.527" cy="1275.61" r="5.4" fill="#000000" fill-rule="evenodd" fill-opacity="1" stroke="none"/>
<circle clip-path="url(#clip082)" cx="940.485" cy="1286.58" r="5.4" fill="#000000" fill-rule="evenodd" fill-opacity="1" stroke="none"/>
<circle clip-path="url(#clip082)" cx="947.443" cy="1210.06" r="5.4" fill="#000000" fill-rule="evenodd" fill-opacity="1" stroke="none"/>
<circle clip-path="url(#clip082)" cx="954.401" cy="1094.27" r="5.4" fill="#000000" fill-rule="evenodd" fill-opacity="1" stroke="none"/>
<circle clip-path="url(#clip082)" cx="961.359" cy="1270.67" r="5.4" fill="#000000" fill-rule="evenodd" fill-opacity="1" stroke="none"/>
<circle clip-path="url(#clip082)" cx="968.317" cy="1209.03" r="5.4" fill="#000000" fill-rule="evenodd" fill-opacity="1" stroke="none"/>
<circle clip-path="url(#clip082)" cx="975.275" cy="1180.9" r="5.4" fill="#000000" fill-rule="evenodd" fill-opacity="1" stroke="none"/>
<circle clip-path="url(#clip082)" cx="982.233" cy="1157.59" r="5.4" fill="#000000" fill-rule="evenodd" fill-opacity="1" stroke="none"/>
<circle clip-path="url(#clip082)" cx="989.191" cy="1309.55" r="5.4" fill="#000000" fill-rule="evenodd" fill-opacity="1" stroke="none"/>
<circle clip-path="url(#clip082)" cx="996.149" cy="1385.91" r="5.4" fill="#000000" fill-rule="evenodd" fill-opacity="1" stroke="none"/>
<circle clip-path="url(#clip082)" cx="1003.11" cy="1008.55" r="5.4" fill="#000000" fill-rule="evenodd" fill-opacity="1" stroke="none"/>
<circle clip-path="url(#clip082)" cx="1010.06" cy="1445.72" r="5.4" fill="#000000" fill-rule="evenodd" fill-opacity="1" stroke="none"/>
<circle clip-path="url(#clip082)" cx="1017.02" cy="1265.79" r="5.4" fill="#000000" fill-rule="evenodd" fill-opacity="1" stroke="none"/>
<circle clip-path="url(#clip082)" cx="1023.98" cy="1372.39" r="5.4" fill="#000000" fill-rule="evenodd" fill-opacity="1" stroke="none"/>
<circle clip-path="url(#clip082)" cx="1030.94" cy="1203.74" r="5.4" fill="#000000" fill-rule="evenodd" fill-opacity="1" stroke="none"/>
<circle clip-path="url(#clip082)" cx="1037.9" cy="1128.68" r="5.4" fill="#000000" fill-rule="evenodd" fill-opacity="1" stroke="none"/>
<circle clip-path="url(#clip082)" cx="1044.86" cy="1177.64" r="5.4" fill="#000000" fill-rule="evenodd" fill-opacity="1" stroke="none"/>
<circle clip-path="url(#clip082)" cx="1051.81" cy="1219.94" r="5.4" fill="#000000" fill-rule="evenodd" fill-opacity="1" stroke="none"/>
<circle clip-path="url(#clip082)" cx="1058.77" cy="1333.24" r="5.4" fill="#000000" fill-rule="evenodd" fill-opacity="1" stroke="none"/>
<circle clip-path="url(#clip082)" cx="1065.73" cy="1116.68" r="5.4" fill="#000000" fill-rule="evenodd" fill-opacity="1" stroke="none"/>
<circle clip-path="url(#clip082)" cx="1072.69" cy="1199.61" r="5.4" fill="#000000" fill-rule="evenodd" fill-opacity="1" stroke="none"/>
<circle clip-path="url(#clip082)" cx="1079.65" cy="1258.15" r="5.4" fill="#000000" fill-rule="evenodd" fill-opacity="1" stroke="none"/>
<circle clip-path="url(#clip082)" cx="1086.6" cy="1330.49" r="5.4" fill="#000000" fill-rule="evenodd" fill-opacity="1" stroke="none"/>
<circle clip-path="url(#clip082)" cx="1093.56" cy="1250.29" r="5.4" fill="#000000" fill-rule="evenodd" fill-opacity="1" stroke="none"/>
<circle clip-path="url(#clip082)" cx="1100.52" cy="1153.78" r="5.4" fill="#000000" fill-rule="evenodd" fill-opacity="1" stroke="none"/>
<circle clip-path="url(#clip082)" cx="1107.48" cy="1310.93" r="5.4" fill="#000000" fill-rule="evenodd" fill-opacity="1" stroke="none"/>
<circle clip-path="url(#clip082)" cx="1114.44" cy="1210.55" r="5.4" fill="#000000" fill-rule="evenodd" fill-opacity="1" stroke="none"/>
<circle clip-path="url(#clip082)" cx="1121.39" cy="1231.2" r="5.4" fill="#000000" fill-rule="evenodd" fill-opacity="1" stroke="none"/>
<circle clip-path="url(#clip082)" cx="1128.35" cy="1120.8" r="5.4" fill="#000000" fill-rule="evenodd" fill-opacity="1" stroke="none"/>
<circle clip-path="url(#clip082)" cx="1135.31" cy="1226.05" r="5.4" fill="#000000" fill-rule="evenodd" fill-opacity="1" stroke="none"/>
<circle clip-path="url(#clip082)" cx="1142.27" cy="1152.21" r="5.4" fill="#000000" fill-rule="evenodd" fill-opacity="1" stroke="none"/>
<circle clip-path="url(#clip082)" cx="1149.23" cy="1010.8" r="5.4" fill="#000000" fill-rule="evenodd" fill-opacity="1" stroke="none"/>
<circle clip-path="url(#clip082)" cx="1156.18" cy="1168.06" r="5.4" fill="#000000" fill-rule="evenodd" fill-opacity="1" stroke="none"/>
<circle clip-path="url(#clip082)" cx="1163.14" cy="1221.33" r="5.4" fill="#000000" fill-rule="evenodd" fill-opacity="1" stroke="none"/>
<circle clip-path="url(#clip082)" cx="1170.1" cy="1052.91" r="5.4" fill="#000000" fill-rule="evenodd" fill-opacity="1" stroke="none"/>
<circle clip-path="url(#clip082)" cx="1177.06" cy="1292.31" r="5.4" fill="#000000" fill-rule="evenodd" fill-opacity="1" stroke="none"/>
<circle clip-path="url(#clip082)" cx="1184.02" cy="1141.6" r="5.4" fill="#000000" fill-rule="evenodd" fill-opacity="1" stroke="none"/>
<circle clip-path="url(#clip082)" cx="1190.97" cy="1153.16" r="5.4" fill="#000000" fill-rule="evenodd" fill-opacity="1" stroke="none"/>
<circle clip-path="url(#clip082)" cx="1197.93" cy="1321.05" r="5.4" fill="#000000" fill-rule="evenodd" fill-opacity="1" stroke="none"/>
<circle clip-path="url(#clip082)" cx="1204.89" cy="1146.16" r="5.4" fill="#000000" fill-rule="evenodd" fill-opacity="1" stroke="none"/>
<circle clip-path="url(#clip082)" cx="1211.85" cy="1221.34" r="5.4" fill="#000000" fill-rule="evenodd" fill-opacity="1" stroke="none"/>
<circle clip-path="url(#clip082)" cx="1218.81" cy="1063.1" r="5.4" fill="#000000" fill-rule="evenodd" fill-opacity="1" stroke="none"/>
<circle clip-path="url(#clip082)" cx="1225.76" cy="1039.09" r="5.4" fill="#000000" fill-rule="evenodd" fill-opacity="1" stroke="none"/>
<circle clip-path="url(#clip082)" cx="1232.72" cy="1106.46" r="5.4" fill="#000000" fill-rule="evenodd" fill-opacity="1" stroke="none"/>
<circle clip-path="url(#clip082)" cx="1239.68" cy="1062.54" r="5.4" fill="#000000" fill-rule="evenodd" fill-opacity="1" stroke="none"/>
<circle clip-path="url(#clip082)" cx="1246.64" cy="996.456" r="5.4" fill="#000000" fill-rule="evenodd" fill-opacity="1" stroke="none"/>
<circle clip-path="url(#clip082)" cx="1253.6" cy="1108.34" r="5.4" fill="#000000" fill-rule="evenodd" fill-opacity="1" stroke="none"/>
<circle clip-path="url(#clip082)" cx="1260.55" cy="866.205" r="5.4" fill="#000000" fill-rule="evenodd" fill-opacity="1" stroke="none"/>
<circle clip-path="url(#clip082)" cx="1267.51" cy="986.912" r="5.4" fill="#000000" fill-rule="evenodd" fill-opacity="1" stroke="none"/>
<circle clip-path="url(#clip082)" cx="1274.47" cy="948.497" r="5.4" fill="#000000" fill-rule="evenodd" fill-opacity="1" stroke="none"/>
<circle clip-path="url(#clip082)" cx="1281.43" cy="979.201" r="5.4" fill="#000000" fill-rule="evenodd" fill-opacity="1" stroke="none"/>
<circle clip-path="url(#clip082)" cx="1288.39" cy="1102.13" r="5.4" fill="#000000" fill-rule="evenodd" fill-opacity="1" stroke="none"/>
<circle clip-path="url(#clip082)" cx="1295.34" cy="1041.18" r="5.4" fill="#000000" fill-rule="evenodd" fill-opacity="1" stroke="none"/>
<circle clip-path="url(#clip082)" cx="1302.3" cy="903.761" r="5.4" fill="#000000" fill-rule="evenodd" fill-opacity="1" stroke="none"/>
<circle clip-path="url(#clip082)" cx="1309.26" cy="1156.89" r="5.4" fill="#000000" fill-rule="evenodd" fill-opacity="1" stroke="none"/>
<circle clip-path="url(#clip082)" cx="1316.22" cy="859.145" r="5.4" fill="#000000" fill-rule="evenodd" fill-opacity="1" stroke="none"/>
<circle clip-path="url(#clip082)" cx="1323.18" cy="1044.79" r="5.4" fill="#000000" fill-rule="evenodd" fill-opacity="1" stroke="none"/>
<circle clip-path="url(#clip082)" cx="1330.13" cy="898.03" r="5.4" fill="#000000" fill-rule="evenodd" fill-opacity="1" stroke="none"/>
<circle clip-path="url(#clip082)" cx="1337.09" cy="1030.34" r="5.4" fill="#000000" fill-rule="evenodd" fill-opacity="1" stroke="none"/>
<circle clip-path="url(#clip082)" cx="1344.05" cy="1000.32" r="5.4" fill="#000000" fill-rule="evenodd" fill-opacity="1" stroke="none"/>
<circle clip-path="url(#clip082)" cx="1351.01" cy="865.278" r="5.4" fill="#000000" fill-rule="evenodd" fill-opacity="1" stroke="none"/>
<circle clip-path="url(#clip082)" cx="1357.97" cy="897.193" r="5.4" fill="#000000" fill-rule="evenodd" fill-opacity="1" stroke="none"/>
<circle clip-path="url(#clip082)" cx="1364.92" cy="795.348" r="5.4" fill="#000000" fill-rule="evenodd" fill-opacity="1" stroke="none"/>
<circle clip-path="url(#clip082)" cx="1371.88" cy="958.335" r="5.4" fill="#000000" fill-rule="evenodd" fill-opacity="1" stroke="none"/>
<circle clip-path="url(#clip082)" cx="1378.84" cy="950.461" r="5.4" fill="#000000" fill-rule="evenodd" fill-opacity="1" stroke="none"/>
<circle clip-path="url(#clip082)" cx="1385.8" cy="651.596" r="5.4" fill="#000000" fill-rule="evenodd" fill-opacity="1" stroke="none"/>
<circle clip-path="url(#clip082)" cx="1392.76" cy="723.246" r="5.4" fill="#000000" fill-rule="evenodd" fill-opacity="1" stroke="none"/>
<circle clip-path="url(#clip082)" cx="1399.71" cy="759.046" r="5.4" fill="#000000" fill-rule="evenodd" fill-opacity="1" stroke="none"/>
<circle clip-path="url(#clip082)" cx="1406.67" cy="754.687" r="5.4" fill="#000000" fill-rule="evenodd" fill-opacity="1" stroke="none"/>
<circle clip-path="url(#clip082)" cx="1413.63" cy="785.168" r="5.4" fill="#000000" fill-rule="evenodd" fill-opacity="1" stroke="none"/>
<circle clip-path="url(#clip082)" cx="1420.59" cy="772.16" r="5.4" fill="#000000" fill-rule="evenodd" fill-opacity="1" stroke="none"/>
<circle clip-path="url(#clip082)" cx="1427.55" cy="642.851" r="5.4" fill="#000000" fill-rule="evenodd" fill-opacity="1" stroke="none"/>
<circle clip-path="url(#clip082)" cx="1434.5" cy="746.463" r="5.4" fill="#000000" fill-rule="evenodd" fill-opacity="1" stroke="none"/>
<circle clip-path="url(#clip082)" cx="1441.46" cy="656.036" r="5.4" fill="#000000" fill-rule="evenodd" fill-opacity="1" stroke="none"/>
<circle clip-path="url(#clip082)" cx="1448.42" cy="764.223" r="5.4" fill="#000000" fill-rule="evenodd" fill-opacity="1" stroke="none"/>
<circle clip-path="url(#clip082)" cx="1455.38" cy="709.994" r="5.4" fill="#000000" fill-rule="evenodd" fill-opacity="1" stroke="none"/>
<circle clip-path="url(#clip082)" cx="1462.34" cy="640.047" r="5.4" fill="#000000" fill-rule="evenodd" fill-opacity="1" stroke="none"/>
<circle clip-path="url(#clip082)" cx="1469.29" cy="814.79" r="5.4" fill="#000000" fill-rule="evenodd" fill-opacity="1" stroke="none"/>
<circle clip-path="url(#clip082)" cx="1476.25" cy="714.95" r="5.4" fill="#000000" fill-rule="evenodd" fill-opacity="1" stroke="none"/>
<circle clip-path="url(#clip082)" cx="1483.21" cy="774.099" r="5.4" fill="#000000" fill-rule="evenodd" fill-opacity="1" stroke="none"/>
<circle clip-path="url(#clip082)" cx="1490.17" cy="665.696" r="5.4" fill="#000000" fill-rule="evenodd" fill-opacity="1" stroke="none"/>
<circle clip-path="url(#clip082)" cx="1497.13" cy="642.346" r="5.4" fill="#000000" fill-rule="evenodd" fill-opacity="1" stroke="none"/>
<circle clip-path="url(#clip082)" cx="1504.09" cy="716.778" r="5.4" fill="#000000" fill-rule="evenodd" fill-opacity="1" stroke="none"/>
<circle clip-path="url(#clip082)" cx="1511.04" cy="717.636" r="5.4" fill="#000000" fill-rule="evenodd" fill-opacity="1" stroke="none"/>
<circle clip-path="url(#clip082)" cx="1518" cy="661.07" r="5.4" fill="#000000" fill-rule="evenodd" fill-opacity="1" stroke="none"/>
<circle clip-path="url(#clip082)" cx="1524.96" cy="651.977" r="5.4" fill="#000000" fill-rule="evenodd" fill-opacity="1" stroke="none"/>
<circle clip-path="url(#clip082)" cx="1531.92" cy="646.714" r="5.4" fill="#000000" fill-rule="evenodd" fill-opacity="1" stroke="none"/>
<circle clip-path="url(#clip082)" cx="1538.88" cy="592.315" r="5.4" fill="#000000" fill-rule="evenodd" fill-opacity="1" stroke="none"/>
<circle clip-path="url(#clip082)" cx="1545.83" cy="473.81" r="5.4" fill="#000000" fill-rule="evenodd" fill-opacity="1" stroke="none"/>
<circle clip-path="url(#clip082)" cx="1552.79" cy="544.373" r="5.4" fill="#000000" fill-rule="evenodd" fill-opacity="1" stroke="none"/>
<circle clip-path="url(#clip082)" cx="1559.75" cy="499.369" r="5.4" fill="#000000" fill-rule="evenodd" fill-opacity="1" stroke="none"/>
<circle clip-path="url(#clip082)" cx="1566.71" cy="521.098" r="5.4" fill="#000000" fill-rule="evenodd" fill-opacity="1" stroke="none"/>
<circle clip-path="url(#clip082)" cx="1573.67" cy="509.021" r="5.4" fill="#000000" fill-rule="evenodd" fill-opacity="1" stroke="none"/>
<circle clip-path="url(#clip082)" cx="1580.62" cy="525.758" r="5.4" fill="#000000" fill-rule="evenodd" fill-opacity="1" stroke="none"/>
<circle clip-path="url(#clip082)" cx="1587.58" cy="337.658" r="5.4" fill="#000000" fill-rule="evenodd" fill-opacity="1" stroke="none"/>
<circle clip-path="url(#clip082)" cx="1594.54" cy="549.893" r="5.4" fill="#000000" fill-rule="evenodd" fill-opacity="1" stroke="none"/>
<circle clip-path="url(#clip082)" cx="1601.5" cy="440.971" r="5.4" fill="#000000" fill-rule="evenodd" fill-opacity="1" stroke="none"/>
<circle clip-path="url(#clip082)" cx="1608.46" cy="384.328" r="5.4" fill="#000000" fill-rule="evenodd" fill-opacity="1" stroke="none"/>
<circle clip-path="url(#clip082)" cx="1615.41" cy="446.358" r="5.4" fill="#000000" fill-rule="evenodd" fill-opacity="1" stroke="none"/>
<circle clip-path="url(#clip082)" cx="1622.37" cy="556.756" r="5.4" fill="#000000" fill-rule="evenodd" fill-opacity="1" stroke="none"/>
<circle clip-path="url(#clip082)" cx="1629.33" cy="484.593" r="5.4" fill="#000000" fill-rule="evenodd" fill-opacity="1" stroke="none"/>
<circle clip-path="url(#clip082)" cx="1636.29" cy="425.269" r="5.4" fill="#000000" fill-rule="evenodd" fill-opacity="1" stroke="none"/>
<circle clip-path="url(#clip082)" cx="1643.25" cy="486.789" r="5.4" fill="#000000" fill-rule="evenodd" fill-opacity="1" stroke="none"/>
<circle clip-path="url(#clip082)" cx="1650.2" cy="409.808" r="5.4" fill="#000000" fill-rule="evenodd" fill-opacity="1" stroke="none"/>
<circle clip-path="url(#clip082)" cx="1657.16" cy="423.759" r="5.4" fill="#000000" fill-rule="evenodd" fill-opacity="1" stroke="none"/>
<circle clip-path="url(#clip082)" cx="1664.12" cy="345.71" r="5.4" fill="#000000" fill-rule="evenodd" fill-opacity="1" stroke="none"/>
<circle clip-path="url(#clip082)" cx="1671.08" cy="378.839" r="5.4" fill="#000000" fill-rule="evenodd" fill-opacity="1" stroke="none"/>
<circle clip-path="url(#clip082)" cx="1678.04" cy="352.364" r="5.4" fill="#000000" fill-rule="evenodd" fill-opacity="1" stroke="none"/>
<circle clip-path="url(#clip082)" cx="1684.99" cy="352.81" r="5.4" fill="#000000" fill-rule="evenodd" fill-opacity="1" stroke="none"/>
<circle clip-path="url(#clip082)" cx="1691.95" cy="419.106" r="5.4" fill="#000000" fill-rule="evenodd" fill-opacity="1" stroke="none"/>
<circle clip-path="url(#clip082)" cx="1698.91" cy="474.636" r="5.4" fill="#000000" fill-rule="evenodd" fill-opacity="1" stroke="none"/>
<circle clip-path="url(#clip082)" cx="1705.87" cy="424.987" r="5.4" fill="#000000" fill-rule="evenodd" fill-opacity="1" stroke="none"/>
<circle clip-path="url(#clip082)" cx="1712.83" cy="252.594" r="5.4" fill="#000000" fill-rule="evenodd" fill-opacity="1" stroke="none"/>
<circle clip-path="url(#clip082)" cx="1719.78" cy="454.483" r="5.4" fill="#000000" fill-rule="evenodd" fill-opacity="1" stroke="none"/>
<circle clip-path="url(#clip082)" cx="1726.74" cy="424.303" r="5.4" fill="#000000" fill-rule="evenodd" fill-opacity="1" stroke="none"/>
<circle clip-path="url(#clip082)" cx="1733.7" cy="270.262" r="5.4" fill="#000000" fill-rule="evenodd" fill-opacity="1" stroke="none"/>
<circle clip-path="url(#clip082)" cx="1740.66" cy="365.502" r="5.4" fill="#000000" fill-rule="evenodd" fill-opacity="1" stroke="none"/>
<circle clip-path="url(#clip082)" cx="1747.62" cy="367.413" r="5.4" fill="#000000" fill-rule="evenodd" fill-opacity="1" stroke="none"/>
<circle clip-path="url(#clip082)" cx="1754.57" cy="343.064" r="5.4" fill="#000000" fill-rule="evenodd" fill-opacity="1" stroke="none"/>
<circle clip-path="url(#clip082)" cx="1761.53" cy="497.568" r="5.4" fill="#000000" fill-rule="evenodd" fill-opacity="1" stroke="none"/>
<circle clip-path="url(#clip082)" cx="1768.49" cy="451.567" r="5.4" fill="#000000" fill-rule="evenodd" fill-opacity="1" stroke="none"/>
<circle clip-path="url(#clip082)" cx="1775.45" cy="344.53" r="5.4" fill="#000000" fill-rule="evenodd" fill-opacity="1" stroke="none"/>
<circle clip-path="url(#clip082)" cx="1782.41" cy="405.386" r="5.4" fill="#000000" fill-rule="evenodd" fill-opacity="1" stroke="none"/>
<circle clip-path="url(#clip082)" cx="1789.36" cy="410.945" r="5.4" fill="#000000" fill-rule="evenodd" fill-opacity="1" stroke="none"/>
<circle clip-path="url(#clip082)" cx="1796.32" cy="341.045" r="5.4" fill="#000000" fill-rule="evenodd" fill-opacity="1" stroke="none"/>
<circle clip-path="url(#clip082)" cx="1803.28" cy="397.009" r="5.4" fill="#000000" fill-rule="evenodd" fill-opacity="1" stroke="none"/>
<circle clip-path="url(#clip082)" cx="1810.24" cy="243.09" r="5.4" fill="#000000" fill-rule="evenodd" fill-opacity="1" stroke="none"/>
<circle clip-path="url(#clip082)" cx="1817.2" cy="412.357" r="5.4" fill="#000000" fill-rule="evenodd" fill-opacity="1" stroke="none"/>
<circle clip-path="url(#clip082)" cx="1824.15" cy="309.097" r="5.4" fill="#000000" fill-rule="evenodd" fill-opacity="1" stroke="none"/>
<circle clip-path="url(#clip082)" cx="1831.11" cy="308.53" r="5.4" fill="#000000" fill-rule="evenodd" fill-opacity="1" stroke="none"/>
<circle clip-path="url(#clip082)" cx="1838.07" cy="373.191" r="5.4" fill="#000000" fill-rule="evenodd" fill-opacity="1" stroke="none"/>
<circle clip-path="url(#clip082)" cx="1845.03" cy="226.212" r="5.4" fill="#000000" fill-rule="evenodd" fill-opacity="1" stroke="none"/>
<circle clip-path="url(#clip082)" cx="1851.99" cy="247.663" r="5.4" fill="#000000" fill-rule="evenodd" fill-opacity="1" stroke="none"/>
<circle clip-path="url(#clip082)" cx="1858.94" cy="390.908" r="5.4" fill="#000000" fill-rule="evenodd" fill-opacity="1" stroke="none"/>
<circle clip-path="url(#clip082)" cx="1865.9" cy="222.889" r="5.4" fill="#000000" fill-rule="evenodd" fill-opacity="1" stroke="none"/>
<circle clip-path="url(#clip082)" cx="1872.86" cy="321.982" r="5.4" fill="#000000" fill-rule="evenodd" fill-opacity="1" stroke="none"/>
<circle clip-path="url(#clip082)" cx="1879.82" cy="310.21" r="5.4" fill="#000000" fill-rule="evenodd" fill-opacity="1" stroke="none"/>
<circle clip-path="url(#clip082)" cx="1886.78" cy="141.853" r="5.4" fill="#000000" fill-rule="evenodd" fill-opacity="1" stroke="none"/>
<circle clip-path="url(#clip082)" cx="1893.73" cy="244.331" r="5.4" fill="#000000" fill-rule="evenodd" fill-opacity="1" stroke="none"/>
<circle clip-path="url(#clip082)" cx="1900.69" cy="292.313" r="5.4" fill="#000000" fill-rule="evenodd" fill-opacity="1" stroke="none"/>
<circle clip-path="url(#clip082)" cx="1907.65" cy="305.48" r="5.4" fill="#000000" fill-rule="evenodd" fill-opacity="1" stroke="none"/>
<circle clip-path="url(#clip082)" cx="1914.61" cy="300.534" r="5.4" fill="#000000" fill-rule="evenodd" fill-opacity="1" stroke="none"/>
<circle clip-path="url(#clip082)" cx="1921.57" cy="537.244" r="5.4" fill="#000000" fill-rule="evenodd" fill-opacity="1" stroke="none"/>
<circle clip-path="url(#clip082)" cx="1928.52" cy="322.648" r="5.4" fill="#000000" fill-rule="evenodd" fill-opacity="1" stroke="none"/>
<circle clip-path="url(#clip082)" cx="1935.48" cy="239.22" r="5.4" fill="#000000" fill-rule="evenodd" fill-opacity="1" stroke="none"/>
<circle clip-path="url(#clip082)" cx="1942.44" cy="436.359" r="5.4" fill="#000000" fill-rule="evenodd" fill-opacity="1" stroke="none"/>
<circle clip-path="url(#clip082)" cx="1949.4" cy="329.271" r="5.4" fill="#000000" fill-rule="evenodd" fill-opacity="1" stroke="none"/>
<circle clip-path="url(#clip082)" cx="1956.36" cy="402.723" r="5.4" fill="#000000" fill-rule="evenodd" fill-opacity="1" stroke="none"/>
<circle clip-path="url(#clip082)" cx="1963.31" cy="303.698" r="5.4" fill="#000000" fill-rule="evenodd" fill-opacity="1" stroke="none"/>
<circle clip-path="url(#clip082)" cx="1970.27" cy="262.279" r="5.4" fill="#000000" fill-rule="evenodd" fill-opacity="1" stroke="none"/>
<circle clip-path="url(#clip082)" cx="1977.23" cy="549.053" r="5.4" fill="#000000" fill-rule="evenodd" fill-opacity="1" stroke="none"/>
<circle clip-path="url(#clip082)" cx="1984.19" cy="393.223" r="5.4" fill="#000000" fill-rule="evenodd" fill-opacity="1" stroke="none"/>
<circle clip-path="url(#clip082)" cx="1991.15" cy="375.8" r="5.4" fill="#000000" fill-rule="evenodd" fill-opacity="1" stroke="none"/>
<circle clip-path="url(#clip082)" cx="1998.11" cy="369.483" r="5.4" fill="#000000" fill-rule="evenodd" fill-opacity="1" stroke="none"/>
<circle clip-path="url(#clip082)" cx="2005.06" cy="167.836" r="5.4" fill="#000000" fill-rule="evenodd" fill-opacity="1" stroke="none"/>
<circle clip-path="url(#clip082)" cx="2012.02" cy="274.881" r="5.4" fill="#000000" fill-rule="evenodd" fill-opacity="1" stroke="none"/>
<circle clip-path="url(#clip082)" cx="2018.98" cy="408.519" r="5.4" fill="#000000" fill-rule="evenodd" fill-opacity="1" stroke="none"/>
<circle clip-path="url(#clip082)" cx="2025.94" cy="380.237" r="5.4" fill="#000000" fill-rule="evenodd" fill-opacity="1" stroke="none"/>
<circle clip-path="url(#clip082)" cx="2032.9" cy="459.445" r="5.4" fill="#000000" fill-rule="evenodd" fill-opacity="1" stroke="none"/>
<circle clip-path="url(#clip082)" cx="2039.85" cy="489.701" r="5.4" fill="#000000" fill-rule="evenodd" fill-opacity="1" stroke="none"/>
<circle clip-path="url(#clip082)" cx="2046.81" cy="486.879" r="5.4" fill="#000000" fill-rule="evenodd" fill-opacity="1" stroke="none"/>
<circle clip-path="url(#clip082)" cx="2053.77" cy="468.472" r="5.4" fill="#000000" fill-rule="evenodd" fill-opacity="1" stroke="none"/>
<circle clip-path="url(#clip082)" cx="2060.73" cy="411.106" r="5.4" fill="#000000" fill-rule="evenodd" fill-opacity="1" stroke="none"/>
<circle clip-path="url(#clip082)" cx="2067.69" cy="315.763" r="5.4" fill="#000000" fill-rule="evenodd" fill-opacity="1" stroke="none"/>
<circle clip-path="url(#clip082)" cx="2074.64" cy="393.935" r="5.4" fill="#000000" fill-rule="evenodd" fill-opacity="1" stroke="none"/>
<circle clip-path="url(#clip082)" cx="2081.6" cy="516.72" r="5.4" fill="#000000" fill-rule="evenodd" fill-opacity="1" stroke="none"/>
<circle clip-path="url(#clip082)" cx="2088.56" cy="392.311" r="5.4" fill="#000000" fill-rule="evenodd" fill-opacity="1" stroke="none"/>
<circle clip-path="url(#clip082)" cx="2095.52" cy="543.982" r="5.4" fill="#000000" fill-rule="evenodd" fill-opacity="1" stroke="none"/>
<circle clip-path="url(#clip082)" cx="2102.48" cy="456.391" r="5.4" fill="#000000" fill-rule="evenodd" fill-opacity="1" stroke="none"/>
<circle clip-path="url(#clip082)" cx="2109.43" cy="538.732" r="5.4" fill="#000000" fill-rule="evenodd" fill-opacity="1" stroke="none"/>
<circle clip-path="url(#clip082)" cx="2116.39" cy="433.633" r="5.4" fill="#000000" fill-rule="evenodd" fill-opacity="1" stroke="none"/>
<circle clip-path="url(#clip082)" cx="2123.35" cy="554.323" r="5.4" fill="#000000" fill-rule="evenodd" fill-opacity="1" stroke="none"/>
<circle clip-path="url(#clip082)" cx="2130.31" cy="521.833" r="5.4" fill="#000000" fill-rule="evenodd" fill-opacity="1" stroke="none"/>
<circle clip-path="url(#clip082)" cx="2137.27" cy="431.353" r="5.4" fill="#000000" fill-rule="evenodd" fill-opacity="1" stroke="none"/>
<circle clip-path="url(#clip082)" cx="2144.22" cy="620.333" r="5.4" fill="#000000" fill-rule="evenodd" fill-opacity="1" stroke="none"/>
<circle clip-path="url(#clip082)" cx="2151.18" cy="459.359" r="5.4" fill="#000000" fill-rule="evenodd" fill-opacity="1" stroke="none"/>
<circle clip-path="url(#clip082)" cx="2158.14" cy="539.852" r="5.4" fill="#000000" fill-rule="evenodd" fill-opacity="1" stroke="none"/>
<circle clip-path="url(#clip082)" cx="2165.1" cy="647.378" r="5.4" fill="#000000" fill-rule="evenodd" fill-opacity="1" stroke="none"/>
<circle clip-path="url(#clip082)" cx="2172.06" cy="419.98" r="5.4" fill="#000000" fill-rule="evenodd" fill-opacity="1" stroke="none"/>
<circle clip-path="url(#clip082)" cx="2179.01" cy="589.132" r="5.4" fill="#000000" fill-rule="evenodd" fill-opacity="1" stroke="none"/>
<circle clip-path="url(#clip082)" cx="2185.97" cy="581.996" r="5.4" fill="#000000" fill-rule="evenodd" fill-opacity="1" stroke="none"/>
<circle clip-path="url(#clip082)" cx="2192.93" cy="654.749" r="5.4" fill="#000000" fill-rule="evenodd" fill-opacity="1" stroke="none"/>
<circle clip-path="url(#clip082)" cx="2199.89" cy="732.673" r="5.4" fill="#000000" fill-rule="evenodd" fill-opacity="1" stroke="none"/>
<circle clip-path="url(#clip082)" cx="2206.85" cy="613.759" r="5.4" fill="#000000" fill-rule="evenodd" fill-opacity="1" stroke="none"/>
<circle clip-path="url(#clip082)" cx="2213.8" cy="817.8" r="5.4" fill="#000000" fill-rule="evenodd" fill-opacity="1" stroke="none"/>
<circle clip-path="url(#clip082)" cx="2220.76" cy="715.109" r="5.4" fill="#000000" fill-rule="evenodd" fill-opacity="1" stroke="none"/>
<circle clip-path="url(#clip082)" cx="2227.72" cy="657.328" r="5.4" fill="#000000" fill-rule="evenodd" fill-opacity="1" stroke="none"/>
<circle clip-path="url(#clip082)" cx="2234.68" cy="370.61" r="5.4" fill="#000000" fill-rule="evenodd" fill-opacity="1" stroke="none"/>
<circle clip-path="url(#clip082)" cx="2241.64" cy="708.884" r="5.4" fill="#000000" fill-rule="evenodd" fill-opacity="1" stroke="none"/>
<circle clip-path="url(#clip082)" cx="2248.59" cy="808.338" r="5.4" fill="#000000" fill-rule="evenodd" fill-opacity="1" stroke="none"/>
<circle clip-path="url(#clip082)" cx="2255.55" cy="764.888" r="5.4" fill="#000000" fill-rule="evenodd" fill-opacity="1" stroke="none"/>
<circle clip-path="url(#clip082)" cx="2262.51" cy="483.951" r="5.4" fill="#000000" fill-rule="evenodd" fill-opacity="1" stroke="none"/>
<circle clip-path="url(#clip082)" cx="2269.47" cy="781.479" r="5.4" fill="#000000" fill-rule="evenodd" fill-opacity="1" stroke="none"/>
<circle clip-path="url(#clip082)" cx="2276.43" cy="872.259" r="5.4" fill="#000000" fill-rule="evenodd" fill-opacity="1" stroke="none"/>
<circle clip-path="url(#clip082)" cx="2283.38" cy="556.358" r="5.4" fill="#000000" fill-rule="evenodd" fill-opacity="1" stroke="none"/>
<circle clip-path="url(#clip082)" cx="2290.34" cy="599.11" r="5.4" fill="#000000" fill-rule="evenodd" fill-opacity="1" stroke="none"/>
<path clip-path="url(#clip080)" d="M1495.15 1138.25 L2024.08 1138.25 L2024.08 930.887 L1495.15 930.887  Z" fill="#ffffff" fill-rule="evenodd" fill-opacity="1"/>
<polyline clip-path="url(#clip080)" style="stroke:#000000; stroke-linecap:round; stroke-linejoin:round; stroke-width:4; stroke-opacity:1; fill:none" points="1495.15,1138.25 2024.08,1138.25 2024.08,930.887 1495.15,930.887 1495.15,1138.25 "/>
<polyline clip-path="url(#clip080)" style="stroke:#0000ff; stroke-linecap:round; stroke-linejoin:round; stroke-width:8; stroke-opacity:1; fill:none" points="1519.65,982.727 1666.67,982.727 "/>
<path clip-path="url(#clip080)" d="M1713.42 966.581 L1713.42 971.141 Q1710.76 969.868 1708.39 969.243 Q1706.03 968.618 1703.83 968.618 Q1700.02 968.618 1697.93 970.099 Q1695.87 971.581 1695.87 974.312 Q1695.87 976.604 1697.24 977.784 Q1698.63 978.942 1702.47 979.659 L1705.29 980.238 Q1710.52 981.234 1713 983.757 Q1715.5 986.257 1715.5 990.47 Q1715.5 995.493 1712.12 998.085 Q1708.77 1000.68 1702.26 1000.68 Q1699.81 1000.68 1697.03 1000.12 Q1694.27 999.567 1691.31 998.479 L1691.31 993.664 Q1694.16 995.261 1696.89 996.071 Q1699.62 996.882 1702.26 996.882 Q1706.27 996.882 1708.44 995.308 Q1710.62 993.733 1710.62 990.817 Q1710.62 988.271 1709.04 986.835 Q1707.49 985.4 1703.93 984.683 L1701.08 984.127 Q1695.85 983.085 1693.51 980.863 Q1691.17 978.641 1691.17 974.683 Q1691.17 970.099 1694.39 967.46 Q1697.63 964.822 1703.3 964.822 Q1705.73 964.822 1708.26 965.261 Q1710.78 965.701 1713.42 966.581 Z" fill="#000000" fill-rule="nonzero" fill-opacity="1" /><path clip-path="url(#clip080)" d="M1746.36 995.076 L1746.36 985.794 L1738.72 985.794 L1738.72 981.951 L1750.99 981.951 L1750.99 996.789 Q1748.28 998.71 1745.01 999.706 Q1741.75 1000.68 1738.05 1000.68 Q1729.95 1000.68 1725.36 995.956 Q1720.8 991.21 1720.8 982.761 Q1720.8 974.289 1725.36 969.567 Q1729.95 964.822 1738.05 964.822 Q1741.43 964.822 1744.46 965.655 Q1747.51 966.488 1750.08 968.109 L1750.08 973.085 Q1747.49 970.886 1744.57 969.775 Q1741.66 968.664 1738.44 968.664 Q1732.1 968.664 1728.9 972.206 Q1725.73 975.747 1725.73 982.761 Q1725.73 989.752 1728.9 993.294 Q1732.1 996.835 1738.44 996.835 Q1740.92 996.835 1742.86 996.419 Q1744.81 995.979 1746.36 995.076 Z" fill="#000000" fill-rule="nonzero" fill-opacity="1" /><path clip-path="url(#clip080)" d="M1764.2 969.289 L1764.2 982.275 L1770.08 982.275 Q1773.35 982.275 1775.13 980.585 Q1776.91 978.896 1776.91 975.771 Q1776.91 972.669 1775.13 970.979 Q1773.35 969.289 1770.08 969.289 L1764.2 969.289 M1759.53 965.447 L1770.08 965.447 Q1775.89 965.447 1778.86 968.085 Q1781.84 970.701 1781.84 975.771 Q1781.84 980.886 1778.86 983.502 Q1775.89 986.118 1770.08 986.118 L1764.2 986.118 L1764.2 1000.01 L1759.53 1000.01 L1759.53 965.447 Z" fill="#000000" fill-rule="nonzero" fill-opacity="1" /><polyline clip-path="url(#clip080)" style="stroke:#008000; stroke-linecap:round; stroke-linejoin:round; stroke-width:8; stroke-opacity:1; fill:none" points="1519.65,1034.57 1666.67,1034.57 "/>
<path clip-path="url(#clip080)" d="M1691.17 1017.29 L1695.87 1017.29 L1695.87 1038.28 Q1695.87 1043.84 1697.89 1046.29 Q1699.9 1048.72 1704.41 1048.72 Q1708.9 1048.72 1710.92 1046.29 Q1712.93 1043.84 1712.93 1038.28 L1712.93 1017.29 L1717.63 1017.29 L1717.63 1038.86 Q1717.63 1045.62 1714.27 1049.07 Q1710.94 1052.52 1704.41 1052.52 Q1697.86 1052.52 1694.51 1049.07 Q1691.17 1045.62 1691.17 1038.86 L1691.17 1017.29 Z" fill="#000000" fill-rule="nonzero" fill-opacity="1" /><path clip-path="url(#clip080)" d="M1721.61 1017.29 L1750.85 1017.29 L1750.85 1021.22 L1738.58 1021.22 L1738.58 1051.85 L1733.88 1051.85 L1733.88 1021.22 L1721.61 1021.22 L1721.61 1017.29 Z" fill="#000000" fill-rule="nonzero" fill-opacity="1" /><circle clip-path="url(#clip080)" cx="1593.16" cy="1086.41" r="17.28" fill="#000000" fill-rule="evenodd" fill-opacity="1" stroke="none"/>
<path clip-path="url(#clip080)" d="M1707.19 1072.3 Q1702.1 1072.3 1699.09 1076.09 Q1696.1 1079.89 1696.1 1086.44 Q1696.1 1092.97 1699.09 1096.77 Q1702.1 1100.56 1707.19 1100.56 Q1712.28 1100.56 1715.25 1096.77 Q1718.23 1092.97 1718.23 1086.44 Q1718.23 1079.89 1715.25 1076.09 Q1712.28 1072.3 1707.19 1072.3 M1707.19 1068.5 Q1714.46 1068.5 1718.81 1073.39 Q1723.16 1078.25 1723.16 1086.44 Q1723.16 1094.61 1718.81 1099.5 Q1714.46 1104.36 1707.19 1104.36 Q1699.9 1104.36 1695.52 1099.5 Q1691.17 1094.64 1691.17 1086.44 Q1691.17 1078.25 1695.52 1073.39 Q1699.9 1068.5 1707.19 1068.5 Z" fill="#000000" fill-rule="nonzero" fill-opacity="1" /><path clip-path="url(#clip080)" d="M1748.9 1090.75 Q1748.9 1086.05 1746.96 1083.39 Q1745.04 1080.7 1741.66 1080.7 Q1738.28 1080.7 1736.33 1083.39 Q1734.41 1086.05 1734.41 1090.75 Q1734.41 1095.45 1736.33 1098.13 Q1738.28 1100.79 1741.66 1100.79 Q1745.04 1100.79 1746.96 1098.13 Q1748.9 1095.45 1748.9 1090.75 M1734.41 1081.7 Q1735.76 1079.38 1737.79 1078.27 Q1739.85 1077.14 1742.7 1077.14 Q1747.42 1077.14 1750.36 1080.89 Q1753.32 1084.64 1753.32 1090.75 Q1753.32 1096.86 1750.36 1100.61 Q1747.42 1104.36 1742.7 1104.36 Q1739.85 1104.36 1737.79 1103.25 Q1735.76 1102.11 1734.41 1099.8 L1734.41 1103.69 L1730.13 1103.69 L1730.13 1067.67 L1734.41 1067.67 L1734.41 1081.7 Z" fill="#000000" fill-rule="nonzero" fill-opacity="1" /><path clip-path="url(#clip080)" d="M1776.91 1078.52 L1776.91 1082.55 Q1775.11 1081.63 1773.16 1081.16 Q1771.22 1080.7 1769.14 1080.7 Q1765.96 1080.7 1764.37 1081.67 Q1762.79 1082.64 1762.79 1084.59 Q1762.79 1086.07 1763.93 1086.93 Q1765.06 1087.76 1768.49 1088.52 L1769.95 1088.85 Q1774.48 1089.82 1776.38 1091.6 Q1778.3 1093.36 1778.3 1096.53 Q1778.3 1100.14 1775.43 1102.25 Q1772.58 1104.36 1767.58 1104.36 Q1765.5 1104.36 1763.23 1103.94 Q1760.99 1103.55 1758.49 1102.74 L1758.49 1098.34 Q1760.85 1099.57 1763.14 1100.19 Q1765.43 1100.79 1767.68 1100.79 Q1770.69 1100.79 1772.31 1099.77 Q1773.93 1098.73 1773.93 1096.86 Q1773.93 1095.12 1772.75 1094.2 Q1771.59 1093.27 1767.63 1092.41 L1766.15 1092.07 Q1762.19 1091.23 1760.43 1089.52 Q1758.67 1087.78 1758.67 1084.77 Q1758.67 1081.12 1761.26 1079.13 Q1763.86 1077.14 1768.63 1077.14 Q1770.99 1077.14 1773.07 1077.48 Q1775.15 1077.83 1776.91 1078.52 Z" fill="#000000" fill-rule="nonzero" fill-opacity="1" /><path clip-path="url(#clip080)" d="M1807.26 1089.66 L1807.26 1091.74 L1787.68 1091.74 Q1787.95 1096.14 1790.32 1098.46 Q1792.7 1100.75 1796.94 1100.75 Q1799.39 1100.75 1801.68 1100.14 Q1804 1099.54 1806.26 1098.34 L1806.26 1102.37 Q1803.97 1103.34 1801.57 1103.85 Q1799.16 1104.36 1796.68 1104.36 Q1790.48 1104.36 1786.84 1100.75 Q1783.23 1097.14 1783.23 1090.98 Q1783.23 1084.61 1786.66 1080.89 Q1790.11 1077.14 1795.94 1077.14 Q1801.17 1077.14 1804.2 1080.52 Q1807.26 1083.87 1807.26 1089.66 M1803 1088.41 Q1802.95 1084.91 1801.03 1082.83 Q1799.13 1080.75 1795.99 1080.75 Q1792.42 1080.75 1790.27 1082.76 Q1788.14 1084.77 1787.82 1088.43 L1803 1088.41 Z" fill="#000000" fill-rule="nonzero" fill-opacity="1" /><path clip-path="url(#clip080)" d="M1829.27 1081.74 Q1828.56 1081.33 1827.7 1081.14 Q1826.87 1080.93 1825.85 1080.93 Q1822.24 1080.93 1820.29 1083.29 Q1818.37 1085.63 1818.37 1090.03 L1818.37 1103.69 L1814.09 1103.69 L1814.09 1077.76 L1818.37 1077.76 L1818.37 1081.79 Q1819.71 1079.43 1821.87 1078.29 Q1824.02 1077.14 1827.1 1077.14 Q1827.54 1077.14 1828.07 1077.21 Q1828.6 1077.25 1829.25 1077.37 L1829.27 1081.74 Z" fill="#000000" fill-rule="nonzero" fill-opacity="1" /><path clip-path="url(#clip080)" d="M1830.69 1077.76 L1835.2 1077.76 L1843.3 1099.52 L1851.4 1077.76 L1855.92 1077.76 L1846.19 1103.69 L1840.41 1103.69 L1830.69 1077.76 Z" fill="#000000" fill-rule="nonzero" fill-opacity="1" /><path clip-path="url(#clip080)" d="M1873.58 1090.65 Q1868.42 1090.65 1866.43 1091.83 Q1864.44 1093.02 1864.44 1095.86 Q1864.44 1098.13 1865.92 1099.47 Q1867.42 1100.79 1869.99 1100.79 Q1873.53 1100.79 1875.66 1098.29 Q1877.82 1095.77 1877.82 1091.6 L1877.82 1090.65 L1873.58 1090.65 M1882.07 1088.89 L1882.07 1103.69 L1877.82 1103.69 L1877.82 1099.75 Q1876.36 1102.11 1874.18 1103.25 Q1872 1104.36 1868.86 1104.36 Q1864.88 1104.36 1862.51 1102.14 Q1860.18 1099.89 1860.18 1096.14 Q1860.18 1091.77 1863.09 1089.54 Q1866.03 1087.32 1871.84 1087.32 L1877.82 1087.32 L1877.82 1086.9 Q1877.82 1083.96 1875.87 1082.37 Q1873.95 1080.75 1870.45 1080.75 Q1868.23 1080.75 1866.13 1081.28 Q1864.02 1081.81 1862.07 1082.88 L1862.07 1078.94 Q1864.41 1078.04 1866.61 1077.6 Q1868.81 1077.14 1870.89 1077.14 Q1876.52 1077.14 1879.3 1080.05 Q1882.07 1082.97 1882.07 1088.89 Z" fill="#000000" fill-rule="nonzero" fill-opacity="1" /><path clip-path="url(#clip080)" d="M1895.06 1070.4 L1895.06 1077.76 L1903.83 1077.76 L1903.83 1081.07 L1895.06 1081.07 L1895.06 1095.14 Q1895.06 1098.32 1895.92 1099.22 Q1896.8 1100.12 1899.46 1100.12 L1903.83 1100.12 L1903.83 1103.69 L1899.46 1103.69 Q1894.53 1103.69 1892.65 1101.86 Q1890.78 1100.01 1890.78 1095.14 L1890.78 1081.07 L1887.65 1081.07 L1887.65 1077.76 L1890.78 1077.76 L1890.78 1070.4 L1895.06 1070.4 Z" fill="#000000" fill-rule="nonzero" fill-opacity="1" /><path clip-path="url(#clip080)" d="M1909.44 1077.76 L1913.69 1077.76 L1913.69 1103.69 L1909.44 1103.69 L1909.44 1077.76 M1909.44 1067.67 L1913.69 1067.67 L1913.69 1073.06 L1909.44 1073.06 L1909.44 1067.67 Z" fill="#000000" fill-rule="nonzero" fill-opacity="1" /><path clip-path="url(#clip080)" d="M1932.65 1080.75 Q1929.23 1080.75 1927.24 1083.43 Q1925.25 1086.09 1925.25 1090.75 Q1925.25 1095.4 1927.21 1098.08 Q1929.2 1100.75 1932.65 1100.75 Q1936.06 1100.75 1938.05 1098.06 Q1940.04 1095.38 1940.04 1090.75 Q1940.04 1086.14 1938.05 1083.46 Q1936.06 1080.75 1932.65 1080.75 M1932.65 1077.14 Q1938.21 1077.14 1941.38 1080.75 Q1944.55 1084.36 1944.55 1090.75 Q1944.55 1097.11 1941.38 1100.75 Q1938.21 1104.36 1932.65 1104.36 Q1927.07 1104.36 1923.9 1100.75 Q1920.75 1097.11 1920.75 1090.75 Q1920.75 1084.36 1923.9 1080.75 Q1927.07 1077.14 1932.65 1077.14 Z" fill="#000000" fill-rule="nonzero" fill-opacity="1" /><path clip-path="url(#clip080)" d="M1973.16 1088.04 L1973.16 1103.69 L1968.9 1103.69 L1968.9 1088.18 Q1968.9 1084.5 1967.47 1082.67 Q1966.03 1080.84 1963.16 1080.84 Q1959.71 1080.84 1957.72 1083.04 Q1955.73 1085.24 1955.73 1089.03 L1955.73 1103.69 L1951.45 1103.69 L1951.45 1077.76 L1955.73 1077.76 L1955.73 1081.79 Q1957.26 1079.45 1959.32 1078.29 Q1961.4 1077.14 1964.11 1077.14 Q1968.58 1077.14 1970.87 1079.91 Q1973.16 1082.67 1973.16 1088.04 Z" fill="#000000" fill-rule="nonzero" fill-opacity="1" /><path clip-path="url(#clip080)" d="M1998.18 1078.52 L1998.18 1082.55 Q1996.38 1081.63 1994.43 1081.16 Q1992.49 1080.7 1990.41 1080.7 Q1987.24 1080.7 1985.64 1081.67 Q1984.06 1082.64 1984.06 1084.59 Q1984.06 1086.07 1985.2 1086.93 Q1986.33 1087.76 1989.76 1088.52 L1991.22 1088.85 Q1995.75 1089.82 1997.65 1091.6 Q1999.57 1093.36 1999.57 1096.53 Q1999.57 1100.14 1996.7 1102.25 Q1993.86 1104.36 1988.86 1104.36 Q1986.77 1104.36 1984.5 1103.94 Q1982.26 1103.55 1979.76 1102.74 L1979.76 1098.34 Q1982.12 1099.57 1984.41 1100.19 Q1986.7 1100.79 1988.95 1100.79 Q1991.96 1100.79 1993.58 1099.77 Q1995.2 1098.73 1995.2 1096.86 Q1995.2 1095.12 1994.02 1094.2 Q1992.86 1093.27 1988.9 1092.41 L1987.42 1092.07 Q1983.46 1091.23 1981.7 1089.52 Q1979.94 1087.78 1979.94 1084.77 Q1979.94 1081.12 1982.54 1079.13 Q1985.13 1077.14 1989.9 1077.14 Q1992.26 1077.14 1994.34 1077.48 Q1996.43 1077.83 1998.18 1078.52 Z" fill="#000000" fill-rule="nonzero" fill-opacity="1" /></svg>
