<?xml version="1.0" encoding="utf-8"?>
<svg xmlns="http://www.w3.org/2000/svg" xmlns:xlink="http://www.w3.org/1999/xlink" width="600" height="400" viewBox="0 0 2400 1600">
<defs>
  <clipPath id="clip260">
    <rect x="0" y="0" width="2400" height="1600"/>
  </clipPath>
</defs>
<path clip-path="url(#clip260)" d="M0 1600 L2400 1600 L2400 8.88178e-14 L0 8.88178e-14  Z" fill="#ffffff" fill-rule="evenodd" fill-opacity="1"/>
<defs>
  <clipPath id="clip261">
    <rect x="480" y="0" width="1681" height="1600"/>
  </clipPath>
</defs>
<path clip-path="url(#clip260)" d="M193.936 1486.45 L2352.76 1486.45 L2352.76 47.2441 L193.936 47.2441  Z" fill="#ffffff" fill-rule="evenodd" fill-opacity="1"/>
<defs>
  <clipPath id="clip262">
    <rect x="193" y="47" width="2160" height="1440"/>
  </clipPath>
</defs>
<polyline clip-path="url(#clip262)" style="stroke:#000000; stroke-linecap:round; stroke-linejoin:round; stroke-width:2; stroke-opacity:0.1; fill:none" points="249.93,1486.45 249.93,47.2441 "/>
<polyline clip-path="url(#clip262)" style="stroke:#000000; stroke-linecap:round; stroke-linejoin:round; stroke-width:2; stroke-opacity:0.1; fill:none" points="760.362,1486.45 760.362,47.2441 "/>
<polyline clip-path="url(#clip262)" style="stroke:#000000; stroke-linecap:round; stroke-linejoin:round; stroke-width:2; stroke-opacity:0.1; fill:none" points="1270.79,1486.45 1270.79,47.2441 "/>
<polyline clip-path="url(#clip262)" style="stroke:#000000; stroke-linecap:round; stroke-linejoin:round; stroke-width:2; stroke-opacity:0.1; fill:none" points="1781.23,1486.45 1781.23,47.2441 "/>
<polyline clip-path="url(#clip262)" style="stroke:#000000; stroke-linecap:round; stroke-linejoin:round; stroke-width:2; stroke-opacity:0.1; fill:none" points="2291.66,1486.45 2291.66,47.2441 "/>
<polyline clip-path="url(#clip262)" style="stroke:#000000; stroke-linecap:round; stroke-linejoin:round; stroke-width:2; stroke-opacity:0.1; fill:none" points="193.936,1320.01 2352.76,1320.01 "/>
<polyline clip-path="url(#clip262)" style="stroke:#000000; stroke-linecap:round; stroke-linejoin:round; stroke-width:2; stroke-opacity:0.1; fill:none" points="193.936,1130.97 2352.76,1130.97 "/>
<polyline clip-path="url(#clip262)" style="stroke:#000000; stroke-linecap:round; stroke-linejoin:round; stroke-width:2; stroke-opacity:0.1; fill:none" points="193.936,941.934 2352.76,941.934 "/>
<polyline clip-path="url(#clip262)" style="stroke:#000000; stroke-linecap:round; stroke-linejoin:round; stroke-width:2; stroke-opacity:0.1; fill:none" points="193.936,752.898 2352.76,752.898 "/>
<polyline clip-path="url(#clip262)" style="stroke:#000000; stroke-linecap:round; stroke-linejoin:round; stroke-width:2; stroke-opacity:0.1; fill:none" points="193.936,563.861 2352.76,563.861 "/>
<polyline clip-path="url(#clip262)" style="stroke:#000000; stroke-linecap:round; stroke-linejoin:round; stroke-width:2; stroke-opacity:0.1; fill:none" points="193.936,374.825 2352.76,374.825 "/>
<polyline clip-path="url(#clip262)" style="stroke:#000000; stroke-linecap:round; stroke-linejoin:round; stroke-width:2; stroke-opacity:0.1; fill:none" points="193.936,185.789 2352.76,185.789 "/>
<polyline clip-path="url(#clip260)" style="stroke:#000000; stroke-linecap:round; stroke-linejoin:round; stroke-width:4; stroke-opacity:1; fill:none" points="193.936,1486.45 2352.76,1486.45 "/>
<polyline clip-path="url(#clip260)" style="stroke:#000000; stroke-linecap:round; stroke-linejoin:round; stroke-width:4; stroke-opacity:1; fill:none" points="249.93,1486.45 249.93,1467.55 "/>
<polyline clip-path="url(#clip260)" style="stroke:#000000; stroke-linecap:round; stroke-linejoin:round; stroke-width:4; stroke-opacity:1; fill:none" points="760.362,1486.45 760.362,1467.55 "/>
<polyline clip-path="url(#clip260)" style="stroke:#000000; stroke-linecap:round; stroke-linejoin:round; stroke-width:4; stroke-opacity:1; fill:none" points="1270.79,1486.45 1270.79,1467.55 "/>
<polyline clip-path="url(#clip260)" style="stroke:#000000; stroke-linecap:round; stroke-linejoin:round; stroke-width:4; stroke-opacity:1; fill:none" points="1781.23,1486.45 1781.23,1467.55 "/>
<polyline clip-path="url(#clip260)" style="stroke:#000000; stroke-linecap:round; stroke-linejoin:round; stroke-width:4; stroke-opacity:1; fill:none" points="2291.66,1486.45 2291.66,1467.55 "/>
<path clip-path="url(#clip260)" d="M249.93 1517.37 Q246.319 1517.37 244.491 1520.93 Q242.685 1524.47 242.685 1531.6 Q242.685 1538.71 244.491 1542.27 Q246.319 1545.82 249.93 1545.82 Q253.565 1545.82 255.37 1542.27 Q257.199 1538.71 257.199 1531.6 Q257.199 1524.47 255.37 1520.93 Q253.565 1517.37 249.93 1517.37 M249.93 1513.66 Q255.741 1513.66 258.796 1518.27 Q261.875 1522.85 261.875 1531.6 Q261.875 1540.33 258.796 1544.94 Q255.741 1549.52 249.93 1549.52 Q244.12 1549.52 241.042 1544.94 Q237.986 1540.33 237.986 1531.6 Q237.986 1522.85 241.042 1518.27 Q244.12 1513.66 249.93 1513.66 Z" fill="#000000" fill-rule="nonzero" fill-opacity="1" /><path clip-path="url(#clip260)" d="M719.969 1544.91 L727.608 1544.91 L727.608 1518.55 L719.297 1520.21 L719.297 1515.95 L727.561 1514.29 L732.237 1514.29 L732.237 1544.91 L739.876 1544.91 L739.876 1548.85 L719.969 1548.85 L719.969 1544.91 Z" fill="#000000" fill-rule="nonzero" fill-opacity="1" /><path clip-path="url(#clip260)" d="M759.32 1517.37 Q755.709 1517.37 753.881 1520.93 Q752.075 1524.47 752.075 1531.6 Q752.075 1538.71 753.881 1542.27 Q755.709 1545.82 759.32 1545.82 Q762.955 1545.82 764.76 1542.27 Q766.589 1538.71 766.589 1531.6 Q766.589 1524.47 764.76 1520.93 Q762.955 1517.37 759.32 1517.37 M759.32 1513.66 Q765.131 1513.66 768.186 1518.27 Q771.265 1522.85 771.265 1531.6 Q771.265 1540.33 768.186 1544.94 Q765.131 1549.52 759.32 1549.52 Q753.51 1549.52 750.432 1544.94 Q747.376 1540.33 747.376 1531.6 Q747.376 1522.85 750.432 1518.27 Q753.51 1513.66 759.32 1513.66 Z" fill="#000000" fill-rule="nonzero" fill-opacity="1" /><path clip-path="url(#clip260)" d="M789.482 1517.37 Q785.871 1517.37 784.043 1520.93 Q782.237 1524.47 782.237 1531.6 Q782.237 1538.71 784.043 1542.27 Q785.871 1545.82 789.482 1545.82 Q793.117 1545.82 794.922 1542.27 Q796.751 1538.71 796.751 1531.6 Q796.751 1524.47 794.922 1520.93 Q793.117 1517.37 789.482 1517.37 M789.482 1513.66 Q795.292 1513.66 798.348 1518.27 Q801.427 1522.85 801.427 1531.6 Q801.427 1540.33 798.348 1544.94 Q795.292 1549.52 789.482 1549.52 Q783.672 1549.52 780.593 1544.94 Q777.538 1540.33 777.538 1531.6 Q777.538 1522.85 780.593 1518.27 Q783.672 1513.66 789.482 1513.66 Z" fill="#000000" fill-rule="nonzero" fill-opacity="1" /><path clip-path="url(#clip260)" d="M1234.49 1544.91 L1250.81 1544.91 L1250.81 1548.85 L1228.86 1548.85 L1228.86 1544.91 Q1231.52 1542.16 1236.11 1537.53 Q1240.71 1532.88 1241.89 1531.53 Q1244.14 1529.01 1245.02 1527.27 Q1245.92 1525.51 1245.92 1523.82 Q1245.92 1521.07 1243.98 1519.33 Q1242.06 1517.6 1238.95 1517.6 Q1236.75 1517.6 1234.3 1518.36 Q1231.87 1519.13 1229.09 1520.68 L1229.09 1515.95 Q1231.92 1514.82 1234.37 1514.24 Q1236.82 1513.66 1238.86 1513.66 Q1244.23 1513.66 1247.43 1516.35 Q1250.62 1519.03 1250.62 1523.52 Q1250.62 1525.65 1249.81 1527.57 Q1249.02 1529.47 1246.92 1532.07 Q1246.34 1532.74 1243.24 1535.95 Q1240.13 1539.15 1234.49 1544.91 Z" fill="#000000" fill-rule="nonzero" fill-opacity="1" /><path clip-path="url(#clip260)" d="M1270.62 1517.37 Q1267.01 1517.37 1265.18 1520.93 Q1263.37 1524.47 1263.37 1531.6 Q1263.37 1538.71 1265.18 1542.27 Q1267.01 1545.82 1270.62 1545.82 Q1274.25 1545.82 1276.06 1542.27 Q1277.89 1538.71 1277.89 1531.6 Q1277.89 1524.47 1276.06 1520.93 Q1274.25 1517.37 1270.62 1517.37 M1270.62 1513.66 Q1276.43 1513.66 1279.49 1518.27 Q1282.56 1522.85 1282.56 1531.6 Q1282.56 1540.33 1279.49 1544.94 Q1276.43 1549.52 1270.62 1549.52 Q1264.81 1549.52 1261.73 1544.94 Q1258.68 1540.33 1258.68 1531.6 Q1258.68 1522.85 1261.73 1518.27 Q1264.81 1513.66 1270.62 1513.66 Z" fill="#000000" fill-rule="nonzero" fill-opacity="1" /><path clip-path="url(#clip260)" d="M1300.78 1517.37 Q1297.17 1517.37 1295.34 1520.93 Q1293.54 1524.47 1293.54 1531.6 Q1293.54 1538.71 1295.34 1542.27 Q1297.17 1545.82 1300.78 1545.82 Q1304.42 1545.82 1306.22 1542.27 Q1308.05 1538.71 1308.05 1531.6 Q1308.05 1524.47 1306.22 1520.93 Q1304.42 1517.37 1300.78 1517.37 M1300.78 1513.66 Q1306.59 1513.66 1309.65 1518.27 Q1312.73 1522.85 1312.73 1531.6 Q1312.73 1540.33 1309.65 1544.94 Q1306.59 1549.52 1300.78 1549.52 Q1294.97 1549.52 1291.89 1544.94 Q1288.84 1540.33 1288.84 1531.6 Q1288.84 1522.85 1291.89 1518.27 Q1294.97 1513.66 1300.78 1513.66 Z" fill="#000000" fill-rule="nonzero" fill-opacity="1" /><path clip-path="url(#clip260)" d="M1754.99 1530.21 Q1758.34 1530.93 1760.22 1533.2 Q1762.12 1535.47 1762.12 1538.8 Q1762.12 1543.92 1758.6 1546.72 Q1755.08 1549.52 1748.6 1549.52 Q1746.42 1549.52 1744.11 1549.08 Q1741.82 1548.66 1739.36 1547.81 L1739.36 1543.29 Q1741.31 1544.43 1743.62 1545.01 Q1745.94 1545.58 1748.46 1545.58 Q1752.86 1545.58 1755.15 1543.85 Q1757.46 1542.11 1757.46 1538.8 Q1757.46 1535.75 1755.31 1534.03 Q1753.18 1532.3 1749.36 1532.3 L1745.33 1532.3 L1745.33 1528.45 L1749.55 1528.45 Q1753 1528.45 1754.83 1527.09 Q1756.65 1525.7 1756.65 1523.11 Q1756.65 1520.45 1754.76 1519.03 Q1752.88 1517.6 1749.36 1517.6 Q1747.44 1517.6 1745.24 1518.01 Q1743.04 1518.43 1740.4 1519.31 L1740.4 1515.14 Q1743.07 1514.4 1745.38 1514.03 Q1747.72 1513.66 1749.78 1513.66 Q1755.1 1513.66 1758.2 1516.09 Q1761.31 1518.5 1761.31 1522.62 Q1761.31 1525.49 1759.66 1527.48 Q1758.02 1529.45 1754.99 1530.21 Z" fill="#000000" fill-rule="nonzero" fill-opacity="1" /><path clip-path="url(#clip260)" d="M1780.98 1517.37 Q1777.37 1517.37 1775.54 1520.93 Q1773.74 1524.47 1773.74 1531.6 Q1773.74 1538.71 1775.54 1542.27 Q1777.37 1545.82 1780.98 1545.82 Q1784.62 1545.82 1786.42 1542.27 Q1788.25 1538.71 1788.25 1531.6 Q1788.25 1524.47 1786.42 1520.93 Q1784.62 1517.37 1780.98 1517.37 M1780.98 1513.66 Q1786.79 1513.66 1789.85 1518.27 Q1792.93 1522.85 1792.93 1531.6 Q1792.93 1540.33 1789.85 1544.94 Q1786.79 1549.52 1780.98 1549.52 Q1775.17 1549.52 1772.09 1544.94 Q1769.04 1540.33 1769.04 1531.6 Q1769.04 1522.85 1772.09 1518.27 Q1775.17 1513.66 1780.98 1513.66 Z" fill="#000000" fill-rule="nonzero" fill-opacity="1" /><path clip-path="url(#clip260)" d="M1811.14 1517.37 Q1807.53 1517.37 1805.7 1520.93 Q1803.9 1524.47 1803.9 1531.6 Q1803.9 1538.71 1805.7 1542.27 Q1807.53 1545.82 1811.14 1545.82 Q1814.78 1545.82 1816.58 1542.27 Q1818.41 1538.71 1818.41 1531.6 Q1818.41 1524.47 1816.58 1520.93 Q1814.78 1517.37 1811.14 1517.37 M1811.14 1513.66 Q1816.95 1513.66 1820.01 1518.27 Q1823.09 1522.85 1823.09 1531.6 Q1823.09 1540.33 1820.01 1544.94 Q1816.95 1549.52 1811.14 1549.52 Q1805.33 1549.52 1802.26 1544.94 Q1799.2 1540.33 1799.2 1531.6 Q1799.2 1522.85 1802.26 1518.27 Q1805.33 1513.66 1811.14 1513.66 Z" fill="#000000" fill-rule="nonzero" fill-opacity="1" /><path clip-path="url(#clip260)" d="M2264.75 1518.36 L2252.94 1536.81 L2264.75 1536.81 L2264.75 1518.36 M2263.52 1514.29 L2269.4 1514.29 L2269.4 1536.81 L2274.33 1536.81 L2274.33 1540.7 L2269.4 1540.7 L2269.4 1548.85 L2264.75 1548.85 L2264.75 1540.7 L2249.15 1540.7 L2249.15 1536.19 L2263.52 1514.29 Z" fill="#000000" fill-rule="nonzero" fill-opacity="1" /><path clip-path="url(#clip260)" d="M2292.06 1517.37 Q2288.45 1517.37 2286.62 1520.93 Q2284.82 1524.47 2284.82 1531.6 Q2284.82 1538.71 2286.62 1542.27 Q2288.45 1545.82 2292.06 1545.82 Q2295.7 1545.82 2297.5 1542.27 Q2299.33 1538.71 2299.33 1531.6 Q2299.33 1524.47 2297.5 1520.93 Q2295.7 1517.37 2292.06 1517.37 M2292.06 1513.66 Q2297.87 1513.66 2300.93 1518.27 Q2304.01 1522.85 2304.01 1531.6 Q2304.01 1540.33 2300.93 1544.94 Q2297.87 1549.52 2292.06 1549.52 Q2286.25 1549.52 2283.17 1544.94 Q2280.12 1540.33 2280.12 1531.6 Q2280.12 1522.85 2283.17 1518.27 Q2286.25 1513.66 2292.06 1513.66 Z" fill="#000000" fill-rule="nonzero" fill-opacity="1" /><path clip-path="url(#clip260)" d="M2322.22 1517.37 Q2318.61 1517.37 2316.78 1520.93 Q2314.98 1524.47 2314.98 1531.6 Q2314.98 1538.71 2316.78 1542.27 Q2318.61 1545.82 2322.22 1545.82 Q2325.86 1545.82 2327.66 1542.27 Q2329.49 1538.71 2329.49 1531.6 Q2329.49 1524.47 2327.66 1520.93 Q2325.86 1517.37 2322.22 1517.37 M2322.22 1513.66 Q2328.03 1513.66 2331.09 1518.27 Q2334.17 1522.85 2334.17 1531.6 Q2334.17 1540.33 2331.09 1544.94 Q2328.03 1549.52 2322.22 1549.52 Q2316.41 1549.52 2313.34 1544.94 Q2310.28 1540.33 2310.28 1531.6 Q2310.28 1522.85 2313.34 1518.27 Q2316.41 1513.66 2322.22 1513.66 Z" fill="#000000" fill-rule="nonzero" fill-opacity="1" /><polyline clip-path="url(#clip260)" style="stroke:#000000; stroke-linecap:round; stroke-linejoin:round; stroke-width:4; stroke-opacity:1; fill:none" points="193.936,1486.45 193.936,47.2441 "/>
<polyline clip-path="url(#clip260)" style="stroke:#000000; stroke-linecap:round; stroke-linejoin:round; stroke-width:4; stroke-opacity:1; fill:none" points="193.936,1320.01 212.834,1320.01 "/>
<polyline clip-path="url(#clip260)" style="stroke:#000000; stroke-linecap:round; stroke-linejoin:round; stroke-width:4; stroke-opacity:1; fill:none" points="193.936,1130.97 212.834,1130.97 "/>
<polyline clip-path="url(#clip260)" style="stroke:#000000; stroke-linecap:round; stroke-linejoin:round; stroke-width:4; stroke-opacity:1; fill:none" points="193.936,941.934 212.834,941.934 "/>
<polyline clip-path="url(#clip260)" style="stroke:#000000; stroke-linecap:round; stroke-linejoin:round; stroke-width:4; stroke-opacity:1; fill:none" points="193.936,752.898 212.834,752.898 "/>
<polyline clip-path="url(#clip260)" style="stroke:#000000; stroke-linecap:round; stroke-linejoin:round; stroke-width:4; stroke-opacity:1; fill:none" points="193.936,563.861 212.834,563.861 "/>
<polyline clip-path="url(#clip260)" style="stroke:#000000; stroke-linecap:round; stroke-linejoin:round; stroke-width:4; stroke-opacity:1; fill:none" points="193.936,374.825 212.834,374.825 "/>
<polyline clip-path="url(#clip260)" style="stroke:#000000; stroke-linecap:round; stroke-linejoin:round; stroke-width:4; stroke-opacity:1; fill:none" points="193.936,185.789 212.834,185.789 "/>
<path clip-path="url(#clip260)" d="M51.9875 1320.46 L81.6633 1320.46 L81.6633 1324.39 L51.9875 1324.39 L51.9875 1320.46 Z" fill="#000000" fill-rule="nonzero" fill-opacity="1" /><path clip-path="url(#clip260)" d="M92.566 1333.35 L100.205 1333.35 L100.205 1306.99 L91.8947 1308.65 L91.8947 1304.39 L100.159 1302.73 L104.834 1302.73 L104.834 1333.35 L112.473 1333.35 L112.473 1337.29 L92.566 1337.29 L92.566 1333.35 Z" fill="#000000" fill-rule="nonzero" fill-opacity="1" /><path clip-path="url(#clip260)" d="M121.918 1331.41 L126.802 1331.41 L126.802 1337.29 L121.918 1337.29 L121.918 1331.41 Z" fill="#000000" fill-rule="nonzero" fill-opacity="1" /><path clip-path="url(#clip260)" d="M137.033 1302.73 L155.39 1302.73 L155.39 1306.66 L141.316 1306.66 L141.316 1315.13 Q142.334 1314.79 143.353 1314.62 Q144.371 1314.44 145.39 1314.44 Q151.177 1314.44 154.556 1317.61 Q157.936 1320.78 157.936 1326.2 Q157.936 1331.78 154.464 1334.88 Q150.992 1337.96 144.672 1337.96 Q142.496 1337.96 140.228 1337.59 Q137.982 1337.22 135.575 1336.48 L135.575 1331.78 Q137.658 1332.91 139.881 1333.47 Q142.103 1334.02 144.58 1334.02 Q148.584 1334.02 150.922 1331.92 Q153.26 1329.81 153.26 1326.2 Q153.26 1322.59 150.922 1320.48 Q148.584 1318.37 144.58 1318.37 Q142.705 1318.37 140.83 1318.79 Q138.978 1319.21 137.033 1320.09 L137.033 1302.73 Z" fill="#000000" fill-rule="nonzero" fill-opacity="1" /><path clip-path="url(#clip260)" d="M50.9921 1131.42 L80.6679 1131.42 L80.6679 1135.36 L50.9921 1135.36 L50.9921 1131.42 Z" fill="#000000" fill-rule="nonzero" fill-opacity="1" /><path clip-path="url(#clip260)" d="M91.5706 1144.31 L99.2095 1144.31 L99.2095 1117.95 L90.8993 1119.62 L90.8993 1115.36 L99.1632 1113.69 L103.839 1113.69 L103.839 1144.31 L111.478 1144.31 L111.478 1148.25 L91.5706 1148.25 L91.5706 1144.31 Z" fill="#000000" fill-rule="nonzero" fill-opacity="1" /><path clip-path="url(#clip260)" d="M120.922 1142.37 L125.807 1142.37 L125.807 1148.25 L120.922 1148.25 L120.922 1142.37 Z" fill="#000000" fill-rule="nonzero" fill-opacity="1" /><path clip-path="url(#clip260)" d="M145.992 1116.77 Q142.381 1116.77 140.552 1120.33 Q138.746 1123.88 138.746 1131 Q138.746 1138.11 140.552 1141.68 Q142.381 1145.22 145.992 1145.22 Q149.626 1145.22 151.431 1141.68 Q153.26 1138.11 153.26 1131 Q153.26 1123.88 151.431 1120.33 Q149.626 1116.77 145.992 1116.77 M145.992 1113.06 Q151.802 1113.06 154.857 1117.67 Q157.936 1122.25 157.936 1131 Q157.936 1139.73 154.857 1144.34 Q151.802 1148.92 145.992 1148.92 Q140.181 1148.92 137.103 1144.34 Q134.047 1139.73 134.047 1131 Q134.047 1122.25 137.103 1117.67 Q140.181 1113.06 145.992 1113.06 Z" fill="#000000" fill-rule="nonzero" fill-opacity="1" /><path clip-path="url(#clip260)" d="M51.9875 942.385 L81.6633 942.385 L81.6633 946.32 L51.9875 946.32 L51.9875 942.385 Z" fill="#000000" fill-rule="nonzero" fill-opacity="1" /><path clip-path="url(#clip260)" d="M101.756 927.732 Q98.1447 927.732 96.316 931.297 Q94.5104 934.839 94.5104 941.969 Q94.5104 949.075 96.316 952.64 Q98.1447 956.181 101.756 956.181 Q105.39 956.181 107.196 952.64 Q109.024 949.075 109.024 941.969 Q109.024 934.839 107.196 931.297 Q105.39 927.732 101.756 927.732 M101.756 924.029 Q107.566 924.029 110.621 928.635 Q113.7 933.219 113.7 941.969 Q113.7 950.695 110.621 955.302 Q107.566 959.885 101.756 959.885 Q95.9456 959.885 92.8669 955.302 Q89.8114 950.695 89.8114 941.969 Q89.8114 933.219 92.8669 928.635 Q95.9456 924.029 101.756 924.029 Z" fill="#000000" fill-rule="nonzero" fill-opacity="1" /><path clip-path="url(#clip260)" d="M121.918 953.334 L126.802 953.334 L126.802 959.214 L121.918 959.214 L121.918 953.334 Z" fill="#000000" fill-rule="nonzero" fill-opacity="1" /><path clip-path="url(#clip260)" d="M137.033 924.654 L155.39 924.654 L155.39 928.589 L141.316 928.589 L141.316 937.061 Q142.334 936.714 143.353 936.552 Q144.371 936.367 145.39 936.367 Q151.177 936.367 154.556 939.538 Q157.936 942.709 157.936 948.126 Q157.936 953.705 154.464 956.806 Q150.992 959.885 144.672 959.885 Q142.496 959.885 140.228 959.515 Q137.982 959.144 135.575 958.404 L135.575 953.705 Q137.658 954.839 139.881 955.394 Q142.103 955.95 144.58 955.95 Q148.584 955.95 150.922 953.843 Q153.26 951.737 153.26 948.126 Q153.26 944.515 150.922 942.408 Q148.584 940.302 144.58 940.302 Q142.705 940.302 140.83 940.719 Q138.978 941.135 137.033 942.015 L137.033 924.654 Z" fill="#000000" fill-rule="nonzero" fill-opacity="1" /><path clip-path="url(#clip260)" d="M100.76 738.696 Q97.1493 738.696 95.3206 742.261 Q93.515 745.803 93.515 752.932 Q93.515 760.039 95.3206 763.604 Q97.1493 767.145 100.76 767.145 Q104.395 767.145 106.2 763.604 Q108.029 760.039 108.029 752.932 Q108.029 745.803 106.2 742.261 Q104.395 738.696 100.76 738.696 M100.76 734.993 Q106.571 734.993 109.626 739.599 Q112.705 744.182 112.705 752.932 Q112.705 761.659 109.626 766.266 Q106.571 770.849 100.76 770.849 Q94.9502 770.849 91.8715 766.266 Q88.816 761.659 88.816 752.932 Q88.816 744.182 91.8715 739.599 Q94.9502 734.993 100.76 734.993 Z" fill="#000000" fill-rule="nonzero" fill-opacity="1" /><path clip-path="url(#clip260)" d="M120.922 764.298 L125.807 764.298 L125.807 770.178 L120.922 770.178 L120.922 764.298 Z" fill="#000000" fill-rule="nonzero" fill-opacity="1" /><path clip-path="url(#clip260)" d="M145.992 738.696 Q142.381 738.696 140.552 742.261 Q138.746 745.803 138.746 752.932 Q138.746 760.039 140.552 763.604 Q142.381 767.145 145.992 767.145 Q149.626 767.145 151.431 763.604 Q153.26 760.039 153.26 752.932 Q153.26 745.803 151.431 742.261 Q149.626 738.696 145.992 738.696 M145.992 734.993 Q151.802 734.993 154.857 739.599 Q157.936 744.182 157.936 752.932 Q157.936 761.659 154.857 766.266 Q151.802 770.849 145.992 770.849 Q140.181 770.849 137.103 766.266 Q134.047 761.659 134.047 752.932 Q134.047 744.182 137.103 739.599 Q140.181 734.993 145.992 734.993 Z" fill="#000000" fill-rule="nonzero" fill-opacity="1" /><path clip-path="url(#clip260)" d="M101.756 549.66 Q98.1447 549.66 96.316 553.225 Q94.5104 556.767 94.5104 563.896 Q94.5104 571.003 96.316 574.567 Q98.1447 578.109 101.756 578.109 Q105.39 578.109 107.196 574.567 Q109.024 571.003 109.024 563.896 Q109.024 556.767 107.196 553.225 Q105.39 549.66 101.756 549.66 M101.756 545.956 Q107.566 545.956 110.621 550.563 Q113.7 555.146 113.7 563.896 Q113.7 572.623 110.621 577.229 Q107.566 581.813 101.756 581.813 Q95.9456 581.813 92.8669 577.229 Q89.8114 572.623 89.8114 563.896 Q89.8114 555.146 92.8669 550.563 Q95.9456 545.956 101.756 545.956 Z" fill="#000000" fill-rule="nonzero" fill-opacity="1" /><path clip-path="url(#clip260)" d="M121.918 575.262 L126.802 575.262 L126.802 581.141 L121.918 581.141 L121.918 575.262 Z" fill="#000000" fill-rule="nonzero" fill-opacity="1" /><path clip-path="url(#clip260)" d="M137.033 546.581 L155.39 546.581 L155.39 550.517 L141.316 550.517 L141.316 558.989 Q142.334 558.642 143.353 558.48 Q144.371 558.294 145.39 558.294 Q151.177 558.294 154.556 561.466 Q157.936 564.637 157.936 570.054 Q157.936 575.632 154.464 578.734 Q150.992 581.813 144.672 581.813 Q142.496 581.813 140.228 581.442 Q137.982 581.072 135.575 580.331 L135.575 575.632 Q137.658 576.766 139.881 577.322 Q142.103 577.878 144.58 577.878 Q148.584 577.878 150.922 575.771 Q153.26 573.665 153.26 570.054 Q153.26 566.442 150.922 564.336 Q148.584 562.23 144.58 562.23 Q142.705 562.23 140.83 562.646 Q138.978 563.063 137.033 563.942 L137.033 546.581 Z" fill="#000000" fill-rule="nonzero" fill-opacity="1" /><path clip-path="url(#clip260)" d="M91.5706 388.17 L99.2095 388.17 L99.2095 361.805 L90.8993 363.471 L90.8993 359.212 L99.1632 357.545 L103.839 357.545 L103.839 388.17 L111.478 388.17 L111.478 392.105 L91.5706 392.105 L91.5706 388.17 Z" fill="#000000" fill-rule="nonzero" fill-opacity="1" /><path clip-path="url(#clip260)" d="M120.922 386.226 L125.807 386.226 L125.807 392.105 L120.922 392.105 L120.922 386.226 Z" fill="#000000" fill-rule="nonzero" fill-opacity="1" /><path clip-path="url(#clip260)" d="M145.992 360.624 Q142.381 360.624 140.552 364.189 Q138.746 367.73 138.746 374.86 Q138.746 381.966 140.552 385.531 Q142.381 389.073 145.992 389.073 Q149.626 389.073 151.431 385.531 Q153.26 381.966 153.26 374.86 Q153.26 367.73 151.431 364.189 Q149.626 360.624 145.992 360.624 M145.992 356.92 Q151.802 356.92 154.857 361.527 Q157.936 366.11 157.936 374.86 Q157.936 383.587 154.857 388.193 Q151.802 392.777 145.992 392.777 Q140.181 392.777 137.103 388.193 Q134.047 383.587 134.047 374.86 Q134.047 366.11 137.103 361.527 Q140.181 356.92 145.992 356.92 Z" fill="#000000" fill-rule="nonzero" fill-opacity="1" /><path clip-path="url(#clip260)" d="M92.566 199.134 L100.205 199.134 L100.205 172.768 L91.8947 174.435 L91.8947 170.176 L100.159 168.509 L104.834 168.509 L104.834 199.134 L112.473 199.134 L112.473 203.069 L92.566 203.069 L92.566 199.134 Z" fill="#000000" fill-rule="nonzero" fill-opacity="1" /><path clip-path="url(#clip260)" d="M121.918 197.19 L126.802 197.19 L126.802 203.069 L121.918 203.069 L121.918 197.19 Z" fill="#000000" fill-rule="nonzero" fill-opacity="1" /><path clip-path="url(#clip260)" d="M137.033 168.509 L155.39 168.509 L155.39 172.444 L141.316 172.444 L141.316 180.916 Q142.334 180.569 143.353 180.407 Q144.371 180.222 145.39 180.222 Q151.177 180.222 154.556 183.393 Q157.936 186.565 157.936 191.981 Q157.936 197.56 154.464 200.662 Q150.992 203.74 144.672 203.74 Q142.496 203.74 140.228 203.37 Q137.982 203 135.575 202.259 L135.575 197.56 Q137.658 198.694 139.881 199.25 Q142.103 199.805 144.58 199.805 Q148.584 199.805 150.922 197.699 Q153.26 195.592 153.26 191.981 Q153.26 188.37 150.922 186.264 Q148.584 184.157 144.58 184.157 Q142.705 184.157 140.83 184.574 Q138.978 184.991 137.033 185.87 L137.033 168.509 Z" fill="#000000" fill-rule="nonzero" fill-opacity="1" /><path clip-path="url(#clip262)" d="M255.035 714.64 L260.139 729.431 L265.243 758.043 L270.348 786.337 L275.452 793.45 L280.556 820.491 L285.661 829.308 L290.765 848.56 L295.869 875.369 L300.974 897.466 L306.078 922.244 L311.182 936.432 L316.286 975.344 L321.391 976.216 L326.495 999.669 L331.599 1031.8 L336.704 1044.86 L341.808 1079.91 L346.912 1100.47 L352.017 1124.14 L357.121 1138.83 L362.225 1166.49 L367.33 1174.4 L372.434 1172.61 L377.538 1172.06 L382.643 1187.35 L387.747 1208.24 L392.851 1235.64 L397.956 1239.38 L403.06 1263.21 L408.164 1255.29 L413.269 1271.63 L418.373 1285.51 L423.477 1289.83 L428.581 1294.25 L433.686 1296.65 L438.79 1304.64 L443.894 1325.62 L448.999 1333.44 L454.103 1336.13 L459.207 1343.01 L464.312 1341.13 L469.416 1365.49 L474.52 1363.49 L479.625 1375.13 L484.729 1384.6 L489.833 1374.65 L494.938 1373.58 L500.042 1388.88 L505.146 1391.91 L510.251 1388.37 L515.355 1401.11 L520.459 1394.3 L525.563 1410.16 L530.668 1410.03 L535.772 1404.04 L540.876 1402.56 L545.981 1407.22 L551.085 1406.66 L556.189 1394.34 L561.294 1404.68 L566.398 1398.61 L571.502 1390.65 L576.607 1398.21 L581.711 1387.92 L586.815 1395.85 L591.92 1399.8 L597.024 1393.24 L602.128 1389.01 L607.233 1374.8 L612.337 1380.83 L617.441 1355.06 L622.546 1353.31 L627.65 1341.15 L632.754 1346.21 L637.858 1342.93 L642.963 1332.1 L648.067 1327.37 L653.171 1322.71 L658.276 1312.01 L663.38 1311.98 L668.484 1308.89 L673.589 1316.42 L678.693 1304.48 L683.797 1282.86 L688.902 1258.4 L694.006 1250.51 L699.11 1241.66 L704.215 1241.01 L709.319 1231.83 L714.423 1229.84 L719.528 1210.34 L724.632 1197.44 L729.736 1201.32 L734.84 1184.17 L739.945 1170.62 L745.049 1155.9 L750.153 1132.63 L755.258 1114.06 L760.362 1097.76 L765.466 1073.48 L770.571 1056.55 L775.675 1042.66 L780.779 1020.26 L785.884 1013.8 L790.988 997.371 L796.092 976.503 L801.197 954.099 L806.301 946.95 L811.405 924.657 L816.51 891.508 L821.614 875.258 L826.718 850.641 L831.823 835.911 L836.927 832.492 L842.031 804.889 L847.135 777.729 L852.24 766.657 L857.344 755.842 L862.448 751.538 L867.553 726.692 L872.657 718.543 L877.761 727.926 L882.866 709.955 L887.97 696.525 L893.074 695.475 L898.179 699.441 L903.283 669.906 L908.387 665.832 L913.492 639.786 L918.596 615.681 L923.7 606.321 L928.805 594.757 L933.909 586.251 L939.013 569.772 L944.117 578.63 L949.222 548.862 L954.326 528.353 L959.43 519.391 L964.535 504.589 L969.639 497.734 L974.743 477.121 L979.848 455.109 L984.952 434.986 L990.056 425.579 L995.161 411.627 L1000.26 402.889 L1005.37 399.707 L1010.47 388.042 L1015.58 370.622 L1020.68 352.023 L1025.79 337.927 L1030.89 336.763 L1036 333.975 L1041.1 305.202 L1046.2 297.247 L1051.31 281.901 L1056.41 265.819 L1061.52 261.515 L1066.62 249.765 L1071.73 245.249 L1076.83 237.552 L1081.93 225.007 L1087.04 212.113 L1092.14 211.051 L1097.25 208.761 L1102.35 198.461 L1107.46 198.422 L1112.56 194.234 L1117.66 197.227 L1122.77 190.148 L1127.87 193.03 L1132.98 192.783 L1138.08 183.473 L1143.19 190.206 L1148.29 178.554 L1153.39 179.861 L1158.5 182.252 L1163.6 180.275 L1168.71 179.577 L1173.81 181.833 L1178.92 183.339 L1184.02 182.701 L1189.12 182.919 L1194.23 185.9 L1199.33 184.398 L1204.44 193.131 L1209.54 193.66 L1214.65 197.875 L1219.75 195.815 L1224.85 196.696 L1229.96 204.058 L1235.06 206.49 L1240.17 206.571 L1245.27 203.793 L1250.38 221.076 L1255.48 217.851 L1260.59 227.195 L1265.69 224.29 L1270.79 234.629 L1275.9 239.296 L1281 255.027 L1286.11 246.406 L1291.21 256.215 L1296.32 268.933 L1301.42 275.714 L1306.52 277.907 L1311.63 296.614 L1316.73 305.464 L1321.84 312.081 L1326.94 329.238 L1332.05 346.412 L1337.15 375.76 L1342.25 399.598 L1347.36 413.336 L1352.46 429.8 L1357.57 435.588 L1362.67 430.092 L1367.78 434.582 L1372.88 443.346 L1377.98 459.272 L1383.09 468.264 L1388.19 483.893 L1393.3 487.994 L1398.4 511.844 L1403.51 512.848 L1408.61 535.749 L1413.71 558.33 L1418.82 580.091 L1423.92 604.517 L1429.03 622.549 L1434.13 644.223 L1439.24 630.311 L1444.34 647.325 L1449.44 657.915 L1454.55 671.796 L1459.65 705.649 L1464.76 725.747 L1469.86 752.972 L1474.97 766.707 L1480.07 777.949 L1485.18 792.512 L1490.28 783.571 L1495.38 795.843 L1500.49 807.129 L1505.59 796.375 L1510.7 819.467 L1515.8 845.08 L1520.91 845.991 L1526.01 863.239 L1531.11 881.826 L1536.22 905.153 L1541.32 927.328 L1546.43 936.224 L1551.53 948.087 L1556.64 942.991 L1561.74 954.367 L1566.84 969.921 L1571.95 986.671 L1577.05 1008.72 L1582.16 1029.15 L1587.26 1025.57 L1592.37 1056.04 L1597.47 1090.81 L1602.57 1096.57 L1607.68 1108.36 L1612.78 1116.65 L1617.89 1132.02 L1622.99 1159.98 L1628.1 1174.5 L1633.2 1199.72 L1638.3 1215.78 L1643.41 1232.15 L1648.51 1262.16 L1653.62 1271.36 L1658.72 1275.33 L1663.83 1295.91 L1668.93 1293.4 L1674.03 1314.36 L1679.14 1320.76 L1684.24 1336.18 L1689.35 1328.8 L1694.45 1338.83 L1699.56 1352.56 L1704.66 1350.36 L1709.77 1361.19 L1714.87 1359.67 L1719.97 1361.54 L1725.08 1370.53 L1730.18 1384.72 L1735.29 1380.16 L1740.39 1382.83 L1745.5 1391.82 L1750.6 1397.77 L1755.7 1387 L1760.81 1394.76 L1765.91 1399.76 L1771.02 1395.6 L1776.12 1403.33 L1781.23 1408.07 L1786.33 1406.9 L1791.43 1405.83 L1796.54 1391.19 L1801.64 1392.75 L1806.75 1403.4 L1811.85 1402.39 L1816.96 1403.27 L1822.06 1406.25 L1827.16 1397.74 L1832.27 1404.94 L1837.37 1409.76 L1842.48 1403.18 L1847.58 1403.71 L1852.69 1395.25 L1857.79 1398.41 L1862.89 1398.15 L1868 1379.02 L1873.1 1374.25 L1878.21 1373.19 L1883.31 1380.72 L1888.42 1361.01 L1893.52 1360.45 L1898.62 1362.02 L1903.73 1350.38 L1908.83 1342.44 L1913.94 1331.22 L1919.04 1318.55 L1924.15 1320.28 L1929.25 1304.99 L1934.36 1310.35 L1939.46 1295.74 L1944.56 1282.28 L1949.67 1267.84 L1954.77 1274.45 L1959.88 1267.19 L1964.98 1259.45 L1970.09 1254.13 L1975.19 1248.23 L1980.29 1234.12 L1985.4 1202.08 L1990.5 1190.33 L1995.61 1201.07 L2000.71 1188.85 L2005.82 1178.24 L2010.92 1164.11 L2016.02 1128.03 L2021.13 1112.07 L2026.23 1090.77 L2031.34 1072.95 L2036.44 1059.66 L2041.55 1045.82 L2046.65 1044.77 L2051.75 1051.69 L2056.86 1032.32 L2061.96 1021.12 L2067.07 994.213 L2072.17 1013.02 L2077.28 976.121 L2082.38 970.839 L2087.48 932.045 L2092.59 919.88 L2097.69 899.971 L2102.8 888.792 L2107.9 861.107 L2113.01 841.61 L2118.11 831.582 L2123.21 819.721 L2128.32 809.707 L2133.42 801.485 L2138.53 788.853 L2143.63 756.94 L2148.74 739.674 L2153.84 710.63 L2158.94 684.668 L2164.05 661.183 L2169.15 656.837 L2174.26 647.881 L2179.36 641.588 L2184.47 622.089 L2189.57 616.319 L2194.68 604.558 L2199.78 580.223 L2204.88 579.315 L2209.99 571.27 L2215.09 548.774 L2220.2 540.748 L2225.3 526.722 L2230.41 520.639 L2235.51 495.872 L2240.61 468.943 L2245.72 472.575 L2250.82 467.076 L2255.93 447.645 L2261.03 431.254 L2266.14 439.996 L2271.24 440.333 L2276.34 445.266 L2281.45 423.323 L2286.55 385.222 L2291.66 366.643 L2291.66 285.954 L2286.55 304.533 L2281.45 342.634 L2276.34 364.578 L2271.24 359.644 L2266.14 359.307 L2261.03 350.565 L2255.93 366.956 L2250.82 386.387 L2245.72 391.886 L2240.61 388.254 L2235.51 415.183 L2230.41 439.95 L2225.3 446.033 L2220.2 460.059 L2215.09 468.085 L2209.99 490.581 L2204.88 498.626 L2199.78 499.534 L2194.68 523.869 L2189.57 535.63 L2184.47 541.4 L2179.36 560.899 L2174.26 567.192 L2169.15 576.148 L2164.05 580.494 L2158.94 603.979 L2153.84 629.941 L2148.74 658.985 L2143.63 676.252 L2138.53 708.164 L2133.42 720.796 L2128.32 729.018 L2123.21 739.032 L2118.11 750.893 L2113.01 760.921 L2107.9 780.418 L2102.8 808.103 L2097.69 819.282 L2092.59 839.191 L2087.48 851.356 L2082.38 890.15 L2077.28 895.432 L2072.17 932.327 L2067.07 913.524 L2061.96 940.432 L2056.86 951.635 L2051.75 970.999 L2046.65 964.085 L2041.55 965.127 L2036.44 978.967 L2031.34 992.262 L2026.23 1010.08 L2021.13 1031.38 L2016.02 1047.34 L2010.92 1083.42 L2005.82 1097.55 L2000.71 1108.16 L1995.61 1120.38 L1990.5 1109.64 L1985.4 1121.39 L1980.29 1153.43 L1975.19 1167.54 L1970.09 1173.44 L1964.98 1178.76 L1959.88 1186.5 L1954.77 1193.76 L1949.67 1187.15 L1944.56 1201.6 L1939.46 1215.05 L1934.36 1229.66 L1929.25 1224.3 L1924.15 1239.59 L1919.04 1237.86 L1913.94 1250.53 L1908.83 1261.75 L1903.73 1269.69 L1898.62 1281.33 L1893.52 1279.76 L1888.42 1280.32 L1883.31 1300.03 L1878.21 1292.5 L1873.1 1293.57 L1868 1298.33 L1862.89 1317.46 L1857.79 1317.72 L1852.69 1314.57 L1847.58 1323.02 L1842.48 1322.49 L1837.37 1329.07 L1832.27 1324.25 L1827.16 1317.05 L1822.06 1325.56 L1816.96 1322.58 L1811.85 1321.71 L1806.75 1322.71 L1801.64 1312.07 L1796.54 1310.5 L1791.43 1325.14 L1786.33 1326.21 L1781.23 1327.38 L1776.12 1322.64 L1771.02 1314.91 L1765.91 1319.07 L1760.81 1314.07 L1755.7 1306.32 L1750.6 1317.08 L1745.5 1311.13 L1740.39 1302.14 L1735.29 1299.47 L1730.18 1304.03 L1725.08 1289.84 L1719.97 1280.85 L1714.87 1278.98 L1709.77 1280.5 L1704.66 1269.67 L1699.56 1271.88 L1694.45 1258.14 L1689.35 1248.12 L1684.24 1255.49 L1679.14 1240.08 L1674.03 1233.67 L1668.93 1212.71 L1663.83 1215.22 L1658.72 1194.64 L1653.62 1190.67 L1648.51 1181.47 L1643.41 1151.46 L1638.3 1135.09 L1633.2 1119.03 L1628.1 1093.81 L1622.99 1079.29 L1617.89 1051.33 L1612.78 1035.96 L1607.68 1027.67 L1602.57 1015.88 L1597.47 1010.12 L1592.37 975.347 L1587.26 944.886 L1582.16 948.46 L1577.05 928.033 L1571.95 905.982 L1566.84 889.232 L1561.74 873.678 L1556.64 862.302 L1551.53 867.398 L1546.43 855.535 L1541.32 846.639 L1536.22 824.464 L1531.11 801.138 L1526.01 782.55 L1520.91 765.302 L1515.8 764.391 L1510.7 738.779 L1505.59 715.686 L1500.49 726.44 L1495.38 715.154 L1490.28 702.882 L1485.18 711.823 L1480.07 697.26 L1474.97 686.018 L1469.86 672.283 L1464.76 645.058 L1459.65 624.96 L1454.55 591.107 L1449.44 577.226 L1444.34 566.636 L1439.24 549.622 L1434.13 563.534 L1429.03 541.86 L1423.92 523.828 L1418.82 499.402 L1413.71 477.641 L1408.61 455.06 L1403.51 432.159 L1398.4 431.155 L1393.3 407.305 L1388.19 403.205 L1383.09 387.575 L1377.98 378.583 L1372.88 362.657 L1367.78 353.893 L1362.67 349.403 L1357.57 354.899 L1352.46 349.111 L1347.36 332.647 L1342.25 318.909 L1337.15 295.072 L1332.05 265.723 L1326.94 248.549 L1321.84 231.392 L1316.73 224.776 L1311.63 215.926 L1306.52 197.218 L1301.42 195.025 L1296.32 188.244 L1291.21 175.526 L1286.11 165.717 L1281 174.338 L1275.9 158.607 L1270.79 153.94 L1265.69 143.601 L1260.59 146.506 L1255.48 137.162 L1250.38 140.387 L1245.27 123.105 L1240.17 125.882 L1235.06 125.801 L1229.96 123.369 L1224.85 116.007 L1219.75 115.126 L1214.65 117.186 L1209.54 112.971 L1204.44 112.442 L1199.33 103.709 L1194.23 105.211 L1189.12 102.23 L1184.02 102.012 L1178.92 102.65 L1173.81 101.144 L1168.71 98.8878 L1163.6 99.5862 L1158.5 101.563 L1153.39 99.1719 L1148.29 97.8646 L1143.19 109.517 L1138.08 102.784 L1132.98 112.094 L1127.87 112.341 L1122.77 109.46 L1117.66 116.538 L1112.56 113.545 L1107.46 117.733 L1102.35 117.772 L1097.25 128.072 L1092.14 130.362 L1087.04 131.424 L1081.93 144.318 L1076.83 156.863 L1071.73 164.56 L1066.62 169.076 L1061.52 180.827 L1056.41 185.13 L1051.31 201.212 L1046.2 216.558 L1041.1 224.513 L1036 253.286 L1030.89 256.074 L1025.79 257.238 L1020.68 271.334 L1015.58 289.933 L1010.47 307.353 L1005.37 319.018 L1000.26 322.2 L995.161 330.938 L990.056 344.891 L984.952 354.297 L979.848 374.42 L974.743 396.432 L969.639 417.045 L964.535 423.9 L959.43 438.702 L954.326 447.664 L949.222 468.173 L944.117 497.941 L939.013 489.083 L933.909 505.562 L928.805 514.068 L923.7 525.632 L918.596 534.992 L913.492 559.097 L908.387 585.143 L903.283 589.217 L898.179 618.753 L893.074 614.786 L887.97 615.836 L882.866 629.266 L877.761 647.238 L872.657 637.854 L867.553 646.003 L862.448 670.849 L857.344 675.153 L852.24 685.968 L847.135 697.04 L842.031 724.201 L836.927 751.803 L831.823 755.222 L826.718 769.952 L821.614 794.569 L816.51 810.819 L811.405 843.968 L806.301 866.261 L801.197 873.41 L796.092 895.814 L790.988 916.682 L785.884 933.11 L780.779 939.57 L775.675 961.97 L770.571 975.86 L765.466 992.793 L760.362 1017.07 L755.258 1033.37 L750.153 1051.94 L745.049 1075.22 L739.945 1089.93 L734.84 1103.48 L729.736 1120.63 L724.632 1116.75 L719.528 1129.65 L714.423 1149.16 L709.319 1151.14 L704.215 1160.32 L699.11 1160.97 L694.006 1169.82 L688.902 1177.71 L683.797 1202.17 L678.693 1223.79 L673.589 1235.73 L668.484 1228.2 L663.38 1231.29 L658.276 1231.32 L653.171 1242.02 L648.067 1246.68 L642.963 1251.41 L637.858 1262.24 L632.754 1265.52 L627.65 1260.47 L622.546 1272.62 L617.441 1274.37 L612.337 1300.14 L607.233 1294.11 L602.128 1308.32 L597.024 1312.56 L591.92 1319.11 L586.815 1315.16 L581.711 1307.24 L576.607 1317.52 L571.502 1309.96 L566.398 1317.92 L561.294 1324 L556.189 1313.65 L551.085 1325.97 L545.981 1326.53 L540.876 1321.87 L535.772 1323.35 L530.668 1329.34 L525.563 1329.48 L520.459 1313.62 L515.355 1320.42 L510.251 1307.68 L505.146 1311.22 L500.042 1308.19 L494.938 1292.89 L489.833 1293.97 L484.729 1303.91 L479.625 1294.45 L474.52 1282.8 L469.416 1284.8 L464.312 1260.44 L459.207 1262.32 L454.103 1255.44 L448.999 1252.75 L443.894 1244.94 L438.79 1223.95 L433.686 1215.96 L428.581 1213.56 L423.477 1209.14 L418.373 1204.83 L413.269 1190.95 L408.164 1174.61 L403.06 1182.52 L397.956 1158.69 L392.851 1154.95 L387.747 1127.55 L382.643 1106.66 L377.538 1091.37 L372.434 1091.92 L367.33 1093.71 L362.225 1085.8 L357.121 1058.14 L352.017 1043.45 L346.912 1019.78 L341.808 999.218 L336.704 964.167 L331.599 951.113 L326.495 918.98 L321.391 895.527 L316.286 894.655 L311.182 855.743 L306.078 841.555 L300.974 816.777 L295.869 794.68 L290.765 767.871 L285.661 748.619 L280.556 739.802 L275.452 712.762 L270.348 705.648 L265.243 677.354 L260.139 648.742 L255.035 633.951  Z" fill="#0000ff" fill-rule="evenodd" fill-opacity="0.5"/>
<polyline clip-path="url(#clip262)" style="stroke:#0000ff; stroke-linecap:round; stroke-linejoin:round; stroke-width:8; stroke-opacity:1; fill:none" points="255.035,674.295 260.139,689.086 265.243,717.699 270.348,745.993 275.452,753.106 280.556,780.147 285.661,788.963 290.765,808.216 295.869,835.025 300.974,857.122 306.078,881.9 311.182,896.088 316.286,934.999 321.391,935.872 326.495,959.324 331.599,991.458 336.704,1004.51 341.808,1039.56 346.912,1060.12 352.017,1083.79 357.121,1098.48 362.225,1126.14 367.33,1134.06 372.434,1132.26 377.538,1131.71 382.643,1147.01 387.747,1167.89 392.851,1195.3 397.956,1199.04 403.06,1222.87 408.164,1214.95 413.269,1231.29 418.373,1245.17 423.477,1249.49 428.581,1253.91 433.686,1256.3 438.79,1264.29 443.894,1285.28 448.999,1293.1 454.103,1295.78 459.207,1302.67 464.312,1300.79 469.416,1325.15 474.52,1323.15 479.625,1334.79 484.729,1344.26 489.833,1334.31 494.938,1333.24 500.042,1348.53 505.146,1351.56 510.251,1348.02 515.355,1360.77 520.459,1353.96 525.563,1369.82 530.668,1369.68 535.772,1363.7 540.876,1362.21 545.981,1366.88 551.085,1366.32 556.189,1354 561.294,1364.34 566.398,1358.26 571.502,1350.3 576.607,1357.86 581.711,1347.58 586.815,1355.51 591.92,1359.46 597.024,1352.9 602.128,1348.66 607.233,1334.45 612.337,1340.49 617.441,1314.72 622.546,1312.96 627.65,1300.81 632.754,1305.86 637.858,1302.59 642.963,1291.75 648.067,1287.02 653.171,1282.36 658.276,1271.67 663.38,1271.63 668.484,1268.55 673.589,1276.07 678.693,1264.13 683.797,1242.52 688.902,1218.06 694.006,1210.16 699.11,1201.32 704.215,1200.67 709.319,1191.49 714.423,1189.5 719.528,1169.99 724.632,1157.1 729.736,1160.97 734.84,1143.82 739.945,1130.27 745.049,1115.56 750.153,1092.29 755.258,1073.72 760.362,1057.42 765.466,1033.14 770.571,1016.2 775.675,1002.31 780.779,979.914 785.884,973.455 790.988,957.027 796.092,936.158 801.197,913.755 806.301,906.605 811.405,884.312 816.51,851.164 821.614,834.914 826.718,810.296 831.823,795.566 836.927,792.148 842.031,764.545 847.135,737.385 852.24,726.312 857.344,715.497 862.448,711.194 867.553,686.348 872.657,678.199 877.761,687.582 882.866,669.61 887.97,656.18 893.074,655.131 898.179,659.097 903.283,629.561 908.387,625.487 913.492,599.442 918.596,575.336 923.7,565.977 928.805,554.412 933.909,545.906 939.013,529.427 944.117,538.286 949.222,508.518 954.326,488.009 959.43,479.046 964.535,464.245 969.639,457.39 974.743,436.777 979.848,414.765 984.952,394.641 990.056,385.235 995.161,371.283 1000.26,362.544 1005.37,359.362 1010.47,347.698 1015.58,330.278 1020.68,311.678 1025.79,297.582 1030.89,296.418 1036,293.63 1041.1,264.858 1046.2,256.902 1051.31,241.556 1056.41,225.475 1061.52,221.171 1066.62,209.421 1071.73,204.904 1076.83,197.208 1081.93,184.662 1087.04,171.768 1092.14,170.706 1097.25,168.417 1102.35,158.117 1107.46,158.078 1112.56,153.889 1117.66,156.883 1122.77,149.804 1127.87,152.686 1132.98,152.439 1138.08,143.129 1143.19,149.861 1148.29,138.209 1153.39,139.516 1158.5,141.907 1163.6,139.931 1168.71,139.232 1173.81,141.488 1178.92,142.994 1184.02,142.357 1189.12,142.575 1194.23,145.555 1199.33,144.053 1204.44,152.786 1209.54,153.316 1214.65,157.53 1219.75,155.47 1224.85,156.352 1229.96,163.713 1235.06,166.145 1240.17,166.226 1245.27,163.449 1250.38,180.731 1255.48,177.507 1260.59,186.85 1265.69,183.946 1270.79,194.285 1275.9,198.952 1281,214.682 1286.11,206.061 1291.21,215.87 1296.32,228.589 1301.42,235.369 1306.52,237.563 1311.63,256.27 1316.73,265.12 1321.84,271.737 1326.94,288.893 1332.05,306.068 1337.15,335.416 1342.25,359.253 1347.36,372.991 1352.46,389.456 1357.57,395.243 1362.67,389.747 1367.78,394.237 1372.88,403.002 1377.98,418.927 1383.09,427.919 1388.19,443.549 1393.3,447.649 1398.4,471.5 1403.51,472.504 1408.61,495.405 1413.71,517.986 1418.82,539.747 1423.92,564.172 1429.03,582.204 1434.13,603.879 1439.24,589.967 1444.34,606.98 1449.44,617.57 1454.55,631.452 1459.65,665.304 1464.76,685.403 1469.86,712.627 1474.97,726.362 1480.07,737.605 1485.18,752.167 1490.28,743.226 1495.38,755.498 1500.49,766.785 1505.59,756.031 1510.7,779.123 1515.8,804.735 1520.91,805.647 1526.01,822.895 1531.11,841.482 1536.22,864.808 1541.32,886.983 1546.43,895.879 1551.53,907.742 1556.64,902.646 1561.74,914.023 1566.84,929.576 1571.95,946.327 1577.05,968.377 1582.16,988.805 1587.26,985.23 1592.37,1015.69 1597.47,1050.47 1602.57,1056.23 1607.68,1068.01 1612.78,1076.31 1617.89,1091.68 1622.99,1119.64 1628.1,1134.16 1633.2,1159.38 1638.3,1175.43 1643.41,1191.81 1648.51,1221.81 1653.62,1231.01 1658.72,1234.98 1663.83,1255.57 1668.93,1253.06 1674.03,1274.02 1679.14,1280.42 1684.24,1295.83 1689.35,1288.46 1694.45,1298.49 1699.56,1312.22 1704.66,1310.02 1709.77,1320.84 1714.87,1319.33 1719.97,1321.2 1725.08,1330.19 1730.18,1344.37 1735.29,1339.81 1740.39,1342.48 1745.5,1351.47 1750.6,1357.42 1755.7,1346.66 1760.81,1354.42 1765.91,1359.42 1771.02,1355.25 1776.12,1362.99 1781.23,1367.73 1786.33,1366.56 1791.43,1365.48 1796.54,1350.84 1801.64,1352.41 1806.75,1363.05 1811.85,1362.05 1816.96,1362.92 1822.06,1365.9 1827.16,1357.39 1832.27,1364.59 1837.37,1369.42 1842.48,1362.84 1847.58,1363.36 1852.69,1354.91 1857.79,1358.07 1862.89,1357.8 1868,1338.68 1873.1,1333.91 1878.21,1332.84 1883.31,1340.37 1888.42,1320.66 1893.52,1320.1 1898.62,1321.67 1903.73,1310.03 1908.83,1302.1 1913.94,1290.87 1919.04,1278.21 1924.15,1279.94 1929.25,1264.64 1934.36,1270.01 1939.46,1255.39 1944.56,1241.94 1949.67,1227.5 1954.77,1234.1 1959.88,1226.85 1964.98,1219.1 1970.09,1213.78 1975.19,1207.88 1980.29,1193.77 1985.4,1161.74 1990.5,1149.99 1995.61,1160.73 2000.71,1148.5 2005.82,1137.89 2010.92,1123.76 2016.02,1087.68 2021.13,1071.73 2026.23,1050.43 2031.34,1032.61 2036.44,1019.31 2041.55,1005.47 2046.65,1004.43 2051.75,1011.34 2056.86,991.979 2061.96,980.776 2067.07,953.869 2072.17,972.672 2077.28,935.777 2082.38,930.494 2087.48,891.701 2092.59,879.535 2097.69,859.626 2102.8,848.448 2107.9,820.762 2113.01,801.265 2118.11,791.237 2123.21,779.376 2128.32,769.362 2133.42,761.141 2138.53,748.509 2143.63,716.596 2148.74,699.33 2153.84,670.285 2158.94,644.323 2164.05,620.839 2169.15,616.492 2174.26,607.536 2179.36,601.243 2184.47,581.745 2189.57,575.974 2194.68,564.214 2199.78,539.878 2204.88,538.971 2209.99,530.926 2215.09,508.429 2220.2,500.403 2225.3,486.377 2230.41,480.294 2235.51,455.527 2240.61,428.599 2245.72,432.231 2250.82,426.731 2255.93,407.3 2261.03,390.91 2266.14,399.651 2271.24,399.988 2276.34,404.922 2281.45,382.979 2286.55,344.878 2291.66,326.298 "/>
<polyline clip-path="url(#clip262)" style="stroke:#000000; stroke-linecap:round; stroke-linejoin:round; stroke-width:8; stroke-opacity:1; fill:none" stroke-dasharray="32, 20" points="255.035,794.375 260.139,812.131 265.243,829.863 270.348,847.515 275.452,865.046 280.556,882.441 285.661,899.763 290.765,917.018 295.869,934.064 300.974,950.987 306.078,967.778 311.182,984.373 316.286,1000.75 321.391,1016.91 326.495,1032.85 331.599,1048.56 336.704,1063.99 341.808,1079.15 346.912,1094.02 352.017,1108.6 357.121,1122.87 362.225,1136.78 367.33,1150.43 372.434,1163.78 377.538,1176.77 382.643,1189.41 387.747,1201.7 392.851,1213.64 397.956,1225.24 403.06,1236.46 408.164,1247.31 413.269,1257.82 418.373,1268.06 423.477,1277.94 428.581,1287.5 433.686,1296.7 438.79,1305.47 443.894,1313.9 448.999,1321.99 454.103,1329.7 459.207,1337.02 464.312,1343.89 469.416,1350.34 474.52,1356.4 479.625,1362.1 484.729,1367.43 489.833,1372.4 494.938,1377.02 500.042,1381.25 505.146,1385.1 510.251,1388.55 515.355,1391.64 520.459,1394.34 525.563,1396.65 530.668,1398.62 535.772,1400.22 540.876,1401.46 545.981,1402.35 551.085,1402.86 556.189,1402.99 561.294,1402.74 566.398,1402.14 571.502,1401.16 576.607,1399.75 581.711,1397.95 586.815,1395.73 591.92,1393.11 597.024,1390.15 602.128,1386.8 607.233,1383.05 612.337,1378.9 617.441,1374.33 622.546,1369.42 627.65,1364.13 632.754,1358.44 637.858,1352.39 642.963,1346.02 648.067,1339.3 653.171,1332.19 658.276,1324.63 663.38,1316.67 668.484,1308.34 673.589,1299.59 678.693,1290.49 683.797,1280.98 688.902,1271.12 694.006,1260.89 699.11,1250.28 704.215,1239.29 709.319,1227.99 714.423,1216.37 719.528,1204.43 724.632,1192.11 729.736,1179.49 734.84,1166.55 739.945,1153.25 745.049,1139.62 750.153,1125.68 755.258,1111.39 760.362,1096.74 765.466,1081.79 770.571,1066.59 775.675,1051.14 780.779,1035.38 785.884,1019.33 790.988,1003.08 796.092,986.637 801.197,969.955 806.301,953.077 811.405,935.982 816.51,918.687 821.614,901.233 826.718,883.576 831.823,865.784 836.927,847.904 842.031,829.94 847.135,811.899 852.24,793.752 857.344,775.574 862.448,757.35 867.553,739.101 872.657,720.87 877.761,702.678 882.866,684.548 887.97,666.486 893.074,648.457 898.179,630.446 903.283,612.567 908.387,594.802 913.492,577.149 918.596,559.723 923.7,542.512 928.805,525.544 933.909,508.79 939.013,492.258 944.117,475.93 949.222,459.793 954.326,443.889 959.43,428.257 964.535,412.901 969.639,397.835 974.743,383.1 979.848,368.683 984.952,354.609 990.056,340.863 995.161,327.442 1000.26,314.362 1005.37,301.622 1010.47,289.198 1015.58,277.136 1020.68,265.397 1025.79,253.996 1030.89,242.945 1036,232.272 1041.1,222.004 1046.2,212.148 1051.31,202.671 1056.41,193.594 1061.52,184.9 1066.62,176.649 1071.73,168.735 1076.83,161.155 1081.93,153.936 1087.04,147.083 1092.14,140.616 1097.25,134.557 1102.35,128.912 1107.46,123.608 1112.56,118.648 1117.66,114.068 1122.77,109.866 1127.87,106.022 1132.98,102.551 1138.08,99.4175 1143.19,96.6524 1148.29,94.2468 1153.39,92.2276 1158.5,90.6138 1163.6,89.3968 1168.71,88.5662 1173.81,88.0993 1178.92,87.9763 1184.02,88.1912 1189.12,88.808 1194.23,89.9129 1199.33,91.4339 1204.44,93.3064 1209.54,95.4758 1214.65,97.9776 1219.75,100.854 1224.85,104.048 1229.96,107.618 1235.06,111.582 1240.17,115.953 1245.27,120.658 1250.38,125.717 1255.48,131.111 1260.59,136.905 1265.69,143.056 1270.79,149.531 1275.9,156.365 1281,163.497 1286.11,170.969 1291.21,178.875 1296.32,187.166 1301.42,195.828 1306.52,204.866 1311.63,214.248 1316.73,223.952 1321.84,234.075 1326.94,244.614 1332.05,255.57 1337.15,266.862 1342.25,278.497 1347.36,290.492 1352.46,302.842 1357.57,315.534 1362.67,328.585 1367.78,341.942 1372.88,355.644 1377.98,369.732 1383.09,384.189 1388.19,398.968 1393.3,414.026 1398.4,429.44 1403.51,445.153 1408.61,461.148 1413.71,477.403 1418.82,493.945 1423.92,510.708 1429.03,527.708 1434.13,544.899 1439.24,562.272 1444.34,579.843 1449.44,597.589 1454.55,615.477 1459.65,633.546 1464.76,651.753 1469.86,670.05 1474.97,688.443 1480.07,706.973 1485.18,725.605 1490.28,744.304 1495.38,763.059 1500.49,781.814 1505.59,800.584 1510.7,819.336 1515.8,838.057 1520.91,856.686 1526.01,875.197 1531.11,893.591 1536.22,911.83 1541.32,929.967 1546.43,947.976 1551.53,965.851 1556.64,983.478 1561.74,1000.89 1566.84,1018.09 1571.95,1035.07 1577.05,1051.81 1582.16,1068.24 1587.26,1084.4 1592.37,1100.32 1597.47,1116.03 1602.57,1131.41 1607.68,1146.48 1612.78,1161.21 1617.89,1175.61 1622.99,1189.65 1628.1,1203.33 1633.2,1216.62 1638.3,1229.49 1643.41,1241.97 1648.51,1254.09 1653.62,1265.85 1658.72,1277.21 1663.83,1288.17 1668.93,1298.8 1674.03,1309.06 1679.14,1318.96 1684.24,1328.48 1689.35,1337.63 1694.45,1346.41 1699.56,1354.79 1704.66,1362.79 1709.77,1370.38 1714.87,1377.59 1719.97,1384.43 1725.08,1390.91 1730.18,1397.06 1735.29,1402.86 1740.39,1408.33 1745.5,1413.42 1750.6,1418.1 1755.7,1422.39 1760.81,1426.31 1765.91,1429.88 1771.02,1433.06 1776.12,1435.85 1781.23,1438.26 1786.33,1440.3 1791.43,1442.04 1796.54,1443.46 1801.64,1444.52 1806.75,1445.26 1811.85,1445.67 1816.96,1445.72 1822.06,1445.4 1827.16,1444.71 1832.27,1443.64 1837.37,1442.18 1842.48,1440.29 1847.58,1438.05 1852.69,1435.49 1857.79,1432.56 1862.89,1429.25 1868,1425.64 1873.1,1421.71 1878.21,1417.42 1883.31,1412.82 1888.42,1407.94 1893.52,1402.7 1898.62,1397.13 1903.73,1391.28 1908.83,1385.1 1913.94,1378.55 1919.04,1371.6 1924.15,1364.36 1929.25,1356.76 1934.36,1348.78 1939.46,1340.41 1944.56,1331.6 1949.67,1322.34 1954.77,1312.7 1959.88,1302.6 1964.98,1292.07 1970.09,1281.15 1975.19,1269.82 1980.29,1258.12 1985.4,1246.02 1990.5,1233.61 1995.61,1220.88 2000.71,1207.8 2005.82,1194.38 2010.92,1180.63 2016.02,1166.52 2021.13,1152.08 2026.23,1137.29 2031.34,1122.14 2036.44,1106.68 2041.55,1090.97 2046.65,1074.89 2051.75,1058.52 2056.86,1041.88 2061.96,1024.98 2067.07,1007.88 2072.17,990.579 2077.28,973.05 2082.38,955.301 2087.48,937.252 2092.59,919.002 2097.69,900.554 2102.8,881.952 2107.9,863.24 2113.01,844.444 2118.11,825.525 2123.21,806.516 2128.32,787.505 2133.42,768.463 2138.53,749.424 2143.63,730.379 2148.74,711.341 2153.84,692.359 2158.94,673.396 2164.05,654.497 2169.15,635.662 2174.26,616.953 2179.36,598.369 2184.47,579.939 2189.57,561.688 2194.68,543.676 2199.78,525.851 2204.88,508.185 2209.99,490.743 2215.09,473.508 2220.2,456.531 2225.3,439.829 2230.41,423.422 2235.51,407.285 2240.61,391.397 2245.72,375.809 2250.82,360.506 2255.93,345.572 2261.03,330.952 2266.14,316.638 2271.24,302.659 2276.34,289.043 2281.45,275.78 2286.55,262.835 2291.66,250.23 "/>
<path clip-path="url(#clip260)" d="M1405.27 222.884 L1879.53 222.884 L1879.53 67.3643 L1405.27 67.3643  Z" fill="#ffffff" fill-rule="evenodd" fill-opacity="1"/>
<polyline clip-path="url(#clip260)" style="stroke:#000000; stroke-linecap:round; stroke-linejoin:round; stroke-width:4; stroke-opacity:1; fill:none" points="1405.27,222.884 1879.53,222.884 1879.53,67.3643 1405.27,67.3643 1405.27,222.884 "/>
<polyline clip-path="url(#clip260)" style="stroke:#0000ff; stroke-linecap:round; stroke-linejoin:round; stroke-width:8; stroke-opacity:1; fill:none" points="1429.26,119.204 1573.18,119.204 "/>
<path clip-path="url(#clip260)" d="M1619.41 103.059 L1619.41 107.619 Q1616.75 106.346 1614.39 105.721 Q1612.03 105.096 1609.83 105.096 Q1606.01 105.096 1603.93 106.577 Q1601.87 108.059 1601.87 110.79 Q1601.87 113.082 1603.23 114.262 Q1604.62 115.42 1608.47 116.137 L1611.29 116.716 Q1616.52 117.711 1619 120.234 Q1621.5 122.734 1621.5 126.947 Q1621.5 131.97 1618.12 134.563 Q1614.76 137.156 1608.26 137.156 Q1605.8 137.156 1603.03 136.6 Q1600.27 136.044 1597.31 134.957 L1597.31 130.142 Q1600.16 131.739 1602.89 132.549 Q1605.62 133.359 1608.26 133.359 Q1612.26 133.359 1614.44 131.785 Q1616.61 130.211 1616.61 127.295 Q1616.61 124.748 1615.04 123.313 Q1613.49 121.878 1609.92 121.16 L1607.08 120.605 Q1601.84 119.563 1599.51 117.341 Q1597.17 115.119 1597.17 111.16 Q1597.17 106.577 1600.39 103.938 Q1603.63 101.299 1609.3 101.299 Q1611.73 101.299 1614.25 101.739 Q1616.78 102.179 1619.41 103.059 Z" fill="#000000" fill-rule="nonzero" fill-opacity="1" /><path clip-path="url(#clip260)" d="M1652.35 131.554 L1652.35 122.271 L1644.71 122.271 L1644.71 118.429 L1656.98 118.429 L1656.98 133.267 Q1654.28 135.188 1651.01 136.183 Q1647.75 137.156 1644.04 137.156 Q1635.94 137.156 1631.36 132.433 Q1626.8 127.688 1626.8 119.239 Q1626.8 110.767 1631.36 106.045 Q1635.94 101.299 1644.04 101.299 Q1647.42 101.299 1650.46 102.133 Q1653.51 102.966 1656.08 104.586 L1656.08 109.563 Q1653.49 107.364 1650.57 106.253 Q1647.65 105.142 1644.44 105.142 Q1638.09 105.142 1634.9 108.684 Q1631.73 112.225 1631.73 119.239 Q1631.73 126.23 1634.9 129.771 Q1638.09 133.313 1644.44 133.313 Q1646.91 133.313 1648.86 132.896 Q1650.8 132.457 1652.35 131.554 Z" fill="#000000" fill-rule="nonzero" fill-opacity="1" /><path clip-path="url(#clip260)" d="M1670.2 105.767 L1670.2 118.753 L1676.08 118.753 Q1679.34 118.753 1681.13 117.063 Q1682.91 115.373 1682.91 112.248 Q1682.91 109.146 1681.13 107.457 Q1679.34 105.767 1676.08 105.767 L1670.2 105.767 M1665.53 101.924 L1676.08 101.924 Q1681.89 101.924 1684.85 104.563 Q1687.84 107.179 1687.84 112.248 Q1687.84 117.364 1684.85 119.98 Q1681.89 122.595 1676.08 122.595 L1670.2 122.595 L1670.2 136.484 L1665.53 136.484 L1665.53 101.924 Z" fill="#000000" fill-rule="nonzero" fill-opacity="1" /><polyline clip-path="url(#clip260)" style="stroke:#000000; stroke-linecap:round; stroke-linejoin:round; stroke-width:8; stroke-opacity:1; fill:none" stroke-dasharray="32, 20" points="1429.26,171.044 1573.18,171.044 "/>
<path clip-path="url(#clip260)" d="M1597.17 153.764 L1626.4 153.764 L1626.4 157.699 L1614.14 157.699 L1614.14 188.324 L1609.44 188.324 L1609.44 157.699 L1597.17 157.699 L1597.17 153.764 Z" fill="#000000" fill-rule="nonzero" fill-opacity="1" /><path clip-path="url(#clip260)" d="M1638.79 166.38 Q1638.07 165.963 1637.22 165.778 Q1636.38 165.57 1635.36 165.57 Q1631.75 165.57 1629.81 167.931 Q1627.89 170.269 1627.89 174.667 L1627.89 188.324 L1623.6 188.324 L1623.6 162.398 L1627.89 162.398 L1627.89 166.426 Q1629.23 164.065 1631.38 162.931 Q1633.53 161.773 1636.61 161.773 Q1637.05 161.773 1637.59 161.843 Q1638.12 161.889 1638.77 162.005 L1638.79 166.38 Z" fill="#000000" fill-rule="nonzero" fill-opacity="1" /><path clip-path="url(#clip260)" d="M1642.82 178.093 L1642.82 162.398 L1647.08 162.398 L1647.08 177.931 Q1647.08 181.611 1648.51 183.463 Q1649.95 185.292 1652.82 185.292 Q1656.27 185.292 1658.26 183.093 Q1660.27 180.894 1660.27 177.097 L1660.27 162.398 L1664.53 162.398 L1664.53 188.324 L1660.27 188.324 L1660.27 184.343 Q1658.72 186.704 1656.66 187.861 Q1654.62 188.996 1651.91 188.996 Q1647.45 188.996 1645.13 186.218 Q1642.82 183.44 1642.82 178.093 M1653.53 161.773 L1653.53 161.773 Z" fill="#000000" fill-rule="nonzero" fill-opacity="1" /><path clip-path="url(#clip260)" d="M1695.48 174.297 L1695.48 176.38 L1675.9 176.38 Q1676.17 180.778 1678.53 183.093 Q1680.92 185.384 1685.15 185.384 Q1687.61 185.384 1689.9 184.783 Q1692.21 184.181 1694.48 182.977 L1694.48 187.005 Q1692.19 187.977 1689.78 188.486 Q1687.38 188.996 1684.9 188.996 Q1678.7 188.996 1675.06 185.384 Q1671.45 181.773 1671.45 175.616 Q1671.45 169.25 1674.88 165.523 Q1678.33 161.773 1684.16 161.773 Q1689.39 161.773 1692.42 165.153 Q1695.48 168.51 1695.48 174.297 M1691.22 173.047 Q1691.17 169.551 1689.25 167.468 Q1687.35 165.385 1684.21 165.385 Q1680.64 165.385 1678.49 167.398 Q1676.36 169.412 1676.03 173.07 L1691.22 173.047 Z" fill="#000000" fill-rule="nonzero" fill-opacity="1" /><path clip-path="url(#clip260)" d="M1734.07 163.162 L1734.07 167.19 Q1732.26 166.264 1730.32 165.801 Q1728.37 165.338 1726.29 165.338 Q1723.12 165.338 1721.52 166.311 Q1719.95 167.283 1719.95 169.227 Q1719.95 170.709 1721.08 171.565 Q1722.21 172.398 1725.64 173.162 L1727.1 173.486 Q1731.64 174.459 1733.53 176.241 Q1735.46 178 1735.46 181.172 Q1735.46 184.783 1732.58 186.889 Q1729.74 188.996 1724.74 188.996 Q1722.65 188.996 1720.39 188.579 Q1718.14 188.185 1715.64 187.375 L1715.64 182.977 Q1718 184.204 1720.29 184.829 Q1722.58 185.431 1724.83 185.431 Q1727.84 185.431 1729.46 184.412 Q1731.08 183.371 1731.08 181.496 Q1731.08 179.76 1729.9 178.834 Q1728.74 177.908 1724.78 177.051 L1723.3 176.704 Q1719.34 175.871 1717.58 174.158 Q1715.83 172.422 1715.83 169.412 Q1715.83 165.755 1718.42 163.764 Q1721.01 161.773 1725.78 161.773 Q1728.14 161.773 1730.22 162.121 Q1732.31 162.468 1734.07 163.162 Z" fill="#000000" fill-rule="nonzero" fill-opacity="1" /><path clip-path="url(#clip260)" d="M1746.45 155.037 L1746.45 162.398 L1755.22 162.398 L1755.22 165.709 L1746.45 165.709 L1746.45 179.783 Q1746.45 182.954 1747.31 183.857 Q1748.19 184.759 1750.85 184.759 L1755.22 184.759 L1755.22 188.324 L1750.85 188.324 Q1745.92 188.324 1744.04 186.496 Q1742.17 184.644 1742.17 179.783 L1742.17 165.709 L1739.04 165.709 L1739.04 162.398 L1742.17 162.398 L1742.17 155.037 L1746.45 155.037 Z" fill="#000000" fill-rule="nonzero" fill-opacity="1" /><path clip-path="url(#clip260)" d="M1772.61 175.292 Q1767.45 175.292 1765.46 176.472 Q1763.46 177.653 1763.46 180.5 Q1763.46 182.769 1764.95 184.111 Q1766.45 185.431 1769.02 185.431 Q1772.56 185.431 1774.69 182.931 Q1776.84 180.408 1776.84 176.241 L1776.84 175.292 L1772.61 175.292 M1781.1 173.533 L1781.1 188.324 L1776.84 188.324 L1776.84 184.389 Q1775.39 186.75 1773.21 187.884 Q1771.03 188.996 1767.89 188.996 Q1763.9 188.996 1761.54 186.773 Q1759.21 184.528 1759.21 180.778 Q1759.21 176.403 1762.12 174.181 Q1765.06 171.959 1770.87 171.959 L1776.84 171.959 L1776.84 171.542 Q1776.84 168.602 1774.9 167.005 Q1772.98 165.385 1769.48 165.385 Q1767.26 165.385 1765.15 165.917 Q1763.05 166.449 1761.1 167.514 L1761.1 163.579 Q1763.44 162.676 1765.64 162.236 Q1767.84 161.773 1769.92 161.773 Q1775.55 161.773 1778.33 164.69 Q1781.1 167.607 1781.1 173.533 Z" fill="#000000" fill-rule="nonzero" fill-opacity="1" /><path clip-path="url(#clip260)" d="M1794.09 155.037 L1794.09 162.398 L1802.86 162.398 L1802.86 165.709 L1794.09 165.709 L1794.09 179.783 Q1794.09 182.954 1794.95 183.857 Q1795.83 184.759 1798.49 184.759 L1802.86 184.759 L1802.86 188.324 L1798.49 188.324 Q1793.56 188.324 1791.68 186.496 Q1789.81 184.644 1789.81 179.783 L1789.81 165.709 L1786.68 165.709 L1786.68 162.398 L1789.81 162.398 L1789.81 155.037 L1794.09 155.037 Z" fill="#000000" fill-rule="nonzero" fill-opacity="1" /><path clip-path="url(#clip260)" d="M1830.64 174.297 L1830.64 176.38 L1811.06 176.38 Q1811.33 180.778 1813.7 183.093 Q1816.08 185.384 1820.32 185.384 Q1822.77 185.384 1825.06 184.783 Q1827.38 184.181 1829.64 182.977 L1829.64 187.005 Q1827.35 187.977 1824.95 188.486 Q1822.54 188.996 1820.06 188.996 Q1813.86 188.996 1810.22 185.384 Q1806.61 181.773 1806.61 175.616 Q1806.61 169.25 1810.04 165.523 Q1813.49 161.773 1819.32 161.773 Q1824.55 161.773 1827.58 165.153 Q1830.64 168.51 1830.64 174.297 M1826.38 173.047 Q1826.33 169.551 1824.41 167.468 Q1822.51 165.385 1819.37 165.385 Q1815.8 165.385 1813.65 167.398 Q1811.52 169.412 1811.2 173.07 L1826.38 173.047 Z" fill="#000000" fill-rule="nonzero" fill-opacity="1" /><path clip-path="url(#clip260)" d="M1854.16 163.162 L1854.16 167.19 Q1852.35 166.264 1850.41 165.801 Q1848.46 165.338 1846.38 165.338 Q1843.21 165.338 1841.61 166.311 Q1840.04 167.283 1840.04 169.227 Q1840.04 170.709 1841.17 171.565 Q1842.31 172.398 1845.73 173.162 L1847.19 173.486 Q1851.73 174.459 1853.63 176.241 Q1855.55 178 1855.55 181.172 Q1855.55 184.783 1852.68 186.889 Q1849.83 188.996 1844.83 188.996 Q1842.75 188.996 1840.48 188.579 Q1838.23 188.185 1835.73 187.375 L1835.73 182.977 Q1838.09 184.204 1840.39 184.829 Q1842.68 185.431 1844.92 185.431 Q1847.93 185.431 1849.55 184.412 Q1851.17 183.371 1851.17 181.496 Q1851.17 179.76 1849.99 178.834 Q1848.83 177.908 1844.88 177.051 L1843.39 176.704 Q1839.44 175.871 1837.68 174.158 Q1835.92 172.422 1835.92 169.412 Q1835.92 165.755 1838.51 163.764 Q1841.1 161.773 1845.87 161.773 Q1848.23 161.773 1850.32 162.121 Q1852.4 162.468 1854.16 163.162 Z" fill="#000000" fill-rule="nonzero" fill-opacity="1" /></svg>
